<?xml version="1.0" encoding="UTF-8"?><svg xmlns="http://www.w3.org/2000/svg" xmlns:xlink="http://www.w3.org/1999/xlink" viewBox="0 0 238.33 238.33"><defs><style>.f{fill:#cccbcb;}.g,.h{fill:#db0812;}.i{clip-path:url(#e);}.j{fill:url(#d);}.h{fill-rule:evenodd;}.k{fill:none;stroke:#ccc;stroke-miterlimit:10;}</style><radialGradient id="d" cx="101.79" cy="119.22" fx="101.79" fy="119.22" r="9.1" gradientTransform="matrix(1, 0, 0, 1, 0, 0)" gradientUnits="userSpaceOnUse"><stop offset="0" stop-color="#fff"/><stop offset=".23" stop-color="#fbfbfb"/><stop offset=".42" stop-color="#f1f1f1"/><stop offset=".59" stop-color="#e0e0e0"/><stop offset=".75" stop-color="#c8c8c8"/><stop offset=".91" stop-color="#a9a9a9"/><stop offset="1" stop-color="#949494"/></radialGradient><clipPath id="e"><path class="j" d="M92.69,119.22c0,5.03,4.08,9.1,9.1,9.1s9.1-4.08,9.1-9.1c0-2-.65-3.85-1.74-5.35-.17,.06-.36,.1-.55,.1-.86,0-1.57-.7-1.57-1.56,0-.19,.04-.38,.1-.55-1.5-1.09-3.35-1.74-5.35-1.74-5.03,0-9.1,4.07-9.1,9.1"/></clipPath></defs><g id="a"/><g id="b"><g id="c"><g><g><rect class="k" x=".5" y=".5" width="18.26" height="18.26"/><rect class="k" x="18.76" y=".5" width="18.26" height="18.26"/><rect class="k" x="37.01" y=".5" width="18.26" height="18.26"/><rect class="k" x="55.27" y=".5" width="18.26" height="18.26"/><rect class="k" x="73.53" y=".5" width="18.26" height="18.26"/><rect class="k" x="91.78" y=".5" width="18.26" height="18.26"/><rect class="k" x="110.04" y=".5" width="18.26" height="18.26"/><rect class="k" x="128.29" y=".5" width="18.26" height="18.26"/><rect class="k" x="146.55" y=".5" width="18.26" height="18.26"/><rect class="k" x="164.81" y=".5" width="18.26" height="18.26"/><rect class="k" x="183.06" y=".5" width="18.26" height="18.26"/><rect class="k" x="201.32" y=".5" width="18.26" height="18.26"/><rect class="k" x="219.58" y=".5" width="18.26" height="18.26"/><rect class="k" x=".5" y="18.76" width="18.26" height="18.26"/><rect class="k" x="18.76" y="18.76" width="18.26" height="18.26"/><rect class="k" x="37.01" y="18.76" width="18.26" height="18.26"/><rect class="k" x="55.27" y="18.76" width="18.26" height="18.26"/><rect class="k" x="73.53" y="18.76" width="18.26" height="18.26"/><rect class="k" x="91.78" y="18.76" width="18.26" height="18.26"/><rect class="k" x="110.04" y="18.76" width="18.26" height="18.26"/><rect class="k" x="128.29" y="18.76" width="18.26" height="18.26"/><rect class="k" x="146.55" y="18.76" width="18.26" height="18.26"/><rect class="k" x="164.81" y="18.76" width="18.26" height="18.26"/><rect class="k" x="183.06" y="18.76" width="18.26" height="18.26"/><rect class="k" x="201.32" y="18.76" width="18.26" height="18.26"/><rect class="k" x="219.58" y="18.76" width="18.26" height="18.26"/><rect class="k" x=".5" y="37.01" width="18.26" height="18.26"/><rect class="k" x="18.76" y="37.01" width="18.26" height="18.26"/><rect class="k" x="37.01" y="37.01" width="18.26" height="18.26"/><rect class="k" x="55.27" y="37.01" width="18.26" height="18.26"/><rect class="k" x="73.53" y="37.01" width="18.26" height="18.26"/><rect class="k" x="91.78" y="37.01" width="18.26" height="18.26"/><rect class="k" x="110.04" y="37.01" width="18.26" height="18.26"/><rect class="k" x="128.29" y="37.01" width="18.26" height="18.26"/><rect class="k" x="146.55" y="37.01" width="18.26" height="18.26"/><rect class="k" x="164.81" y="37.01" width="18.26" height="18.26"/><rect class="k" x="183.06" y="37.01" width="18.26" height="18.26"/><rect class="k" x="201.32" y="37.01" width="18.26" height="18.26"/><rect class="k" x="219.58" y="37.01" width="18.26" height="18.26"/><rect class="k" x=".5" y="55.27" width="18.26" height="18.26"/><rect class="k" x="18.76" y="55.27" width="18.26" height="18.26"/><rect class="k" x="37.01" y="55.27" width="18.26" height="18.26"/><rect class="k" x="55.27" y="55.27" width="18.26" height="18.26"/><rect class="k" x="73.53" y="55.27" width="18.26" height="18.26"/><rect class="k" x="91.78" y="55.27" width="18.26" height="18.26"/><rect class="k" x="110.04" y="55.27" width="18.26" height="18.26"/><rect class="k" x="128.29" y="55.27" width="18.26" height="18.26"/><rect class="k" x="146.55" y="55.27" width="18.26" height="18.26"/><rect class="k" x="164.81" y="55.27" width="18.26" height="18.26"/><rect class="k" x="183.06" y="55.27" width="18.26" height="18.26"/><rect class="k" x="201.32" y="55.27" width="18.26" height="18.26"/><rect class="k" x="219.58" y="55.27" width="18.26" height="18.26"/><rect class="k" x=".5" y="73.53" width="18.26" height="18.26"/><rect class="k" x="18.76" y="73.53" width="18.26" height="18.26"/><rect class="k" x="37.01" y="73.53" width="18.26" height="18.26"/><rect class="k" x="55.27" y="73.53" width="18.26" height="18.26"/><rect class="k" x="73.53" y="73.53" width="18.26" height="18.26"/><rect class="k" x="91.78" y="73.53" width="18.26" height="18.26"/><rect class="k" x="110.04" y="73.53" width="18.26" height="18.26"/><rect class="k" x="128.29" y="73.53" width="18.26" height="18.26"/><rect class="k" x="146.55" y="73.53" width="18.26" height="18.26"/><rect class="k" x="164.81" y="73.53" width="18.26" height="18.26"/><rect class="k" x="183.06" y="73.53" width="18.26" height="18.26"/><rect class="k" x="201.32" y="73.53" width="18.26" height="18.26"/><rect class="k" x="219.58" y="73.53" width="18.26" height="18.26"/><rect class="k" x=".5" y="91.78" width="18.26" height="18.26"/><rect class="k" x="18.76" y="91.78" width="18.26" height="18.26"/><rect class="k" x="37.01" y="91.78" width="18.26" height="18.26"/><rect class="k" x="55.27" y="91.78" width="18.26" height="18.26"/><rect class="k" x="73.53" y="91.78" width="18.26" height="18.26"/><rect class="k" x="91.78" y="91.78" width="18.26" height="18.26"/><rect class="k" x="110.04" y="91.78" width="18.26" height="18.26"/><rect class="k" x="128.29" y="91.78" width="18.26" height="18.26"/><rect class="k" x="146.55" y="91.78" width="18.26" height="18.26"/><rect class="k" x="164.81" y="91.78" width="18.26" height="18.26"/><rect class="k" x="183.06" y="91.78" width="18.26" height="18.26"/><rect class="k" x="201.32" y="91.78" width="18.26" height="18.26"/><rect class="k" x="219.58" y="91.78" width="18.26" height="18.26"/><rect class="k" x=".5" y="110.04" width="18.26" height="18.26"/><rect class="k" x="18.76" y="110.04" width="18.26" height="18.26"/><rect class="k" x="37.01" y="110.04" width="18.26" height="18.26"/><rect class="k" x="55.27" y="110.04" width="18.26" height="18.26"/><rect class="k" x="73.53" y="110.04" width="18.26" height="18.26"/><rect class="k" x="91.78" y="110.04" width="18.26" height="18.26"/><rect class="k" x="110.04" y="110.04" width="18.26" height="18.26"/><rect class="k" x="128.29" y="110.04" width="18.26" height="18.26"/><rect class="k" x="146.55" y="110.04" width="18.26" height="18.26"/><rect class="k" x="164.81" y="110.04" width="18.26" height="18.26"/><rect class="k" x="183.06" y="110.04" width="18.26" height="18.26"/><rect class="k" x="201.32" y="110.04" width="18.26" height="18.26"/><rect class="k" x="219.58" y="110.04" width="18.26" height="18.26"/><rect class="k" x=".5" y="128.29" width="18.26" height="18.26"/><rect class="k" x="18.76" y="128.29" width="18.26" height="18.26"/><rect class="k" x="37.01" y="128.29" width="18.26" height="18.26"/><rect class="k" x="55.27" y="128.29" width="18.26" height="18.26"/><rect class="k" x="73.53" y="128.29" width="18.26" height="18.26"/><rect class="k" x="91.78" y="128.29" width="18.26" height="18.26"/><rect class="k" x="110.04" y="128.29" width="18.26" height="18.26"/><rect class="k" x="128.29" y="128.29" width="18.26" height="18.26"/><rect class="k" x="146.55" y="128.29" width="18.26" height="18.26"/><rect class="k" x="164.81" y="128.29" width="18.26" height="18.26"/><rect class="k" x="183.06" y="128.29" width="18.26" height="18.26"/><rect class="k" x="201.32" y="128.29" width="18.26" height="18.26"/><rect class="k" x="219.58" y="128.29" width="18.26" height="18.26"/><rect class="k" x=".5" y="146.55" width="18.26" height="18.26"/><rect class="k" x="18.76" y="146.55" width="18.26" height="18.26"/><rect class="k" x="37.01" y="146.55" width="18.26" height="18.26"/><rect class="k" x="55.27" y="146.55" width="18.26" height="18.26"/><rect class="k" x="73.53" y="146.55" width="18.26" height="18.26"/><rect class="k" x="91.78" y="146.55" width="18.26" height="18.26"/><rect class="k" x="110.04" y="146.55" width="18.26" height="18.26"/><rect class="k" x="128.29" y="146.55" width="18.26" height="18.26"/><rect class="k" x="146.55" y="146.55" width="18.26" height="18.26"/><rect class="k" x="164.81" y="146.55" width="18.26" height="18.26"/><rect class="k" x="183.06" y="146.55" width="18.26" height="18.26"/><rect class="k" x="201.32" y="146.55" width="18.26" height="18.26"/><rect class="k" x="219.58" y="146.55" width="18.26" height="18.26"/><rect class="k" x=".5" y="164.81" width="18.26" height="18.26"/><rect class="k" x="18.76" y="164.81" width="18.26" height="18.26"/><rect class="k" x="37.01" y="164.81" width="18.26" height="18.26"/><rect class="k" x="55.27" y="164.81" width="18.26" height="18.26"/><rect class="k" x="73.53" y="164.81" width="18.26" height="18.26"/><rect class="k" x="91.78" y="164.81" width="18.26" height="18.26"/><rect class="k" x="110.04" y="164.81" width="18.26" height="18.26"/><rect class="k" x="128.29" y="164.81" width="18.26" height="18.26"/><rect class="k" x="146.55" y="164.81" width="18.26" height="18.26"/><rect class="k" x="164.81" y="164.81" width="18.26" height="18.26"/><rect class="k" x="183.06" y="164.81" width="18.26" height="18.26"/><rect class="k" x="201.32" y="164.81" width="18.26" height="18.26"/><rect class="k" x="219.58" y="164.81" width="18.26" height="18.26"/><rect class="k" x=".5" y="183.06" width="18.26" height="18.26"/><rect class="k" x="18.76" y="183.06" width="18.26" height="18.26"/><rect class="k" x="37.01" y="183.06" width="18.26" height="18.26"/><rect class="k" x="55.27" y="183.06" width="18.26" height="18.26"/><rect class="k" x="73.53" y="183.06" width="18.26" height="18.26"/><rect class="k" x="91.78" y="183.06" width="18.26" height="18.26"/><rect class="k" x="110.04" y="183.06" width="18.26" height="18.26"/><rect class="k" x="128.29" y="183.06" width="18.26" height="18.26"/><rect class="k" x="146.55" y="183.06" width="18.26" height="18.26"/><rect class="k" x="164.81" y="183.06" width="18.26" height="18.26"/><rect class="k" x="183.06" y="183.06" width="18.26" height="18.26"/><rect class="k" x="201.32" y="183.06" width="18.26" height="18.26"/><rect class="k" x="219.58" y="183.06" width="18.26" height="18.26"/><rect class="k" x=".5" y="201.32" width="18.26" height="18.26"/><rect class="k" x="18.76" y="201.32" width="18.26" height="18.26"/><rect class="k" x="37.01" y="201.32" width="18.26" height="18.26"/><rect class="k" x="55.27" y="201.32" width="18.26" height="18.26"/><rect class="k" x="73.53" y="201.32" width="18.26" height="18.26"/><rect class="k" x="91.78" y="201.32" width="18.26" height="18.26"/><rect class="k" x="110.04" y="201.32" width="18.26" height="18.26"/><rect class="k" x="128.29" y="201.32" width="18.26" height="18.26"/><rect class="k" x="146.55" y="201.32" width="18.26" height="18.26"/><rect class="k" x="164.81" y="201.32" width="18.26" height="18.26"/><rect class="k" x="183.06" y="201.32" width="18.26" height="18.26"/><rect class="k" x="201.32" y="201.32" width="18.26" height="18.26"/><rect class="k" x="219.58" y="201.32" width="18.26" height="18.26"/><rect class="k" x=".5" y="219.58" width="18.26" height="18.26"/><rect class="k" x="18.76" y="219.58" width="18.26" height="18.26"/><rect class="k" x="37.01" y="219.58" width="18.26" height="18.26"/><rect class="k" x="55.27" y="219.58" width="18.26" height="18.26"/><rect class="k" x="73.53" y="219.58" width="18.26" height="18.26"/><rect class="k" x="91.78" y="219.58" width="18.26" height="18.26"/><rect class="k" x="110.04" y="219.58" width="18.26" height="18.26"/><rect class="k" x="128.29" y="219.58" width="18.26" height="18.26"/><rect class="k" x="146.55" y="219.58" width="18.26" height="18.26"/><rect class="k" x="164.81" y="219.58" width="18.26" height="18.26"/><rect class="k" x="183.06" y="219.58" width="18.26" height="18.26"/><rect class="k" x="201.32" y="219.58" width="18.26" height="18.26"/><rect class="k" x="219.58" y="219.58" width="18.26" height="18.26"/></g><g><polygon class="g" points="113.89 111.08 116.2 111.08 117.61 115.72 117.62 115.72 119 111.08 121.33 111.08 121.33 118.13 119.67 118.13 119.73 112.85 119.71 112.83 118.2 118.13 117.01 118.13 115.51 112.83 115.49 112.85 115.55 118.13 113.89 118.13 113.89 111.08"/><path class="g" d="M127.44,118.13h-1.5v-.56h-.02c-.33,.68-.97,.73-1.37,.73-.32,0-1.09-.08-1.55-.67-.42-.52-.48-.91-.48-1.63v-3.16h1.58v2.92c0,.36,0,1.06,.85,1.06,.46,0,.91-.24,.91-1.08v-2.91h1.58v5.29Z"/><path class="g" d="M128.58,112.84h1.48v.56h.02c.16-.26,.49-.74,1.44-.74,.5,0,1.07,.21,1.35,.46,.29,.25,.61,.67,.61,1.71v3.31h-1.58v-2.89c0-.37,0-1.09-.83-1.09-.91,0-.91,.78-.91,1.1v2.88h-1.58v-5.29Z"/><path class="g" d="M140.11,118.13h-1.51v-.57h-.02c-.13,.22-.51,.74-1.58,.74-1.6,0-2.65-1.24-2.65-2.83,0-1.79,1.28-2.81,2.62-2.81,.93,0,1.38,.46,1.55,.63v-2.21h1.58v7.05Zm-2.85-1.3c.99,0,1.35-.81,1.35-1.36,0-.64-.46-1.32-1.33-1.32s-1.34,.71-1.34,1.32c0,.82,.58,1.36,1.32,1.36"/><path class="g" d="M143.86,112.67c1.92,0,2.85,1.52,2.85,2.81s-.92,2.81-2.85,2.81-2.85-1.51-2.85-2.81,.92-2.81,2.85-2.81m0,4.14c.68,0,1.27-.56,1.27-1.33s-.58-1.33-1.27-1.33-1.27,.56-1.27,1.33,.58,1.33,1.27,1.33"/><polygon points="113.94 119.28 117.48 119.28 117.48 120.71 115.5 120.71 115.5 121.7 117.42 121.7 117.42 123.14 115.5 123.14 115.5 124.23 117.48 124.23 117.48 125.66 113.94 125.66 113.94 119.28"/><polygon points="123.08 120.88 121.47 123.1 123.32 125.66 121.57 125.66 120.62 124.18 119.64 125.66 117.92 125.66 119.74 123.1 118.13 120.88 119.84 120.88 120.62 122.14 121.38 120.88 123.08 120.88"/><path d="M123.86,120.88h1.34v.52h.03c.28-.36,.76-.69,1.49-.69,1.7,0,2.34,1.49,2.34,2.6,0,1.38-.97,2.51-2.33,2.51-.86,0-1.27-.41-1.44-.59v2.02h-1.43v-6.38Zm3.77,2.4c0-.57-.41-1.22-1.2-1.22s-1.2,.65-1.2,1.22c0,.6,.45,1.21,1.2,1.21s1.2-.61,1.2-1.21"/><path d="M134.47,124.16c-.23,.53-.57,.95-.97,1.22-.4,.28-.87,.43-1.36,.43-1.37,0-2.53-1.11-2.53-2.53,0-1.34,1.05-2.57,2.51-2.57s2.53,1.15,2.53,2.61c0,.19-.02,.27-.03,.38h-3.59c.09,.57,.56,.91,1.12,.91,.44,0,.67-.2,.87-.45h1.46Zm-1.26-1.42c-.06-.28-.34-.82-1.09-.82s-1.03,.53-1.09,.82h2.17Z"/><path d="M135.42,120.88h1.35v.51h.02c.12-.23,.37-.67,1.2-.67v1.44c-.66,.02-1.13,.16-1.13,.88v2.63h-1.43v-4.78Z"/><polygon points="140.45 120.88 141.14 120.88 141.14 121.96 140.45 121.96 140.45 125.66 139.02 125.66 139.02 121.96 138.31 121.96 138.31 120.88 139.02 120.88 139.02 119.28 140.45 119.28 140.45 120.88"/><path d="M144.11,120.72c1.74,0,2.58,1.37,2.58,2.54s-.84,2.54-2.58,2.54-2.58-1.37-2.58-2.54,.84-2.54,2.58-2.54m0,3.75c.62,0,1.14-.51,1.14-1.21s-.53-1.21-1.14-1.21-1.15,.51-1.15,1.21,.53,1.21,1.15,1.21"/><path class="h" d="M107.75,111.01c.24-.15,.52-.23,.83-.23,.87,0,1.57,.7,1.57,1.58,0,.3-.08,.57-.22,.81h0c1.24,1.69,1.95,3.77,1.95,6.01,0,5.59-4.54,10.13-10.13,10.13s-10.13-4.54-10.13-10.13,4.54-10.13,10.13-10.13c2.24,0,4.32,.74,6,1.97"/><path class="f" d="M107.72,112.33c0-.48,.39-.86,.86-.86s.86,.39,.86,.86-.39,.86-.86,.86-.86-.38-.86-.86"/><g><path class="j" d="M92.69,119.22c0,5.03,4.08,9.1,9.1,9.1s9.1-4.08,9.1-9.1c0-2-.65-3.85-1.74-5.35-.17,.06-.36,.1-.55,.1-.86,0-1.57-.7-1.57-1.56,0-.19,.04-.38,.1-.55-1.5-1.09-3.35-1.74-5.35-1.74-5.03,0-9.1,4.07-9.1,9.1"/><g class="i"><path d="M110.96,116.33l-.09-.53-2.6,.45v-2.98c-.1-.11-.23-.15-.38-.15-.29,0-.4,.15-.4,.15v3.12l-.86,.15v-.08c-.03-.22-.17-.2-.17-.2-.15,0-.17,.13-.17,.13l-.03,.2-.15-.02-.09-.25c-.04-.11-.2-.08-.2-.08-.12,.02-.13,.21-.13,.21l-.2-.12c-.07-.05-.17,.02-.17,.02l-.23,.21v.25l-1.56,.27-.04-.14c-.11-.36-.59-.48-.59-.48-.12-.03-.36-.11-.36-.11-.29-.1-.51-.25-.51-.25-.31-.2-.37-.44-.37-.44l.02-.22c.23-.09,.57-.28,.57-.28,.18-.1,.18-.23,.18-.23v-.45l.17-.05c.18-.06,.11-.17,.11-.17l-.17-.27c.28-.02,.42-.12,.42-.12,.14-.11,.04-.3,.04-.3-.06-.16-.4-.41-.4-.41,.04-.25-.02-.44-.02-.44-.21-.53-1.22-.58-1.22-.58-1.04-.07-1.46,.72-1.46,.72,0,0-.07,.13-.1,.33,0,0-.03,.22-.13,.28-.21,.13-.16,.35-.16,.35,.03,.17,.56,.67,.56,.67l.02,.56c-.4,.16-1.18-.05-1.18-.05-.69-.18-1.2,.05-1.2,.05-.35,.17-.85,.22-.85,.22-1.04,.1-1.75,.3-1.75,.3-.65,.17-.65,.71-.65,.71l-.02,.95-.35,.37,.56,.69-.07,.32,.02,.03-2.29,.4,.09,.53,2.54-.44,.24,.34s.05,.08,.12,.08h.34c.13,0,.16-.09,.16-.09l.08-.14,.25-.02s.12,0,.17-.1l.22-.35h0l.97-.18c.16,1.51,.26,3.58,.26,3.58l.39,.39c-.21,.32-.34,.77-.42,1.25l-4.8-2.01-.31,.75,5.02,2.1c-.09,1.3,.08,2.59,.08,2.59l.05,.3,2.36,.79c.13-.43,.36-2.19,.4-2.46l.39,.16,.47,1.87-.13,.51,2.39-.18c.03-.31,.04-.67,.02-1.05l2.58,1.08,.31-.75-2.96-1.24c-.18-1.79-.64-3.7-.64-3.7l.24-.51c-.01-.23-.27-2.08-.27-2.08,.16,.04,.37,.25,.37,.25,.24,.31,.48,.25,.48,.25,.3-.04,.53-.53,.53-.53,.78-1.51,2.07-2.72,2.34-2.96l.85-.15v9.64h.78v-9.78l2.69-.47Zm-14.66,2.01l-.21-.48-.44-.05-.23-.44,.37-.58,1.46,.44c.07,.15,.13,.48,.18,.9l-1.13,.2Zm7.63,.02l-.23-.76,1.22-.21c-.29,.28-.99,.98-.99,.98"/></g></g></g></g></g></g></svg>