<?xml version="1.0" encoding="UTF-8"?><svg xmlns="http://www.w3.org/2000/svg" xmlns:xlink="http://www.w3.org/1999/xlink" viewBox="0 0 238.33 238.33"><defs><style>.f{fill:#cccbcb;}.g,.h{fill:#db0812;}.i{clip-path:url(#e);}.j{fill:url(#d);}.h{fill-rule:evenodd;}.k{fill:none;stroke:#ccc;stroke-miterlimit:10;}</style><radialGradient id="d" cx="55.75" cy="116.46" fx="55.75" fy="116.46" r="33.22" gradientTransform="matrix(1, 0, 0, 1, 0, 0)" gradientUnits="userSpaceOnUse"><stop offset="0" stop-color="#fff"/><stop offset=".23" stop-color="#fbfbfb"/><stop offset=".42" stop-color="#f1f1f1"/><stop offset=".59" stop-color="#e0e0e0"/><stop offset=".75" stop-color="#c8c8c8"/><stop offset=".91" stop-color="#a9a9a9"/><stop offset="1" stop-color="#949494"/></radialGradient><clipPath id="e"><path class="j" d="M22.53,116.46c0,18.34,14.88,33.22,33.22,33.22s33.22-14.88,33.22-33.22c0-7.28-2.36-14.04-6.34-19.51-.61,.22-1.33,.37-2.01,.37-3.15,0-5.71-2.56-5.71-5.71,0-.71,.13-1.39,.38-2.02-5.49-3.99-12.24-6.35-19.54-6.35-18.35,0-33.22,14.87-33.22,33.22"/></clipPath></defs><g id="a"/><g id="b"><g id="c"><g><g><rect class="k" x=".5" y=".5" width="18.26" height="18.26"/><rect class="k" x="18.76" y=".5" width="18.26" height="18.26"/><rect class="k" x="37.01" y=".5" width="18.26" height="18.26"/><rect class="k" x="55.27" y=".5" width="18.26" height="18.26"/><rect class="k" x="73.53" y=".5" width="18.26" height="18.26"/><rect class="k" x="91.78" y=".5" width="18.26" height="18.26"/><rect class="k" x="110.04" y=".5" width="18.26" height="18.26"/><rect class="k" x="128.29" y=".5" width="18.26" height="18.26"/><rect class="k" x="146.55" y=".5" width="18.26" height="18.26"/><rect class="k" x="164.81" y=".5" width="18.26" height="18.26"/><rect class="k" x="183.06" y=".5" width="18.26" height="18.26"/><rect class="k" x="201.32" y=".5" width="18.26" height="18.26"/><rect class="k" x="219.58" y=".5" width="18.26" height="18.26"/><rect class="k" x=".5" y="18.76" width="18.26" height="18.26"/><rect class="k" x="18.76" y="18.76" width="18.26" height="18.26"/><rect class="k" x="37.01" y="18.76" width="18.26" height="18.26"/><rect class="k" x="55.27" y="18.76" width="18.26" height="18.26"/><rect class="k" x="73.53" y="18.76" width="18.26" height="18.26"/><rect class="k" x="91.78" y="18.76" width="18.26" height="18.26"/><rect class="k" x="110.04" y="18.76" width="18.26" height="18.26"/><rect class="k" x="128.29" y="18.76" width="18.26" height="18.26"/><rect class="k" x="146.55" y="18.76" width="18.26" height="18.26"/><rect class="k" x="164.81" y="18.76" width="18.26" height="18.26"/><rect class="k" x="183.06" y="18.76" width="18.26" height="18.26"/><rect class="k" x="201.32" y="18.76" width="18.26" height="18.26"/><rect class="k" x="219.58" y="18.76" width="18.26" height="18.26"/><rect class="k" x=".5" y="37.01" width="18.26" height="18.26"/><rect class="k" x="18.76" y="37.01" width="18.26" height="18.26"/><rect class="k" x="37.01" y="37.01" width="18.26" height="18.26"/><rect class="k" x="55.27" y="37.01" width="18.26" height="18.26"/><rect class="k" x="73.53" y="37.01" width="18.26" height="18.26"/><rect class="k" x="91.78" y="37.01" width="18.26" height="18.26"/><rect class="k" x="110.04" y="37.01" width="18.26" height="18.26"/><rect class="k" x="128.29" y="37.01" width="18.26" height="18.26"/><rect class="k" x="146.55" y="37.01" width="18.26" height="18.26"/><rect class="k" x="164.81" y="37.01" width="18.26" height="18.26"/><rect class="k" x="183.06" y="37.01" width="18.26" height="18.26"/><rect class="k" x="201.32" y="37.01" width="18.26" height="18.26"/><rect class="k" x="219.58" y="37.01" width="18.26" height="18.26"/><rect class="k" x=".5" y="55.27" width="18.26" height="18.26"/><rect class="k" x="18.76" y="55.27" width="18.26" height="18.26"/><rect class="k" x="37.01" y="55.27" width="18.26" height="18.26"/><rect class="k" x="55.27" y="55.27" width="18.26" height="18.26"/><rect class="k" x="73.53" y="55.27" width="18.26" height="18.26"/><rect class="k" x="91.78" y="55.27" width="18.26" height="18.26"/><rect class="k" x="110.04" y="55.27" width="18.26" height="18.26"/><rect class="k" x="128.29" y="55.27" width="18.26" height="18.26"/><rect class="k" x="146.55" y="55.27" width="18.26" height="18.26"/><rect class="k" x="164.81" y="55.27" width="18.26" height="18.26"/><rect class="k" x="183.06" y="55.27" width="18.26" height="18.26"/><rect class="k" x="201.32" y="55.27" width="18.26" height="18.26"/><rect class="k" x="219.58" y="55.27" width="18.26" height="18.26"/><rect class="k" x=".5" y="73.53" width="18.26" height="18.26"/><rect class="k" x="18.76" y="73.53" width="18.26" height="18.26"/><rect class="k" x="37.01" y="73.53" width="18.26" height="18.26"/><rect class="k" x="55.27" y="73.53" width="18.26" height="18.26"/><rect class="k" x="73.53" y="73.53" width="18.26" height="18.26"/><rect class="k" x="91.78" y="73.53" width="18.26" height="18.26"/><rect class="k" x="110.04" y="73.53" width="18.26" height="18.26"/><rect class="k" x="128.29" y="73.53" width="18.26" height="18.26"/><rect class="k" x="146.55" y="73.53" width="18.26" height="18.26"/><rect class="k" x="164.81" y="73.53" width="18.26" height="18.26"/><rect class="k" x="183.06" y="73.53" width="18.26" height="18.26"/><rect class="k" x="201.32" y="73.53" width="18.26" height="18.26"/><rect class="k" x="219.58" y="73.53" width="18.26" height="18.26"/><rect class="k" x=".5" y="91.78" width="18.26" height="18.26"/><rect class="k" x="18.76" y="91.78" width="18.26" height="18.26"/><rect class="k" x="37.01" y="91.78" width="18.26" height="18.26"/><rect class="k" x="55.27" y="91.78" width="18.26" height="18.26"/><rect class="k" x="73.53" y="91.78" width="18.26" height="18.26"/><rect class="k" x="91.78" y="91.78" width="18.26" height="18.26"/><rect class="k" x="110.04" y="91.78" width="18.26" height="18.26"/><rect class="k" x="128.29" y="91.78" width="18.26" height="18.26"/><rect class="k" x="146.55" y="91.78" width="18.26" height="18.26"/><rect class="k" x="164.81" y="91.78" width="18.26" height="18.26"/><rect class="k" x="183.06" y="91.78" width="18.26" height="18.26"/><rect class="k" x="201.32" y="91.78" width="18.26" height="18.26"/><rect class="k" x="219.58" y="91.78" width="18.26" height="18.26"/><rect class="k" x=".5" y="110.04" width="18.26" height="18.26"/><rect class="k" x="18.76" y="110.04" width="18.26" height="18.26"/><rect class="k" x="37.01" y="110.04" width="18.26" height="18.26"/><rect class="k" x="55.27" y="110.04" width="18.26" height="18.26"/><rect class="k" x="73.53" y="110.04" width="18.26" height="18.26"/><rect class="k" x="91.78" y="110.04" width="18.26" height="18.26"/><rect class="k" x="110.04" y="110.04" width="18.26" height="18.26"/><rect class="k" x="128.29" y="110.04" width="18.26" height="18.26"/><rect class="k" x="146.55" y="110.04" width="18.26" height="18.26"/><rect class="k" x="164.81" y="110.04" width="18.26" height="18.26"/><rect class="k" x="183.06" y="110.04" width="18.26" height="18.26"/><rect class="k" x="201.32" y="110.04" width="18.26" height="18.26"/><rect class="k" x="219.58" y="110.04" width="18.26" height="18.26"/><rect class="k" x=".5" y="128.29" width="18.26" height="18.26"/><rect class="k" x="18.76" y="128.29" width="18.26" height="18.26"/><rect class="k" x="37.01" y="128.29" width="18.26" height="18.26"/><rect class="k" x="55.27" y="128.29" width="18.26" height="18.26"/><rect class="k" x="73.53" y="128.29" width="18.26" height="18.26"/><rect class="k" x="91.78" y="128.29" width="18.26" height="18.26"/><rect class="k" x="110.04" y="128.29" width="18.26" height="18.26"/><rect class="k" x="128.29" y="128.29" width="18.26" height="18.26"/><rect class="k" x="146.55" y="128.29" width="18.26" height="18.26"/><rect class="k" x="164.81" y="128.29" width="18.26" height="18.26"/><rect class="k" x="183.06" y="128.29" width="18.26" height="18.26"/><rect class="k" x="201.32" y="128.29" width="18.26" height="18.26"/><rect class="k" x="219.58" y="128.29" width="18.26" height="18.26"/><rect class="k" x=".5" y="146.55" width="18.26" height="18.26"/><rect class="k" x="18.76" y="146.55" width="18.26" height="18.26"/><rect class="k" x="37.01" y="146.55" width="18.26" height="18.26"/><rect class="k" x="55.27" y="146.55" width="18.26" height="18.26"/><rect class="k" x="73.53" y="146.55" width="18.26" height="18.26"/><rect class="k" x="91.78" y="146.55" width="18.26" height="18.26"/><rect class="k" x="110.04" y="146.55" width="18.26" height="18.26"/><rect class="k" x="128.29" y="146.55" width="18.26" height="18.26"/><rect class="k" x="146.55" y="146.55" width="18.26" height="18.26"/><rect class="k" x="164.81" y="146.55" width="18.26" height="18.26"/><rect class="k" x="183.06" y="146.55" width="18.26" height="18.26"/><rect class="k" x="201.32" y="146.55" width="18.26" height="18.26"/><rect class="k" x="219.58" y="146.55" width="18.26" height="18.26"/><rect class="k" x=".5" y="164.81" width="18.26" height="18.26"/><rect class="k" x="18.76" y="164.81" width="18.26" height="18.26"/><rect class="k" x="37.01" y="164.81" width="18.26" height="18.26"/><rect class="k" x="55.27" y="164.81" width="18.26" height="18.26"/><rect class="k" x="73.53" y="164.81" width="18.26" height="18.26"/><rect class="k" x="91.78" y="164.81" width="18.26" height="18.26"/><rect class="k" x="110.04" y="164.81" width="18.26" height="18.26"/><rect class="k" x="128.29" y="164.81" width="18.26" height="18.26"/><rect class="k" x="146.55" y="164.81" width="18.26" height="18.26"/><rect class="k" x="164.81" y="164.81" width="18.26" height="18.26"/><rect class="k" x="183.06" y="164.81" width="18.26" height="18.26"/><rect class="k" x="201.32" y="164.81" width="18.26" height="18.26"/><rect class="k" x="219.58" y="164.81" width="18.26" height="18.26"/><rect class="k" x=".5" y="183.06" width="18.26" height="18.26"/><rect class="k" x="18.76" y="183.06" width="18.26" height="18.26"/><rect class="k" x="37.01" y="183.06" width="18.26" height="18.26"/><rect class="k" x="55.27" y="183.06" width="18.26" height="18.26"/><rect class="k" x="73.53" y="183.06" width="18.26" height="18.26"/><rect class="k" x="91.78" y="183.06" width="18.26" height="18.26"/><rect class="k" x="110.04" y="183.06" width="18.26" height="18.26"/><rect class="k" x="128.29" y="183.06" width="18.26" height="18.26"/><rect class="k" x="146.55" y="183.06" width="18.26" height="18.26"/><rect class="k" x="164.81" y="183.06" width="18.26" height="18.26"/><rect class="k" x="183.06" y="183.06" width="18.26" height="18.26"/><rect class="k" x="201.32" y="183.06" width="18.26" height="18.26"/><rect class="k" x="219.58" y="183.06" width="18.26" height="18.26"/><rect class="k" x=".5" y="201.32" width="18.26" height="18.26"/><rect class="k" x="18.76" y="201.32" width="18.26" height="18.26"/><rect class="k" x="37.01" y="201.32" width="18.26" height="18.26"/><rect class="k" x="55.27" y="201.32" width="18.26" height="18.26"/><rect class="k" x="73.53" y="201.32" width="18.26" height="18.26"/><rect class="k" x="91.78" y="201.32" width="18.26" height="18.26"/><rect class="k" x="110.04" y="201.32" width="18.26" height="18.26"/><rect class="k" x="128.29" y="201.32" width="18.26" height="18.26"/><rect class="k" x="146.55" y="201.32" width="18.26" height="18.26"/><rect class="k" x="164.81" y="201.32" width="18.26" height="18.26"/><rect class="k" x="183.06" y="201.32" width="18.26" height="18.26"/><rect class="k" x="201.32" y="201.32" width="18.26" height="18.26"/><rect class="k" x="219.58" y="201.32" width="18.26" height="18.26"/><rect class="k" x=".5" y="219.58" width="18.26" height="18.26"/><rect class="k" x="18.76" y="219.58" width="18.26" height="18.26"/><rect class="k" x="37.01" y="219.58" width="18.26" height="18.26"/><rect class="k" x="55.27" y="219.58" width="18.26" height="18.26"/><rect class="k" x="73.53" y="219.58" width="18.26" height="18.26"/><rect class="k" x="91.78" y="219.58" width="18.26" height="18.26"/><rect class="k" x="110.04" y="219.58" width="18.26" height="18.26"/><rect class="k" x="128.29" y="219.58" width="18.26" height="18.26"/><rect class="k" x="146.55" y="219.58" width="18.26" height="18.26"/><rect class="k" x="164.81" y="219.58" width="18.26" height="18.26"/><rect class="k" x="183.06" y="219.58" width="18.26" height="18.26"/><rect class="k" x="201.32" y="219.58" width="18.26" height="18.26"/><rect class="k" x="219.58" y="219.58" width="18.26" height="18.26"/></g><g><polygon class="g" points="99.9 86.74 108.35 86.74 113.47 103.68 113.53 103.68 118.57 86.74 127.06 86.74 127.06 112.48 121.01 112.48 121.22 93.21 121.15 93.15 115.65 112.48 111.3 112.48 105.81 93.15 105.74 93.21 105.95 112.48 99.9 112.48 99.9 86.74"/><path class="g" d="M149.36,112.48h-5.46v-2.05h-.07c-1.19,2.47-3.55,2.68-5.01,2.68-1.18,0-3.96-.28-5.67-2.44-1.53-1.91-1.74-3.31-1.74-5.95v-11.55h5.77v10.68c0,1.32,0,3.86,3.1,3.86,1.67,0,3.31-.87,3.31-3.93v-10.61h5.77v19.3Z"/><path class="g" d="M153.54,93.18h5.39v2.05h.07c.59-.94,1.8-2.71,5.25-2.71,1.84,0,3.89,.76,4.93,1.66,1.05,.9,2.23,2.43,2.23,6.23v12.07h-5.77v-10.54c0-1.36,0-4-3.03-4-3.3,0-3.3,2.85-3.3,4.03v10.51h-5.77v-19.3Z"/><path class="g" d="M195.63,112.48h-5.5v-2.08h-.07c-.49,.8-1.88,2.71-5.78,2.71-5.84,0-9.66-4.52-9.66-10.32,0-6.54,4.66-10.26,9.57-10.26,3.4,0,5.04,1.67,5.67,2.29v-8.07h5.78v25.74Zm-10.4-4.76c3.62,0,4.93-2.96,4.93-4.98,0-2.33-1.67-4.83-4.87-4.83s-4.9,2.61-4.9,4.83c0,2.99,2.12,4.98,4.83,4.98"/><path class="g" d="M209.3,92.55c7.02,0,10.39,5.54,10.39,10.27s-3.37,10.26-10.39,10.26-10.4-5.53-10.4-10.26,3.37-10.27,10.4-10.27m0,15.13c2.5,0,4.62-2.05,4.62-4.86s-2.12-4.87-4.62-4.87-4.63,2.05-4.63,4.87,2.13,4.86,4.63,4.86"/><polygon points="100.08 116.69 113.01 116.69 113.01 121.91 105.77 121.91 105.77 125.53 112.79 125.53 112.79 130.75 105.77 130.75 105.77 134.74 113.01 134.74 113.01 139.97 100.08 139.97 100.08 116.69"/><polygon points="133.46 122.51 127.57 130.62 134.34 139.97 127.95 139.97 124.46 134.56 120.91 139.97 114.62 139.97 121.25 130.62 115.37 122.51 121.63 122.51 124.46 127.1 127.26 122.51 133.46 122.51"/><path d="M136.29,122.51h4.91v1.91h.1c1.03-1.32,2.77-2.51,5.44-2.51,6.19,0,8.52,5.44,8.52,9.5,0,5.03-3.53,9.15-8.49,9.15-3.14,0-4.63-1.51-5.26-2.17v7.39h-5.22v-23.27Zm13.75,8.74c0-2.08-1.51-4.47-4.37-4.47s-4.37,2.39-4.37,4.47c0,2.2,1.63,4.43,4.37,4.43s4.37-2.23,4.37-4.43"/><path d="M175.04,134.49c-.84,1.95-2.07,3.46-3.55,4.47-1.45,1.04-3.18,1.57-4.97,1.57-5,0-9.25-4.06-9.25-9.25,0-4.88,3.84-9.38,9.15-9.38s9.22,4.21,9.22,9.53c0,.7-.06,.97-.12,1.38h-13.09c.32,2.08,2.05,3.31,4.09,3.31,1.61,0,2.46-.72,3.18-1.64h5.34Zm-4.62-5.19c-.22-1.04-1.26-2.98-3.96-2.98s-3.74,1.95-3.97,2.98h7.93Z"/><path d="M178.51,122.51h4.91v1.86h.06c.45-.85,1.35-2.46,4.37-2.46v5.25c-2.42,.07-4.12,.57-4.12,3.21v9.6h-5.22v-17.46Z"/><polygon points="196.85 122.51 199.36 122.51 199.36 126.47 196.85 126.47 196.85 139.97 191.62 139.97 191.62 126.47 189.04 126.47 189.04 122.51 191.62 122.51 191.62 116.69 196.85 116.69 196.85 122.51"/><path d="M210.22,121.94c6.36,0,9.41,5,9.41,9.28s-3.05,9.28-9.41,9.28-9.41-5-9.41-9.28,3.06-9.28,9.41-9.28m0,13.68c2.26,0,4.18-1.86,4.18-4.4s-1.92-4.41-4.18-4.41-4.18,1.86-4.18,4.41,1.92,4.4,4.18,4.4"/><path class="h" d="M77.51,86.48c.88-.55,1.9-.86,3.02-.86,3.17,0,5.75,2.57,5.75,5.75,0,1.08-.29,2.08-.81,2.95l.02,.02c4.52,6.13,7.12,13.72,7.12,21.92,0,20.42-16.56,36.98-36.98,36.98s-36.98-16.56-36.98-36.98,16.56-36.98,36.98-36.98c8.18,0,15.76,2.69,21.89,7.19"/><path class="f" d="M77.38,91.32c0-1.73,1.41-3.14,3.14-3.14s3.14,1.41,3.14,3.14-1.41,3.14-3.14,3.14-3.14-1.4-3.14-3.14"/><g><path class="j" d="M22.53,116.46c0,18.34,14.88,33.22,33.22,33.22s33.22-14.88,33.22-33.22c0-7.28-2.36-14.04-6.34-19.51-.61,.22-1.33,.37-2.01,.37-3.15,0-5.71-2.56-5.71-5.71,0-.71,.13-1.39,.38-2.02-5.49-3.99-12.24-6.35-19.54-6.35-18.35,0-33.22,14.87-33.22,33.22"/><g class="i"><path d="M89.23,105.9l-.34-1.93-9.47,1.65v-10.89c-.36-.39-.83-.55-1.4-.55-1.05,0-1.45,.55-1.45,.55v11.39l-3.15,.54-.04-.28c-.08-.82-.6-.74-.6-.74-.54,0-.61,.46-.61,.46l-.1,.75-.54-.07-.32-.93c-.13-.41-.74-.28-.74-.28-.43,.06-.47,.75-.47,.75l-.71-.43c-.25-.18-.6,.07-.6,.07l-.85,.78-.05,.91-5.63,.98-.15-.5c-.4-1.3-2.14-1.74-2.14-1.74-.43-.1-1.32-.39-1.32-.39-1.07-.35-1.85-.92-1.85-.92-1.14-.74-1.35-1.6-1.35-1.6l.08-.82c.85-.32,2.09-1.03,2.09-1.03,.67-.38,.64-.82,.64-.82v-1.63l.61-.18c.66-.22,.39-.61,.39-.61l-.61-.99c1.01-.06,1.53-.43,1.53-.43,.5-.39,.14-1.1,.14-1.1-.22-.57-1.47-1.5-1.47-1.5,.15-.91-.09-1.6-.09-1.6-.77-1.93-4.47-2.12-4.47-2.12-3.8-.25-5.32,2.62-5.32,2.62,0,0-.25,.46-.38,1.19,0,0-.11,.79-.46,1.01-.76,.49-.59,1.27-.59,1.27,.12,.62,2.03,2.44,2.03,2.44l.09,2.03c-1.44,.59-4.32-.17-4.32-.17-2.53-.66-4.39,.17-4.39,.17-1.29,.6-3.11,.8-3.11,.8-3.79,.36-6.4,1.08-6.4,1.08-2.37,.63-2.38,2.6-2.38,2.6l-.09,3.46-1.27,1.35,2.03,2.53-.26,1.18,.08,.13-8.35,1.46,.33,1.94,9.28-1.62,.89,1.26s.17,.3,.44,.3h1.24c.46,0,.59-.34,.59-.34l.31-.5,.92-.06s.44,0,.63-.36l.81-1.27-.02-.04,3.55-.62c.58,5.49,.95,13.07,.95,13.07l1.43,1.44c-.76,1.18-1.24,2.8-1.54,4.56l-17.53-7.33-1.13,2.72,18.32,7.66c-.31,4.74,.28,9.44,.28,9.44l.2,1.08,8.61,2.88c.49-1.57,1.32-8,1.44-9l1.44,.6,1.71,6.83-.47,1.85,8.72-.64c.13-1.14,.14-2.44,.09-3.83l9.42,3.95,1.14-2.72-10.79-4.52c-.67-6.55-2.32-13.51-2.32-13.51l.89-1.86c-.04-.85-1-7.61-1-7.61,.57,.14,1.35,.92,1.35,.92,.87,1.11,1.74,.93,1.74,.93,1.1-.14,1.92-1.92,1.92-1.92,2.86-5.5,7.55-9.93,8.53-10.82l3.09-.54v35.19h2.86v-35.69l9.81-1.72Zm-53.53,7.33l-.77-1.74-1.6-.17-.85-1.61,1.36-2.11,5.32,1.6c.24,.55,.47,1.76,.67,3.3l-4.13,.72Zm27.86,.09l-.84-2.79,4.47-.78c-1.07,1.02-3.63,3.57-3.63,3.57"/></g></g><path d="M107.98,155.61v.04c.03,1.02-.3,1.84-.98,2.46-.68,.63-1.6,.94-2.75,.94s-2.12-.4-2.85-1.19c-.73-.79-1.09-1.8-1.09-3.04v-1.92c0-1.23,.36-2.24,1.08-3.04s1.66-1.2,2.82-1.2,2.12,.3,2.8,.91c.68,.61,1.01,1.43,.99,2.49v.04h-1.64c0-.67-.18-1.19-.55-1.55-.36-.36-.9-.54-1.61-.54s-1.23,.27-1.62,.81c-.4,.54-.6,1.23-.6,2.05v1.93c0,.84,.2,1.53,.61,2.07,.41,.54,.96,.81,1.66,.81s1.21-.18,1.57-.54c.36-.36,.54-.88,.54-1.56h1.62Zm3.4,3.3h-1.68v-10.81h1.68v10.81Zm6.7-1.11c-.23,.4-.53,.71-.89,.93-.36,.22-.78,.33-1.26,.33-.8,0-1.43-.26-1.88-.79-.45-.53-.68-1.35-.68-2.46v-4.39h1.68v4.4c0,.72,.1,1.21,.31,1.47,.21,.27,.53,.4,.97,.4,.41,0,.75-.07,1.02-.22,.27-.15,.49-.36,.65-.63v-5.42h1.68v7.5h-1.45l-.15-1.11Zm10.08-2.39c0,1.09-.26,1.98-.77,2.64-.51,.67-1.23,1-2.16,1-.47,0-.88-.1-1.23-.29-.35-.19-.64-.48-.87-.85l-.2,.99h-1.36v-10.81h1.68v4.16c.23-.32,.51-.56,.83-.73,.32-.17,.7-.26,1.13-.26,.94,0,1.66,.36,2.17,1.09,.51,.73,.77,1.7,.77,2.9v.15Zm-1.68-.15c0-.78-.13-1.41-.4-1.89-.27-.48-.69-.72-1.27-.72-.37,0-.69,.08-.94,.25-.25,.17-.45,.4-.6,.69v3.15c.14,.3,.34,.53,.6,.7,.25,.16,.57,.25,.96,.25,.58,0,1-.2,1.27-.61s.39-.96,.39-1.66v-.15Zm6.64,0c0-1.2,.26-2.16,.77-2.89,.51-.73,1.23-1.1,2.16-1.1,.41,0,.77,.08,1.09,.25,.32,.16,.6,.4,.83,.7v-4.12h1.68v10.81h-1.36l-.2-.95c-.24,.36-.53,.63-.87,.81-.34,.19-.74,.28-1.18,.28-.92,0-1.64-.33-2.15-1-.51-.67-.77-1.55-.77-2.64v-.15Zm1.68,.15c0,.69,.13,1.24,.4,1.66,.27,.41,.69,.62,1.26,.62,.36,0,.66-.08,.9-.23,.25-.15,.45-.37,.61-.65v-3.27c-.16-.28-.36-.49-.61-.65-.25-.15-.55-.23-.89-.23-.57,0-1,.24-1.27,.72-.27,.48-.41,1.11-.41,1.89v.15Zm9.98,3.64c-1.09,0-1.95-.35-2.57-1.04-.62-.69-.93-1.59-.93-2.68v-.28c0-1.1,.31-2.01,.93-2.72s1.41-1.07,2.39-1.06c1.01,0,1.77,.31,2.29,.93,.52,.62,.78,1.45,.78,2.49v.91h-4.64v.03c0,.61,.17,1.11,.47,1.5,.3,.38,.76,.58,1.38,.58,.46,0,.85-.06,1.19-.17,.33-.11,.65-.27,.93-.48l.55,1.1c-.29,.25-.67,.46-1.14,.63s-1.01,.26-1.63,.26Zm-.18-6.43c-.44,0-.79,.16-1.05,.47-.26,.32-.43,.73-.49,1.24v.03h2.94v-.13c0-.48-.11-.87-.34-1.17-.22-.3-.58-.45-1.06-.45Zm14.82,2.79c0,1.09-.26,1.98-.77,2.64-.51,.67-1.23,1-2.16,1-.47,0-.88-.1-1.23-.29-.35-.19-.64-.48-.87-.85l-.2,.99h-1.36v-10.81h1.68v4.16c.23-.32,.51-.56,.83-.73,.32-.17,.7-.26,1.13-.26,.94,0,1.66,.36,2.17,1.09,.51,.73,.77,1.7,.77,2.9v.15Zm-1.68-.15c0-.78-.13-1.41-.4-1.89-.27-.48-.69-.72-1.27-.72-.37,0-.69,.08-.94,.25-.25,.17-.45,.4-.6,.69v3.15c.14,.3,.34,.53,.6,.7,.25,.16,.57,.25,.96,.25,.58,0,1-.2,1.27-.61s.39-.96,.39-1.66v-.15Zm6.46,3.79c-1.09,0-1.95-.35-2.57-1.04-.62-.69-.93-1.59-.93-2.68v-.28c0-1.1,.31-2.01,.93-2.72s1.41-1.07,2.39-1.06c1.01,0,1.77,.31,2.29,.93,.52,.62,.78,1.45,.78,2.49v.91h-4.64v.03c0,.61,.17,1.11,.47,1.5,.3,.38,.76,.58,1.38,.58,.46,0,.85-.06,1.19-.17,.33-.11,.65-.27,.93-.48l.55,1.1c-.29,.25-.67,.46-1.14,.63s-1.01,.26-1.63,.26Zm-.18-6.43c-.44,0-.79,.16-1.05,.47-.26,.32-.43,.73-.49,1.24v.03h2.94v-.13c0-.48-.11-.87-.34-1.17-.22-.3-.58-.45-1.06-.45Zm6.09-1.21l.1,1.08c.24-.38,.55-.68,.93-.9,.37-.21,.79-.32,1.26-.32,.78,0,1.39,.24,1.83,.72,.44,.48,.65,1.23,.65,2.25v4.66h-1.68v-4.65c0-.58-.11-1-.34-1.24-.23-.24-.57-.37-1.03-.37-.36,0-.67,.07-.94,.2-.26,.14-.47,.32-.63,.56v5.49h-1.68v-7.5h1.54Zm9.83,7.64c-1.09,0-1.95-.35-2.57-1.04-.62-.69-.93-1.59-.93-2.68v-.28c0-1.1,.31-2.01,.93-2.72s1.41-1.07,2.39-1.06c1.01,0,1.77,.31,2.29,.93,.52,.62,.78,1.45,.78,2.49v.91h-4.64v.03c0,.61,.17,1.11,.47,1.5,.3,.38,.76,.58,1.38,.58,.46,0,.85-.06,1.19-.17,.33-.11,.65-.27,.93-.48l.55,1.1c-.29,.25-.67,.46-1.14,.63s-1.01,.26-1.63,.26Zm-.18-6.43c-.44,0-.79,.16-1.05,.47-.26,.32-.43,.73-.49,1.24v.03h2.94v-.13c0-.48-.11-.87-.34-1.17-.22-.3-.58-.45-1.06-.45Zm4.99,6.28v-6.25h-1.14v-1.25h1.14v-.64c0-.9,.27-1.6,.8-2.09,.53-.49,1.27-.73,2.23-.73,.33,0,.66,.04,.99,.11,.33,.07,.7,.17,1.13,.31l-.26,1.39c-.29-.1-.57-.18-.85-.24s-.58-.09-.9-.09c-.5,0-.87,.11-1.11,.34-.24,.22-.35,.56-.35,1.01v.64h1.48v1.25h-1.48v6.25h-1.68Zm5.94,0h-1.68v-7.5h1.68v7.5Zm5.09-1.2c.38,0,.71-.12,.97-.36,.27-.24,.4-.55,.4-.91h1.52v.04c.03,.7-.25,1.31-.82,1.82-.58,.51-1.27,.76-2.08,.76-1.08,0-1.91-.36-2.5-1.07-.59-.71-.88-1.61-.88-2.7v-.24c0-1.08,.29-1.98,.88-2.7,.59-.72,1.42-1.07,2.49-1.07,.87,0,1.58,.26,2.13,.79,.55,.52,.81,1.19,.79,2v.04h-1.54c0-.41-.13-.76-.38-1.05-.25-.29-.59-.43-1-.43-.6,0-1.03,.23-1.3,.7s-.39,1.04-.39,1.72v.24c0,.7,.13,1.28,.39,1.74,.26,.46,.7,.69,1.31,.69Zm6.26-8.13h-1.68v-1.48h1.68v1.48Zm0,9.33h-1.68v-7.5h1.68v7.5Zm1.71-3.82c0-1.12,.31-2.03,.92-2.75,.61-.71,1.45-1.07,2.51-1.07s1.92,.36,2.53,1.07c.61,.71,.92,1.63,.92,2.75v.15c0,1.13-.31,2.05-.92,2.75-.61,.71-1.45,1.06-2.52,1.06s-1.91-.36-2.53-1.07c-.61-.71-.92-1.63-.92-2.75v-.15Zm1.68,.15c0,.73,.14,1.33,.43,1.79,.29,.46,.73,.69,1.33,.69s1.03-.23,1.32-.69c.29-.46,.44-1.05,.44-1.78v-.15c0-.72-.15-1.31-.44-1.77-.29-.46-.74-.7-1.33-.7s-1.02,.23-1.31,.7c-.29,.46-.43,1.05-.43,1.77v.15Zm11.01,1.62c0-.26-.11-.47-.33-.64-.22-.17-.63-.32-1.24-.45-.88-.18-1.56-.45-2.02-.8-.47-.35-.7-.82-.7-1.41,0-.63,.27-1.17,.8-1.61,.53-.45,1.23-.67,2.1-.67s1.62,.23,2.17,.69c.55,.46,.81,1.01,.79,1.66v.04h-1.63c0-.3-.12-.57-.36-.79-.24-.22-.56-.34-.96-.34s-.72,.09-.93,.28c-.21,.18-.32,.41-.32,.68,0,.25,.1,.46,.3,.61,.2,.15,.61,.29,1.23,.41,.92,.18,1.61,.46,2.08,.81,.47,.36,.7,.84,.7,1.44,0,.67-.28,1.23-.83,1.65-.56,.43-1.29,.64-2.2,.64-.97,0-1.74-.25-2.31-.75-.56-.5-.83-1.07-.8-1.72v-.04h1.58c.02,.43,.18,.75,.47,.95,.3,.2,.66,.3,1.08,.3s.76-.09,1-.26c.24-.17,.36-.4,.36-.68Z"/></g></g></g></g></svg>