<?xml version="1.0" encoding="UTF-8"?><svg xmlns="http://www.w3.org/2000/svg" xmlns:xlink="http://www.w3.org/1999/xlink" viewBox="0 0 238.33 238.33"><defs><style>.f{fill:#cccbcb;}.g,.h{fill:#db0812;}.i{clip-path:url(#e);}.j{fill:url(#d);}.h{fill-rule:evenodd;}.k{fill:none;stroke:#ccc;stroke-miterlimit:10;}</style><radialGradient id="d" cx="78.86" cy="119.29" fx="78.86" fy="119.29" r="21.12" gradientTransform="matrix(1, 0, 0, 1, 0, 0)" gradientUnits="userSpaceOnUse"><stop offset="0" stop-color="#fff"/><stop offset=".23" stop-color="#fbfbfb"/><stop offset=".42" stop-color="#f1f1f1"/><stop offset=".59" stop-color="#e0e0e0"/><stop offset=".75" stop-color="#c8c8c8"/><stop offset=".91" stop-color="#a9a9a9"/><stop offset="1" stop-color="#949494"/></radialGradient><clipPath id="e"><path class="j" d="M57.74,119.29c0,11.66,9.46,21.12,21.12,21.12s21.12-9.46,21.12-21.12c0-4.63-1.5-8.92-4.03-12.4-.39,.14-.84,.23-1.28,.23-2,0-3.63-1.63-3.63-3.63,0-.45,.08-.89,.24-1.28-3.49-2.54-7.78-4.03-12.42-4.03-11.66,0-21.12,9.45-21.12,21.12"/></clipPath></defs><g id="a"/><g id="b"><g id="c"><g><g><rect class="k" x=".5" y=".5" width="18.26" height="18.26"/><rect class="k" x="18.76" y=".5" width="18.26" height="18.26"/><rect class="k" x="37.01" y=".5" width="18.26" height="18.26"/><rect class="k" x="55.27" y=".5" width="18.26" height="18.26"/><rect class="k" x="73.53" y=".5" width="18.26" height="18.26"/><rect class="k" x="91.78" y=".5" width="18.26" height="18.26"/><rect class="k" x="110.04" y=".5" width="18.26" height="18.26"/><rect class="k" x="128.29" y=".5" width="18.26" height="18.26"/><rect class="k" x="146.55" y=".5" width="18.26" height="18.26"/><rect class="k" x="164.81" y=".5" width="18.26" height="18.26"/><rect class="k" x="183.06" y=".5" width="18.26" height="18.26"/><rect class="k" x="201.32" y=".5" width="18.26" height="18.26"/><rect class="k" x="219.58" y=".5" width="18.26" height="18.26"/><rect class="k" x=".5" y="18.76" width="18.26" height="18.26"/><rect class="k" x="18.76" y="18.76" width="18.26" height="18.26"/><rect class="k" x="37.01" y="18.76" width="18.26" height="18.26"/><rect class="k" x="55.27" y="18.76" width="18.26" height="18.26"/><rect class="k" x="73.53" y="18.76" width="18.26" height="18.26"/><rect class="k" x="91.78" y="18.76" width="18.26" height="18.26"/><rect class="k" x="110.04" y="18.76" width="18.26" height="18.26"/><rect class="k" x="128.29" y="18.76" width="18.26" height="18.26"/><rect class="k" x="146.55" y="18.76" width="18.26" height="18.26"/><rect class="k" x="164.81" y="18.76" width="18.26" height="18.26"/><rect class="k" x="183.06" y="18.76" width="18.26" height="18.26"/><rect class="k" x="201.32" y="18.76" width="18.26" height="18.26"/><rect class="k" x="219.58" y="18.76" width="18.26" height="18.26"/><rect class="k" x=".5" y="37.01" width="18.26" height="18.26"/><rect class="k" x="18.76" y="37.01" width="18.26" height="18.26"/><rect class="k" x="37.01" y="37.01" width="18.26" height="18.26"/><rect class="k" x="55.27" y="37.01" width="18.26" height="18.26"/><rect class="k" x="73.53" y="37.01" width="18.26" height="18.26"/><rect class="k" x="91.78" y="37.01" width="18.26" height="18.26"/><rect class="k" x="110.04" y="37.01" width="18.26" height="18.26"/><rect class="k" x="128.29" y="37.01" width="18.26" height="18.26"/><rect class="k" x="146.55" y="37.01" width="18.26" height="18.26"/><rect class="k" x="164.81" y="37.01" width="18.26" height="18.26"/><rect class="k" x="183.06" y="37.01" width="18.26" height="18.26"/><rect class="k" x="201.32" y="37.01" width="18.26" height="18.26"/><rect class="k" x="219.58" y="37.01" width="18.26" height="18.26"/><rect class="k" x=".5" y="55.27" width="18.26" height="18.26"/><rect class="k" x="18.76" y="55.27" width="18.26" height="18.26"/><rect class="k" x="37.01" y="55.27" width="18.26" height="18.26"/><rect class="k" x="55.27" y="55.27" width="18.26" height="18.26"/><rect class="k" x="73.53" y="55.27" width="18.26" height="18.26"/><rect class="k" x="91.78" y="55.27" width="18.26" height="18.26"/><rect class="k" x="110.04" y="55.27" width="18.26" height="18.26"/><rect class="k" x="128.29" y="55.27" width="18.26" height="18.26"/><rect class="k" x="146.55" y="55.27" width="18.26" height="18.26"/><rect class="k" x="164.81" y="55.27" width="18.26" height="18.26"/><rect class="k" x="183.06" y="55.27" width="18.26" height="18.26"/><rect class="k" x="201.32" y="55.27" width="18.26" height="18.26"/><rect class="k" x="219.58" y="55.27" width="18.26" height="18.26"/><rect class="k" x=".5" y="73.53" width="18.26" height="18.26"/><rect class="k" x="18.76" y="73.53" width="18.26" height="18.26"/><rect class="k" x="37.01" y="73.53" width="18.26" height="18.26"/><rect class="k" x="55.27" y="73.53" width="18.26" height="18.26"/><rect class="k" x="73.53" y="73.53" width="18.26" height="18.26"/><rect class="k" x="91.78" y="73.53" width="18.26" height="18.26"/><rect class="k" x="110.04" y="73.53" width="18.26" height="18.26"/><rect class="k" x="128.29" y="73.53" width="18.26" height="18.26"/><rect class="k" x="146.55" y="73.53" width="18.26" height="18.26"/><rect class="k" x="164.81" y="73.53" width="18.26" height="18.26"/><rect class="k" x="183.06" y="73.53" width="18.26" height="18.26"/><rect class="k" x="201.32" y="73.53" width="18.26" height="18.26"/><rect class="k" x="219.58" y="73.53" width="18.26" height="18.26"/><rect class="k" x=".5" y="91.78" width="18.26" height="18.26"/><rect class="k" x="18.76" y="91.78" width="18.26" height="18.26"/><rect class="k" x="37.01" y="91.78" width="18.26" height="18.26"/><rect class="k" x="55.27" y="91.78" width="18.26" height="18.26"/><rect class="k" x="73.53" y="91.78" width="18.26" height="18.26"/><rect class="k" x="91.78" y="91.78" width="18.26" height="18.26"/><rect class="k" x="110.04" y="91.78" width="18.26" height="18.26"/><rect class="k" x="128.29" y="91.78" width="18.26" height="18.26"/><rect class="k" x="146.55" y="91.78" width="18.26" height="18.26"/><rect class="k" x="164.81" y="91.78" width="18.26" height="18.26"/><rect class="k" x="183.06" y="91.78" width="18.26" height="18.26"/><rect class="k" x="201.32" y="91.78" width="18.26" height="18.26"/><rect class="k" x="219.58" y="91.78" width="18.26" height="18.26"/><rect class="k" x=".5" y="110.04" width="18.26" height="18.26"/><rect class="k" x="18.76" y="110.04" width="18.26" height="18.26"/><rect class="k" x="37.01" y="110.04" width="18.26" height="18.26"/><rect class="k" x="55.27" y="110.04" width="18.26" height="18.26"/><rect class="k" x="73.53" y="110.04" width="18.26" height="18.26"/><rect class="k" x="91.78" y="110.04" width="18.26" height="18.26"/><rect class="k" x="110.04" y="110.04" width="18.26" height="18.26"/><rect class="k" x="128.29" y="110.04" width="18.26" height="18.26"/><rect class="k" x="146.55" y="110.04" width="18.26" height="18.26"/><rect class="k" x="164.81" y="110.04" width="18.26" height="18.26"/><rect class="k" x="183.06" y="110.04" width="18.26" height="18.26"/><rect class="k" x="201.32" y="110.04" width="18.26" height="18.26"/><rect class="k" x="219.58" y="110.04" width="18.26" height="18.26"/><rect class="k" x=".5" y="128.29" width="18.26" height="18.26"/><rect class="k" x="18.76" y="128.29" width="18.26" height="18.26"/><rect class="k" x="37.01" y="128.29" width="18.26" height="18.26"/><rect class="k" x="55.27" y="128.29" width="18.26" height="18.26"/><rect class="k" x="73.53" y="128.29" width="18.26" height="18.26"/><rect class="k" x="91.78" y="128.29" width="18.26" height="18.26"/><rect class="k" x="110.04" y="128.29" width="18.26" height="18.26"/><rect class="k" x="128.29" y="128.29" width="18.26" height="18.26"/><rect class="k" x="146.55" y="128.29" width="18.26" height="18.26"/><rect class="k" x="164.81" y="128.29" width="18.26" height="18.26"/><rect class="k" x="183.06" y="128.29" width="18.26" height="18.26"/><rect class="k" x="201.32" y="128.29" width="18.26" height="18.26"/><rect class="k" x="219.58" y="128.29" width="18.26" height="18.26"/><rect class="k" x=".5" y="146.55" width="18.26" height="18.26"/><rect class="k" x="18.76" y="146.55" width="18.26" height="18.26"/><rect class="k" x="37.01" y="146.55" width="18.26" height="18.26"/><rect class="k" x="55.27" y="146.55" width="18.26" height="18.26"/><rect class="k" x="73.53" y="146.55" width="18.26" height="18.26"/><rect class="k" x="91.78" y="146.55" width="18.26" height="18.26"/><rect class="k" x="110.04" y="146.55" width="18.26" height="18.26"/><rect class="k" x="128.29" y="146.55" width="18.26" height="18.26"/><rect class="k" x="146.55" y="146.55" width="18.26" height="18.26"/><rect class="k" x="164.81" y="146.55" width="18.26" height="18.26"/><rect class="k" x="183.06" y="146.55" width="18.26" height="18.26"/><rect class="k" x="201.32" y="146.55" width="18.26" height="18.26"/><rect class="k" x="219.58" y="146.55" width="18.26" height="18.26"/><rect class="k" x=".5" y="164.81" width="18.26" height="18.26"/><rect class="k" x="18.76" y="164.81" width="18.26" height="18.26"/><rect class="k" x="37.01" y="164.81" width="18.26" height="18.26"/><rect class="k" x="55.27" y="164.81" width="18.26" height="18.26"/><rect class="k" x="73.53" y="164.81" width="18.26" height="18.26"/><rect class="k" x="91.78" y="164.81" width="18.26" height="18.26"/><rect class="k" x="110.04" y="164.81" width="18.26" height="18.26"/><rect class="k" x="128.29" y="164.81" width="18.26" height="18.26"/><rect class="k" x="146.55" y="164.81" width="18.26" height="18.26"/><rect class="k" x="164.81" y="164.81" width="18.26" height="18.26"/><rect class="k" x="183.06" y="164.81" width="18.26" height="18.26"/><rect class="k" x="201.32" y="164.81" width="18.26" height="18.26"/><rect class="k" x="219.58" y="164.81" width="18.26" height="18.26"/><rect class="k" x=".5" y="183.06" width="18.26" height="18.26"/><rect class="k" x="18.76" y="183.06" width="18.26" height="18.26"/><rect class="k" x="37.01" y="183.06" width="18.26" height="18.26"/><rect class="k" x="55.27" y="183.06" width="18.26" height="18.26"/><rect class="k" x="73.53" y="183.06" width="18.26" height="18.26"/><rect class="k" x="91.78" y="183.06" width="18.26" height="18.26"/><rect class="k" x="110.04" y="183.06" width="18.26" height="18.26"/><rect class="k" x="128.29" y="183.06" width="18.26" height="18.26"/><rect class="k" x="146.55" y="183.06" width="18.26" height="18.26"/><rect class="k" x="164.81" y="183.06" width="18.26" height="18.26"/><rect class="k" x="183.06" y="183.06" width="18.26" height="18.26"/><rect class="k" x="201.32" y="183.06" width="18.26" height="18.26"/><rect class="k" x="219.58" y="183.06" width="18.26" height="18.26"/><rect class="k" x=".5" y="201.32" width="18.26" height="18.26"/><rect class="k" x="18.76" y="201.32" width="18.26" height="18.26"/><rect class="k" x="37.01" y="201.32" width="18.26" height="18.26"/><rect class="k" x="55.27" y="201.32" width="18.26" height="18.26"/><rect class="k" x="73.53" y="201.32" width="18.26" height="18.26"/><rect class="k" x="91.78" y="201.32" width="18.26" height="18.26"/><rect class="k" x="110.04" y="201.32" width="18.26" height="18.26"/><rect class="k" x="128.29" y="201.32" width="18.26" height="18.26"/><rect class="k" x="146.55" y="201.32" width="18.26" height="18.26"/><rect class="k" x="164.81" y="201.32" width="18.26" height="18.26"/><rect class="k" x="183.06" y="201.32" width="18.26" height="18.26"/><rect class="k" x="201.32" y="201.32" width="18.26" height="18.26"/><rect class="k" x="219.58" y="201.32" width="18.26" height="18.26"/><rect class="k" x=".5" y="219.58" width="18.26" height="18.26"/><rect class="k" x="18.76" y="219.58" width="18.26" height="18.26"/><rect class="k" x="37.01" y="219.58" width="18.26" height="18.26"/><rect class="k" x="55.27" y="219.58" width="18.26" height="18.26"/><rect class="k" x="73.53" y="219.58" width="18.26" height="18.26"/><rect class="k" x="91.78" y="219.58" width="18.26" height="18.26"/><rect class="k" x="110.04" y="219.58" width="18.26" height="18.26"/><rect class="k" x="128.29" y="219.58" width="18.26" height="18.26"/><rect class="k" x="146.55" y="219.58" width="18.26" height="18.26"/><rect class="k" x="164.81" y="219.58" width="18.26" height="18.26"/><rect class="k" x="183.06" y="219.58" width="18.26" height="18.26"/><rect class="k" x="201.32" y="219.58" width="18.26" height="18.26"/><rect class="k" x="219.58" y="219.58" width="18.26" height="18.26"/></g><g><polygon class="g" points="106.92 100.4 112.29 100.4 115.54 111.17 115.59 111.17 118.79 100.4 124.19 100.4 124.19 116.76 120.34 116.76 120.47 104.51 120.43 104.47 116.93 116.76 114.17 116.76 110.68 104.47 110.63 104.51 110.77 116.76 106.92 116.76 106.92 100.4"/><path class="g" d="M138.36,116.76h-3.47v-1.31h-.04c-.76,1.57-2.26,1.7-3.19,1.7-.75,0-2.52-.18-3.6-1.55-.97-1.22-1.1-2.1-1.1-3.78v-7.34h3.67v6.79c0,.84,0,2.45,1.97,2.45,1.06,0,2.1-.55,2.1-2.5v-6.74h3.67v12.27Z"/><path class="g" d="M141.02,104.49h3.42v1.3h.05c.38-.6,1.15-1.72,3.34-1.72,1.17,0,2.48,.49,3.14,1.06,.67,.57,1.42,1.55,1.42,3.96v7.67h-3.67v-6.7c0-.86,0-2.54-1.93-2.54-2.1,0-2.1,1.81-2.1,2.56v6.68h-3.67v-12.27Z"/><path class="g" d="M167.77,116.76h-3.49v-1.32h-.04c-.31,.51-1.19,1.72-3.67,1.72-3.71,0-6.14-2.87-6.14-6.56,0-4.16,2.96-6.52,6.08-6.52,2.16,0,3.2,1.06,3.6,1.46v-5.13h3.67v16.36Zm-6.61-3.03c2.3,0,3.14-1.88,3.14-3.16,0-1.48-1.06-3.07-3.09-3.07s-3.12,1.66-3.12,3.07c0,1.9,1.35,3.16,3.07,3.16"/><path class="g" d="M176.46,104.09c4.46,0,6.6,3.52,6.6,6.52s-2.14,6.52-6.6,6.52-6.61-3.51-6.61-6.52,2.14-6.52,6.61-6.52m0,9.62c1.59,0,2.94-1.3,2.94-3.09s-1.35-3.1-2.94-3.1-2.95,1.31-2.95,3.1,1.35,3.09,2.95,3.09"/><polygon points="107.04 119.44 115.25 119.44 115.25 122.76 110.65 122.76 110.65 125.06 115.11 125.06 115.11 128.38 110.65 128.38 110.65 130.91 115.25 130.91 115.25 134.24 107.04 134.24 107.04 119.44"/><polygon points="128.25 123.14 124.51 128.29 128.81 134.24 124.75 134.24 122.53 130.8 120.27 134.24 116.28 134.24 120.49 128.29 116.75 123.14 120.73 123.14 122.53 126.06 124.31 123.14 128.25 123.14"/><path d="M130.05,123.14h3.12v1.22h.06c.66-.84,1.76-1.6,3.46-1.6,3.93,0,5.42,3.46,5.42,6.04,0,3.2-2.24,5.82-5.4,5.82-2,0-2.94-.96-3.34-1.38v4.7h-3.32v-14.79Zm8.74,5.56c0-1.32-.96-2.84-2.78-2.84s-2.78,1.52-2.78,2.84c0,1.4,1.04,2.82,2.78,2.82s2.78-1.42,2.78-2.82"/><path d="M154.68,130.75c-.54,1.24-1.32,2.2-2.26,2.84-.92,.66-2.02,1-3.16,1-3.18,0-5.88-2.58-5.88-5.88,0-3.1,2.44-5.96,5.82-5.96s5.86,2.68,5.86,6.06c0,.44-.04,.62-.08,.88h-8.32c.2,1.32,1.3,2.1,2.6,2.1,1.02,0,1.56-.46,2.02-1.04h3.39Zm-2.93-3.3c-.14-.66-.8-1.9-2.52-1.9s-2.38,1.24-2.52,1.9h5.04Z"/><path d="M156.89,123.14h3.12v1.18h.04c.28-.54,.86-1.56,2.78-1.56v3.34c-1.54,.04-2.62,.36-2.62,2.04v6.1h-3.32v-11.1Z"/><polygon points="168.54 123.14 170.14 123.14 170.14 125.66 168.54 125.66 168.54 134.24 165.22 134.24 165.22 125.66 163.58 125.66 163.58 123.14 165.22 123.14 165.22 119.44 168.54 119.44 168.54 123.14"/><path d="M177.04,122.78c4.04,0,5.98,3.18,5.98,5.9s-1.94,5.9-5.98,5.9-5.98-3.18-5.98-5.9,1.94-5.9,5.98-5.9m0,8.7c1.44,0,2.66-1.18,2.66-2.8s-1.22-2.8-2.66-2.8-2.66,1.18-2.66,2.8,1.22,2.8,2.66,2.8"/><path class="h" d="M92.69,100.23c.56-.35,1.21-.54,1.92-.54,2.02,0,3.65,1.64,3.65,3.66,0,.69-.18,1.32-.51,1.88h.01c2.87,3.91,4.52,8.74,4.52,13.95,0,12.98-10.53,23.5-23.51,23.5s-23.51-10.53-23.51-23.5,10.53-23.51,23.51-23.5c5.2,0,10.02,1.71,13.91,4.57"/><path class="f" d="M92.61,103.31c0-1.1,.89-2,2-2s2,.89,2,2-.89,1.99-2,1.99-2-.89-2-1.99"/><g><path class="j" d="M57.74,119.29c0,11.66,9.46,21.12,21.12,21.12s21.12-9.46,21.12-21.12c0-4.63-1.5-8.92-4.03-12.4-.39,.14-.84,.23-1.28,.23-2,0-3.63-1.63-3.63-3.63,0-.45,.08-.89,.24-1.28-3.49-2.54-7.78-4.03-12.42-4.03-11.66,0-21.12,9.45-21.12,21.12"/><g class="i"><path d="M100.13,112.58l-.22-1.23-6.02,1.05v-6.92c-.23-.25-.53-.35-.89-.35-.67,0-.92,.35-.92,.35v7.24l-2,.34-.02-.18c-.05-.52-.38-.47-.38-.47-.34,0-.39,.29-.39,.29l-.06,.47-.34-.04-.2-.59c-.09-.26-.47-.18-.47-.18-.27,.04-.3,.48-.3,.48l-.45-.27c-.16-.12-.38,.04-.38,.04l-.54,.5-.03,.58-3.58,.62-.1-.32c-.26-.83-1.36-1.11-1.36-1.11-.27-.07-.84-.25-.84-.25-.68-.22-1.18-.59-1.18-.59-.72-.47-.86-1.02-.86-1.02l.05-.52c.54-.2,1.33-.65,1.33-.65,.42-.24,.41-.52,.41-.52v-1.04l.39-.11c.42-.14,.25-.38,.25-.38l-.39-.63c.64-.04,.97-.27,.97-.27,.32-.25,.09-.7,.09-.7-.14-.37-.94-.95-.94-.95,.1-.58-.06-1.02-.06-1.02-.49-1.23-2.84-1.34-2.84-1.34-2.42-.16-3.38,1.66-3.38,1.66,0,0-.16,.29-.24,.76,0,0-.07,.5-.29,.64-.48,.31-.38,.81-.38,.81,.08,.4,1.29,1.55,1.29,1.55l.06,1.29c-.92,.38-2.74-.11-2.74-.11-1.61-.42-2.79,.11-2.79,.11-.82,.38-1.98,.51-1.98,.51-2.41,.23-4.07,.69-4.07,.69-1.51,.4-1.51,1.65-1.51,1.65l-.06,2.2-.8,.86,1.29,1.61-.16,.75,.05,.08-5.31,.93,.21,1.23,5.9-1.03,.57,.8s.11,.19,.28,.19h.79c.29,0,.38-.22,.38-.22l.2-.32,.59-.04s.28,0,.4-.23l.51-.81v-.02l2.24-.39c.37,3.49,.6,8.31,.6,8.31l.91,.91c-.48,.75-.79,1.78-.98,2.9l-11.14-4.66-.72,1.73,11.64,4.87c-.2,3.01,.18,6,.18,6l.13,.69,5.47,1.83c.31-1,.84-5.09,.92-5.72l.92,.38,1.09,4.34-.3,1.18,5.54-.41c.08-.72,.09-1.55,.06-2.44l5.99,2.51,.72-1.73-6.86-2.87c-.42-4.16-1.48-8.58-1.48-8.58l.57-1.18c-.02-.54-.63-4.84-.63-4.84,.36,.09,.86,.59,.86,.59,.55,.71,1.11,.59,1.11,.59,.7-.09,1.22-1.22,1.22-1.22,1.82-3.49,4.8-6.31,5.42-6.88l1.96-.34v22.37h1.82v-22.68l6.24-1.09Zm-34.02,4.66l-.49-1.11-1.02-.11-.54-1.02,.86-1.34,3.38,1.02c.15,.35,.3,1.12,.43,2.1l-2.63,.46Zm17.71,.05l-.53-1.77,2.84-.5c-.68,.65-2.31,2.27-2.31,2.27"/></g></g></g></g></g></g></svg>