<svg xmlns="http://www.w3.org/2000/svg" width="1500" height="110" viewBox="0 0 1500 110"><g transform="translate(9764 8085)"><g transform="translate(-9743.559 -8074)"><g transform="translate(133.711 10.723)"><path d="M84.683,71.743H80.541V68.3a4.954,4.954,0,0,0-4.949-4.949H71.645A4.954,4.954,0,0,0,66.7,68.3V82.47H60.081v-3.8a5,5,0,0,0-7.916-4.07,5,5,0,0,0-8.9-.272,4.994,4.994,0,0,0-7.223,1.206,5,5,0,0,0-8.261,3.8v3.14H21.6V78.821a1.293,1.293,0,1,0-2.585,0v30.028a2.366,2.366,0,0,1-2.363,2.363H12.708a2.366,2.366,0,0,1-2.363-2.363V68.3a2.366,2.366,0,0,1,2.363-2.364h3.948A2.366,2.366,0,0,1,19.019,68.3v5.011a1.293,1.293,0,0,0,2.585,0V68.3a4.954,4.954,0,0,0-4.949-4.949H12.708A4.954,4.954,0,0,0,7.759,68.3v3.442H3.617A3.621,3.621,0,0,0,0,75.36v26.43a3.621,3.621,0,0,0,3.617,3.617H7.759v3.442a4.954,4.954,0,0,0,4.949,4.949h3.948a4.954,4.954,0,0,0,4.949-4.949V94.68h4.43v2.36a5.261,5.261,0,0,0,1.2,3.334l4.014,4.88v23.268a1.293,1.293,0,1,0,2.585,0V104.791a1.293,1.293,0,0,0-.294-.821l-4.309-5.238a2.669,2.669,0,0,1-.606-1.692V94.68l24.445.149a1.293,1.293,0,0,0,0-2.585H47.182a2.2,2.2,0,1,1,0-4.4H58.3a1.386,1.386,0,0,1,1.385,1.385V97.04a2.669,2.669,0,0,1-.606,1.692l-4.309,5.238a1.293,1.293,0,0,0-.294.821V108.2a1.293,1.293,0,1,0,2.585,0v-2.946l4.014-4.88a5.262,5.262,0,0,0,1.2-3.334V94.68H66.7v14.169a4.954,4.954,0,0,0,4.949,4.949h3.948a4.954,4.954,0,0,0,4.949-4.949v-3.442h4.142A3.621,3.621,0,0,0,88.3,101.79V75.36A3.62,3.62,0,0,0,84.683,71.743ZM3.617,102.822a1.033,1.033,0,0,1-1.032-1.032V75.36a1.033,1.033,0,0,1,1.032-1.032H7.759v28.494ZM55.074,76.244A2.424,2.424,0,0,1,57.5,78.666v4.812a2.419,2.419,0,0,1-.785,1.78H53.438a2.419,2.419,0,0,1-.785-1.78V78.666A2.424,2.424,0,0,1,55.074,76.244Zm-9.85.505a2.421,2.421,0,1,1,4.843,0v6.729a2.419,2.419,0,0,1-.785,1.78h-2.1a4.779,4.779,0,0,0-1.039.115,2.408,2.408,0,0,1-.919-1.9V76.749ZM37.8,78.289a2.422,2.422,0,0,1,4.843,0v5.189a2.422,2.422,0,1,1-4.843,0ZM30.368,79.33a2.421,2.421,0,0,1,4.843,0v4.148a2.421,2.421,0,1,1-4.843,0ZM21.6,85.055h6.435A5,5,0,0,0,36.5,86.831a4.987,4.987,0,0,0,6.58.745,4.777,4.777,0,0,0-.225,4.519H21.6Zm40.663,7.04V89.228A3.977,3.977,0,0,0,59.654,85.5q.1-.217.17-.443H66.7v7.04Zm23.448,9.695a1.033,1.033,0,0,1-1.032,1.032H80.541V99.086a1.293,1.293,0,1,0-2.585,0v9.762a2.366,2.366,0,0,1-2.363,2.363H71.645a2.366,2.366,0,0,1-2.363-2.363V68.3a2.366,2.366,0,0,1,2.363-2.364h3.948A2.366,2.366,0,0,1,77.956,68.3V93.578a1.293,1.293,0,0,0,2.585,0V74.328h4.142a1.033,1.033,0,0,1,1.032,1.032Z" transform="translate(0 -63.352)" fill="#2e2e36"/><path d="M317.357,348.04a1.292,1.292,0,0,0-1.293,1.293v14.813a1.293,1.293,0,1,0,2.585,0V349.333A1.292,1.292,0,0,0,317.357,348.04Z" transform="translate(-261.592 -298.976)" fill="#2e2e36"/></g><g transform="translate(638.279 0)"><path d="M114.45,31.906A36.354,36.354,0,1,0,73.919,72.437V79.4H63.532a4.451,4.451,0,0,0-4.451,4.451V88.3H97.66V83.848A4.451,4.451,0,0,0,93.208,79.4H82.822V72.437A36.354,36.354,0,0,0,114.45,31.906ZM93.208,82.364a1.484,1.484,0,0,1,1.484,1.484v1.484H62.048V83.848a1.484,1.484,0,0,1,1.484-1.484ZM76.886,79.4V73.461h2.968V79.4Zm1.484-9.645a33.386,33.386,0,1,1,33.386-33.386A33.386,33.386,0,0,1,78.37,69.751Z" transform="translate(-42.013 0)" fill="#2e2e36"/><path d="M132.353,62.193V59.225a1.484,1.484,0,0,0-1.484-1.484H113.521a16.31,16.31,0,0,0-9.36-29.676h-2.968a1.484,1.484,0,0,0-1.484,1.484V46.9a16.31,16.31,0,0,0-29.676,9.36v2.968a1.484,1.484,0,0,0,1.484,1.484H88.866a16.311,16.311,0,0,0,9.36,29.676h2.968a1.484,1.484,0,0,0,1.484-1.484V71.553a16.31,16.31,0,0,0,29.676-9.36Zm-29.676-31.16h1.484a13.354,13.354,0,0,1,4.1,26.057,7.419,7.419,0,0,0-5.585-5.135V31.033ZM73,57.741V56.258a13.354,13.354,0,0,1,26.056-4.1,7.419,7.419,0,0,0-5.134,5.584ZM99.709,87.418H98.226a13.354,13.354,0,0,1-4.1-26.057A7.419,7.419,0,0,0,99.709,66.5V87.418Zm1.484-23.741a4.451,4.451,0,1,1,4.451-4.451A4.451,4.451,0,0,1,101.193,63.677Zm14.814,11.846a13.354,13.354,0,0,1-12.677-9.23,7.419,7.419,0,0,0,5.134-5.584h20.922v1.484A13.354,13.354,0,0,1,116.007,75.523Z" transform="translate(-64.836 -22.86)" fill="#2e2e36"/></g><g transform="translate(1371.794 0)"><path d="M339.065,155.148a1.724,1.724,0,1,0,1.725,1.724A1.724,1.724,0,0,0,339.065,155.148Zm0,0" transform="translate(-279.249 -128.391)" fill="#2e2e36"/><path d="M157.37,336.84a1.725,1.725,0,1,0,1.725,1.725A1.724,1.724,0,0,0,157.37,336.84Zm0,0" transform="translate(-128.889 -278.748)" fill="#2e2e36"/><path d="M86.654,10.609a1.723,1.723,0,0,0-1.614.465L77.89,18.28H74.462l-3.773-3.909V10.9l7.047-7.152A1.725,1.725,0,0,0,77.059.9,17.259,17.259,0,0,0,54.889,21.714l-12.7,12.7L21.022,13.2V9.041a1.724,1.724,0,0,0-.837-1.479L7.99.245A1.723,1.723,0,0,0,5.884.5L1.006,5.381A1.726,1.726,0,0,0,.747,7.489L8.063,19.683a1.725,1.725,0,0,0,1.478.837H13.7L34.869,41.734,22.214,54.389A17.257,17.257,0,0,0,1.4,76.558a1.725,1.725,0,0,0,2.858.664l7.149-7.206h3.447l3.927,3.927V77.39l-7.206,7.149a1.725,1.725,0,0,0,.664,2.858,17.25,17.25,0,0,0,19.5-6.283,17.053,17.053,0,0,0,2.665-14.532L44.571,56.419,46.9,58.948l-1.068,1.068a1.725,1.725,0,0,0,2.439,2.439l.967-.967L71.082,85.215l.05.051A10.348,10.348,0,0,0,85.767,70.632l-.054-.051-23.765-21.8.957-.957a1.725,1.725,0,0,0-2.439-2.439L59.4,46.444l-2.534-2.326L67.083,33.906A17.255,17.255,0,0,0,87.9,11.738a1.723,1.723,0,0,0-1.244-1.129Zm-71.014,6.97a1.707,1.707,0,0,0-1.22-.489h-3.9L4.4,6.869,7.371,3.9l10.2,6.122v3.9a1.724,1.724,0,0,0,.5,1.218l21.671,21.72L37.308,39.3ZM59.507,51.219,83.353,73.1a6.9,6.9,0,0,1-9.758,9.756L51.679,59.046Zm-2.544-2.334L49.34,56.506l-2.328-2.529,7.417-7.418ZM71.551,31.041a13.782,13.782,0,0,1-4.408-.719,1.728,1.728,0,0,0-1.77.415L31.238,64.873a1.724,1.724,0,0,0-.415,1.77,13.81,13.81,0,0,1-13.078,18.2,14.126,14.126,0,0,1-1.5-.081l5.478-5.435a1.724,1.724,0,0,0,.51-1.224V73.229a1.725,1.725,0,0,0-.505-1.219l-4.937-4.937a1.725,1.725,0,0,0-1.219-.505H10.688a1.727,1.727,0,0,0-1.225.51L4.029,72.555a13.951,13.951,0,0,1-.081-1.5,13.811,13.811,0,0,1,18.2-13.078,1.723,1.723,0,0,0,1.77-.415L58.058,23.422a1.724,1.724,0,0,0,.415-1.77,13.809,13.809,0,0,1,13.077-18.2,14.094,14.094,0,0,1,1.549.086L67.736,8.978a1.723,1.723,0,0,0-.5,1.21v4.879a1.722,1.722,0,0,0,.484,1.2L72.488,21.2a1.723,1.723,0,0,0,1.241.527h4.879a1.724,1.724,0,0,0,1.224-.51l5.435-5.477a13.951,13.951,0,0,1,.081,1.5,13.812,13.812,0,0,1-13.8,13.8Zm0,0" transform="translate(-0.5 0.001)" fill="#2e2e36"/><path d="M206.01,183.931l-21.581,21.581a1.725,1.725,0,0,0,2.439,2.439l21.581-21.581a1.725,1.725,0,0,0-2.439-2.439Zm0,0" transform="translate(-152.291 -151.792)" fill="#2e2e36"/><path d="M361.331,363.513a1.725,1.725,0,1,0,2.435-2.443l-15.545-15.5a1.725,1.725,0,0,0-2.435,2.443Zm0,0" transform="translate(-285.818 -285.561)" fill="#2e2e36"/></g><g transform="translate(1022.381 0)"><path d="M16.41,3.245a1.813,1.813,0,0,1-.037,2.579,1.543,1.543,0,0,1-.589.405,1.759,1.759,0,0,1-1.989-.405L12.21,4.239A20.967,20.967,0,0,1,15.415,2.25Z" transform="translate(29.087 5.924)" fill="#2e2e36"/><path d="M10.79,8.021A22.042,22.042,0,0,1,16.021,2.79l1.584,1.584a1.759,1.759,0,0,0,1.989.405l.037.037a19.681,19.681,0,0,0-6.815,6.815l-.037-.037a1.759,1.759,0,0,0-.405-1.989Z" transform="translate(25.276 7.373)" fill="#2e2e36"/><path d="M10.26,7.415A18.2,18.2,0,0,1,12.212,4.21L13.8,5.794A1.759,1.759,0,0,1,14.2,7.783a1.543,1.543,0,0,1-.405.589,1.781,1.781,0,0,1-2.579,0Z" transform="translate(23.853 11.184)" fill="#2e2e36"/><path d="M16.155,14.986a20.214,20.214,0,0,0,1.731,23.467L46.437,9.9a20.047,20.047,0,0,0-13-4.679A19.7,19.7,0,0,0,22.97,8.171l-.037-.037a1.543,1.543,0,0,0,.589-.405A1.813,1.813,0,0,0,23.56,5.15l-.995-.995A23.423,23.423,0,0,1,33.433,1.54a23.763,23.763,0,0,1,16.946,7,1.728,1.728,0,0,1,.553,1.289,1.809,1.809,0,0,1-.553,1.326l-31.24,31.24a1.809,1.809,0,0,1-1.326.553,1.876,1.876,0,0,1-1.289-.553,23.935,23.935,0,0,1-4.347-27.814l.958.958a1.781,1.781,0,0,0,2.579,0,1.543,1.543,0,0,0,.405-.589Z" transform="translate(21.937 4.018)" fill="#2e2e36"/><path d="M10.813,3.32,14.091,6.6A18.2,18.2,0,0,0,12.139,9.8L9.56,7.225,10.813,5.6a1.828,1.828,0,0,0,0-2.284Z" transform="translate(21.975 8.796)" fill="#2e2e36"/><path d="M24.778,6.286,7.463,28.5A8.859,8.859,0,0,0,3.89,27.1L22.125,3.67Z" transform="translate(6.757 9.735)" fill="#2e2e36"/><path d="M11.492,7.724,8.84,5.109l.995-1.289a1.9,1.9,0,0,1,2.616-.295l.295.295a1.828,1.828,0,0,1,0,2.284Z" transform="translate(20.042 8.296)" fill="#2e2e36"/><path d="M12.742,4.779a3.748,3.748,0,0,0,.037,5.231l1.842,1.842a1.9,1.9,0,0,0-2.616.295l-.995,1.289-.847-.847a7.485,7.485,0,0,1-.037-10.426,7.53,7.53,0,0,1,10.462-.037l6.042,6.079a20.967,20.967,0,0,0-3.205,1.989L18.01,4.742A3.793,3.793,0,0,0,12.742,4.779Z" transform="translate(17.871 -0.031)" fill="#2e2e36"/><path d="M20.952,31.266H16.236L4.19,16.161A8.419,8.419,0,0,0,7.506,14.43Z" transform="translate(7.562 38.614)" fill="#2e2e36"/><path d="M12.728,19.7a1.826,1.826,0,0,1-.295,2.579,1.879,1.879,0,0,1-1.142.405,1.761,1.761,0,0,1-1.437-.7L7.46,19h4.715Z" transform="translate(16.338 50.88)" fill="#2e2e36"/><path d="M47.365,22.684H17.894a1.879,1.879,0,0,0,1.142-.405,1.826,1.826,0,0,0,.295-2.579l-.553-.7H47.365a9.213,9.213,0,0,1,9.21,9.21v7.368a1.824,1.824,0,0,1-1.842,1.842H6.842A1.824,1.824,0,0,1,5,35.578V28.21A9.207,9.207,0,0,1,14.062,19l2.395,2.984a1.761,1.761,0,0,0,1.437.7H14.21A5.519,5.519,0,0,0,8.684,28.21v5.526H52.891V28.21a5.519,5.519,0,0,0-5.526-5.526Z" transform="translate(9.736 50.88)" fill="#2e2e36"/><path d="M4.548,14.2c.074-.037.111-.074.184-.111a1.83,1.83,0,0,1,2.395.405l1.289,1.584A8.419,8.419,0,0,1,5.1,17.812l-.847-1.032A1.826,1.826,0,0,1,4.548,14.2Z" transform="translate(6.651 36.963)" fill="#2e2e36"/><path d="M8.266,11.43l-1.4,1.805a1.815,1.815,0,0,1-1.437.7,3.224,3.224,0,0,1-.589-.074H4.8a2.349,2.349,0,0,1-.516-.295,1.866,1.866,0,0,1-.295-2.616l.7-.921a8.859,8.859,0,0,1,3.573,1.4Z" transform="translate(5.954 26.805)" fill="#2e2e36"/><path d="M6.914,23.635a1.83,1.83,0,0,0-2.395-.405l-.037-.037a5.5,5.5,0,0,0,3.389-5.084A5.47,5.47,0,0,0,3.93,12.841a3.224,3.224,0,0,0,.589.074,1.815,1.815,0,0,0,1.437-.7l1.4-1.805a9.086,9.086,0,0,1,4.2,7.7A9.137,9.137,0,0,1,8.2,25.219Z" transform="translate(6.864 27.825)" fill="#2e2e36"/><path d="M10.21,28.42a9.21,9.21,0,1,1,0-18.42,9.436,9.436,0,0,1,1.437.111l-.7.921a1.866,1.866,0,0,0,.295,2.616,2.349,2.349,0,0,0,.516.295,4.267,4.267,0,0,0-1.547-.258,5.526,5.526,0,1,0,0,11.052,5.16,5.16,0,0,0,2.137-.442l.037.037c-.074.037-.111.074-.184.111A1.826,1.826,0,0,0,11.9,27.02l.847,1.032A8.323,8.323,0,0,1,10.21,28.42Z" transform="translate(-1 26.724)" fill="#2e2e36"/></g><g transform="translate(0 0)"><path d="M89.316,55.124a4.279,4.279,0,0,0-4.273-4.273h-5.7a4.263,4.263,0,0,0-1.424,8.285V59.4A1.426,1.426,0,0,1,76.5,60.822H73.647V52.073a5.671,5.671,0,0,0-.577-11.108c1.922-5.186-1.467-14.031-8.7-22.66l2.376-2.376A4.263,4.263,0,0,0,71.6,9.063L65.553,3.019a4.262,4.262,0,0,0-6.864,4.85l-2.376,2.376c-10.121-8.481-20.546-11.683-25-7.223a1.423,1.423,0,0,0,0,2.014L67.152,40.88H18.093a5.686,5.686,0,0,0-1.424,11.193v8.749H13.82A1.426,1.426,0,0,1,12.4,59.4v-.262a4.263,4.263,0,0,0-1.424-8.285h-5.7a4.263,4.263,0,0,0-1.424,8.285v1.687A8.555,8.555,0,0,0,12.4,69.369h4.273V79.34a9.983,9.983,0,0,0,9.971,9.971H63.676a9.983,9.983,0,0,0,9.971-9.971V69.369h4.273a8.555,8.555,0,0,0,8.547-8.547V59.136A4.268,4.268,0,0,0,89.316,55.124ZM61.525,5.036a1.426,1.426,0,0,1,2.016,0l6.043,6.044a1.425,1.425,0,0,1-2.016,2.014L61.525,7.05a1.425,1.425,0,0,1,0-2.014Zm-1.007,5.037,4.03,4.03-2.06,2.058q-.951-1.036-1.97-2.058t-2.058-1.97ZM58.5,16.116C66.368,23.98,72.622,35.1,70.4,40.1L34.52,4.22C39.519,2,50.639,8.251,58.5,16.116ZM15.245,46.578a2.852,2.852,0,0,1,2.849-2.849H72.223a2.849,2.849,0,1,1,0,5.7H18.093A2.852,2.852,0,0,1,15.245,46.578ZM5.273,53.7h5.7a1.424,1.424,0,0,1,0,2.849h-5.7a1.424,1.424,0,0,1,0-2.849ZM12.4,66.52a5.7,5.7,0,0,1-5.7-5.7V59.4H9.547a4.279,4.279,0,0,0,4.273,4.273h2.849V66.52Zm51.28,19.942H26.64a7.13,7.13,0,0,1-7.122-7.122V52.275H70.8V79.34A7.13,7.13,0,0,1,63.676,86.462ZM77.921,66.52H73.647V63.671H76.5A4.279,4.279,0,0,0,80.769,59.4h2.849v1.424A5.7,5.7,0,0,1,77.921,66.52Zm7.122-9.971h-5.7a1.424,1.424,0,0,1,0-2.849h5.7a1.424,1.424,0,1,1,0,2.849Z" transform="translate(-1 -1.012)" fill="#2e2e36"/><path d="M47.849,61.942A2.852,2.852,0,0,1,45,64.791V67.64a5.7,5.7,0,0,0,5.7-5.7V42H47.849Z" transform="translate(17.676 16.386)" fill="#2e2e36"/><path d="M18.179,24.616a3.735,3.735,0,0,1,0,5.282L15.417,32.66l2.014,2.014,2.762-2.762a6.582,6.582,0,0,0,0-9.31L18.941,21.35a3.735,3.735,0,0,1,0-5.28L21.7,13.307l-2.014-2.014-2.762,2.762a6.582,6.582,0,0,0,0,9.31Z" transform="translate(4.942 3.352)" fill="#2e2e36"/><path d="M30.7,13.307l-2.014-2.014-2.762,2.762a6.582,6.582,0,0,0,0,9.31l1.252,1.252a3.735,3.735,0,0,1,0,5.28L24.417,32.66l2.014,2.014,2.762-2.762a6.582,6.582,0,0,0,0-9.31L27.941,21.35a3.735,3.735,0,0,1,0-5.28Z" transform="translate(8.762 3.352)" fill="#2e2e36"/></g><g transform="translate(755.591 0)"><path d="M96.994,16H70.261a4.228,4.228,0,0,0-4.023,2.943H52.528a4.155,4.155,0,0,0-3.969,2.943H34.92a4.2,4.2,0,0,0-4.2,4.2V26.3H28.5A23.312,23.312,0,0,0,18.129,28.75a3.845,3.845,0,0,0,0,6.876A23.312,23.312,0,0,0,28.5,38.075h2.22v.216a4.2,4.2,0,0,0,4.2,4.2h13.64a4.155,4.155,0,0,0,3.969,2.943H52.8v1.724a1.462,1.462,0,0,1-.431,1.041L50.893,49.67a4.415,4.415,0,0,0,3.122,7.537h4.81a4.007,4.007,0,0,0,3.858,2.943,3.06,3.06,0,0,1,2.179.9l.3.3a4.121,4.121,0,0,1,1.159,2.318l1.345,9.417a13.873,13.873,0,0,1-1.075,7.668h-.773a4.2,4.2,0,0,0-4.029,3.041,8.843,8.843,0,0,0-7.52,8.732V99.8a4.507,4.507,0,0,0,4.5,4.5H93.915a4.507,4.507,0,0,0,4.5-4.5V89.584A5.9,5.9,0,0,0,93.8,83.835a4.423,4.423,0,0,0-4.209-3.082h-.146l-2.8-26.816a8.511,8.511,0,0,1,2.112-5.561h8.238a7.318,7.318,0,0,0,7.31-7.31V23.31A7.318,7.318,0,0,0,96.994,16ZM28.5,35.132a20.352,20.352,0,0,1-9.055-2.138.9.9,0,0,1,0-1.611A20.352,20.352,0,0,1,28.5,29.245h2.22v5.887Zm5.163,3.159V26.086A1.257,1.257,0,0,1,34.92,24.83h1.688V39.547H34.92a1.257,1.257,0,0,1-1.256-1.256ZM39.55,24.83h8.83v2.943H42.494v2.943H48.38V33.66H42.494V36.6H48.38v2.943H39.55ZM51.324,41.286V23.091a1.206,1.206,0,0,1,1.2-1.2h7.626v8.83H63.1v-8.83H66.04v20.6H63.1V33.66H60.154v8.83H52.528a1.206,1.206,0,0,1-1.2-1.2ZM70.577,72.668l-1.345-9.417a7.02,7.02,0,0,0-.439-1.629h2.956a6.065,6.065,0,0,1,6.065,6.065V80.753H69.762a16.8,16.8,0,0,0,.815-8.085Zm20.482,12.5V86.64H88.115v2.943H92.53A1.472,1.472,0,0,0,94,88.111V87.038a2.943,2.943,0,0,1,1.472,2.546v2.942H80.757v2.943H95.473V99.8a1.56,1.56,0,0,1-1.558,1.558H58.769A1.56,1.56,0,0,1,57.21,99.8V92.526a5.9,5.9,0,0,1,4.415-5.7v1.285A1.472,1.472,0,0,0,63.1,89.583H85.172V86.64h-20.6v-1.7A1.248,1.248,0,0,1,65.815,83.7H89.587A1.473,1.473,0,0,1,91.058,85.168Zm-7.35-31,2.774,26.59H80.757V67.687a9.008,9.008,0,0,0-9.009-9.009H66.626a5.979,5.979,0,0,0-3.943-1.472,1.058,1.058,0,0,1-1.057-1.057V48.376H58.682v5.887H54.014a1.472,1.472,0,0,1-1.04-2.512l1.472-1.472a4.386,4.386,0,0,0,1.293-3.122V45.433h10.5a4.228,4.228,0,0,0,4.023,2.943H85.17a11.453,11.453,0,0,0-1.47,5.634,1.509,1.509,0,0,0,.008.153Zm17.652-13.1a4.371,4.371,0,0,1-4.366,4.366H70.261a1.279,1.279,0,0,1-1.278-1.278V20.221a1.279,1.279,0,0,1,1.278-1.278H96.994a4.371,4.371,0,0,1,4.366,4.366Z" transform="translate(-16.005 -16)" fill="#2e2e36"/><path d="M224,64h2.943v2.943H224Z" transform="translate(-185.738 -55.17)" fill="#2e2e36"/><path d="M224,96h2.943v2.943H224Z" transform="translate(-185.738 -81.283)" fill="#2e2e36"/><path d="M224,128h2.943v2.943H224Z" transform="translate(-185.738 -107.397)" fill="#2e2e36"/><path d="M342.075,80h-20.6A1.472,1.472,0,0,0,320,81.472v2.943h2.943V82.943H340.6V90.3h-17.66V87.358H320v4.415a1.472,1.472,0,0,0,1.472,1.472h20.6a1.472,1.472,0,0,0,1.472-1.472v-10.3A1.472,1.472,0,0,0,342.075,80Z" transform="translate(-264.078 -68.227)" fill="#2e2e36"/><path d="M360,48h2.943v2.943H360Z" transform="translate(-296.72 -42.113)" fill="#2e2e36"/><path d="M328,48h2.943v2.943H328Z" transform="translate(-270.606 -42.113)" fill="#2e2e36"/><path d="M392,48h2.943v2.943H392Z" transform="translate(-322.833 -42.113)" fill="#2e2e36"/><path d="M424,48h2.943v2.943H424Z" transform="translate(-348.946 -42.113)" fill="#2e2e36"/><path d="M272,432h14.717v2.943H272Z" transform="translate(-224.908 -355.474)" fill="#2e2e36"/></g><g transform="translate(400.501 0)"><g transform="translate(33.448 22.777)"><g transform="translate(0)"><path d="M280.61,136.438a1.528,1.528,0,0,1,0-2.161,1.294,1.294,0,0,0-1.829-1.829,4.115,4.115,0,0,0,0,5.82,1.53,1.53,0,0,1,0,2.161,1.293,1.293,0,1,0,1.829,1.829A4.12,4.12,0,0,0,280.61,136.438Z" transform="translate(-277.575 -132.07)" fill="#2e2e36"/></g></g><g transform="translate(46.185 22.776)"><g transform="translate(0)"><path d="M354.464,136.437a1.528,1.528,0,0,1,0-2.161,1.293,1.293,0,0,0-1.829-1.829,4.12,4.12,0,0,0,0,5.819,1.528,1.528,0,0,1,0,2.161,1.294,1.294,0,0,0,1.829,1.829,4.115,4.115,0,0,0,0-5.82Z" transform="translate(-351.432 -132.067)" fill="#2e2e36"/></g></g><g transform="translate(0 0)"><path d="M140.259,41.309h-1.69a2.918,2.918,0,0,0,.016-.3V38.625a2.9,2.9,0,0,0-2.892-2.892h-1.97a1.293,1.293,0,0,0,0,2.587h1.97a.305.305,0,0,1,.3.3V41a.305.305,0,0,1-.3.3H111.462a.305.305,0,0,1-.3-.3V38.625a.305.305,0,0,1,.3-.3h16.157a1.293,1.293,0,0,0,0-2.587H111.462a2.9,2.9,0,0,0-2.892,2.892V41a2.916,2.916,0,0,0,.016.3H97.4a4.356,4.356,0,0,0-.31-.745l30.3-30.3a2.826,2.826,0,0,0,0-3.992l-1.39-1.39a16.653,16.653,0,0,0-23.551,0l-1.638,1.638-.958-.958a2.964,2.964,0,0,0-4.177-.171l-5.335,5.335A2.964,2.964,0,0,0,90.52,14.9l.958.958L89.84,17.494a16.671,16.671,0,0,0-.473,23.054,4.37,4.37,0,0,0,2.581,6.236q.014.337.04.67H87.245a3.618,3.618,0,1,0,0,7.235h7.081a16.726,16.726,0,0,0,9.694,7.425l-3.953,15.305a1.293,1.293,0,1,0,2.5.647l3.987-15.439a16.729,16.729,0,0,0,2.027.123h.845l-5.658,21.907a1.405,1.405,0,0,1-2.721-.7l.508-1.967a1.293,1.293,0,0,0-2.5-.647l-.508,1.967a3.992,3.992,0,1,0,7.731,2l1.909-7.391h18.659l.577,2.229a5.552,5.552,0,1,0,7.678-2.2L131,62.113a16.729,16.729,0,0,0,10.016-7.989,1.293,1.293,0,0,0,.125-.231,16.549,16.549,0,0,0,1.941-7.8V44.132A2.827,2.827,0,0,0,140.259,41.309ZM92.179,12.551l5.334-5.334c.053-.053.3-.044.519.171l.958.958-5.682,5.682-.958-.958a.626.626,0,0,1-.2-.388A.187.187,0,0,1,92.179,12.551Zm-.509,6.773L104.286,6.707a14.066,14.066,0,0,1,19.893,0l1.39,1.39a.236.236,0,0,1,0,.334l-30.3,30.3a4.359,4.359,0,0,0-4.06-.008A14.083,14.083,0,0,1,91.669,19.323ZM87.245,52.1a1.031,1.031,0,1,1,0-2.061h5.161a16.5,16.5,0,0,0,.648,2.061Zm5.982-7.715A1.786,1.786,0,1,1,95.012,42.6,1.788,1.788,0,0,1,93.226,44.388Zm15.628,30.939.726-2.811h15.867l.728,2.811Zm1.394-5.4L112.1,62.75h10.815l1.86,7.179Zm25.041,12.818a2.965,2.965,0,1,1-2.965-2.965A2.969,2.969,0,0,1,135.289,82.747Zm-3.054-5.55a5.513,5.513,0,0,0-2.708.756l-3.938-15.2h.839a16.757,16.757,0,0,0,2.033-.124Zm-5.807-17.034H108.586A14.047,14.047,0,0,1,97.46,54.689h40.093A14.048,14.048,0,0,1,126.428,60.163ZM139.145,52.1H95.869a13.964,13.964,0,0,1-1.332-5.329A4.392,4.392,0,0,0,97.4,43.9h42.855a.236.236,0,0,1,.236.236V46.1h0A13.98,13.98,0,0,1,139.145,52.1Z" transform="translate(-83.627 0)" fill="#2e2e36"/></g><g transform="translate(39.818 22.776)"><g transform="translate(0)"><path d="M317.542,136.438a1.528,1.528,0,0,1,0-2.161,1.293,1.293,0,0,0-1.829-1.829,4.12,4.12,0,0,0,0,5.819,1.528,1.528,0,0,1,0,2.161,1.294,1.294,0,0,0,1.829,1.83,4.115,4.115,0,0,0,0-5.82Z" transform="translate(-314.51 -132.068)" fill="#2e2e36"/></g></g></g><g transform="translate(1140.323 0)"><path d="M106.713,61.22a107.272,107.272,0,0,0,18.721,1.5,107.272,107.272,0,0,0,18.721-1.5c7.209-1.337,10.713-3.254,10.713-5.862,0-5.808-18.5-7.358-29.433-7.358S96,49.55,96,55.358C96,57.967,99.5,59.884,106.713,61.22Zm18.721-10.277c16.313,0,25.875,2.883,26.477,4.4-.141.224-1.315,1.692-8.293,2.986a104.143,104.143,0,0,1-18.185,1.448,104.2,104.2,0,0,1-18.185-1.447c-7-1.3-8.161-2.772-8.292-2.95C99.608,53.812,109.16,50.943,125.433,50.943Z" transform="translate(-81.283 -42.113)" fill="#2e2e36"/><path d="M104.3,36.6a1.472,1.472,0,0,0-1.472-1.472H98.413V29.245C98.413,20.642,78.7,16,60.15,16S21.887,20.642,21.887,29.245v5.887H17.472A1.472,1.472,0,0,0,16,36.6v7.358a44.107,44.107,0,0,0,5.887,22v25.1c0,8.6,19.714,13.245,38.263,13.245s38.263-4.642,38.263-13.245v-25.1a44.107,44.107,0,0,0,5.887-22ZM46.9,83.7h26.49V86.64H46.9Zm29.36-1.84a1.452,1.452,0,0,0-1.4-1.1H45.433a1.452,1.452,0,0,0-1.4,1.1A41.381,41.381,0,0,1,24.83,65.151V34.538a22.057,22.057,0,0,0,5.887,3.338V64.565a8.83,8.83,0,1,0,17.66,0v-8.83a4.415,4.415,0,0,1,8.83,0v2.943a8.83,8.83,0,1,0,17.66,0V55.735a4.42,4.42,0,0,1,4.415-4.415,7.367,7.367,0,0,0,7.358-7.358V38.955a26.525,26.525,0,0,0,8.83-4.37V65.151A41.38,41.38,0,0,1,76.264,81.857ZM60.15,42.49A96.224,96.224,0,0,0,83.7,39.8v4.165a4.42,4.42,0,0,1-4.415,4.415,7.367,7.367,0,0,0-7.358,7.358v2.943a5.887,5.887,0,1,1-11.773,0V55.735a7.358,7.358,0,1,0-14.717,0v8.83a5.887,5.887,0,0,1-11.773,0V38.938C40.694,41.2,50.178,42.49,60.15,42.49Zm0-23.547c20.814,0,35.32,5.429,35.32,10.3,0,2.488-4.108,5.254-10.72,7.219a89.9,89.9,0,0,1-24.6,3.083c-10.592,0-20.6-1.47-27.445-4.033h0c-4.931-1.844-7.874-4.188-7.874-6.269C24.83,24.372,39.335,18.943,60.15,18.943ZM18.943,38.075h2.943V59.2a41.19,41.19,0,0,1-2.943-15.242ZM60.15,101.356c-20.814,0-35.32-5.429-35.32-10.3V70.383A44.27,44.27,0,0,0,43.961,85.012v3.1a1.472,1.472,0,0,0,1.472,1.472H74.866a1.472,1.472,0,0,0,1.472-1.472v-3.1A44.27,44.27,0,0,0,95.469,70.383V91.055C95.469,95.927,80.964,101.356,60.15,101.356Zm41.206-57.395A41.191,41.191,0,0,1,98.413,59.2V38.075h2.943Z" transform="translate(-16 -16)" fill="#2e2e36"/></g><g transform="translate(504.568 3.785)"><g transform="translate(0 0)"><g transform="translate(0 0)"><path d="M87.256,38.941,41.932,18.219A15.333,15.333,0,1,0,29.181,46.107L39.1,50.645l-.57,1.243a9.743,9.743,0,0,0-.365,7.164l-3.035,6.635a6.533,6.533,0,0,1-5.921,3.8H14.181V67.182A10.469,10.469,0,0,0,3.726,56.726H1.786A1.785,1.785,0,0,0,0,58.511v36.24a1.785,1.785,0,0,0,1.784,1.786H3.726A10.469,10.469,0,0,0,14.181,86.083v-2.31H28.346A22.211,22.211,0,0,0,48.494,70.831L51.159,65a9.758,9.758,0,0,0,5.185-4.973l.566-1.244,9.677,4.426a1.789,1.789,0,0,0,2.368-.883l.518-1.133a10.092,10.092,0,0,0,2.481.322A12.578,12.578,0,0,0,83.07,53.885a13.11,13.11,0,0,0,.682-9.424l3.725-2.393a1.786,1.786,0,0,0-.22-3.129ZM10.608,86.083a6.893,6.893,0,0,1-6.882,6.883H3.573V60.3h.153a6.892,6.892,0,0,1,6.885,6.883v18.9ZM28.346,80.2H14.184V73.066H29.216a10.106,10.106,0,0,0,9.17-5.89l2.019-4.415a9.68,9.68,0,0,0,6.5,2.96l-1.657,3.622A18.627,18.627,0,0,1,28.346,80.2ZM53.095,58.545a6.217,6.217,0,1,1-11.307-5.17l.569-1.245L53.664,57.3Zm13.358.674-9.674-4.424-14.562-6.66L30.668,42.854a11.76,11.76,0,1,1,9.781-21.389L82.793,40.829l-2.179,1.4-.017.009L72,47.761a1.779,1.779,0,0,0-.658.759ZM79.819,52.4c-1.735,3.8-5.428,5.985-8.824,5.475l3.379-7.39,6.217-3.993a9.9,9.9,0,0,1-.772,5.908Z" transform="translate(0 -16.826)" fill="#2e2e36"/><path d="M213.31,77.8l-16.164-7.39a1.786,1.786,0,0,0-1.488,3.247l16.164,7.393a1.787,1.787,0,1,0,1.485-3.25Z" transform="translate(-144.975 -56.627)" fill="#2e2e36"/></g></g></g><g transform="translate(889.301 7.568)"><path d="M87.783,164.3c-2.047-8.691-4.282-18.248-6.311-26.884a15.33,15.33,0,0,0-14.988-11.562l-.234,0H45.88a1.725,1.725,0,0,0-3.451,0H22.058a15.344,15.344,0,0,0-15.222,11.56C4.812,146.024,2.565,155.635.526,164.3-3.937,184,21.321,190.5,28.059,174.06a8.757,8.757,0,0,0,10.312-6.805H49.939A8.758,8.758,0,0,0,60.25,174.06C67.071,190.532,92.2,184,87.783,164.3ZM56.753,129.3v12.048a1.727,1.727,0,0,1-1.725,1.725H33.28a1.727,1.727,0,0,1-1.725-1.725V129.3ZM29.83,170.792a5.262,5.262,0,1,1,5.262-5.262A5.268,5.268,0,0,1,29.83,170.792Zm23.387-5.262a5.262,5.262,0,1,1,5.262,5.262A5.268,5.268,0,0,1,53.217,165.53Zm23.654,14.045c-5.649,1.623-11.2-1.363-13.449-6.875,6.95-4.78,3.6-15.851-4.943-15.882a8.726,8.726,0,0,0-8.54,6.987H38.37a8.727,8.727,0,0,0-8.54-6.987c-8.55.031-11.891,11.105-4.943,15.882-2.25,5.512-7.8,8.5-13.449,6.874-5.112-1.449-9.431-6.491-7.553-14.489l2.138-9.106Q8.111,147.09,10.2,138.2a11.869,11.869,0,0,1,11.822-8.9c.026,0,6.06,0,6.087,0v12.048a5.181,5.181,0,0,0,5.175,5.175H55.028a5.181,5.181,0,0,0,5.175-5.175V129.3H66.29a11.868,11.868,0,0,1,11.823,8.9q2.084,8.89,4.173,17.779l2.138,9.106c1.877,8-2.441,13.041-7.553,14.489Z" transform="translate(-0.001 -110.327)" fill="#2e2e36"/><path d="M86.45,239.092H83v-3.45a1.725,1.725,0,1,0-3.45,0v3.45H76.1a1.725,1.725,0,1,0,0,3.45h3.45v3.45a1.725,1.725,0,1,0,3.45,0v-3.45h3.45A1.725,1.725,0,0,0,86.45,239.092Z" transform="translate(-61.544 -201.168)" fill="#2e2e36"/><path d="M192.328,51.063a12.076,12.076,0,0,1,17.077,0,1.725,1.725,0,1,0,2.44-2.44,15.526,15.526,0,0,0-21.957,0,1.725,1.725,0,1,0,2.44,2.44Z" transform="translate(-156.713 -44.076)" fill="#2e2e36"/><path d="M218.132,86.682a1.725,1.725,0,0,0,2.44,2.44,5.175,5.175,0,0,1,7.319,0,1.725,1.725,0,1,0,2.44-2.44A8.666,8.666,0,0,0,218.132,86.682Z" transform="translate(-180.077 -77.256)" fill="#2e2e36"/><path d="M369.6,239.085h-3.45v-3.45a1.725,1.725,0,1,0-3.45,0v3.45h-3.45a1.725,1.725,0,0,0,0,3.45h3.45v3.45a1.725,1.725,0,1,0,3.45,0v-3.45h3.45A1.725,1.725,0,0,0,369.6,239.085Z" transform="translate(-295.846 -201.162)" fill="#2e2e36"/></g><g transform="translate(1274.034 0)"><g transform="translate(0 0)"><g transform="translate(0 0)"><path d="M141.621,41.206H140.15V38.263h1.472a4.415,4.415,0,0,0,4.415-4.415V8.559A4.4,4.4,0,0,0,144.565,0h-44.15a4.4,4.4,0,0,0-1.472,8.559V33.848a4.415,4.415,0,0,0,4.415,4.415h1.472v2.943h-1.472A7.367,7.367,0,0,0,96,48.565a1.472,1.472,0,0,0,1.472,1.472,24.871,24.871,0,0,0,14.717,22.777V86.828A1.472,1.472,0,0,0,113.66,88.3h17.66a1.472,1.472,0,0,0,1.472-1.472V72.813a24.878,24.878,0,0,0,14.717-22.777,1.472,1.472,0,0,0,1.472-1.472A7.367,7.367,0,0,0,141.621,41.206ZM98.943,4.415a1.472,1.472,0,0,1,1.472-1.472h44.15a1.472,1.472,0,0,1,0,2.943h-44.15A1.472,1.472,0,0,1,98.943,4.415Zm4.415,30.9a1.472,1.472,0,0,1-1.472-1.472V8.83h41.206V33.848a1.472,1.472,0,0,1-1.472,1.472Zm33.848,2.943v2.943H107.773V38.263ZM115.132,85.356v-11.4l.137.037c.147.044.294.078.441.119q.808.23,1.632.4c.263.056.528.1.793.147.455.079.912.147,1.373.2.28.034.556.069.839.093q.9.075,1.8.085c.112,0,.221.016.333.016s.222-.015.334-.016q.9-.01,1.8-.085c.283-.024.562-.06.843-.093.456-.054.909-.119,1.361-.2q.4-.071.806-.147c.536-.11,1.064-.244,1.588-.391.163-.046.33-.082.493-.131.043-.013.088-.022.131-.035l.007,11.4ZM130.761,70.5a22.15,22.15,0,0,1-12.493,1.2A21.341,21.341,0,0,1,114.21,70.5a21.965,21.965,0,0,1-13.8-20.459h44.15A21.969,21.969,0,0,1,130.761,70.5ZM99.195,47.093a4.424,4.424,0,0,1,4.163-2.943h38.263a4.424,4.424,0,0,1,4.163,2.943Z" transform="translate(-96 0)" fill="#2e2e36"/><path d="M149.159,58.938h-4.686a4.415,4.415,0,1,0,0,2.943h4.686a1.472,1.472,0,0,0,0-2.943Zm-8.83,2.943A1.472,1.472,0,1,1,141.8,60.41,1.472,1.472,0,0,1,140.329,61.881Z" transform="translate(-128.555 -45.693)" fill="#2e2e36"/></g></g></g><g transform="translate(266.79 5.676)"><path d="M86.828,76.15H85.356V71.735A7.358,7.358,0,0,0,80.941,65V42.3a1.472,1.472,0,0,0-.883-1.348,5.825,5.825,0,0,0,.883-3.067,5.887,5.887,0,0,0-11.773,0,5.827,5.827,0,0,0,.818,2.943H18.313a5.827,5.827,0,0,0,.818-2.943,5.887,5.887,0,0,0-11.773,0,5.825,5.825,0,0,0,.883,3.067A1.472,1.472,0,0,0,7.358,42.3V65a7.358,7.358,0,0,0-4.415,6.734V76.15H1.472A1.472,1.472,0,0,0,0,77.621v20.6A1.472,1.472,0,0,0,1.472,99.7H2.943v7.358a1.472,1.472,0,0,0,1.472,1.472H10.3a1.472,1.472,0,0,0,1.472-1.472V99.7H76.526v7.358A1.472,1.472,0,0,0,78,108.526h5.887a1.472,1.472,0,0,0,1.472-1.472V99.7h1.472A1.472,1.472,0,0,0,88.3,98.225v-20.6A1.472,1.472,0,0,0,86.828,76.15ZM75.054,34.943a2.943,2.943,0,1,1-2.943,2.943A2.943,2.943,0,0,1,75.054,34.943Zm-61.81,0A2.943,2.943,0,1,1,10.3,37.887,2.943,2.943,0,0,1,13.245,34.943ZM10.3,43.773H78v20.6H72.073a7.282,7.282,0,0,0,1.51-4.415V57.018a7.367,7.367,0,0,0-7.358-7.358H54.451a7.367,7.367,0,0,0-7.358,7.358v2.943a7.282,7.282,0,0,0,1.51,4.415H39.7a7.282,7.282,0,0,0,1.51-4.415V57.018a7.367,7.367,0,0,0-7.358-7.358H22.075a7.367,7.367,0,0,0-7.358,7.358v2.943a7.282,7.282,0,0,0,1.51,4.415H10.3ZM70.64,57.018v2.943a4.415,4.415,0,0,1-4.415,4.415H54.451a4.415,4.415,0,0,1-4.415-4.415V57.018A4.415,4.415,0,0,1,54.451,52.6H66.225A4.415,4.415,0,0,1,70.64,57.018Zm-32.376,0v2.943a4.415,4.415,0,0,1-4.415,4.415H22.075a4.415,4.415,0,0,1-4.415-4.415V57.018A4.415,4.415,0,0,1,22.075,52.6H33.848A4.415,4.415,0,0,1,38.263,57.018ZM5.887,71.735A4.415,4.415,0,0,1,10.3,67.32H78a4.415,4.415,0,0,1,4.415,4.415V76.15H5.887ZM8.83,105.583H5.887V99.7H8.83Zm73.583,0H79.469V99.7h2.943Zm2.943-8.83H2.943V79.093H85.356Z" transform="translate(0 -32)" fill="#2e2e36"/></g></g><rect width="1500" height="110" transform="translate(-9764 -8085)" fill="none"/></g></svg>