<svg xmlns="http://www.w3.org/2000/svg" xmlns:xlink="http://www.w3.org/1999/xlink" width="105.945" height="105.946" viewBox="0 0 105.945 105.946"><defs><filter id="a" x="0" y="0" width="105.945" height="105.946" filterUnits="userSpaceOnUse"><feOffset input="SourceAlpha"/><feGaussianBlur stdDeviation="2.5" result="b"/><feFlood flood-opacity="0.161"/><feComposite operator="in" in2="b"/><feComposite in="SourceGraphic"/></filter></defs><g transform="translate(7.5 7.5)"><g transform="matrix(1, 0, 0, 1, -7.5, -7.5)" filter="url(#a)"><path d="M239.593,241.846a6.928,6.928,0,0,1,3.709-1.053,7.074,7.074,0,0,1,7.074,7.073,6.98,6.98,0,0,1-1,3.633l.032.023a46.239,46.239,0,1,1-9.813-9.676" transform="translate(-159.71 -225.5)" fill="#fff" fill-rule="evenodd"/></g><path d="M251.6,260.374a7.462,7.462,0,0,1-2.472.45,7.029,7.029,0,0,1-6.571-9.5,40.9,40.9,0,1,0,9.043,9.054" transform="translate(-173.089 -238.906)" fill="#e00111" fill-rule="evenodd"/><path d="M331.9,261.809a3.865,3.865,0,1,1,3.862,3.859,3.862,3.862,0,0,1-3.862-3.859" transform="translate(-259.668 -247.007)" fill="#e00111"/><path d="M219.2,387.94a2.485,2.485,0,0,1,.85-.563,2.612,2.612,0,0,1,.978-.2,2.52,2.52,0,0,1,.967.2,2.474,2.474,0,0,1,.861.563l.357.357-.714.723-.367-.356a1.519,1.519,0,0,0-.519-.346,1.548,1.548,0,0,0-1.171,0,1.531,1.531,0,0,0-.518.346,1.456,1.456,0,0,0-.345.506,1.58,1.58,0,0,0,0,1.172,1.558,1.558,0,0,0,.345.517,1.513,1.513,0,0,0,1.1.459,1.6,1.6,0,0,0,.6-.114,1.428,1.428,0,0,0,.506-.345l.367-.357.714.727-.357.356a2.617,2.617,0,0,1-.861.575,2.678,2.678,0,0,1-.967.183,2.777,2.777,0,0,1-.978-.183,2.633,2.633,0,0,1-.85-.575,2.51,2.51,0,0,1-.563-.851,2.659,2.659,0,0,1,0-1.945,2.488,2.488,0,0,1,.563-.849" transform="translate(-195.976 -319.561)" fill="#fff" fill-rule="evenodd"/><path d="M235.144,390.556l.725.725-.356.357a2.609,2.609,0,0,1-.84.564,2.625,2.625,0,0,1-1.977,0,2.622,2.622,0,0,1-.839-.564,2.477,2.477,0,0,1-.563-.851,2.711,2.711,0,0,1-.184-.977,2.615,2.615,0,0,1,.184-.965,2.562,2.562,0,0,1,1.413-1.415,2.6,2.6,0,0,1,.977-.193,2.5,2.5,0,0,1,.966.193,2.475,2.475,0,0,1,.863.564l.356.356-2.863,2.863a1.515,1.515,0,0,0,1.782-.3Zm-2.563-1.85a1.506,1.506,0,0,0-.461,1.1,1.482,1.482,0,0,0,.162.677c.092-.091.228-.229.413-.412s.39-.392.6-.6.419-.418.61-.61.353-.34.461-.449a1.545,1.545,0,0,0-.931-.15,1.472,1.472,0,0,0-.851.437" transform="translate(-203.084 -319.592)" fill="#fff" fill-rule="evenodd"/><path d="M244.064,389.781a2.526,2.526,0,0,1,.2-1,2.63,2.63,0,0,1,.552-.817,2.534,2.534,0,0,1,.829-.551,2.441,2.441,0,0,1,1-.207,2.393,2.393,0,0,1,1,.207,2.494,2.494,0,0,1,.827.551,2.384,2.384,0,0,1,.554.817,2.415,2.415,0,0,1,.207,1v2.586H248.2v-2.586a1.422,1.422,0,0,0-.126-.6,1.582,1.582,0,0,0-.829-.828,1.551,1.551,0,0,0-1.218,0,1.567,1.567,0,0,0-.494.334,1.594,1.594,0,0,0-.333.494,1.518,1.518,0,0,0-.114.6v2.586h-1.025Z" transform="translate(-210.356 -319.575)" fill="#fff" fill-rule="evenodd"/><path d="M258.717,387.94a2.484,2.484,0,0,1,.851-.563,2.588,2.588,0,0,1,.976-.2,2.527,2.527,0,0,1,.967.2,2.48,2.48,0,0,1,.861.563l.355.357-.711.723-.368-.356a1.522,1.522,0,0,0-.518-.346,1.553,1.553,0,0,0-1.173,0,1.507,1.507,0,0,0-.517.346,1.411,1.411,0,0,0-.345.506,1.536,1.536,0,0,0,0,1.172,1.573,1.573,0,0,0,1.448.976,1.6,1.6,0,0,0,.6-.114,1.431,1.431,0,0,0,.506-.345l.368-.357.711.727-.355.356a2.624,2.624,0,0,1-.861.575,2.686,2.686,0,0,1-.967.183,2.751,2.751,0,0,1-.976-.183,2.632,2.632,0,0,1-.851-.575,2.5,2.5,0,0,1-.564-.851,2.691,2.691,0,0,1,0-1.945,2.475,2.475,0,0,1,.564-.849" transform="translate(-218.164 -319.561)" fill="#fff" fill-rule="evenodd"/><path d="M270.6,389.809a2.53,2.53,0,0,1,.2-1,2.655,2.655,0,0,1,.552-.817,2.541,2.541,0,0,1,.828-.552,2.533,2.533,0,0,1,2,0,2.548,2.548,0,0,1,.826.552,2.346,2.346,0,0,1,.552.817,2.371,2.371,0,0,1,.206,1,2.44,2.44,0,0,1-.206,1,2.48,2.48,0,0,1-.552.828,2.711,2.711,0,0,1-.826.563,2.666,2.666,0,0,1-2,0,2.7,2.7,0,0,1-.828-.563,2.824,2.824,0,0,1-.552-.828,2.606,2.606,0,0,1-.2-1m1.012,0a1.6,1.6,0,0,0,.115.61,1.5,1.5,0,0,0,.838.838,1.613,1.613,0,0,0,.61.116,1.512,1.512,0,0,0,1.1-.449,1.5,1.5,0,0,0,.334-.505,1.518,1.518,0,0,0,.125-.61,1.436,1.436,0,0,0-.125-.6,1.352,1.352,0,0,0-.334-.494,1.391,1.391,0,0,0-.494-.335,1.488,1.488,0,0,0-.609-.126,1.619,1.619,0,0,0-1.115.461,1.571,1.571,0,0,0-.332.494,1.514,1.514,0,0,0-.115.6" transform="translate(-225.254 -319.591)" fill="#fff" fill-rule="evenodd"/><path d="M288.651,387.18V388.2h-3.115a.513.513,0,0,0-.517.519.538.538,0,0,0,.15.379.5.5,0,0,0,.367.148h2.07a1.409,1.409,0,0,1,.6.128,1.447,1.447,0,0,1,.494.322,1.365,1.365,0,0,1,.333.493,1.385,1.385,0,0,1,.127.6,1.445,1.445,0,0,1-.127.609,1.473,1.473,0,0,1-.333.494,1.581,1.581,0,0,1-.494.335,1.53,1.53,0,0,1-.6.115h-3.1v-1.024h3.1a.508.508,0,0,0,.379-.148.518.518,0,0,0,.15-.381.5.5,0,0,0-.15-.369.515.515,0,0,0-.379-.148h-2.07a1.614,1.614,0,0,1-.608-.115,1.652,1.652,0,0,1-.483-.334,1.769,1.769,0,0,1-.332-.494,1.608,1.608,0,0,1-.115-.608,1.521,1.521,0,0,1,.115-.6,1.613,1.613,0,0,1,.332-.5,1.583,1.583,0,0,1,1.092-.448Z" transform="translate(-232.774 -319.56)" fill="#fff" fill-rule="evenodd"/><path d="M303,387.18v2.575a2.464,2.464,0,0,1-.206,1,2.545,2.545,0,0,1-.553.828,2.661,2.661,0,0,1-.827.562,2.515,2.515,0,0,1-1,.2,2.583,2.583,0,0,1-1-.2,2.694,2.694,0,0,1-.826-.562,2.847,2.847,0,0,1-.552-.828,2.585,2.585,0,0,1-.2-1V387.18h1.024v2.575a1.581,1.581,0,0,0,.115.609,1.754,1.754,0,0,0,.332.506,1.812,1.812,0,0,0,.494.332,1.669,1.669,0,0,0,1.22,0,1.589,1.589,0,0,0,.494-.332,1.491,1.491,0,0,0,.333-.506,1.512,1.512,0,0,0,.127-.609V387.18Z" transform="translate(-240.548 -319.56)" fill="#fff" fill-rule="evenodd"/><path d="M316.347,382.466v4.642a2.456,2.456,0,0,1-.209,1,2.634,2.634,0,0,1-1.367,1.391,2.662,2.662,0,0,1-2,0,2.652,2.652,0,0,1-1.389-1.391,2.554,2.554,0,0,1-.2-1,2.48,2.48,0,0,1,.758-1.814,2.541,2.541,0,0,1,.828-.552,2.458,2.458,0,0,1,1-.207h1.552v-2.068Zm-2.575,6.206a1.543,1.543,0,0,0,.6-.115,1.587,1.587,0,0,0,.494-.334,1.468,1.468,0,0,0,.334-.505,1.522,1.522,0,0,0,.127-.61v-1.55h-1.552a1.472,1.472,0,0,0-.609.127,1.487,1.487,0,0,0-.509.333,1.667,1.667,0,0,0-.332.5,1.563,1.563,0,0,0-.115.6,1.667,1.667,0,0,0,.115.61,1.813,1.813,0,0,0,.332.505,1.777,1.777,0,0,0,.509.334,1.628,1.628,0,0,0,.609.115" transform="translate(-248.038 -316.914)" fill="#fff" fill-rule="evenodd"/><path d="M334.1,314.03l-8.963,23.507-5.155-.014,3.381-7.666-6.089-15.812h5.141l3.321,10.2.183,0L329,314.031Z" transform="translate(-251.459 -278.493)" fill="#ffef41"/><path d="M295.125,325.276c0,3.758-4.12,5.163-7.995,5.165s-7.9-1.487-7.9-5.19h5.094c0,1.158,1.6,1.6,2.813,1.593,1.187,0,2.728-.316,2.728-1.435,0-1.408-1.916-1.614-4.925-2.395-3.123-.819-5.348-2.186-5.351-5.128,0-3.738,3.642-5.019,7.535-5.024,3.852,0,7.371,1.275,7.374,5.011l-5.032.016c0-1.039-1.278-1.442-2.343-1.439s-2.333.259-2.333,1.287c.005,1.412,2.15,1.59,4.573,2.182,3.1.753,5.757,2.014,5.761,5.354" transform="translate(-230.099 -277.838)" fill="#ffef41"/><path d="M250.148,329.79l-4.774.032.011-1.886-.185,0c-.8,1.6-2.388,2.482-4.859,2.489-4.188.007-7.817-3.43-7.82-8.844,0-5.483,3.306-8.752,7.515-8.755a5.841,5.841,0,0,1,5.124,2.4l.185-.005-.009-1.852h4.8Zm-4.841-8.215c0-2.2-1.221-4.259-4.063-4.255s-3.762,2.3-3.762,4.273c0,2.081,1.114,4.334,3.988,4.336,2.945-.01,3.838-2.374,3.838-4.353" transform="translate(-203.876 -277.819)" fill="#ffef41"/><path d="M204.671,321.469c0,.651-.089,1.679-.089,1.679l-11.852.005a3.406,3.406,0,0,0,3.574,3.281,2.834,2.834,0,0,0,2.878-1.56l5.144.008c-.468,2.442-2.582,5.53-7.932,5.534a8.651,8.651,0,0,1-8.721-8.94c0-4.955,3.243-8.635,8.361-8.642a8.317,8.317,0,0,1,8.637,8.634m-5.106-1.642a3.167,3.167,0,0,0-3.453-3.011,3.336,3.336,0,0,0-3.39,3.011Z" transform="translate(-178.697 -277.822)" fill="#ffef41"/><path d="M243.247,363.06c-13.075-1.762-26.212-1.865-46.575-.411l.222-.937c20.349-1.8,36.389-2.74,45.184-2.469,5.187.16,6.765.537,6.765,2.376,0,1.962-2.306,1.886-5.6,1.441" transform="translate(-183.75 -303.85)" fill="#ffef41"/></g></svg>