<svg xmlns="http://www.w3.org/2000/svg" width="132.732" height="89" viewBox="0 0 132.732 89"><text transform="translate(46.86 70)" fill="#4b4b4b" font-size="74" font-family="Roboto-Black, Roboto" font-weight="800"><tspan x="-36.061" y="0">Tt</tspan></text><path d="M132.732.15H132v-.3h.732ZM131,.15h-1v-.3h1Zm-2,0h-1v-.3h1Zm-2,0h-1v-.3h1Zm-2,0h-1v-.3h1Zm-2,0h-1v-.3h1Zm-2,0h-1v-.3h1Zm-2,0h-1v-.3h1Zm-2,0h-1v-.3h1Zm-2,0h-1v-.3h1Zm-2,0h-1v-.3h1Zm-2,0h-1v-.3h1Zm-2,0h-1v-.3h1Zm-2,0h-1v-.3h1Zm-2,0h-1v-.3h1Zm-2,0h-1v-.3h1Zm-2,0h-1v-.3h1Zm-2,0H98v-.3h1Zm-2,0H96v-.3h1Zm-2,0H94v-.3h1Zm-2,0H92v-.3h1Zm-2,0H90v-.3h1Zm-2,0H88v-.3h1Zm-2,0H86v-.3h1Zm-2,0H84v-.3h1Zm-2,0H82v-.3h1Zm-2,0H80v-.3h1Zm-2,0H78v-.3h1Zm-2,0H76v-.3h1Zm-2,0H74v-.3h1Zm-2,0H72v-.3h1Zm-2,0H70v-.3h1Zm-2,0H68v-.3h1Zm-2,0H66v-.3h1Zm-2,0H64v-.3h1Zm-2,0H62v-.3h1Zm-2,0H60v-.3h1Zm-2,0H58v-.3h1Zm-2,0H56v-.3h1Zm-2,0H54v-.3h1Zm-2,0H52v-.3h1Zm-2,0H50v-.3h1Zm-2,0H48v-.3h1Zm-2,0H46v-.3h1Zm-2,0H44v-.3h1Zm-2,0H42v-.3h1Zm-2,0H40v-.3h1Zm-2,0H38v-.3h1Zm-2,0H36v-.3h1Zm-2,0H34v-.3h1Zm-2,0H32v-.3h1Zm-2,0H30v-.3h1Zm-2,0H28v-.3h1Zm-2,0H26v-.3h1Zm-2,0H24v-.3h1Zm-2,0H22v-.3h1Zm-2,0H20v-.3h1Zm-2,0H18v-.3h1Zm-2,0H16v-.3h1Zm-2,0H14v-.3h1Zm-2,0H12v-.3h1Zm-2,0H10v-.3h1Zm-2,0H8v-.3H9Zm-2,0H6v-.3H7Zm-2,0H4v-.3H5Zm-2,0H2v-.3H3Zm-2,0H0v-.3H1Z" transform="translate(0 17.048)" fill="#707070"/><path d="M132.732.15H132v-.3h.732ZM131,.15h-1v-.3h1Zm-2,0h-1v-.3h1Zm-2,0h-1v-.3h1Zm-2,0h-1v-.3h1Zm-2,0h-1v-.3h1Zm-2,0h-1v-.3h1Zm-2,0h-1v-.3h1Zm-2,0h-1v-.3h1Zm-2,0h-1v-.3h1Zm-2,0h-1v-.3h1Zm-2,0h-1v-.3h1Zm-2,0h-1v-.3h1Zm-2,0h-1v-.3h1Zm-2,0h-1v-.3h1Zm-2,0h-1v-.3h1Zm-2,0h-1v-.3h1Zm-2,0H98v-.3h1Zm-2,0H96v-.3h1Zm-2,0H94v-.3h1Zm-2,0H92v-.3h1Zm-2,0H90v-.3h1Zm-2,0H88v-.3h1Zm-2,0H86v-.3h1Zm-2,0H84v-.3h1Zm-2,0H82v-.3h1Zm-2,0H80v-.3h1Zm-2,0H78v-.3h1Zm-2,0H76v-.3h1Zm-2,0H74v-.3h1Zm-2,0H72v-.3h1Zm-2,0H70v-.3h1Zm-2,0H68v-.3h1Zm-2,0H66v-.3h1Zm-2,0H64v-.3h1Zm-2,0H62v-.3h1Zm-2,0H60v-.3h1Zm-2,0H58v-.3h1Zm-2,0H56v-.3h1Zm-2,0H54v-.3h1Zm-2,0H52v-.3h1Zm-2,0H50v-.3h1Zm-2,0H48v-.3h1Zm-2,0H46v-.3h1Zm-2,0H44v-.3h1Zm-2,0H42v-.3h1Zm-2,0H40v-.3h1Zm-2,0H38v-.3h1Zm-2,0H36v-.3h1Zm-2,0H34v-.3h1Zm-2,0H32v-.3h1Zm-2,0H30v-.3h1Zm-2,0H28v-.3h1Zm-2,0H26v-.3h1Zm-2,0H24v-.3h1Zm-2,0H22v-.3h1Zm-2,0H20v-.3h1Zm-2,0H18v-.3h1Zm-2,0H16v-.3h1Zm-2,0H14v-.3h1Zm-2,0H12v-.3h1Zm-2,0H10v-.3h1Zm-2,0H8v-.3H9Zm-2,0H6v-.3H7Zm-2,0H4v-.3H5Zm-2,0H2v-.3H3Zm-2,0H0v-.3H1Z" transform="translate(0 21.462)" fill="#707070"/><path d="M132.732.15H132v-.3h.732ZM131,.15h-1v-.3h1Zm-2,0h-1v-.3h1Zm-2,0h-1v-.3h1Zm-2,0h-1v-.3h1Zm-2,0h-1v-.3h1Zm-2,0h-1v-.3h1Zm-2,0h-1v-.3h1Zm-2,0h-1v-.3h1Zm-2,0h-1v-.3h1Zm-2,0h-1v-.3h1Zm-2,0h-1v-.3h1Zm-2,0h-1v-.3h1Zm-2,0h-1v-.3h1Zm-2,0h-1v-.3h1Zm-2,0h-1v-.3h1Zm-2,0h-1v-.3h1Zm-2,0H98v-.3h1Zm-2,0H96v-.3h1Zm-2,0H94v-.3h1Zm-2,0H92v-.3h1Zm-2,0H90v-.3h1Zm-2,0H88v-.3h1Zm-2,0H86v-.3h1Zm-2,0H84v-.3h1Zm-2,0H82v-.3h1Zm-2,0H80v-.3h1Zm-2,0H78v-.3h1Zm-2,0H76v-.3h1Zm-2,0H74v-.3h1Zm-2,0H72v-.3h1Zm-2,0H70v-.3h1Zm-2,0H68v-.3h1Zm-2,0H66v-.3h1Zm-2,0H64v-.3h1Zm-2,0H62v-.3h1Zm-2,0H60v-.3h1Zm-2,0H58v-.3h1Zm-2,0H56v-.3h1Zm-2,0H54v-.3h1Zm-2,0H52v-.3h1Zm-2,0H50v-.3h1Zm-2,0H48v-.3h1Zm-2,0H46v-.3h1Zm-2,0H44v-.3h1Zm-2,0H42v-.3h1Zm-2,0H40v-.3h1Zm-2,0H38v-.3h1Zm-2,0H36v-.3h1Zm-2,0H34v-.3h1Zm-2,0H32v-.3h1Zm-2,0H30v-.3h1Zm-2,0H28v-.3h1Zm-2,0H26v-.3h1Zm-2,0H24v-.3h1Zm-2,0H22v-.3h1Zm-2,0H20v-.3h1Zm-2,0H18v-.3h1Zm-2,0H16v-.3h1Zm-2,0H14v-.3h1Zm-2,0H12v-.3h1Zm-2,0H10v-.3h1Zm-2,0H8v-.3H9Zm-2,0H6v-.3H7Zm-2,0H4v-.3H5Zm-2,0H2v-.3H3Zm-2,0H0v-.3H1Z" transform="translate(0 31.528)" fill="#707070"/><path d="M132.732.15H132v-.3h.732ZM131,.15h-1v-.3h1Zm-2,0h-1v-.3h1Zm-2,0h-1v-.3h1Zm-2,0h-1v-.3h1Zm-2,0h-1v-.3h1Zm-2,0h-1v-.3h1Zm-2,0h-1v-.3h1Zm-2,0h-1v-.3h1Zm-2,0h-1v-.3h1Zm-2,0h-1v-.3h1Zm-2,0h-1v-.3h1Zm-2,0h-1v-.3h1Zm-2,0h-1v-.3h1Zm-2,0h-1v-.3h1Zm-2,0h-1v-.3h1Zm-2,0h-1v-.3h1Zm-2,0H98v-.3h1Zm-2,0H96v-.3h1Zm-2,0H94v-.3h1Zm-2,0H92v-.3h1Zm-2,0H90v-.3h1Zm-2,0H88v-.3h1Zm-2,0H86v-.3h1Zm-2,0H84v-.3h1Zm-2,0H82v-.3h1Zm-2,0H80v-.3h1Zm-2,0H78v-.3h1Zm-2,0H76v-.3h1Zm-2,0H74v-.3h1Zm-2,0H72v-.3h1Zm-2,0H70v-.3h1Zm-2,0H68v-.3h1Zm-2,0H66v-.3h1Zm-2,0H64v-.3h1Zm-2,0H62v-.3h1Zm-2,0H60v-.3h1Zm-2,0H58v-.3h1Zm-2,0H56v-.3h1Zm-2,0H54v-.3h1Zm-2,0H52v-.3h1Zm-2,0H50v-.3h1Zm-2,0H48v-.3h1Zm-2,0H46v-.3h1Zm-2,0H44v-.3h1Zm-2,0H42v-.3h1Zm-2,0H40v-.3h1Zm-2,0H38v-.3h1Zm-2,0H36v-.3h1Zm-2,0H34v-.3h1Zm-2,0H32v-.3h1Zm-2,0H30v-.3h1Zm-2,0H28v-.3h1Zm-2,0H26v-.3h1Zm-2,0H24v-.3h1Zm-2,0H22v-.3h1Zm-2,0H20v-.3h1Zm-2,0H18v-.3h1Zm-2,0H16v-.3h1Zm-2,0H14v-.3h1Zm-2,0H12v-.3h1Zm-2,0H10v-.3h1Zm-2,0H8v-.3H9Zm-2,0H6v-.3H7Zm-2,0H4v-.3H5Zm-2,0H2v-.3H3Zm-2,0H0v-.3H1Z" transform="translate(0 39.767)" fill="#707070"/><path d="M132.732.15H132v-.3h.732ZM131,.15h-1v-.3h1Zm-2,0h-1v-.3h1Zm-2,0h-1v-.3h1Zm-2,0h-1v-.3h1Zm-2,0h-1v-.3h1Zm-2,0h-1v-.3h1Zm-2,0h-1v-.3h1Zm-2,0h-1v-.3h1Zm-2,0h-1v-.3h1Zm-2,0h-1v-.3h1Zm-2,0h-1v-.3h1Zm-2,0h-1v-.3h1Zm-2,0h-1v-.3h1Zm-2,0h-1v-.3h1Zm-2,0h-1v-.3h1Zm-2,0h-1v-.3h1Zm-2,0H98v-.3h1Zm-2,0H96v-.3h1Zm-2,0H94v-.3h1Zm-2,0H92v-.3h1Zm-2,0H90v-.3h1Zm-2,0H88v-.3h1Zm-2,0H86v-.3h1Zm-2,0H84v-.3h1Zm-2,0H82v-.3h1Zm-2,0H80v-.3h1Zm-2,0H78v-.3h1Zm-2,0H76v-.3h1Zm-2,0H74v-.3h1Zm-2,0H72v-.3h1Zm-2,0H70v-.3h1Zm-2,0H68v-.3h1Zm-2,0H66v-.3h1Zm-2,0H64v-.3h1Zm-2,0H62v-.3h1Zm-2,0H60v-.3h1Zm-2,0H58v-.3h1Zm-2,0H56v-.3h1Zm-2,0H54v-.3h1Zm-2,0H52v-.3h1Zm-2,0H50v-.3h1Zm-2,0H48v-.3h1Zm-2,0H46v-.3h1Zm-2,0H44v-.3h1Zm-2,0H42v-.3h1Zm-2,0H40v-.3h1Zm-2,0H38v-.3h1Zm-2,0H36v-.3h1Zm-2,0H34v-.3h1Zm-2,0H32v-.3h1Zm-2,0H30v-.3h1Zm-2,0H28v-.3h1Zm-2,0H26v-.3h1Zm-2,0H24v-.3h1Zm-2,0H22v-.3h1Zm-2,0H20v-.3h1Zm-2,0H18v-.3h1Zm-2,0H16v-.3h1Zm-2,0H14v-.3h1Zm-2,0H12v-.3h1Zm-2,0H10v-.3h1Zm-2,0H8v-.3H9Zm-2,0H6v-.3H7Zm-2,0H4v-.3H5Zm-2,0H2v-.3H3Zm-2,0H0v-.3H1Z" transform="translate(0 60.9)" fill="#707070"/><path d="M132.732.15H132v-.3h.732ZM131,.15h-1v-.3h1Zm-2,0h-1v-.3h1Zm-2,0h-1v-.3h1Zm-2,0h-1v-.3h1Zm-2,0h-1v-.3h1Zm-2,0h-1v-.3h1Zm-2,0h-1v-.3h1Zm-2,0h-1v-.3h1Zm-2,0h-1v-.3h1Zm-2,0h-1v-.3h1Zm-2,0h-1v-.3h1Zm-2,0h-1v-.3h1Zm-2,0h-1v-.3h1Zm-2,0h-1v-.3h1Zm-2,0h-1v-.3h1Zm-2,0h-1v-.3h1Zm-2,0H98v-.3h1Zm-2,0H96v-.3h1Zm-2,0H94v-.3h1Zm-2,0H92v-.3h1Zm-2,0H90v-.3h1Zm-2,0H88v-.3h1Zm-2,0H86v-.3h1Zm-2,0H84v-.3h1Zm-2,0H82v-.3h1Zm-2,0H80v-.3h1Zm-2,0H78v-.3h1Zm-2,0H76v-.3h1Zm-2,0H74v-.3h1Zm-2,0H72v-.3h1Zm-2,0H70v-.3h1Zm-2,0H68v-.3h1Zm-2,0H66v-.3h1Zm-2,0H64v-.3h1Zm-2,0H62v-.3h1Zm-2,0H60v-.3h1Zm-2,0H58v-.3h1Zm-2,0H56v-.3h1Zm-2,0H54v-.3h1Zm-2,0H52v-.3h1Zm-2,0H50v-.3h1Zm-2,0H48v-.3h1Zm-2,0H46v-.3h1Zm-2,0H44v-.3h1Zm-2,0H42v-.3h1Zm-2,0H40v-.3h1Zm-2,0H38v-.3h1Zm-2,0H36v-.3h1Zm-2,0H34v-.3h1Zm-2,0H32v-.3h1Zm-2,0H30v-.3h1Zm-2,0H28v-.3h1Zm-2,0H26v-.3h1Zm-2,0H24v-.3h1Zm-2,0H22v-.3h1Zm-2,0H20v-.3h1Zm-2,0H18v-.3h1Zm-2,0H16v-.3h1Zm-2,0H14v-.3h1Zm-2,0H12v-.3h1Zm-2,0H10v-.3h1Zm-2,0H8v-.3H9Zm-2,0H6v-.3H7Zm-2,0H4v-.3H5Zm-2,0H2v-.3H3Zm-2,0H0v-.3H1Z" transform="translate(0 70.967)" fill="#707070"/></svg>