<svg xmlns="http://www.w3.org/2000/svg" width="373" height="373" viewBox="0 0 373 373"><g transform="translate(13491.894 6555.123)"><g transform="translate(-13459.409 -6522.337)"><path d="M210.94,56.356a16.791,16.791,0,0,1,8.991-2.552,17.149,17.149,0,0,1,17.149,17.148,16.942,16.942,0,0,1-2.427,8.808l.078.055A112.1,112.1,0,1,1,210.94,56.356" transform="translate(8.553 8.426)" fill="#fff" fill-rule="evenodd"/><path d="M223.629,84.792a18.076,18.076,0,0,1-5.994,1.091A17.039,17.039,0,0,1,201.7,62.842a99.145,99.145,0,1,0,21.924,21.95" transform="translate(10.719 10.6)" fill="#db0812" fill-rule="evenodd"/><path d="M176.523,65.646A9.368,9.368,0,1,1,185.883,75a9.359,9.359,0,0,1-9.36-9.358" transform="translate(42.596 13.583)" fill="#db0812"/><path d="M81.156,168.822a6.04,6.04,0,0,1,2.061-1.367,6.329,6.329,0,0,1,2.371-.473,6.108,6.108,0,0,1,2.344.473,6.013,6.013,0,0,1,2.087,1.367l.866.866-1.732,1.751-.89-.861A3.667,3.667,0,0,0,87,169.739a3.762,3.762,0,0,0-2.839,0,3.681,3.681,0,0,0-1.255.839,3.511,3.511,0,0,0-.838,1.225,3.835,3.835,0,0,0,0,2.843,3.776,3.776,0,0,0,.838,1.254,3.665,3.665,0,0,0,2.676,1.113,3.88,3.88,0,0,0,1.449-.278,3.464,3.464,0,0,0,1.226-.835l.89-.866,1.732,1.761-.866.864a6.345,6.345,0,0,1-2.087,1.393,6.47,6.47,0,0,1-2.344.446,6.705,6.705,0,0,1-2.371-.446,6.383,6.383,0,0,1-2.061-1.393,6.071,6.071,0,0,1-1.364-2.063,6.457,6.457,0,0,1,0-4.715,6.033,6.033,0,0,1,1.364-2.059" transform="translate(19.145 40.296)" fill="#fff" fill-rule="evenodd"/><path d="M99.971,175.077l1.756,1.759-.864.865a6.306,6.306,0,0,1-2.036,1.364,6.338,6.338,0,0,1-4.793,0A6.34,6.34,0,0,1,92,177.7a6.005,6.005,0,0,1-1.364-2.063,6.572,6.572,0,0,1-.447-2.37,6.333,6.333,0,0,1,.447-2.339,6.2,6.2,0,0,1,3.426-3.431,6.3,6.3,0,0,1,2.368-.468,6.068,6.068,0,0,1,2.342.468,5.963,5.963,0,0,1,2.09,1.367l.864.864-6.94,6.94a3.716,3.716,0,0,0,2.229.36,3.757,3.757,0,0,0,2.09-1.085Zm-6.214-4.485a3.65,3.65,0,0,0-1.117,2.676,3.593,3.593,0,0,0,.393,1.642c.222-.22.554-.556,1-1,.464-.472.947-.951,1.446-1.45q.784-.782,1.478-1.48c.485-.464.857-.825,1.117-1.087a3.762,3.762,0,0,0-2.257-.364,3.577,3.577,0,0,0-2.063,1.06" transform="translate(21.762 40.308)" fill="#fff" fill-rule="evenodd"/><path d="M101.286,173.244a6.122,6.122,0,0,1,.475-2.419,6.384,6.384,0,0,1,1.337-1.981,6.177,6.177,0,0,1,2.011-1.337,5.905,5.905,0,0,1,2.421-.5,5.792,5.792,0,0,1,2.423.5,6.047,6.047,0,0,1,2,1.337,5.766,5.766,0,0,1,1.343,1.981,5.846,5.846,0,0,1,.5,2.419v6.27H111.32v-6.27a3.454,3.454,0,0,0-.3-1.445,3.824,3.824,0,0,0-2.01-2.01,3.779,3.779,0,0,0-2.953,0,3.8,3.8,0,0,0-1.2.811,3.877,3.877,0,0,0-.808,1.2,3.664,3.664,0,0,0-.277,1.445v6.27h-2.484Z" transform="translate(24.44 40.301)" fill="#fff" fill-rule="evenodd"/><path d="M115.007,168.822a6.049,6.049,0,0,1,2.063-1.367,6.272,6.272,0,0,1,2.367-.473,6.127,6.127,0,0,1,2.344.473,6.033,6.033,0,0,1,2.089,1.367l.86.866-1.724,1.751-.891-.861a3.673,3.673,0,0,0-1.256-.839,3.772,3.772,0,0,0-2.843,0,3.624,3.624,0,0,0-1.252.839,3.407,3.407,0,0,0-.835,1.225,3.725,3.725,0,0,0,0,2.843,3.813,3.813,0,0,0,3.509,2.367,3.893,3.893,0,0,0,1.451-.278,3.486,3.486,0,0,0,1.226-.835l.891-.866,1.724,1.761-.86.864a6.367,6.367,0,0,1-2.089,1.393,6.49,6.49,0,0,1-2.344.446,6.645,6.645,0,0,1-2.367-.446,6.392,6.392,0,0,1-2.063-1.393,6.046,6.046,0,0,1-1.368-2.063,6.525,6.525,0,0,1,0-4.715,6.008,6.008,0,0,1,1.368-2.059" transform="translate(27.314 40.296)" fill="#fff" fill-rule="evenodd"/><path d="M124.016,173.269a6.129,6.129,0,0,1,.473-2.422,6.423,6.423,0,0,1,1.338-1.981,6.206,6.206,0,0,1,2.008-1.339,6.011,6.011,0,0,1,2.422-.5,5.95,5.95,0,0,1,2.428.5,6.212,6.212,0,0,1,2,1.339,5.659,5.659,0,0,1,1.337,1.981,5.735,5.735,0,0,1,.5,2.422,5.909,5.909,0,0,1-.5,2.424,6.014,6.014,0,0,1-1.337,2.007,6.624,6.624,0,0,1-2,1.365,6.168,6.168,0,0,1-2.428.473,6.23,6.23,0,0,1-2.422-.473,6.615,6.615,0,0,1-2.008-1.365,6.875,6.875,0,0,1-1.338-2.007,6.32,6.32,0,0,1-.473-2.424m2.454,0a3.885,3.885,0,0,0,.279,1.477,3.631,3.631,0,0,0,2.031,2.032,3.79,3.79,0,0,0,4.152-.806,3.924,3.924,0,0,0,1.113-2.7,3.481,3.481,0,0,0-.3-1.449,3.3,3.3,0,0,0-.811-1.2,3.372,3.372,0,0,0-1.2-.812,3.85,3.85,0,0,0-4.178.812,3.785,3.785,0,0,0-.807,1.2,3.675,3.675,0,0,0-.279,1.449" transform="translate(29.925 40.307)" fill="#fff" fill-rule="evenodd"/><path d="M146.775,166.982v2.479h-7.552a1.242,1.242,0,0,0-1.254,1.257,1.3,1.3,0,0,0,.364.919,1.218,1.218,0,0,0,.89.359h5.017a3.418,3.418,0,0,1,1.449.31,3.481,3.481,0,0,1,1.2.782,3.279,3.279,0,0,1,.808,1.2,3.361,3.361,0,0,1,.308,1.449,3.515,3.515,0,0,1-.308,1.476,3.564,3.564,0,0,1-.808,1.2,3.82,3.82,0,0,1-1.2.809,3.684,3.684,0,0,1-1.449.281h-7.522v-2.484h7.522a1.232,1.232,0,0,0,.917-.359,1.253,1.253,0,0,0,.365-.922,1.218,1.218,0,0,0-.365-.895,1.251,1.251,0,0,0-.917-.359h-5.017a3.9,3.9,0,0,1-1.475-.277,4.032,4.032,0,0,1-1.172-.811,4.281,4.281,0,0,1-.807-1.2,3.924,3.924,0,0,1-.279-1.475,3.7,3.7,0,0,1,.279-1.447,3.9,3.9,0,0,1,.807-1.2,3.843,3.843,0,0,1,2.646-1.085Z" transform="translate(32.694 40.296)" fill="#fff" fill-rule="evenodd"/><path d="M159.861,166.982v6.244a5.967,5.967,0,0,1-.5,2.424,6.172,6.172,0,0,1-1.339,2.01,6.49,6.49,0,0,1-2.006,1.362,6.11,6.11,0,0,1-2.423.475,6.269,6.269,0,0,1-2.426-.475,6.568,6.568,0,0,1-2-1.362,6.944,6.944,0,0,1-1.338-2.01,6.27,6.27,0,0,1-.474-2.424v-6.244h2.48v6.244a3.832,3.832,0,0,0,.281,1.476,4.232,4.232,0,0,0,.807,1.226,4.391,4.391,0,0,0,1.2.806,4.052,4.052,0,0,0,2.957,0,3.846,3.846,0,0,0,1.2-.806,3.578,3.578,0,0,0,.808-1.226,3.656,3.656,0,0,0,.308-1.476v-6.244Z" transform="translate(35.556 40.296)" fill="#fff" fill-rule="evenodd"/><path d="M171.3,162.943V174.2a5.968,5.968,0,0,1-.505,2.429A6.263,6.263,0,0,1,162.625,180a6.418,6.418,0,0,1-3.368-3.371,6.182,6.182,0,0,1-.478-2.429,6.021,6.021,0,0,1,.478-2.419,6.353,6.353,0,0,1,3.368-3.317,5.986,5.986,0,0,1,2.427-.5h3.762v-5.016Zm-6.244,15.045a3.748,3.748,0,0,0,1.447-.277,3.872,3.872,0,0,0,1.2-.811,3.541,3.541,0,0,0,.811-1.223,3.7,3.7,0,0,0,.308-1.482v-3.757h-3.762a3.993,3.993,0,0,0-2.71,1.115,4.027,4.027,0,0,0-.806,1.2,3.794,3.794,0,0,0-.278,1.442,4.054,4.054,0,0,0,.278,1.482,3.641,3.641,0,0,0,2.038,2.033,3.955,3.955,0,0,0,1.477.277" transform="translate(38.314 39.321)" fill="#fff" fill-rule="evenodd"/><path d="M204.36,104.754,182.63,161.743l-12.5-.036,8.2-18.583L163.568,104.79h12.463l8.051,24.726.443-.007,7.45-24.752Z" transform="translate(39.47 25.279)" fill="#ffed00"/><path d="M169.512,133.846c0,9.111-9.988,12.516-19.382,12.522s-19.147-3.6-19.154-12.582h12.35c0,2.808,3.885,3.868,6.819,3.863,2.877,0,6.614-.766,6.614-3.478,0-3.414-4.645-3.911-11.939-5.8-7.572-1.987-12.964-5.3-12.974-12.432,0-9.063,8.829-12.166,18.27-12.18,9.337,0,17.869,3.092,17.877,12.149l-12.2.038c0-2.516-3.1-3.5-5.679-3.487-2.6.006-5.657.628-5.657,3.119.012,3.424,5.212,3.853,11.087,5.292,7.512,1.825,13.956,4.881,13.966,12.979" transform="translate(31.605 25.038)" fill="#ffed00"/><path d="M133.7,144.843l-11.575.077.027-4.572-.447.009c-1.929,3.884-5.79,6.018-11.78,6.034-10.153.019-18.951-8.314-18.959-21.44-.011-13.295,8.013-21.218,18.22-21.225,5.655-.012,10.334,2.326,12.419,5.812l.448-.014-.021-4.489h11.624Zm-11.737-19.916c-.009-5.339-2.961-10.325-9.85-10.317s-9.121,5.566-9.121,10.359c.01,5.043,2.7,10.507,9.667,10.511,7.14-.025,9.3-5.755,9.3-10.554" transform="translate(21.95 25.031)" fill="#ffed00"/><path d="M93.76,124.661c0,1.579-.215,4.07-.215,4.07l-28.734.014a8.259,8.259,0,0,0,8.667,7.956c3.558.012,5.855-1.32,6.976-3.782l12.47.02c-1.136,5.919-6.261,13.406-19.23,13.417-12.458.025-21.132-9.8-21.143-21.673,0-12.012,7.864-20.935,20.271-20.951,12.486,0,20.934,9,20.939,20.93M81.382,120.68c-.161-2.32-1.662-7.3-8.37-7.3a8.086,8.086,0,0,0-8.218,7.3Z" transform="translate(12.679 25.032)" fill="#ffed00"/><path d="M173.6,152.376c-31.7-4.271-63.547-4.522-112.913-1l.539-2.272c49.334-4.353,88.22-6.64,109.54-5.986,12.576.386,16.4,1.3,16.4,5.76,0,4.758-5.591,4.572-13.568,3.494" transform="translate(14.643 34.511)" fill="#ffed00"/><path d="M149.239,20.935c0,1.579-.215,4.07-.215,4.07l-28.734.014a8.259,8.259,0,0,0,8.667,7.956c3.558.012,5.854-1.32,6.976-3.782l12.469.02c-1.135,5.919-6.26,13.4-19.229,13.416-12.458.026-21.132-9.8-21.143-21.672C108.028,8.944,115.894.021,128.3,0c12.486,0,20.934,9,20.939,20.931m-12.378-3.981c-.163-2.32-1.662-7.3-8.37-7.3a8.086,8.086,0,0,0-8.219,7.3Z" transform="translate(26.067 0.001)" fill="#b5b9bc"/><path d="M42.105,127.659c0,1.579-.215,4.07-.215,4.07l-28.733.014a8.257,8.257,0,0,0,8.666,7.956c3.558.012,5.855-1.32,6.976-3.782l12.47.02c-1.136,5.919-6.261,13.406-19.231,13.417C9.581,149.378.907,139.551.9,127.68c0-12.012,7.864-20.935,20.271-20.951,12.485,0,20.934,9,20.937,20.93m-12.378-3.981c-.161-2.32-1.662-7.3-8.37-7.3a8.087,8.087,0,0,0-8.218,7.3Z" transform="translate(0.214 25.756)" fill="#b5b9bc"/><path d="M255.632,127.659c0,1.579-.215,4.07-.215,4.07l-28.735.014a8.259,8.259,0,0,0,8.666,7.956c3.558.012,5.857-1.32,6.977-3.782l12.469.02c-1.135,5.919-6.26,13.406-19.229,13.417-12.457.025-21.132-9.8-21.143-21.673,0-12.012,7.865-20.935,20.271-20.951,12.485,0,20.934,9,20.94,20.93m-12.378-3.981c-.164-2.32-1.662-7.3-8.371-7.3a8.088,8.088,0,0,0-8.219,7.3Z" transform="translate(51.741 25.756)" fill="#b5b9bc"/><path d="M149.239,234.667c0,1.579-.215,4.07-.215,4.07l-28.734.014a8.259,8.259,0,0,0,8.667,7.956c3.558.012,5.854-1.32,6.976-3.782l12.469.02c-1.135,5.92-6.26,13.406-19.229,13.417-12.458.025-21.132-9.8-21.143-21.673,0-12.012,7.864-20.935,20.271-20.951,12.486,0,20.934,9,20.939,20.93m-12.378-3.981c-.163-2.319-1.662-7.3-8.37-7.3a8.087,8.087,0,0,0-8.219,7.3Z" transform="translate(26.067 51.579)" fill="#b5b9bc"/><path d="M214.321,212.237V214.1H212.46" transform="translate(51.268 51.217)" fill="none" stroke="#92e1ff" stroke-miterlimit="10" stroke-width="0.5"/><line x1="213.395" transform="translate(46.621 265.315)" fill="none" stroke="#92e1ff" stroke-miterlimit="10" stroke-width="0.5" stroke-dasharray="2.99 2.99"/><path d="M36.426,214.1H34.565v-1.862" transform="translate(8.339 51.217)" fill="none" stroke="#92e1ff" stroke-miterlimit="10" stroke-width="0.5"/><line y1="213.396" transform="translate(42.903 46.346)" fill="none" stroke="#92e1ff" stroke-miterlimit="10" stroke-width="0.5" stroke-dasharray="2.99 2.99"/><path d="M34.565,36.2V34.342h1.862" transform="translate(8.339 8.287)" fill="none" stroke="#92e1ff" stroke-miterlimit="10" stroke-width="0.5"/><line x2="213.395" transform="translate(48.476 42.629)" fill="none" stroke="#92e1ff" stroke-miterlimit="10" stroke-width="0.5" stroke-dasharray="2.99 2.99"/><path d="M212.46,34.342h1.862V36.2" transform="translate(51.268 8.287)" fill="none" stroke="#92e1ff" stroke-miterlimit="10" stroke-width="0.5"/><line y2="213.395" transform="translate(265.589 48.203)" fill="none" stroke="#92e1ff" stroke-miterlimit="10" stroke-width="0.5" stroke-dasharray="2.99 2.99"/><path d="M248.413,246.551v1.862h-1.862" transform="translate(59.495 59.497)" fill="none" stroke="#92e1ff" stroke-miterlimit="10" stroke-width="0.5"/><line x1="298.249" transform="translate(4.046 307.91)" fill="none" stroke="#92e1ff" stroke-miterlimit="10" stroke-width="0.5" stroke-dasharray="3.022 3.022"/><path d="M2.112,248.413H.25v-1.862" transform="translate(0.058 59.497)" fill="none" stroke="#92e1ff" stroke-miterlimit="10" stroke-width="0.5"/><line y1="298.249" transform="translate(0.308 4.047)" fill="none" stroke="#92e1ff" stroke-miterlimit="10" stroke-width="0.5" stroke-dasharray="3.022 3.022"/><path d="M.25,2.112V.25H2.112" transform="translate(0.058 0.06)" fill="none" stroke="#92e1ff" stroke-miterlimit="10" stroke-width="0.5"/><line x2="298.249" transform="translate(5.922 0.31)" fill="none" stroke="#92e1ff" stroke-miterlimit="10" stroke-width="0.5" stroke-dasharray="3.022 3.022"/><path d="M246.551.25h1.862V2.112" transform="translate(59.495 0.06)" fill="none" stroke="#92e1ff" stroke-miterlimit="10" stroke-width="0.5"/><line y2="298.25" transform="translate(307.908 5.923)" fill="none" stroke="#92e1ff" stroke-miterlimit="10" stroke-width="0.5" stroke-dasharray="3.022 3.022"/></g><rect width="373" height="373" transform="translate(-13491.894 -6555.123)" fill="none"/></g></svg>