<svg xmlns="http://www.w3.org/2000/svg" width="530" height="373" viewBox="0 0 530 373">
  <g id="easy-cl-logo--grid" transform="translate(16019 5440)">
    <line id="Línea_223" data-name="Línea 223" x2="0.001" y2="1.061" transform="translate(-15852.708 -5099.844)" fill="none" stroke="#00a8e7" stroke-width="0.531"/>
    <g id="Grupo_590" data-name="Grupo 590" transform="translate(-0.011 -1.265)">
      <path id="Trazado_5831" data-name="Trazado 5831" d="M0,0H307.617V307.616H0Z" transform="translate(-15907.988 -5406.325) rotate(-0.076)" fill="#e00111"/>
      <path id="Trazado_5806" data-name="Trazado 5806" d="M205.671,132.293q-.356.453-.922,1.052t-1.168,1.238q-.6.64-1.31,1.315a23.491,23.491,0,0,1-3.114,2.63,15.1,15.1,0,0,1-1.7,1.127,8.171,8.171,0,0,1-.849.525c-.283.15-.568.3-.85.451a4.466,4.466,0,0,1-.85.375,1.027,1.027,0,0,1-.424.188,1.089,1.089,0,0,0-.426.189c-.141.05-.4.124-.777.224a1.672,1.672,0,0,1-.78.226,2.467,2.467,0,0,1-.672.189c-.212.024-.437.061-.674.111a2.179,2.179,0,0,1-.565.077H189.7a1.177,1.177,0,0,0,.391-.077,1.365,1.365,0,0,1,.458-.074,1.583,1.583,0,0,0,.6-.151,6.3,6.3,0,0,0,1.275-.375,3.522,3.522,0,0,1,.389-.112,3.047,3.047,0,0,0,.389-.113.633.633,0,0,1,.355-.188.622.622,0,0,0,.354-.189,9.552,9.552,0,0,0,1.628-.75c.283-.151.568-.313.85-.488s.567-.363.849-.565A10.447,10.447,0,0,0,198.873,138c.285-.2.555-.4.815-.6s.507-.4.743-.6a8.015,8.015,0,0,1,.815-.639,4.4,4.4,0,0,0,.743-.638q.708-.6,1.346-1.2c.425-.4.824-.8,1.2-1.2a12.213,12.213,0,0,0,.956-.977q.388-.451.744-.827l.637-.676a.815.815,0,0,0-.141.225,1.9,1.9,0,0,1-.178.3,2.628,2.628,0,0,1-.247.3c-.19.252-.4.526-.637.827M183.9,128.5a9.215,9.215,0,0,0-.391,1.238,19.814,19.814,0,0,0-.529,2.555c-.119.852-.2,1.629-.248,2.329a10.946,10.946,0,0,0,.07,1.577v.451a.226.226,0,0,0,.07.151.226.226,0,0,1-.07-.151.676.676,0,0,0-.035-.186.852.852,0,0,1-.036-.264,8.453,8.453,0,0,1-.142-1.577v-1.127a6.8,6.8,0,0,1,.142-1.2c.049-.25.083-.475.106-.676a5.909,5.909,0,0,1,.106-.6q.073-.375.142-.676a5.956,5.956,0,0,1,.212-.676q.354-1.277.779-2.479.281-.6.5-1.126c.14-.349.282-.677.424-.977l.39-.827a5.546,5.546,0,0,1,.318-.6,2.179,2.179,0,0,0,.107-.263.465.465,0,0,1,.107-.188.224.224,0,0,0,.07-.151,3.016,3.016,0,0,1-.212.6q-.144.3-.318.676a6.471,6.471,0,0,0-.319.826c-.1.3-.212.627-.354.978s-.283.725-.426,1.126-.294.814-.459,1.24m1.309-8.677a6.87,6.87,0,0,0,.5-.75,6.934,6.934,0,0,1,.5-.751c.282-.5.555-.94.814-1.315s.508-.714.745-1.014a2.564,2.564,0,0,0,.247-.3,1.926,1.926,0,0,0,.177-.3.857.857,0,0,1,.142-.225.857.857,0,0,0-.142.225c-.047.1-.095.213-.141.337a1.007,1.007,0,0,1-.212.338q-.285.527-.637,1.051a6.439,6.439,0,0,1-.354.639c-.143.225-.285.465-.426.714a4.545,4.545,0,0,0-.459.714c-.212.375-.426.739-.637,1.089s-.39.653-.531.9-.191.3-.142.15Zm20.959-1.051.211-.9c.046-.15.095-.3.142-.449a1.328,1.328,0,0,0,.07-.376,1.413,1.413,0,0,0,.071-.413.783.783,0,0,1,.071-.338,1.367,1.367,0,0,1,.071-.527v.527a3.461,3.461,0,0,1-.071.751,2.294,2.294,0,0,1-.036.413,4.046,4.046,0,0,1-.107.413,2.862,2.862,0,0,0-.106.489,3.12,3.12,0,0,1-.107.487c-.095.3-.307.075-.211-.074m.707.337a11.992,11.992,0,0,0,.637-3.642,10.864,10.864,0,0,0-.637-3.569,12.673,12.673,0,0,0-1.734-3.342,10.269,10.269,0,0,0-2.549-2.479,5.343,5.343,0,0,0-3.009-.977,7.48,7.48,0,0,0-3.964,1.427,25.578,25.578,0,0,0-4.461,3.794,47.822,47.822,0,0,0-4.425,5.408,50.246,50.246,0,0,0-3.823,6.31,42.434,42.434,0,0,0-2.69,6.535,20.288,20.288,0,0,0-1.027,6.048,9.111,9.111,0,0,0,.991,3.718,19.349,19.349,0,0,0,2.55,4.056,16.568,16.568,0,0,0,3.54,3.268,7,7,0,0,0,3.964,1.353,15.19,15.19,0,0,0,6.16-1.372,35.628,35.628,0,0,0,6.09-3.456,46.861,46.861,0,0,0,5.557-4.562,14.025,14.025,0,0,0,2.269-2.364c2.514-2.781-3.109-6.477-3.683-5.371a24.239,24.239,0,0,1-1.949,2.287,46.37,46.37,0,0,1-4.956,4.621,30.474,30.474,0,0,1-5.382,3.492,11.911,11.911,0,0,1-5.381,1.39q-2.267,0-2.938-1.311a6.907,6.907,0,0,1-.673-3.186,19.425,19.425,0,0,1,.849-5.394,39.346,39.346,0,0,1,2.231-5.845,45.831,45.831,0,0,1,3.151-5.62,40.585,40.585,0,0,1,3.645-4.8,20.727,20.727,0,0,1,3.753-3.372,6.194,6.194,0,0,1,3.364-1.275c.659,0,1.013.189,1.061.564a7.765,7.765,0,0,1,.072.864,7.4,7.4,0,0,1-.745,3c-.5,1.1,1.469,3.873,4.142,3.794" transform="translate(-15894.321 -5398.836)" fill="#ffed00"/>
      <path id="Trazado_5807" data-name="Trazado 5807" d="M215.069,139.932v0a5,5,0,0,1,.071-.9,5.6,5.6,0,0,1,.037-.639c.023-.226.057-.464.1-.714a4.248,4.248,0,0,0,.213-.789c.046-.275.117-.59.212-.94.094-.3.177-.612.247-.939s.153-.688.249-1.09q.141-.524.318-1.051t.319-1.126q.352-1.2.778-2.366t.849-2.441c.285-.8.578-1.59.886-2.367s.6-1.539.885-2.29.566-1.465.849-2.141.542-1.315.779-1.916q.849-1.951,1.274-2.854a1.193,1.193,0,0,0,.176-.412,1.459,1.459,0,0,1,.108-.34l.141-.3a7,7,0,0,1-.425,1.126c-.141.351-.308.764-.5,1.24s-.4,1.014-.636,1.616-.486,1.24-.745,1.915-.53,1.389-.814,2.141q-.849,2.252-1.7,4.733-.427,1.2-.85,2.4t-.779,2.327c-.14.4-.272.778-.389,1.126s-.225.7-.318,1.053q-.144.6-.283,1.089c-.095.327-.19.638-.282.939a13.041,13.041,0,0,0-.427,1.728,2.961,2.961,0,0,0-.176.676,5.883,5.883,0,0,1-.107.6,5,5,0,0,0-.071.9m-.641-13.559q.39-1.313.956-2.967c.188-.55.378-1.115.566-1.69s.4-1.189.637-1.84.461-1.289.673-1.915.437-1.289.674-1.991q.779-1.951,1.558-4.057t1.629-4.28q.85-2.179,1.735-4.245t1.733-4.019q.85-1.951,1.664-3.719t1.522-3.342l1.311-2.779q.6-1.276,1.026-2.178.495-1.051.849-1.878-.354.9-.777,1.953-.357.9-.886,2.177t-1.24,2.856q-.637,1.576-1.416,3.378T225.014,99.6q-.85,1.953-1.7,4.018t-1.7,4.245q-.849,2.1-1.663,4.206t-1.593,4.133q-.356,1.051-.707,1.99t-.71,1.84c-.235.6-.448,1.191-.636,1.766s-.4,1.139-.637,1.69q-.569,1.652-1.027,2.931c-.308.852-.578,1.6-.814,2.252q-.352,1.129-.708,2.029a1.282,1.282,0,0,1,.141-.526,4.461,4.461,0,0,1,.212-.638,6.419,6.419,0,0,0,.282-.864c.191-.649.414-1.414.674-2.29m14.342-33.2q-.319.787-.672,1.614c-.238.6-.485,1.2-.744,1.8s-.532,1.2-.815,1.8q-.781,1.955-1.486,3.605-.356.828-.673,1.653a14.545,14.545,0,0,1-.673,1.5q-.285.752-.531,1.315t-.389.938q-.213.451-.355.827a.593.593,0,0,1,.072-.226l.282-.6.318-1.013q.178-.564.46-1.314c.188-.452.39-.952.6-1.5s.435-1.1.673-1.652a38.994,38.994,0,0,1,1.486-3.607q.354-.973.778-1.877c.283-.6.543-1.177.779-1.729s.471-1.089.708-1.616.471-1.038.708-1.538q.281-.676.567-1.24c.186-.376.329-.688.424-.939.142-.3.26-.576.354-.827a6.924,6.924,0,0,1-.354.9q-.142.377-.354.94t-.5,1.238q-.356.752-.673,1.541m2.337,34.027q-1.028,2.139-2.23,4.394t-2.549,4.393a29.9,29.9,0,0,1-2.833,3.832,14.542,14.542,0,0,1-3.079,2.7,5.946,5.946,0,0,1-3.222,1.013q-1.63,0-1.629-1.5a23.954,23.954,0,0,1,.885-5.714q.884-3.46,2.3-7.635t3.257-8.762q1.838-4.588,3.716-9.062t3.716-8.611q1.842-4.137,3.257-7.408t2.3-5.379a10.356,10.356,0,0,0,.886-2.631,3.609,3.609,0,0,0-.673-1.994,11.193,11.193,0,0,0-3.045-3.083,2.682,2.682,0,0,0-.955-.488q-.71,0-.709.9a20.708,20.708,0,0,1-.884,2.216q-.888,2.068-2.337,5.409t-3.293,7.661q-1.842,4.32-3.788,9.052t-3.782,9.539q-1.835,4.81-3.268,9.164t-2.307,7.926a25.473,25.473,0,0,0-.873,5.746,7.777,7.777,0,0,0,1.048,3.982,13.506,13.506,0,0,0,2.516,3.155,11.573,11.573,0,0,0,3.166,2.1,7.5,7.5,0,0,0,2.971.751,9.213,9.213,0,0,0,6.089-2.259,24.859,24.859,0,0,0,4.814-5.52,49.381,49.381,0,0,0,3.718-6.83q1.591-3.567,2.8-6.122a1.685,1.685,0,0,0-.247-1.541,9.43,9.43,0,0,0-1.346-1.8,7.2,7.2,0,0,0-1.593-1.315c-.52-.3-.848-.324-.991-.075q-.781,1.654-1.805,3.794" transform="translate(-15891.924 -5400.692)" fill="#ffed00"/>
      <path id="Trazado_5808" data-name="Trazado 5808" d="M165.791,141.646a.9.9,0,0,0,.252.692,12.158,12.158,0,0,1,1.448,1.3,3.19,3.19,0,0,0,1.662.92,4.088,4.088,0,0,0,2.351.075,5.6,5.6,0,0,0,2.205-1.149,11.523,11.523,0,0,0,3.107-6.521,3.373,3.373,0,0,0-.613-1.611,2.366,2.366,0,0,0-1.193-1.15,6.416,6.416,0,0,0-2.35-.307,20.091,20.091,0,0,0-2.351.307.952.952,0,0,1-.324.23.75.75,0,0,0-.327.307,34.742,34.742,0,0,1-2.892,3.3,3.938,3.938,0,0,0-1.011,2.685c0,.258.011.564.036.921" transform="translate(-15895.367 -5396.595)" fill="#ffed00"/>
      <path id="Trazado_5809" data-name="Trazado 5809" d="M49.228,128.491q.157,6.668,3.419,9.763t9.629,3.1a28.651,28.651,0,0,0,10.612-1.984,12,12,0,0,1,1.021,2.9,19.032,19.032,0,0,1,.472,3.373,26.032,26.032,0,0,1-5.7,1.666,39.24,39.24,0,0,1-6.877.556,25.72,25.72,0,0,1-9.432-1.549,16.969,16.969,0,0,1-6.484-4.364,17.346,17.346,0,0,1-3.734-6.668,28.759,28.759,0,0,1-1.179-8.453,30.214,30.214,0,0,1,1.14-8.453,19.057,19.057,0,0,1,3.5-6.825,16.934,16.934,0,0,1,5.934-4.6A19.448,19.448,0,0,1,60,105.236a17.509,17.509,0,0,1,7.309,1.429,14.86,14.86,0,0,1,5.266,3.929,17.109,17.109,0,0,1,3.223,5.952,24.6,24.6,0,0,1,1.1,7.5q0,1.112-.078,2.341t-.157,2.1Zm19.964-5.872a15.141,15.141,0,0,0-.59-4.247,10.823,10.823,0,0,0-1.728-3.532,8.487,8.487,0,0,0-2.91-2.421,9.077,9.077,0,0,0-4.2-.913q-4.794,0-7.348,2.937a14.452,14.452,0,0,0-3.105,8.176Z" transform="translate(-15905.084 -5398.826)" fill="#fff"/>
      <path id="Trazado_5810" data-name="Trazado 5810" d="M100.086,120.078q0-4.682-2.358-6.508t-6.837-1.826a28.854,28.854,0,0,0-5.15.437,39,39,0,0,0-4.675,1.151,12.442,12.442,0,0,1-1.494-6.271,35.852,35.852,0,0,1,5.895-1.348,42.4,42.4,0,0,1,6.209-.476q7.861,0,11.947,3.612t4.088,11.547v25.479q-2.753.637-6.682,1.31a47.451,47.451,0,0,1-8.016.675,31.092,31.092,0,0,1-6.958-.715,14.151,14.151,0,0,1-5.265-2.3,10.652,10.652,0,0,1-3.341-4.048,13.7,13.7,0,0,1-1.179-5.952,12.174,12.174,0,0,1,5.11-10.279,16.584,16.584,0,0,1,5.423-2.541,24.485,24.485,0,0,1,6.446-.833q2.514,0,4.126.119t2.712.278Zm0,7.7q-1.179-.16-2.987-.318t-3.065-.158q-4.875,0-7.428,1.825a6.378,6.378,0,0,0-2.555,5.556,6.866,6.866,0,0,0,.866,3.731,5.957,5.957,0,0,0,2.161,2.063,7.388,7.388,0,0,0,2.868.874,29.818,29.818,0,0,0,2.987.157,36.349,36.349,0,0,0,3.734-.2,22.138,22.138,0,0,0,3.419-.595Z" transform="translate(-15902.335 -5398.826)" fill="#fff"/>
      <path id="Trazado_5811" data-name="Trazado 5811" d="M110.6,139.523a26.67,26.67,0,0,0,9.746,1.906,14.664,14.664,0,0,0,3.458-.4,9.109,9.109,0,0,0,2.869-1.19,6.6,6.6,0,0,0,1.965-1.944,4.645,4.645,0,0,0,.748-2.579,5.248,5.248,0,0,0-.59-2.619,5.543,5.543,0,0,0-1.573-1.746,10.472,10.472,0,0,0-2.279-1.231q-1.3-.514-2.792-.992L119.4,127.7a19.827,19.827,0,0,1-7.31-4.285,8.911,8.911,0,0,1-2.279-6.429,10.571,10.571,0,0,1,3.812-8.572q3.809-3.174,11.2-3.175a30.309,30.309,0,0,1,6.013.6,36.847,36.847,0,0,1,5.149,1.388,19.649,19.649,0,0,1-.59,3.176,18.522,18.522,0,0,1-1.062,2.935,40.8,40.8,0,0,0-4.127-1.229,21.268,21.268,0,0,0-5.147-.6,12.2,12.2,0,0,0-5.149,1.032,3.692,3.692,0,0,0-2.241,3.652,4.521,4.521,0,0,0,.551,2.3,5.142,5.142,0,0,0,1.494,1.627,9.8,9.8,0,0,0,2.161,1.151q1.217.475,2.633.952l3.458,1.192a25.631,25.631,0,0,1,3.577,1.507,10.563,10.563,0,0,1,2.908,2.184,10.157,10.157,0,0,1,1.965,3.174,13.238,13.238,0,0,1-.432,9.842,11.78,11.78,0,0,1-3.341,4.127,15.99,15.99,0,0,1-5.227,2.659,22.743,22.743,0,0,1-6.759.952,37.327,37.327,0,0,1-6.6-.515,33.312,33.312,0,0,1-5.266-1.389,15.9,15.9,0,0,1,.668-3.215q.511-1.625,1.14-3.214" transform="translate(-15899.803 -5398.826)" fill="#fff"/>
      <path id="Trazado_5812" data-name="Trazado 5812" d="M154.721,146.932q-.631,0-1.3.04t-1.3.04c-.526,0-1.075-.013-1.651-.04s-1.049-.067-1.415-.119L135.7,106.136a18.379,18.379,0,0,1,2.121-.2q1.1-.04,2.045-.04,1.02,0,2.279.04a14.867,14.867,0,0,1,2.123.2L155.428,144l11.555-37.859a27.355,27.355,0,0,1,3.85-.237q.865,0,1.966.04a21.08,21.08,0,0,1,2.2.2l-15.641,48.972a37.6,37.6,0,0,1-2.279,5.477,12.958,12.958,0,0,1-2.673,3.571,8.683,8.683,0,0,1-3.34,1.9,14.94,14.94,0,0,1-4.283.556,23,23,0,0,1-3.577-.278,24.284,24.284,0,0,1-3.1-.675,14.166,14.166,0,0,1,1.257-6.112q.707.238,1.926.516a11.876,11.876,0,0,0,2.633.277,9.019,9.019,0,0,0,1.925-.2,4.309,4.309,0,0,0,1.69-.794,5.98,5.98,0,0,0,1.454-1.706,15.385,15.385,0,0,0,1.3-3.016Z" transform="translate(-15897.707 -5398.774)" fill="#fff"/>
      <rect id="Rectángulo_1092" data-name="Rectángulo 1092" width="21.894" height="87.978" transform="translate(-15622.15 -5319.467) rotate(-0.076)" fill="#fff"/>
      <rect id="Rectángulo_1093" data-name="Rectángulo 1093" width="209.129" height="22.471" transform="matrix(1, -0.001, 0.001, 1, -15863.995, -5121.24)" fill="#fff"/>
      <line id="Línea_222" data-name="Línea 222" x2="0.001" y2="1.06" transform="translate(-15853.114 -5406.398)" fill="none" stroke="#00a8e7" stroke-width="0.531"/>
      <line id="Línea_224" data-name="Línea 224" x2="0.001" y2="1.06" transform="translate(-15655.142 -5406.662)" fill="none" stroke="#00a8e7" stroke-width="0.531"/>
    </g>
    <line id="Línea_226" data-name="Línea 226" x2="0.002" y2="1.061" transform="translate(-15654.735 -5100.107)" fill="none" stroke="#00a8e7" stroke-width="0.531"/>
    <g id="Grupo_589" data-name="Grupo 589" transform="translate(-0.012 -1.266)">
      <g id="Grupo_588" data-name="Grupo 588">
        <line id="Línea_197" data-name="Línea 197" y1="0.409" x2="307.616" transform="translate(-15907.96 -5385.418)" fill="none" stroke="#92e1ff" stroke-width="0.531"/>
        <line id="Línea_198" data-name="Línea 198" y1="0.409" x2="307.616" transform="translate(-15907.931 -5363.432)" fill="none" stroke="#92e1ff" stroke-width="0.531"/>
        <line id="Línea_199" data-name="Línea 199" y1="0.41" x2="307.616" transform="translate(-15907.901 -5341.447)" fill="none" stroke="#92e1ff" stroke-width="0.531"/>
        <line id="Línea_200" data-name="Línea 200" y1="0.409" x2="307.616" transform="translate(-15907.871 -5319.461)" fill="none" stroke="#92e1ff" stroke-width="0.531"/>
        <line id="Línea_201" data-name="Línea 201" y1="0.409" x2="307.616" transform="translate(-15907.843 -5297.476)" fill="none" stroke="#92e1ff" stroke-width="0.531"/>
        <line id="Línea_202" data-name="Línea 202" y1="0.409" x2="307.616" transform="translate(-15907.813 -5275.49)" fill="none" stroke="#92e1ff" stroke-width="0.531"/>
        <line id="Línea_203" data-name="Línea 203" y1="0.409" x2="307.616" transform="translate(-15907.784 -5253.504)" fill="none" stroke="#92e1ff" stroke-width="0.531"/>
        <line id="Línea_204" data-name="Línea 204" y1="0.409" x2="307.616" transform="translate(-15907.755 -5231.518)" fill="none" stroke="#92e1ff" stroke-width="0.531"/>
        <line id="Línea_205" data-name="Línea 205" y1="0.409" x2="307.616" transform="translate(-15907.727 -5209.532)" fill="none" stroke="#92e1ff" stroke-width="0.531"/>
        <line id="Línea_206" data-name="Línea 206" y1="0.41" x2="307.616" transform="translate(-15907.696 -5187.547)" fill="none" stroke="#92e1ff" stroke-width="0.531"/>
        <line id="Línea_207" data-name="Línea 207" y1="0.409" x2="307.616" transform="translate(-15907.667 -5165.562)" fill="none" stroke="#92e1ff" stroke-width="0.531"/>
        <line id="Línea_208" data-name="Línea 208" y1="0.409" x2="307.615" transform="translate(-15907.638 -5143.576)" fill="none" stroke="#92e1ff" stroke-width="0.531"/>
        <line id="Línea_209" data-name="Línea 209" y1="0.409" x2="307.616" transform="translate(-15907.609 -5121.59)" fill="none" stroke="#92e1ff" stroke-width="0.531"/>
      </g>
      <g id="Grupo_587" data-name="Grupo 587">
        <rect id="Rectángulo_1091" data-name="Rectángulo 1091" width="307.616" height="307.616" transform="translate(-15907.988 -5406.326) rotate(-0.076)" fill="none" stroke="#92e1ff" stroke-width="0.531"/>
        <line id="Línea_210" data-name="Línea 210" x2="0.409" y2="307.616" transform="translate(-15622.266 -5406.706)" fill="none" stroke="#92e1ff" stroke-width="0.531"/>
        <line id="Línea_211" data-name="Línea 211" x2="0.409" y2="307.616" transform="translate(-15644.251 -5406.676)" fill="none" stroke="#92e1ff" stroke-width="0.531"/>
        <line id="Línea_212" data-name="Línea 212" x2="0.409" y2="307.616" transform="translate(-15666.237 -5406.647)" fill="none" stroke="#92e1ff" stroke-width="0.531"/>
        <line id="Línea_213" data-name="Línea 213" x2="0.409" y2="307.616" transform="translate(-15688.223 -5406.618)" fill="none" stroke="#92e1ff" stroke-width="0.531"/>
        <line id="Línea_214" data-name="Línea 214" x2="0.409" y2="307.616" transform="translate(-15710.208 -5406.589)" fill="none" stroke="#92e1ff" stroke-width="0.531"/>
        <line id="Línea_215" data-name="Línea 215" x2="0.409" y2="307.616" transform="translate(-15732.194 -5406.56)" fill="none" stroke="#92e1ff" stroke-width="0.531"/>
        <line id="Línea_216" data-name="Línea 216" x2="0.409" y2="307.616" transform="translate(-15754.18 -5406.53)" fill="none" stroke="#92e1ff" stroke-width="0.531"/>
        <line id="Línea_217" data-name="Línea 217" x2="0.409" y2="307.616" transform="translate(-15776.166 -5406.5)" fill="none" stroke="#92e1ff" stroke-width="0.531"/>
        <line id="Línea_218" data-name="Línea 218" x2="0.41" y2="307.616" transform="translate(-15798.151 -5406.472)" fill="none" stroke="#92e1ff" stroke-width="0.531"/>
        <line id="Línea_219" data-name="Línea 219" x2="0.409" y2="307.616" transform="translate(-15820.137 -5406.443)" fill="none" stroke="#92e1ff" stroke-width="0.531"/>
        <line id="Línea_220" data-name="Línea 220" x2="0.409" y2="307.616" transform="translate(-15842.122 -5406.413)" fill="none" stroke="#92e1ff" stroke-width="0.531"/>
        <line id="Línea_221" data-name="Línea 221" x2="0.409" y2="307.615" transform="translate(-15864.108 -5406.384)" fill="none" stroke="#92e1ff" stroke-width="0.531"/>
        <line id="Línea_225" data-name="Línea 225" x2="0.401" y2="302.333" transform="translate(-15655.137 -5403.495)" fill="none" stroke="#92e1ff" stroke-width="0.531" stroke-dasharray="1.955 1.955"/>
        <line id="Línea_227" data-name="Línea 227" x2="0.409" y2="307.616" transform="translate(-15886.094 -5406.355)" fill="none" stroke="#92e1ff" stroke-width="0.531"/>
      </g>
    </g>
    <rect id="Rectángulo_1099" data-name="Rectángulo 1099" width="530" height="373" transform="translate(-16019 -5440)" fill="none"/>
    <g id="Grupo_586" data-name="Grupo 586" transform="translate(-3257.942 1275.292)">
      <text id="_9_x" data-name="9 x" transform="translate(-12339.063 -6547.174)" fill="#92e1ff" font-size="16" font-family="SegoeUI, Segoe UI"><tspan x="0" y="0">9 x</tspan></text>
      <text id="_9_x-2" data-name="9 x" transform="translate(-12507.23 -6357.106)" fill="#92e1ff" font-size="16" font-family="SegoeUI, Segoe UI"><tspan x="0" y="0">9 x</tspan></text>
    </g>
  </g>
</svg>
