<svg xmlns="http://www.w3.org/2000/svg" width="530" height="373" viewBox="0 0 530 373">
  <g id="easy-cl-logo--area" transform="translate(16604 5440)">
    <g id="Grupo_593" data-name="Grupo 593">
      <rect id="Rectángulo_1095" data-name="Rectángulo 1095" width="294.38" height="180.498" transform="translate(-16491.189 -5367.667)" fill="#e00111"/>
      <path id="Trazado_5813" data-name="Trazado 5813" d="M240.065,108.066q-.355.449-.924,1.046t-1.173,1.232q-.6.636-1.313,1.307a23.548,23.548,0,0,1-3.128,2.614,15.111,15.111,0,0,1-1.706,1.12,7.693,7.693,0,0,1-.852.522l-.853.448a4.726,4.726,0,0,1-.854.374,1.062,1.062,0,0,1-.425.186,1.068,1.068,0,0,0-.427.187c-.142.048-.4.123-.781.223a1.7,1.7,0,0,1-.783.224,2.535,2.535,0,0,1-.674.187c-.213.024-.439.061-.675.111a2.256,2.256,0,0,1-.569.074h-.888a1.21,1.21,0,0,0,.391-.074,1.377,1.377,0,0,1,.461-.074,1.623,1.623,0,0,0,.6-.15,6.464,6.464,0,0,0,1.279-.373,3.5,3.5,0,0,1,.391-.112,3.224,3.224,0,0,0,.392-.113.63.63,0,0,1,.355-.186.627.627,0,0,0,.355-.187,9.621,9.621,0,0,0,1.633-.746q.428-.223.854-.485t.853-.561a10.626,10.626,0,0,0,1.634-1.12q.426-.3.817-.6c.261-.2.509-.4.746-.6a7.925,7.925,0,0,1,.818-.635,4.422,4.422,0,0,0,.745-.635q.712-.6,1.351-1.2c.427-.4.828-.8,1.208-1.195a12.346,12.346,0,0,0,.96-.971c.259-.3.508-.571.746-.821l.639-.671a.829.829,0,0,0-.142.224,1.83,1.83,0,0,1-.178.3,2.751,2.751,0,0,1-.249.3c-.19.252-.4.523-.639.822M218.213,104.3a9.109,9.109,0,0,0-.391,1.231,19.672,19.672,0,0,0-.533,2.538q-.178,1.271-.249,2.315a10.7,10.7,0,0,0,.072,1.569v.448a.222.222,0,0,0,.071.151.222.222,0,0,1-.071-.151.657.657,0,0,0-.035-.186.846.846,0,0,1-.037-.262,8.4,8.4,0,0,1-.142-1.569v-1.119a6.79,6.79,0,0,1,.142-1.2c.048-.248.083-.472.108-.672a5.5,5.5,0,0,1,.106-.6q.073-.371.142-.673a6.506,6.506,0,0,1,.213-.671q.355-1.269.782-2.464c.188-.4.356-.771.5-1.12s.284-.672.427-.97.271-.572.39-.821a5.2,5.2,0,0,1,.32-.6,2.527,2.527,0,0,0,.107-.261.46.46,0,0,1,.106-.187.218.218,0,0,0,.071-.15,3.016,3.016,0,0,1-.213.6q-.144.3-.319.673a6.089,6.089,0,0,0-.32.821c-.1.3-.213.623-.356.97s-.283.722-.425,1.12-.3.81-.463,1.232m1.315-8.625a6.783,6.783,0,0,0,.5-.746,6.813,6.813,0,0,1,.5-.745q.426-.747.817-1.307t.746-1.008a2.64,2.64,0,0,0,.249-.3,1.924,1.924,0,0,0,.178-.3.892.892,0,0,1,.142-.223.892.892,0,0,0-.142.223c-.048.1-.1.213-.142.336a.988.988,0,0,1-.213.336c-.19.35-.4.7-.639,1.045a6.268,6.268,0,0,1-.355.635q-.215.336-.427.709a4.4,4.4,0,0,0-.462.709q-.319.56-.639,1.082c-.213.35-.39.648-.534.9s-.19.3-.142.149Zm21.036-1.045.213-.9c.047-.148.1-.3.143-.447a1.335,1.335,0,0,0,.072-.373,1.412,1.412,0,0,0,.071-.411.769.769,0,0,1,.071-.335,1.35,1.35,0,0,1,.071-.524v.524a3.334,3.334,0,0,1-.071.746,2.224,2.224,0,0,1-.036.411,3.9,3.9,0,0,1-.106.409,3.031,3.031,0,0,0-.109.487,2.874,2.874,0,0,1-.106.484c-.1.3-.308.074-.213-.074m.71.336a11.834,11.834,0,0,0,.639-3.621,10.719,10.719,0,0,0-.639-3.547,12.52,12.52,0,0,0-1.741-3.322,10.2,10.2,0,0,0-2.559-2.465,5.391,5.391,0,0,0-3.02-.971,7.569,7.569,0,0,0-3.981,1.419,25.716,25.716,0,0,0-4.476,3.771,47.537,47.537,0,0,0-4.441,5.376,49.744,49.744,0,0,0-3.838,6.272,42.119,42.119,0,0,0-2.7,6.5,19.973,19.973,0,0,0-1.031,6.01,9,9,0,0,0,.995,3.7,19.183,19.183,0,0,0,2.558,4.033,16.729,16.729,0,0,0,3.553,3.247,7.071,7.071,0,0,0,3.981,1.344,15.38,15.38,0,0,0,6.182-1.363,35.841,35.841,0,0,0,6.112-3.435,46.876,46.876,0,0,0,5.578-4.535,14.035,14.035,0,0,0,2.278-2.35c2.521-2.764-3.122-6.437-3.7-5.337a24.208,24.208,0,0,1-1.959,2.273,46.189,46.189,0,0,1-4.974,4.594,30.766,30.766,0,0,1-5.4,3.473,12.071,12.071,0,0,1-5.4,1.381q-2.274,0-2.949-1.3a6.808,6.808,0,0,1-.675-3.167,19.172,19.172,0,0,1,.853-5.362,39,39,0,0,1,2.239-5.809,45.507,45.507,0,0,1,3.162-5.586,40.208,40.208,0,0,1,3.66-4.768,20.686,20.686,0,0,1,3.766-3.352,6.249,6.249,0,0,1,3.377-1.267c.661,0,1.017.187,1.065.561a7.564,7.564,0,0,1,.072.859,7.306,7.306,0,0,1-.747,2.986c-.5,1.1,1.474,3.848,4.158,3.77" transform="translate(-16513.209 -5376.025)" fill="#ffed00"/>
      <path id="Trazado_5814" data-name="Trazado 5814" d="M255.736,110.879v0a4.855,4.855,0,0,1,.071-.9,5.931,5.931,0,0,1,.036-.635c.023-.224.058-.46.106-.709a4.033,4.033,0,0,0,.213-.784c.048-.272.118-.585.214-.934.093-.3.178-.608.248-.934s.153-.683.248-1.083q.141-.521.32-1.045t.319-1.12q.357-1.195.781-2.352t.853-2.426c.285-.8.579-1.58.889-2.352s.6-1.53.889-2.276.569-1.456.852-2.128.545-1.307.783-1.9q.853-1.941,1.279-2.838a1.2,1.2,0,0,0,.177-.41,1.449,1.449,0,0,1,.107-.336l.143-.3a6.917,6.917,0,0,1-.426,1.119q-.214.523-.5,1.232t-.639,1.606q-.357.895-.746,1.9c-.262.672-.533,1.381-.818,2.128q-.853,2.239-1.7,4.7-.428,1.195-.853,2.389t-.781,2.314q-.215.6-.392,1.12c-.118.35-.226.7-.319,1.045q-.144.6-.284,1.083c-.1.325-.191.634-.283.933a12.9,12.9,0,0,0-.428,1.717,2.881,2.881,0,0,0-.177.672,5.515,5.515,0,0,1-.108.6,4.855,4.855,0,0,0-.071.9M255.092,97.4q.39-1.306.96-2.95.282-.819.568-1.68t.639-1.83q.356-.969.676-1.9c.213-.623.437-1.281.675-1.978q.782-1.941,1.562-4.032t1.635-4.256q.853-2.165,1.742-4.219t1.741-3.995q.853-1.94,1.67-3.7t1.528-3.324l1.314-2.762,1.031-2.165q.5-1.045.853-1.866c-.239.6-.5,1.246-.782,1.941q-.357.9-.888,2.165t-1.244,2.839q-.64,1.567-1.422,3.359t-1.634,3.734q-.853,1.943-1.706,3.995T262.305,79q-.853,2.091-1.67,4.182t-1.6,4.107q-.357,1.045-.711,1.978t-.711,1.829q-.354.9-.639,1.756t-.639,1.679q-.57,1.645-1.031,2.913t-.817,2.239q-.354,1.119-.71,2.016a1.281,1.281,0,0,1,.142-.524,4.25,4.25,0,0,1,.213-.633,6.488,6.488,0,0,0,.284-.859q.285-.97.675-2.277m14.4-33c-.213.522-.439,1.058-.674,1.6q-.358.9-.746,1.792t-.818,1.793q-.783,1.943-1.491,3.584c-.239.549-.463,1.1-.675,1.643a14.547,14.547,0,0,1-.675,1.492q-.285.749-.534,1.308c-.167.373-.3.684-.391.933-.142.3-.262.572-.354.822a.565.565,0,0,1,.071-.224l.283-.6q.143-.447.319-1.007c.119-.375.274-.808.463-1.307.188-.449.391-.944.6-1.494s.439-1.093.674-1.642q.642-1.793,1.493-3.585.355-.969.781-1.866t.782-1.717q.355-.821.711-1.606t.71-1.53c.188-.448.379-.858.569-1.231s.331-.684.426-.934q.214-.448.355-.822a6.841,6.841,0,0,1-.355.9c-.1.249-.213.561-.355.934s-.309.784-.5,1.231q-.358.748-.675,1.531m2.345,33.823q-1.032,2.128-2.239,4.369t-2.559,4.368a29.635,29.635,0,0,1-2.843,3.807,14.561,14.561,0,0,1-3.091,2.689,6.013,6.013,0,0,1-3.233,1.008q-1.636,0-1.636-1.5a23.613,23.613,0,0,1,.889-5.68q.888-3.437,2.31-7.587T262.7,90.99q1.847-4.56,3.731-9.007t3.731-8.56q1.847-4.113,3.269-7.364t2.309-5.344a10.256,10.256,0,0,0,.89-2.616,3.567,3.567,0,0,0-.675-1.981,11.183,11.183,0,0,0-3.057-3.065,2.687,2.687,0,0,0-.959-.486q-.712,0-.711.9a20.635,20.635,0,0,1-.887,2.2Q269.45,57.718,268,61.04t-3.306,7.615q-1.848,4.3-3.8,9t-3.8,9.483q-1.842,4.778-3.28,9.108t-2.316,7.877a25.17,25.17,0,0,0-.876,5.711,7.661,7.661,0,0,0,1.052,3.958,13.454,13.454,0,0,0,2.526,3.136,11.627,11.627,0,0,0,3.177,2.091,7.608,7.608,0,0,0,2.981.746,9.3,9.3,0,0,0,6.112-2.246,24.74,24.74,0,0,0,4.831-5.488,48.767,48.767,0,0,0,3.731-6.789q1.6-3.546,2.807-6.085a1.664,1.664,0,0,0-.248-1.531,9.372,9.372,0,0,0-1.352-1.792,7.241,7.241,0,0,0-1.6-1.307q-.78-.447-.994-.074-.784,1.645-1.813,3.77" transform="translate(-16517.039 -5373.088)" fill="#ffed00"/>
      <path id="Trazado_5815" data-name="Trazado 5815" d="M197.316,123.138a.891.891,0,0,0,.254.687,12.391,12.391,0,0,1,1.452,1.3,3.22,3.22,0,0,0,1.669.915,4.135,4.135,0,0,0,2.36.075,5.62,5.62,0,0,0,2.213-1.143,11.412,11.412,0,0,0,3.121-6.482,3.335,3.335,0,0,0-.618-1.6,2.356,2.356,0,0,0-1.2-1.143,6.482,6.482,0,0,0-2.358-.306,20.448,20.448,0,0,0-2.358.306.982.982,0,0,1-.328.228.749.749,0,0,0-.326.306,35.043,35.043,0,0,1-2.9,3.279,3.887,3.887,0,0,0-1.016,2.668c0,.256.012.56.036.915" transform="translate(-16511.537 -5379.572)" fill="#ffed00"/>
      <path id="Trazado_5816" data-name="Trazado 5816" d="M13.858,104.315q.157,6.627,3.431,9.7t9.665,3.077a29.023,29.023,0,0,0,10.651-1.972A11.9,11.9,0,0,1,38.63,118a18.856,18.856,0,0,1,.474,3.353,26.4,26.4,0,0,1-5.72,1.656,39.668,39.668,0,0,1-6.9.552,26.072,26.072,0,0,1-9.466-1.538,17.05,17.05,0,0,1-6.508-4.339,17.181,17.181,0,0,1-3.748-6.628,28.336,28.336,0,0,1-1.183-8.4,29.772,29.772,0,0,1,1.143-8.4,18.946,18.946,0,0,1,3.511-6.785A16.97,16.97,0,0,1,16.186,82.9a19.678,19.678,0,0,1,8.482-1.7A17.746,17.746,0,0,1,32,82.62a14.934,14.934,0,0,1,5.285,3.9,16.979,16.979,0,0,1,3.235,5.917,24.236,24.236,0,0,1,1.1,7.456q0,1.1-.079,2.327t-.158,2.091ZM33.9,98.477a14.91,14.91,0,0,0-.592-4.221,10.725,10.725,0,0,0-1.735-3.51,8.468,8.468,0,0,0-2.919-2.407,9.187,9.187,0,0,0-4.222-.906q-4.812,0-7.376,2.917a14.29,14.29,0,0,0-3.117,8.126Z" transform="translate(-16491.764 -5376.042)" fill="#b5b9bc"/>
      <path id="Trazado_5817" data-name="Trazado 5817" d="M290.513,104.315q.156,6.627,3.431,9.7t9.665,3.077a29.016,29.016,0,0,0,10.651-1.972A11.858,11.858,0,0,1,315.285,118a18.769,18.769,0,0,1,.474,3.353,26.378,26.378,0,0,1-5.719,1.656,39.668,39.668,0,0,1-6.9.552,26.069,26.069,0,0,1-9.466-1.538,16.639,16.639,0,0,1-10.256-10.967,28.306,28.306,0,0,1-1.183-8.4,29.771,29.771,0,0,1,1.143-8.4,18.917,18.917,0,0,1,3.511-6.785,16.97,16.97,0,0,1,5.956-4.576,19.671,19.671,0,0,1,8.481-1.7,17.74,17.74,0,0,1,7.337,1.421,14.937,14.937,0,0,1,5.286,3.9,16.994,16.994,0,0,1,3.235,5.917,24.235,24.235,0,0,1,1.1,7.456q0,1.1-.079,2.327t-.159,2.091Zm20.038-5.839a14.911,14.911,0,0,0-.591-4.221,10.726,10.726,0,0,0-1.736-3.51,8.459,8.459,0,0,0-2.919-2.407,9.185,9.185,0,0,0-4.221-.906q-4.812,0-7.376,2.917a14.278,14.278,0,0,0-3.117,8.126Z" transform="translate(-16520.301 -5376.042)" fill="#b5b9bc"/>
      <path id="Trazado_5818" data-name="Trazado 5818" d="M150.4,27.765q.156,6.628,3.431,9.7t9.665,3.077a29.015,29.015,0,0,0,10.65-1.972,11.858,11.858,0,0,1,1.025,2.879,18.77,18.77,0,0,1,.474,3.353,26.376,26.376,0,0,1-5.719,1.656,39.755,39.755,0,0,1-6.9.552,26.069,26.069,0,0,1-9.466-1.538A16.639,16.639,0,0,1,143.295,34.51a28.315,28.315,0,0,1-1.183-8.4,29.768,29.768,0,0,1,1.143-8.4,18.91,18.91,0,0,1,3.511-6.785,16.97,16.97,0,0,1,5.956-4.576,19.672,19.672,0,0,1,8.482-1.7,17.753,17.753,0,0,1,7.336,1.42,14.931,14.931,0,0,1,5.286,3.906,16.994,16.994,0,0,1,3.235,5.917,24.235,24.235,0,0,1,1.1,7.455q0,1.106-.079,2.328c-.052.815-.107,1.511-.159,2.09Zm20.039-5.838a14.91,14.91,0,0,0-.592-4.221,10.739,10.739,0,0,0-1.736-3.511,8.457,8.457,0,0,0-2.919-2.406,9.171,9.171,0,0,0-4.221-.907q-4.812,0-7.376,2.918a14.279,14.279,0,0,0-3.117,8.126Z" transform="translate(-16505.848 -5368.146)" fill="#b5b9bc"/>
      <path id="Trazado_5819" data-name="Trazado 5819" d="M150.4,173.7q.156,6.627,3.431,9.7t9.665,3.077a29.015,29.015,0,0,0,10.65-1.972,11.858,11.858,0,0,1,1.025,2.879,18.77,18.77,0,0,1,.474,3.353,26.375,26.375,0,0,1-5.719,1.656,39.754,39.754,0,0,1-6.9.552,26.068,26.068,0,0,1-9.466-1.538,16.639,16.639,0,0,1-10.256-10.967,28.315,28.315,0,0,1-1.183-8.4,29.768,29.768,0,0,1,1.143-8.4,18.91,18.91,0,0,1,3.511-6.785,16.971,16.971,0,0,1,5.956-4.576,19.672,19.672,0,0,1,8.482-1.7,17.738,17.738,0,0,1,7.336,1.421,14.918,14.918,0,0,1,5.286,3.9,16.994,16.994,0,0,1,3.235,5.917,24.235,24.235,0,0,1,1.1,7.455q0,1.106-.079,2.328c-.052.815-.107,1.512-.159,2.091Zm20.039-5.839a14.91,14.91,0,0,0-.592-4.221,10.726,10.726,0,0,0-1.736-3.51,8.449,8.449,0,0,0-2.919-2.407,9.183,9.183,0,0,0-4.221-.907q-4.812,0-7.376,2.918a14.281,14.281,0,0,0-3.117,8.126Z" transform="translate(-16505.848 -5383.199)" fill="#b5b9bc"/>
      <path id="Trazado_5820" data-name="Trazado 5820" d="M55.044,104.315q.156,6.627,3.431,9.7T68.14,117.1a29.016,29.016,0,0,0,10.651-1.972A11.858,11.858,0,0,1,79.816,118a18.693,18.693,0,0,1,.474,3.353,26.407,26.407,0,0,1-5.719,1.656,39.676,39.676,0,0,1-6.9.552,26.069,26.069,0,0,1-9.466-1.538A16.633,16.633,0,0,1,47.944,111.06a28.306,28.306,0,0,1-1.183-8.4,29.772,29.772,0,0,1,1.143-8.4,18.93,18.93,0,0,1,3.51-6.785A16.973,16.973,0,0,1,57.372,82.9a19.671,19.671,0,0,1,8.481-1.7A17.745,17.745,0,0,1,73.19,82.62a14.926,14.926,0,0,1,5.285,3.9,16.981,16.981,0,0,1,3.236,5.917,24.236,24.236,0,0,1,1.1,7.456q0,1.1-.079,2.327t-.159,2.091Zm20.038-5.839a14.91,14.91,0,0,0-.591-4.221,10.726,10.726,0,0,0-1.736-3.51,8.459,8.459,0,0,0-2.919-2.407,9.185,9.185,0,0,0-4.221-.906q-4.812,0-7.376,2.917a14.284,14.284,0,0,0-3.117,8.126Z" transform="translate(-16496.012 -5376.042)" fill="#fff"/>
      <path id="Trazado_5821" data-name="Trazado 5821" d="M113.24,95.953q0-4.655-2.367-6.47t-6.864-1.814a29.244,29.244,0,0,0-5.168.434,39.5,39.5,0,0,0-4.693,1.143,12.276,12.276,0,0,1-1.5-6.232,36.211,36.211,0,0,1,5.917-1.341A42.892,42.892,0,0,1,104.8,81.2q7.887,0,11.991,3.59t4.1,11.478v25.325q-2.763.631-6.706,1.3a48,48,0,0,1-8.047.67,31.548,31.548,0,0,1-6.982-.709,14.259,14.259,0,0,1-5.286-2.288,10.608,10.608,0,0,1-3.352-4.023,13.484,13.484,0,0,1-1.183-5.917,12.061,12.061,0,0,1,5.127-10.217,16.7,16.7,0,0,1,5.444-2.524,24.77,24.77,0,0,1,6.469-.829q2.524,0,4.143.118t2.721.276Zm0,7.652q-1.184-.157-3-.316t-3.076-.157q-4.893,0-7.456,1.813a6.315,6.315,0,0,0-2.564,5.523,6.784,6.784,0,0,0,.867,3.708,5.977,5.977,0,0,0,2.17,2.052,7.476,7.476,0,0,0,2.879.867,29.994,29.994,0,0,0,3,.158,36.562,36.562,0,0,0,3.747-.2,22.318,22.318,0,0,0,3.432-.591Z" transform="translate(-16500.404 -5376.042)" fill="#fff"/>
      <path id="Trazado_5822" data-name="Trazado 5822" d="M130.382,115.28a26.962,26.962,0,0,0,9.783,1.893,14.9,14.9,0,0,0,3.471-.394,9.21,9.21,0,0,0,2.88-1.183,6.59,6.59,0,0,0,1.972-1.934,4.575,4.575,0,0,0,.75-2.564,5.151,5.151,0,0,0-.591-2.6,5.531,5.531,0,0,0-1.578-1.736,10.562,10.562,0,0,0-2.287-1.222q-1.3-.513-2.8-.987l-2.761-1.025a19.951,19.951,0,0,1-7.337-4.26,8.805,8.805,0,0,1-2.288-6.39,10.465,10.465,0,0,1,3.827-8.521q3.823-3.155,11.241-3.156a30.745,30.745,0,0,1,6.035.592,37.379,37.379,0,0,1,5.169,1.38,19.327,19.327,0,0,1-.592,3.157,18.239,18.239,0,0,1-1.065,2.918,40.926,40.926,0,0,0-4.142-1.223,21.641,21.641,0,0,0-5.167-.591,12.353,12.353,0,0,0-5.169,1.025,3.666,3.666,0,0,0-2.248,3.63,4.455,4.455,0,0,0,.552,2.287,5.134,5.134,0,0,0,1.5,1.618,9.934,9.934,0,0,0,2.169,1.144q1.222.472,2.642.946l3.471,1.184a25.822,25.822,0,0,1,3.59,1.5,10.64,10.64,0,0,1,2.919,2.169,10.079,10.079,0,0,1,1.972,3.157,13.027,13.027,0,0,1-.433,9.782,11.734,11.734,0,0,1-3.353,4.1,16.113,16.113,0,0,1-5.247,2.644,23.015,23.015,0,0,1-6.784.945,37.725,37.725,0,0,1-6.628-.512,33.764,33.764,0,0,1-5.285-1.38,15.626,15.626,0,0,1,.67-3.2q.513-1.617,1.143-3.2" transform="translate(-16504.451 -5376.042)" fill="#fff"/>
      <path id="Trazado_5823" data-name="Trazado 5823" d="M180.117,122.779q-.632,0-1.3.039c-.448.025-.882.039-1.3.039-.526,0-1.079-.014-1.657-.039s-1.053-.066-1.421-.118L161.026,82.228a18.852,18.852,0,0,1,2.13-.2c.735-.025,1.42-.039,2.051-.039q1.025,0,2.288.039a15.169,15.169,0,0,1,2.13.2l11.2,37.632,11.6-37.632a27.661,27.661,0,0,1,3.865-.237c.578,0,1.235.014,1.972.039a21.628,21.628,0,0,1,2.209.2l-15.7,48.678a37.074,37.074,0,0,1-2.288,5.443,12.85,12.85,0,0,1-2.682,3.55,8.727,8.727,0,0,1-3.352,1.893,15.13,15.13,0,0,1-4.3.552,23.456,23.456,0,0,1-3.589-.275,24.751,24.751,0,0,1-3.116-.671,13.942,13.942,0,0,1,1.262-6.075q.71.237,1.933.513a12,12,0,0,0,2.643.276,9.131,9.131,0,0,0,1.933-.2,4.362,4.362,0,0,0,1.7-.788,5.973,5.973,0,0,0,1.46-1.7,15.272,15.272,0,0,0,1.3-3Z" transform="translate(-16507.799 -5376.124)" fill="#fff"/>
      <rect id="Rectángulo_1096" data-name="Rectángulo 1096" width="210.867" height="87.769" transform="translate(-16449.207 -5321)" fill="none" stroke="#92e1ff" stroke-miterlimit="10" stroke-width="1" stroke-dasharray="2 2"/>
      <rect id="Rectángulo_1097" data-name="Rectángulo 1097" width="285.031" height="172.699" transform="translate(-16486.543 -5363.497)" fill="none" stroke="#92e1ff" stroke-miterlimit="10" stroke-width="1" stroke-dasharray="2 2"/>
    </g>
    <rect id="Rectángulo_1100" data-name="Rectángulo 1100" width="530" height="373" transform="translate(-16604 -5440)" fill="none"/>
  </g>
</svg>
