<svg xmlns="http://www.w3.org/2000/svg" width="374" height="373" viewBox="0 0 374 373"><g transform="translate(12680 6725)"><rect width="373" height="373" transform="translate(-12680 -6725)" fill="none"/><g transform="translate(2.936 1.738)"><path d="M217.822,62.827a16.823,16.823,0,0,1,9.008-2.557,17.183,17.183,0,0,1,17.181,17.181,16.969,16.969,0,0,1-2.432,8.824l.079.056a112.314,112.314,0,1,1-23.836-23.5" transform="translate(-12649.16 -6692.179)" fill="#fff" fill-rule="evenodd"/><path d="M230.9,91.689a18.129,18.129,0,0,1-6.005,1.093A17.071,17.071,0,0,1,208.939,69.7,99.334,99.334,0,1,0,230.9,91.689" transform="translate(-12647.36 -6690.373)" fill="#db0812" fill-rule="evenodd"/><path d="M189.158,73.016a9.387,9.387,0,1,1,9.378,9.376,9.379,9.379,0,0,1-9.378-9.376" transform="translate(-12620.872 -6687.894)" fill="#db0812"/><path d="M89.6,180.956a6.028,6.028,0,0,1,2.064-1.369,6.348,6.348,0,0,1,2.377-.476,6.112,6.112,0,0,1,2.346.476,6,6,0,0,1,2.091,1.369l.869.869-1.736,1.754-.892-.863a3.666,3.666,0,0,0-1.259-.841,3.751,3.751,0,0,0-2.845,0,3.673,3.673,0,0,0-1.258.841,3.527,3.527,0,0,0-.839,1.227,3.838,3.838,0,0,0,0,2.849,3.759,3.759,0,0,0,.839,1.254,3.674,3.674,0,0,0,2.683,1.116,3.866,3.866,0,0,0,1.45-.278,3.454,3.454,0,0,0,1.229-.838l.892-.868,1.736,1.764-.869.867a6.36,6.36,0,0,1-2.091,1.4,6.5,6.5,0,0,1-2.346.446,6.758,6.758,0,0,1-2.377-.446,6.4,6.4,0,0,1-2.064-1.4,6.062,6.062,0,0,1-1.366-2.067,6.389,6.389,0,0,1-.447-2.352,6.46,6.46,0,0,1,.447-2.371,6.01,6.01,0,0,1,1.366-2.063" transform="translate(-12640.358 -6665.697)" fill="#fff" fill-rule="evenodd"/><path d="M108.9,187.226l1.76,1.761-.864.867a6.315,6.315,0,0,1-2.04,1.367,6.345,6.345,0,0,1-4.8,0,6.331,6.331,0,0,1-2.038-1.367,6.012,6.012,0,0,1-1.366-2.066,6.579,6.579,0,0,1-.447-2.374,6.327,6.327,0,0,1,.447-2.344,6.227,6.227,0,0,1,3.431-3.438,6.318,6.318,0,0,1,2.375-.469,6.082,6.082,0,0,1,2.346.469A5.988,5.988,0,0,1,109.793,181l.864.863-6.953,6.955a3.68,3.68,0,0,0,4.328-.727Zm-6.226-4.495a3.661,3.661,0,0,0-1.118,2.683,3.594,3.594,0,0,0,.393,1.643c.223-.219.554-.556,1-1,.466-.471.95-.953,1.45-1.452q.787-.783,1.482-1.482c.485-.465.857-.826,1.119-1.09a3.768,3.768,0,0,0-2.263-.365,3.592,3.592,0,0,0-2.066,1.062" transform="translate(-12638.184 -6665.687)" fill="#fff" fill-rule="evenodd"/><path d="M110.674,185.388a6.14,6.14,0,0,1,.476-2.425,6.377,6.377,0,0,1,1.34-1.984,6.162,6.162,0,0,1,2.014-1.341,5.956,5.956,0,0,1,2.426-.5,5.833,5.833,0,0,1,2.427.5,6.056,6.056,0,0,1,2.009,1.341,5.767,5.767,0,0,1,1.346,1.984,5.874,5.874,0,0,1,.5,2.425v6.282h-2.486v-6.282a3.443,3.443,0,0,0-.305-1.45,3.348,3.348,0,0,0-.814-1.2,3.288,3.288,0,0,0-1.2-.811,3.752,3.752,0,0,0-2.959,0,3.769,3.769,0,0,0-1.2.811,3.889,3.889,0,0,0-.811,1.2,3.7,3.7,0,0,0-.277,1.45v6.282h-2.488Z" transform="translate(-12635.959 -6665.692)" fill="#fff" fill-rule="evenodd"/><path d="M124.912,180.956a6.042,6.042,0,0,1,2.067-1.369,6.282,6.282,0,0,1,2.371-.476,6.132,6.132,0,0,1,2.347.476,6.031,6.031,0,0,1,2.094,1.369l.862.869-1.728,1.754-.893-.863a3.673,3.673,0,0,0-1.258-.841,3.763,3.763,0,0,0-2.849,0,3.637,3.637,0,0,0-1.254.841,3.427,3.427,0,0,0-.837,1.227,3.733,3.733,0,0,0,0,2.849,3.824,3.824,0,0,0,3.516,2.37,3.884,3.884,0,0,0,1.453-.278,3.475,3.475,0,0,0,1.229-.838l.893-.868,1.728,1.764-.862.867a6.394,6.394,0,0,1-2.094,1.4,6.525,6.525,0,0,1-2.347.446,6.686,6.686,0,0,1-2.371-.446,6.414,6.414,0,0,1-2.067-1.4,6.055,6.055,0,0,1-1.37-2.067,6.408,6.408,0,0,1-.442-2.352,6.48,6.48,0,0,1,.442-2.371,6,6,0,0,1,1.37-2.063" transform="translate(-12633.57 -6665.697)" fill="#fff" fill-rule="evenodd"/><path d="M134.385,185.414a6.16,6.16,0,0,1,.475-2.427A6.449,6.449,0,0,1,136.2,181a6.192,6.192,0,0,1,2.012-1.342,6.159,6.159,0,0,1,4.86,0A6.2,6.2,0,0,1,145.079,181a5.676,5.676,0,0,1,1.34,1.984,5.759,5.759,0,0,1,.5,2.427,5.93,5.93,0,0,1-.5,2.429,6.027,6.027,0,0,1-1.34,2.011,6.619,6.619,0,0,1-2.007,1.367,6.458,6.458,0,0,1-4.86,0,6.6,6.6,0,0,1-2.012-1.367,6.894,6.894,0,0,1-1.341-2.011,6.347,6.347,0,0,1-.475-2.429m2.46,0a3.875,3.875,0,0,0,.28,1.48,3.638,3.638,0,0,0,2.035,2.035,3.919,3.919,0,0,0,1.48.284,3.694,3.694,0,0,0,2.68-1.091,3.933,3.933,0,0,0,1.116-2.708,3.49,3.49,0,0,0-.3-1.452,3.306,3.306,0,0,0-.812-1.2,3.367,3.367,0,0,0-1.2-.812,3.6,3.6,0,0,0-1.48-.306,3.943,3.943,0,0,0-2.706,1.118,3.815,3.815,0,0,0-.808,1.2,3.675,3.675,0,0,0-.28,1.452" transform="translate(-12631.4 -6665.687)" fill="#fff" fill-rule="evenodd"/><path d="M157.661,179.112V181.6h-7.567a1.246,1.246,0,0,0-1.257,1.26,1.3,1.3,0,0,0,.365.919,1.218,1.218,0,0,0,.892.36h5.028a3.436,3.436,0,0,1,1.45.311,3.5,3.5,0,0,1,1.2.783,3.279,3.279,0,0,1,.808,1.2,3.361,3.361,0,0,1,.309,1.452,3.522,3.522,0,0,1-.309,1.48,3.593,3.593,0,0,1-.808,1.2,3.827,3.827,0,0,1-1.2.811,3.715,3.715,0,0,1-1.45.281h-7.537v-2.488h7.537a1.238,1.238,0,0,0,.919-.36,1.259,1.259,0,0,0,.365-.924,1.219,1.219,0,0,0-.365-.9,1.246,1.246,0,0,0-.919-.359h-5.028a3.9,3.9,0,0,1-1.477-.279,4.028,4.028,0,0,1-1.174-.812,4.3,4.3,0,0,1-.808-1.2,3.951,3.951,0,0,1-.279-1.478,3.724,3.724,0,0,1,.279-1.451,3.9,3.9,0,0,1,.808-1.205,3.855,3.855,0,0,1,2.652-1.087Z" transform="translate(-12629.1 -6665.697)" fill="#fff" fill-rule="evenodd"/><path d="M171.262,179.112v6.256a6,6,0,0,1-.5,2.43,6.183,6.183,0,0,1-1.344,2.012,6.482,6.482,0,0,1-2.009,1.365,6.119,6.119,0,0,1-2.427.477,6.285,6.285,0,0,1-2.431-.477,6.555,6.555,0,0,1-2.007-1.365A6.965,6.965,0,0,1,159.2,187.8a6.31,6.31,0,0,1-.476-2.43v-6.256h2.487v6.256a3.82,3.82,0,0,0,.28,1.478,4.211,4.211,0,0,0,.807,1.229,4.41,4.41,0,0,0,1.2.807,4.04,4.04,0,0,0,2.963,0,3.854,3.854,0,0,0,1.2-.807,3.572,3.572,0,0,0,.81-1.229,3.633,3.633,0,0,0,.308-1.478v-6.256Z" transform="translate(-12626.722 -6665.697)" fill="#fff" fill-rule="evenodd"/><path d="M183.189,174.9v11.274a5.988,5.988,0,0,1-.506,2.435,6.27,6.27,0,0,1-8.181,3.378,6.422,6.422,0,0,1-3.375-3.378,6.192,6.192,0,0,1-.478-2.435,6.027,6.027,0,0,1,.478-2.423,6.376,6.376,0,0,1,3.375-3.323,5.985,5.985,0,0,1,2.431-.5h3.77V174.9Zm-6.256,15.075a3.756,3.756,0,0,0,1.45-.277,3.912,3.912,0,0,0,1.2-.812,3.564,3.564,0,0,0,.812-1.226,3.712,3.712,0,0,0,.309-1.487v-3.764h-3.77a3.991,3.991,0,0,0-2.715,1.117,4.036,4.036,0,0,0-.808,1.2,3.816,3.816,0,0,0-.278,1.443,4.1,4.1,0,0,0,.278,1.487,4.477,4.477,0,0,0,.808,1.226,4.4,4.4,0,0,0,1.235.812,3.97,3.97,0,0,0,1.48.277" transform="translate(-12624.43 -6666.507)" fill="#fff" fill-rule="evenodd"/><path d="M216.964,113.749l-21.772,57.1-12.521-.036,8.212-18.619-14.79-38.408h12.487l8.067,24.773.445-.007,7.463-24.8Z" transform="translate(-12623.383 -6678.261)" fill="#ffed00"/><path d="M180.705,142.856c.006,9.128-10.006,12.54-19.419,12.546S142.1,151.789,142.1,142.8H154.47c0,2.814,3.893,3.875,6.831,3.87,2.883,0,6.626-.767,6.626-3.485,0-3.42-4.654-3.919-11.962-5.814-7.586-1.991-12.991-5.313-13-12.456,0-9.08,8.845-12.189,18.3-12.2,9.354,0,17.9,3.1,17.911,12.173l-12.22.038c0-2.522-3.1-3.5-5.691-3.494-2.605.007-5.668.631-5.668,3.127.013,3.429,5.222,3.86,11.108,5.3,7.528,1.829,13.984,4.891,13.993,13" transform="translate(-12629.919 -6678.461)" fill="#ffed00"/><path d="M143.175,153.873l-11.6.077.027-4.582-.448.008c-1.933,3.891-5.8,6.03-11.8,6.046-10.173.019-18.987-8.33-19-21.48-.012-13.321,8.03-21.259,18.254-21.266,5.668-.013,10.355,2.331,12.444,5.822l.449-.013-.023-4.5h11.647Zm-11.759-19.954c-.01-5.348-2.966-10.345-9.869-10.335s-9.137,5.576-9.137,10.377c.008,5.053,2.706,10.527,9.686,10.531,7.153-.023,9.321-5.764,9.321-10.573" transform="translate(-12637.941 -6678.467)" fill="#ffed00"/><path d="M101.574,133.651c0,1.582-.216,4.08-.216,4.08l-28.789.012a8.274,8.274,0,0,0,8.683,7.971c3.565.013,5.866-1.322,6.99-3.789l12.493.019c-1.137,5.93-6.272,13.43-19.266,13.442-12.483.026-21.173-9.82-21.184-21.715,0-12.033,7.878-20.972,20.31-20.99,12.509,0,20.974,9.019,20.978,20.97m-12.4-3.988c-.162-2.324-1.664-7.314-8.386-7.314a8.1,8.1,0,0,0-8.234,7.314Z" transform="translate(-12645.645 -6678.466)" fill="#ffed00"/><path d="M181.455,163.49c-31.759-4.28-63.667-4.53-113.128-1l.541-2.275c49.425-4.362,88.387-6.654,109.748-6,12.6.387,16.431,1.3,16.431,5.769,0,4.768-5.6,4.582-13.593,3.5" transform="translate(-12644.099 -6670.503)" fill="#ffed00"/><rect width="24.615" height="222.461" transform="translate(-12360.425 -6651.399)" fill="#db0812"/><rect width="222.461" height="24.717" transform="translate(-12607.482 -6403.966)" fill="#db0812"/><rect width="321.229" height="320.581" transform="translate(-12656.936 -6699.829)" fill="none" stroke="#92e1ff" stroke-width="0.5"/><line x2="321.125" transform="translate(-12656.936 -6675.863)" fill="none" stroke="#92e1ff" stroke-width="0.5"/><line x2="321.125" transform="translate(-12656.936 -6651.146)" fill="none" stroke="#92e1ff" stroke-width="0.5"/><line x2="321.125" transform="translate(-12656.936 -6626.427)" fill="none" stroke="#92e1ff" stroke-width="0.5"/><line x2="321.125" transform="translate(-12656.936 -6601.709)" fill="none" stroke="#92e1ff" stroke-width="0.5"/><line x2="321.125" transform="translate(-12656.936 -6576.992)" fill="none" stroke="#92e1ff" stroke-width="0.5"/><line x2="321.125" transform="translate(-12656.936 -6552.274)" fill="none" stroke="#92e1ff" stroke-width="0.5"/><line x2="321.125" transform="translate(-12656.936 -6527.556)" fill="none" stroke="#92e1ff" stroke-width="0.5"/><line x2="321.125" transform="translate(-12656.936 -6502.838)" fill="none" stroke="#92e1ff" stroke-width="0.5"/><line x2="321.125" transform="translate(-12656.936 -6478.121)" fill="none" stroke="#92e1ff" stroke-width="0.5"/><line x2="321.125" transform="translate(-12656.936 -6453.401)" fill="none" stroke="#92e1ff" stroke-width="0.5"/><line x2="321.125" transform="translate(-12656.936 -6428.684)" fill="none" stroke="#92e1ff" stroke-width="0.5"/><line x2="321.125" transform="translate(-12656.936 -6403.966)" fill="none" stroke="#92e1ff" stroke-width="0.5"/><line y2="320.581" transform="translate(-12360.424 -6699.828)" fill="none" stroke="#92e1ff" stroke-width="0.5"/><line y2="320.581" transform="translate(-12385.142 -6699.828)" fill="none" stroke="#92e1ff" stroke-width="0.5"/><line y2="320.581" transform="translate(-12409.859 -6699.828)" fill="none" stroke="#92e1ff" stroke-width="0.5"/><line y2="320.581" transform="translate(-12434.578 -6699.828)" fill="none" stroke="#92e1ff" stroke-width="0.5"/><line y2="320.581" transform="translate(-12459.296 -6699.828)" fill="none" stroke="#92e1ff" stroke-width="0.5"/><line y2="320.581" transform="translate(-12484.014 -6699.828)" fill="none" stroke="#92e1ff" stroke-width="0.5"/><line y2="320.581" transform="translate(-12508.731 -6699.828)" fill="none" stroke="#92e1ff" stroke-width="0.5"/><line y2="320.581" transform="translate(-12533.449 -6699.828)" fill="none" stroke="#92e1ff" stroke-width="0.5"/><line y2="320.581" transform="translate(-12558.168 -6699.828)" fill="none" stroke="#92e1ff" stroke-width="0.5"/><line y2="320.581" transform="translate(-12582.886 -6699.828)" fill="none" stroke="#92e1ff" stroke-width="0.5"/><line y2="320.581" transform="translate(-12607.604 -6699.828)" fill="none" stroke="#92e1ff" stroke-width="0.5"/><line y2="320.581" transform="translate(-12632.321 -6699.828)" fill="none" stroke="#92e1ff" stroke-width="0.5"/><text transform="translate(-12648.588 -6686.737)" fill="#92e1ff" font-size="14" font-family="SegoeUI, Segoe UI"><tspan x="0" y="0">x</tspan></text></g><g transform="translate(0.063 -2.549)"><text transform="translate(-12327.063 -6536.174)" fill="#92e1ff" font-size="16" font-family="SegoeUI, Segoe UI"><tspan x="0" y="0">9 x</tspan></text><text transform="translate(-12507.23 -6357.106)" fill="#92e1ff" font-size="16" font-family="SegoeUI, Segoe UI"><tspan x="0" y="0">9 x</tspan></text></g></g></svg>