<svg xmlns="http://www.w3.org/2000/svg" width="247.216" height="247.219" viewBox="0 0 247.216 247.219"><g transform="translate(-350.294 -2263.334)"><path d="M12416.106,9511.053a124.08,124.08,0,0,1-24.811-2.5,122.432,122.432,0,0,1-44.02-18.523,123.456,123.456,0,0,1-44.6-54.164,122.418,122.418,0,0,1-7.173-23.108,124.325,124.325,0,0,1,0-49.623,122.436,122.436,0,0,1,18.523-44.022,123.458,123.458,0,0,1,54.163-44.6,122.514,122.514,0,0,1,23.107-7.173,124.08,124.08,0,0,1,24.811-2.5,122.779,122.779,0,0,1,72.863,23.941,18.684,18.684,0,0,1,10.042-2.851,19.152,19.152,0,0,1,19.149,19.148,18.806,18.806,0,0,1-2.71,9.835l.088.063a120.821,120.821,0,0,1,17.475,33.906,125.426,125.426,0,0,1,3.7,63.879,122.442,122.442,0,0,1-18.523,44.021,123.464,123.464,0,0,1-54.165,44.6,122.528,122.528,0,0,1-23.109,7.173A124.082,124.082,0,0,1,12416.106,9511.053Zm-.057-233.735a110.635,110.635,0,1,0,89.508,45.637,20.1,20.1,0,0,1-6.693,1.222,19.034,19.034,0,0,1-17.79-25.732A109.845,109.845,0,0,0,12416.05,9277.317Zm82.956,17.136a10.452,10.452,0,1,0,10.473,10.454A10.466,10.466,0,0,0,12499.006,9294.453Z" transform="translate(-11942.208 -7001)" fill="#fff"/><path d="M12416.106,9511.553a124.6,124.6,0,0,1-24.911-2.511,122.932,122.932,0,0,1-44.2-18.6,123.96,123.96,0,0,1-44.782-54.384,123,123,0,0,1-7.2-23.2,124.847,124.847,0,0,1,0-49.824,122.936,122.936,0,0,1,18.6-44.2,123.962,123.962,0,0,1,54.383-44.783,123.062,123.062,0,0,1,23.2-7.2,124.6,124.6,0,0,1,24.911-2.511,123.283,123.283,0,0,1,72.889,23.84,19.17,19.17,0,0,1,10.017-2.749,19.652,19.652,0,0,1,19.649,19.648,19.3,19.3,0,0,1-2.593,9.773,121.314,121.314,0,0,1,17.42,33.874,125.931,125.931,0,0,1,3.718,64.136,122.941,122.941,0,0,1-18.6,44.2,123.968,123.968,0,0,1-54.385,44.782,123.11,123.11,0,0,1-23.2,7.2A124.606,124.606,0,0,1,12416.106,9511.553Zm0-246.219a123.535,123.535,0,0,0-24.71,2.491,121.932,121.932,0,0,0-43.84,18.447,122.959,122.959,0,0,0-44.421,53.945,121.958,121.958,0,0,0-7.144,23.016,123.8,123.8,0,0,0,0,49.422,121.942,121.942,0,0,0,18.447,43.842,122.959,122.959,0,0,0,53.943,44.421,121.949,121.949,0,0,0,23.014,7.144,123.8,123.8,0,0,0,49.421,0,121.937,121.937,0,0,0,43.843-18.447,122.947,122.947,0,0,0,44.422-53.944,121.917,121.917,0,0,0,7.144-23.015,124.921,124.921,0,0,0-3.687-63.622,120.324,120.324,0,0,0-17.355-33.7l-.022-.017-.377-.269.238-.4a18.311,18.311,0,0,0,2.639-9.577,18.651,18.651,0,0,0-18.649-18.648,18.191,18.191,0,0,0-9.777,2.774l-.287.18-.273-.2a122.27,122.27,0,0,0-72.567-23.845Zm-.057,233.71a111.113,111.113,0,1,1,65.318-201l.308.224-.134.356a18.518,18.518,0,0,0,17.322,25.057,19.586,19.586,0,0,0,6.522-1.191l.354-.129.221.3a111.1,111.1,0,0,1-89.912,176.384Zm0-221.227a110.133,110.133,0,1,0,89.322,45.732,20.547,20.547,0,0,1-6.508,1.126,19.532,19.532,0,0,1-18.389-26.049A109.345,109.345,0,0,0,12416.05,9277.817Zm82.956,38.04a10.952,10.952,0,1,1,10.973-10.95A10.965,10.965,0,0,1,12499.006,9315.857Zm0-20.9a9.952,9.952,0,1,0,9.973,9.954A9.966,9.966,0,0,0,12499.006,9294.953Z" transform="translate(-11942.208 -7001)" fill="rgba(0,0,0,0)"/><path d="M220.471,389.235a6.733,6.733,0,0,1,2.3-1.525,7.077,7.077,0,0,1,2.648-.53,6.83,6.83,0,0,1,2.617.53,6.7,6.7,0,0,1,2.331,1.525l.968.968L229.4,392.16l-.994-.963a4.123,4.123,0,0,0-1.4-.937,4.194,4.194,0,0,0-3.169,0,4.154,4.154,0,0,0-1.4.937,3.949,3.949,0,0,0-.934,1.369,4.276,4.276,0,0,0,0,3.174,4.223,4.223,0,0,0,.934,1.4,4.1,4.1,0,0,0,2.99,1.243,4.334,4.334,0,0,0,1.618-.31,3.865,3.865,0,0,0,1.369-.933l.994-.967,1.934,1.967-.968.965a7.089,7.089,0,0,1-2.331,1.555,7.262,7.262,0,0,1-2.617.5,7.528,7.528,0,0,1-2.648-.5,7.132,7.132,0,0,1-2.3-1.555,6.8,6.8,0,0,1-1.523-2.3,7.2,7.2,0,0,1,0-5.266,6.735,6.735,0,0,1,1.523-2.3" transform="translate(193.186 2059.723)" fill="#fff" fill-rule="evenodd"/><path d="M242.031,396.223l1.962,1.964-.963.965a7.073,7.073,0,0,1-2.274,1.526,7.105,7.105,0,0,1-5.353,0,7.1,7.1,0,0,1-2.273-1.526,6.705,6.705,0,0,1-1.523-2.3,7.341,7.341,0,0,1-.5-2.644,7.078,7.078,0,0,1,.5-2.613,6.933,6.933,0,0,1,3.826-3.832,7.027,7.027,0,0,1,2.645-.524,6.77,6.77,0,0,1,2.616.524,6.7,6.7,0,0,1,2.336,1.527l.963.964L236.243,398a4.1,4.1,0,0,0,4.824-.811Zm-6.939-5.008a4.075,4.075,0,0,0-1.247,2.99,4.015,4.015,0,0,0,.439,1.832c.248-.246.617-.621,1.118-1.115.518-.526,1.057-1.06,1.615-1.619q.876-.873,1.652-1.652.812-.776,1.247-1.215a4.182,4.182,0,0,0-2.521-.406,3.984,3.984,0,0,0-2.3,1.184" transform="translate(195.558 2059.733)" fill="#fff" fill-rule="evenodd"/><path d="M244.064,394.176a6.841,6.841,0,0,1,.531-2.7,7.125,7.125,0,0,1,1.494-2.212,6.859,6.859,0,0,1,2.244-1.493,6.608,6.608,0,0,1,2.7-.561,6.477,6.477,0,0,1,2.706.561,6.753,6.753,0,0,1,2.239,1.493,6.455,6.455,0,0,1,1.5,2.212,6.537,6.537,0,0,1,.559,2.7v7h-2.772v-7a3.852,3.852,0,0,0-.341-1.615,4.286,4.286,0,0,0-2.244-2.243,4.2,4.2,0,0,0-3.3,0,4.242,4.242,0,0,0-1.338.906,4.305,4.305,0,0,0-.9,1.337,4.108,4.108,0,0,0-.309,1.615v7h-2.774Z" transform="translate(197.986 2059.727)" fill="#fff" fill-rule="evenodd"/><path d="M259.991,389.235a6.734,6.734,0,0,1,2.3-1.525,7.013,7.013,0,0,1,2.643-.53,6.848,6.848,0,0,1,2.617.53,6.718,6.718,0,0,1,2.332,1.525l.962.968-1.926,1.957-1-.963a4.13,4.13,0,0,0-1.4-.937,4.209,4.209,0,0,0-3.175,0,4.089,4.089,0,0,0-1.4.937,3.824,3.824,0,0,0-.933,1.369,4.16,4.16,0,0,0,0,3.174,4.26,4.26,0,0,0,3.92,2.643,4.339,4.339,0,0,0,1.62-.31,3.874,3.874,0,0,0,1.369-.933l1-.967,1.926,1.967-.962.965a7.106,7.106,0,0,1-2.332,1.555,7.282,7.282,0,0,1-2.617.5,7.459,7.459,0,0,1-2.643-.5,7.132,7.132,0,0,1-2.3-1.555,6.757,6.757,0,0,1-1.527-2.3,7.281,7.281,0,0,1,0-5.266,6.7,6.7,0,0,1,1.527-2.3" transform="translate(200.592 2059.723)" fill="#fff" fill-rule="evenodd"/><path d="M270.6,394.2a6.852,6.852,0,0,1,.528-2.7,7.182,7.182,0,0,1,1.495-2.212,6.884,6.884,0,0,1,2.243-1.5,6.862,6.862,0,0,1,5.416,0,6.9,6.9,0,0,1,2.237,1.5,6.99,6.99,0,0,1,2.051,4.917,6.6,6.6,0,0,1-.557,2.707,6.721,6.721,0,0,1-1.494,2.242,7.334,7.334,0,0,1-2.237,1.525,7.216,7.216,0,0,1-5.416,0,7.318,7.318,0,0,1-2.243-1.525,7.65,7.65,0,0,1-1.495-2.242,7.06,7.06,0,0,1-.528-2.707m2.74,0a4.327,4.327,0,0,0,.312,1.651,4.061,4.061,0,0,0,2.268,2.269,4.37,4.37,0,0,0,1.651.314,4.093,4.093,0,0,0,2.986-1.215,4.047,4.047,0,0,0,.9-1.368,4.11,4.11,0,0,0,.338-1.651,3.887,3.887,0,0,0-.338-1.616,3.656,3.656,0,0,0-.9-1.338,3.766,3.766,0,0,0-1.338-.906,4.024,4.024,0,0,0-1.648-.341,4.388,4.388,0,0,0-3.018,1.247,4.242,4.242,0,0,0-.9,1.338,4.091,4.091,0,0,0-.312,1.616" transform="translate(202.958 2059.732)" fill="#fff" fill-rule="evenodd"/><path d="M296.6,387.18v2.768h-8.434a1.389,1.389,0,0,0-1.4,1.406,1.456,1.456,0,0,0,.406,1.025,1.358,1.358,0,0,0,.994.4h5.6a3.813,3.813,0,0,1,1.617.347,3.911,3.911,0,0,1,1.337.873,3.7,3.7,0,0,1,.9,1.335,3.756,3.756,0,0,1,.344,1.618,3.917,3.917,0,0,1-.344,1.65,4,4,0,0,1-.9,1.338,4.287,4.287,0,0,1-1.337.906,4.142,4.142,0,0,1-1.617.312h-8.4v-2.774h8.4a1.376,1.376,0,0,0,1.025-.4,1.4,1.4,0,0,0,.407-1.031,1.358,1.358,0,0,0-.407-1,1.393,1.393,0,0,0-1.025-.4h-5.6a4.37,4.37,0,0,1-1.647-.31,4.488,4.488,0,0,1-1.308-.9,4.788,4.788,0,0,1-.9-1.338,4.356,4.356,0,0,1-.312-1.646,4.121,4.121,0,0,1,.312-1.618,4.362,4.362,0,0,1,.9-1.343,4.283,4.283,0,0,1,2.955-1.212Z" transform="translate(205.469 2059.722)" fill="#fff" fill-rule="evenodd"/><path d="M311.814,387.18v6.973a6.667,6.667,0,0,1-.558,2.708,6.9,6.9,0,0,1-1.5,2.243,7.211,7.211,0,0,1-2.239,1.521,6.808,6.808,0,0,1-2.706.532,6.994,6.994,0,0,1-2.709-.532,7.3,7.3,0,0,1-2.237-1.521,7.708,7.708,0,0,1-1.494-2.243,7,7,0,0,1-.531-2.708V387.18h2.771v6.973a4.277,4.277,0,0,0,.312,1.649,4.748,4.748,0,0,0,.9,1.369,4.905,4.905,0,0,0,1.337.9,4.519,4.519,0,0,0,3.3,0,4.3,4.3,0,0,0,1.337-.9,4.032,4.032,0,0,0,.9-1.369,4.093,4.093,0,0,0,.343-1.649V387.18Z" transform="translate(208.063 2059.722)" fill="#fff" fill-rule="evenodd"/><path d="M325.161,382.466v12.566a6.65,6.65,0,0,1-.565,2.712,7.127,7.127,0,0,1-3.7,3.765,7.2,7.2,0,0,1-5.417,0,7.177,7.177,0,0,1-3.762-3.765,6.912,6.912,0,0,1-.533-2.712,6.713,6.713,0,0,1,2.053-4.912,6.877,6.877,0,0,1,2.242-1.494,6.659,6.659,0,0,1,2.71-.56h4.2v-5.6Zm-6.972,16.8a4.176,4.176,0,0,0,1.615-.31,4.3,4.3,0,0,0,1.338-.9,3.981,3.981,0,0,0,.9-1.368,4.118,4.118,0,0,0,.343-1.653v-4.2h-4.2a3.991,3.991,0,0,0-1.649.343,4.033,4.033,0,0,0-1.378.9,4.52,4.52,0,0,0-.9,1.341,4.233,4.233,0,0,0-.31,1.611,4.518,4.518,0,0,0,.31,1.653,4.915,4.915,0,0,0,.9,1.368,4.823,4.823,0,0,0,1.378.9,4.407,4.407,0,0,0,1.649.31" transform="translate(210.563 2058.838)" fill="#fff" fill-rule="evenodd"/><path d="M362.832,314.03,338.566,377.67l-13.957-.039,9.154-20.753-16.485-42.809H331.2l8.991,27.612.5-.007,8.32-27.64Z" transform="translate(211.706 2046.014)" fill="#fff"/><path d="M322.263,346.469c.006,10.174-11.153,13.977-21.645,13.984-10.475,0-21.38-4.026-21.389-14.05h13.792c0,3.135,4.339,4.32,7.615,4.314,3.213,0,7.386-.856,7.386-3.884,0-3.813-5.188-4.368-13.333-6.483-8.454-2.218-14.478-5.919-14.487-13.882-.006-10.121,9.859-13.587,20.4-13.6,10.429,0,19.955,3.453,19.965,13.567l-13.622.044c0-2.812-3.459-3.9-6.343-3.895-2.9.007-6.316.7-6.316,3.484.014,3.822,5.819,4.3,12.381,5.908,8.39,2.039,15.586,5.451,15.6,14.5" transform="translate(204.576 2045.796)" fill="#fff"/><path d="M280.243,358.747l-12.926.087.031-5.107-.5.011c-2.154,4.337-6.465,6.721-13.155,6.738-11.339.02-21.163-9.285-21.172-23.944-.013-14.846,8.949-23.694,20.346-23.7,6.318-.014,11.543,2.6,13.871,6.489l.5-.014-.025-5.013H280.2Zm-13.106-22.241c-.011-5.961-3.307-11.53-11-11.52-7.71.011-10.185,6.216-10.185,11.568.011,5.633,3.017,11.734,10.8,11.739,7.973-.026,10.39-6.426,10.39-11.786" transform="translate(195.823 2045.789)" fill="#fff"/><path d="M233.693,336.209c0,1.763-.241,4.545-.241,4.545l-32.087.014a9.221,9.221,0,0,0,9.677,8.884c3.974.014,6.539-1.472,7.79-4.222l13.926.021c-1.267,6.61-6.991,14.971-21.475,14.983-13.913.03-23.6-10.945-23.61-24.2,0-13.414,8.781-23.377,22.638-23.4,13.941,0,23.376,10.053,23.382,23.374m-13.824-4.445c-.182-2.591-1.856-8.153-9.348-8.153a9.031,9.031,0,0,0-9.177,8.153Z" transform="translate(187.418 2045.791)" fill="#fff"/><path d="M322.765,369.654c-35.4-4.771-70.964-5.05-126.093-1.113l.6-2.536c55.092-4.862,98.517-7.417,122.326-6.685,14.043.432,18.316,1.453,18.316,6.432,0,5.312-6.243,5.106-15.151,3.9" transform="translate(189.104 2054.479)" fill="#fff"/></g></svg>