<svg xmlns="http://www.w3.org/2000/svg" width="373" height="373" viewBox="0 0 373 373"><g transform="translate(114.767 68.011)"><g transform="translate(-46.584 -0.073)"><path d="M180.988,27.374a16.757,16.757,0,0,1,8.976-2.548,17.122,17.122,0,0,1,17.12,17.12,16.913,16.913,0,0,1-2.423,8.792l.078.057a111.906,111.906,0,1,1-23.751-23.421" transform="translate(2.025 2.089)" fill="#fff" fill-rule="evenodd"/><path d="M192.935,55.042a18.058,18.058,0,0,1-5.983,1.089,17.011,17.011,0,0,1-15.9-23,98.986,98.986,0,1,0,21.887,21.914" transform="translate(4.907 4.981)" fill="#db0812" fill-rule="evenodd"/><path d="M135.316,34.937a9.353,9.353,0,1,1,9.346,9.341,9.346,9.346,0,0,1-9.346-9.341" transform="translate(47.324 8.95)" fill="#db0812"/><path d="M47.9,129.065a6.036,6.036,0,0,1,2.057-1.365,6.334,6.334,0,0,1,2.367-.472,6.1,6.1,0,0,1,2.339.472,5.988,5.988,0,0,1,2.084,1.365l.865.867-1.729,1.748-.889-.861a3.64,3.64,0,0,0-1.254-.837,3.734,3.734,0,0,0-2.834,0,3.665,3.665,0,0,0-1.254.837,3.523,3.523,0,0,0-.835,1.223,3.83,3.83,0,0,0,0,2.838,3.764,3.764,0,0,0,.835,1.251,3.668,3.668,0,0,0,2.672,1.112,3.9,3.9,0,0,0,1.447-.277,3.456,3.456,0,0,0,1.223-.835l.889-.865,1.729,1.757-.865.864a6.32,6.32,0,0,1-2.084,1.39,6.466,6.466,0,0,1-2.339.445,6.722,6.722,0,0,1-2.367-.445,6.381,6.381,0,0,1-2.057-1.39,6.052,6.052,0,0,1-1.362-2.058,6.446,6.446,0,0,1,0-4.709,6.01,6.01,0,0,1,1.362-2.054" transform="translate(16.12 44.495)" fill="#fff" fill-rule="evenodd"/><path d="M65.813,135.306l1.755,1.756-.862.862a6.317,6.317,0,0,1-2.033,1.365,6.345,6.345,0,0,1-4.785,0,6.355,6.355,0,0,1-2.031-1.365,6.007,6.007,0,0,1-1.362-2.058,6.579,6.579,0,0,1-.445-2.366,6.338,6.338,0,0,1,.445-2.335,6.205,6.205,0,0,1,3.42-3.426,6.3,6.3,0,0,1,2.365-.467,6.069,6.069,0,0,1,2.339.467,5.983,5.983,0,0,1,2.087,1.366l.862.86L60.639,136.9a3.666,3.666,0,0,0,4.312-.725Zm-6.2-4.477a3.645,3.645,0,0,0-1.115,2.671,3.575,3.575,0,0,0,.393,1.639c.221-.219.553-.555,1-1,.463-.471.945-.949,1.443-1.446.524-.522,1.015-1.012,1.478-1.478.483-.463.853-.823,1.115-1.087a3.761,3.761,0,0,0-2.254-.362,3.574,3.574,0,0,0-2.06,1.058" transform="translate(19.602 44.511)" fill="#fff" fill-rule="evenodd"/><path d="M66.237,133.478a6.1,6.1,0,0,1,.475-2.416,6.377,6.377,0,0,1,1.335-1.977,6.155,6.155,0,0,1,2.006-1.335,5.921,5.921,0,0,1,2.417-.5,5.8,5.8,0,0,1,2.419.5,6.026,6.026,0,0,1,2,1.335,6.23,6.23,0,0,1,1.841,4.393v6.26H76.253v-6.26a3.445,3.445,0,0,0-.3-1.444,3.83,3.83,0,0,0-2.007-2.006,3.759,3.759,0,0,0-2.948,0,3.8,3.8,0,0,0-1.195.81,3.842,3.842,0,0,0-.807,1.2,3.653,3.653,0,0,0-.277,1.444v6.26H66.237Z" transform="translate(23.165 44.502)" fill="#fff" fill-rule="evenodd"/><path d="M78.979,129.065a6.033,6.033,0,0,1,2.06-1.365,6.272,6.272,0,0,1,2.363-.472,6.116,6.116,0,0,1,2.339.472,6.024,6.024,0,0,1,2.087,1.365l.858.867-1.721,1.748-.891-.861a3.66,3.66,0,0,0-1.253-.837,3.744,3.744,0,0,0-2.838,0,3.617,3.617,0,0,0-1.251.837,3.409,3.409,0,0,0-.833,1.223,3.711,3.711,0,0,0,0,2.838,3.8,3.8,0,0,0,3.5,2.363,3.907,3.907,0,0,0,1.448-.277,3.473,3.473,0,0,0,1.224-.835l.891-.865,1.721,1.757-.858.864a6.359,6.359,0,0,1-2.087,1.39,6.488,6.488,0,0,1-2.339.445,6.655,6.655,0,0,1-2.363-.445,6.377,6.377,0,0,1-2.06-1.39,6.04,6.04,0,0,1-1.365-2.058,6.52,6.52,0,0,1,0-4.709,6,6,0,0,1,1.365-2.054" transform="translate(26.99 44.495)" fill="#fff" fill-rule="evenodd"/><path d="M87.107,133.5a6.13,6.13,0,0,1,.472-2.419,6.415,6.415,0,0,1,1.335-1.977,6.187,6.187,0,0,1,2.006-1.336,6.132,6.132,0,0,1,4.841,0,6.179,6.179,0,0,1,2,1.336,5.667,5.667,0,0,1,1.335,1.977,5.743,5.743,0,0,1,.5,2.419,5.91,5.91,0,0,1-.5,2.42,5.978,5.978,0,0,1-1.335,2,6.6,6.6,0,0,1-2,1.365,6.438,6.438,0,0,1-4.841,0,6.61,6.61,0,0,1-2.006-1.365,6.806,6.806,0,0,1-1.335-2,6.313,6.313,0,0,1-.472-2.42m2.45,0a3.866,3.866,0,0,0,.279,1.475A3.628,3.628,0,0,0,91.863,137a3.778,3.778,0,0,0,4.145-.806,3.638,3.638,0,0,0,.81-1.223,3.689,3.689,0,0,0,.3-1.475,3.488,3.488,0,0,0-.3-1.446,3.285,3.285,0,0,0-.81-1.2,3.372,3.372,0,0,0-1.2-.81,3.848,3.848,0,0,0-4.172.81,3.774,3.774,0,0,0-.8,1.2,3.656,3.656,0,0,0-.279,1.446" transform="translate(30.464 44.51)" fill="#fff" fill-rule="evenodd"/><path d="M108.908,127.227V129.7h-7.541a1.238,1.238,0,0,0-1.251,1.255,1.3,1.3,0,0,0,.362.915,1.219,1.219,0,0,0,.889.359h5.01a3.428,3.428,0,0,1,1.446.31,3.47,3.47,0,0,1,1.195.781,3.266,3.266,0,0,1,.806,1.192,3.349,3.349,0,0,1,.309,1.447,3.5,3.5,0,0,1-.309,1.474,3.564,3.564,0,0,1-.806,1.2,3.835,3.835,0,0,1-1.195.81,3.724,3.724,0,0,1-1.446.279H98.866v-2.479h7.511a1.226,1.226,0,0,0,.915-.359,1.254,1.254,0,0,0,.364-.921,1.216,1.216,0,0,0-.364-.892,1.247,1.247,0,0,0-.915-.359h-5.01a3.881,3.881,0,0,1-1.471-.277,4.018,4.018,0,0,1-1.172-.81,4.333,4.333,0,0,1-.8-1.194,3.945,3.945,0,0,1-.278-1.473,3.725,3.725,0,0,1,.278-1.447,3.942,3.942,0,0,1,.8-1.2,3.845,3.845,0,0,1,2.643-1.084Z" transform="translate(34.148 44.495)" fill="#fff" fill-rule="evenodd"/><path d="M121.021,127.227v6.233a5.961,5.961,0,0,1-.5,2.421,6.135,6.135,0,0,1-1.338,2,6.451,6.451,0,0,1-2,1.361,6.075,6.075,0,0,1-2.419.475,6.237,6.237,0,0,1-2.421-.475,6.518,6.518,0,0,1-2-1.361,6.865,6.865,0,0,1-1.335-2,6.245,6.245,0,0,1-.474-2.421v-6.233h2.477v6.233a3.8,3.8,0,0,0,.279,1.474,4.2,4.2,0,0,0,.8,1.224,4.365,4.365,0,0,0,1.195.8,4.042,4.042,0,0,0,2.953,0,3.83,3.83,0,0,0,1.195-.8,3.583,3.583,0,0,0,.807-1.224,3.658,3.658,0,0,0,.306-1.474v-6.233Z" transform="translate(37.957 44.495)" fill="#fff" fill-rule="evenodd"/><path d="M131.52,123.519v11.234a5.962,5.962,0,0,1-.5,2.425,6.252,6.252,0,0,1-8.151,3.365,6.411,6.411,0,0,1-3.364-3.365,6.194,6.194,0,0,1-.476-2.425,6.035,6.035,0,0,1,.476-2.416,6.131,6.131,0,0,1,1.359-1.976,6.206,6.206,0,0,1,2-1.335,5.971,5.971,0,0,1,2.423-.5h3.755v-5.007Zm-6.233,15.02a3.73,3.73,0,0,0,1.444-.277,3.825,3.825,0,0,0,1.2-.81,3.551,3.551,0,0,0,.808-1.221,3.677,3.677,0,0,0,.306-1.478V131h-3.755a4,4,0,0,0-2.7,1.114,4.03,4.03,0,0,0-.806,1.2,3.786,3.786,0,0,0-.277,1.44,4.035,4.035,0,0,0,.277,1.478,4.348,4.348,0,0,0,.806,1.221,4.276,4.276,0,0,0,1.23.81,3.943,3.943,0,0,0,1.475.277" transform="translate(41.626 43.198)" fill="#fff" fill-rule="evenodd"/><path d="M164.542,69.7l-21.694,56.894-12.477-.035L138.554,108,123.817,69.732H136.26L144.3,94.416l.443-.005L152.178,69.7Z" transform="translate(43.302 24.375)" fill="#ffed00"/><path d="M132.365,98.821c.005,9.1-9.972,12.494-19.35,12.5s-19.115-3.6-19.122-12.561h12.33c0,2.8,3.878,3.862,6.807,3.856,2.872,0,6.6-.764,6.6-3.471,0-3.409-4.638-3.9-11.919-5.8-7.558-1.983-12.944-5.292-12.952-12.411-.005-9.049,8.814-12.146,18.239-12.16,9.321,0,17.839,3.087,17.847,12.129l-12.177.038c0-2.512-3.094-3.489-5.67-3.481-2.6.007-5.647.628-5.647,3.115.013,3.418,5.2,3.845,11.068,5.281,7.5,1.823,13.935,4.874,13.944,12.959" transform="translate(32.838 24.054)" fill="#ffed00"/><path d="M99.823,109.8l-11.556.078.028-4.565-.447.008c-1.926,3.878-5.781,6.009-11.76,6.024-10.138.019-18.92-8.3-18.929-21.4-.012-13.273,8-21.183,18.19-21.191,5.646-.011,10.317,2.323,12.4,5.8l.448-.014-.022-4.481h11.6ZM88.106,89.919c-.009-5.329-2.956-10.308-9.834-10.3s-9.105,5.557-9.105,10.342c.009,5.034,2.7,10.489,9.651,10.493,7.128-.023,9.289-5.744,9.289-10.536" transform="translate(19.99 24.045)" fill="#ffed00"/><path d="M63.028,89.653c0,1.576-.215,4.064-.215,4.064l-28.686.013a8.246,8.246,0,0,0,8.65,7.943c3.552.011,5.846-1.317,6.966-3.775l12.449.018c-1.134,5.909-6.249,13.384-19.2,13.395-12.436.027-21.1-9.786-21.107-21.638,0-11.991,7.851-20.9,20.238-20.915,12.463,0,20.9,8.987,20.9,20.9M50.67,85.68c-.162-2.316-1.659-7.289-8.356-7.289a8.073,8.073,0,0,0-8.205,7.289Z" transform="translate(7.654 24.047)" fill="#ffed00"/><path d="M141.69,114.568c-31.646-4.265-63.441-4.515-112.725-.995l.539-2.268c49.25-4.346,88.073-6.63,109.358-5.975,12.555.386,16.374,1.3,16.374,5.75,0,4.748-5.581,4.565-13.545,3.488" transform="translate(10.13 36.798)" fill="#ffed00"/></g><rect width="373" height="373" transform="translate(-114.767 -68.011)" fill="none"/></g></svg>