<svg xmlns="http://www.w3.org/2000/svg" xmlns:xlink="http://www.w3.org/1999/xlink" width="977" height="186" viewBox="0 0 977 186"><defs><clipPath id="a"><rect width="977" height="186" fill="#e00111" stroke="#dfe8ec" stroke-width="1"/></clipPath><filter id="b" x="254.326" y="-122.063" width="430.285" height="430.289" filterUnits="userSpaceOnUse"><feOffset input="SourceAlpha"/><feGaussianBlur stdDeviation="2.5" result="c"/><feFlood flood-opacity="0.161"/><feComposite operator="in" in2="c"/><feComposite in="SourceGraphic"/></filter><filter id="d" x="28.854" y="39.991" width="109.841" height="109.842" filterUnits="userSpaceOnUse"><feOffset input="SourceAlpha"/><feGaussianBlur stdDeviation="2.5" result="e"/><feFlood flood-opacity="0.161"/><feComposite operator="in" in2="e"/><feComposite in="SourceGraphic"/></filter><filter id="f" x="837.124" y="39.991" width="109.841" height="109.842" filterUnits="userSpaceOnUse"><feOffset input="SourceAlpha"/><feGaussianBlur stdDeviation="2.5" result="g"/><feFlood flood-opacity="0.161"/><feComposite operator="in" in2="g"/><feComposite in="SourceGraphic"/></filter></defs><g transform="translate(-480 -2281)"><rect width="977" height="186" transform="translate(480 2281)" fill="#e00111"/><path d="M1,1V185H976V1H1M0,0H977V186H0Z" transform="translate(480 2281)" fill="#dfe8ec"/><g transform="translate(480 2281)" clip-path="url(#a)"><g transform="translate(261.826 -114.563)"><g transform="matrix(1, 0, 0, 1, -261.83, 114.56)" filter="url(#b)"><path d="M497.746,273.382a31.638,31.638,0,0,1,16.935-4.807,32.3,32.3,0,0,1,32.3,32.3,31.875,31.875,0,0,1-4.572,16.589l.148.106C567.9,352,582.493,394.606,582.493,440.646c0,114.683-92.963,207.646-207.646,207.646s-207.64-92.963-207.64-207.646S260.171,233,374.848,233a207.078,207.078,0,0,1,122.9,40.379" transform="translate(94.62 -347.57)" fill="#fff" fill-rule="evenodd"/></g><path d="M515.219,320.494a34.075,34.075,0,0,1-11.289,2.055,32.1,32.1,0,0,1-30.005-43.4,185.879,185.879,0,0,0-109.678-35.632c-103.033,0-186.563,83.526-186.563,186.573,0,103.029,83.53,186.561,186.563,186.561S550.816,533.119,550.816,430.09a186.126,186.126,0,0,0-35.6-109.6" transform="translate(-156.703 -222.46)" fill="#e00111" fill-rule="evenodd"/><path d="M331.9,275.58A17.647,17.647,0,1,1,349.531,293.2,17.633,17.633,0,0,1,331.9,275.58" transform="translate(-2.066 -207.99)" fill="#4b4b4b"/><path d="M221.86,390.646a11.352,11.352,0,0,1,3.881-2.571,11.935,11.935,0,0,1,4.466-.894,11.516,11.516,0,0,1,4.414.894,11.3,11.3,0,0,1,3.931,2.571l1.632,1.632-3.262,3.3-1.676-1.624a6.95,6.95,0,0,0-2.369-1.581,7.073,7.073,0,0,0-5.345,0,7,7,0,0,0-2.367,1.581,6.656,6.656,0,0,0-1.576,2.309,7.214,7.214,0,0,0,0,5.353,7.12,7.12,0,0,0,1.576,2.361,6.91,6.91,0,0,0,5.043,2.1,7.311,7.311,0,0,0,2.73-.522,6.517,6.517,0,0,0,2.309-1.574l1.676-1.632,3.262,3.318-1.632,1.628a11.96,11.96,0,0,1-3.931,2.624,12.254,12.254,0,0,1-4.414.837,12.7,12.7,0,0,1-4.466-.837,12.035,12.035,0,0,1-3.881-2.624,11.465,11.465,0,0,1-2.57-3.886,12.144,12.144,0,0,1,0-8.882,11.361,11.361,0,0,1,2.57-3.879" transform="translate(-115.827 -78.403)" fill="#fff" fill-rule="evenodd"/><path d="M249.531,402.395l3.309,3.313-1.624,1.628a11.928,11.928,0,0,1-3.835,2.574,11.984,11.984,0,0,1-9.028,0,11.985,11.985,0,0,1-3.833-2.574,11.314,11.314,0,0,1-2.569-3.885,12.384,12.384,0,0,1-.839-4.46,11.94,11.94,0,0,1,.839-4.408,11.695,11.695,0,0,1,6.453-6.463,11.855,11.855,0,0,1,4.462-.883,11.42,11.42,0,0,1,4.412.883,11.293,11.293,0,0,1,3.939,2.576l1.624,1.626-13.072,13.074a6.92,6.92,0,0,0,8.137-1.368Zm-11.7-8.447a6.874,6.874,0,0,0-2.1,5.043,6.773,6.773,0,0,0,.741,3.09c.418-.415,1.041-1.048,1.886-1.88.873-.887,1.782-1.789,2.724-2.73q1.478-1.472,2.786-2.786,1.37-1.31,2.1-2.049a7.055,7.055,0,0,0-4.252-.685,6.72,6.72,0,0,0-3.885,2" transform="translate(-103.131 -78.348)" fill="#fff" fill-rule="evenodd"/><path d="M244.064,398.961a11.538,11.538,0,0,1,.9-4.558,12.016,12.016,0,0,1,2.52-3.731,11.56,11.56,0,0,1,3.785-2.518,11.144,11.144,0,0,1,4.56-.947,10.922,10.922,0,0,1,4.564.947,11.382,11.382,0,0,1,3.777,2.518,10.888,10.888,0,0,1,2.529,3.731,11.024,11.024,0,0,1,.944,4.558v11.808h-4.675V398.961a6.5,6.5,0,0,0-.575-2.724,7.232,7.232,0,0,0-3.785-3.783,7.08,7.08,0,0,0-5.562,0,7.16,7.16,0,0,0-2.257,1.528,7.259,7.259,0,0,0-1.522,2.255,6.928,6.928,0,0,0-.521,2.724v11.808h-4.679Z" transform="translate(-90.142 -78.377)" fill="#fff" fill-rule="evenodd"/><path d="M261.378,390.646a11.353,11.353,0,0,1,3.887-2.571,11.824,11.824,0,0,1,4.458-.894,11.547,11.547,0,0,1,4.414.894,11.328,11.328,0,0,1,3.933,2.571l1.622,1.632-3.248,3.3-1.68-1.624a6.961,6.961,0,0,0-2.363-1.581,7.1,7.1,0,0,0-5.355,0,6.892,6.892,0,0,0-2.359,1.581,6.449,6.449,0,0,0-1.574,2.309,7.017,7.017,0,0,0,0,5.353,7.184,7.184,0,0,0,6.611,4.458,7.319,7.319,0,0,0,2.732-.522,6.529,6.529,0,0,0,2.309-1.574l1.68-1.632,3.248,3.318-1.622,1.628a11.992,11.992,0,0,1-3.933,2.624,12.287,12.287,0,0,1-4.414.837,12.585,12.585,0,0,1-4.458-.837,12.034,12.034,0,0,1-3.887-2.624,11.4,11.4,0,0,1-2.576-3.886,12.282,12.282,0,0,1,0-8.882,11.3,11.3,0,0,1,2.576-3.879" transform="translate(-76.197 -78.403)" fill="#fff" fill-rule="evenodd"/><path d="M270.6,398.989a11.554,11.554,0,0,1,.891-4.562,12.114,12.114,0,0,1,2.521-3.731,11.608,11.608,0,0,1,3.783-2.522,11.572,11.572,0,0,1,9.134,0A11.633,11.633,0,0,1,290.7,390.7a11.792,11.792,0,0,1,3.458,8.293,11.135,11.135,0,0,1-.939,4.566,11.337,11.337,0,0,1-2.519,3.781,12.373,12.373,0,0,1-3.773,2.571,12.172,12.172,0,0,1-9.134,0,12.341,12.341,0,0,1-3.783-2.571,12.9,12.9,0,0,1-2.521-3.781,11.9,11.9,0,0,1-.891-4.566m4.622,0a7.3,7.3,0,0,0,.527,2.784,6.85,6.85,0,0,0,3.825,3.827,7.368,7.368,0,0,0,2.784.529,6.9,6.9,0,0,0,5.037-2.049,6.823,6.823,0,0,0,1.526-2.307,6.93,6.93,0,0,0,.571-2.784,6.554,6.554,0,0,0-.571-2.726,6.164,6.164,0,0,0-1.526-2.257,6.353,6.353,0,0,0-2.257-1.528,6.789,6.789,0,0,0-2.78-.575,7.4,7.4,0,0,0-5.091,2.1,7.155,7.155,0,0,0-1.518,2.257,6.9,6.9,0,0,0-.527,2.726" transform="translate(-63.532 -78.349)" fill="#fff" fill-rule="evenodd"/><path d="M305.251,387.18v4.669H291.026a2.342,2.342,0,0,0-2.361,2.371,2.455,2.455,0,0,0,.685,1.728,2.29,2.29,0,0,0,1.676.675h9.451a6.435,6.435,0,0,1,2.728.585,6.6,6.6,0,0,1,2.255,1.472,6.24,6.24,0,0,1,1.52,2.251,6.335,6.335,0,0,1,.581,2.73,6.605,6.605,0,0,1-.581,2.782,6.745,6.745,0,0,1-1.52,2.257,7.231,7.231,0,0,1-2.255,1.528,6.987,6.987,0,0,1-2.728.527H286.309v-4.679h14.167a2.32,2.32,0,0,0,1.728-.677,2.365,2.365,0,0,0,.687-1.739,2.289,2.289,0,0,0-.687-1.684,2.348,2.348,0,0,0-1.728-.675h-9.451a7.365,7.365,0,0,1-2.778-.522,7.573,7.573,0,0,1-2.207-1.526A8.086,8.086,0,0,1,284.523,397,7.35,7.35,0,0,1,284,394.22a6.951,6.951,0,0,1,.527-2.73,7.361,7.361,0,0,1,1.518-2.265,7.227,7.227,0,0,1,4.985-2.045Z" transform="translate(-50.1 -78.404)" fill="#fff" fill-rule="evenodd"/><path d="M321.407,387.18v11.76a11.246,11.246,0,0,1-.941,4.568,11.628,11.628,0,0,1-2.525,3.783,12.163,12.163,0,0,1-3.777,2.566,11.485,11.485,0,0,1-4.564.9,11.8,11.8,0,0,1-4.568-.9,12.311,12.311,0,0,1-3.773-2.566,13,13,0,0,1-2.519-3.783,11.8,11.8,0,0,1-.9-4.568V387.18h4.675v11.76a7.212,7.212,0,0,0,.527,2.782,8.006,8.006,0,0,0,1.518,2.31,8.274,8.274,0,0,0,2.255,1.518,7.623,7.623,0,0,0,5.57,0,7.261,7.261,0,0,0,2.255-1.518,6.8,6.8,0,0,0,1.522-2.31,6.9,6.9,0,0,0,.579-2.782V387.18Z" transform="translate(-36.216 -78.404)" fill="#fff" fill-rule="evenodd"/><path d="M334.758,382.466v21.2a11.217,11.217,0,0,1-.953,4.574,12.022,12.022,0,0,1-6.24,6.351,12.152,12.152,0,0,1-9.137,0,12.1,12.1,0,0,1-6.345-6.351,11.656,11.656,0,0,1-.9-4.574,11.324,11.324,0,0,1,3.463-8.286,11.6,11.6,0,0,1,3.781-2.519,11.231,11.231,0,0,1,4.57-.945h7.086v-9.445ZM323,410.8a7.042,7.042,0,0,0,2.724-.523,7.258,7.258,0,0,0,2.257-1.524,6.713,6.713,0,0,0,1.526-2.307,6.943,6.943,0,0,0,.579-2.788v-7.08H323a6.729,6.729,0,0,0-2.782.579,6.8,6.8,0,0,0-2.323,1.522,7.619,7.619,0,0,0-1.518,2.261,7.142,7.142,0,0,0-.522,2.718,7.621,7.621,0,0,0,.522,2.788,8.282,8.282,0,0,0,1.518,2.307,8.13,8.13,0,0,0,2.323,1.524A7.43,7.43,0,0,0,323,410.8" transform="translate(-22.838 -83.131)" fill="#fff" fill-rule="evenodd"/><path d="M394.113,314.03l-40.93,107.34-23.54-.066,15.439-35-27.8-72.2h23.476l15.165,46.571.835-.012,14.033-46.62Z" transform="translate(-16.727 -151.754)" fill="#ffef41"/><path d="M351.813,369.544c.01,17.16-18.812,23.574-36.508,23.586-17.668,0-36.061-6.791-36.075-23.7h23.262c0,5.287,7.318,7.286,12.843,7.276,5.42,0,12.457-1.444,12.457-6.551-.008-6.431-8.75-7.368-22.489-10.935-14.259-3.741-24.42-9.984-24.436-23.414-.01-17.071,16.629-22.917,34.409-22.943,17.59,0,33.658,5.824,33.674,22.884l-22.976.074c0-4.743-5.834-6.585-10.7-6.569-4.9.012-10.653,1.184-10.653,5.876.024,6.447,9.815,7.258,20.882,9.966,14.152,3.439,26.288,9.195,26.306,24.449" transform="translate(-54.88 -152.923)" fill="#ffef41"/><path d="M313.013,390.276l-21.8.146.052-8.614-.843.018c-3.633,7.316-10.9,11.335-22.188,11.365-19.125.034-35.695-15.661-35.711-40.385-.022-25.04,15.095-39.964,34.317-39.976,10.657-.024,19.469,4.382,23.4,10.945l.843-.024-.042-8.455h21.9Zm-22.106-37.513c-.018-10.054-5.578-19.447-18.553-19.431-13,.018-17.179,10.484-17.179,19.511.018,9.5,5.089,19.792,18.209,19.8,13.448-.044,17.524-10.839,17.524-19.879" transform="translate(-101.716 -152.958)" fill="#ffef41"/><path d="M265.293,352.259c.008,2.974-.406,7.666-.406,7.666l-54.12.024c.525,8.762,7.1,15.017,16.322,14.985,6.7.024,11.029-2.483,13.14-7.122l23.488.036C261.58,379,251.925,393.1,227.5,393.119c-23.466.05-39.8-18.461-39.822-40.822,0-22.625,14.81-39.429,38.182-39.462,23.514,0,39.428,16.955,39.438,39.424m-23.316-7.5c-.306-4.37-3.13-13.751-15.767-13.751-11.325,0-15.013,9.369-15.479,13.751Z" transform="translate(-146.687 -152.953)" fill="#ffef41"/><path d="M409.349,376.835c-59.706-8.047-119.694-8.518-212.677-1.877l1.015-4.278c92.921-8.2,166.165-12.509,206.324-11.275,23.686.729,30.892,2.451,30.892,10.849,0,8.96-10.53,8.612-25.555,6.581" transform="translate(-137.663 -106.464)" fill="#ffef41"/></g></g><g transform="translate(516.354 2328.491)"><g transform="matrix(1, 0, 0, 1, -36.35, -47.49)" filter="url(#d)"><path d="M242.695,242.225a7.225,7.225,0,0,1,3.868-1.1,7.377,7.377,0,0,1,7.377,7.376,7.28,7.28,0,0,1-1.044,3.788l.034.024a48.219,48.219,0,1,1-10.234-10.091" transform="translate(-130.85 -185.51)" fill="#fff" fill-rule="evenodd"/></g><path d="M254.769,261.1a7.783,7.783,0,0,1-2.578.469,7.33,7.33,0,0,1-6.852-9.911,42.648,42.648,0,1,0,9.431,9.442" transform="translate(-172.893 -238.708)" fill="#e00111" fill-rule="evenodd"/><path d="M331.9,261.975A4.03,4.03,0,1,1,335.926,266a4.027,4.027,0,0,1-4.027-4.025" transform="translate(-256.573 -246.539)" fill="#e00111"/><path d="M219.228,387.972a2.592,2.592,0,0,1,.886-.587,2.725,2.725,0,0,1,1.02-.2,2.629,2.629,0,0,1,1.008.2,2.581,2.581,0,0,1,.9.587l.373.373-.745.754-.383-.371a1.587,1.587,0,0,0-.541-.361,1.615,1.615,0,0,0-1.221,0,1.6,1.6,0,0,0-.541.361,1.521,1.521,0,0,0-.36.527,1.648,1.648,0,0,0,0,1.223,1.626,1.626,0,0,0,.36.539,1.578,1.578,0,0,0,1.152.479,1.67,1.67,0,0,0,.623-.119,1.489,1.489,0,0,0,.527-.36l.383-.373.745.758-.373.372a2.731,2.731,0,0,1-.9.6,2.8,2.8,0,0,1-1.008.191,2.9,2.9,0,0,1-1.02-.191,2.748,2.748,0,0,1-.886-.6,2.618,2.618,0,0,1-.587-.887,2.773,2.773,0,0,1,0-2.028,2.594,2.594,0,0,1,.587-.886" transform="translate(-195.013 -316.664)" fill="#fff" fill-rule="evenodd"/><path d="M235.317,390.7l.756.757-.371.372a2.725,2.725,0,0,1-.876.588,2.737,2.737,0,0,1-2.062,0,2.737,2.737,0,0,1-.875-.588,2.583,2.583,0,0,1-.587-.887,2.827,2.827,0,0,1-.192-1.019,2.726,2.726,0,0,1,.192-1.007,2.671,2.671,0,0,1,1.474-1.476,2.708,2.708,0,0,1,1.019-.2,2.609,2.609,0,0,1,1.008.2,2.58,2.58,0,0,1,.9.588l.371.371-2.985,2.986a1.581,1.581,0,0,0,1.858-.312Zm-2.673-1.929a1.57,1.57,0,0,0-.48,1.152,1.547,1.547,0,0,0,.169.706c.1-.095.238-.239.431-.43s.407-.408.622-.623.437-.436.636-.636.368-.355.48-.468a1.611,1.611,0,0,0-.971-.156,1.535,1.535,0,0,0-.887.456" transform="translate(-201.883 -316.693)" fill="#fff" fill-rule="evenodd"/><path d="M244.064,389.891a2.634,2.634,0,0,1,.2-1.041,2.744,2.744,0,0,1,.575-.852,2.639,2.639,0,0,1,.864-.575,2.545,2.545,0,0,1,1.041-.216,2.494,2.494,0,0,1,1.042.216,2.6,2.6,0,0,1,.863.575,2.486,2.486,0,0,1,.578.852,2.518,2.518,0,0,1,.215,1.041v2.7H248.38v-2.7a1.484,1.484,0,0,0-.131-.622,1.651,1.651,0,0,0-.864-.864,1.618,1.618,0,0,0-1.27,0,1.634,1.634,0,0,0-.515.349,1.659,1.659,0,0,0-.348.515,1.582,1.582,0,0,0-.119.622v2.7h-1.068Z" transform="translate(-208.912 -316.678)" fill="#fff" fill-rule="evenodd"/><path d="M258.749,387.972a2.593,2.593,0,0,1,.888-.587,2.7,2.7,0,0,1,1.018-.2,2.636,2.636,0,0,1,1.008.2,2.587,2.587,0,0,1,.9.587l.37.373-.742.754-.384-.371a1.591,1.591,0,0,0-.54-.361,1.621,1.621,0,0,0-1.223,0,1.574,1.574,0,0,0-.539.361,1.473,1.473,0,0,0-.359.527,1.6,1.6,0,0,0,0,1.223,1.641,1.641,0,0,0,1.51,1.018,1.672,1.672,0,0,0,.624-.119,1.493,1.493,0,0,0,.527-.36l.384-.373.742.758-.37.372a2.738,2.738,0,0,1-.9.6,2.806,2.806,0,0,1-1.008.191,2.874,2.874,0,0,1-1.018-.191,2.748,2.748,0,0,1-.888-.6,2.6,2.6,0,0,1-.588-.887,2.8,2.8,0,0,1,0-2.028,2.58,2.58,0,0,1,.588-.886" transform="translate(-216.458 -316.664)" fill="#fff" fill-rule="evenodd"/><path d="M270.6,389.919a2.639,2.639,0,0,1,.2-1.042,2.767,2.767,0,0,1,.576-.852,2.652,2.652,0,0,1,.864-.576,2.642,2.642,0,0,1,2.086,0,2.658,2.658,0,0,1,.862.576,2.693,2.693,0,0,1,.79,1.894,2.544,2.544,0,0,1-.214,1.043,2.59,2.59,0,0,1-.575.864,2.826,2.826,0,0,1-.862.587,2.779,2.779,0,0,1-2.086,0,2.818,2.818,0,0,1-.864-.587,2.947,2.947,0,0,1-.576-.864,2.718,2.718,0,0,1-.2-1.043m1.056,0a1.666,1.666,0,0,0,.12.636,1.564,1.564,0,0,0,.874.874,1.683,1.683,0,0,0,.636.121,1.577,1.577,0,0,0,1.15-.468,1.56,1.56,0,0,0,.349-.527,1.583,1.583,0,0,0,.13-.636,1.5,1.5,0,0,0-.13-.623,1.409,1.409,0,0,0-.349-.516,1.451,1.451,0,0,0-.516-.349,1.55,1.55,0,0,0-.635-.131,1.567,1.567,0,0,0-.636.131,1.584,1.584,0,0,0-.527.349,1.635,1.635,0,0,0-.347.516,1.576,1.576,0,0,0-.12.623" transform="translate(-223.311 -316.693)" fill="#fff" fill-rule="evenodd"/><path d="M288.85,387.18v1.066H285.6a.535.535,0,0,0-.539.541.561.561,0,0,0,.156.395.523.523,0,0,0,.383.154h2.158a1.468,1.468,0,0,1,.623.134,1.506,1.506,0,0,1,.515.336,1.425,1.425,0,0,1,.347.514,1.446,1.446,0,0,1,.133.623,1.507,1.507,0,0,1-.133.635,1.54,1.54,0,0,1-.347.515,1.651,1.651,0,0,1-.515.349,1.6,1.6,0,0,1-.623.12h-3.236V391.5h3.236a.53.53,0,0,0,.395-.155.54.54,0,0,0,.157-.4.523.523,0,0,0-.157-.385.536.536,0,0,0-.395-.154H285.6a1.682,1.682,0,0,1-.634-.119,1.728,1.728,0,0,1-.5-.349,1.845,1.845,0,0,1-.347-.515,1.678,1.678,0,0,1-.12-.634,1.587,1.587,0,0,1,.12-.623,1.681,1.681,0,0,1,.347-.517,1.65,1.65,0,0,1,1.138-.467Z" transform="translate(-230.58 -316.663)" fill="#fff" fill-rule="evenodd"/><path d="M303.224,387.18v2.686a2.568,2.568,0,0,1-.215,1.043,2.656,2.656,0,0,1-.577.864,2.777,2.777,0,0,1-.863.586,2.622,2.622,0,0,1-1.042.2,2.693,2.693,0,0,1-1.043-.2,2.813,2.813,0,0,1-.862-.586,2.97,2.97,0,0,1-.575-.864,2.7,2.7,0,0,1-.2-1.043V387.18h1.068v2.686a1.648,1.648,0,0,0,.12.635,1.829,1.829,0,0,0,.347.527,1.889,1.889,0,0,0,.515.347,1.741,1.741,0,0,0,1.272,0,1.657,1.657,0,0,0,.515-.347,1.553,1.553,0,0,0,.348-.527,1.576,1.576,0,0,0,.132-.635V387.18Z" transform="translate(-238.094 -316.663)" fill="#fff" fill-rule="evenodd"/><path d="M316.568,382.466v4.84a2.563,2.563,0,0,1-.218,1.045,2.746,2.746,0,0,1-1.425,1.45,2.775,2.775,0,0,1-2.087,0,2.765,2.765,0,0,1-1.449-1.45,2.663,2.663,0,0,1-.205-1.045,2.586,2.586,0,0,1,.791-1.892,2.65,2.65,0,0,1,.863-.575,2.566,2.566,0,0,1,1.044-.216H315.5v-2.157Zm-2.686,6.471a1.609,1.609,0,0,0,.622-.119,1.658,1.658,0,0,0,.515-.348,1.534,1.534,0,0,0,.349-.527,1.586,1.586,0,0,0,.132-.637V385.69h-1.618a1.535,1.535,0,0,0-.635.132,1.553,1.553,0,0,0-.531.348,1.739,1.739,0,0,0-.347.516,1.63,1.63,0,0,0-.119.621,1.739,1.739,0,0,0,.119.637,1.892,1.892,0,0,0,.347.527,1.86,1.86,0,0,0,.531.348,1.7,1.7,0,0,0,.635.119" transform="translate(-245.333 -314.105)" fill="#fff" fill-rule="evenodd"/><path d="M334.825,314.03l-9.347,24.514-5.376-.015,3.526-7.994-6.35-16.49h5.361l3.463,10.636.191,0,3.2-10.647Z" transform="translate(-248.639 -276.97)" fill="#ffef41"/><path d="M295.806,325.808c0,3.919-4.3,5.384-8.337,5.386s-8.236-1.551-8.239-5.412h5.312c0,1.207,1.671,1.664,2.933,1.662,1.238,0,2.845-.33,2.845-1.5,0-1.469-2-1.683-5.136-2.5-3.257-.854-5.577-2.28-5.581-5.347,0-3.9,3.8-5.234,7.858-5.24,4.017,0,7.687,1.33,7.69,5.226l-5.247.017c0-1.083-1.332-1.5-2.443-1.5s-2.433.27-2.433,1.342c.005,1.472,2.242,1.658,4.769,2.276,3.232.785,6,2.1,6.008,5.584" transform="translate(-227.994 -276.337)" fill="#ffef41"/><path d="M250.9,330.517l-4.979.033.012-1.967-.193,0c-.83,1.671-2.49,2.589-5.067,2.6-4.368.008-8.152-3.577-8.156-9.223-.005-5.719,3.447-9.127,7.837-9.13a6.091,6.091,0,0,1,5.343,2.5l.192-.005-.01-1.931h5Zm-5.049-8.567c0-2.3-1.274-4.441-4.237-4.437s-3.923,2.394-3.923,4.456c0,2.17,1.162,4.52,4.158,4.522,3.071-.01,4-2.475,4-4.54" transform="translate(-202.648 -276.319)" fill="#ffef41"/><path d="M205.4,321.838c0,.679-.093,1.751-.093,1.751l-12.36.005a3.552,3.552,0,0,0,3.728,3.422,2.955,2.955,0,0,0,3-1.626l5.364.008c-.488,2.546-2.693,5.767-8.272,5.771a9.022,9.022,0,0,1-9.094-9.323c0-5.167,3.382-9,8.72-9.012a8.673,8.673,0,0,1,9.007,9m-5.325-1.712a3.3,3.3,0,0,0-3.6-3.14,3.479,3.479,0,0,0-3.535,3.14Z" transform="translate(-178.313 -276.322)" fill="#ffef41"/><path d="M245.242,363.225c-13.635-1.838-27.335-1.945-48.57-.429l.232-.977c21.221-1.873,37.948-2.857,47.119-2.575,5.409.166,7.055.56,7.055,2.478,0,2.046-2.4,1.967-5.836,1.5" transform="translate(-183.196 -301.479)" fill="#ffef41"/></g><g transform="translate(1324.624 2328.491)"><g transform="matrix(1, 0, 0, 1, -844.62, -47.49)" filter="url(#f)"><path d="M242.695,242.225a7.225,7.225,0,0,1,3.868-1.1,7.377,7.377,0,0,1,7.377,7.376,7.28,7.28,0,0,1-1.044,3.788l.034.024a48.219,48.219,0,1,1-10.234-10.091" transform="translate(677.42 -185.51)" fill="#fff" fill-rule="evenodd"/></g><path d="M254.769,261.1a7.783,7.783,0,0,1-2.578.469,7.33,7.33,0,0,1-6.852-9.911,42.648,42.648,0,1,0,9.431,9.442" transform="translate(-172.893 -238.708)" fill="#e00111" fill-rule="evenodd"/><path d="M331.9,261.975A4.03,4.03,0,1,1,335.926,266a4.027,4.027,0,0,1-4.027-4.025" transform="translate(-256.573 -246.539)" fill="#e00111"/><path d="M219.228,387.972a2.592,2.592,0,0,1,.886-.587,2.725,2.725,0,0,1,1.02-.2,2.629,2.629,0,0,1,1.008.2,2.581,2.581,0,0,1,.9.587l.373.373-.745.754-.383-.371a1.587,1.587,0,0,0-.541-.361,1.615,1.615,0,0,0-1.221,0,1.6,1.6,0,0,0-.541.361,1.521,1.521,0,0,0-.36.527,1.648,1.648,0,0,0,0,1.223,1.626,1.626,0,0,0,.36.539,1.578,1.578,0,0,0,1.152.479,1.67,1.67,0,0,0,.623-.119,1.489,1.489,0,0,0,.527-.36l.383-.373.745.758-.373.372a2.731,2.731,0,0,1-.9.6,2.8,2.8,0,0,1-1.008.191,2.9,2.9,0,0,1-1.02-.191,2.748,2.748,0,0,1-.886-.6,2.618,2.618,0,0,1-.587-.887,2.773,2.773,0,0,1,0-2.028,2.594,2.594,0,0,1,.587-.886" transform="translate(-195.013 -316.664)" fill="#fff" fill-rule="evenodd"/><path d="M235.317,390.7l.756.757-.371.372a2.725,2.725,0,0,1-.876.588,2.737,2.737,0,0,1-2.062,0,2.737,2.737,0,0,1-.875-.588,2.583,2.583,0,0,1-.587-.887,2.827,2.827,0,0,1-.192-1.019,2.726,2.726,0,0,1,.192-1.007,2.671,2.671,0,0,1,1.474-1.476,2.708,2.708,0,0,1,1.019-.2,2.609,2.609,0,0,1,1.008.2,2.58,2.58,0,0,1,.9.588l.371.371-2.985,2.986a1.581,1.581,0,0,0,1.858-.312Zm-2.673-1.929a1.57,1.57,0,0,0-.48,1.152,1.547,1.547,0,0,0,.169.706c.1-.095.238-.239.431-.43s.407-.408.622-.623.437-.436.636-.636.368-.355.48-.468a1.611,1.611,0,0,0-.971-.156,1.535,1.535,0,0,0-.887.456" transform="translate(-201.883 -316.693)" fill="#fff" fill-rule="evenodd"/><path d="M244.064,389.891a2.634,2.634,0,0,1,.2-1.041,2.744,2.744,0,0,1,.575-.852,2.639,2.639,0,0,1,.864-.575,2.545,2.545,0,0,1,1.041-.216,2.494,2.494,0,0,1,1.042.216,2.6,2.6,0,0,1,.863.575,2.486,2.486,0,0,1,.578.852,2.518,2.518,0,0,1,.215,1.041v2.7H248.38v-2.7a1.484,1.484,0,0,0-.131-.622,1.651,1.651,0,0,0-.864-.864,1.618,1.618,0,0,0-1.27,0,1.634,1.634,0,0,0-.515.349,1.659,1.659,0,0,0-.348.515,1.582,1.582,0,0,0-.119.622v2.7h-1.068Z" transform="translate(-208.912 -316.678)" fill="#fff" fill-rule="evenodd"/><path d="M258.749,387.972a2.593,2.593,0,0,1,.888-.587,2.7,2.7,0,0,1,1.018-.2,2.636,2.636,0,0,1,1.008.2,2.587,2.587,0,0,1,.9.587l.37.373-.742.754-.384-.371a1.591,1.591,0,0,0-.54-.361,1.621,1.621,0,0,0-1.223,0,1.574,1.574,0,0,0-.539.361,1.473,1.473,0,0,0-.359.527,1.6,1.6,0,0,0,0,1.223,1.641,1.641,0,0,0,1.51,1.018,1.672,1.672,0,0,0,.624-.119,1.493,1.493,0,0,0,.527-.36l.384-.373.742.758-.37.372a2.738,2.738,0,0,1-.9.6,2.806,2.806,0,0,1-1.008.191,2.874,2.874,0,0,1-1.018-.191,2.748,2.748,0,0,1-.888-.6,2.6,2.6,0,0,1-.588-.887,2.8,2.8,0,0,1,0-2.028,2.58,2.58,0,0,1,.588-.886" transform="translate(-216.458 -316.664)" fill="#fff" fill-rule="evenodd"/><path d="M270.6,389.919a2.639,2.639,0,0,1,.2-1.042,2.767,2.767,0,0,1,.576-.852,2.652,2.652,0,0,1,.864-.576,2.642,2.642,0,0,1,2.086,0,2.658,2.658,0,0,1,.862.576,2.693,2.693,0,0,1,.79,1.894,2.544,2.544,0,0,1-.214,1.043,2.59,2.59,0,0,1-.575.864,2.826,2.826,0,0,1-.862.587,2.779,2.779,0,0,1-2.086,0,2.818,2.818,0,0,1-.864-.587,2.947,2.947,0,0,1-.576-.864,2.718,2.718,0,0,1-.2-1.043m1.056,0a1.666,1.666,0,0,0,.12.636,1.564,1.564,0,0,0,.874.874,1.683,1.683,0,0,0,.636.121,1.577,1.577,0,0,0,1.15-.468,1.56,1.56,0,0,0,.349-.527,1.583,1.583,0,0,0,.13-.636,1.5,1.5,0,0,0-.13-.623,1.409,1.409,0,0,0-.349-.516,1.451,1.451,0,0,0-.516-.349,1.55,1.55,0,0,0-.635-.131,1.567,1.567,0,0,0-.636.131,1.584,1.584,0,0,0-.527.349,1.635,1.635,0,0,0-.347.516,1.576,1.576,0,0,0-.12.623" transform="translate(-223.311 -316.693)" fill="#fff" fill-rule="evenodd"/><path d="M288.85,387.18v1.066H285.6a.535.535,0,0,0-.539.541.561.561,0,0,0,.156.395.523.523,0,0,0,.383.154h2.158a1.468,1.468,0,0,1,.623.134,1.506,1.506,0,0,1,.515.336,1.425,1.425,0,0,1,.347.514,1.446,1.446,0,0,1,.133.623,1.507,1.507,0,0,1-.133.635,1.54,1.54,0,0,1-.347.515,1.651,1.651,0,0,1-.515.349,1.6,1.6,0,0,1-.623.12h-3.236V391.5h3.236a.53.53,0,0,0,.395-.155.54.54,0,0,0,.157-.4.523.523,0,0,0-.157-.385.536.536,0,0,0-.395-.154H285.6a1.682,1.682,0,0,1-.634-.119,1.728,1.728,0,0,1-.5-.349,1.845,1.845,0,0,1-.347-.515,1.678,1.678,0,0,1-.12-.634,1.587,1.587,0,0,1,.12-.623,1.681,1.681,0,0,1,.347-.517,1.65,1.65,0,0,1,1.138-.467Z" transform="translate(-230.58 -316.663)" fill="#fff" fill-rule="evenodd"/><path d="M303.224,387.18v2.686a2.568,2.568,0,0,1-.215,1.043,2.656,2.656,0,0,1-.577.864,2.777,2.777,0,0,1-.863.586,2.622,2.622,0,0,1-1.042.2,2.693,2.693,0,0,1-1.043-.2,2.813,2.813,0,0,1-.862-.586,2.97,2.97,0,0,1-.575-.864,2.7,2.7,0,0,1-.2-1.043V387.18h1.068v2.686a1.648,1.648,0,0,0,.12.635,1.829,1.829,0,0,0,.347.527,1.889,1.889,0,0,0,.515.347,1.741,1.741,0,0,0,1.272,0,1.657,1.657,0,0,0,.515-.347,1.553,1.553,0,0,0,.348-.527,1.576,1.576,0,0,0,.132-.635V387.18Z" transform="translate(-238.094 -316.663)" fill="#fff" fill-rule="evenodd"/><path d="M316.568,382.466v4.84a2.563,2.563,0,0,1-.218,1.045,2.746,2.746,0,0,1-1.425,1.45,2.775,2.775,0,0,1-2.087,0,2.765,2.765,0,0,1-1.449-1.45,2.663,2.663,0,0,1-.205-1.045,2.586,2.586,0,0,1,.791-1.892,2.65,2.65,0,0,1,.863-.575,2.566,2.566,0,0,1,1.044-.216H315.5v-2.157Zm-2.686,6.471a1.609,1.609,0,0,0,.622-.119,1.658,1.658,0,0,0,.515-.348,1.534,1.534,0,0,0,.349-.527,1.586,1.586,0,0,0,.132-.637V385.69h-1.618a1.535,1.535,0,0,0-.635.132,1.553,1.553,0,0,0-.531.348,1.739,1.739,0,0,0-.347.516,1.63,1.63,0,0,0-.119.621,1.739,1.739,0,0,0,.119.637,1.892,1.892,0,0,0,.347.527,1.86,1.86,0,0,0,.531.348,1.7,1.7,0,0,0,.635.119" transform="translate(-245.333 -314.105)" fill="#fff" fill-rule="evenodd"/><path d="M334.825,314.03l-9.347,24.514-5.376-.015,3.526-7.994-6.35-16.49h5.361l3.463,10.636.191,0,3.2-10.647Z" transform="translate(-248.639 -276.97)" fill="#ffef41"/><path d="M295.806,325.808c0,3.919-4.3,5.384-8.337,5.386s-8.236-1.551-8.239-5.412h5.312c0,1.207,1.671,1.664,2.933,1.662,1.238,0,2.845-.33,2.845-1.5,0-1.469-2-1.683-5.136-2.5-3.257-.854-5.577-2.28-5.581-5.347,0-3.9,3.8-5.234,7.858-5.24,4.017,0,7.687,1.33,7.69,5.226l-5.247.017c0-1.083-1.332-1.5-2.443-1.5s-2.433.27-2.433,1.342c.005,1.472,2.242,1.658,4.769,2.276,3.232.785,6,2.1,6.008,5.584" transform="translate(-227.994 -276.337)" fill="#ffef41"/><path d="M250.9,330.517l-4.979.033.012-1.967-.193,0c-.83,1.671-2.49,2.589-5.067,2.6-4.368.008-8.152-3.577-8.156-9.223-.005-5.719,3.447-9.127,7.837-9.13a6.091,6.091,0,0,1,5.343,2.5l.192-.005-.01-1.931h5Zm-5.049-8.567c0-2.3-1.274-4.441-4.237-4.437s-3.923,2.394-3.923,4.456c0,2.17,1.162,4.52,4.158,4.522,3.071-.01,4-2.475,4-4.54" transform="translate(-202.648 -276.319)" fill="#ffef41"/><path d="M205.4,321.838c0,.679-.093,1.751-.093,1.751l-12.36.005a3.552,3.552,0,0,0,3.728,3.422,2.955,2.955,0,0,0,3-1.626l5.364.008c-.488,2.546-2.693,5.767-8.272,5.771a9.022,9.022,0,0,1-9.094-9.323c0-5.167,3.382-9,8.72-9.012a8.673,8.673,0,0,1,9.007,9m-5.325-1.712a3.3,3.3,0,0,0-3.6-3.14,3.479,3.479,0,0,0-3.535,3.14Z" transform="translate(-178.313 -276.322)" fill="#ffef41"/><path d="M245.242,363.225c-13.635-1.838-27.335-1.945-48.57-.429l.232-.977c21.221-1.873,37.948-2.857,47.119-2.575,5.409.166,7.055.56,7.055,2.478,0,2.046-2.4,1.967-5.836,1.5" transform="translate(-183.196 -301.479)" fill="#ffef41"/></g></g></svg>