<svg xmlns="http://www.w3.org/2000/svg" xmlns:xlink="http://www.w3.org/1999/xlink" width="976" height="186.405" viewBox="0 0 976 186.405"><defs><clipPath id="a"><rect width="976" height="186" fill="#e00111" stroke="#dfe8ec" stroke-width="1"/></clipPath><filter id="b" x="253.963" y="-121.904" width="429.709" height="429.714" filterUnits="userSpaceOnUse"><feOffset input="SourceAlpha"/><feGaussianBlur stdDeviation="2.5" result="c"/><feFlood flood-opacity="0.161"/><feComposite operator="in" in2="c"/><feComposite in="SourceGraphic"/></filter></defs><g transform="translate(-481 -1898)"><rect width="976" height="186" transform="translate(481 1898)" fill="#e00111"/><path d="M1,1V185H975V1H1M0,0H976V186H0Z" transform="translate(481 1898)" fill="#dfe8ec"/><g transform="translate(481 1898)" clip-path="url(#a)"><g transform="translate(261.463 -114.404)"><g transform="matrix(1, 0, 0, 1, -261.46, 114.4)" filter="url(#b)"><path d="M497.287,273.326a31.594,31.594,0,0,1,16.911-4.8,32.257,32.257,0,0,1,32.256,32.253,31.83,31.83,0,0,1-4.566,16.566l.148.106c25.311,34.387,39.881,76.93,39.881,122.907,0,114.524-92.834,207.358-207.358,207.358S167.208,554.883,167.208,440.358,260.042,233,374.56,233a206.791,206.791,0,0,1,122.728,40.323" transform="translate(94.26 -347.41)" fill="#fff" fill-rule="evenodd"/></g><path d="M514.751,320.387a34.027,34.027,0,0,1-11.274,2.052A32.051,32.051,0,0,1,473.514,279.1a185.621,185.621,0,0,0-109.526-35.583c-102.89,0-186.3,83.41-186.3,186.314,0,102.886,83.414,186.3,186.3,186.3s186.31-83.416,186.31-186.3a185.867,185.867,0,0,0-35.547-109.444" transform="translate(-156.732 -222.489)" fill="#e00111" fill-rule="evenodd"/><path d="M331.9,275.556a17.623,17.623,0,1,1,17.608,17.6,17.608,17.608,0,0,1-17.608-17.6" transform="translate(-2.524 -208.059)" fill="#4b4b4b"/><path d="M221.855,390.641a11.338,11.338,0,0,1,3.876-2.568,11.919,11.919,0,0,1,4.46-.892,11.5,11.5,0,0,1,4.408.892,11.284,11.284,0,0,1,3.926,2.568l1.63,1.63-3.258,3.3-1.674-1.621a6.941,6.941,0,0,0-2.366-1.578,7.062,7.062,0,0,0-5.338,0,6.99,6.99,0,0,0-2.364,1.578,6.647,6.647,0,0,0-1.574,2.306,7.2,7.2,0,0,0,0,5.346,7.11,7.11,0,0,0,1.574,2.358,6.9,6.9,0,0,0,5.036,2.094,7.3,7.3,0,0,0,2.726-.522,6.507,6.507,0,0,0,2.306-1.572l1.674-1.629,3.258,3.314-1.63,1.626a11.944,11.944,0,0,1-3.926,2.62,12.237,12.237,0,0,1-4.408.836,12.687,12.687,0,0,1-4.46-.836,12.019,12.019,0,0,1-3.876-2.62,11.449,11.449,0,0,1-2.566-3.88,12.126,12.126,0,0,1,0-8.87,11.345,11.345,0,0,1,2.566-3.874" transform="translate(-115.969 -78.831)" fill="#fff" fill-rule="evenodd"/><path d="M249.505,402.374l3.3,3.308-1.622,1.626a11.911,11.911,0,0,1-3.83,2.57,11.967,11.967,0,0,1-9.016,0,11.969,11.969,0,0,1-3.828-2.57,11.3,11.3,0,0,1-2.566-3.88,12.366,12.366,0,0,1-.838-4.454,11.923,11.923,0,0,1,.838-4.4,11.678,11.678,0,0,1,6.444-6.454,11.838,11.838,0,0,1,4.456-.882,11.4,11.4,0,0,1,4.406.882,11.277,11.277,0,0,1,3.934,2.572l1.622,1.624L239.756,405.37A6.911,6.911,0,0,0,247.882,404Zm-11.688-8.436a6.864,6.864,0,0,0-2.1,5.036,6.763,6.763,0,0,0,.74,3.086c.418-.414,1.04-1.046,1.884-1.878.872-.886,1.78-1.786,2.72-2.726q1.476-1.47,2.782-2.782,1.368-1.308,2.1-2.046a7.045,7.045,0,0,0-4.246-.684,6.711,6.711,0,0,0-3.88,1.994" transform="translate(-103.309 -78.776)" fill="#fff" fill-rule="evenodd"/><path d="M244.064,398.945a11.523,11.523,0,0,1,.894-4.552,12,12,0,0,1,2.516-3.726,11.544,11.544,0,0,1,3.78-2.514,11.129,11.129,0,0,1,4.554-.946,10.907,10.907,0,0,1,4.558.946,11.366,11.366,0,0,1,3.772,2.514,10.873,10.873,0,0,1,2.526,3.726,11.009,11.009,0,0,1,.942,4.552v11.792h-4.668V398.945a6.49,6.49,0,0,0-.574-2.72,7.222,7.222,0,0,0-3.78-3.778,7.07,7.07,0,0,0-5.554,0,7.15,7.15,0,0,0-2.254,1.526,7.25,7.25,0,0,0-1.52,2.252,6.919,6.919,0,0,0-.52,2.72v11.792h-4.672Z" transform="translate(-90.355 -78.805)" fill="#fff" fill-rule="evenodd"/><path d="M261.373,390.641a11.338,11.338,0,0,1,3.882-2.568,11.808,11.808,0,0,1,4.452-.892,11.531,11.531,0,0,1,4.408.892,11.313,11.313,0,0,1,3.928,2.568l1.62,1.63-3.244,3.3-1.678-1.621a6.951,6.951,0,0,0-2.36-1.578,7.087,7.087,0,0,0-5.348,0,6.883,6.883,0,0,0-2.356,1.578,6.44,6.44,0,0,0-1.572,2.306,7.007,7.007,0,0,0,0,5.346,7.174,7.174,0,0,0,6.6,4.451,7.308,7.308,0,0,0,2.728-.522,6.52,6.52,0,0,0,2.306-1.572l1.678-1.629,3.244,3.314-1.62,1.626a11.976,11.976,0,0,1-3.928,2.62,12.27,12.27,0,0,1-4.408.836,12.567,12.567,0,0,1-4.452-.836,12.017,12.017,0,0,1-3.882-2.62,11.385,11.385,0,0,1-2.572-3.88,12.265,12.265,0,0,1,0-8.87,11.282,11.282,0,0,1,2.572-3.874" transform="translate(-76.449 -78.831)" fill="#fff" fill-rule="evenodd"/><path d="M270.6,398.973a11.538,11.538,0,0,1,.89-4.556,12.1,12.1,0,0,1,2.518-3.726,11.592,11.592,0,0,1,3.778-2.518,11.556,11.556,0,0,1,9.122,0,11.618,11.618,0,0,1,3.768,2.518,11.776,11.776,0,0,1,3.454,8.282,11.12,11.12,0,0,1-.938,4.56,11.321,11.321,0,0,1-2.516,3.776,12.356,12.356,0,0,1-3.768,2.568,12.155,12.155,0,0,1-9.122,0,12.324,12.324,0,0,1-3.778-2.568,12.884,12.884,0,0,1-2.518-3.776,11.888,11.888,0,0,1-.89-4.56m4.616,0a7.287,7.287,0,0,0,.526,2.78,6.84,6.84,0,0,0,3.82,3.822,7.358,7.358,0,0,0,2.78.528,6.9,6.9,0,0,0,5.03-2.046,6.813,6.813,0,0,0,1.524-2.3,6.921,6.921,0,0,0,.57-2.78,6.545,6.545,0,0,0-.57-2.722A6.156,6.156,0,0,0,287.373,394a6.344,6.344,0,0,0-2.254-1.525,6.78,6.78,0,0,0-2.776-.574,7.392,7.392,0,0,0-5.084,2.1,7.146,7.146,0,0,0-1.516,2.254,6.89,6.89,0,0,0-.526,2.722" transform="translate(-63.819 -78.777)" fill="#fff" fill-rule="evenodd"/><path d="M305.221,387.18v4.662H291.016a2.339,2.339,0,0,0-2.358,2.368,2.452,2.452,0,0,0,.684,1.726,2.287,2.287,0,0,0,1.674.674h9.438a6.426,6.426,0,0,1,2.724.584,6.587,6.587,0,0,1,2.252,1.47,6.232,6.232,0,0,1,1.518,2.248,6.326,6.326,0,0,1,.58,2.726,6.6,6.6,0,0,1-.58,2.778,6.736,6.736,0,0,1-1.518,2.254,7.221,7.221,0,0,1-2.252,1.526,6.977,6.977,0,0,1-2.724.526H286.306V406.05h14.148a2.317,2.317,0,0,0,1.726-.676,2.362,2.362,0,0,0,.686-1.736,2.287,2.287,0,0,0-.686-1.682,2.345,2.345,0,0,0-1.726-.674h-9.438a7.355,7.355,0,0,1-2.774-.522,7.562,7.562,0,0,1-2.2-1.524,8.074,8.074,0,0,1-1.516-2.254A7.34,7.34,0,0,1,284,394.21a6.942,6.942,0,0,1,.526-2.726,7.349,7.349,0,0,1,1.516-2.262,7.216,7.216,0,0,1,4.978-2.042Z" transform="translate(-50.425 -78.832)" fill="#fff" fill-rule="evenodd"/><path d="M321.374,387.18v11.744a11.23,11.23,0,0,1-.94,4.562,11.611,11.611,0,0,1-2.522,3.778,12.146,12.146,0,0,1-3.772,2.562,11.469,11.469,0,0,1-4.558.9,11.782,11.782,0,0,1-4.562-.9,12.3,12.3,0,0,1-3.768-2.562,12.978,12.978,0,0,1-2.516-3.778,11.781,11.781,0,0,1-.894-4.562V387.18h4.668v11.744a7.2,7.2,0,0,0,.526,2.778,8,8,0,0,0,1.516,2.306,8.262,8.262,0,0,0,2.252,1.516,7.613,7.613,0,0,0,5.562,0,7.25,7.25,0,0,0,2.252-1.516,6.792,6.792,0,0,0,1.52-2.306,6.892,6.892,0,0,0,.578-2.778V387.18Z" transform="translate(-36.578 -78.832)" fill="#fff" fill-rule="evenodd"/><path d="M334.725,382.466v21.166a11.2,11.2,0,0,1-.952,4.568,12.005,12.005,0,0,1-6.232,6.342,12.135,12.135,0,0,1-9.124,0,12.086,12.086,0,0,1-6.336-6.342,11.64,11.64,0,0,1-.9-4.568,11.308,11.308,0,0,1,3.458-8.274,11.587,11.587,0,0,1,3.776-2.516,11.216,11.216,0,0,1,4.564-.944h7.076v-9.432Zm-11.744,28.3a7.033,7.033,0,0,0,2.72-.522,7.249,7.249,0,0,0,2.254-1.522,6.7,6.7,0,0,0,1.524-2.3,6.934,6.934,0,0,0,.578-2.784v-7.07h-7.076a6.72,6.72,0,0,0-2.778.578,6.793,6.793,0,0,0-2.32,1.52,7.608,7.608,0,0,0-1.516,2.258,7.132,7.132,0,0,0-.522,2.714,7.611,7.611,0,0,0,.522,2.784,8.27,8.27,0,0,0,1.516,2.3,8.121,8.121,0,0,0,2.32,1.522,7.42,7.42,0,0,0,2.778.522" transform="translate(-23.238 -83.546)" fill="#fff" fill-rule="evenodd"/><path d="M394.006,314.03,353.133,421.221l-23.508-.066L345.043,386.2l-27.765-72.1h23.444L355.865,360.6l.834-.012,14.013-46.555Z" transform="translate(-17.144 -151.98)" fill="#ffef41"/><path d="M351.712,369.465c.01,17.136-18.786,23.541-36.457,23.553-17.644,0-36.011-6.782-36.025-23.665h23.229c0,5.28,7.308,7.276,12.826,7.266,5.412,0,12.44-1.442,12.44-6.542-.008-6.422-8.738-7.358-22.457-10.92-14.24-3.736-24.386-9.97-24.4-23.382-.01-17.048,16.606-22.886,34.361-22.912,17.565,0,33.611,5.816,33.627,22.852l-22.944.074c0-4.736-5.826-6.576-10.684-6.56-4.89.012-10.638,1.182-10.638,5.868.024,6.438,9.8,7.248,20.853,9.952,14.132,3.434,26.252,9.182,26.269,24.416" transform="translate(-55.191 -153.145)" fill="#ffef41"/><path d="M312.9,390.169l-21.772.146.052-8.6-.842.018c-3.628,7.306-10.89,11.32-22.157,11.349-19.1.034-35.645-15.639-35.661-40.329-.022-25.005,15.074-39.909,34.269-39.921,10.642-.024,19.442,4.376,23.364,10.93l.842-.024-.042-8.444h21.868Zm-22.076-37.461c-.018-10.04-5.57-19.42-18.528-19.4-12.986.018-17.155,10.47-17.155,19.484.018,9.488,5.082,19.764,18.184,19.772,13.43-.044,17.5-10.824,17.5-19.851" transform="translate(-101.898 -153.179)" fill="#ffef41"/><path d="M265.185,352.2c.008,2.97-.406,7.656-.406,7.656l-54.045.024c.524,8.75,7.086,15,16.3,14.964,6.694.024,11.014-2.48,13.122-7.112l23.455.036c-2.134,11.134-11.776,25.215-36.171,25.236-23.434.05-39.749-18.436-39.767-40.765,0-22.593,14.79-39.375,38.129-39.407,23.481,0,39.373,16.932,39.383,39.369M241.9,344.716c-.306-4.364-3.126-13.732-15.746-13.732-11.31,0-14.992,9.356-15.458,13.732Z" transform="translate(-146.744 -153.174)" fill="#ffef41"/><path d="M409.054,376.811c-59.623-8.036-119.528-8.506-212.382-1.874l1.014-4.272c92.792-8.19,165.935-12.492,206.038-11.26,23.654.728,30.849,2.448,30.849,10.834,0,8.947-10.516,8.6-25.519,6.572" transform="translate(-137.745 -106.814)" fill="#ffef41"/></g></g><path d="M974.226.5H972v-1h2.226ZM966,.5h-6v-1h6Zm-12,0h-6v-1h6Zm-12,0h-6v-1h6Zm-12,0h-6v-1h6Zm-12,0h-6v-1h6Zm-12,0h-6v-1h6Zm-12,0h-6v-1h6Zm-12,0h-6v-1h6Zm-12,0h-6v-1h6Zm-12,0h-6v-1h6Zm-12,0h-6v-1h6Zm-12,0h-6v-1h6Zm-12,0h-6v-1h6Zm-12,0h-6v-1h6Zm-12,0h-6v-1h6Zm-12,0h-6v-1h6Zm-12,0h-6v-1h6Zm-12,0h-6v-1h6Zm-12,0h-6v-1h6Zm-12,0h-6v-1h6Zm-12,0h-6v-1h6Zm-12,0h-6v-1h6Zm-12,0h-6v-1h6Zm-12,0h-6v-1h6Zm-12,0h-6v-1h6Zm-12,0h-6v-1h6Zm-12,0h-6v-1h6Zm-12,0h-6v-1h6Zm-12,0h-6v-1h6Zm-12,0h-6v-1h6Zm-12,0h-6v-1h6Zm-12,0h-6v-1h6Zm-12,0h-6v-1h6Zm-12,0h-6v-1h6Zm-12,0h-6v-1h6Zm-12,0h-6v-1h6Zm-12,0h-6v-1h6Zm-12,0h-6v-1h6Zm-12,0h-6v-1h6Zm-12,0h-6v-1h6Zm-12,0h-6v-1h6Zm-12,0h-6v-1h6Zm-12,0h-6v-1h6Zm-12,0h-6v-1h6Zm-12,0h-6v-1h6Zm-12,0h-6v-1h6Zm-12,0h-6v-1h6Zm-12,0h-6v-1h6Zm-12,0h-6v-1h6Zm-12,0h-6v-1h6Zm-12,0h-6v-1h6Zm-12,0h-6v-1h6Zm-12,0h-6v-1h6Zm-12,0h-6v-1h6Zm-12,0h-6v-1h6Zm-12,0h-6v-1h6Zm-12,0h-6v-1h6Zm-12,0h-6v-1h6Zm-12,0h-6v-1h6Zm-12,0h-6v-1h6Zm-12,0h-6v-1h6Zm-12,0h-6v-1h6Zm-12,0h-6v-1h6Zm-12,0h-6v-1h6Zm-12,0h-6v-1h6Zm-12,0h-6v-1h6Zm-12,0h-6v-1h6Zm-12,0h-6v-1h6Zm-12,0h-6v-1h6Zm-12,0h-6v-1h6Zm-12,0h-6v-1h6Zm-12,0h-6v-1h6Zm-12,0H96v-1h6ZM90,.5H84v-1h6ZM78,.5H72v-1h6ZM66,.5H60v-1h6ZM54,.5H48v-1h6ZM42,.5H36v-1h6ZM30,.5H24v-1h6ZM18,.5H12v-1h6ZM6,.5H0v-1H6Z" transform="translate(482.774 1944.476)" fill="#fff"/><path d="M974.226.5H972v-1h2.226ZM966,.5h-6v-1h6Zm-12,0h-6v-1h6Zm-12,0h-6v-1h6Zm-12,0h-6v-1h6Zm-12,0h-6v-1h6Zm-12,0h-6v-1h6Zm-12,0h-6v-1h6Zm-12,0h-6v-1h6Zm-12,0h-6v-1h6Zm-12,0h-6v-1h6Zm-12,0h-6v-1h6Zm-12,0h-6v-1h6Zm-12,0h-6v-1h6Zm-12,0h-6v-1h6Zm-12,0h-6v-1h6Zm-12,0h-6v-1h6Zm-12,0h-6v-1h6Zm-12,0h-6v-1h6Zm-12,0h-6v-1h6Zm-12,0h-6v-1h6Zm-12,0h-6v-1h6Zm-12,0h-6v-1h6Zm-12,0h-6v-1h6Zm-12,0h-6v-1h6Zm-12,0h-6v-1h6Zm-12,0h-6v-1h6Zm-12,0h-6v-1h6Zm-12,0h-6v-1h6Zm-12,0h-6v-1h6Zm-12,0h-6v-1h6Zm-12,0h-6v-1h6Zm-12,0h-6v-1h6Zm-12,0h-6v-1h6Zm-12,0h-6v-1h6Zm-12,0h-6v-1h6Zm-12,0h-6v-1h6Zm-12,0h-6v-1h6Zm-12,0h-6v-1h6Zm-12,0h-6v-1h6Zm-12,0h-6v-1h6Zm-12,0h-6v-1h6Zm-12,0h-6v-1h6Zm-12,0h-6v-1h6Zm-12,0h-6v-1h6Zm-12,0h-6v-1h6Zm-12,0h-6v-1h6Zm-12,0h-6v-1h6Zm-12,0h-6v-1h6Zm-12,0h-6v-1h6Zm-12,0h-6v-1h6Zm-12,0h-6v-1h6Zm-12,0h-6v-1h6Zm-12,0h-6v-1h6Zm-12,0h-6v-1h6Zm-12,0h-6v-1h6Zm-12,0h-6v-1h6Zm-12,0h-6v-1h6Zm-12,0h-6v-1h6Zm-12,0h-6v-1h6Zm-12,0h-6v-1h6Zm-12,0h-6v-1h6Zm-12,0h-6v-1h6Zm-12,0h-6v-1h6Zm-12,0h-6v-1h6Zm-12,0h-6v-1h6Zm-12,0h-6v-1h6Zm-12,0h-6v-1h6Zm-12,0h-6v-1h6Zm-12,0h-6v-1h6Zm-12,0h-6v-1h6Zm-12,0h-6v-1h6Zm-12,0h-6v-1h6Zm-12,0H96v-1h6ZM90,.5H84v-1h6ZM78,.5H72v-1h6ZM66,.5H60v-1h6ZM54,.5H48v-1h6ZM42,.5H36v-1h6ZM30,.5H24v-1h6ZM18,.5H12v-1h6ZM6,.5H0v-1H6Z" transform="translate(482.774 2025.366)" fill="#fff"/><path d="M974.226.5H972v-1h2.226ZM966,.5h-6v-1h6Zm-12,0h-6v-1h6Zm-12,0h-6v-1h6Zm-12,0h-6v-1h6Zm-12,0h-6v-1h6Zm-12,0h-6v-1h6Zm-12,0h-6v-1h6Zm-12,0h-6v-1h6Zm-12,0h-6v-1h6Zm-12,0h-6v-1h6Zm-12,0h-6v-1h6Zm-12,0h-6v-1h6Zm-12,0h-6v-1h6Zm-12,0h-6v-1h6Zm-12,0h-6v-1h6Zm-12,0h-6v-1h6Zm-12,0h-6v-1h6Zm-12,0h-6v-1h6Zm-12,0h-6v-1h6Zm-12,0h-6v-1h6Zm-12,0h-6v-1h6Zm-12,0h-6v-1h6Zm-12,0h-6v-1h6Zm-12,0h-6v-1h6Zm-12,0h-6v-1h6Zm-12,0h-6v-1h6Zm-12,0h-6v-1h6Zm-12,0h-6v-1h6Zm-12,0h-6v-1h6Zm-12,0h-6v-1h6Zm-12,0h-6v-1h6Zm-12,0h-6v-1h6Zm-12,0h-6v-1h6Zm-12,0h-6v-1h6Zm-12,0h-6v-1h6Zm-12,0h-6v-1h6Zm-12,0h-6v-1h6Zm-12,0h-6v-1h6Zm-12,0h-6v-1h6Zm-12,0h-6v-1h6Zm-12,0h-6v-1h6Zm-12,0h-6v-1h6Zm-12,0h-6v-1h6Zm-12,0h-6v-1h6Zm-12,0h-6v-1h6Zm-12,0h-6v-1h6Zm-12,0h-6v-1h6Zm-12,0h-6v-1h6Zm-12,0h-6v-1h6Zm-12,0h-6v-1h6Zm-12,0h-6v-1h6Zm-12,0h-6v-1h6Zm-12,0h-6v-1h6Zm-12,0h-6v-1h6Zm-12,0h-6v-1h6Zm-12,0h-6v-1h6Zm-12,0h-6v-1h6Zm-12,0h-6v-1h6Zm-12,0h-6v-1h6Zm-12,0h-6v-1h6Zm-12,0h-6v-1h6Zm-12,0h-6v-1h6Zm-12,0h-6v-1h6Zm-12,0h-6v-1h6Zm-12,0h-6v-1h6Zm-12,0h-6v-1h6Zm-12,0h-6v-1h6Zm-12,0h-6v-1h6Zm-12,0h-6v-1h6Zm-12,0h-6v-1h6Zm-12,0h-6v-1h6Zm-12,0h-6v-1h6Zm-12,0H96v-1h6ZM90,.5H84v-1h6ZM78,.5H72v-1h6ZM66,.5H60v-1h6ZM54,.5H48v-1h6ZM42,.5H36v-1h6ZM30,.5H24v-1h6ZM18,.5H12v-1h6ZM6,.5H0v-1H6Z" transform="translate(482.774 2083.905)" fill="#fff"/></g></svg>