<svg xmlns="http://www.w3.org/2000/svg" width="179" height="184" viewBox="0 0 179 184"><g transform="translate(-1061 -835)"><g transform="translate(1084.045 861.677)"><path d="M272.935,245.919a10.119,10.119,0,0,1,5.417-1.538,10.332,10.332,0,0,1,10.332,10.331,10.2,10.2,0,0,1-1.463,5.306l.047.034a67.536,67.536,0,1,1-14.333-14.134" transform="translate(-167.208 -233.003)" fill="#fff" fill-rule="evenodd"/><path d="M285.649,268.139a10.9,10.9,0,0,1-3.611.657,10.266,10.266,0,0,1-9.6-13.882,59.733,59.733,0,1,0,13.209,13.225" transform="translate(-170.973 -236.782)" fill="#e00111" fill-rule="evenodd"/><path d="M331.9,263.588a5.645,5.645,0,1,1,5.64,5.637,5.64,5.64,0,0,1-5.64-5.637" transform="translate(-226.398 -241.968)" fill="#e00111"/><path d="M219.54,388.289a3.632,3.632,0,0,1,1.241-.823,3.817,3.817,0,0,1,1.429-.286,3.683,3.683,0,0,1,1.412.286,3.616,3.616,0,0,1,1.257.823l.522.522-1.044,1.056-.536-.519a2.224,2.224,0,0,0-.758-.506,2.262,2.262,0,0,0-1.71,0,2.24,2.24,0,0,0-.757.506,2.13,2.13,0,0,0-.5.739,2.308,2.308,0,0,0,0,1.712,2.277,2.277,0,0,0,.5.755,2.21,2.21,0,0,0,1.613.671,2.34,2.34,0,0,0,.873-.167,2.086,2.086,0,0,0,.739-.5l.536-.522,1.044,1.061-.522.521a3.824,3.824,0,0,1-1.257.839,3.919,3.919,0,0,1-1.412.268,4.063,4.063,0,0,1-1.429-.268,3.847,3.847,0,0,1-1.241-.839,3.666,3.666,0,0,1-.822-1.243,3.884,3.884,0,0,1,0-2.841,3.634,3.634,0,0,1,.822-1.241" transform="translate(-185.624 -288.415)" fill="#fff" fill-rule="evenodd"/><path d="M237,392.085l1.058,1.06-.52.521a3.815,3.815,0,0,1-1.227.823,3.833,3.833,0,0,1-2.888,0,3.833,3.833,0,0,1-1.226-.823,3.618,3.618,0,0,1-.822-1.243A3.96,3.96,0,0,1,231.11,391a3.819,3.819,0,0,1,.268-1.41,3.741,3.741,0,0,1,2.064-2.067,3.792,3.792,0,0,1,1.427-.283,3.653,3.653,0,0,1,1.411.283,3.613,3.613,0,0,1,1.26.824l.52.52-4.181,4.182a2.214,2.214,0,0,0,2.6-.438Zm-3.744-2.7a2.2,2.2,0,0,0-.673,1.613,2.167,2.167,0,0,0,.237.989c.134-.133.333-.335.6-.6.279-.284.57-.572.871-.873s.612-.611.891-.891.516-.5.673-.655a2.256,2.256,0,0,0-1.36-.219,2.15,2.15,0,0,0-1.243.639" transform="translate(-190.174 -288.434)" fill="#fff" fill-rule="evenodd"/><path d="M244.064,390.967a3.69,3.69,0,0,1,.286-1.458,3.844,3.844,0,0,1,.806-1.193,3.7,3.7,0,0,1,1.211-.805,3.564,3.564,0,0,1,1.459-.3,3.493,3.493,0,0,1,1.46.3,3.64,3.64,0,0,1,1.208.805,3.483,3.483,0,0,1,.809,1.193,3.527,3.527,0,0,1,.3,1.458v3.777h-1.5v-3.777a2.078,2.078,0,0,0-.184-.871,2.312,2.312,0,0,0-1.211-1.21,2.265,2.265,0,0,0-1.779,0,2.287,2.287,0,0,0-.722.489,2.323,2.323,0,0,0-.487.721,2.215,2.215,0,0,0-.167.871v3.777h-1.5Z" transform="translate(-194.83 -288.424)" fill="#fff" fill-rule="evenodd"/><path d="M259.061,388.289a3.633,3.633,0,0,1,1.243-.823,3.782,3.782,0,0,1,1.426-.286,3.693,3.693,0,0,1,1.412.286,3.625,3.625,0,0,1,1.258.823l.519.522-1.039,1.056-.538-.519a2.228,2.228,0,0,0-.756-.506,2.271,2.271,0,0,0-1.713,0,2.205,2.205,0,0,0-.755.506,2.063,2.063,0,0,0-.5.739,2.245,2.245,0,0,0,0,1.712,2.3,2.3,0,0,0,2.115,1.426,2.342,2.342,0,0,0,.874-.167,2.091,2.091,0,0,0,.739-.5l.538-.522,1.039,1.061-.519.521a3.834,3.834,0,0,1-1.258.839,3.931,3.931,0,0,1-1.412.268,4.026,4.026,0,0,1-1.426-.268,3.847,3.847,0,0,1-1.243-.839,3.645,3.645,0,0,1-.824-1.243,3.929,3.929,0,0,1,0-2.841,3.613,3.613,0,0,1,.824-1.241" transform="translate(-199.828 -288.415)" fill="#fff" fill-rule="evenodd"/><path d="M270.6,390.995a3.7,3.7,0,0,1,.285-1.459,3.875,3.875,0,0,1,.807-1.193,3.713,3.713,0,0,1,1.21-.807,3.7,3.7,0,0,1,2.922,0,3.722,3.722,0,0,1,1.207.807,3.771,3.771,0,0,1,1.106,2.653,3.562,3.562,0,0,1-.3,1.46,3.628,3.628,0,0,1-.806,1.21,3.959,3.959,0,0,1-1.207.823,3.893,3.893,0,0,1-2.922,0,3.947,3.947,0,0,1-1.21-.823,4.127,4.127,0,0,1-.807-1.21,3.808,3.808,0,0,1-.285-1.46m1.478,0a2.334,2.334,0,0,0,.168.89,2.19,2.19,0,0,0,1.224,1.224,2.357,2.357,0,0,0,.89.169,2.209,2.209,0,0,0,1.611-.655,2.184,2.184,0,0,0,.488-.738,2.217,2.217,0,0,0,.182-.89,2.1,2.1,0,0,0-.182-.872,1.973,1.973,0,0,0-.488-.722,2.032,2.032,0,0,0-.722-.489,2.17,2.17,0,0,0-.889-.184,2.195,2.195,0,0,0-.89.184,2.217,2.217,0,0,0-.738.489,2.291,2.291,0,0,0-.486.722,2.206,2.206,0,0,0-.168.872" transform="translate(-204.368 -288.434)" fill="#fff" fill-rule="evenodd"/><path d="M290.795,387.18v1.493h-4.55a.749.749,0,0,0-.755.758.786.786,0,0,0,.219.553.733.733,0,0,0,.536.216h3.023a2.056,2.056,0,0,1,.872.187,2.11,2.11,0,0,1,.721.471,2,2,0,0,1,.486.72,2.026,2.026,0,0,1,.186.873,2.112,2.112,0,0,1-.186.89,2.158,2.158,0,0,1-.486.722,2.314,2.314,0,0,1-.721.489,2.235,2.235,0,0,1-.872.169h-4.532v-1.5h4.532a.742.742,0,0,0,.553-.216.756.756,0,0,0,.22-.556.732.732,0,0,0-.22-.539.752.752,0,0,0-.553-.216h-3.023a2.358,2.358,0,0,1-.889-.167,2.422,2.422,0,0,1-.706-.488,2.583,2.583,0,0,1-.486-.722,2.351,2.351,0,0,1-.169-.888,2.224,2.224,0,0,1,.169-.873,2.354,2.354,0,0,1,.486-.724,2.311,2.311,0,0,1,1.594-.654Z" transform="translate(-209.182 -288.414)" fill="#fff" fill-rule="evenodd"/><path d="M305.38,387.18v3.762a3.6,3.6,0,0,1-.3,1.461,3.72,3.72,0,0,1-.808,1.21,3.891,3.891,0,0,1-1.208.821,3.673,3.673,0,0,1-1.46.287,3.773,3.773,0,0,1-1.461-.287,3.94,3.94,0,0,1-1.207-.821,4.159,4.159,0,0,1-.806-1.21,3.775,3.775,0,0,1-.286-1.461V387.18h1.5v3.762a2.308,2.308,0,0,0,.168.89,2.562,2.562,0,0,0,.486.739,2.646,2.646,0,0,0,.721.485,2.438,2.438,0,0,0,1.782,0,2.321,2.321,0,0,0,.721-.485,2.176,2.176,0,0,0,.487-.739,2.207,2.207,0,0,0,.185-.89V387.18Z" transform="translate(-214.158 -288.414)" fill="#fff" fill-rule="evenodd"/><path d="M318.724,382.466v6.78a3.589,3.589,0,0,1-.3,1.463,3.845,3.845,0,0,1-2,2.031,3.887,3.887,0,0,1-2.922,0,3.872,3.872,0,0,1-2.029-2.031,3.729,3.729,0,0,1-.288-1.463,3.622,3.622,0,0,1,1.108-2.65,3.711,3.711,0,0,1,1.209-.806,3.6,3.6,0,0,1,1.462-.3h2.266v-3.021Zm-3.761,9.064a2.256,2.256,0,0,0,.871-.167,2.324,2.324,0,0,0,.722-.488,2.148,2.148,0,0,0,.488-.738,2.222,2.222,0,0,0,.185-.892v-2.265h-2.266a2.15,2.15,0,0,0-.89.185,2.175,2.175,0,0,0-.743.487,2.436,2.436,0,0,0-.486.723,2.283,2.283,0,0,0-.167.869,2.436,2.436,0,0,0,.167.892,2.65,2.65,0,0,0,.486.738,2.608,2.608,0,0,0,.743.488,2.379,2.379,0,0,0,.89.167" transform="translate(-218.953 -286.72)" fill="#fff" fill-rule="evenodd"/><path d="M341.855,314.03l-13.092,34.334-7.53-.021,4.938-11.2-8.893-23.1h7.509l4.851,14.9.267,0,4.489-14.912Z" transform="translate(-221.143 -262.124)" fill="#ffef41"/><path d="M302.447,330.994c0,5.489-6.017,7.54-11.677,7.544s-11.535-2.172-11.539-7.58h7.441c0,1.691,2.341,2.331,4.108,2.327,1.734,0,3.985-.462,3.985-2.1,0-2.057-2.8-2.357-7.193-3.5-4.561-1.2-7.811-3.194-7.816-7.489,0-5.46,5.319-7.33,11.006-7.339,5.626,0,10.766,1.863,10.771,7.32l-7.349.024c0-1.517-1.866-2.106-3.422-2.1s-3.407.379-3.407,1.88c.008,2.062,3.14,2.322,6.679,3.188,4.527,1.1,8.409,2.941,8.414,7.821" transform="translate(-207.469 -261.705)" fill="#ffef41"/><path d="M258.267,337.6l-6.974.047.017-2.755-.27.006c-1.162,2.34-3.488,3.626-7.1,3.635-6.117.011-11.417-5.009-11.423-12.918-.007-8.009,4.828-12.783,10.977-12.787,3.409-.008,6.227,1.4,7.484,3.5l.27-.008-.013-2.7h7Zm-7.071-12c-.006-3.216-1.784-6.22-5.934-6.215s-5.5,3.353-5.5,6.241c.006,3.039,1.628,6.331,5.824,6.333,4.3-.014,5.605-3.467,5.605-6.359" transform="translate(-190.682 -261.693)" fill="#ffef41"/><path d="M212.5,325.445c0,.951-.13,2.452-.13,2.452l-17.311.008a4.975,4.975,0,0,0,5.221,4.793c2.144.008,3.528-.794,4.2-2.278l7.513.012c-.683,3.566-3.772,8.077-11.586,8.083-7.506.016-12.732-5.905-12.738-13.057,0-7.237,4.737-12.612,12.213-12.622,7.521,0,12.611,5.423,12.615,12.61m-7.458-2.4c-.1-1.4-1-4.4-5.043-4.4a4.872,4.872,0,0,0-4.951,4.4Z" transform="translate(-174.563 -261.695)" fill="#ffef41"/><path d="M264.7,364.839c-19.1-2.574-38.285-2.724-68.027-.6L197,362.87c29.722-2.623,53.15-4,66-3.607,7.576.233,9.881.784,9.881,3.47,0,2.866-3.368,2.754-8.174,2.1" transform="translate(-177.797 -278.357)" fill="#ffef41"/></g><path d="M89.5,10A79.59,79.59,0,0,0,10,89.5v5a79.5,79.5,0,0,0,159,0v-5A79.59,79.59,0,0,0,89.5,10m0-10A89.5,89.5,0,0,1,179,89.5v5a89.5,89.5,0,0,1-179,0v-5A89.5,89.5,0,0,1,89.5,0Z" transform="translate(1061 835)" fill="#ff8181"/><path d="M3.97,147.149l-7.94-6.079L106.351-3.039l7.94,6.079Z" transform="translate(1093.205 854.291)" fill="#ff8181"/></g></svg>