<svg xmlns="http://www.w3.org/2000/svg" xmlns:xlink="http://www.w3.org/1999/xlink" width="202.857" height="202.857" viewBox="0 0 202.857 202.857"><defs><filter id="a" x="0" y="0" width="202.857" height="202.857" filterUnits="userSpaceOnUse"><feOffset input="SourceAlpha"/><feGaussianBlur stdDeviation="2.5" result="b"/><feFlood flood-opacity="0.161"/><feComposite operator="in" in2="b"/><feComposite in="SourceGraphic"/></filter></defs><g transform="translate(-1303.275 -827.5)"><g transform="translate(1310.775 928.928) rotate(-45)"><g transform="matrix(0.71, 0.71, -0.71, 0.71, 66.42, -77.02)" filter="url(#a)"><path d="M105.726,12.916a10.119,10.119,0,0,1,5.417-1.537,10.332,10.332,0,0,1,10.332,10.331,10.2,10.2,0,0,1-1.463,5.306l.047.034a67.536,67.536,0,1,1-14.333-14.134" transform="translate(7.5 101.43) rotate(-45)" fill="#fff" fill-rule="evenodd"/></g><path d="M107.965,24.622a10.9,10.9,0,0,1-3.611.657,10.266,10.266,0,0,1-9.6-13.882,59.733,59.733,0,1,0,13.209,13.225" transform="translate(6.711 6.735)" fill="#e00111" fill-rule="evenodd"/><path d="M0,5.64a5.645,5.645,0,1,1,5.64,5.637A5.64,5.64,0,0,1,0,5.64" transform="translate(105.501 15.98)" fill="#e00111"/><path d="M1.091,1.108A3.63,3.63,0,0,1,2.332.286,3.817,3.817,0,0,1,3.761,0,3.683,3.683,0,0,1,5.173.286a3.614,3.614,0,0,1,1.257.822l.522.522L5.909,2.686l-.536-.519a2.222,2.222,0,0,0-.758-.506,2.262,2.262,0,0,0-1.71,0,2.238,2.238,0,0,0-.757.506,2.13,2.13,0,0,0-.5.739,2.308,2.308,0,0,0,0,1.712,2.277,2.277,0,0,0,.5.755,2.21,2.21,0,0,0,1.613.671,2.338,2.338,0,0,0,.873-.167,2.085,2.085,0,0,0,.739-.5l.536-.522L6.952,5.912l-.522.521a3.826,3.826,0,0,1-1.257.839,3.92,3.92,0,0,1-1.412.268,4.064,4.064,0,0,1-1.429-.268,3.849,3.849,0,0,1-1.241-.839A3.667,3.667,0,0,1,.269,5.19a3.885,3.885,0,0,1,0-2.841,3.634,3.634,0,0,1,.822-1.241" transform="translate(32.825 98.766)" fill="#fff" fill-rule="evenodd"/><path d="M5.892,4.849,6.95,5.908l-.52.521A3.815,3.815,0,0,1,5.2,7.252a3.73,3.73,0,0,1-1.445.282,3.735,3.735,0,0,1-1.443-.282A3.832,3.832,0,0,1,1.09,6.429,3.618,3.618,0,0,1,.268,5.186,3.961,3.961,0,0,1,0,3.76,3.819,3.819,0,0,1,.268,2.35,3.59,3.59,0,0,1,1.09,1.106,3.621,3.621,0,0,1,2.332.283,3.791,3.791,0,0,1,3.76,0,3.653,3.653,0,0,1,5.171.283a3.612,3.612,0,0,1,1.26.824l.52.52L2.769,5.808a2.214,2.214,0,0,0,2.6-.438Zm-3.744-2.7A2.2,2.2,0,0,0,1.476,3.76a2.167,2.167,0,0,0,.237.989c.134-.133.333-.335.6-.6.279-.284.57-.572.871-.873s.612-.611.891-.891.516-.5.673-.655a2.257,2.257,0,0,0-1.36-.219,2.15,2.15,0,0,0-1.243.639" transform="translate(40.936 98.802)" fill="#fff" fill-rule="evenodd"/><path d="M0,3.76A3.69,3.69,0,0,1,.286,2.3a3.843,3.843,0,0,1,.806-1.193A3.7,3.7,0,0,1,2.3.3,3.564,3.564,0,0,1,3.762,0a3.493,3.493,0,0,1,1.46.3,3.64,3.64,0,0,1,1.208.805A3.482,3.482,0,0,1,7.239,2.3a3.526,3.526,0,0,1,.3,1.458V7.537h-1.5V3.76a2.078,2.078,0,0,0-.184-.871,2,2,0,0,0-.489-.721,2,2,0,0,0-.721-.489,2.265,2.265,0,0,0-1.779,0,2.288,2.288,0,0,0-.722.489,2.323,2.323,0,0,0-.487.721A2.216,2.216,0,0,0,1.5,3.76V7.537H0Z" transform="translate(49.234 98.783)" fill="#fff" fill-rule="evenodd"/><path d="M1.09,1.108A3.631,3.631,0,0,1,2.333.286,3.782,3.782,0,0,1,3.759,0,3.693,3.693,0,0,1,5.171.286a3.623,3.623,0,0,1,1.258.822l.519.522L5.909,2.686l-.537-.519a2.227,2.227,0,0,0-.756-.506,2.27,2.27,0,0,0-1.713,0,2.2,2.2,0,0,0-.755.506,2.063,2.063,0,0,0-.5.739,2.245,2.245,0,0,0,0,1.712,2.2,2.2,0,0,0,.5.755,2.2,2.2,0,0,0,1.611.671,2.341,2.341,0,0,0,.874-.167,2.09,2.09,0,0,0,.739-.5l.537-.522L6.948,5.912l-.519.521a3.835,3.835,0,0,1-1.258.839,3.931,3.931,0,0,1-1.412.268,4.026,4.026,0,0,1-1.426-.268A3.849,3.849,0,0,1,1.09,6.433,3.645,3.645,0,0,1,.266,5.19a3.928,3.928,0,0,1,0-2.841A3.612,3.612,0,0,1,1.09,1.108" transform="translate(58.143 98.766)" fill="#fff" fill-rule="evenodd"/><path d="M0,3.76A3.7,3.7,0,0,1,.285,2.3a3.875,3.875,0,0,1,.807-1.193A3.714,3.714,0,0,1,2.3.3,3.618,3.618,0,0,1,3.761,0,3.583,3.583,0,0,1,5.223.3a3.723,3.723,0,0,1,1.207.807A3.427,3.427,0,0,1,7.236,2.3a3.46,3.46,0,0,1,.3,1.459,3.562,3.562,0,0,1-.3,1.46A3.628,3.628,0,0,1,6.43,6.43a3.958,3.958,0,0,1-1.207.822,3.712,3.712,0,0,1-1.463.285A3.748,3.748,0,0,1,2.3,7.252a3.947,3.947,0,0,1-1.21-.822A4.127,4.127,0,0,1,.285,5.22,3.807,3.807,0,0,1,0,3.76m1.478,0a2.334,2.334,0,0,0,.168.89,2.572,2.572,0,0,0,.486.738,2.581,2.581,0,0,0,.738.486,2.357,2.357,0,0,0,.89.169,2.331,2.331,0,0,0,.889-.169,2.339,2.339,0,0,0,.722-.486A2.185,2.185,0,0,0,5.86,4.65a2.217,2.217,0,0,0,.182-.89,2.1,2.1,0,0,0-.183-.872,1.973,1.973,0,0,0-.488-.722,2.032,2.032,0,0,0-.722-.489,2.171,2.171,0,0,0-.889-.184,2.195,2.195,0,0,0-.89.184,2.218,2.218,0,0,0-.738.489,2.29,2.29,0,0,0-.486.722,2.206,2.206,0,0,0-.168.872" transform="translate(66.234 98.801)" fill="#fff" fill-rule="evenodd"/><path d="M6.8,0V1.493H2.249a.749.749,0,0,0-.755.758.786.786,0,0,0,.219.553.733.733,0,0,0,.536.216H5.272a2.057,2.057,0,0,1,.872.187,2.109,2.109,0,0,1,.721.471,2,2,0,0,1,.486.72,2.025,2.025,0,0,1,.186.873,2.112,2.112,0,0,1-.186.89,2.158,2.158,0,0,1-.486.722,2.312,2.312,0,0,1-.721.489,2.235,2.235,0,0,1-.872.169H.74v-1.5H5.272a.742.742,0,0,0,.553-.217.756.756,0,0,0,.22-.556.732.732,0,0,0-.22-.539.751.751,0,0,0-.553-.216H2.249A2.357,2.357,0,0,1,1.36,4.35a2.42,2.42,0,0,1-.706-.488A2.584,2.584,0,0,1,.168,3.14,2.35,2.35,0,0,1,0,2.252a2.223,2.223,0,0,1,.168-.873A2.354,2.354,0,0,1,.654.654,2.189,2.189,0,0,1,1.36.185,2.187,2.187,0,0,1,2.249,0Z" transform="translate(74.814 98.766)" fill="#fff" fill-rule="evenodd"/><path d="M7.537,0V3.762a3.6,3.6,0,0,1-.3,1.461,3.72,3.72,0,0,1-.808,1.21,3.89,3.89,0,0,1-1.208.821,3.673,3.673,0,0,1-1.46.287A3.773,3.773,0,0,1,2.3,7.254a3.939,3.939,0,0,1-1.207-.821,4.159,4.159,0,0,1-.806-1.21A3.775,3.775,0,0,1,0,3.762V0H1.5V3.762a2.308,2.308,0,0,0,.168.89,2.562,2.562,0,0,0,.486.739,2.648,2.648,0,0,0,.721.485,2.439,2.439,0,0,0,1.782,0,2.322,2.322,0,0,0,.721-.485,2.176,2.176,0,0,0,.487-.739,2.207,2.207,0,0,0,.185-.89V0Z" transform="translate(83.685 98.766)" fill="#fff" fill-rule="evenodd"/><path d="M7.54,0V6.78a3.589,3.589,0,0,1-.3,1.463,3.728,3.728,0,0,1-.807,1.211,3.752,3.752,0,0,1-1.189.82,3.77,3.77,0,0,1-1.46.285,3.769,3.769,0,0,1-1.462-.285A3.872,3.872,0,0,1,.288,8.243,3.73,3.73,0,0,1,0,6.78a3.622,3.622,0,0,1,1.108-2.65,3.711,3.711,0,0,1,1.209-.806,3.593,3.593,0,0,1,1.462-.3H6.045V0ZM3.779,9.064A2.255,2.255,0,0,0,4.65,8.9a2.324,2.324,0,0,0,.722-.488,2.149,2.149,0,0,0,.488-.738,2.222,2.222,0,0,0,.185-.892V4.515H3.779a2.15,2.15,0,0,0-.89.185,2.176,2.176,0,0,0-.743.487,2.436,2.436,0,0,0-.486.723,2.283,2.283,0,0,0-.167.869,2.436,2.436,0,0,0,.167.892,2.65,2.65,0,0,0,.486.738,2.606,2.606,0,0,0,.743.488,2.378,2.378,0,0,0,.89.167" transform="translate(92.231 95.746)" fill="#fff" fill-rule="evenodd"/><path d="M24.577,0,11.485,34.334l-7.53-.021,4.938-11.2L0,.021H7.509l4.851,14.9.267,0L17.116,0Z" transform="translate(96.135 51.906)" fill="#ffef41"/><path d="M23.217,18.13c0,5.489-6.017,7.54-11.677,7.544S0,23.5,0,18.094H7.441c0,1.691,2.341,2.33,4.108,2.327,1.734,0,3.985-.462,3.985-2.1,0-2.057-2.8-2.357-7.193-3.5C3.779,13.631.529,11.635.524,7.339.521,1.878,5.843.008,11.53,0,17.156,0,22.3,1.863,22.3,7.32l-7.349.024c0-1.517-1.866-2.106-3.422-2.1s-3.407.379-3.407,1.88c.008,2.062,3.14,2.322,6.679,3.188,4.527,1.1,8.409,2.941,8.414,7.821" transform="translate(71.761 51.159)" fill="#ffef41"/><path d="M25.746,24.772l-6.974.047.017-2.755-.27.006c-1.162,2.34-3.488,3.626-7.1,3.635C5.305,25.716.005,20.7,0,12.787-.007,4.778,4.828,0,10.977,0,14.385-.008,17.2,1.4,18.46,3.5l.27-.008-.013-2.7h7Zm-7.071-12c-.006-3.216-1.784-6.22-5.935-6.215s-5.5,3.353-5.5,6.241c.006,3.039,1.628,6.331,5.824,6.333,4.3-.014,5.605-3.467,5.605-6.359" transform="translate(41.839 51.137)" fill="#ffef41"/><path d="M24.828,12.61c0,.951-.13,2.452-.13,2.452L7.387,15.07a4.975,4.975,0,0,0,5.221,4.793c2.144.008,3.528-.794,4.2-2.278l7.513.012c-.683,3.566-3.772,8.077-11.586,8.083C5.232,25.7.006,19.775,0,12.622,0,5.385,4.737.01,12.213,0c7.521,0,12.611,5.423,12.615,12.61m-7.458-2.4c-.1-1.4-1-4.4-5.043-4.4a4.872,4.872,0,0,0-4.951,4.4Z" transform="translate(13.11 51.14)" fill="#ffef41"/><path d="M68.027,5.642C48.93,3.068,29.742,2.917,0,5.041L.325,3.673c29.722-2.623,53.15-4,66-3.607C73.9.3,76.2.851,76.2,3.537c0,2.866-3.368,2.754-8.174,2.1" transform="translate(18.875 80.84)" fill="#ffef41"/></g><path d="M90,10A80.091,80.091,0,0,0,10,90v4a80,80,0,0,0,160,0V90A80.091,80.091,0,0,0,90,10M90,0a90,90,0,0,1,90,90v4A90,90,0,0,1,0,94V90A90,90,0,0,1,90,0Z" transform="translate(1315 835)" fill="#ff8181"/><path d="M3.97,147.149l-7.94-6.079L106.351-3.039l7.94,6.079Z" transform="translate(1347.975 854.291)" fill="#ff8181"/></g></svg>