<svg xmlns="http://www.w3.org/2000/svg" xmlns:xlink="http://www.w3.org/1999/xlink" width="180" height="184" viewBox="0 0 180 184"><defs><filter id="a" x="14.07" y="17.249" width="147.834" height="147.835" filterUnits="userSpaceOnUse"><feOffset input="SourceAlpha"/><feGaussianBlur stdDeviation="2.5" result="b"/><feFlood flood-opacity="0.161"/><feComposite operator="in" in2="b"/><feComposite in="SourceGraphic"/></filter></defs><g transform="translate(-1000 -1506)"><g transform="translate(1021.57 1530.749)"><g transform="matrix(1, 0, 0, 1, -21.57, -24.75)" filter="url(#a)"><path d="M272.935,245.919a10.119,10.119,0,0,1,5.417-1.538,10.332,10.332,0,0,1,10.332,10.331,10.2,10.2,0,0,1-1.463,5.306l.047.034a67.536,67.536,0,1,1-14.333-14.134" transform="translate(-145.64 -208.25)" fill="#fff" fill-rule="evenodd"/></g><path d="M285.649,268.139a10.9,10.9,0,0,1-3.611.657,10.266,10.266,0,0,1-9.6-13.882,59.733,59.733,0,1,0,13.209,13.225" transform="translate(-170.973 -236.782)" fill="#e00111" fill-rule="evenodd"/><path d="M331.9,263.588a5.645,5.645,0,1,1,5.64,5.637,5.64,5.64,0,0,1-5.64-5.637" transform="translate(-226.398 -241.968)" fill="#e00111"/><path d="M219.54,388.289a3.632,3.632,0,0,1,1.241-.823,3.817,3.817,0,0,1,1.429-.286,3.683,3.683,0,0,1,1.412.286,3.616,3.616,0,0,1,1.257.823l.522.522-1.044,1.056-.536-.519a2.224,2.224,0,0,0-.758-.506,2.262,2.262,0,0,0-1.71,0,2.24,2.24,0,0,0-.757.506,2.13,2.13,0,0,0-.5.739,2.308,2.308,0,0,0,0,1.712,2.277,2.277,0,0,0,.5.755,2.21,2.21,0,0,0,1.613.671,2.34,2.34,0,0,0,.873-.167,2.086,2.086,0,0,0,.739-.5l.536-.522,1.044,1.061-.522.521a3.824,3.824,0,0,1-1.257.839,3.919,3.919,0,0,1-1.412.268,4.063,4.063,0,0,1-1.429-.268,3.847,3.847,0,0,1-1.241-.839,3.666,3.666,0,0,1-.822-1.243,3.884,3.884,0,0,1,0-2.841,3.634,3.634,0,0,1,.822-1.241" transform="translate(-185.624 -288.415)" fill="#fff" fill-rule="evenodd"/><path d="M237,392.085l1.058,1.06-.52.521a3.815,3.815,0,0,1-1.227.823,3.833,3.833,0,0,1-2.888,0,3.833,3.833,0,0,1-1.226-.823,3.618,3.618,0,0,1-.822-1.243A3.96,3.96,0,0,1,231.11,391a3.819,3.819,0,0,1,.268-1.41,3.741,3.741,0,0,1,2.064-2.067,3.792,3.792,0,0,1,1.427-.283,3.653,3.653,0,0,1,1.411.283,3.613,3.613,0,0,1,1.26.824l.52.52-4.181,4.182a2.214,2.214,0,0,0,2.6-.438Zm-3.744-2.7a2.2,2.2,0,0,0-.673,1.613,2.167,2.167,0,0,0,.237.989c.134-.133.333-.335.6-.6.279-.284.57-.572.871-.873s.612-.611.891-.891.516-.5.673-.655a2.256,2.256,0,0,0-1.36-.219,2.15,2.15,0,0,0-1.243.639" transform="translate(-190.174 -288.434)" fill="#fff" fill-rule="evenodd"/><path d="M244.064,390.967a3.69,3.69,0,0,1,.286-1.458,3.844,3.844,0,0,1,.806-1.193,3.7,3.7,0,0,1,1.211-.805,3.564,3.564,0,0,1,1.459-.3,3.493,3.493,0,0,1,1.46.3,3.64,3.64,0,0,1,1.208.805,3.483,3.483,0,0,1,.809,1.193,3.527,3.527,0,0,1,.3,1.458v3.777h-1.5v-3.777a2.078,2.078,0,0,0-.184-.871,2.312,2.312,0,0,0-1.211-1.21,2.265,2.265,0,0,0-1.779,0,2.287,2.287,0,0,0-.722.489,2.323,2.323,0,0,0-.487.721,2.215,2.215,0,0,0-.167.871v3.777h-1.5Z" transform="translate(-194.83 -288.424)" fill="#fff" fill-rule="evenodd"/><path d="M259.061,388.289a3.633,3.633,0,0,1,1.243-.823,3.782,3.782,0,0,1,1.426-.286,3.693,3.693,0,0,1,1.412.286,3.625,3.625,0,0,1,1.258.823l.519.522-1.039,1.056-.538-.519a2.228,2.228,0,0,0-.756-.506,2.271,2.271,0,0,0-1.713,0,2.205,2.205,0,0,0-.755.506,2.063,2.063,0,0,0-.5.739,2.245,2.245,0,0,0,0,1.712,2.3,2.3,0,0,0,2.115,1.426,2.342,2.342,0,0,0,.874-.167,2.091,2.091,0,0,0,.739-.5l.538-.522,1.039,1.061-.519.521a3.834,3.834,0,0,1-1.258.839,3.931,3.931,0,0,1-1.412.268,4.026,4.026,0,0,1-1.426-.268,3.847,3.847,0,0,1-1.243-.839,3.645,3.645,0,0,1-.824-1.243,3.929,3.929,0,0,1,0-2.841,3.613,3.613,0,0,1,.824-1.241" transform="translate(-199.828 -288.415)" fill="#fff" fill-rule="evenodd"/><path d="M270.6,390.995a3.7,3.7,0,0,1,.285-1.459,3.875,3.875,0,0,1,.807-1.193,3.713,3.713,0,0,1,1.21-.807,3.7,3.7,0,0,1,2.922,0,3.722,3.722,0,0,1,1.207.807,3.771,3.771,0,0,1,1.106,2.653,3.562,3.562,0,0,1-.3,1.46,3.628,3.628,0,0,1-.806,1.21,3.959,3.959,0,0,1-1.207.823,3.893,3.893,0,0,1-2.922,0,3.947,3.947,0,0,1-1.21-.823,4.127,4.127,0,0,1-.807-1.21,3.808,3.808,0,0,1-.285-1.46m1.478,0a2.334,2.334,0,0,0,.168.89,2.19,2.19,0,0,0,1.224,1.224,2.357,2.357,0,0,0,.89.169,2.209,2.209,0,0,0,1.611-.655,2.184,2.184,0,0,0,.488-.738,2.217,2.217,0,0,0,.182-.89,2.1,2.1,0,0,0-.182-.872,1.973,1.973,0,0,0-.488-.722,2.032,2.032,0,0,0-.722-.489,2.17,2.17,0,0,0-.889-.184,2.195,2.195,0,0,0-.89.184,2.217,2.217,0,0,0-.738.489,2.291,2.291,0,0,0-.486.722,2.206,2.206,0,0,0-.168.872" transform="translate(-204.367 -288.434)" fill="#fff" fill-rule="evenodd"/><path d="M290.795,387.18v1.493h-4.55a.749.749,0,0,0-.755.758.786.786,0,0,0,.219.553.733.733,0,0,0,.536.216h3.023a2.056,2.056,0,0,1,.872.187,2.11,2.11,0,0,1,.721.471,2,2,0,0,1,.486.72,2.026,2.026,0,0,1,.186.873,2.112,2.112,0,0,1-.186.89,2.158,2.158,0,0,1-.486.722,2.314,2.314,0,0,1-.721.489,2.235,2.235,0,0,1-.872.169h-4.532v-1.5h4.532a.742.742,0,0,0,.553-.216.756.756,0,0,0,.22-.556.732.732,0,0,0-.22-.539.752.752,0,0,0-.553-.216h-3.023a2.358,2.358,0,0,1-.889-.167,2.422,2.422,0,0,1-.706-.488,2.583,2.583,0,0,1-.486-.722,2.351,2.351,0,0,1-.169-.888,2.224,2.224,0,0,1,.169-.873,2.354,2.354,0,0,1,.486-.724,2.311,2.311,0,0,1,1.594-.654Z" transform="translate(-209.181 -288.414)" fill="#fff" fill-rule="evenodd"/><path d="M305.38,387.18v3.762a3.6,3.6,0,0,1-.3,1.461,3.72,3.72,0,0,1-.808,1.21,3.891,3.891,0,0,1-1.208.821,3.673,3.673,0,0,1-1.46.287,3.773,3.773,0,0,1-1.461-.287,3.94,3.94,0,0,1-1.207-.821,4.159,4.159,0,0,1-.806-1.21,3.775,3.775,0,0,1-.286-1.461V387.18h1.5v3.762a2.308,2.308,0,0,0,.168.89,2.562,2.562,0,0,0,.486.739,2.646,2.646,0,0,0,.721.485,2.438,2.438,0,0,0,1.782,0,2.321,2.321,0,0,0,.721-.485,2.176,2.176,0,0,0,.487-.739,2.207,2.207,0,0,0,.185-.89V387.18Z" transform="translate(-214.158 -288.414)" fill="#fff" fill-rule="evenodd"/><path d="M318.724,382.466v6.78a3.589,3.589,0,0,1-.3,1.463,3.845,3.845,0,0,1-2,2.031,3.887,3.887,0,0,1-2.922,0,3.872,3.872,0,0,1-2.029-2.031,3.729,3.729,0,0,1-.288-1.463,3.622,3.622,0,0,1,1.108-2.65,3.711,3.711,0,0,1,1.209-.806,3.6,3.6,0,0,1,1.462-.3h2.266v-3.021Zm-3.761,9.064a2.256,2.256,0,0,0,.871-.167,2.324,2.324,0,0,0,.722-.488,2.148,2.148,0,0,0,.488-.738,2.222,2.222,0,0,0,.185-.892v-2.265h-2.266a2.15,2.15,0,0,0-.89.185,2.175,2.175,0,0,0-.743.487,2.436,2.436,0,0,0-.486.723,2.283,2.283,0,0,0-.167.869,2.436,2.436,0,0,0,.167.892,2.65,2.65,0,0,0,.486.738,2.608,2.608,0,0,0,.743.488,2.379,2.379,0,0,0,.89.167" transform="translate(-218.953 -286.72)" fill="#fff" fill-rule="evenodd"/><path d="M342.58,313.529l-13.474,35.335-8.64-.024,5.164-11.707-9.081-23.583h8.6l4.607,14.148,4.265-14.168Zm-14.162,34.333,12.71-33.333-6.364,0-4.487,14.907-1,.014-4.852-14.9h-6.418l8.706,22.608L322,347.845Z" transform="translate(-221.143 -262.124)" fill="#ffef41"/><path d="M290.77,339.038h0a17.009,17.009,0,0,1-8.131-1.826,6.958,6.958,0,0,1-3.908-6.254v-.5h8.441v.5c0,1.341,2.15,1.827,3.6,1.827h.012c1.608,0,3.485-.42,3.485-1.6,0-1.285-1.583-1.727-4.872-2.528-.618-.15-1.256-.306-1.947-.485a14.508,14.508,0,0,1-5.816-2.687,6.673,6.673,0,0,1-2.374-5.286,6.9,6.9,0,0,1,.994-3.714,7.183,7.183,0,0,1,2.629-2.436,16.35,16.35,0,0,1,7.882-1.689,15.728,15.728,0,0,1,7.744,1.68,6.711,6.711,0,0,1,3.528,6.139v.5l-8.349.027v-.5c0-1.267-1.9-1.6-2.9-1.6h-.018c-.875,0-2.909.141-2.909,1.38s1.717,1.681,4.51,2.294c.577.127,1.174.258,1.788.408a15.731,15.731,0,0,1,6.093,2.585,6.968,6.968,0,0,1,1.97,2.372,7.475,7.475,0,0,1,.733,3.348,6.9,6.9,0,0,1-3.977,6.269A17.651,17.651,0,0,1,290.77,339.038Zm-11.02-7.58c.372,4.845,6.1,6.58,11.02,6.58a16.651,16.651,0,0,0,7.724-1.655,5.886,5.886,0,0,0,3.453-5.389c-.006-4.745-4.064-6.371-8.032-7.335-.6-.148-1.194-.277-1.766-.4a18.634,18.634,0,0,1-3.582-1.012,2.46,2.46,0,0,1-1.714-2.257c0-1.508,1.424-2.375,3.906-2.381h.021a5.624,5.624,0,0,1,2.511.539,2.406,2.406,0,0,1,1.333,1.561l6.39-.021A5.679,5.679,0,0,0,298,314.91a14.757,14.757,0,0,0-7.244-1.547,15.376,15.376,0,0,0-7.391,1.56,5.713,5.713,0,0,0-3.115,5.278c0,3.5,2.3,5.656,7.443,7.006.682.177,1.317.332,1.931.481a21.648,21.648,0,0,1,3.948,1.19,2.536,2.536,0,0,1,1.687,2.31,2.255,2.255,0,0,1-1.653,2.123,7.976,7.976,0,0,1-2.832.473h-.013a7.232,7.232,0,0,1-2.919-.577,2.6,2.6,0,0,1-1.62-1.75Z" transform="translate(-207.469 -261.705)" fill="#ffef41"/><path d="M243.924,339.035a11.307,11.307,0,0,1-8.356-3.656,12.714,12.714,0,0,1-2.59-4.236,15.742,15.742,0,0,1-.957-5.526,14.219,14.219,0,0,1,3.308-9.73,10.834,10.834,0,0,1,8.168-3.557h.028a9.593,9.593,0,0,1,7.22,2.837l-.01-2.048h8.006l.027,24.98-7.977.053.012-1.921c-1.412,1.853-3.712,2.8-6.857,2.8Zm-.4-25.7H243.5a9.847,9.847,0,0,0-7.426,3.226,13.244,13.244,0,0,0-3.052,9.06c.005,8.153,5.489,12.419,10.9,12.418h.019c3.311-.009,5.548-1.138,6.65-3.358l.135-.271,1.086-.023-.017,2.763,5.97-.04-.025-22.987h-6l.013,2.691-1.051.03-.15-.251C249.35,314.578,246.657,313.33,243.525,313.33Zm2.067,19.132a5.911,5.911,0,0,1-4.881-2.222,7.567,7.567,0,0,1-1.445-4.61,7.791,7.791,0,0,1,1.281-4.492,5.518,5.518,0,0,1,4.714-2.25h.011a6.131,6.131,0,0,1,4.9,2.082A7.224,7.224,0,0,1,251.7,325.6C251.7,328.909,250.093,332.447,245.593,332.461Zm-.32-12.574h-.01c-4.635.006-5,4.4-5,5.741.005,2.689,1.4,5.831,5.325,5.833,4.737-.016,5.1-4.488,5.1-5.859C250.691,322.84,249.264,319.888,245.273,319.888Z" transform="translate(-190.681 -261.693)" fill="#ffef41"/><path d="M199.885,312.335h0a14.151,14.151,0,0,1,5.331,1,12.172,12.172,0,0,1,4.152,2.764,13.206,13.206,0,0,1,3.631,9.35c0,.962-.126,2.434-.132,2.5l-.04.456-17.212.008a4.438,4.438,0,0,0,4.642,3.793h.053c1.893,0,3.109-.649,3.717-1.985l.134-.293,8.439.013-.114.593a9.961,9.961,0,0,1-3.284,5.662,13.114,13.114,0,0,1-8.792,2.827h-.031a12.933,12.933,0,0,1-9.524-4.007,13.823,13.823,0,0,1-3.684-9.55,14.974,14.974,0,0,1,.887-5.2,12.165,12.165,0,0,1,2.551-4.167,11.538,11.538,0,0,1,4.021-2.762A13.725,13.725,0,0,1,199.885,312.335ZM211.909,327.4c.038-.512.093-1.351.092-1.951,0-7.132-4.985-12.112-12.115-12.112-7.007.01-11.714,4.881-11.713,12.122.006,7.159,5.254,12.557,12.207,12.557h.029c8.109-.007,10.356-4.846,10.959-7.084l-6.576-.01a4.032,4.032,0,0,1-1.607,1.629,5.877,5.877,0,0,1-2.874.648h-.053a5.469,5.469,0,0,1-5.7-5.263l-.032-.53ZM200,318.148a5.321,5.321,0,0,1,4.39,1.862,5.554,5.554,0,0,1,1.152,3l.038.535H194.492l.059-.553A5.861,5.861,0,0,1,195.836,320,5.212,5.212,0,0,1,200,318.148Zm4.471,4.4c-.226-1.144-1.1-3.4-4.471-3.4a4.314,4.314,0,0,0-4.354,3.4Z" transform="translate(-174.563 -261.695)" fill="#ffef41"/><path d="M269.033,365.719a34.947,34.947,0,0,1-4.4-.385,238.68,238.68,0,0,0-32.6-2.069c-10.044,0-21.269.468-35.327,1.472l-.679.049.565-2.382.359-.032c27.63-2.439,48.246-3.675,61.276-3.675,1.727,0,3.335.022,4.779.067,7.207.222,10.366.664,10.366,3.97a2.559,2.559,0,0,1-1.278,2.384A6.074,6.074,0,0,1,269.033,365.719Zm-37-3.453a239.65,239.65,0,0,1,32.731,2.078,34.1,34.1,0,0,0,4.267.376c2.935,0,3.34-.954,3.34-1.985,0-1.167-.476-1.758-1.756-2.18a31.9,31.9,0,0,0-7.64-.79c-1.434-.044-3.032-.066-4.748-.066-12.944,0-33.407,1.224-60.828,3.64l-.084.355C211.082,362.719,222.129,362.266,232.035,362.266Z" transform="translate(-177.797 -278.357)" fill="#ffef41"/></g><path d="M90,10A80.091,80.091,0,0,0,10,90v4a80,80,0,0,0,160,0V90A80.091,80.091,0,0,0,90,10M90,0a90,90,0,0,1,90,90v4A90,90,0,0,1,0,94V90A90,90,0,0,1,90,0Z" transform="translate(1000 1506)" fill="#ff8181"/><path d="M3.97,147.149l-7.94-6.079L106.351-3.039l7.94,6.079Z" transform="translate(1032.975 1525.112)" fill="#ff8181"/></g></svg>