<svg xmlns="http://www.w3.org/2000/svg" xmlns:xlink="http://www.w3.org/1999/xlink" width="181" height="184" viewBox="0 0 181 184"><defs><filter id="a" x="17.724" y="17.249" width="147.834" height="147.835" filterUnits="userSpaceOnUse"><feOffset input="SourceAlpha"/><feGaussianBlur stdDeviation="2.5" result="b"/><feFlood flood-opacity="0.161"/><feComposite operator="in" in2="b"/><feComposite in="SourceGraphic"/></filter></defs><g transform="translate(-1252 -1506)"><g transform="translate(1277.224 1530.749)"><g transform="matrix(1, 0, 0, 1, -25.22, -24.75)" filter="url(#a)"><path d="M272.935,245.919a10.119,10.119,0,0,1,5.417-1.538,10.332,10.332,0,0,1,10.332,10.331,10.2,10.2,0,0,1-1.463,5.306l.047.034a67.536,67.536,0,1,1-14.333-14.134" transform="translate(-141.98 -208.25)" fill="#fff" fill-rule="evenodd"/></g><path d="M285.649,268.139a10.9,10.9,0,0,1-3.611.657,10.266,10.266,0,0,1-9.6-13.882,59.733,59.733,0,1,0,13.209,13.225" transform="translate(-170.973 -236.782)" fill="#e00111" fill-rule="evenodd"/><path d="M331.9,263.588a5.645,5.645,0,1,1,5.64,5.637,5.64,5.64,0,0,1-5.64-5.637" transform="translate(-226.398 -241.968)" fill="#e00111"/><path d="M219.54,388.289a3.632,3.632,0,0,1,1.241-.823,3.817,3.817,0,0,1,1.429-.286,3.683,3.683,0,0,1,1.412.286,3.616,3.616,0,0,1,1.257.823l.522.522-1.044,1.056-.536-.519a2.224,2.224,0,0,0-.758-.506,2.262,2.262,0,0,0-1.71,0,2.24,2.24,0,0,0-.757.506,2.13,2.13,0,0,0-.5.739,2.308,2.308,0,0,0,0,1.712,2.277,2.277,0,0,0,.5.755,2.21,2.21,0,0,0,1.613.671,2.34,2.34,0,0,0,.873-.167,2.086,2.086,0,0,0,.739-.5l.536-.522,1.044,1.061-.522.521a3.824,3.824,0,0,1-1.257.839,3.919,3.919,0,0,1-1.412.268,4.063,4.063,0,0,1-1.429-.268,3.847,3.847,0,0,1-1.241-.839,3.666,3.666,0,0,1-.822-1.243,3.884,3.884,0,0,1,0-2.841,3.634,3.634,0,0,1,.822-1.241" transform="translate(-185.624 -288.415)" fill="#fff" fill-rule="evenodd"/><path d="M237,392.085l1.058,1.06-.52.521a3.815,3.815,0,0,1-1.227.823,3.833,3.833,0,0,1-2.888,0,3.833,3.833,0,0,1-1.226-.823,3.618,3.618,0,0,1-.822-1.243A3.96,3.96,0,0,1,231.11,391a3.819,3.819,0,0,1,.268-1.41,3.741,3.741,0,0,1,2.064-2.067,3.792,3.792,0,0,1,1.427-.283,3.653,3.653,0,0,1,1.411.283,3.613,3.613,0,0,1,1.26.824l.52.52-4.181,4.182a2.214,2.214,0,0,0,2.6-.438Zm-3.744-2.7a2.2,2.2,0,0,0-.673,1.613,2.167,2.167,0,0,0,.237.989c.134-.133.333-.335.6-.6.279-.284.57-.572.871-.873s.612-.611.891-.891.516-.5.673-.655a2.256,2.256,0,0,0-1.36-.219,2.15,2.15,0,0,0-1.243.639" transform="translate(-190.174 -288.434)" fill="#fff" fill-rule="evenodd"/><path d="M244.064,390.967a3.69,3.69,0,0,1,.286-1.458,3.844,3.844,0,0,1,.806-1.193,3.7,3.7,0,0,1,1.211-.805,3.564,3.564,0,0,1,1.459-.3,3.493,3.493,0,0,1,1.46.3,3.64,3.64,0,0,1,1.208.805,3.483,3.483,0,0,1,.809,1.193,3.527,3.527,0,0,1,.3,1.458v3.777h-1.5v-3.777a2.078,2.078,0,0,0-.184-.871,2.312,2.312,0,0,0-1.211-1.21,2.265,2.265,0,0,0-1.779,0,2.287,2.287,0,0,0-.722.489,2.323,2.323,0,0,0-.487.721,2.215,2.215,0,0,0-.167.871v3.777h-1.5Z" transform="translate(-194.83 -288.424)" fill="#fff" fill-rule="evenodd"/><path d="M259.061,388.289a3.633,3.633,0,0,1,1.243-.823,3.782,3.782,0,0,1,1.426-.286,3.693,3.693,0,0,1,1.412.286,3.625,3.625,0,0,1,1.258.823l.519.522-1.039,1.056-.538-.519a2.228,2.228,0,0,0-.756-.506,2.271,2.271,0,0,0-1.713,0,2.205,2.205,0,0,0-.755.506,2.063,2.063,0,0,0-.5.739,2.245,2.245,0,0,0,0,1.712,2.3,2.3,0,0,0,2.115,1.426,2.342,2.342,0,0,0,.874-.167,2.091,2.091,0,0,0,.739-.5l.538-.522,1.039,1.061-.519.521a3.834,3.834,0,0,1-1.258.839,3.931,3.931,0,0,1-1.412.268,4.026,4.026,0,0,1-1.426-.268,3.847,3.847,0,0,1-1.243-.839,3.645,3.645,0,0,1-.824-1.243,3.929,3.929,0,0,1,0-2.841,3.613,3.613,0,0,1,.824-1.241" transform="translate(-199.828 -288.415)" fill="#fff" fill-rule="evenodd"/><path d="M270.6,390.995a3.7,3.7,0,0,1,.285-1.459,3.875,3.875,0,0,1,.807-1.193,3.713,3.713,0,0,1,1.21-.807,3.7,3.7,0,0,1,2.922,0,3.722,3.722,0,0,1,1.207.807,3.771,3.771,0,0,1,1.106,2.653,3.562,3.562,0,0,1-.3,1.46,3.628,3.628,0,0,1-.806,1.21,3.959,3.959,0,0,1-1.207.823,3.893,3.893,0,0,1-2.922,0,3.947,3.947,0,0,1-1.21-.823,4.127,4.127,0,0,1-.807-1.21,3.808,3.808,0,0,1-.285-1.46m1.478,0a2.334,2.334,0,0,0,.168.89,2.19,2.19,0,0,0,1.224,1.224,2.357,2.357,0,0,0,.89.169,2.209,2.209,0,0,0,1.611-.655,2.184,2.184,0,0,0,.488-.738,2.217,2.217,0,0,0,.182-.89,2.1,2.1,0,0,0-.182-.872,1.973,1.973,0,0,0-.488-.722,2.032,2.032,0,0,0-.722-.489,2.17,2.17,0,0,0-.889-.184,2.195,2.195,0,0,0-.89.184,2.217,2.217,0,0,0-.738.489,2.291,2.291,0,0,0-.486.722,2.206,2.206,0,0,0-.168.872" transform="translate(-204.367 -288.434)" fill="#fff" fill-rule="evenodd"/><path d="M290.795,387.18v1.493h-4.55a.749.749,0,0,0-.755.758.786.786,0,0,0,.219.553.733.733,0,0,0,.536.216h3.023a2.056,2.056,0,0,1,.872.187,2.11,2.11,0,0,1,.721.471,2,2,0,0,1,.486.72,2.026,2.026,0,0,1,.186.873,2.112,2.112,0,0,1-.186.89,2.158,2.158,0,0,1-.486.722,2.314,2.314,0,0,1-.721.489,2.235,2.235,0,0,1-.872.169h-4.532v-1.5h4.532a.742.742,0,0,0,.553-.216.756.756,0,0,0,.22-.556.732.732,0,0,0-.22-.539.752.752,0,0,0-.553-.216h-3.023a2.358,2.358,0,0,1-.889-.167,2.422,2.422,0,0,1-.706-.488,2.583,2.583,0,0,1-.486-.722,2.351,2.351,0,0,1-.169-.888,2.224,2.224,0,0,1,.169-.873,2.354,2.354,0,0,1,.486-.724,2.311,2.311,0,0,1,1.594-.654Z" transform="translate(-209.182 -288.414)" fill="#fff" fill-rule="evenodd"/><path d="M305.38,387.18v3.762a3.6,3.6,0,0,1-.3,1.461,3.72,3.72,0,0,1-.808,1.21,3.891,3.891,0,0,1-1.208.821,3.673,3.673,0,0,1-1.46.287,3.773,3.773,0,0,1-1.461-.287,3.94,3.94,0,0,1-1.207-.821,4.159,4.159,0,0,1-.806-1.21,3.775,3.775,0,0,1-.286-1.461V387.18h1.5v3.762a2.308,2.308,0,0,0,.168.89,2.562,2.562,0,0,0,.486.739,2.646,2.646,0,0,0,.721.485,2.438,2.438,0,0,0,1.782,0,2.321,2.321,0,0,0,.721-.485,2.176,2.176,0,0,0,.487-.739,2.207,2.207,0,0,0,.185-.89V387.18Z" transform="translate(-214.158 -288.414)" fill="#fff" fill-rule="evenodd"/><path d="M318.724,382.466v6.78a3.589,3.589,0,0,1-.3,1.463,3.845,3.845,0,0,1-2,2.031,3.887,3.887,0,0,1-2.922,0,3.872,3.872,0,0,1-2.029-2.031,3.729,3.729,0,0,1-.288-1.463,3.622,3.622,0,0,1,1.108-2.65,3.711,3.711,0,0,1,1.209-.806,3.6,3.6,0,0,1,1.462-.3h2.266v-3.021Zm-3.761,9.064a2.256,2.256,0,0,0,.871-.167,2.324,2.324,0,0,0,.722-.488,2.148,2.148,0,0,0,.488-.738,2.222,2.222,0,0,0,.185-.892v-2.265h-2.266a2.15,2.15,0,0,0-.89.185,2.175,2.175,0,0,0-.743.487,2.436,2.436,0,0,0-.486.723,2.283,2.283,0,0,0-.167.869,2.436,2.436,0,0,0,.167.892,2.65,2.65,0,0,0,.486.738,2.608,2.608,0,0,0,.743.488,2.379,2.379,0,0,0,.89.167" transform="translate(-218.953 -286.72)" fill="#fff" fill-rule="evenodd"/><path d="M345.815,314.03l-15.2,39.866-8.743-.024,5.734-13-10.327-26.817H326l5.632,17.3.31,0,5.212-17.314Z" transform="translate(-216.434 -264.878)" fill="#ffef41"/><path d="M306.188,333.915c0,6.373-6.987,8.755-13.559,8.76s-13.393-2.522-13.4-8.8h8.639c0,1.964,2.718,2.706,4.77,2.7,2.013,0,4.627-.536,4.627-2.433,0-2.388-3.25-2.736-8.352-4.061-5.3-1.389-9.07-3.708-9.076-8.7,0-6.34,6.176-8.511,12.78-8.521,6.533,0,12.5,2.163,12.507,8.5l-8.533.027c0-1.761-2.167-2.446-3.974-2.44s-3.956.44-3.956,2.182c.009,2.394,3.645,2.7,7.756,3.7,5.256,1.277,9.763,3.415,9.77,9.081" transform="translate(-206.687 -264.58)" fill="#ffef41"/><path d="M262.416,341.593l-8.1.054.019-3.2-.313.007c-1.349,2.717-4.05,4.21-8.241,4.221-7.1.013-13.257-5.817-13.263-15-.008-9.3,5.606-14.843,12.745-14.847,3.958-.009,7.231,1.627,8.689,4.065l.313-.009-.015-3.14h8.133Zm-8.21-13.932c-.007-3.734-2.072-7.222-6.891-7.216s-6.38,3.894-6.38,7.246c.007,3.529,1.89,7.35,6.763,7.353,4.995-.016,6.508-4.026,6.508-7.383" transform="translate(-194.722 -264.571)" fill="#ffef41"/><path d="M216.5,327.477c0,1.1-.151,2.847-.151,2.847l-20.1.009a5.776,5.776,0,0,0,6.062,5.565c2.49.009,4.1-.922,4.88-2.645l8.724.013c-.794,4.141-4.38,9.378-13.453,9.385-8.715.019-14.783-6.856-14.79-15.161,0-8.4,5.5-14.644,14.181-14.656,8.733,0,14.644,6.3,14.647,14.642m-8.66-2.785c-.114-1.623-1.163-5.107-5.856-5.107a5.657,5.657,0,0,0-5.749,5.107Z" transform="translate(-183.232 -264.572)" fill="#ffef41"/><path d="M275.661,365.748c-22.175-2.989-44.455-3.163-78.989-.7l.377-1.589c34.511-3.046,61.714-4.646,76.629-4.188,8.8.271,11.474.91,11.474,4.029,0,3.328-3.911,3.2-9.491,2.444" transform="translate(-185.538 -276.45)" fill="#ffef41"/></g><path d="M90.5,10A80.591,80.591,0,0,0,10,90.5v3a80.5,80.5,0,0,0,161,0v-3A80.591,80.591,0,0,0,90.5,10m0-10A90.5,90.5,0,0,1,181,90.5v3a90.5,90.5,0,0,1-181,0v-3A90.5,90.5,0,0,1,90.5,0Z" transform="translate(1252 1506)" fill="#ff8181"/><path d="M3.97,147.149l-7.94-6.079L106.351-3.039l7.94,6.079Z" transform="translate(1286.384 1525.112)" fill="#ff8181"/></g></svg>