<?xml version="1.0" encoding="UTF-8"?><svg xmlns="http://www.w3.org/2000/svg" xmlns:xlink="http://www.w3.org/1999/xlink" viewBox="0 0 286.39 43.7"><defs><style>.f{fill:#fff;}.g{filter:url(#d);}</style><filter id="d" filterUnits="userSpaceOnUse"><feOffset dx="7" dy="7"/><feGaussianBlur result="e" stdDeviation="5"/><feFlood flood-color="#000" flood-opacity=".75"/><feComposite in2="e" operator="in"/><feComposite in="SourceGraphic"/></filter></defs><g id="a"/><g id="b"><g id="c"><g class="g"><path class="f" d="M0,42.87V.51H20.86c8.29,0,12.76,4.47,12.76,11.55,0,3.64-2.23,6.7-5.17,7.91,3.57,1.34,6.44,4.21,6.44,10.27,0,7.72-5.17,12.63-15.82,12.63H0ZM8.55,7.85v9.19h11.16c3.51,0,5.36-1.59,5.36-4.59,0-3.25-1.72-4.59-5.87-4.59H8.55Zm11.23,27.81c4.08,0,6.51-2.62,6.51-6.06,0-3.7-2.42-5.36-6.38-5.36H8.55v11.42h11.23Z"/><path class="f" d="M36.8,42.87V11.48h7.78v3.76c2.74-4.21,5.93-4.59,9.31-4.59h1.08v8.48c-.77-.13-1.53-.19-2.3-.19-5.1,0-7.59,2.55-7.59,7.59v16.33h-8.29Z"/><path class="f" d="M75.39,42.87c-.26-.77-.45-1.85-.51-2.81-1.98,2.17-5.29,3.64-9.5,3.64-7.14,0-10.46-3.51-10.46-8.61,0-9.06,6.06-10.08,14.42-11.23,4.15-.57,5.29-1.4,5.29-3.57,0-2.04-2.04-3.25-5.29-3.25-3.76,0-5.29,1.85-5.68,4.66h-7.72c.13-6.51,3.7-11.04,13.78-11.04s13.4,4.47,13.4,12.37v19.84h-7.72Zm-.57-15.37c-.83,.83-2.3,1.28-5.36,1.85-4.72,.89-6.25,2.23-6.25,4.91,0,2.36,1.4,3.51,4.02,3.51,4.27,0,7.46-3.13,7.53-6.83l.06-3.44Z"/><path class="f" d="M106.84,42.87V23.86c0-4.85-1.4-6.19-5.36-6.19-4.34,0-6.44,2.42-6.44,7.21v17.99h-8.29V11.48h7.91v4.59c1.91-3.51,5.1-5.42,10.14-5.42,6,0,10.4,3.64,10.4,10.46v21.75h-8.36Z"/><path class="f" d="M140.58,42.87l-.06-3.83c-1.98,3.19-4.91,4.66-8.74,4.66-7.91,0-13.59-6.25-13.59-16.84,0-9.5,4.78-16.2,12.89-16.2,3.89,0,6.95,1.59,9.31,4.91V0h8.16V42.87h-7.97Zm.13-14.93c0-6.83-2.36-10.21-6.95-10.21-4.85,0-7.14,3.25-7.14,9.7,0,5.61,2.93,9.5,7.08,9.5s7.02-3.7,7.02-8.99Z"/><path class="f" d="M152,42.87V.51h20.86c8.29,0,12.76,4.47,12.76,11.55,0,3.64-2.23,6.7-5.17,7.91,3.57,1.34,6.44,4.21,6.44,10.27,0,7.72-5.17,12.63-15.82,12.63h-19.07Zm8.55-35.02v9.19h11.16c3.51,0,5.36-1.59,5.36-4.59,0-3.25-1.72-4.59-5.87-4.59h-10.65Zm11.23,27.81c4.08,0,6.51-2.62,6.51-6.06,0-3.7-2.42-5.36-6.38-5.36h-11.35v11.42h11.23Z"/><path class="f" d="M188.1,27.17c0-9.95,6.19-16.52,16.14-16.52s15.95,6.51,15.95,16.52-6.19,16.52-15.95,16.52-16.14-6.76-16.14-16.52Zm23.73,0c0-6.38-2.55-9.5-7.59-9.5s-7.59,3.13-7.59,9.5,2.55,9.57,7.59,9.57,7.59-3.19,7.59-9.57Z"/><path class="f" d="M222.48,27.17c0-9.95,6.19-16.52,16.14-16.52s15.95,6.51,15.95,16.52-6.19,16.52-15.95,16.52-16.14-6.76-16.14-16.52Zm23.73,0c0-6.38-2.55-9.5-7.59-9.5s-7.59,3.13-7.59,9.5,2.55,9.57,7.59,9.57,7.59-3.19,7.59-9.57Z"/><path class="f" d="M276.82,42.87l-6.89-14.1-4.02,4.15v9.95h-8.36V0h8.36V23.41l10.33-11.93h10.14l-10.53,11.55,10.27,19.84h-9.31Z"/></g></g></g></svg>