<svg xmlns="http://www.w3.org/2000/svg" xmlns:xlink="http://www.w3.org/1999/xlink" width="490.444" height="490.446" viewBox="0 0 490.444 490.446"><defs><clipPath id="a"><rect width="490.444" height="490.446" fill="none"/></clipPath></defs><g transform="translate(490.444 490.446) rotate(180)"><g clip-path="url(#a)"><path d="M443.28,99.87l-.175-.126a37.672,37.672,0,0,0,5.4-19.59,38.149,38.149,0,0,0-38.146-38.145,37.346,37.346,0,0,0-20,5.677A244.541,244.541,0,0,0,245.219,0C109.789,0,0,109.784,0,245.22S109.789,490.446,245.219,490.446,490.444,380.659,490.444,245.22c0-54.371-17.231-104.685-47.164-145.35M410.347,59a20.819,20.819,0,1,1-20.822,20.822A20.841,20.841,0,0,1,410.347,59M245.1,465.531c-121.678,0-220.326-98.652-220.326-220.325,0-121.7,98.649-220.339,220.326-220.339A219.52,219.52,0,0,1,374.632,66.948,37.9,37.9,0,0,0,410.066,118.2a40.244,40.244,0,0,0,13.333-2.426,219.815,219.815,0,0,1,42.04,129.431c0,121.673-98.65,220.325-220.335,220.325" fill="#fff" fill-rule="evenodd"/></g></g></svg>