<svg xmlns="http://www.w3.org/2000/svg" xmlns:xlink="http://www.w3.org/1999/xlink" width="311.392" height="121.109" viewBox="0 0 311.392 121.109">
  <defs>
    <clipPath id="clip-path">
      <rect id="Rect치ngulo_949" data-name="Rect치ngulo 949" width="311.392" height="121.11" fill="none"/>
    </clipPath>
  </defs>
  <g id="easy-cl-logo" transform="translate(-510 -1858)">
    <g id="Grupo_314" data-name="Grupo 314" transform="translate(510 1858)">
      <rect id="Rect치ngulo_948" data-name="Rect치ngulo 948" width="311.392" height="121.11" fill="#db0812"/>
      <g id="Grupo_313" data-name="Grupo 313">
        <g id="Grupo_312" data-name="Grupo 312" clip-path="url(#clip-path)">
          <path id="Trazado_5319" data-name="Trazado 5319" d="M296.863,81.509q-.381.478-.987,1.115t-1.251,1.314q-.645.679-1.4,1.4a25.1,25.1,0,0,1-3.336,2.789,16.206,16.206,0,0,1-1.82,1.195,8.288,8.288,0,0,1-.91.557l-.91.479a4.963,4.963,0,0,1-.91.4,1.132,1.132,0,0,1-.455.2,1.157,1.157,0,0,0-.456.2c-.151.052-.43.132-.834.238a1.809,1.809,0,0,1-.835.239,2.616,2.616,0,0,1-.719.2c-.228.026-.468.066-.721.119a2.386,2.386,0,0,1-.606.079h-.949a1.28,1.28,0,0,0,.418-.079,1.484,1.484,0,0,1,.493-.079,1.721,1.721,0,0,0,.645-.16,6.787,6.787,0,0,0,1.365-.4,3.9,3.9,0,0,1,.418-.12,3.123,3.123,0,0,0,.417-.12.681.681,0,0,1,.379-.2.672.672,0,0,0,.379-.2,10.276,10.276,0,0,0,1.744-.8c.3-.159.608-.331.911-.517s.606-.384.909-.6a11.3,11.3,0,0,0,1.744-1.195c.3-.211.594-.424.872-.637s.542-.425.8-.637a8.4,8.4,0,0,1,.872-.678,4.774,4.774,0,0,0,.8-.676q.758-.638,1.441-1.276c.455-.423.884-.848,1.289-1.274a13.138,13.138,0,0,0,1.024-1.036q.414-.478.8-.876l.682-.716a.9.9,0,0,0-.151.239,2.048,2.048,0,0,1-.19.318,2.788,2.788,0,0,1-.266.318c-.2.268-.43.559-.682.878m-23.32-4.024a9.782,9.782,0,0,0-.418,1.314,20.783,20.783,0,0,0-.568,2.71q-.19,1.356-.266,2.469a11.524,11.524,0,0,0,.076,1.673v.478a.237.237,0,0,0,.076.16.237.237,0,0,1-.076-.16.7.7,0,0,0-.037-.2.908.908,0,0,1-.039-.279,9.029,9.029,0,0,1-.151-1.673v-1.2a7.3,7.3,0,0,1,.151-1.274q.078-.4.115-.717a5.929,5.929,0,0,1,.113-.638c.051-.265.1-.5.151-.717a6.546,6.546,0,0,1,.228-.717q.379-1.353.836-2.629c.2-.424.379-.823.53-1.2s.3-.716.454-1.036.291-.611.418-.875a5.671,5.671,0,0,1,.34-.639,2.432,2.432,0,0,0,.114-.279.494.494,0,0,1,.113-.2.234.234,0,0,0,.076-.16,3.158,3.158,0,0,1-.228.638c-.1.213-.215.453-.34.717a6.63,6.63,0,0,0-.341.877c-.1.318-.228.664-.379,1.036s-.3.769-.456,1.195-.316.864-.493,1.315m1.4-9.2a7.32,7.32,0,0,0,.531-.8,7.383,7.383,0,0,1,.53-.8q.455-.8.873-1.4t.8-1.076a2.835,2.835,0,0,0,.264-.319,1.99,1.99,0,0,0,.19-.319.89.89,0,0,1,.152-.238.89.89,0,0,0-.152.238c-.05.107-.1.228-.151.359a1.04,1.04,0,0,1-.228.359q-.3.561-.682,1.116a6.929,6.929,0,0,1-.379.677q-.229.36-.456.757a4.831,4.831,0,0,0-.492.757c-.227.4-.455.785-.682,1.156s-.418.691-.569.956-.2.319-.153.159Zm22.448-1.115.228-.956c.049-.159.1-.318.151-.478a1.412,1.412,0,0,0,.076-.4,1.5,1.5,0,0,0,.075-.439.825.825,0,0,1,.076-.358,1.437,1.437,0,0,1,.076-.558v.558a3.6,3.6,0,0,1-.076.8,2.36,2.36,0,0,1-.039.438,3.991,3.991,0,0,1-.113.438,3,3,0,0,0-.115.518,3.175,3.175,0,0,1-.113.517c-.1.319-.33.079-.228-.079m.758.359a12.636,12.636,0,0,0,.682-3.864,11.438,11.438,0,0,0-.682-3.786,13.372,13.372,0,0,0-1.857-3.545,10.917,10.917,0,0,0-2.73-2.628,5.741,5.741,0,0,0-3.222-1.037,8.065,8.065,0,0,0-4.248,1.514,27.367,27.367,0,0,0-4.778,4.025,50.778,50.778,0,0,0-4.74,5.735,53.24,53.24,0,0,0-4.094,6.692,44.8,44.8,0,0,0-2.882,6.933,21.315,21.315,0,0,0-1.1,6.413,9.593,9.593,0,0,0,1.061,3.945,20.491,20.491,0,0,0,2.73,4.3,17.778,17.778,0,0,0,3.792,3.466,7.557,7.557,0,0,0,4.248,1.434,16.436,16.436,0,0,0,6.6-1.455A38.278,38.278,0,0,0,293.45,92a50.079,50.079,0,0,0,5.953-4.84,14.955,14.955,0,0,0,2.431-2.506c2.691-2.949-3.33-6.871-3.945-5.7a25.75,25.75,0,0,1-2.088,2.426,49.4,49.4,0,0,1-5.308,4.9,32.8,32.8,0,0,1-5.764,3.7,12.871,12.871,0,0,1-5.763,1.474q-2.429,0-3.147-1.391A7.275,7.275,0,0,1,275.1,86.7a20.445,20.445,0,0,1,.91-5.722,41.6,41.6,0,0,1,2.39-6.2,48.667,48.667,0,0,1,3.374-5.962,43.091,43.091,0,0,1,3.906-5.088,22.108,22.108,0,0,1,4.019-3.575,6.669,6.669,0,0,1,3.6-1.353q1.06,0,1.137.6a8.137,8.137,0,0,1,.075.917,7.8,7.8,0,0,1-.8,3.187c-.53,1.17,1.573,4.106,4.436,4.023" transform="translate(-65.366 -12.821)" fill="#ffed00"/>
          <path id="Trazado_5320" data-name="Trazado 5320" d="M320.932,78.876v0a5.181,5.181,0,0,1,.076-.956,6.191,6.191,0,0,1,.039-.678c.025-.239.062-.49.113-.757a4.509,4.509,0,0,0,.227-.836c.051-.291.126-.624.228-1,.1-.319.189-.65.265-1s.164-.729.266-1.155c.1-.37.215-.742.341-1.115s.239-.769.342-1.2q.379-1.273.833-2.509t.91-2.59c.3-.848.619-1.686.948-2.51s.645-1.633.949-2.429.606-1.553.909-2.27.581-1.4.835-2.033q.91-2.07,1.365-3.028a1.3,1.3,0,0,0,.189-.437,1.5,1.5,0,0,1,.113-.359l.152-.319a7.418,7.418,0,0,1-.455,1.2q-.228.559-.531,1.315t-.682,1.714q-.38.954-.8,2.031t-.872,2.27q-.91,2.39-1.819,5.02-.457,1.274-.911,2.55t-.834,2.469q-.227.638-.418,1.195t-.34,1.115q-.153.639-.3,1.157c-.1.345-.2.676-.3.995a13.952,13.952,0,0,0-.455,1.832,3.1,3.1,0,0,0-.189.717,5.821,5.821,0,0,1-.114.638,5.181,5.181,0,0,0-.076.956M320.245,64.5q.416-1.394,1.024-3.147.3-.876.607-1.793t.682-1.953q.379-1.034.721-2.031T324,53.46q.834-2.07,1.668-4.3t1.744-4.542q.91-2.311,1.858-4.5t1.858-4.263q.91-2.07,1.782-3.942t1.63-3.547q.756-1.592,1.4-2.948t1.1-2.311q.53-1.117.91-1.992-.381.956-.834,2.071-.381.957-.948,2.311t-1.327,3.028q-.683,1.674-1.516,3.585t-1.745,3.985q-.909,2.071-1.819,4.263t-1.821,4.5q-.909,2.231-1.782,4.461T324.454,53.7q-.381,1.116-.758,2.11t-.76,1.952q-.379.957-.682,1.874t-.682,1.792q-.608,1.754-1.1,3.109t-.872,2.39q-.377,1.194-.758,2.151a1.369,1.369,0,0,1,.151-.558,4.645,4.645,0,0,1,.228-.676,7.081,7.081,0,0,0,.3-.917q.305-1.035.721-2.43m15.361-35.217c-.227.557-.468,1.129-.719,1.712q-.381.957-.8,1.912t-.872,1.913q-.835,2.072-1.592,3.824-.381.876-.721,1.753a15.05,15.05,0,0,1-.721,1.593q-.3.8-.569,1.4t-.416.995c-.152.319-.279.611-.379.877a.62.62,0,0,1,.076-.239l.3-.638.34-1.075q.19-.6.493-1.394.3-.717.645-1.594t.719-1.752a41.087,41.087,0,0,1,1.593-3.825q.379-1.034.834-1.992c.3-.638.58-1.247.833-1.832s.505-1.155.76-1.713.5-1.1.758-1.633c.2-.478.4-.916.607-1.314s.354-.73.455-1c.151-.319.278-.611.379-.878a7.6,7.6,0,0,1-.379.957q-.152.4-.38,1c-.151.4-.33.837-.53,1.314q-.38.8-.721,1.634m2.5,36.093q-1.1,2.271-2.388,4.661t-2.73,4.66a31.582,31.582,0,0,1-3.033,4.063,15.57,15.57,0,0,1-3.3,2.869,6.41,6.41,0,0,1-3.451,1.076q-1.745,0-1.745-1.6a25.165,25.165,0,0,1,.949-6.061q.948-3.669,2.466-8.1t3.488-9.294q1.971-4.866,3.981-9.612t3.982-9.134q1.971-4.388,3.488-7.858t2.464-5.7a10.942,10.942,0,0,0,.949-2.792,3.8,3.8,0,0,0-.722-2.114,11.579,11.579,0,0,0-1.592-1.915,11.7,11.7,0,0,0-1.669-1.356,2.874,2.874,0,0,0-1.023-.518q-.76,0-.76.955a21.839,21.839,0,0,1-.946,2.352q-.949,2.19-2.5,5.735t-3.527,8.127q-1.974,4.584-4.058,9.6t-4.05,10.118q-1.964,5.1-3.5,9.721t-2.47,8.405a26.8,26.8,0,0,0-.936,6.1,8.183,8.183,0,0,0,1.123,4.223,14.382,14.382,0,0,0,2.695,3.347,12.422,12.422,0,0,0,3.389,2.23,8.11,8.11,0,0,0,3.183.8,9.917,9.917,0,0,0,6.521-2.4,26.419,26.419,0,0,0,5.156-5.855,52.127,52.127,0,0,0,3.982-7.245q1.706-3.784,3-6.493a1.772,1.772,0,0,0-.265-1.633,9.95,9.95,0,0,0-1.441-1.912,7.743,7.743,0,0,0-1.707-1.4q-.833-.477-1.061-.079-.836,1.754-1.935,4.023" transform="translate(-76.801 -4.053)" fill="#ffed00"/>
          <path id="Trazado_5321" data-name="Trazado 5321" d="M248.037,104.4a.953.953,0,0,0,.271.733,13.249,13.249,0,0,1,1.55,1.382,3.443,3.443,0,0,0,1.781.977,4.431,4.431,0,0,0,2.517.08,6.02,6.02,0,0,0,2.362-1.22,12.178,12.178,0,0,0,3.33-6.916,3.549,3.549,0,0,0-.658-1.708,2.524,2.524,0,0,0-1.278-1.221,6.915,6.915,0,0,0-2.516-.325,21.843,21.843,0,0,0-2.518.325,1.024,1.024,0,0,1-.35.244.8.8,0,0,0-.348.326,37.32,37.32,0,0,1-3.1,3.5A4.153,4.153,0,0,0,248,103.422q0,.407.039.976" transform="translate(-60.375 -23.412)" fill="#ffed00"/>
          <path id="Trazado_5322" data-name="Trazado 5322" d="M66.43,77.538q.168,7.072,3.662,10.356T80.4,91.176a30.937,30.937,0,0,0,11.365-2.1,12.673,12.673,0,0,1,1.095,3.073,20.027,20.027,0,0,1,.505,3.578,28.109,28.109,0,0,1-6.1,1.767,42.379,42.379,0,0,1-7.367.59,27.8,27.8,0,0,1-10.1-1.642,17.754,17.754,0,0,1-10.945-11.7A30.23,30.23,0,0,1,57.59,75.77,31.785,31.785,0,0,1,58.81,66.8a20.183,20.183,0,0,1,3.746-7.239,18.128,18.128,0,0,1,6.357-4.884,21.017,21.017,0,0,1,9.05-1.81,18.924,18.924,0,0,1,7.829,1.515,15.921,15.921,0,0,1,5.641,4.168,18.1,18.1,0,0,1,3.452,6.313,25.853,25.853,0,0,1,1.178,7.956q0,1.18-.084,2.484t-.169,2.23Zm21.384-6.229a15.9,15.9,0,0,0-.632-4.5,11.457,11.457,0,0,0-1.852-3.746,9.034,9.034,0,0,0-3.115-2.568,9.8,9.8,0,0,0-4.5-.968q-5.135,0-7.871,3.115a15.236,15.236,0,0,0-3.326,8.672Z" transform="translate(-14.02 -12.871)" fill="#fff"/>
          <path id="Trazado_5323" data-name="Trazado 5323" d="M136.957,68.614q0-4.967-2.526-6.9t-7.324-1.937a31.154,31.154,0,0,0-5.515.464,41.983,41.983,0,0,0-5.008,1.22,13.108,13.108,0,0,1-1.6-6.651,38.872,38.872,0,0,1,6.314-1.431,45.93,45.93,0,0,1,6.65-.505q8.418,0,12.8,3.831t4.377,12.249V95.974q-2.948.675-7.156,1.39a51.287,51.287,0,0,1-8.587.715,33.651,33.651,0,0,1-7.451-.757,15.21,15.21,0,0,1-5.64-2.441,11.31,11.31,0,0,1-3.578-4.293,14.4,14.4,0,0,1-1.263-6.314,12.867,12.867,0,0,1,5.472-10.9,17.823,17.823,0,0,1,5.809-2.694,26.442,26.442,0,0,1,6.9-.884q2.694,0,4.421.126t2.9.294Zm0,8.166q-1.263-.168-3.2-.337t-3.283-.168q-5.221,0-7.956,1.936a6.738,6.738,0,0,0-2.736,5.894,7.237,7.237,0,0,0,.926,3.956,6.372,6.372,0,0,0,2.316,2.189,7.993,7.993,0,0,0,3.073.925,31.829,31.829,0,0,0,3.2.169,39.5,39.5,0,0,0,4-.21,23.957,23.957,0,0,0,3.662-.632Z" transform="translate(-27.132 -12.871)" fill="#fff"/>
          <path id="Trazado_5324" data-name="Trazado 5324" d="M163.014,89.24a28.809,28.809,0,0,0,10.439,2.02,15.9,15.9,0,0,0,3.7-.421,9.826,9.826,0,0,0,3.074-1.263,7.036,7.036,0,0,0,2.1-2.062,4.886,4.886,0,0,0,.8-2.736A5.514,5.514,0,0,0,182.5,82a5.916,5.916,0,0,0-1.684-1.853,11.211,11.211,0,0,0-2.441-1.3q-1.39-.547-2.99-1.052L172.443,76.7a21.284,21.284,0,0,1-7.83-4.546,9.392,9.392,0,0,1-2.441-6.82,11.168,11.168,0,0,1,4.082-9.091q4.082-3.366,12-3.367a32.713,32.713,0,0,1,6.44.632,39.692,39.692,0,0,1,5.515,1.473,20.478,20.478,0,0,1-.631,3.367,19.4,19.4,0,0,1-1.137,3.115,43.545,43.545,0,0,0-4.419-1.3,23.032,23.032,0,0,0-5.514-.632,13.169,13.169,0,0,0-5.515,1.094,3.912,3.912,0,0,0-2.4,3.873,4.755,4.755,0,0,0,.589,2.442,5.505,5.505,0,0,0,1.6,1.726,10.561,10.561,0,0,0,2.316,1.22q1.3.5,2.82,1.01l3.7,1.263a27.746,27.746,0,0,1,3.83,1.6,11.3,11.3,0,0,1,3.115,2.316,10.757,10.757,0,0,1,2.105,3.367,13.909,13.909,0,0,1-.464,10.439,12.509,12.509,0,0,1-3.577,4.377,17.2,17.2,0,0,1-5.6,2.821,24.57,24.57,0,0,1-7.239,1.01,40.325,40.325,0,0,1-7.072-.547,36.12,36.12,0,0,1-5.641-1.473,16.63,16.63,0,0,1,.716-3.41q.546-1.726,1.22-3.41" transform="translate(-39.214 -12.871)" fill="#fff"/>
          <path id="Trazado_5325" data-name="Trazado 5325" d="M222.509,97.4c-.45,0-.913.013-1.389.042s-.94.042-1.389.042q-.842,0-1.768-.042t-1.515-.126L202.136,54.126a19.537,19.537,0,0,1,2.273-.211q1.177-.041,2.189-.042,1.093,0,2.441.042a15.788,15.788,0,0,1,2.273.211l11.954,40.157,12.375-40.157a29.484,29.484,0,0,1,4.125-.253q.925,0,2.1.042a22.38,22.38,0,0,1,2.357.211l-16.754,51.943a39.56,39.56,0,0,1-2.441,5.81,13.732,13.732,0,0,1-2.863,3.787,9.31,9.31,0,0,1-3.578,2.021,16.131,16.131,0,0,1-4.589.59,24.938,24.938,0,0,1-3.83-.3,26.355,26.355,0,0,1-3.325-.716,14.873,14.873,0,0,1,1.347-6.483c.505.169,1.192.35,2.063.548a12.813,12.813,0,0,0,2.82.3,9.728,9.728,0,0,0,2.063-.211,4.63,4.63,0,0,0,1.809-.842,6.337,6.337,0,0,0,1.559-1.81,16.211,16.211,0,0,0,1.389-3.2Z" transform="translate(-49.21 -13.115)" fill="#fff"/>
        </g>
      </g>
    </g>
  </g>
</svg>
