<svg xmlns="http://www.w3.org/2000/svg" viewBox="0 0 661.7 661.71"><defs><style>.cls-1{fill:#fff;}.cls-1,.cls-2{fill-rule:evenodd;}.cls-2,.cls-3{fill:#db0812;}.cls-4{fill:#ffed00;}</style></defs><g id="Capa_2" data-name="Capa 2"><g id="Capa_1-2" data-name="Capa 1"><path class="cls-1" d="M526.67,64.34a50.42,50.42,0,0,1,27-7.66,51.47,51.47,0,0,1,51.47,51.46,50.78,50.78,0,0,1-7.29,26.43l.24.17c40.39,54.87,63.63,122.75,63.63,196.11,0,182.73-148.12,330.86-330.85,330.86S0,513.58,0,330.85,148.12,0,330.85,0A329.93,329.93,0,0,1,526.67,64.34"/><path class="cls-2" d="M571.25,156.2a54.23,54.23,0,0,1-18,3.28,51.13,51.13,0,0,1-47.81-69.15A296.16,296.16,0,0,0,330.69,33.55c-164.17,0-297.26,133.09-297.26,297.28S166.52,628.09,330.69,628.09,628,495,628,330.83A296.63,296.63,0,0,0,571.25,156.2"/><path class="cls-3" d="M525.54,107.7a28.12,28.12,0,1,1,28.1,28.08,28.1,28.1,0,0,1-28.1-28.08"/><path class="cls-1" d="M169,497.52a18,18,0,0,1,6.18-4.1,19.07,19.07,0,0,1,7.12-1.42,18.35,18.35,0,0,1,7,1.42,17.93,17.93,0,0,1,6.27,4.1l2.6,2.6-5.2,5.26-2.67-2.59a11,11,0,0,0-3.78-2.52,11.2,11.2,0,0,0-8.51,0,11,11,0,0,0-3.78,2.52,10.58,10.58,0,0,0-2.51,3.68,11.5,11.5,0,0,0,0,8.53,11.48,11.48,0,0,0,2.51,3.76,11,11,0,0,0,8,3.34,11.76,11.76,0,0,0,4.35-.83,10.32,10.32,0,0,0,3.68-2.51l2.67-2.6,5.2,5.29-2.6,2.59a19,19,0,0,1-6.27,4.18,19.44,19.44,0,0,1-7,1.33,20.21,20.21,0,0,1-7.12-1.33A19.2,19.2,0,0,1,169,524a18.28,18.28,0,0,1-4.1-6.19,19.35,19.35,0,0,1,0-14.15,18,18,0,0,1,4.1-6.18"/><path class="cls-1" d="M233.27,516.33l5.27,5.27L236,524.2a18.88,18.88,0,0,1-6.11,4.1,19,19,0,0,1-14.38,0,19,19,0,0,1-6.11-4.1,18.13,18.13,0,0,1-4.1-6.19,19.89,19.89,0,0,1-1.33-7.11,19.14,19.14,0,0,1,1.33-7,18.63,18.63,0,0,1,10.29-10.3,18.93,18.93,0,0,1,7.11-1.41,18.31,18.31,0,0,1,7,1.41,17.93,17.93,0,0,1,6.27,4.1l2.59,2.6-20.83,20.83a11,11,0,0,0,13-2.18Zm-18.65-13.46a11.15,11.15,0,0,0-2.17,13c.67-.66,1.66-1.67,3-3s2.84-2.85,4.34-4.35,3-3,4.43-4.44,2.57-2.48,3.36-3.26a11.14,11.14,0,0,0-6.78-1.09,10.67,10.67,0,0,0-6.19,3.18"/><path class="cls-1" d="M245.25,510.81a18.38,18.38,0,0,1,1.43-7.27,19.17,19.17,0,0,1,4-5.94,18.29,18.29,0,0,1,6-4,17.69,17.69,0,0,1,7.26-1.51,17.41,17.41,0,0,1,7.28,1.51,18.11,18.11,0,0,1,6,4,17.19,17.19,0,0,1,4,5.94,17.59,17.59,0,0,1,1.51,7.27v18.81h-7.45V510.81a10.33,10.33,0,0,0-.92-4.34,9.85,9.85,0,0,0-2.43-3.6,10.1,10.1,0,0,0-3.6-2.43,11.24,11.24,0,0,0-8.86,0,11.34,11.34,0,0,0-6,6,10.93,10.93,0,0,0-.83,4.34v18.81h-7.46Z"/><path class="cls-1" d="M295.06,497.52a18.09,18.09,0,0,1,6.19-4.1,18.9,18.9,0,0,1,7.11-1.42,18.43,18.43,0,0,1,7,1.42,18,18,0,0,1,6.27,4.1l2.58,2.6-5.17,5.26-2.68-2.59a11,11,0,0,0-3.77-2.52,11.25,11.25,0,0,0-8.53,0,10.87,10.87,0,0,0-3.76,2.52,10.32,10.32,0,0,0-2.51,3.68,11.25,11.25,0,0,0,0,8.53,11.18,11.18,0,0,0,2.51,3.76,11,11,0,0,0,8,3.34,11.76,11.76,0,0,0,4.35-.83,10.41,10.41,0,0,0,3.68-2.51l2.68-2.6,5.17,5.29L321.66,524a19.14,19.14,0,0,1-6.27,4.18,19.52,19.52,0,0,1-7,1.33,20,20,0,0,1-7.11-1.33,19.24,19.24,0,0,1-6.19-4.18,18.13,18.13,0,0,1-4.1-6.19,19.48,19.48,0,0,1,0-14.15,17.91,17.91,0,0,1,4.1-6.18"/><path class="cls-1" d="M329.93,510.9a18.41,18.41,0,0,1,1.42-7.27,19.45,19.45,0,0,1,4-5.95,18.55,18.55,0,0,1,6-4,17.89,17.89,0,0,1,7.27-1.5,17.7,17.7,0,0,1,7.28,1.5,18.51,18.51,0,0,1,6,4,18.86,18.86,0,0,1,5.51,13.22,17.63,17.63,0,0,1-1.5,7.27,18.09,18.09,0,0,1-4,6,19.77,19.77,0,0,1-6,4.1,18.49,18.49,0,0,1-7.28,1.41,18.69,18.69,0,0,1-7.27-1.41,19.82,19.82,0,0,1-6-4.1,20.72,20.72,0,0,1-4-6,19,19,0,0,1-1.42-7.27m7.37,0a11.56,11.56,0,0,0,.84,4.43,10.91,10.91,0,0,0,6.09,6.1,11.69,11.69,0,0,0,4.44.84,11.49,11.49,0,0,0,4.43-.84,11.35,11.35,0,0,0,3.59-2.42,10.81,10.81,0,0,0,2.44-3.68,11.08,11.08,0,0,0,.91-4.43,10.53,10.53,0,0,0-.91-4.35,9.83,9.83,0,0,0-2.44-3.59,10,10,0,0,0-3.59-2.44,10.84,10.84,0,0,0-4.43-.91,11.69,11.69,0,0,0-8.11,3.35,11.35,11.35,0,0,0-2.42,3.59,11,11,0,0,0-.84,4.35"/><path class="cls-1" d="M406.55,492v7.44H383.88a3.74,3.74,0,0,0-3.76,3.78,3.88,3.88,0,0,0,1.09,2.75,3.62,3.62,0,0,0,2.67,1.08h15.06a10.26,10.26,0,0,1,4.35.93,10.61,10.61,0,0,1,3.59,2.35,10,10,0,0,1,2.42,3.58,10.15,10.15,0,0,1,.93,4.35,10.62,10.62,0,0,1-.93,4.44,10.74,10.74,0,0,1-2.42,3.59,11.64,11.64,0,0,1-3.59,2.44,11.2,11.2,0,0,1-4.35.84H376.37V522.1h22.57a3.68,3.68,0,0,0,2.75-1.08,3.77,3.77,0,0,0,1.1-2.77,3.64,3.64,0,0,0-1.1-2.68,3.75,3.75,0,0,0-2.75-1.08H383.88a11.75,11.75,0,0,1-4.43-.83,11.91,11.91,0,0,1-3.51-2.43,13,13,0,0,1-2.42-3.6,11.7,11.7,0,0,1-.84-4.42,11.13,11.13,0,0,1,.84-4.35,11.85,11.85,0,0,1,2.42-3.61,11.48,11.48,0,0,1,7.94-3.26Z"/><path class="cls-1" d="M454.41,492v18.74a17.84,17.84,0,0,1-1.5,7.28,18.42,18.42,0,0,1-4,6,19.33,19.33,0,0,1-6,4.09,18.31,18.31,0,0,1-7.27,1.43,18.79,18.79,0,0,1-7.28-1.43,19.64,19.64,0,0,1-6-4.09,20.72,20.72,0,0,1-4-6,18.82,18.82,0,0,1-1.42-7.28V492h7.45v18.74a11.52,11.52,0,0,0,.83,4.43,12.71,12.71,0,0,0,2.42,3.68,12.87,12.87,0,0,0,3.6,2.42,11.72,11.72,0,0,0,4.43.84,11.84,11.84,0,0,0,4.44-.84,11.19,11.19,0,0,0,3.59-2.42,10.69,10.69,0,0,0,2.43-3.68,10.88,10.88,0,0,0,.92-4.43V492Z"/><path class="cls-1" d="M497,477v33.77a17.87,17.87,0,0,1-1.52,7.29,18.32,18.32,0,0,1-4,6,17.86,17.86,0,0,1-13.19,5.51,18.83,18.83,0,0,1-7.29-1.42A19.38,19.38,0,0,1,460.87,518a18.66,18.66,0,0,1-1.43-7.29,18.12,18.12,0,0,1,1.43-7.26,18.31,18.31,0,0,1,4.09-5.94,18.56,18.56,0,0,1,6-4,17.86,17.86,0,0,1,7.29-1.51h11.29V477ZM478.27,522.1a11.37,11.37,0,0,0,4.34-.83,11.55,11.55,0,0,0,3.59-2.43,10.69,10.69,0,0,0,2.43-3.68,11,11,0,0,0,.93-4.44V499.44H478.27a10.77,10.77,0,0,0-4.44.92,11,11,0,0,0-3.7,2.43,12.24,12.24,0,0,0-2.42,3.6,11.36,11.36,0,0,0-.83,4.33,12.09,12.09,0,0,0,.83,4.44,13.35,13.35,0,0,0,2.42,3.68,13,13,0,0,0,3.7,2.43,12,12,0,0,0,4.44.83"/><polygon class="cls-4" points="601.31 258.56 536.1 429.6 498.59 429.49 523.19 373.72 478.89 258.67 516.29 258.67 540.46 332.88 541.79 332.86 564.15 258.57 601.31 258.56"/><path class="cls-4" d="M473.12,345.15c0,27.35-30,37.57-58.17,37.59S357.49,371.91,357.47,345h37.07c0,8.42,11.66,11.6,20.46,11.59,8.64,0,19.85-2.3,19.85-10.44,0-10.25-13.94-11.74-35.83-17.42-22.72-6-38.91-15.91-38.94-37.31,0-27.2,26.5-36.52,54.83-36.56,28,0,53.63,9.28,53.65,36.46l-36.6.12c0-7.55-9.3-10.49-17-10.46s-17,1.88-17,9.36c0,10.27,15.63,11.56,33.27,15.88,22.55,5.48,41.89,14.65,41.91,38.95"/><path class="cls-4" d="M336.67,378.14l-34.74.23.09-13.73-1.35,0c-5.78,11.66-17.37,18.06-35.35,18.11-30.47.06-56.88-24.95-56.9-64.35,0-39.9,24.05-63.68,54.68-63.69,17,0,31,7,37.28,17.43l1.34,0-.07-13.48h34.9Zm-35.22-59.78c0-16-8.89-31-29.56-31s-27.38,16.71-27.38,31.09c0,15.14,8.11,31.54,29,31.55,21.43-.07,27.92-17.27,27.92-31.68"/><path class="cls-4" d="M189,317.57c0,4.74-.64,12.21-.64,12.21l-86.24,0c.84,14,11.31,23.93,26,23.88,10.68,0,17.57-4,20.94-11.35l37.42.06c-3.41,17.76-18.79,40.23-57.71,40.26-37.39.08-63.43-29.41-63.45-65,0-36.05,23.59-62.83,60.83-62.88,37.47,0,62.83,27,62.84,62.82m-37.15-11.95c-.49-7-5-21.91-25.12-21.91-18,0-23.92,14.93-24.66,21.91Z"/><path class="cls-4" d="M432.89,430.8C337.76,418,242.18,417.23,94,427.81L95.64,421c148.06-13.06,264.76-19.93,328.75-18,37.74,1.16,49.22,3.9,49.22,17.28,0,14.28-16.78,13.73-40.72,10.49"/></g></g></svg>