<svg xmlns="http://www.w3.org/2000/svg" xmlns:xlink="http://www.w3.org/1999/xlink" width="148" height="123" viewBox="0 0 148 123"><defs><clipPath id="a"><rect width="140" height="115" fill="none"/></clipPath></defs><g transform="translate(3 2)"><g transform="translate(-3 -2)" clip-path="url(#a)"><path d="M130.9,97.39a2.9,2.9,0,0,0-2.6-2.956V90.153l-8.1,3.977c-.018.009-.022.03-.037.042H114.3a.817.817,0,0,0-.792.836v4.843a.816.816,0,0,0,.792.834h5.879c.022,0,.035-.018.055-.022l8.07,3.966v-4.281a2.9,2.9,0,0,0,2.6-2.958m-16.839,2.461V95.008a.253.253,0,0,1,.239-.266h5.879a.268.268,0,0,0,.2-.1c.022,0,.044.007.065,0l5.629-2.765V102.9l-1.243-.611V97.883a.277.277,0,1,0-.553,0v4.136l-1.243-.611V97.883a.277.277,0,1,0-.553,0v3.254l-1.273-.625c.008-.027.029-.045.029-.074V97.884a.277.277,0,1,0-.553,0v2.371l-.239-.118a.26.26,0,0,0-.222,0c-.017,0-.027-.019-.045-.019h-.737V97.883a.277.277,0,1,0-.553,0v2.233h-1.242V97.883a.277.277,0,1,0-.553,0v2.233h-1.243V97.883a.277.277,0,1,0-.553,0v2.233h-1a.254.254,0,0,1-.239-.265m13.689,3.875-1.177-.578a.275.275,0,0,0,.055-.135V91.607l1.122-.551Zm.553-3.947V95a2.418,2.418,0,0,1,0,4.776" transform="translate(5.89 6.158)" fill="#e30613"/><path d="M132.933,96.59h-1.79a.284.284,0,0,0,0,.568h1.79a.284.284,0,0,0,0-.568" transform="translate(6.79 6.598)" fill="#e30613"/><path d="M130.314,101.045a.272.272,0,0,0-.391-.009.291.291,0,0,0-.008.4l1.266,1.359a.271.271,0,0,0,.2.088.268.268,0,0,0,.191-.079.29.29,0,0,0,.008-.4Z" transform="translate(6.737 6.896)" fill="#e30613"/><path d="M130.168,92.9a.272.272,0,0,0,.2-.088l1.266-1.359a.29.29,0,0,0-.008-.4.271.271,0,0,0-.391.009l-1.266,1.359a.289.289,0,0,0,.008.4.268.268,0,0,0,.191.079" transform="translate(6.74 6.214)" fill="#e30613"/><path d="M73.609,96.308a1.735,1.735,0,0,0-.309.032c-.009-.014-.006-.032-.018-.044l-4.373-4.461c-.012-.012-.028-.009-.04-.017l.48-.494a2.847,2.847,0,0,0,0-3.941,2.657,2.657,0,0,0-3.832,0L64.2,88.735c-.038.037-.074.077-.108.118a4.443,4.443,0,0,0-2.2-.589,4.348,4.348,0,0,0-3.13,1.341l-.195.2,2.576,2.649a2.427,2.427,0,0,0,.053,3.31,2.262,2.262,0,0,0,3.217.053l2.578,2.652.2-.2a4.65,4.65,0,0,0,1.1-4.553l3.663,3.767a1.778,1.778,0,0,0-.019,1.255l-6.826,7.021a.268.268,0,0,0-.059.145H63.172v-1.249a.277.277,0,1,0-.553,0V105.9h-.676a2.482,2.482,0,0,0-2.444,2.513v.285H72.352v-.285a2.482,2.482,0,0,0-2.445-2.513H67.478l5.8-5.962a1.829,1.829,0,1,0,.333-3.634m-9.6-6.846.218.14.153-.213a2.15,2.15,0,0,1,.211-.253l1.313-1.35a2.114,2.114,0,0,1,3.049,0,2.265,2.265,0,0,1,0,3.135l-1.313,1.35a2.159,2.159,0,0,1-.247.218l-.206.157.136.224a4.145,4.145,0,0,1,.333,3.64l-7.188-7.393a3.741,3.741,0,0,1,1.422-.285,3.922,3.922,0,0,1,2.118.629M62.84,95.9a1.732,1.732,0,0,1-1.25-.532,1.847,1.847,0,0,1-.053-2.505l2.488,2.559a1.725,1.725,0,0,1-1.185.479m4.148,1.763-7.628-7.846a3.888,3.888,0,0,1,.582-.429l7.46,7.673a4.036,4.036,0,0,1-.413.6m1.059-5,.455-.468c.009.014.006.032.018.044l4.223,4.311a1.768,1.768,0,0,0-.5.429Zm3.732,15.471H60.072a1.915,1.915,0,0,1,1.87-1.661h7.965a1.912,1.912,0,0,1,1.871,1.661M66.7,105.9l0,.006h-.954l6.46-6.644a1.8,1.8,0,0,0,.506.457Zm6.906-6.491a1.227,1.227,0,0,1-1.112-.739c-.012-.025-.009-.052-.028-.073a1.271,1.271,0,0,1-.089-.453,1.23,1.23,0,1,1,1.23,1.265" transform="translate(3.039 5.913)" fill="#e30613"/><path d="M62.719,14.873a1.152,1.152,0,1,0,.553,0v-1.33h3.4v7.118H63.259a2.318,2.318,0,0,0-2.282,2.348v.285H72.912V23.01a2.318,2.318,0,0,0-2.283-2.348H67.221V13.543h7.4l-3.649-11.6H62.914l-3.649,11.6h3.454ZM63.595,16a.6.6,0,1,1-.6-.616h0a.609.609,0,0,1,.6.616m8.742,6.724H61.553a1.747,1.747,0,0,1,1.706-1.495H70.63a1.748,1.748,0,0,1,1.707,1.495M63.317,2.517h7.256l.287.912H67.1A.285.285,0,0,0,67.1,4h3.873c.021,0,.035-.018.055-.024l.331,1.052H67.1a.284.284,0,0,0,0,.568h4.433l0,0,.324,1.03H67.1a.285.285,0,0,0,0,.569h4.926c.005,0,.008-.005.014-.006l.325,1.034H67.1a.284.284,0,0,0,0,.568h5.444l.324,1.028H67.1a.285.285,0,0,0,0,.569h5.945l.324,1.027H67.1a.285.285,0,0,0,0,.569h6.448l.312.992H63.018c-.008,0-.014-.009-.022-.009s-.013.007-.021.009H60.026Z" transform="translate(3.075 0.133)" fill="#e30613"/><path d="M102.455,43.238v3.072a5.235,5.235,0,0,1-3.787,1.62,5.428,5.428,0,0,1-5.344-5.5V40.8a6.259,6.259,0,0,0,6.047-6.331v-.284H95.386a2.175,2.175,0,0,0-4.35,0H87.05v.284a6.269,6.269,0,0,0,5.721,6.314v1.655a5.99,5.99,0,0,0,5.9,6.066,5.752,5.752,0,0,0,2.161-.429v3a1.122,1.122,0,1,0,.553,0V47.805c0-.005-.005-.007-.005-.012a5.88,5.88,0,0,0,1.078-.747V49.6a1.992,1.992,0,0,0,1.961,2.017h.277v-10.4h-.277a1.991,1.991,0,0,0-1.961,2.017M93.212,32.62a1.607,1.607,0,0,1,1.621,1.561H91.59a1.608,1.608,0,0,1,1.622-1.561m-5.6,2.13h11.2a5.6,5.6,0,0,1-11.2,0m14.065,17.416a.569.569,0,1,1-.569-.585.578.578,0,0,1,.569.585m2.465-1.146a1.438,1.438,0,0,1-1.131-1.419V43.238a1.441,1.441,0,0,1,1.131-1.42Z" transform="translate(4.517 2.189)" fill="#e30613"/><path d="M9.053,87.08a1.882,1.882,0,0,0-1.885,1.807H3.78v.285a5.352,5.352,0,0,0,5,5.4v1.28a1.134,1.134,0,0,0,0,2.193V106l-4.253,1.569a.285.285,0,0,0-.179.316.279.279,0,0,0,.272.236h8.871a.285.285,0,0,0,.075-.558L9.33,106V98.041a1.134,1.134,0,0,0,0-2.193v-1.28a5.353,5.353,0,0,0,5-5.4v-.285H10.937A1.882,1.882,0,0,0,9.053,87.08m0,.568a1.319,1.319,0,0,1,1.323,1.238H7.729a1.319,1.319,0,0,1,1.324-1.238m-.569,9.3a.578.578,0,0,1,.292-.5v1a.581.581,0,0,1-.292-.5M6.208,107.553l2.844-1.05,2.844,1.05ZM9.622,96.944a.581.581,0,0,1-.292.5v-1a.578.578,0,0,1,.292.5M9.2,94.012a.2.2,0,0,0-.287,0,4.781,4.781,0,0,1-4.567-4.556h9.423A4.783,4.783,0,0,1,9.2,94.012" transform="translate(0.196 5.948)" fill="#e30613"/><path d="M5.991,18.032V18.3H6v2.285a1.94,1.94,0,0,0,1.865,2h1.7a1.939,1.939,0,0,0,1.864-2V18.3h.007v-.271a5.607,5.607,0,0,1,.911-3.045,5.328,5.328,0,0,0,1.511-3.742A5.222,5.222,0,0,0,8.712,5.957a5.221,5.221,0,0,0-5.141,5.288A5.322,5.322,0,0,0,5.08,14.986a5.6,5.6,0,0,1,.911,3.046M10.9,20.589v0H6.525v-.819H10.9Zm-1.338,1.46h-1.7a1.345,1.345,0,0,1-1.24-.917H10.8a1.344,1.344,0,0,1-1.239.917M10.9,19.232H6.525V18.3H10.9ZM8.712,6.5a4.687,4.687,0,0,1,4.615,4.748,4.785,4.785,0,0,1-1.373,3.377l-.019.018-.015.024a6.161,6.161,0,0,0-1.009,3.1h-1a.5.5,0,0,0,.186-.387c0-.5-.645-.66-1.329-.832a3.156,3.156,0,0,1-.92-.322,3.164,3.164,0,0,1,.921-.322c.683-.173,1.327-.337,1.327-.834s-.645-.66-1.327-.833a3.558,3.558,0,0,1-.908-.308,3.479,3.479,0,0,1,.907-.309c.684-.172,1.329-.337,1.329-.833s-.645-.66-1.329-.833a3.479,3.479,0,0,1-.907-.309,3.605,3.605,0,0,1,.907-.308C9.457,11.16,10.1,11,10.1,10.5a.263.263,0,0,0-.525-.02,2.95,2.95,0,0,1-.928.329c-.683.172-1.327.335-1.327.832s.645.66,1.327.833a3.57,3.57,0,0,1,.908.309,3.57,3.57,0,0,1-.908.309c-.683.173-1.327.335-1.327.833s.645.66,1.327.833a3.6,3.6,0,0,1,.908.308,3.474,3.474,0,0,1-.908.309c-.683.173-1.327.337-1.327.835v.025c0,.5.644.66,1.326.833a3.614,3.614,0,0,1,.908.308,3.5,3.5,0,0,1-.908.309l-.085.022c-.032.009-.047.037-.073.056H6.511a6.161,6.161,0,0,0-1.009-3.1l-.015-.022-.019-.018A4.78,4.78,0,0,1,4.1,11.245,4.688,4.688,0,0,1,8.712,6.5" transform="translate(0.185 0.407)" fill="#e30613"/><path d="M2.376,10.8a.267.267,0,0,0-.263-.27H.263a.27.27,0,0,0,0,.541h1.85a.267.267,0,0,0,.263-.27" transform="translate(0 0.72)" fill="#e30613"/><path d="M8.388,4.8a.267.267,0,0,0,.263-.27v-1.9a.263.263,0,1,0-.526,0v1.9a.267.267,0,0,0,.263.27" transform="translate(0.422 0.161)" fill="#e30613"/><path d="M2.962,14.938,1.654,16.282a.279.279,0,0,0,0,.384.259.259,0,0,0,.372,0l1.307-1.346a.274.274,0,0,0,0-.381.257.257,0,0,0-.371,0" transform="translate(0.082 1.015)" fill="#e30613"/><path d="M2.906,6.776a.259.259,0,0,0,.372,0,.277.277,0,0,0,0-.382L1.97,5.048a.257.257,0,0,0-.371,0,.275.275,0,0,0,0,.382Z" transform="translate(0.079 0.339)" fill="#e30613"/><path d="M14.446,10.8a.267.267,0,0,0,.263.27h1.85a.27.27,0,0,0,0-.541h-1.85a.267.267,0,0,0-.263.27" transform="translate(0.75 0.72)" fill="#e30613"/><path d="M14.769,16.666a.259.259,0,0,0,.372,0,.279.279,0,0,0,0-.384l-1.309-1.344a.258.258,0,0,0-.372,0,.275.275,0,0,0,0,.381Z" transform="translate(0.694 1.015)" fill="#e30613"/><path d="M13.7,6.855a.257.257,0,0,0,.186-.079L15.2,5.431a.275.275,0,0,0,0-.382.257.257,0,0,0-.371,0L13.517,6.393a.277.277,0,0,0,0,.382.257.257,0,0,0,.186.079" transform="translate(0.697 0.339)" fill="#e30613"/><path d="M93.6,68.232a6.248,6.248,0,0,0-1.988-.394c-.687-.028-1.562.056-1.805.61-.429.979,1.586,2.649,2.38,3.008a1.8,1.8,0,0,0,.737.16,1.746,1.746,0,0,0,.615-.111,1.717,1.717,0,0,0,.792-.6l1.517.659v.955h-5.3V75.7h1.112l.713,6.665h7.508L100.6,75.7h1.112V72.515H96.347V67.253a2.677,2.677,0,0,0,2.376-2.67c0-1.311-1.073-5.256-2.658-5.256s-2.658,3.945-2.658,5.256a2.677,2.677,0,0,0,2.444,2.677v3.751l-1.29-.561a1.794,1.794,0,0,0-.959-2.218m5.84,13.626H92.825l-.649-6.068H92.7v1.88a.248.248,0,1,0,.5,0v-1.88h.536v1.88a.248.248,0,1,0,.5,0v-1.88h.6v1.88a.248.248,0,1,0,.5,0v-1.88h.547v1.88a.248.248,0,1,0,.5,0v-1.88h.6v1.88a.248.248,0,1,0,.5,0v-1.88h.57v1.852a.248.248,0,1,0,.5,0V75.791h.549c0,.007-.007.012-.007.02V77.7a.248.248,0,1,0,.5,0V75.811c0-.009-.007-.013-.007-.02h.539Zm1.775-6.665H91.051V73.019h10.165ZM93.9,64.583c0-1.456,1.108-4.753,2.162-4.753s2.162,3.3,2.162,4.753a2.179,2.179,0,0,1-1.88,2.165V64.706h-.5v2.05A2.179,2.179,0,0,1,93.9,64.583m-.533,6.448A1.277,1.277,0,0,1,92.391,71c-.849-.382-2.35-1.835-2.129-2.341.067-.153.4-.316,1.12-.316.067,0,.138,0,.212,0a5.705,5.705,0,0,1,1.805.351,1.281,1.281,0,0,1,.694,1.552l-.784-.341-.2.465.731.318a1.2,1.2,0,0,1-.475.343" transform="translate(4.657 4.052)" fill="#e30613"/><path d="M47.239,14.964H45.9l0-10.633c-.083-.848-.641-2.467-2.149-2.524-1.613-.064-2.3,1.433-2.482,2.413h-1.1a.327.327,0,0,0,0,.654H43a.327.327,0,0,0,0-.654H41.918c.135-.6.556-1.805,1.805-1.76,1.324.051,1.524,1.859,1.53,1.9v10.6h-18.9a.324.324,0,0,0-.322.327v1.434a.324.324,0,0,0,.322.327h.458c.019,1.091.3,5.3,3.475,6.385a.288.288,0,0,0,.1.018l12.744-.016c1.119,0,3.261-2.259,3.35-6.387h.751a.324.324,0,0,0,.322-.327V15.291a.324.324,0,0,0-.322-.327m-4.1,7.821-12.69.016c-2.617-.94-2.945-4.573-2.984-5.673H45.856c-.106,3.891-2.1,5.657-2.718,5.657M46.917,16.4H26.68v-.781H46.917Z" transform="translate(1.351 0.123)" fill="#e30613"/><path d="M39.16,8A.322.322,0,1,0,39.8,8V7.287a.322.322,0,1,0-.644,0Z" transform="translate(2.032 0.475)" fill="#e30613"/><path d="M40.408,8a.322.322,0,1,0,.644,0V7.287a.322.322,0,1,0-.644,0Z" transform="translate(2.097 0.475)" fill="#e30613"/><path d="M41.754,8A.322.322,0,1,0,42.4,8V7.287a.322.322,0,1,0-.644,0Z" transform="translate(2.167 0.475)" fill="#e30613"/><path d="M39.55,6.71a.324.324,0,0,0,.322-.327V5.671a.322.322,0,1,0-.644,0v.713a.324.324,0,0,0,.322.327" transform="translate(2.035 0.365)" fill="#e30613"/><path d="M40.8,6.71a.324.324,0,0,0,.322-.327V5.671a.322.322,0,1,0-.644,0v.713a.324.324,0,0,0,.322.327" transform="translate(2.1 0.365)" fill="#e30613"/><path d="M42.144,6.71a.324.324,0,0,0,.322-.327V5.671a.322.322,0,1,0-.644,0v.713a.324.324,0,0,0,.322.327" transform="translate(2.17 0.365)" fill="#e30613"/><path d="M39.872,9.1a.322.322,0,1,0-.645,0v.713a.322.322,0,1,0,.645,0Z" transform="translate(2.035 0.6)" fill="#e30613"/><path d="M41.12,9.1a.322.322,0,1,0-.644,0v.713a.322.322,0,1,0,.644,0Z" transform="translate(2.1 0.6)" fill="#e30613"/><path d="M42.466,9.1a.322.322,0,1,0-.644,0v.713a.322.322,0,1,0,.644,0Z" transform="translate(2.17 0.6)" fill="#e30613"/><path d="M39.55,10.729a.324.324,0,0,0-.322.326v.714a.322.322,0,1,0,.644,0v-.714a.324.324,0,0,0-.322-.326" transform="translate(2.035 0.733)" fill="#e30613"/><path d="M40.8,10.729a.324.324,0,0,0-.322.326v.714a.322.322,0,1,0,.644,0v-.714a.324.324,0,0,0-.322-.326" transform="translate(2.1 0.733)" fill="#e30613"/><path d="M42.144,10.729a.324.324,0,0,0-.322.326v.714a.322.322,0,1,0,.644,0v-.714a.324.324,0,0,0-.322-.326" transform="translate(2.17 0.733)" fill="#e30613"/><path d="M88.354,7.323V21.851a.353.353,0,0,0,.351.356h1.048v1.108h.7V22.206h10.71v1.107h.7V22.207h1.049a.353.353,0,0,0,.248-.1.357.357,0,0,0,.1-.252V7.324a.4.4,0,0,0-.017-.107,6.43,6.43,0,0,0,.159-1.41.352.352,0,0,0-.35-.356h-4.9V4.7h.682V3.99H96.78V4.7h.682v.749h-1.3V1.932h-.7V5.451h-1.3V4.7h.682V3.99H92.777V4.7h.682v.749h-4.9a.347.347,0,0,0-.248.1.356.356,0,0,0-.1.252,6.351,6.351,0,0,0,.16,1.409.373.373,0,0,0-.018.107M95.46,21.494h-6.4V7.679h6.4Zm.7,0V7.679h6.4V8.66h-2.44a.332.332,0,0,0,0,.663h2.44v.715h-2.44a.332.332,0,0,0,0,.664h2.44V11.5h-2.44a.332.332,0,0,0,0,.664h2.44v.729h-2.44a.332.332,0,0,0,0,.663h2.44v.794h-2.44a.332.332,0,0,0,0,.664h2.44v.734c-.037-.015-.066-.046-.108-.046h-2.441a.332.332,0,0,0,0,.663h2.441c.042,0,.072-.03.108-.045V17.2c-.037-.016-.066-.046-.108-.046h-2.441a.332.332,0,0,0,0,.664h2.441c.042,0,.072-.031.108-.046V18.6c-.037-.015-.066-.046-.108-.046h-2.441a.332.332,0,0,0,0,.663h2.441c.042,0,.072-.031.108-.046v.887c-.037-.015-.066-.046-.108-.046h-2.441a.332.332,0,0,0,0,.664h2.441c.042,0,.072-.031.108-.046v.867ZM102.7,6.164a5.656,5.656,0,0,1-.115.8H89.04a5.531,5.531,0,0,1-.115-.8Z" transform="translate(4.577 0.132)" fill="#e30613"/><rect width="0.702" height="1.604" transform="translate(101.319 11.39)" fill="#e30613"/><rect width="0.702" height="1.604" transform="translate(98.754 11.39)" fill="#e30613"/><path d="M67.143,71.143a.227.227,0,0,0-.292.159l-.27.845-2.182,5.6a1.663,1.663,0,0,0,.022,1.233,1.322,1.322,0,0,0,.81.708l.2.068a1.266,1.266,0,0,0,.383.068,1.5,1.5,0,0,0,.675-.183,1.522,1.522,0,0,0,.719-.983l.99-4.249h2.766l.991,4.249a1.515,1.515,0,0,0,.719.983,1.419,1.419,0,0,0,.674.183,2.332,2.332,0,0,0,.45-.091l.2-.068a1.38,1.38,0,0,0,.809-.709,1.561,1.561,0,0,0,.023-1.234l-2.182-5.6-.27-.845a.257.257,0,0,0-.292-.16l-.586.206-.268-.891a2.333,2.333,0,0,0,.719-1.691,2.273,2.273,0,0,0-.068-.548v-.022a.237.237,0,0,0-.022-.092v-.023c-.18-.662-.921-3.861.472-5.894a.225.225,0,0,0-.247-.343,7.85,7.85,0,0,0-3.465,2.308,7.608,7.608,0,0,1-.471-2.376.215.215,0,0,0-.181-.205.244.244,0,0,0-.247.092c-.045.044-3.329,5.527.292,8.772l-.27.914Zm-.338,7.379a1.135,1.135,0,0,1-.5.708.844.844,0,0,1-.7.092l-.2-.068a.933.933,0,0,1-.54-.48,1.066,1.066,0,0,1-.023-.869l2.092-5.414,1.193.388Zm1.553-4.593.269-1.142.27-.845a.182.182,0,0,0-.023-.183.229.229,0,0,0-.134-.114l-.564-.183.248-.8a2.162,2.162,0,0,0,1.259.389,2.194,2.194,0,0,0,1.193-.343l.225.754-.563.183a.263.263,0,0,0-.158.3l.271.845.269,1.142Zm3.958-1.438L73.1,74.5l-.969.329a.2.2,0,0,0-.084.262c.038.116.139.188.223.158l.992-.337.195.5-1.019.346a.2.2,0,0,0-.084.262c.038.116.139.188.223.158l1.042-.354.187.473-1.054.358a.2.2,0,0,0-.084.263c.038.115.138.187.223.157l1.077-.364.176.451-1.136.386a.2.2,0,0,0-.084.263c.038.115.139.187.223.157l1.153-.391.005-.005.124.317a1.062,1.062,0,0,1-.022.867.872.872,0,0,1-.541.48l-.2.068a.849.849,0,0,1-.7-.091,1,1,0,0,1-.518-.686l-1.327-5.643Zm-.291-.846.135.41-1.169.366-.137-.411Zm-4.635-2.7c-1.3-2.284-.225-5.163.383-6.419a5,5,0,0,0,.54,1.988,5.9,5.9,0,0,0-.923,4.409Zm4.252-6.51a7.994,7.994,0,0,0-.472,4.546,2.212,2.212,0,0,0-1.507-.572,2.3,2.3,0,0,0-1.912,1.052,5.9,5.9,0,0,1,3.892-5.026m-3.8,6.443v-.138a1.839,1.839,0,0,1,3.6-.57c0,.022.023.045.023.067a1.85,1.85,0,0,1,.068.5,1.883,1.883,0,0,1-1.868,1.85,1.833,1.833,0,0,1-1.822-1.712M68.4,72.01l-.136.411-1.17-.366.135-.41Z" transform="translate(3.336 4.204)" fill="#e30613"/><path d="M69.449,69.425a1.074,1.074,0,1,0-1.057-1.074,1.064,1.064,0,0,0,1.057,1.074m0-1.714a.618.618,0,1,1-.607.616.609.609,0,0,1,.607-.616" transform="translate(3.549 4.596)" fill="#e30613"/><path d="M61.875,61.568a.244.244,0,0,0-.179,0,4.348,4.348,0,0,0-2,1.577A5.453,5.453,0,0,0,58.7,66.3v3.427a.765.765,0,0,0,.765.777h1.17v.846l-.472,6.739a1.735,1.735,0,0,0,.427,1.28,1.445,1.445,0,0,0,1.081.48h.247a1.532,1.532,0,0,0,1.08-.48,1.648,1.648,0,0,0,.426-1.28l-.472-6.739v-.824h1.17a.764.764,0,0,0,.765-.776V66.321a5.411,5.411,0,0,0-.989-3.154,4.628,4.628,0,0,0-2.026-1.6m.788,17.479a.984.984,0,0,1-.742.342h-.247a.99.99,0,0,1-.744-.342,1.283,1.283,0,0,1-.315-.937l.451-6.534h1.461l.216,3.139-1,.01c-.084,0-.151.1-.15.223s.068.221.155.22l1.028-.01.037.534-1.059.01c-.085,0-.154.1-.153.223s.072.221.155.22l1.088-.011.035.51-1.1.011c-.085,0-.154.1-.153.222s.072.221.156.22l1.128-.009.034.505c-.012-.005-.022-.021-.037-.021l-1.152.011c-.086,0-.154.1-.153.223s.069.221.155.22l1.153-.01c.023,0,.04-.023.06-.037l.009.13a1.214,1.214,0,0,1-.315.937M61.09,70.524h1.417v.6H61.09Zm3.351-.8a.31.31,0,0,1-.316.319H59.469a.309.309,0,0,1-.315-.319V66.3a4.852,4.852,0,0,1,.9-2.878A4.172,4.172,0,0,1,61.786,62a4.207,4.207,0,0,1,1.755,1.417,4.9,4.9,0,0,1,.9,2.878Z" transform="translate(3.046 4.204)" fill="#e30613"/><path d="M61.645,62.872a.215.215,0,0,0-.225.23v6.031a.228.228,0,0,0,.225.229.215.215,0,0,0,.225-.229V63.1a.215.215,0,0,0-.225-.23" transform="translate(3.187 4.295)" fill="#e30613"/><path d="M27.361,62.505H26.174V63.2h1.187V78.75h.708V65.532h8.369v8.292a.357.357,0,0,0,.354.359h8.722V78.75h.708V63.2h1.187v-.694H27.361ZM45.514,73.463H37.145V71.3h8.369Zm0-2.883H37.145V68.415h8.369Zm0-2.883H37.145V65.53h8.369Zm0-2.884H28.068V63.2h.722v.841a.3.3,0,1,0,.6,0V63.2h.651v.841a.3.3,0,1,0,.6,0V63.2h.723v.841a.3.3,0,1,0,.6,0V63.2h.663v.841a.3.3,0,1,0,.6,0V63.2h.723v.841a.3.3,0,1,0,.6,0V63.2h.626v.841a.3.3,0,1,0,.6,0V63.2H36.5v.841a.3.3,0,1,0,.6,0V63.2h.661v.841a.3.3,0,1,0,.6,0V63.2h.723v.841a.3.3,0,1,0,.6,0V63.2h5.834Z" transform="translate(1.358 4.27)" fill="#e30613"/><rect width="2.359" height="0.719" transform="translate(41.508 70.523)" fill="#e30613"/><rect width="2.359" height="0.719" transform="translate(41.508 73.408)" fill="#e30613"/><rect width="2.359" height="0.719" transform="translate(41.508 76.291)" fill="#e30613"/><path d="M119.513,9.736a2.868,2.868,0,0,0,1.661.518h4.815a2.953,2.953,0,0,0,2.7-1.793,3.039,3.039,0,0,0,.234-1.117.294.294,0,0,0,0-.043.274.274,0,0,0-.006-.06L128.5,3.248c-.011-.1-.018-.205-.025-.31-.009-.137-.02-.275-.037-.411a2.963,2.963,0,0,0-.826-1.668,2.889,2.889,0,0,0-1.673-.823A3.859,3.859,0,0,0,125.3.011h-2.545c-.125,0-.251,0-.38,0a4.567,4.567,0,0,0-1.821.205,2.945,2.945,0,0,0-1.466,1.271,2.882,2.882,0,0,0-.335.943,3.071,3.071,0,0,0-.033.331c0,.068-.007.135-.015.2L118.5,4.917q-.117,1.114-.235,2.223a2.9,2.9,0,0,0,1.25,2.595m-.688-2.516.445-4.2c.006-.062.009-.125.012-.188,0-.045,0-.089.006-.132A2.341,2.341,0,0,1,120.842.719,3.093,3.093,0,0,1,121.87.588h3.419a3.482,3.482,0,0,1,.815.066,2.339,2.339,0,0,1,1.358.914,2.381,2.381,0,0,1,.357.77,2.266,2.266,0,0,1,.06.433c.005.063.011.125.017.188l.032.3c.012.109.023.217.034.327l.394,3.723A2.373,2.373,0,0,1,126.3,9.658a4.633,4.633,0,0,1-.5.018h-3.684c-.1,0-.206,0-.311,0a3.917,3.917,0,0,1-1.561-.192,2.338,2.338,0,0,1-1.414-2.267" transform="translate(6.136 0)" fill="#e30613"/><path d="M124.662,9.82h-2.527a.3.3,0,0,0,0,.6h2.527a.3.3,0,0,0,0-.6" transform="translate(6.323 0.671)" fill="#e30613"/><path d="M124.662,10.651h-2.527a.3.3,0,0,0,0,.594h2.527a.3.3,0,0,0,0-.594" transform="translate(6.323 0.728)" fill="#e30613"/><path d="M115.074,8.969h.329c0,.286,0,.58.02.871a4.432,4.432,0,0,0,.543,1.783,3.423,3.423,0,0,0,2.761,1.716,1.39,1.39,0,0,0,.666.932,1.537,1.537,0,0,0,.773.159h2.111v3.149a.288.288,0,0,0,.286.29h.425V20.21h-.4a.288.288,0,0,0-.285.291v.267a15.456,15.456,0,0,0-1.641.612,5.816,5.816,0,0,0-2.048,1.332.918.918,0,0,0-.107-.025h-.021a1.177,1.177,0,0,0-1.131,1.139v.03c0,.011,0,.022,0,.033a1.18,1.18,0,0,0,1.148,1.136h.022a1.178,1.178,0,0,0,1.132-1.167,1,1,0,0,0-.039-.2c.191-.077.382-.154.575-.228.651-.25,1.251-.457,1.833-.632.365-.109.706-.2,1.036-.276a1.928,1.928,0,0,1,.509-.061h.616a2,2,0,0,1,.5.091c.05.013.1.027.151.038a22.012,22.012,0,0,1,2.294.734c.259.1.516.2.774.3.035.013.069.028.105.043a1.235,1.235,0,0,0-.041.183,1.174,1.174,0,0,0,1.149,1.17h.024a1.084,1.084,0,0,0,.758-.314,1.237,1.237,0,0,0,.37-.825v-.059a1.179,1.179,0,0,0-1.149-1.139H129.1a1.067,1.067,0,0,0-.114.022,5.8,5.8,0,0,0-2-1.307,14.959,14.959,0,0,0-1.65-.624V20.5a.288.288,0,0,0-.285-.291h-.439V17.868h.424a.289.289,0,0,0,.287-.29V14.429h1.46c.082,0,.166,0,.251,0s.181.005.272.005a1.866,1.866,0,0,0,.941-.192,1.357,1.357,0,0,0,.635-.908,3.1,3.1,0,0,0,2.667-1.687,4.553,4.553,0,0,0,.514-1.773,9.03,9.03,0,0,0,.021-.907v0h.381a.957.957,0,0,0,.944-.916.283.283,0,0,0,0-.043.276.276,0,0,0,0-.042.968.968,0,0,0-.521-.816,1.183,1.183,0,0,0-.569-.1h-1.067a.925.925,0,0,0-.808.474.983.983,0,0,0-.005.976.941.941,0,0,0,.809.466h.266c0,.245,0,.5-.011.744a4.017,4.017,0,0,1-.4,1.563,2.811,2.811,0,0,1-.956,1.094,2.709,2.709,0,0,1-1.282.392,1.361,1.361,0,0,0-1.288-1.089c-.065,0-.133,0-.2,0h-7.306a1.368,1.368,0,0,0-1.24.744,1.277,1.277,0,0,0-.1.342,2.859,2.859,0,0,1-2.287-1.456,3.782,3.782,0,0,1-.454-1.554c-.02-.253-.017-.515-.014-.768V8.969h.317a.957.957,0,0,0,.944-.916.285.285,0,0,0,0-.043.278.278,0,0,0,0-.042.968.968,0,0,0-.521-.816,1.183,1.183,0,0,0-.569-.1h-1.067a.925.925,0,0,0-.808.474.983.983,0,0,0-.005.976.938.938,0,0,0,.809.466m.149-.582h-.02a.587.587,0,0,1-.352-.075.317.317,0,0,1-.142-.235.417.417,0,0,1,.094-.325.466.466,0,0,1,.386-.118h1.09a.376.376,0,1,1,.017.752Zm9.526,8.9h-.386c-.015,0-.024-.017-.04-.017h-1.05c-.015,0-.024.015-.039.017h-.387v-2.86h1.9Zm.323-3.439c-.016,0-.022-.015-.039-.015h-2.47c-.015,0-.023.013-.038.015h-2.5a.756.756,0,0,1-.614-.313.854.854,0,0,1-.13-.737.808.808,0,0,1,.809-.548h7.474a.8.8,0,1,1-.02,1.6Zm-1.036,6.361h-.477V17.868h.477Zm-5,3.439a.63.63,0,0,1,.044.209.6.6,0,0,1-.583.587h-.009a.589.589,0,0,1,.014-1.177h.011a.524.524,0,0,1,.19.041Zm9.569-.059.238-.243a.6.6,0,0,1,.275-.083h.011a.589.589,0,0,1-.015,1.177h-.011a.586.586,0,0,1-.566-.59.554.554,0,0,1,.068-.262M128.341,23a1.016,1.016,0,0,0-.1.141c-.768-.322-1.581-.615-2.424-.874-.374-.113-.716-.206-1.047-.284a2.675,2.675,0,0,0-.643-.1H123.5a2.765,2.765,0,0,0-.624.088,21.01,21.01,0,0,0-3.5,1.162,1.18,1.18,0,0,0-.2-.189,6.065,6.065,0,0,1,1.748-1.053,14.014,14.014,0,0,1,1.734-.627.294.294,0,0,0,.209-.281V20.79h.367c.014,0,.021.015.035.015h1.05c.016,0,.022-.013.037-.015h.4v.2a.3.3,0,0,0,.207.279,14.706,14.706,0,0,1,1.745.637,5.937,5.937,0,0,1,1.7,1.037c-.025.021-.056.03-.079.053M131.4,8.386h-.02a.587.587,0,0,1-.352-.075.317.317,0,0,1-.142-.235.417.417,0,0,1,.094-.325.466.466,0,0,1,.386-.118h1.09a.376.376,0,1,1,.016.752Z" transform="translate(5.922 0.482)" fill="#e30613"/><path d="M75.742,36.61l-.069-.027a8.791,8.791,0,0,0-1.063-.291c-.139-.212-.486-.74-1.341-2.011a5.11,5.11,0,0,0-3.977-2.116H64.805a5.082,5.082,0,0,0-3.977,2.116c-.855,1.27-1.2,1.8-1.341,2.011a8.791,8.791,0,0,0-1.063.291l-.069.027c-.579.212-1.133.608-.9,2.618l.023.45c.231,2.169.6,5.449,1.364,6.614a2.453,2.453,0,0,0,2.035,1.391l-.219,5.507H61.71l.547-5.5h.814l.289,0h.422l.239,0-.22,3.769h1.041l.549-3.769h4.6l.5,3.77h.987l-.2-3.769h.42l.379,0H72.2l.494,5.5h1l-.2-5.582a2.548,2.548,0,0,0,1.718-1.344c.764-1.163,1.134-4.443,1.364-6.612l.046-.45c.255-2.011-.3-2.381-.878-2.593M61.336,34.732a4.557,4.557,0,0,1,3.469-1.826h4.462a4.555,4.555,0,0,1,3.468,1.826c.741,1.11,1.111,1.64,1.272,1.9a1.493,1.493,0,0,0-.716,1.059,15.466,15.466,0,0,0-.139,1.667c-.023.317-.046.794-.093,1.349l-.185-.212a3.283,3.283,0,0,0-2.034-.661,4.724,4.724,0,0,1-.509-.027c-.577-.026-1.525-.079-2.312-.079H65.985c-.787,0-1.735.053-2.312.079-.255,0-.44.027-.509.027a3.247,3.247,0,0,0-2.034.661.691.691,0,0,1-.139.132c-.046-.529-.069-.979-.069-1.3a15.468,15.468,0,0,0-.139-1.667,1.466,1.466,0,0,0-.716-1.058c.162-.238.532-.768,1.271-1.878m.694,7.328H72.042a4.224,4.224,0,0,0,.925-.08c-.116.926-.278,1.72-.509,1.773-.948.132-4.924.079-5.433.079-.046,0-4.416.079-5.411-.079-.23-.028-.392-.82-.508-1.773a4.21,4.21,0,0,0,.925.08m-.694-.767a1.692,1.692,0,0,0,.208-.239,2.837,2.837,0,0,1,1.619-.475c.069,0,.278,0,.555-.027.577-.026,1.526-.079,2.289-.079.463.027.855.027.971.027h1.04c.764,0,1.711.052,2.289.079.278,0,.463.026.532.026a2.682,2.682,0,0,1,1.618.478.935.935,0,0,1,.208.237,3.874,3.874,0,0,1-.624.027H62.03a3.951,3.951,0,0,1-.694-.052M61.3,52.729h-.17l.2-5.034H61.8ZM64.45,51h-.166l.187-3.239h.451Zm6.435,0-.427-3.239h.366L71,51Zm2.224,1.729-.452-5.034h.384l.181,5.034ZM76,39.124l-.046.448c-.208,1.958-.579,5.265-1.249,6.243a1.91,1.91,0,0,1-2.059,1.111H72.5a.429.429,0,0,0,.012-.074V45.5c0-.224-.136-.407-.3-.407s-.3.183-.3.407v1.349a.566.566,0,0,0,.011.074H71.17a.564.564,0,0,0,.011-.074V45.5c0-.224-.136-.407-.3-.407s-.3.183-.3.407v1.349a.43.43,0,0,0,.012.074H69.9a.568.568,0,0,0,.012-.074V45.5c0-.224-.136-.407-.3-.407s-.3.183-.3.407v1.349a.564.564,0,0,0,.011.074h-.746a.566.566,0,0,0,.012-.074V45.5c0-.224-.136-.407-.3-.407s-.3.183-.3.407v1.349a.564.564,0,0,0,.011.074h-.65a.564.564,0,0,0,.012-.074V45.5c0-.224-.136-.407-.3-.407s-.3.183-.3.407v1.349a.564.564,0,0,0,.011.074h-.746a.567.567,0,0,0,.011-.074V45.5c0-.224-.136-.407-.3-.407s-.3.183-.3.407v1.349a.566.566,0,0,0,.012.074h-.687a.43.43,0,0,0,.012-.074V45.5c0-.224-.136-.407-.3-.407s-.3.183-.3.407v1.349a.564.564,0,0,0,.011.074h-.746a.564.564,0,0,0,.011-.074V45.5c0-.224-.135-.407-.3-.407s-.3.183-.3.407v1.349a.566.566,0,0,0,.012.074h-.674a.43.43,0,0,0,.012-.074V45.5c0-.224-.136-.407-.3-.407s-.3.183-.3.407v1.349a.566.566,0,0,0,.011.074H61.43a1.911,1.911,0,0,1-2.059-1.111c-.67-.979-1.04-4.285-1.249-6.243l-.046-.448c-.185-1.561.139-1.693.463-1.8l.093-.026a2.184,2.184,0,0,1,.44-.132c.138,0,.948-.027,1.063.688a14.375,14.375,0,0,1,.116,1.561c.162,2.91.347,4.972,1.294,5.1a27.491,27.491,0,0,0,2.983.107c1.11,0,2.173-.027,2.451-.027.093,0,1.225.027,2.451.027a29.421,29.421,0,0,0,3.1-.107c.948-.132,1.133-2.194,1.295-5.1.045-.689.068-1.3.115-1.561.139-.715.949-.688,1.063-.688.162.052.3.079.44.132l.093.026c.324.107.647.239.463,1.8" transform="translate(2.978 2.197)" fill="#e30613"/><path d="M38.089,86.208H35.118A3.885,3.885,0,0,0,31.43,89.4l-1.64,7.066v.113a1.948,1.948,0,0,0,1.845,2.051h2.1l-2.511,10.084a.273.273,0,0,0,.052.285.374.374,0,0,0,.256.114H32.71a.349.349,0,0,0,.308-.229l1.023-4.217,2.562-1.937,2.561,1.937,1.025,4.217a.283.283,0,0,0,.307.229h1.229a.374.374,0,0,0,.257-.114.273.273,0,0,0,.052-.285L39.523,98.628h2.1a2.02,2.02,0,0,0,1.793-2.051v-.113L41.777,89.4a3.927,3.927,0,0,0-3.688-3.19m-5.635,22.219h-.563l2.458-9.8h.564Zm1.844-4.785.564-2.222,1.23.911Zm.717-2.962.512-2.109h2.151l.512,2.109-1.587,1.2Zm2.152,1.652,1.229-.911.564,2.222Zm4.149,6.1h-.564l-2.459-9.8h.565Zm.256-10.483H31.583a1.292,1.292,0,0,1-1.178-1.025H42.75a1.291,1.291,0,0,1-1.178,1.025M30.457,96.179l1.588-6.609a3.253,3.253,0,0,1,3.073-2.677h2.972a3.254,3.254,0,0,1,3.074,2.677L42.7,96.179Z" transform="translate(1.546 5.889)" fill="#e30613"/><path d="M15.346,64.917v-.279a1.864,1.864,0,0,0-1.839-1.884H6.764a.618.618,0,0,0-.612.628H4.926a.621.621,0,0,0-.614.628v1.257H3.7a.318.318,0,0,0-.089-.222.3.3,0,0,0-.433,0l-.217.222H2.473a.318.318,0,0,0-.089-.222.3.3,0,0,0-.434,0l-.216.222H.94a.314.314,0,0,0,0,.628h.307a.318.318,0,0,0,.089.222.3.3,0,0,0,.434,0l.216-.222h.486a.323.323,0,0,0,.089.222.3.3,0,0,0,.434,0l.216-.222h1.1v1.257a.622.622,0,0,0,.614.629H6.152a1.216,1.216,0,0,0,1.225,1.256h3.676v.629a.621.621,0,0,0,.613.628v.629a.622.622,0,0,0,.614.629h.612a5.9,5.9,0,0,0,.381,2.28c-.418.281-.621.565-.532.95a.71.71,0,0,0,.762.542h1.842a2.47,2.47,0,0,1-2.452,2.515c-1.734,0-2.768-1.042-3.863-2.145S6.795,73.44,4.926,73.44C1.5,73.44.649,77.422.641,77.462a.314.314,0,0,0,.237.372.306.306,0,0,0,.362-.245c.007-.034.751-3.521,3.686-3.521,1.618,0,2.618,1.008,3.676,2.076,1.134,1.142,2.308,2.326,4.292,2.326a3.078,3.078,0,0,0,3.065-3.144h.613c.367,0,.853-.206,1.08-1.189.458-1.995-.14-7.605-2.307-9.219m-9.194-.279H5.844a.315.315,0,0,0,0,.629h.308V65.9H5.844a.315.315,0,0,0,0,.629h.308v.628H4.926V64.01H6.152Zm6.742,6.287h-.612V69.668h-.614v-.629h1.227ZM16.572,74.7H13.507c-.607,0,.612-.628.612-.628a2.281,2.281,0,0,1-.428-.931l1.062-.009c.1,0,.174-.114.173-.254s-.081-.251-.177-.25l-1.16.011q-.039-.25-.06-.551l1.254-.01c.1,0,.174-.114.173-.254s-.081-.251-.177-.25l-1.271.011V71l1.248-.01c.1,0,.175-.114.173-.254s-.08-.251-.177-.25l-1.243.011v-.607l1.238-.01c.1,0,.174-.115.174-.254s-.081-.251-.178-.25l-1.234.011v-.35a.62.62,0,0,0-.613-.627H7.378a.612.612,0,0,1-.613-.629v-4.4h6.743a1.241,1.241,0,0,1,1.225,1.256v.629c2.452,1.257,3.065,9.429,1.84,9.429" transform="translate(0.033 4.287)" fill="#e30613"/><path d="M12.868,65.107H7.351a.314.314,0,0,0,0,.628h5.517a.314.314,0,0,0,0-.628" transform="translate(0.366 4.447)" fill="#e30613"/><path d="M14.018,32.48H12.577a.364.364,0,0,0,0,.728h1.441a.364.364,0,0,0,0-.728" transform="translate(0.634 2.219)" fill="#e30613"/><path d="M9.837,34.862a.342.342,0,0,0-.36.363V46.856a.36.36,0,1,0,.721,0V35.225a.342.342,0,0,0-.361-.363" transform="translate(0.492 2.381)" fill="#e30613"/><path d="M5.475,37.923H4.033a.726.726,0,0,0-.719.728v2.908a.725.725,0,0,0,.719.726H5.475a.725.725,0,0,0,.721-.726V38.651a.726.726,0,0,0-.721-.728m0,3.634H4.033V40.1H5.475Zm0-2.179H4.033v-.728H5.475Z" transform="translate(0.172 2.59)" fill="#e30613"/><path d="M3.024,31.12a1.065,1.065,0,0,0-1.08,1.09V53.291a1.066,1.066,0,0,0,1.08,1.091H15.27a1.066,1.066,0,0,0,1.081-1.091V32.21a1.065,1.065,0,0,0-1.081-1.09Zm-.36,1.09a.342.342,0,0,1,.36-.364h5.4V52.2H2.665ZM15.631,53.291a.342.342,0,0,1-.361.363H3.024a.342.342,0,0,1-.36-.363v-.363H15.631Zm0-21.081V52.2H9.147V31.845H15.27a.343.343,0,0,1,.361.364" transform="translate(0.101 2.126)" fill="#e30613"/><path d="M7.1,34.862a.342.342,0,0,0-.36.363V46.856a.36.36,0,1,0,.721,0V35.225a.342.342,0,0,0-.361-.363" transform="translate(0.35 2.381)" fill="#e30613"/><path d="M131.156,78.95V66.777h.9a.329.329,0,0,0,.326-.331V62.66a.33.33,0,0,0-.326-.331H115.4a.33.33,0,0,0-.326.331v3.786a.329.329,0,0,0,.326.331h.894V78.95Zm-14.21-.666V66.795H130.5v1.248h-2.432a.332.332,0,0,0,0,.663H130.5v.715h-2.432a.332.332,0,0,0,0,.664H130.5v.795h-2.432a.332.332,0,0,0,0,.664H130.5v.729h-2.432a.331.331,0,0,0,0,.662H130.5v.795h-2.432a.332.332,0,0,0,0,.664H130.5v.7l0,0h-2.441a.332.332,0,0,0,0,.663H130.5l0,0v.8l0,0h-2.441a.332.332,0,0,0,0,.663H130.5l0,0v1.07Zm-1.22-15.292h16v3.123h-16Z" transform="translate(5.971 4.257)" fill="#e30613"/><path d="M125.881,67.106h-5.022a.329.329,0,0,0-.326.331v1.528a.329.329,0,0,0,.326.331h5.022a.329.329,0,0,0,.326-.331V67.437a.329.329,0,0,0-.326-.331m-.326,1.528h-4.37v-.865h4.37Z" transform="translate(6.254 4.584)" fill="#e30613"/><path d="M117.614,43.954v.519a1.16,1.16,0,0,0-.667,1.052v6.431a1.151,1.151,0,0,0,1.143,1.158h2.16a1.152,1.152,0,0,0,1.143-1.158V45.526a1.16,1.16,0,0,0-.667-1.052v-.519a.922.922,0,0,0-.762-.91V35.9l.657-.58a.262.262,0,0,0,.078-.268l-.746-2.634a.257.257,0,0,0-.245-.188h-1.078a.258.258,0,0,0-.246.188l-.746,2.634a.264.264,0,0,0,.078.268l.657.58v7.141a.921.921,0,0,0-.761.91m1.121,6.694c.023.005.038.027.063.027h.806v.709c-.007,0-.012-.009-.019-.009h-.8c-.019,0-.031.017-.048.02Zm0-1.458c.023.005.038.027.063.027h.8l0,0v.8l0,0h-.8c-.025,0-.04.021-.063.027Zm0-1.392c.023.005.038.027.063.027h.8l0,0v.732H118.8c-.025,0-.04.021-.063.026Zm.869-.636,0,0h-.8c-.025,0-.04.021-.063.027v-.5a.434.434,0,1,1,.869,0Zm-.869,5.433v-.578c.018,0,.029.02.048.02h.8c.007,0,.012-.007.019-.007V52.6Zm2.146-7.07v6.431a.635.635,0,0,1-.631.639h-.134V46.685a.946.946,0,1,0-1.892,0V52.6h-.134a.636.636,0,0,1-.632-.639V45.526a.636.636,0,0,1,.632-.638h2.16a.635.635,0,0,1,.631.638m-2.705-10.486.647-2.286h.694l.648,2.286-.622.548-.007.006h0a.252.252,0,0,0-.057.08.274.274,0,0,0-.024.107h0v7.248h-.567V35.776h0a.273.273,0,0,0-.022-.094h0a.238.238,0,0,0-.062-.088h0Zm.35,8.512h1.289a.4.4,0,0,1,.4.4v.415h-2.09v-.415a.4.4,0,0,1,.4-.4" transform="translate(6.068 2.202)" fill="#e30613"/><path d="M123.285,50.067a3.376,3.376,0,0,0,1.828,3.018.409.409,0,0,0,.057.021.265.265,0,0,0,.064.009l.034,0a.281.281,0,0,0,.1-.035.272.272,0,0,0,.079-.077.283.283,0,0,0,.038-.088.328.328,0,0,0,.006-.063V50.984a.684.684,0,0,1,.678-.688h.929a.684.684,0,0,1,.68.688V52.85a.332.332,0,0,0,.006.064.248.248,0,0,0,.037.085.267.267,0,0,0,.08.078.279.279,0,0,0,.1.035.256.256,0,0,0,.09-.005.307.307,0,0,0,.062-.022,3.4,3.4,0,0,0-.062-6.067V38.328a3.4,3.4,0,0,0,.062-6.065.344.344,0,0,0-.061-.022.219.219,0,0,0-.092-.005.278.278,0,0,0-.1.036.268.268,0,0,0-.078.077.244.244,0,0,0-.037.087.313.313,0,0,0-.006.063v1.866a.683.683,0,0,1-.68.686h-.929a.683.683,0,0,1-.678-.686V32.5a.309.309,0,0,0-.006-.062.262.262,0,0,0-.038-.088.254.254,0,0,0-.08-.078.278.278,0,0,0-.1-.035h0a.277.277,0,0,0-.155.028,3.405,3.405,0,0,0,.063,6.068v8.686a3.389,3.389,0,0,0-1.891,3.05m2.184-2.611c.032.014.058.04.095.04h0l.5,0a.26.26,0,0,0,0-.519h0l-.371,0V45.825c.012,0,.018.012.028.012h.8a.331.331,0,0,0,0-.662h-.8c-.011,0-.017.011-.028.012v-.819c.012,0,.018.012.028.012h.8a.332.332,0,0,0,0-.663h-.8c-.011,0-.017.011-.028.012V43c.017,0,.026.018.044.018h.8a.332.332,0,0,0,0-.663h-.8c-.018,0-.027.016-.044.018v-.831c.017,0,.026.018.044.018h.8a.332.332,0,0,0,0-.663h-.8c-.018,0-.027.015-.044.018v-.766c.017,0,.026.018.044.018h.8a.332.332,0,0,0,0-.663h-.8c-.018,0-.027.016-.044.018V38.17a.345.345,0,0,0,0-.048.264.264,0,0,0-.039-.1.245.245,0,0,0-.08-.078.193.193,0,0,0-.039-.02,2.883,2.883,0,0,1-.549-4.97v1.412a1.2,1.2,0,0,0,1.191,1.205h.929a1.2,1.2,0,0,0,1.191-1.205V32.952a2.877,2.877,0,0,1-.5,4.94c-.032-.014-.058-.04-.095-.04h-.5a.26.26,0,0,0,0,.519h.378v8.809a.29.29,0,0,0,0,.043.259.259,0,0,0,.12.185.318.318,0,0,0,.038.019,2.881,2.881,0,0,1,.548,4.969V50.984a1.2,1.2,0,0,0-1.191-1.207h-.929a1.2,1.2,0,0,0-1.191,1.207V52.4a2.88,2.88,0,0,1,.491-4.94" transform="translate(6.397 2.202)" fill="#e30613"/><path d="M90.439,103.933A1.457,1.457,0,1,0,89,102.475a1.452,1.452,0,0,0,1.435,1.458m0-2.184a.728.728,0,1,1-.716.725.716.716,0,0,1,.716-.725" transform="translate(4.618 6.9)" fill="#e30613"/><path d="M103.675,94.573a.364.364,0,0,0,.013-.729H102.7v-.729h.972a.364.364,0,0,0,.007-.729H102.7v-.729h.972a.364.364,0,0,0,.007-.729h-1.072a.367.367,0,0,0-.137.027.346.346,0,0,0-.129-.027H93.276a2.859,2.859,0,0,0-5.637.729v11.655h0a2.9,2.9,0,0,0,2.87,2.913h11.836a.315.315,0,0,1,.259,0h1.072a.365.365,0,0,0,.007-.73H102.7v-.729h.972a.364.364,0,0,0,.007-.729H102.7v-.729h.972a.364.364,0,0,0,.007-.729H102.7v-.728h.972a.364.364,0,0,0,.007-.729H102.7V100.4h.972a.364.364,0,0,0,.013-.729H102.7v-.729h.972a.364.364,0,0,0,.013-.729H102.7v-.729h.972a.364.364,0,0,0,.013-.729H102.7V96.03h.972a.364.364,0,0,0,.013-.729H102.7v-.729ZM88.356,91.657a2.152,2.152,0,1,1,4.3,0v9.752a2.8,2.8,0,0,0-4.3,0Zm0,11.657a2.15,2.15,0,1,1,2.153,2.185h0a2.163,2.163,0,0,1-2.15-2.185m13.627,2.185h-.717V92.752h-.717V105.5H92.385a2.913,2.913,0,0,0,.993-2.185h0V91.658h8.608Z" transform="translate(4.547 6.062)" fill="#e30613"/><path d="M42.295,35.176H30.657a.328.328,0,0,0-.325.33V36h-.489a.327.327,0,0,0-.325.33v.853H29.2a.33.33,0,0,0,0,.659h.316V38.7a.327.327,0,0,0,.325.33h.489v.5a.328.328,0,0,0,.325.33H42.295a.327.327,0,0,0,.325-.33v-.5h.549a.328.328,0,0,0,.325-.33v-.851h.28v4.374h-7.3a.328.328,0,0,0-.325.33v.969h-.8a.329.329,0,0,0-.325.331v5.59a.328.328,0,0,0,.325.33H37.6a.327.327,0,0,0,.325-.33v-5.59a.329.329,0,0,0-.325-.331h-.8v-.64h7.3a.327.327,0,0,0,.325-.329V37.516a.328.328,0,0,0-.325-.33h-.6v-.853a.328.328,0,0,0-.325-.33H42.62v-.5a.328.328,0,0,0-.325-.33M30.332,38.367h-.165V36.662h.165Zm5.345,10.427h1.6v.316h-1.6Zm1.6-.66h-1.6V44.179h1.6Zm-6.295-8.939v-3.36H41.971V38.7h0v.5Zm11.861-.828H42.62V36.662h.223Z" transform="translate(1.498 2.403)" fill="#e30613"/><path d="M40.88,37.057H31.8a.33.33,0,0,0,0,.659H40.88a.33.33,0,0,0,0-.659" transform="translate(1.633 2.531)" fill="#e30613"/></g><rect width="140" height="115" transform="translate(-3 -2)" fill="none"/></g></svg>