<svg xmlns="http://www.w3.org/2000/svg" xmlns:xlink="http://www.w3.org/1999/xlink" width="250.072" height="73.145" viewBox="0 0 250.072 73.145"><defs><filter id="a" x="0" y="0" width="73.145" height="73.145" filterUnits="userSpaceOnUse"><feOffset input="SourceAlpha"/><feGaussianBlur stdDeviation="2.5" result="b"/><feFlood flood-opacity="0.161"/><feComposite operator="in" in2="b"/><feComposite in="SourceGraphic"/></filter></defs><g transform="translate(-778.5 -211.5)"><g transform="translate(786 219)"><g transform="matrix(1, 0, 0, 1, -7.5, -7.5)" filter="url(#a)"><path d="M213.487,238.656a4.43,4.43,0,0,1,2.371-.673,4.523,4.523,0,0,1,4.522,4.522,4.463,4.463,0,0,1-.64,2.323l.021.015a29.562,29.562,0,1,1-6.274-6.187" transform="translate(-159.71 -225.5)" fill="#fff" fill-rule="evenodd"/></g><path d="M224.942,254.295a4.771,4.771,0,0,1-1.581.288,4.494,4.494,0,0,1-4.2-6.076,26.146,26.146,0,1,0,5.782,5.789" transform="translate(-174.746 -240.569)" fill="#e00111" fill-rule="evenodd"/><path d="M331.9,260.417a2.471,2.471,0,1,1,2.469,2.468,2.469,2.469,0,0,1-2.469-2.468" transform="translate(-285.719 -250.953)" fill="#e00111"/><path d="M218.927,387.666a1.59,1.59,0,0,1,.543-.36,1.672,1.672,0,0,1,.625-.125,1.613,1.613,0,0,1,.618.125,1.583,1.583,0,0,1,.55.36l.229.229-.457.462-.235-.227a.973.973,0,0,0-.332-.221.99.99,0,0,0-.748,0,.98.98,0,0,0-.331.221.932.932,0,0,0-.221.323,1.01,1.01,0,0,0,0,.749,1,1,0,0,0,.221.331.968.968,0,0,0,.706.294,1.024,1.024,0,0,0,.382-.073.912.912,0,0,0,.323-.22l.235-.228.457.465-.229.228a1.675,1.675,0,0,1-.55.367,1.715,1.715,0,0,1-.618.117,1.778,1.778,0,0,1-.625-.117,1.685,1.685,0,0,1-.543-.367,1.6,1.6,0,0,1-.36-.544,1.7,1.7,0,0,1,0-1.244,1.59,1.59,0,0,1,.36-.543" transform="translate(-204.081 -343.949)" fill="#fff" fill-rule="evenodd"/><path d="M233.689,389.358l.463.464-.227.228a1.671,1.671,0,0,1-.537.36,1.678,1.678,0,0,1-1.264,0,1.679,1.679,0,0,1-.537-.36,1.585,1.585,0,0,1-.36-.544,1.734,1.734,0,0,1-.117-.624,1.672,1.672,0,0,1,.117-.617,1.638,1.638,0,0,1,.9-.9,1.66,1.66,0,0,1,.625-.124,1.6,1.6,0,0,1,.618.124,1.582,1.582,0,0,1,.552.361l.227.228-1.83,1.831a.969.969,0,0,0,1.139-.192Zm-1.639-1.183a.963.963,0,0,0-.294.706.948.948,0,0,0,.1.433c.059-.058.146-.147.264-.263s.25-.25.381-.382l.39-.39q.192-.183.294-.287a.987.987,0,0,0-.6-.1.941.941,0,0,0-.544.28" transform="translate(-213.192 -343.988)" fill="#fff" fill-rule="evenodd"/><path d="M244.064,388.853a1.615,1.615,0,0,1,.125-.638,1.683,1.683,0,0,1,.353-.522,1.62,1.62,0,0,1,.53-.352,1.56,1.56,0,0,1,.638-.133,1.529,1.529,0,0,1,.639.133,1.6,1.6,0,0,1,.529.352,1.525,1.525,0,0,1,.354.522,1.544,1.544,0,0,1,.132.638v1.653h-.654v-1.653a.91.91,0,0,0-.08-.381,1.012,1.012,0,0,0-.53-.53.991.991,0,0,0-.779,0,1,1,0,0,0-.316.214,1.017,1.017,0,0,0-.213.316.97.97,0,0,0-.073.381v1.653h-.655Z" transform="translate(-222.513 -343.968)" fill="#fff" fill-rule="evenodd"/><path d="M258.448,387.666a1.591,1.591,0,0,1,.544-.36,1.656,1.656,0,0,1,.624-.125,1.617,1.617,0,0,1,.618.125,1.587,1.587,0,0,1,.551.36l.227.229-.455.462-.235-.227a.974.974,0,0,0-.331-.221.993.993,0,0,0-.75,0,.965.965,0,0,0-.33.221.9.9,0,0,0-.22.323.982.982,0,0,0,0,.749,1.006,1.006,0,0,0,.926.624,1.024,1.024,0,0,0,.382-.073.913.913,0,0,0,.323-.22l.235-.228.455.465-.227.228a1.679,1.679,0,0,1-.551.367,1.72,1.72,0,0,1-.618.117,1.761,1.761,0,0,1-.624-.117,1.685,1.685,0,0,1-.544-.367,1.6,1.6,0,0,1-.361-.544,1.72,1.72,0,0,1,0-1.244,1.581,1.581,0,0,1,.361-.543" transform="translate(-232.521 -343.949)" fill="#fff" fill-rule="evenodd"/><path d="M270.6,388.881a1.618,1.618,0,0,1,.125-.639,1.7,1.7,0,0,1,.353-.522,1.626,1.626,0,0,1,.53-.353,1.62,1.62,0,0,1,1.279,0,1.629,1.629,0,0,1,.528.353,1.5,1.5,0,0,1,.353.522,1.514,1.514,0,0,1,.132.639,1.559,1.559,0,0,1-.132.639,1.587,1.587,0,0,1-.353.529,1.731,1.731,0,0,1-.528.36,1.7,1.7,0,0,1-1.279,0,1.728,1.728,0,0,1-.53-.36,1.805,1.805,0,0,1-.353-.529,1.667,1.667,0,0,1-.125-.639m.647,0a1.022,1.022,0,0,0,.074.39.959.959,0,0,0,.536.536,1.032,1.032,0,0,0,.39.074.967.967,0,0,0,.705-.287.956.956,0,0,0,.214-.323.97.97,0,0,0,.08-.39.918.918,0,0,0-.08-.382.863.863,0,0,0-.214-.316.889.889,0,0,0-.316-.214.95.95,0,0,0-.389-.081,1.036,1.036,0,0,0-.713.294,1,1,0,0,0-.213.316.966.966,0,0,0-.074.382" transform="translate(-241.609 -343.988)" fill="#fff" fill-rule="evenodd"/><path d="M286.972,387.18v.654H284.98a.328.328,0,0,0-.331.332.344.344,0,0,0,.1.242.321.321,0,0,0,.235.095H286.3a.9.9,0,0,1,.382.082.924.924,0,0,1,.316.206.874.874,0,0,1,.213.315.887.887,0,0,1,.081.382.925.925,0,0,1-.081.39.944.944,0,0,1-.213.316,1.011,1.011,0,0,1-.316.214.979.979,0,0,1-.382.074H284.32v-.655H286.3a.325.325,0,0,0,.242-.095.331.331,0,0,0,.1-.243.321.321,0,0,0-.1-.236.329.329,0,0,0-.242-.094H284.98a1.031,1.031,0,0,1-.389-.073,1.059,1.059,0,0,1-.309-.214,1.131,1.131,0,0,1-.213-.316,1.028,1.028,0,0,1-.074-.389.973.973,0,0,1,.074-.382,1.03,1.03,0,0,1,.213-.317,1.012,1.012,0,0,1,.7-.286Z" transform="translate(-251.248 -343.948)" fill="#fff" fill-rule="evenodd"/><path d="M301.142,387.18v1.647a1.574,1.574,0,0,1-.132.64,1.628,1.628,0,0,1-.354.53,1.7,1.7,0,0,1-.529.359,1.608,1.608,0,0,1-.639.126,1.652,1.652,0,0,1-.64-.126,1.725,1.725,0,0,1-.528-.359,1.818,1.818,0,0,1-.353-.53,1.652,1.652,0,0,1-.125-.64V387.18h.654v1.647a1.01,1.01,0,0,0,.074.389,1.121,1.121,0,0,0,.213.323,1.156,1.156,0,0,0,.316.212,1.067,1.067,0,0,0,.78,0,1.014,1.014,0,0,0,.316-.212.952.952,0,0,0,.213-.323.966.966,0,0,0,.081-.389V387.18Z" transform="translate(-261.213 -343.948)" fill="#fff" fill-rule="evenodd"/><path d="M314.485,382.466v2.968a1.57,1.57,0,0,1-.133.64,1.684,1.684,0,0,1-.874.889,1.7,1.7,0,0,1-1.279,0,1.695,1.695,0,0,1-.888-.889,1.632,1.632,0,0,1-.126-.64,1.585,1.585,0,0,1,.485-1.16,1.624,1.624,0,0,1,.529-.353,1.572,1.572,0,0,1,.64-.132h.992v-1.322Zm-1.646,3.967a.986.986,0,0,0,.381-.073,1.016,1.016,0,0,0,.316-.213.94.94,0,0,0,.214-.323.973.973,0,0,0,.081-.39v-.991h-.992a.942.942,0,0,0-.389.081.952.952,0,0,0-.325.213,1.067,1.067,0,0,0-.213.317,1,1,0,0,0-.073.381,1.067,1.067,0,0,0,.073.39,1.161,1.161,0,0,0,.213.323,1.139,1.139,0,0,0,.325.213,1.04,1.04,0,0,0,.389.073" transform="translate(-270.813 -340.556)" fill="#fff" fill-rule="evenodd"/><path d="M328.036,314.03l-5.731,15.029-3.3-.009,2.162-4.9-3.893-10.109h3.287l2.123,6.52.117,0,1.965-6.527Z" transform="translate(-275.198 -291.31)" fill="#ffef41"/><path d="M289.392,320.8c0,2.4-2.634,3.3-5.111,3.3s-5.049-.951-5.051-3.318h3.257c0,.74,1.025,1.02,1.8,1.019s1.744-.2,1.744-.917c0-.9-1.225-1.032-3.149-1.531-2-.524-3.419-1.4-3.421-3.278,0-2.39,2.328-3.209,4.818-3.212,2.463,0,4.712.815,4.715,3.2l-3.217.01c0-.664-.817-.922-1.5-.92s-1.491.166-1.491.823c0,.9,1.374,1.016,2.924,1.4,1.981.481,3.681,1.287,3.683,3.423" transform="translate(-247.819 -290.471)" fill="#ffef41"/><path d="M243.791,323.673l-3.052.02.007-1.206-.118,0a3.144,3.144,0,0,1-3.107,1.591c-2.678,0-5-2.193-5-5.654,0-3.506,2.113-5.6,4.8-5.6a3.734,3.734,0,0,1,3.276,1.532l.118,0-.006-1.184h3.066Zm-3.1-5.252a2.489,2.489,0,0,0-2.6-2.72c-1.821,0-2.405,1.468-2.405,2.732a2.519,2.519,0,0,0,2.549,2.772c1.883-.006,2.454-1.518,2.454-2.783" transform="translate(-214.207 -290.446)" fill="#ffef41"/><path d="M198.541,318.355c0,.416-.057,1.073-.057,1.073l-7.577,0a2.178,2.178,0,0,0,2.285,2.1,1.812,1.812,0,0,0,1.84-1l3.289.005c-.3,1.561-1.651,3.535-5.071,3.538a5.531,5.531,0,0,1-5.576-5.715,5.182,5.182,0,0,1,5.346-5.525,5.317,5.317,0,0,1,5.522,5.52m-3.264-1.05a2.025,2.025,0,0,0-2.208-1.925A2.133,2.133,0,0,0,190.9,317.3Z" transform="translate(-181.935 -290.45)" fill="#ffef41"/><path d="M226.449,361.667c-8.359-1.127-16.758-1.193-29.777-.263l.142-.6c13.01-1.148,23.265-1.751,28.887-1.579,3.316.1,4.325.343,4.325,1.519,0,1.254-1.474,1.206-3.578.921" transform="translate(-188.41 -323.812)" fill="#ffef41"/></g><path d="M.952,0V-10.664H4.688a4.9,4.9,0,0,1,2.944.743,2.542,2.542,0,0,1,1,2.179,2.409,2.409,0,0,1-.4,1.381,2.327,2.327,0,0,1-1.121.875A2.251,2.251,0,0,1,8.4-4.658a2.447,2.447,0,0,1,.472,1.523A2.814,2.814,0,0,1,7.9-.806,4.418,4.418,0,0,1,5.1,0Zm2.2-4.644v2.878H5.032a1.816,1.816,0,0,0,1.212-.37A1.268,1.268,0,0,0,6.68-3.157,1.339,1.339,0,0,0,5.164-4.644Zm0-1.553H4.775q1.663-.029,1.663-1.326a1.225,1.225,0,0,0-.421-1.044,2.215,2.215,0,0,0-1.329-.319H3.149ZM14.473-3.9h-1.75V0h-2.2V-10.664h3.962a4.479,4.479,0,0,1,2.915.842,2.907,2.907,0,0,1,1.025,2.38,3.281,3.281,0,0,1-.472,1.82A3.222,3.222,0,0,1,16.523-4.46L18.831-.1V0H16.472Zm-1.75-1.78h1.772A1.815,1.815,0,0,0,15.776-6.1a1.505,1.505,0,0,0,.454-1.161A1.611,1.611,0,0,0,15.8-8.452a1.781,1.781,0,0,0-1.315-.432H12.722ZM26.118-2.2H22.266L21.533,0H19.2l3.97-10.664H25.2L29.194,0H26.858Zm-3.259-1.78h2.666l-1.34-3.992ZM38.862,0h-2.2L32.388-7.017V0h-2.2V-10.664h2.2l4.285,7.031v-7.031h2.19Zm1.919,0V-10.664h3.281a4.983,4.983,0,0,1,2.516.634,4.418,4.418,0,0,1,1.732,1.8,5.557,5.557,0,0,1,.623,2.655v.491a5.573,5.573,0,0,1-.612,2.644A4.38,4.38,0,0,1,46.6-.645,5.021,5.021,0,0,1,44.084,0Zm2.2-8.884v7.119h1.062a2.386,2.386,0,0,0,1.97-.842,3.806,3.806,0,0,0,.7-2.41v-.564a3.867,3.867,0,0,0-.674-2.465,2.378,2.378,0,0,0-1.97-.839ZM54.265,0V-10.664H58a4.9,4.9,0,0,1,2.944.743,2.542,2.542,0,0,1,1,2.179,2.409,2.409,0,0,1-.4,1.381,2.327,2.327,0,0,1-1.121.875,2.251,2.251,0,0,1,1.293.828,2.447,2.447,0,0,1,.472,1.523,2.814,2.814,0,0,1-.981,2.329,4.418,4.418,0,0,1-2.8.806Zm2.2-4.644v2.878h1.882a1.816,1.816,0,0,0,1.212-.37,1.268,1.268,0,0,0,.436-1.022,1.339,1.339,0,0,0-1.516-1.487Zm0-1.553h1.626q1.663-.029,1.663-1.326a1.225,1.225,0,0,0-.421-1.044A2.215,2.215,0,0,0,58-8.884H56.462ZM72.6-5.09a6.438,6.438,0,0,1-.557,2.761A4.192,4.192,0,0,1,70.448-.5a4.407,4.407,0,0,1-2.377.645,4.437,4.437,0,0,1-2.366-.637,4.233,4.233,0,0,1-1.611-1.82,6.253,6.253,0,0,1-.579-2.721v-.527a6.4,6.4,0,0,1,.568-2.772,4.226,4.226,0,0,1,1.6-1.838,4.412,4.412,0,0,1,2.369-.641,4.412,4.412,0,0,1,2.369.641,4.226,4.226,0,0,1,1.6,1.838A6.386,6.386,0,0,1,72.6-5.566Zm-2.227-.483a4.488,4.488,0,0,0-.6-2.549,1.957,1.957,0,0,0-1.714-.872,1.958,1.958,0,0,0-1.707.861,4.436,4.436,0,0,0-.608,2.523v.52a4.544,4.544,0,0,0,.6,2.534,1.952,1.952,0,0,0,1.729.9,1.935,1.935,0,0,0,1.7-.868,4.517,4.517,0,0,0,.6-2.531Zm12.583.483A6.438,6.438,0,0,1,82.4-2.329,4.192,4.192,0,0,1,80.8-.5a4.407,4.407,0,0,1-2.377.645,4.437,4.437,0,0,1-2.366-.637,4.233,4.233,0,0,1-1.611-1.82,6.253,6.253,0,0,1-.579-2.721v-.527a6.4,6.4,0,0,1,.568-2.772,4.226,4.226,0,0,1,1.6-1.838,4.412,4.412,0,0,1,2.369-.641,4.412,4.412,0,0,1,2.369.641,4.226,4.226,0,0,1,1.6,1.838,6.386,6.386,0,0,1,.568,2.765Zm-2.227-.483a4.488,4.488,0,0,0-.6-2.549,1.957,1.957,0,0,0-1.714-.872,1.958,1.958,0,0,0-1.707.861A4.436,4.436,0,0,0,76.1-5.61v.52a4.544,4.544,0,0,0,.6,2.534,1.952,1.952,0,0,0,1.729.9,1.935,1.935,0,0,0,1.7-.868,4.517,4.517,0,0,0,.6-2.531Zm7.163,1.3-1.143,1.23V0h-2.2V-10.664h2.2V-5.83l.967-1.326,2.717-3.508h2.7L89.348-5.925,93.245,0H90.63ZM97.808,0V-10.664h3.281a4.983,4.983,0,0,1,2.516.634,4.418,4.418,0,0,1,1.732,1.8,5.557,5.557,0,0,1,.623,2.655v.491a5.573,5.573,0,0,1-.612,2.644,4.38,4.38,0,0,1-1.725,1.794A5.021,5.021,0,0,1,101.111,0ZM100-8.884v7.119h1.062a2.386,2.386,0,0,0,1.97-.842,3.806,3.806,0,0,0,.7-2.41v-.564a3.867,3.867,0,0,0-.674-2.465,2.378,2.378,0,0,0-1.97-.839ZM109.893,0h-2.2V-10.664h2.2Zm10.474-1.348a3.814,3.814,0,0,1-1.677,1.1,7.024,7.024,0,0,1-2.4.392,4.759,4.759,0,0,1-2.428-.6,4.03,4.03,0,0,1-1.611-1.754,6.174,6.174,0,0,1-.582-2.7V-5.64A6.557,6.557,0,0,1,112.2-8.4a3.982,3.982,0,0,1,1.553-1.787,4.473,4.473,0,0,1,2.377-.619,4.454,4.454,0,0,1,2.966.9,3.866,3.866,0,0,1,1.267,2.633h-2.139a2.126,2.126,0,0,0-.648-1.34,2.07,2.07,0,0,0-1.381-.425,1.948,1.948,0,0,0-1.707.842,4.429,4.429,0,0,0-.593,2.5v.681a4.216,4.216,0,0,0,.637,2.534,2.182,2.182,0,0,0,1.868.857,2.437,2.437,0,0,0,1.765-.527V-3.984h-2V-5.6h4.2ZM124.482,0h-2.2V-10.664h2.2Zm9.851-8.884h-3.267V0h-2.2V-8.884h-3.223v-1.78h8.687ZM140.728-2.2h-3.853L136.143,0h-2.336l3.97-10.664h2.036L143.8,0h-2.336Zm-3.259-1.78h2.666l-1.34-3.992ZM147-1.765h4.666V0H144.8V-10.664H147Z" transform="translate(876.909 252.231)" fill="#e00111"/><rect width="0.874" height="39.336" transform="translate(860.301 228.615)" fill="#e00111"/></g></svg>