<?xml version="1.0" encoding="UTF-8"?><svg xmlns="http://www.w3.org/2000/svg" xmlns:xlink="http://www.w3.org/1999/xlink" viewBox="0 0 473.48 100.15"><defs><style>.f{fill:#fff;}.g{filter:url(#d);}.h{fill:none;}</style><filter id="d" filterUnits="userSpaceOnUse"><feOffset dx="0" dy="0"/><feGaussianBlur result="e" stdDeviation="20"/><feFlood flood-color="#000" flood-opacity=".3"/><feComposite in2="e" operator="in"/><feComposite in="SourceGraphic"/></filter></defs><g id="a"/><g id="b"><g id="c"><g><g class="g"><path class="f" d="M12.24,83.03V16.62H44.94c13,0,20,7,20,18.1,0,5.7-3.5,10.5-8.1,12.4,5.6,2.1,10.1,6.6,10.1,16.1,0,12.1-8.1,19.8-24.8,19.8H12.24ZM25.64,28.12v14.4h17.5c5.5,0,8.4-2.5,8.4-7.2,0-5.1-2.7-7.2-9.2-7.2H25.64Zm17.6,43.6c6.4,0,10.2-4.1,10.2-9.5,0-5.8-3.8-8.4-10-8.4H25.64v17.9h17.6Z"/><path class="f" d="M69.94,83.03V33.82h12.2v5.9c4.3-6.6,9.3-7.2,14.6-7.2h1.7v13.3c-1.2-.2-2.4-.3-3.6-.3-8,0-11.9,4-11.9,11.9v25.6h-13Z"/><path class="f" d="M130.44,83.03c-.4-1.2-.7-2.9-.8-4.4-3.1,3.4-8.3,5.7-14.9,5.7-11.2,0-16.4-5.5-16.4-13.5,0-14.2,9.5-15.8,22.6-17.6,6.5-.9,8.3-2.2,8.3-5.6,0-3.2-3.2-5.1-8.3-5.1-5.9,0-8.3,2.9-8.9,7.3h-12.1c.2-10.2,5.8-17.3,21.6-17.3s21,7,21,19.4v31.1h-12.1Zm-.9-24.1c-1.3,1.3-3.6,2-8.4,2.9-7.4,1.4-9.8,3.5-9.8,7.7,0,3.7,2.2,5.5,6.3,5.5,6.7,0,11.7-4.9,11.8-10.7l.1-5.4Z"/><path class="f" d="M179.74,83.03v-29.8c0-7.6-2.2-9.7-8.4-9.7-6.8,0-10.1,3.8-10.1,11.3v28.2h-13V33.82h12.4v7.2c3-5.5,8-8.5,15.9-8.5,9.4,0,16.3,5.7,16.3,16.4v34.1h-13.1Z"/><path class="f" d="M232.64,83.03l-.1-6c-3.1,5-7.7,7.3-13.7,7.3-12.4,0-21.3-9.8-21.3-26.4,0-14.9,7.5-25.4,20.2-25.4,6.1,0,10.9,2.5,14.6,7.7V15.82h12.8V83.03h-12.5Zm.2-23.4c0-10.7-3.7-16-10.9-16-7.6,0-11.2,5.1-11.2,15.2,0,8.8,4.6,14.9,11.1,14.9s11-5.8,11-14.1Z"/><path class="f" d="M250.54,83.03V16.62h32.7c13,0,20,7,20,18.1,0,5.7-3.5,10.5-8.1,12.4,5.6,2.1,10.1,6.6,10.1,16.1,0,12.1-8.1,19.8-24.8,19.8h-29.9Zm13.4-54.9v14.4h17.5c5.5,0,8.4-2.5,8.4-7.2,0-5.1-2.7-7.2-9.2-7.2h-16.7Zm17.6,43.6c6.4,0,10.2-4.1,10.2-9.5,0-5.8-3.8-8.4-10-8.4h-17.8v17.9h17.6Z"/><path class="f" d="M307.14,58.42c0-15.6,9.7-25.9,25.3-25.9s25,10.2,25,25.9-9.7,25.9-25,25.9-25.3-10.6-25.3-25.9Zm37.2,0c0-10-4-14.9-11.9-14.9s-11.9,4.9-11.9,14.9,4,15,11.9,15,11.9-5,11.9-15Z"/><path class="f" d="M361.04,58.42c0-15.6,9.7-25.9,25.3-25.9s25,10.2,25,25.9-9.7,25.9-25,25.9-25.3-10.6-25.3-25.9Zm37.2,0c0-10-4-14.9-11.9-14.9s-11.9,4.9-11.9,14.9,4,15,11.9,15,11.9-5,11.9-15Z"/><path class="f" d="M446.24,83.03l-10.8-22.1-6.3,6.5v15.6h-13.1V15.82h13.1V52.52l16.2-18.7h15.9l-16.5,18.1,16.1,31.1h-14.6Z"/></g><rect class="h" width="473.48" height="100.15"/></g></g></g></svg>