<svg xmlns="http://www.w3.org/2000/svg" xmlns:xlink="http://www.w3.org/1999/xlink" width="181.029" height="123.449" viewBox="0 0 181.029 123.449"><defs><clipPath id="a"><rect width="181.029" height="123.449" fill="none"/></clipPath></defs><g clip-path="url(#a)"><path d="M136.615,117.076c2.317,0,4.424-.018,6.531.006,1.963.022,2.438.459,2.442,2.382q.028,12.554,0,25.108c0,1.893-.518,2.343-2.46,2.377-.586.01-1.174,0-1.887,0v5.62h14.569V71.188h-9.4c-4.148,0-4.307-.217-3.3-4.2,1.242-4.9,2.5-9.787,3.656-14.7a2.276,2.276,0,0,1,2.554-2.065q8.044.051,16.09,0a2.286,2.286,0,0,1,2.609,2c1.289,5.428,2.685,10.83,4.032,16.244.506,2.035-.008,2.694-2.177,2.71-3.584.025-7.168.007-10.864.007v81.435c.645.031,1.268.086,1.891.087q8.664.01,17.328,0c.471,0,1.067-.167,1.387.056.59.412,1.308,1.007,1.41,1.619.064.389-.829,1.047-1.407,1.389-.351.208-.921.046-1.392.046H2.827c-.295,0-.59-.007-.884,0C.876,155.85.022,155.535,0,154.306s.841-1.582,1.9-1.586c3.064-.012,6.137-.138,9.192.038a6.177,6.177,0,0,0,5.373-2.19c2.906-3.168,6.082-6.086,9.055-9.194a4.013,4.013,0,0,0,1.041-2.41c.118-3.226.048-6.46.048-9.918-3.5,0-6.841.036-10.181-.019-1.191-.02-2.991.549-3.039-1.409-.053-2.139,1.84-1.455,3.071-1.545,1.049-.077,2.109-.016,3.391-.016-.651-3.6-1.253-7.037-1.9-10.47-.457-2.414-.118-2.878,2.278-2.886,1.225,0,2.45,0,3.775,0-.572-6.445-1.126-12.694-1.69-19.06-5,.517-7.469-2.313-9.011-6.417a23.654,23.654,0,0,1-1.183-12.672c.321-1.813,1.147-2.35,2.855-1.707A22.9,22.9,0,0,1,27,82.482a7.117,7.117,0,0,1-.869,9.086c-.327.367-.761.877-.729,1.289.508,6.562,1.083,13.12,1.649,19.753h2.186q.61-5.419,1.219-10.829c.079-.7.185-1.4.249-2.1.141-1.56.363-3.042-.586-4.57a4.94,4.94,0,0,1,.3-5.362,17.013,17.013,0,0,1,9.059-7.237c1.411-.513,2.213.054,2.436,1.4.705,4.251.308,8.361-2.087,12.056-1.3,2.006-3.347,2.661-5.914,2.466-.519,4.678-1.035,9.336-1.583,14.275,1.431,0,2.752-.012,4.072,0,1.914.022,2.4.638,2.044,2.529-.663,3.513-1.322,7.027-2.036,10.827,1.649,0,3.15.017,4.65-.006,1.065-.017,1.975.289,1.987,1.478s-.878,1.52-1.952,1.516c-3.7-.013-7.407-.005-11.364-.005,0,3.7-.029,7.271.038,10.838.008.431.475.912.83,1.27,3.527,3.557,7.06,7.11,10.637,10.617a2.969,2.969,0,0,0,1.772.9c4.655.072,9.311.038,13.967.029a4.417,4.417,0,0,0,.741-.14v-5.611c-.726,0-1.459-.007-2.193,0-1.454.016-2.112-.624-2.105-2.149q.057-12.819,0-25.638c-.007-1.575.757-2.094,2.165-2.088,2.168.008,4.336,0,6.711,0,0-2.386-.009-4.608,0-6.831.019-3.985,2.369-6.438,6.324-6.455,8.664-.037,17.328-.081,25.99.049,1.656.024,3.3.831,5.322,1.378,1.235-1.325,3.36-1.468,5.588-1.456,8.015.041,16.031.012,24.047.018,4.929,0,7.044,2.145,7.055,7.124,0,1.989,0,3.978,0,6.173m0,3.111c0,4.86,0,9.559,0,14.259,0,3.581,0,3.582-3.5,3.582H103.074q-19,0-37.994,0c-2.419,0-2.79-.372-2.793-2.721q-.006-6.274,0-12.547v-2.52H56.625v23.5H142.44V120.186Zm-38.64,5.786c0-5.519.048-10.873-.027-16.226A2.845,2.845,0,0,0,94.84,106.8q-13.165-.079-26.33,0c-2.082.013-3.085,1.169-3.1,3.259-.027,3.475-.009,6.951-.009,10.426,0,1.8,0,3.606,0,5.489Zm3.065-.033h32.52c0-5.572.073-11.029-.042-16.483-.037-1.729-1.25-2.657-3.15-2.665q-13.067-.062-26.133,0c-2.185.013-3.142,1.116-3.182,3.362-.038,2.119-.011,4.238-.011,6.357,0,3.107,0,6.215,0,9.427M60.914,152.592h76.972v-5.521H60.914ZM146,68.072h22.8L165.12,53.356h-15.44L146,68.072M97.882,129.166H65.51v5.744H97.882Zm3.306,5.715H133.5v-5.738H101.188ZM21.11,115.857c.643,3.465,1.259,6.781,1.894,10.2h7.213c3.031,0,3.058,0,3.629-2.918.466-2.388.857-4.79,1.3-7.282ZM14.991,76.165c-.46,4.658.168,8.867,2.546,12.685a4.021,4.021,0,0,0,5.446,1.283A3.956,3.956,0,0,0,24.814,85c-2.007-4.219-5.474-6.872-9.822-8.839m24.116,9.93a12.884,12.884,0,0,0-6.2,5.445,2.509,2.509,0,0,0,1.017,3.482,2.358,2.358,0,0,0,3.387-.838,12.9,12.9,0,0,0,1.792-8.089M26.519,145.449l-7.148,7.132h7.148Zm3.286-.638v7.73h7.727l-7.727-7.73" transform="translate(0 -32.436)" fill="#d60011"/><path d="M229.122,68.239q-12.727,0-25.455,0c-2.454,0-2.726-.281-2.727-2.757q0-18.826,0-37.652c0-2.348.416-2.76,2.781-2.76q25.543,0,51.086,0c2.36,0,2.658.3,2.658,2.631q0,19,0,38.005c0,2.3-.216,2.529-2.536,2.531q-12.9.012-25.808,0M204.2,28.277V49.585c1.887-1.913,3.534-3.594,5.193-5.262,1.823-1.832,2.217-1.837,4.011-.045q9.876,9.867,19.729,19.758a3.708,3.708,0,0,0,2.926,1.24c4.594-.067,9.189-.027,13.784-.027h4.471V28.277Zm25.091,36.889L211.03,46.91c-1.522,1.558-3.107,3.4-4.923,4.972A5.584,5.584,0,0,0,204,56.93c.191,2.724.046,5.471.046,8.236Z" transform="translate(-129.775 -16.189)" fill="#d60011"/><path d="M130.177,17.02q0,7.334,0,14.669c0,2.15-.436,2.577-2.584,2.578q-12.371.008-24.742,0c-2.065,0-2.535-.43-2.538-2.442q-.021-14.669,0-29.337c0-2.049.454-2.482,2.491-2.483q12.46-.009,24.919,0c1.995,0,2.449.469,2.454,2.523.011,4.831,0,9.661,0,14.492m-26.726,8.1v5.922h23.52V3.224H119.55c5.8,12.591-4.689,23.973-16.1,21.9m-.044-3.363a3.1,3.1,0,0,0,.5.211A11.044,11.044,0,0,0,114.841,18.6a11.315,11.315,0,0,0,2.632-12.1c-1.06-3.169-1.432-3.392-4.755-3.392h-9.311Z" transform="translate(-64.778 0)" fill="#d60011"/><path d="M276.688,60.78a10.413,10.413,0,0,1,10.378-10.47,10.456,10.456,0,0,1,.03,20.913A10.425,10.425,0,0,1,276.688,60.78m17.723-.051a7.33,7.33,0,1,0-7.336,7.46,7.4,7.4,0,0,0,7.336-7.46" transform="translate(-178.698 -32.492)" fill="#d60011"/></g></svg>