<svg xmlns="http://www.w3.org/2000/svg" xmlns:xlink="http://www.w3.org/1999/xlink" width="131.372" height="117.977" viewBox="0 0 131.372 117.977"><defs><clipPath id="a"><rect width="131.372" height="117.977" fill="none"/></clipPath></defs><g clip-path="url(#a)"><path d="M10.517,42.491c-2.535,1.76-4.8,3.316-7.043,4.9C2.408,48.14,1.357,48.5.4,47.3c-.764-.957-.424-1.928.951-2.89,5.616-3.928,11.223-7.869,16.87-11.752a2.612,2.612,0,0,0,1.31-2.456c-.059-6.168-.03-12.336-.027-18.5,0-2.552.445-3.01,2.923-3.014,3.829-.006,7.657-.014,11.486,0,2.012.009,2.458.454,2.47,2.437.018,2.8,0,5.6,0,8.707.719-.463,1.194-.748,1.648-1.065C46.613,12.778,55.209,6.806,63.75.758A2.866,2.866,0,0,1,67.592.72Q98.644,22.5,129.752,44.193c.174.121.356.233.526.359.963.714,1.5,1.6.715,2.712-.761,1.071-1.773,1.01-2.79.3q-2.614-1.824-5.226-3.65c-.6-.419-1.216-.821-2.109-1.423v2.05q0,35.174,0,70.348c0,2.761-.331,3.086-3.142,3.086H13.717c-2.892,0-3.2-.307-3.2-3.185q0-35.015,0-70.03ZM14.385,114.3H117.03V41.476H14.385Zm2.963-76.611h96.544c-.5-.4-.755-.645-1.042-.846Q89.791,20.718,66.744,4.582a1.612,1.612,0,0,0-2.211.1Q46,17.671,27.44,30.614c-3.25,2.271-6.5,4.551-10.092,7.072M23.3,29.076c3.137-2.19,6.013-4.188,8.871-6.212a1.349,1.349,0,0,0,.6-.835c.043-3.217.027-6.436.027-9.647H23.3Z" transform="translate(0 0)" fill="#d60011"/><path d="M87.421,182.929a14.186,14.186,0,0,1,18.976-5.238,2.129,2.129,0,0,0,1.668.123c7.182-3.579,14.056-1.923,18.8,4.589a6.643,6.643,0,0,0,.449.5,14.357,14.357,0,0,1,8.926-6.538,13.987,13.987,0,0,1,13.344,23.3c-6.8,6.885-13.684,13.693-20.542,20.523-1.322,1.316-2.2,1.3-3.524-.016q-8.413-8.4-16.8-16.818a11.518,11.518,0,0,1-1.08-1.532c-.741.691-1.168,1.066-1.57,1.467q-8.245,8.227-16.484,16.459c-1.891,1.888-2.464,1.89-4.315.045q-9.943-9.913-19.892-19.819a14.022,14.022,0,1,1,21.084-18.365c.31.413.608.835.962,1.322m39.832,33.711a2.749,2.749,0,0,0,.386-.243c6.444-6.411,12.929-12.781,19.309-19.255a10.359,10.359,0,0,0-11.065-16.885c-4.295,1.664-6.471,4.955-6.836,9.5-.129,1.613-1.333,2.553-2.517,1.813a2.881,2.881,0,0,1-1.042-1.938c-.517-4.742-2.847-8.03-7.433-9.556a9.309,9.309,0,0,0-7.758.809c4.584,6.365,4.4,12.515-.134,18.428l17.09,17.325m-22.9-35.67c-5.313-3.222-12.546-.371-14.541,5.7-.376,1.144-.284,2.45-.712,3.565a2.437,2.437,0,0,1-1.686,1.423c-.587,0-1.218-.847-1.743-1.4-.168-.178-.047-.616-.083-.933-.563-4.939-3.764-8.581-8.31-9.46a10.35,10.35,0,0,0-9.466,17.391q9.4,9.424,18.872,18.781c.219.217.47.4.628.538l17.179-17.207c-4.6-7.47-4.665-12.037-.138-18.395m2.978,2.354c-3.514,3.687-3.426,10.458.094,13.316a9.881,9.881,0,0,0-.094-13.316" transform="translate(-41.65 -119.729)" fill="#d60011"/></g></svg>