<svg xmlns="http://www.w3.org/2000/svg" xmlns:xlink="http://www.w3.org/1999/xlink" width="243.152" height="250" viewBox="0 0 243.152 250"><defs><clipPath id="a"><rect width="243.152" height="250" fill="none"/></clipPath></defs><g transform="translate(-758 -2250)"><g transform="translate(758 2250)"><g transform="translate(0 0)" clip-path="url(#a)"><path d="M209.162,68.408,123.051,83.384,98.593,58.923a4.325,4.325,0,0,0-3.069-1.27H52.1a4.338,4.338,0,0,0-4.341-4.344H0v8.686H26.052v60.787H0v8.686H47.762a4.337,4.337,0,0,0,4.341-4.341h12l46.421,23.211a14.148,14.148,0,0,0,13.493-.429l94.726-55.26a14.192,14.192,0,0,0-9.584-26.239M43.421,122.782H34.738V61.992h8.683ZM214.37,87.143,119.65,142.4a5.5,5.5,0,0,1-5.239.165L67.074,118.9a4.326,4.326,0,0,0-1.943-.46H52.1v-52.1H93.726l34.212,34.212a7.939,7.939,0,0,1-11.229,11.226L94.251,89.32l-6.14,6.14,22.458,22.458a16.623,16.623,0,0,0,23.509-23.509l-3.518-3.518,80.082-13.928a5.443,5.443,0,0,1,4.492,1.21,5.5,5.5,0,0,1-.764,8.97" transform="translate(0 98.159)" fill="#db0812"/><path d="M231.9,29.89V21.207H204.625c-.79-.821-1.889,0-3.123,0H184.136c-2.4,0-4.341,0-4.341,4.341h-12L121.366,1.667a14.116,14.116,0,0,0-13.49.1L13.15,56.854a14.109,14.109,0,0,0,7.143,26.3,14.443,14.443,0,0,0,2.441-.224l86.105-14.979L133.3,93.08c.815.81,1.918,1.941,3.074,1.941h43.421s1.941,4.341,4.341,4.341H231.9V90.68H205.847V29.89ZM138.17,86.338,103.963,51.461a8.687,8.687,0,0,1-2.327-5.953,8.092,8.092,0,0,1,7.939-8.109,7.811,7.811,0,0,1,5.614,2.245l22.458,22.406,6.137-6.16L121.332,33.433A16.619,16.619,0,1,0,97.82,56.928l3.512,3.512L21.248,74.371a5.509,5.509,0,0,1-3.719-10.186l94.72-55.258a5.5,5.5,0,0,1,5.237-.165L164.824,33.1c.6.3,1.27,1.128,1.943,1.128h13.027V86.338ZM188.478,29.89h8.686V90.68h-8.686Z" transform="translate(11.254 0.001)" fill="#db0812"/><path d="M62.487,39.5a18.759,18.759,0,0,0-25,.506,17.06,17.06,0,0,0,0,24.9l22,20.946a4.347,4.347,0,0,0,5.989.006l22-20.946a17.063,17.063,0,0,0,0-24.91V40a18.761,18.761,0,0,0-24.995-.5M81.5,58.622l-19.008,18.1-19.011-18.1a8.385,8.385,0,0,1,0-12.326,9.95,9.95,0,0,1,13.567,0l2.444,2.324a4.34,4.34,0,0,0,5.987,0L67.92,46.3a9.958,9.958,0,0,1,13.567-.006A8.376,8.376,0,0,1,81.5,58.622" transform="translate(59.089 64.41)" fill="#db0812"/><path d="M32.74,35.316l-7.2-4.859a69.769,69.769,0,0,0-4.657,7.993l7.774,3.87a60.01,60.01,0,0,1,4.083-7" transform="translate(38.452 56.081)" fill="#db0812"/><path d="M18.85,50.3a69.131,69.131,0,0,0,2.492,8.913l8.186-2.89a61.363,61.363,0,0,1-2.179-7.8Z" transform="translate(34.708 89.339)" fill="#db0812"/><path d="M18.792,45.232l8.524,1.662a60.389,60.389,0,0,1,2.08-7.822l-8.228-2.793a69.9,69.9,0,0,0-2.375,8.953" transform="translate(34.602 66.801)" fill="#db0812"/><path d="M18.338,46.883q0,2.532.182,5.029l8.657-.614c-.1-1.463-.151-2.949-.156-4.43q0-1.85.108-3.677l-8.666-.534c-.082,1.4-.125,2.8-.125,4.225" transform="translate(33.766 78.547)" fill="#db0812"/><path d="M62.967,38.879a60.051,60.051,0,0,1,2.176,7.8l8.5-1.764a70.158,70.158,0,0,0-2.486-8.919Z" transform="translate(115.941 66.279)" fill="#db0812"/><path d="M60.524,60.642l7.191,4.867a69.289,69.289,0,0,0,4.665-8l-7.774-3.867a59.671,59.671,0,0,1-4.083,7" transform="translate(111.443 98.776)" fill="#db0812"/><path d="M63.056,56.086l8.228,2.79a69.281,69.281,0,0,0,2.378-8.95l-8.524-1.665a60.777,60.777,0,0,1-2.083,7.825" transform="translate(116.105 88.864)" fill="#db0812"/><path d="M72.968,47.437q0-2.561-.182-5.08l-8.657.634c.1,1.458.159,2.935.153,4.432,0,1.23-.034,2.449-.108,3.665l8.669.534c.082-1.4.125-2.793.125-4.185" transform="translate(118.08 77.993)" fill="#db0812"/></g></g></g></svg>