<svg xmlns="http://www.w3.org/2000/svg" xmlns:xlink="http://www.w3.org/1999/xlink" width="132.463" height="132.242" viewBox="0 0 132.463 132.242"><defs><clipPath id="a"><rect width="132.463" height="132.242" fill="none"/></clipPath></defs><g clip-path="url(#a)"><path d="M149.777,188.066c-11.609-.2-20.988-3.911-28.686-11.577q-19.562-19.481-39.049-39.038c-1.43-1.43-1.431-1.992-.006-3.421q5.671-5.685,11.357-11.356c1.628-1.625,2.147-1.632,3.773-.006q18.607,18.6,37.193,37.219c3.99,4.016,8.713,6.224,14.352,5.94,7.511-.378,13.149-3.961,16.1-10.959,2.934-6.962,2.057-13.72-3.035-19.371-4.942-5.485-10.353-10.548-15.574-15.781q-11.506-11.531-23.035-23.04c-1.642-1.642-1.645-2.13-.018-3.759q5.674-5.682,11.356-11.357c1.426-1.422,2.014-1.431,3.431-.014,13.126,13.121,26.3,26.2,39.347,39.391A38.316,38.316,0,0,1,188.6,149.993a39.245,39.245,0,0,1-33.978,37.623c-1.864.254-3.749.351-4.844.451m-11.857-81.526c.334.288.786.628,1.18,1.024,8.126,8.169,16.282,16.309,24.358,24.528a21.829,21.829,0,1,1-30.906,30.835c-8.2-8.09-16.308-16.282-24.458-24.428-.38-.38-.778-.741-1.141-1.085l-9.989,9.978c.185.213.37.455.583.668,8.688,8.689,17.284,17.473,26.094,26.036,8.623,8.38,19.044,11.648,30.949,9.864a36.143,36.143,0,0,0,19.733-61.307c-8.43-8.514-16.932-16.957-25.406-25.428-.317-.317-.664-.6-.881-.8l-10.117,10.116M94.19,144.565l9.789-9.682-8.751-8.793-9.741,9.755,8.7,8.721m32.334-50.008,8.89,8.858,9.626-9.6L136.1,84.957l-9.571,9.6" transform="translate(-56.155 -55.824)" fill="#d60011"/><path d="M63.1,154.584c-.478.6-.758,1.229-1.232,1.451A2.7,2.7,0,0,1,60.183,156c-.351-.094-.629-.495-.917-.781q-8.925-8.918-17.833-17.852a3.964,3.964,0,0,1-1.084-1.609,1.681,1.681,0,0,1,2.258-1.8,4.794,4.794,0,0,1,1.315,1.015q8.88,8.854,17.731,17.737a19.45,19.45,0,0,1,1.449,1.875" transform="translate(-27.955 -92.821)" fill="#d60011"/><path d="M157.4,60.74c0,1.623-1.394,2.5-2.483,1.884a5.708,5.708,0,0,1-1.161-.979Q144.877,52.78,136.014,43.9c-.252-.252-.661-.493-.7-.781-.1-.685-.291-1.666.063-2.026a3.237,3.237,0,0,1,2.128-.506c.352,0,.729.5,1.048.825q8.9,8.948,17.778,17.917A11.088,11.088,0,0,1,157.4,60.74" transform="translate(-93.748 -28.151)" fill="#d60011"/><path d="M192.4,55.586c0,1.677-1.324,2.512-2.458,1.906a4.229,4.229,0,0,1-.935-.772q-5.628-5.615-11.243-11.243c-1.111-1.115-1.283-2.136-.436-2.882,1.114-.981,2.022-.431,2.9.455,3.736,3.76,7.5,7.493,11.23,11.256a8.7,8.7,0,0,1,.939,1.279" transform="translate(-122.618 -29.181)" fill="#d60011"/><path d="M44.533,175.5a8.808,8.808,0,0,1,1.568.958q5.919,5.86,11.794,11.765c.852.851,1.064,1.784.135,2.657a1.683,1.683,0,0,1-2.569-.2c-3.965-3.96-7.947-7.9-11.853-11.92a2.366,2.366,0,0,1-.419-1.909c.12-.5.825-.862,1.344-1.354" transform="translate(-29.919 -121.719)" fill="#d60011"/><path d="M49.052,220.6c-.389.489-.7,1.263-1.183,1.392a2.517,2.517,0,0,1-2.02-.376c-1.672-1.476-3.2-3.116-4.78-4.7-.826-.826-1.664-1.641-2.466-2.489a1.72,1.72,0,1,1,2.468-2.393q3.624,3.594,7.212,7.225a6.789,6.789,0,0,1,.769,1.337" transform="translate(-26.358 -146.608)" fill="#d60011"/><path d="M186.092,9.208c-.438.531-.743,1.191-1.246,1.424a1.841,1.841,0,0,1-1.659-.14c-2.65-2.531-5.262-5.108-7.749-7.8a2.3,2.3,0,0,1,.224-2.13c.645-.845,1.647-.671,2.411.063,1.286,1.235,2.533,2.51,3.794,3.77,1.081,1.079,2.184,2.14,3.23,3.253a10.757,10.757,0,0,1,.994,1.558" transform="translate(-121.552 0)" fill="#d60011"/><path d="M224.178,46.73c-.376.462-.66,1.132-1.122,1.293a2.131,2.131,0,0,1-1.812-.177c-2.591-2.449-5.139-4.953-7.551-7.577a2.488,2.488,0,0,1,.1-2.264,1.379,1.379,0,0,1,2.257-.1q3.772,3.688,7.462,7.459a5.49,5.49,0,0,1,.671,1.367" transform="translate(-148.046 -25.918)" fill="#d60011"/><path d="M9.242,185.1a9.625,9.625,0,0,1-1.559-.987c-2.326-2.282-4.615-4.6-6.924-6.9-.85-.846-1.1-1.768-.163-2.652a1.678,1.678,0,0,1,2.566.17c2.345,2.335,4.725,4.638,6.989,7.05a2.615,2.615,0,0,1,.469,2.032c-.1.479-.852.827-1.378,1.29" transform="translate(0 -120.702)" fill="#d60011"/><path d="M24.889,160.412a6.51,6.51,0,0,1-1.374-.714c-.968-.9-1.89-1.844-2.8-2.8a1.583,1.583,0,0,1-.091-2.429,1.628,1.628,0,0,1,2.547.021,31.024,31.024,0,0,1,2.868,2.942,2.119,2.119,0,0,1,.241,1.788c-.2.5-.9.8-1.387,1.189" transform="translate(-13.937 -106.715)" fill="#d60011"/><path d="M156.494,18.922a10.238,10.238,0,0,1,1.435.916c.892.829,1.734,1.712,2.593,2.577a1.67,1.67,0,0,1,.166,2.556,1.611,1.611,0,0,1-2.541-.057,28.253,28.253,0,0,1-2.761-2.83,2.4,2.4,0,0,1-.3-1.924c.16-.5.893-.813,1.411-1.239" transform="translate(-107.501 -13.123)" fill="#d60011"/></g></svg>