<svg xmlns="http://www.w3.org/2000/svg" xmlns:xlink="http://www.w3.org/1999/xlink" width="124.342" height="111.602" viewBox="0 0 124.342 111.602"><defs><clipPath id="a"><rect width="124.342" height="111.602" fill="none"/></clipPath></defs><g clip-path="url(#a)"><path d="M62.246,8.5A39.863,39.863,0,0,1,72.834,2.478c21.013-7.99,44.833,4.057,50.231,25.873,3.42,13.821-.059,26.252-10.139,36.447C98.419,79.471,83.733,93.966,69.1,108.509a9.562,9.562,0,0,1-10.2,2.564,9.261,9.261,0,0,1-6.564-7.617,19.712,19.712,0,0,1-.162-2.373,10.2,10.2,0,0,1-7.651-2.838,9.055,9.055,0,0,1-2.768-7.636,9.673,9.673,0,0,1-7.708-2.718,9.9,9.9,0,0,1-2.819-7.725c-.959-.071-1.887-.077-2.793-.22a9.086,9.086,0,0,1-5.115-2.634c-4.4-4.409-8.928-8.694-13.139-13.274a36.93,36.93,0,0,1-10-29.431A38.2,38.2,0,0,1,61.727,8.137c.129.1.265.187.519.365M62.5,36.686a5.722,5.722,0,0,1-.7,1.176q-4.635,4.688-9.314,9.333a13.915,13.915,0,0,1-10.021,4.329,1.645,1.645,0,0,0-1.069.4C36.376,57.029,31.359,62.14,26.406,67.313a4.907,4.907,0,0,0-1.025,5.343,5.159,5.159,0,0,0,4.333,3.636,5.6,5.6,0,0,0,4.911-1.887Q45.011,63.987,55.426,53.6a9.316,9.316,0,0,1,.976-.919,2.056,2.056,0,0,1,2.508,3.26q-2.888,2.9-5.782,5.785Q45.314,69.535,37.5,77.344a5.414,5.414,0,0,0-1.775,5.287,5.252,5.252,0,0,0,3.841,4.18,5.364,5.364,0,0,0,5.452-1.591q10.47-10.507,20.973-20.981a10.658,10.658,0,0,1,.878-.846,2.042,2.042,0,0,1,2.765.143,1.92,1.92,0,0,1,.174,2.655,8.244,8.244,0,0,1-.831.891Q58.36,77.7,47.742,88.32a5.229,5.229,0,0,0,.391,7.94c2.307,1.911,5.357,1.676,7.675-.637Q66.265,85.19,76.7,74.736c1.448-1.448,2.549-1.667,3.546-.709,1.076,1.034.888,2.1-.647,3.638Q69.026,88.24,58.44,98.8a5.2,5.2,0,0,0-1.464,5.246c1.085,4.4,6.019,5.574,9.366,2.231q21.942-21.912,43.841-43.865c8.75-8.822,11.664-19.512,9.151-31.587-3.5-16.8-19.849-28.43-36.924-26.421A34.02,34.02,0,0,0,61.8,14.481Q48.6,27.7,35.387,40.9c-.144.144-.29.286-.431.432a1.632,1.632,0,0,0-.295,2.217,9.636,9.636,0,0,0,2.235,2.34c3.926,2.616,9,1.982,12.6-1.552,3.86-3.79,7.657-7.645,11.487-11.465,1.187-1.183,2.142-1.193,3.385-.076a25.975,25.975,0,0,0,2.377,2.1,35.972,35.972,0,0,0,4.824,3.058c5.213,2.514,9.993,1.814,14.211-2.259,1.106-1.068,2.344-1.067,3.208-.1s.75,2.038-.4,3.089c-5.057,4.64-10.79,6.056-17.332,3.606a29.073,29.073,0,0,1-8.762-5.6M58.958,11.167c-.235-.178-.578-.458-.939-.71A33.548,33.548,0,0,0,31.034,4.866c-18.01,3.708-29.888,22.248-26.1,40.2C7.077,55.221,13.6,62.179,20.91,68.773a11.208,11.208,0,0,1,3.4-5.671c3.921-3.847,7.781-7.756,11.664-11.642.31-.31.6-.637.809-.855a36.793,36.793,0,0,1-4.233-3.1c-2.822-2.734-3.34-6.563-.045-9.73C38.051,32.451,43.436,26.957,48.858,21.5c3.381-3.4,6.706-6.859,10.1-10.336" transform="translate(0 0)" fill="#d60011"/></g></svg>