<svg xmlns="http://www.w3.org/2000/svg" xmlns:xlink="http://www.w3.org/1999/xlink" width="149.838" height="101.079" viewBox="0 0 149.838 101.079"><defs><clipPath id="a"><rect width="149.838" height="101.079" fill="none"/></clipPath></defs><g clip-path="url(#a)"><path d="M3.955,312.9v5.106H145.848V312.9H109.983c-.427,0-.858.025-1.282-.015-1.246-.117-2.079-.921-1.991-1.987a1.929,1.929,0,0,1,1.964-1.872c.377-.035.76-.015,1.14-.015q18.458,0,36.915,0c2.544,0,3.1.554,3.1,3.083,0,2.423.017,4.846-.006,7.269-.017,1.832-.666,2.483-2.5,2.492-3.753.018-7.507.006-11.26.006H3.661q-.784,0-1.568-.01a1.892,1.892,0,0,1-2.055-2.055q-.081-4.345,0-8.693a1.985,1.985,0,0,1,2.074-2.081c.331-.024.665-.01,1-.01H98.035a9.655,9.655,0,0,1,1.139.017,1.93,1.93,0,1,1-.043,3.859c-.471.042-.95.014-1.425.014H3.955Z" transform="translate(0 -220.785)" fill="#d60011"/><path d="M305.221,157.992a19.53,19.53,0,0,1,6.979-8.568,18.285,18.285,0,0,1,28.128,12.055,25.4,25.4,0,0,1,.343,4.244c.033,7.363.016,14.725.014,22.088a7.866,7.866,0,0,1-.041,1.138,1.7,1.7,0,0,1-1.845,1.6,1.738,1.738,0,0,1-1.838-1.619,7,7,0,0,1-.023-1.138c0-7.458.033-14.916-.011-22.373a15.161,15.161,0,0,0-10.793-14.765,14.629,14.629,0,0,0-17.921,10.421c-.8,2.781-2.1,3.09-4.145.982q-5.017-5.159-10.027-10.325c-2.179-2.233-4.947-2.425-6.925-.508a5.088,5.088,0,0,0-.039,7.287q7.751,8.064,15.581,16.054c2.2,2.243,4.916,2.2,7.139-.064,3.13-3.184,6.21-6.417,9.348-9.593a2.793,2.793,0,0,1,1.641-.964,2.139,2.139,0,0,1,1.693.947,2.517,2.517,0,0,1-.245,2.187q-5.265,5.607-10.75,11a6.674,6.674,0,0,1-2.855,1.505c-.924.252-1.067.673-1.054,1.481.037,2.327.018,4.655.011,6.982-.005,1.719-.572,2.483-1.829,2.507-1.3.024-1.9-.776-1.9-2.573-.006-2.422.043-4.847-.041-7.266a2.178,2.178,0,0,0-.856-1.327,35.127,35.127,0,0,1-3.079-2.249q-7.809-7.909-15.5-15.938a8.541,8.541,0,0,1-2.223-8.913,8.259,8.259,0,0,1,6.571-6.023,8.025,8.025,0,0,1,7.66,2.426c2.638,2.668,5.24,5.373,7.848,8.071.3.306.536.666.985,1.231" transform="translate(-201.29 -104.375)" fill="#d60011"/><path d="M71.583,157.279c3.081-2.817,6.224-5.57,9.229-8.466a8.488,8.488,0,0,1,14.346,3.831,8.371,8.371,0,0,1-2,8.337c-5.3,5.578-10.683,11.077-16.072,16.569a7.219,7.219,0,0,1-2.434,1.683,1.842,1.842,0,0,0-1.279,2.147c.07,2.373.036,4.75.015,7.124-.013,1.429-.687,2.175-1.881,2.164s-1.831-.749-1.842-2.2c-.019-2.422-.026-4.845,0-7.267a1.3,1.3,0,0,0-1.026-1.507,10.511,10.511,0,0,1-3.6-2.165c-3.333-3.247-6.527-6.636-9.761-9.983-1.011-1.046-1.091-2.217-.26-3.018.868-.837,1.908-.733,2.988.371,3.122,3.192,6.217,6.409,9.335,9.6,2.341,2.4,5.012,2.462,7.338.087q7.777-7.94,15.478-15.954a5.094,5.094,0,0,0,.865-6.164,4.472,4.472,0,0,0-5.194-2.254,6.456,6.456,0,0,0-2.586,1.625c-3.425,3.426-6.765,6.936-10.146,10.406-1.967,2.018-3.273,1.678-4.057-1.034A14.967,14.967,0,0,0,55.5,150.2a14.769,14.769,0,0,0-14.585,11.083,20.812,20.812,0,0,0-.575,4.78c-.059,7.409-.037,14.819-.015,22.229,0,1.177-.3,2.086-1.56,2.344-1.293.265-2.19-.651-2.2-2.255-.018-4.512-.011-9.025-.006-13.537,0-3.467-.055-6.936.044-10.4A18.77,18.77,0,0,1,50.88,146.864a18.376,18.376,0,0,1,20.336,9.591c.218.414.43.831.645,1.247l-.278-.423" transform="translate(-26.112 -104.487)" fill="#d60011"/><path d="M79.021,16.6c-.372,5.056-1.508,9.848-4.4,14.1-5.31,7.8-15.2,7.91-20.34,0-4.166-6.416-5.838-13.54-3.4-21.024A14.231,14.231,0,0,1,66.461.154,14.772,14.772,0,0,1,78.852,13.341c.1,1.083.115,2.174.169,3.261m-3.876-1.054v-.427a11.01,11.01,0,0,0-9.873-11.28,10.693,10.693,0,0,0-11.346,9.021,23.1,23.1,0,0,0,.136,6.78,18.82,18.82,0,0,0,4.11,9.979,7.829,7.829,0,0,0,5.868,3.041c3.613.134,5.973-1.846,7.762-4.657,2.409-3.785,3.207-8.041,3.342-12.457" transform="translate(-35.547 -0.013)" fill="#d60011"/><path d="M372.826,16.385c-.5-7.586,4-14.1,11.008-15.932a14.418,14.418,0,0,1,17.744,11.569,24.925,24.925,0,0,1-4.621,19.414c-5.3,7.091-14.678,6.722-19.7-.569a27.093,27.093,0,0,1-4.428-14.482m25.236-.765c0-.19,0-.38,0-.569a10.992,10.992,0,0,0-9.919-11.228c-5.373-.526-10.451,3.529-11.364,9.363a21.683,21.683,0,0,0,.166,6.081c.506,3.849,1.66,7.505,4.336,10.463,3.752,4.147,9.048,3.988,12.509-.387,3.173-4.011,4.092-8.76,4.272-13.722" transform="translate(-266.361 0)" fill="#d60011"/></g></svg>