<svg xmlns="http://www.w3.org/2000/svg" xmlns:xlink="http://www.w3.org/1999/xlink" width="152.078" height="132.242" viewBox="0 0 152.078 132.242"><defs><clipPath id="a"><rect width="152.078" height="132.242" fill="none"/></clipPath></defs><g clip-path="url(#a)"><path d="M13.41,39.232c-.475.807-.879,1.513-1.3,2.208-.917,1.512-1.623,1.718-3.122.862Q5.2,40.138,1.443,37.934c-1.653-.966-1.821-1.65-.831-3.365Q9.021,20,17.438,5.442c.765-1.324,1.515-2.657,2.291-3.974C20.7-.178,21.336-.368,22.944.543q3.79,2.15,7.554,4.345c1.591.932,1.752,1.625.845,3.247-.4.708-.8,1.413-1.287,2.281,2.005,1.15,3.957,2.318,5.967,3.374.322.169.939-.089,1.365-.275,3.028-1.326,5.944-3.006,9.081-3.961A18.838,18.838,0,0,1,61.66,11.486c4.079,2.31,8.131,4.67,12.185,7.026,5.1,2.964,5.586,7.948,1.179,11.913.605.83,1.229.746,2.077.248,6.81-4.007,13.729-7.835,20.449-11.987A26.693,26.693,0,0,1,112.3,14.408a9.7,9.7,0,0,0,5.72-1.732c1.227-.812,2.532-1.5,3.93-2.326-.514-.924-1-1.791-1.48-2.661a1.67,1.67,0,0,1,.654-2.49c2.806-1.665,5.62-3.317,8.471-4.9,1.387-.771,2.15.137,2.794,1.253q4.89,8.478,9.808,16.941,4.6,7.941,9.187,15.887c1.121,1.941.953,2.58-.954,3.685-2.425,1.405-4.85,2.812-7.284,4.2-1.6.913-2.269.719-3.228-.885-.417-.7-.824-1.4-1.318-2.238-1.93,1.121-3.83,2.178-5.668,3.335a1.852,1.852,0,0,0-.6,1.259c-.3,2.889-.337,5.82-.846,8.669A18.918,18.918,0,0,1,122.4,65.6c-4.472,2.747-9.045,5.335-13.634,7.884A6.566,6.566,0,0,1,99,68.846c-.048-.245-.122-.485-.191-.759-1.226.075-1.3.854-1.3,1.79.018,8.17-.086,16.341.048,24.508.075,4.555-.575,8.917-3.06,12.732-2.374,3.645-1.895,7.557-1.879,11.689,1.009,0,1.961.021,2.911-.005a1.743,1.743,0,0,1,2.052,1.9c.029,3.165.024,6.331.006,9.5-.008,1.494-.9,2.046-2.287,2.041-2.859-.012-5.718,0-8.578,0q-14.705,0-29.41,0c-2.394,0-2.826-.44-2.831-2.88-.006-2.655-.01-5.31,0-7.965.01-2.194.41-2.58,2.6-2.586.712,0,1.425,0,2.347,0,0-2.355.037-4.633-.041-6.908-.011-.326-.528-.7-.883-.94-1.642-1.122-3.334-2.172-4.963-3.312a20.1,20.1,0,0,1-9.009-17c-.073-4.7-.022-9.395-.012-14.092.011-5.378,4.094-8.38,9.269-6.83a2.56,2.56,0,0,0,.477.045c.607-1.136-.211-1.509-.976-1.947-7.253-4.159-14.476-8.369-21.759-12.474-3.6-2.029-6.743-4.574-8.61-8.249-2.055-4.047-5.679-5.923-9.518-7.871m75.8,79.533c0-1.312.1-2.486-.019-3.638a14.566,14.566,0,0,1,2.159-9.317,21.485,21.485,0,0,0,2.782-11.729c-.1-9.341-.013-18.685,0-28.028,0-3.267.028-6.535-.014-9.8a3.184,3.184,0,0,0-3.386-3.332,3.229,3.229,0,0,0-2.98,3.442q.023,8.194,0,16.388,0,2.526-.073,5.052c-.03,1.109-.747,1.857-1.732,1.667-.641-.124-1.214-.978-1.649-1.619-.216-.318-.06-.894-.06-1.353,0-6.634.015-13.268-.011-19.9-.009-2.266-1.29-3.659-3.232-3.666-1.925-.006-3.107,1.386-3.113,3.7q-.027,9.955-.041,19.91c0,.459.161,1.049-.061,1.351-.465.632-1.133,1.534-1.723,1.538s-1.268-.891-1.739-1.518c-.223-.3-.059-.891-.06-1.35q-.022-10.108-.046-20.216A3.147,3.147,0,0,0,71.1,52.932c-1.885,0-3.061,1.268-3.129,3.373-.012.357,0,.715,0,1.072q-.056,9.8-.111,19.593c0,.2,0,.408-.006.612-.01,1.139-.553,1.939-1.7,1.937-1.22,0-1.754-.8-1.751-2.035q.025-10.568,0-21.136c0-2.183-1.352-3.714-3.218-3.718-1.824,0-3.141,1.433-3.151,3.554q-.057,12.711-.059,25.422c0,1.209-.282,2.154-1.666,2.268-1.2.1-1.779-.658-1.819-2.266-.052-2.039-.05-4.082-.173-6.117a3.19,3.19,0,0,0-.676-1.638,2.922,2.922,0,0,0-3.463-.9A2.953,2.953,0,0,0,48.1,76.011c.013,4.952-.016,9.9.008,14.857a16.3,16.3,0,0,0,7.47,13.957c1.757,1.224,3.511,2.467,5.364,3.533A3.451,3.451,0,0,1,62.9,111.95c-.141,2.263-.035,4.541-.035,6.816ZM123.745,13.381c-1.941,1.115-3.662,2.224-5.491,3.112a14.37,14.37,0,0,1-3.832,1.2c-1.5.254-3.083.052-4.568.352-2.474.5-5.168.763-7.3,1.961-11.99,6.738-23.839,13.726-35.739,20.624a2.7,2.7,0,0,0-1.352,2.985,2.694,2.694,0,0,0,2.427,2.57,5.416,5.416,0,0,0,2.867-.638c5.917-3.3,11.788-6.675,17.66-10.051,1.089-.627,2.092-.917,2.92.317.651.97.25,1.9-1.116,2.695q-8.46,4.907-16.923,9.809c-.445.258-.873.546-1.266.793l4.19,2.185a6.892,6.892,0,0,1,6.662-1.735,2.594,2.594,0,0,0,1.659-.414c3.069-1.718,6.115-3.476,9.153-5.249a1.79,1.79,0,0,1,2.374.1c.9.85.657,2.141-.587,2.912s-2.537,1.506-4.176,2.474a7.458,7.458,0,0,1,5.822,3.943c.706-.384,1.275-.719,1.866-1.01a1.581,1.581,0,0,1,2.239.658,1.6,1.6,0,0,1-.476,2.295c-.749.523-1.6.9-2.368,1.4-.31.2-.727.56-.735.857-.062,2.22-.034,4.443-.034,6.9.739-.39,1.228-.629,1.7-.9,2.605-1.5,5.2-3.014,7.812-4.506,1.38-.789,2.344-.664,2.88.386.646,1.265-.067,2.014-1.084,2.609-1.583.926-3.2,1.8-4.747,2.782-1.87,1.186-2.309,2.885-1.278,4.535.965,1.544,2.758,1.927,4.56.9,4.292-2.454,8.6-4.882,12.836-7.43a15.749,15.749,0,0,0,7.862-11.63c.4-2.767.49-5.584.625-8.383a3.3,3.3,0,0,1,1.927-3.154c2.072-1.055,4.036-2.324,6.138-3.555l-13.1-22.7M54.484,64.546a37.66,37.66,0,0,1,.027-4.163c.272-2.264-.254-3.972-2.625-4.724-.233-.074-.57-.23-.618-.411-.2-.765-.613-1.66-.383-2.307a1.452,1.452,0,0,1,2.183-.686c.606.316,1.216.625,1.877.965a7.392,7.392,0,0,1,5.231-4.193c-1.309-.762-2.36-1.365-3.4-1.983-1.253-.744-1.682-1.8-1.05-2.741.758-1.124,1.731-1.043,2.792-.4,1.18.71,2.387,1.376,3.332,1.917.253-2.279.493-4.433.758-6.811a13.679,13.679,0,0,1-1.329-.811,1.641,1.641,0,0,1-.577-2.387,1.6,1.6,0,0,1,2.344-.666c.754.423,1.488.888,2.271,1.248a1.705,1.705,0,0,0,1.249.176c1.964-1.03,3.879-2.152,5.914-3.3-3.4-2-6.6-3.883-9.808-5.756a1.7,1.7,0,0,1-.776-2.563c.61-1.016,1.56-1.015,2.534-.465,1.108.627,2.21,1.265,3.321,1.888A18.132,18.132,0,0,0,70.3,27.734a3.086,3.086,0,0,0,3.714-1.673,3.145,3.145,0,0,0-1.366-4.214q-6.264-3.674-12.584-7.253a16.482,16.482,0,0,0-16.095-.472c-2.155,1.037-4.241,2.232-6.447,3.143a3.628,3.628,0,0,1-2.669-.1c-2.222-1.088-4.327-2.413-6.576-3.7L15.2,36.1a23.538,23.538,0,0,0,2.375,1.377,17.065,17.065,0,0,1,8.377,7.869,18.052,18.052,0,0,0,7.338,6.963c5.414,3.055,10.77,6.212,16.151,9.325,1.577.912,3.157,1.82,5.041,2.906m39.559,57.8h-36v6.21h36ZM124.329,7.36,142.4,38.606l5.54-3.223L129.869,4.173l-5.54,3.187M9.7,38.6,27.761,7.367l-5.538-3.2L4.146,35.463,9.7,38.6" transform="translate(0 0)" fill="#d60011"/></g></svg>