<svg xmlns="http://www.w3.org/2000/svg" xmlns:xlink="http://www.w3.org/1999/xlink" width="83.039" height="142.424" viewBox="0 0 83.039 142.424"><defs><clipPath id="a"><rect width="83.039" height="142.424" fill="none"/></clipPath></defs><g clip-path="url(#a)"><path d="M79.608,317.67c2.345,0,4.585-.01,6.825,0,1.7.01,2.265.569,2.274,2.287q.022,4.321,0,8.643c-.01,1.634-.583,2.23-2.183,2.23q-35.3.011-70.606,0c-1.6,0-2.17-.592-2.179-2.232q-.024-4.394,0-8.789c.011-1.539.6-2.123,2.12-2.137,2.289-.02,4.578-.005,7.028-.005-.485-1.832-.914-3.519-1.382-5.2-.318-1.138-.362-2.184.959-2.671,1.062-.391,1.887.288,2.306,1.817.54,1.971,1.056,3.949,1.615,6.048h1.59q11.133,0,22.266,0c.439,0,1-.138,1.29.075.542.393,1.259.982,1.288,1.521s-.61,1.264-1.149,1.592a3.838,3.838,0,0,1-1.857.2q-15.381.014-30.762.007H17.244v6.292H85.183v-6.293c-2.273,0-4.5.006-6.731,0-2.594-.009-3.126-.722-2.451-3.22Q82.28,294.6,88.55,271.35c.1-.36.148-.733.264-1.314H86.971q-12.232,0-24.463,0c-.488,0-.978.006-1.463-.04-1.008-.1-1.665-.6-1.631-1.68.036-1.142.732-1.636,1.822-1.637q6.079-.005,12.158,0,8.5,0,16.992,0c2.131,0,2.707.745,2.15,2.813Q86.2,293.027,79.852,316.562c-.086.32-.143.647-.243,1.108" transform="translate(-9.697 -188.414)" fill="#d60011"/><path d="M110.686,70.4c0-7.127.026-14.254-.04-21.381a3.324,3.324,0,0,0-.888-2.117A31.567,31.567,0,0,1,110.838.862c1.273-1.149,1.847-1.149,3.135,0a31.536,31.536,0,0,1,1.12,45.9,3.049,3.049,0,0,0-1,2.416q.045,20.868.02,41.737c0,.342,0,.683,0,1.025-.021,1.585-.617,2.415-1.725,2.409s-1.7-.832-1.7-2.425q-.009-10.764,0-21.528M112.4,4.146c-11.328,10.183-11.228,28.612-1.772,38.422.023-.449.056-.823.058-1.2.007-1.61-.013-3.22.014-4.83a1.672,1.672,0,0,1,1.636-1.879c1.18-.037,1.721.768,1.775,1.891.032.682.01,1.366.01,2.049,0,1.314,0,2.627,0,4.255,10.49-12.066,8.427-29.713-1.721-38.711" transform="translate(-70.88 0)" fill="#d60011"/><path d="M28.99,154.558A28.824,28.824,0,0,1,1.224,131.506c-.326-1.685-.081-2.106,1.581-2.718a28.308,28.308,0,0,1,36.841,19.32c.98,3.827.943,4.026-2.936,5.016-2.531.645-5.144.967-7.721,1.434m7.459-4.766a6.705,6.705,0,0,0-.085-.97c-3.275-13.008-17.84-21.292-30.624-17.463-.885.265-1.043.561-.788,1.426A24.4,24.4,0,0,0,15.18,146.741c6.582,4.322,13.694,5.129,21.269,3.051" transform="translate(-0.777 -89.804)" fill="#d60011"/><path d="M159.8,190.736c-3.209-.726-6.423-1.428-9.623-2.19-1.266-.3-1.662-1.168-1.414-2.447a28.3,28.3,0,0,1,37.34-21.26c1.633.569,1.859,1.017,1.54,2.744a28.225,28.225,0,0,1-24.106,22.46c-1.209.131-2.422.236-3.633.354l-.1.34m-7.536-5.047c.405.146.58.217.76.272,12.773,3.958,26.92-3.751,30.806-16.73.373-1.245.113-1.667-1.12-1.981a25.005,25.005,0,0,0-29.133,14.6c-.508,1.235-.87,2.531-1.313,3.84" transform="translate(-105.055 -115.291)" fill="#d60011"/><path d="M3.912,270.019c.132.612.2,1.027.312,1.432Q8.1,285.9,11.993,300.337c.05.188.143.366.178.556.205,1.1-.064,2.018-1.241,2.279-1.094.243-1.724-.412-2-1.443-.8-2.956-1.621-5.908-2.419-8.866Q3.333,281.1.172,269.338c-.507-1.886.084-2.658,2.026-2.66q14.423-.016,28.847-.028c1.188,0,2.192.183,2.28,1.626.072,1.17-.671,1.733-2.343,1.736q-12.593.021-25.186.007H3.912" transform="translate(0 -188.398)" fill="#d60011"/><path d="M226.265,301.549c-.567,2.061-1.038,3.743-1.493,5.429-1.189,4.4-2.381,8.807-3.547,13.218-.31,1.172-.848,2.013-2.213,1.742-1.043-.206-1.406-1.172-1.026-2.592q2.355-8.788,4.724-17.572c.269-1,.851-1.8,1.924-1.53.656.168,1.164.911,1.63,1.3" transform="translate(-153.911 -212.095)" fill="#d60011"/><path d="M209.145,398.309c-.645,2.184-1.115,4.126-1.839,5.968-.166.422-1.26.772-1.822.654a1.818,1.818,0,0,1-1.073-1.437,36.358,36.358,0,0,1,1.52-5.748,2.029,2.029,0,0,1,1.783-.741c.556.106.986.868,1.431,1.3" transform="translate(-144.419 -280.486)" fill="#d60011"/></g></svg>