<svg xmlns="http://www.w3.org/2000/svg" xmlns:xlink="http://www.w3.org/1999/xlink" width="105.353" height="136.4" viewBox="0 0 105.353 136.4"><defs><clipPath id="a"><rect width="105.353" height="136.4" fill="none"/></clipPath></defs><g clip-path="url(#a)"><path d="M97.545,147.181c6.144-3.8,12.165-7.531,18.181-11.263a5.779,5.779,0,0,0,.619-.544c-2.447-1.532-4.461-3.11-7.668-2.948-10.649.538-18.21-4.81-22.44-15.465-2.256,1.378-4.481,2.735-6.7,4.1-.41.251-.8.547-1.221.767a1.969,1.969,0,0,1-2.935-.745,1.906,1.906,0,0,1,.863-2.756c2.6-1.618,5.183-3.273,7.839-4.8a2.591,2.591,0,0,0,1.466-2.56,22.057,22.057,0,0,1,22.519-21.711c11.813.245,21.777,10.395,21.357,22.1-.286,7.949-4.084,14.047-10.894,18.217-.511.313-1.047.584-1.846,1.028,1.48.934,2.787,1.818,4.15,2.6a3.166,3.166,0,0,1,1.765,3.072c-.065,3.488-.025,6.978-.019,10.468,0,1.456-.316,2.693-2.072,2.8-1.43.084-2.14-.9-2.15-2.886-.013-2.4,0-4.8,0-7.485-.636.335-1.094.542-1.518.8-8.941,5.529-17.89,11.046-26.794,16.634a2.959,2.959,0,0,0-1.335,2c-.088,9.324-.06,18.65-.055,27.975,0,.28.061.56.116,1.02.6-.336,1.062-.573,1.5-.848,8.886-5.508,17.754-11.044,26.67-16.5a2.572,2.572,0,0,0,1.407-2.59c-.074-3.367-.012-6.738-.032-10.107-.008-1.44.423-2.567,2.047-2.607,1.651-.04,2.128,1.13,2.135,2.535.022,4.151.1,8.306-.063,12.451a3.715,3.715,0,0,1-1.512,2.59c-10.89,6.827-21.851,13.542-32.77,20.322a2.759,2.759,0,0,1-3.307-.026q-16.2-10.132-32.458-20.168a3.031,3.031,0,0,1-1.642-2.907q.065-16.785,0-33.57a3.01,3.01,0,0,1,1.613-2.921c5.138-3.114,10.224-6.312,15.335-9.471,1.584-.979,2.861-.917,3.438.239.759,1.52-.031,2.43-1.327,3.213-3.856,2.331-7.671,4.729-11.5,7.107-.491.3-.955.652-1.64,1.122l11.294,6.925c4.065-5.654,9.567-8.318,16.406-7.211,6.771,1.1,11.035,5.394,13.178,12M54.739,139.01v1.951c0,8.9.022,17.8-.026,26.7a2.6,2.6,0,0,0,1.418,2.579c8.963,5.48,17.88,11.033,26.816,16.558.415.256.873.443,1.42.717.059-.5.111-.738.112-.974.006-9.319.031-18.64-.045-27.959a2.789,2.789,0,0,0-1.214-1.893c-3.367-2.2-6.8-4.293-10.227-6.409-5.967-3.69-11.94-7.371-18.253-11.267m34.945-28.376A17.841,17.841,0,1,0,107.492,92.76a17.854,17.854,0,0,0-17.808,17.874M71.66,144.664c3.7,2.29,7.595,4.344,11.066,6.961,2.865,2.16,5.04,1.978,7.857-.013,3.634-2.57,3.954-3.1,1.581-7a13.1,13.1,0,0,0-.817-1.185c-5.093-6.613-16.017-5.994-19.687,1.241" transform="translate(-32.398 -56.981)" fill="#d60011"/><path d="M4.238,26.628A22.35,22.35,0,0,0,48.4,31.434c.066-.293.188-.576.229-.871.2-1.467.948-2.43,2.5-2.108,1.61.333,1.706,1.657,1.482,3.005-1.849,11.169-12.18,20.357-23.484,21.4A26.8,26.8,0,0,1,.509,31.569C-2.367,17.689,7.275,3.066,21.254.482S48.319,5.932,52.1,19.41a10.11,10.11,0,0,1,.267,1.228,1.936,1.936,0,0,1-1.581,2.434c-1.254.253-1.918-.544-2.412-1.666-1.247-2.834-2.205-5.908-3.986-8.375A22.011,22.011,0,0,0,19.478,5.216,22.305,22.305,0,0,0,4.238,26.628" transform="translate(0 0)" fill="#d60011"/><path d="M168.54,37c0,1.309.017,2.382,0,3.455a1.882,1.882,0,0,1-2.007,2.064,1.856,1.856,0,0,1-2.029-2.033c-.032-1.071-.007-2.144-.007-3.48-1.211,0-2.267-.013-3.324,0a1.985,1.985,0,0,1-2.31-1.972c-.064-1.384.857-2.052,2.172-2.123,1.011-.055,2.027-.011,3.322-.011,0-1.109-.01-2.044,0-2.978.018-1.405.447-2.595,2.081-2.594,1.6,0,2.122,1.1,2.095,2.559-.017.892,0,1.784,0,2.914,1.2,0,2.256-.019,3.315,0,1.319.03,2.293.687,2.328,2.011.038,1.416-.915,2.148-2.334,2.177-1.015.021-2.031,0-3.3,0" transform="translate(-101.419 -17.448)" fill="#d60011"/><path d="M59.837,88.384a7.818,7.818,0,0,1-7.531-6.509c-.255-1.381.114-2.414,1.541-2.782,1.314-.338,2.275.509,2.539,2.095.367,2.209,1.554,3.369,3.473,3.4a3.389,3.389,0,0,0,3.559-3.1c.258-1.888.975-2.617,2.373-2.416s1.971,1.406,1.54,3.221a7.76,7.76,0,0,1-7.493,6.093" transform="translate(-33.346 -50.449)" fill="#d60011"/><path d="M43.4,161.13c1.67.217,3.863-.178,3.833,2.262-.029,2.337-2.087,2-3.753,2.09-.436,1.55.292,4.071-2.484,3.886-2.3-.153-1.787-2.27-2.01-3.88-1.649-.12-3.832.282-3.841-2.129s2.172-2.05,3.867-2.2c.1-1.717-.175-3.688,2.2-3.909,1.379-.129,1.977.988,2.192,3.882" transform="translate(-22.436 -100.386)" fill="#d60011"/><path d="M266.2,84.783c-.174,1.707.355,3.671-2.063,3.9-1.5.14-1.972-.692-2.291-3.865-1.575-.213-3.905.289-3.842-2.263.056-2.294,2.227-1.856,3.8-2.094.349-1.606-.194-4,2.4-3.866,2.291.119,1.837,2.249,1.993,3.818,1.544.44,4-.38,3.86,2.372-.119,2.386-2.229,1.813-3.866,2" transform="translate(-164.718 -48.895)" fill="#d60011"/><path d="M101.312,56.626a6.388,6.388,0,0,1-.066,2.494c-.348.75-1.206,1.7-1.887,1.736a2.547,2.547,0,0,1-1.988-1.529,17.455,17.455,0,0,1-.013-5.363,2.525,2.525,0,0,1,1.977-1.5c.681.03,1.559.935,1.905,1.668a6.382,6.382,0,0,1,.072,2.492" transform="translate(-62.028 -33.495)" fill="#d60011"/><path d="M42.573,56.752c0,.78.258,1.7-.065,2.306-.409.773-1.237,1.7-1.982,1.8-.571.073-1.75-.97-1.857-1.645a16.623,16.623,0,0,1,.007-5.188,2.512,2.512,0,0,1,1.908-1.554,2.844,2.844,0,0,1,1.906,1.617,7.139,7.139,0,0,1,.074,2.668h.009" transform="translate(-24.56 -33.497)" fill="#d60011"/><path d="M197.069,160.836a6.072,6.072,0,0,1-6.148-5.207c-.228-1.343.118-2.458,1.571-2.783a1.938,1.938,0,0,1,2.524,1.864c.159,1.2.747,1.965,1.889,2.024,1.282.067,1.935-.815,2.1-2.024a1.9,1.9,0,0,1,2.317-1.9c1.422.176,1.8,1.184,1.738,2.482a5.994,5.994,0,0,1-5.988,5.546" transform="translate(-121.85 -97.536)" fill="#d60011"/><path d="M229.929,134.056c.017,2.69-.659,3.877-2.16,3.824-1.443-.051-2.048-1.162-2.047-3.768a16.738,16.738,0,0,1,.026-1.976,2.01,2.01,0,0,1,2.063-2.05c1.336-.027,1.939.805,2.1,2a14.613,14.613,0,0,1,.016,1.975" transform="translate(-144.097 -83.051)" fill="#d60011"/><path d="M182.17,133.961c0,.6.021,1.2,0,1.8-.056,1.28-.848,2.2-2,2.036a2.968,2.968,0,0,1-2.006-1.8,12.649,12.649,0,0,1-.058-4.1,1.834,1.834,0,0,1,2.06-1.8,1.934,1.934,0,0,1,2,2.072c.038.6.006,1.2.006,1.8" transform="translate(-113.618 -83.055)" fill="#d60011"/></g></svg>