<svg xmlns="http://www.w3.org/2000/svg" xmlns:xlink="http://www.w3.org/1999/xlink" width="143.394" height="128.773" viewBox="0 0 143.394 128.773"><defs><clipPath id="a"><rect width="143.394" height="128.773" fill="none"/></clipPath></defs><g clip-path="url(#a)"><path d="M11.479,46.379C8.713,48.3,6.242,50,3.791,51.726c-1.163.819-2.31,1.215-3.355-.093-.834-1.045-.463-2.1,1.038-3.154,6.13-4.288,12.25-8.589,18.414-12.827a2.851,2.851,0,0,0,1.429-2.681c-.065-6.732-.033-13.465-.029-20.2,0-2.785.486-3.286,3.191-3.29,4.179-.006,8.358-.015,12.537,0,2.2.01,2.682.5,2.7,2.66.019,3.055,0,6.11,0,9.5.785-.506,1.3-.817,1.8-1.162C50.879,13.947,60.261,7.429,69.584.828A3.129,3.129,0,0,1,73.778.786q33.893,23.77,67.848,47.452c.19.133.388.254.574.392,1.051.779,1.641,1.749.781,2.96-.831,1.169-1.935,1.1-3.046.328q-2.853-1.991-5.7-3.984c-.657-.457-1.327-.9-2.3-1.553v2.238q0,38.393,0,76.786c0,3.014-.361,3.369-3.43,3.369H14.973c-3.157,0-3.493-.336-3.493-3.476q0-38.219,0-76.438ZM15.7,124.756H127.74V45.272H15.7Zm3.234-83.622H124.314c-.541-.441-.824-.7-1.138-.923Q98.008,22.614,72.852,5a1.76,1.76,0,0,0-2.413.107Q50.213,19.288,29.951,33.415c-3.548,2.479-7.089,4.967-11.016,7.719m6.5-9.4c3.424-2.391,6.564-4.571,9.683-6.781a1.473,1.473,0,0,0,.658-.911c.047-3.512.03-7.025.03-10.53H25.435Z" transform="translate(0 0)" fill="#d60011"/><path d="M132.778,199.242c-.8,1.9-1.134,3.655-2.146,4.817a5.676,5.676,0,0,1-3.77,1.759c-10.258.141-20.518.1-30.778.068a5.341,5.341,0,0,1-5.4-5.315c-.018-.373-.042-.746-.074-1.329H88.688q-10.368,0-20.736,0c-4.667,0-6.709-2.051-6.711-6.707,0-3.294.082-6.59-.017-9.881-.2-6.784,1.994-12.482,7.429-16.865a14.994,14.994,0,0,1-2.006-8.983,14.169,14.169,0,0,1,27.889-1.887,13.253,13.253,0,0,1-.973,9.293c-.641,1.233-.565,2,.533,2.8a9.067,9.067,0,0,1,1.3,1.39l3.25-3.072c-3.715-8.286-2.51-15.19,3.542-20.019a15.052,15.052,0,0,1,18.341-.219q9.293,6.906,3.82,20.352l3.209,3.041,2.6-2.9c-3.172-8.561-1.857-14.738,4.154-18.97a14.237,14.237,0,0,1,17.148.663c4.332,3.581,7.388,10.527,3.126,18.534a18.642,18.642,0,0,1,6.836,10.808,22.889,22.889,0,0,1,.5,4.324c.066,4,.028,7.992.022,11.988-.006,4.106-2.159,6.29-6.289,6.3-7.128.023-14.256.007-21.384.007h-1.485m-31.789-31a16.206,16.206,0,0,0-6.573,13.345q0,8.908,0,17.816c0,2.431.465,2.874,2.972,2.876q8.341.007,16.683,0,5.911,0,11.824,0c1.407,0,2.505-.389,2.5-2.046-.025-7.017.157-14.046-.2-21.048-.23-4.55-2.728-8.168-6.366-10.925-6.538,5.581-14.644,5.346-20.843-.023m-10.754.584c-5.372,4.523-12.928,5.426-19.61,0-3.471,2.792-5.678,6.336-5.874,10.842-.192,4.417-.072,8.849-.073,13.273,0,2.112.464,2.581,2.544,2.582q11.009.009,22.019,0c.461,0,.923-.061,1.444-.1,0-4.732-.157-9.323.063-13.9a30.323,30.323,0,0,1,1.4-7.4c.881-2.854,1.06-2.8-1.215-4.774-.2-.173-.422-.321-.7-.532m41.907,26.7c8.208,0,16.189.012,24.17-.013,1.232,0,1.842-.743,1.837-1.982-.019-4.749.155-9.509-.105-14.245a13.935,13.935,0,0,0-5.879-10.459c-6.623,5.072-13.139,5.023-20.006-.284a20.186,20.186,0,0,0-1.769,2.355,2.327,2.327,0,0,0-.263,1.777,22.775,22.775,0,0,1,2.031,9.882c-.069,4.254-.016,8.509-.016,12.969m-9.361-38.1a11.368,11.368,0,1,0-11.389,11.442,11.367,11.367,0,0,0,11.389-11.442m-42.349-9.554a10.5,10.5,0,0,0-.111,21,10.5,10.5,0,0,0,.111-21m72.483,10.437a10.478,10.478,0,1,0-10.426,10.559,10.454,10.454,0,0,0,10.426-10.559" transform="translate(-39.859 -92.522)" fill="#d60011"/></g></svg>