<?xml version="1.0" encoding="UTF-8"?><svg xmlns="http://www.w3.org/2000/svg" viewBox="0 0 63.5 63.5"><defs><style>.d{fill:#fff;}</style></defs><g id="a"/><g id="b"><g id="c"><g><path class="d" d="M51.23,42.76c-1.29-1.01-2.99-1.23-4.47-.62v-.07c-.05-2.46-2.09-4.45-4.54-4.45h-.02c-6.94-.03-13.99-.03-20.93,0-.01,0-.03,0-.04,0-2.3,0-4.22,1.72-4.47,4-.03,.18-.05,.35-.07,.54-.57-.24-1.19-.36-1.8-.35-2.49,.03-4.48,2.09-4.45,4.57v11.25c-.02,.13-.02,.27,0,.4,.05,.39,.25,.73,.55,.97s.69,.35,1.02,.3c.23,0,.46,0,.69,0h3.98v.66c0,.65,0,1.28,0,1.87-.01,.12-.01,.23,0,.34,.09,.82,.83,1.41,1.6,1.31,.64,0,1.28,.01,1.92,.01s1.28,0,1.92-.01c1.02-.02,1.56-.58,1.56-1.62v-2.51h17.09v.6c0,.62,0,1.23,0,1.83,0,1.18,.54,1.71,1.73,1.71,1.18,0,2.35,0,3.53,0,1.2,0,1.71-.52,1.72-1.72,0-.6,0-1.21,0-1.83v-.63h1.42c.72,0,1.44,0,2.16,0,1.1-.01,1.64-.56,1.64-1.67,0-3.77,0-7.53,0-11.29,.03-1.42-.64-2.76-1.78-3.58Zm-7.58,17.86v-1.29h1.28v1.29h-1.28Zm-22.81-1.28v1.3h-1.28v-1.3h1.28Zm-1.32-11.3c0-2-.01-3.99,.02-5.97,0-.88,.73-1.61,1.62-1.61,2.24-.03,4.48-.02,6.74-.02h2.38v9.7h-10.75v-2.09Zm24.41,0c0,.69,0,1.39,0,2.09h-10.75v-9.7h1.96c2.39,0,4.75,0,7.12,.02,.9-.01,1.62,.7,1.64,1.58,.04,2,.03,4.04,.02,6.01Zm-25.45,4.95h26.49c1.31,0,1.79-.49,1.79-1.82v-1.65c0-1.06,0-2.13,0-3.2,0-.87,.65-1.59,1.51-1.69,.81-.08,1.56,.39,1.82,1.17,.04,.11,.07,.23,.07,.34v10.3H13.28v-3.27c0-2.3,0-4.6,0-6.9,0-.75,.51-1.4,1.27-1.58,.16-.05,.32-.07,.48-.07,.54,0,1.06,.28,1.35,.75,.19,.35,.3,.74,.31,1.13,.03,1.15,.03,2.29,.02,3.44v1.27c0,1.27,.5,1.77,1.78,1.77Z"/><path class="d" d="M18.53,24.76h26.31c1.43,0,1.92-.48,1.92-1.9V10.37c0-.53,0-1.05,0-1.54,0-.07,0-.14,0-.22-.03-.38-.2-.73-.49-.98-.29-.25-.66-.38-.99-.35-.3-.02-.6-.02-.89,0-.48,.04-.94-.1-1.34-.39-1.76-1.14-3.53-2.26-5.3-3.39-1.64-1.04-3.28-2.09-4.89-3.12-.65-.51-1.57-.52-2.21-.03-1.43,.92-2.87,1.84-4.31,2.75-1.82,1.16-3.64,2.31-5.46,3.5-.68,.48-1.51,.71-2.33,.68-.67-.03-1.11,.08-1.4,.36-.39,.37-.44,.96-.44,1.49v13.76c0,1.36,.5,1.86,1.83,1.86ZM25.14,7.23c2.12-1.35,4.25-2.7,6.37-4.06,.22-.14,.24-.14,.36-.07,1.85,1.2,3.72,2.38,5.58,3.57l.87,.55h-13.18Zm-5.58,14.65V10.13h24.35v11.75H19.56Z"/><path class="d" d="M9.13,25.83h1.49c1.01,0,2.03,0,3.04-.01,.61,0,1.07-.18,1.35-.52,.28-.33,.38-.79,.28-1.36-.67-4.06-1.35-8.12-2.03-12.13,0-.04,0-.09-.01-.13-.11-.78-.83-1.34-1.57-1.23H3.68c-.44-.07-.9,.08-1.21,.39-.26,.26-.41,.61-.4,.92C1.38,15.79,.71,19.83,.04,23.87c-.1,.64-.02,1.11,.26,1.45,.28,.33,.74,.5,1.39,.5,.94,0,1.89,0,2.83,0h1.71V60.7H2.12v2.76H13.23v-2.8h-4.1V25.83Zm3.13-2.88H3.05l1.61-9.69h.89c1.7,0,3.36,0,4.94,0,.09,.02,.16,.09,.17,.12,.49,2.84,.96,5.69,1.43,8.56l.17,1.01Z"/><path class="d" d="M61.91,48.11h-1.54c.06-.12,.13-.22,.2-.32,.53-.55,1.07-1.09,1.61-1.61,.28-.28,.57-.56,.84-.84l.25-.25-2-1.98-.94,.9v-.29c0-.92-.01-1.77,.02-2.61,.02-.26,.13-.52,.3-.71,.56-.61,1.16-1.19,1.73-1.75l.88-.87-2.08-2.11-.85,1.02c0-.23,0-.46,.02-.66,.02-.09,.07-.18,.16-.25,.06-.05,.13-.11,.19-.17,1.06-.96,1.67-2.27,1.74-3.7,.07-1.42-.42-2.79-1.39-3.85l-.11-.11c-1.18-1.1-3.03-1.05-4.13,.12-.93,.91-1.46,2.37-1.4,3.88,.05,1.38,.57,2.6,1.46,3.35,.52,.4,.78,1.05,.67,1.73-.01,.25,0,.5,0,.75v3.05l-.78-1.06-2.2,2.19,.26,.25c.17,.16,.33,.33,.5,.5,.44,.44,.9,.9,1.41,1.32,.63,.46,.95,1.22,.82,2.02-.04,.68-.05,1.37-.03,2.06h-.37c-.45,0-.87,0-1.26,0-.12,0-.25,0-.38,.02-.37,.08-.69,.29-.91,.61-.21,.32-.29,.7-.22,1.03l1.02,12.2v.1c0,.38,.16,.73,.43,1,.27,.26,.64,.42,1,.4,.7,.02,1.4,.03,2.1,.03s1.4,0,2.09-.03c.77,.05,1.4-.6,1.4-1.34,.13-1.41,.24-2.82,.36-4.23l.22-2.72c.14-1.77,.29-3.54,.44-5.31,.05-.56-.07-.99-.35-1.3-.27-.3-.67-.45-1.2-.46Zm-2.17-16.4c-.17,.54-.38,1.07-.61,1.56-.05,.09-.11,.15-.16,.15-.06,0-.16-.04-.26-.16-.6-.94-.6-2.16-.02-3.07,.12-.14,.22-.2,.28-.2h0s.1,.06,.14,.13c.24,.51,.45,1.04,.62,1.58Zm.8,19.28l-.8,9.64h-1.59l-.81-9.64h3.2Z"/><path class="d" d="M55.8,23.69h.01c4.23,0,7.68-3.44,7.69-7.68,0-4.24-3.44-7.7-7.68-7.7h-.01c-2.05,0-3.98,.8-5.43,2.24-1.46,1.45-2.26,3.38-2.26,5.43h0c0,4.2,3.43,7.66,7.68,7.7Zm-4.85-7.71v-.14c.09-2.61,2.25-4.7,4.87-4.7,2.7,.04,4.84,2.19,4.86,4.92-.02,1.3-.54,2.52-1.47,3.43-.93,.91-2.13,1.38-3.53,1.39-1.28-.02-2.48-.54-3.38-1.46-.89-.92-1.37-2.14-1.35-3.42Z"/><path class="d" d="M37.13,12.15c-.11-.18-.25-.33-.42-.44-.32-.21-.7-.29-1.08-.22-.38,.07-.7,.29-.88,.56-1.56,1.54-3.1,3.1-4.67,4.68-.05,.06-.1,.12-.15,.19l-.12-.2c-.7-1.17-1.33-2.22-1.97-3.28-.44-.72-.92-.9-1.25-.92-.33-.01-.83,.09-1.35,.74-.73,.91-1.46,1.82-2.19,2.73-.58,.72-1.15,1.44-1.7,2.13-.45,.44-.57,1.11-.29,1.67,.25,.49,.75,.8,1.28,.8,.04,0,.08,0,.12,0h18.56c.59,.04,1.16-.29,1.41-.82,.26-.54,.15-1.19-.26-1.59-1.68-2.02-3.36-4.04-5.02-6.01Zm.96,5.54h-4.8l2.62-2.62,2.18,2.62Zm-10.97,.02h-1.84l1.05-1.32,.79,1.32Z"/><path class="d" d="M54.91,18.13c.24,.23,.55,.36,.89,.36h.01c.34,0,.65-.14,.88-.37,.79-.75,1.55-1.54,2.31-2.31l1.12-1.13-1.97-2.02-2.35,2.47-1.3-1.39-1.98,1.96,.88,.91c.49,.51,.99,1.03,1.51,1.53Z"/></g></g></g></svg>