<?xml version="1.0" encoding="UTF-8"?><svg xmlns="http://www.w3.org/2000/svg" viewBox="0 0 56.72 55.84"><defs><style>.d{fill:#fff;}</style></defs><g id="a"/><g id="b"><g id="c"><g><path class="d" d="M6.17,29.16c2.62,.97,5.59,.5,7.98-1.27,.46-.38,.92-.79,1.34-1.21,.37,.43,.79,.82,1.24,1.16,1.82,1.4,4.09,2.02,6.37,1.72,2.08-.27,3.95-1.26,5.33-2.81,.37,.41,.78,.79,1.22,1.13,1.52,1.16,3.33,1.76,5.21,1.76,.39,0,.78-.03,1.17-.08,2.1-.28,3.98-1.3,5.35-2.89,.04,.04,.08,.08,.12,.12,.39,.39,.8,.78,1.25,1.12,2.47,1.92,5.88,2.25,8.67,.85,4.03-2.02,5.67-6.94,3.66-10.96-1.17-2.61-2.34-5.22-3.52-7.83-1-2.22-2.01-4.45-2.99-6.65C47.78,1.22,45.7-.12,43.48,0c-2.78,.01-5.56,.01-8.34,0h-3.54c-6.1,0-12.21,0-18.29,0-2.16-.12-4.16,1.17-4.94,3.16C6.14,8.12,3.91,13.07,1.69,18c-.76,1.63-.95,3.49-.55,5.24,.65,2.82,2.48,4.97,5.03,5.91ZM13,2.77s.08,0,.12,0h19.7c3.57,0,7.14,0,10.74,0,1.07-.07,2.06,.56,2.45,1.6,1.09,2.45,2.19,4.89,3.29,7.33,1.11,2.47,2.22,4.94,3.33,7.42,.05,.1,.09,.21,.14,.31,1.13,2.82-.25,6.03-3.04,7.15-2.66,.91-5.58-.22-6.94-2.68l-.11-.21c-.14-.38-.43-.67-.81-.82-.35-.13-.73-.12-1.07,.03-.34,.15-.6,.43-.71,.73-.53,1.09-1.38,1.97-2.44,2.55-2.81,1.54-6.35,.49-7.87-2.3-.14-.29-.35-.56-.64-.78-.31-.21-.64-.28-.98-.2-.4,.09-.76,.39-1.04,.89-.95,1.92-2.97,3.18-5.11,3.1-2.16,.07-4.18-1.16-5.16-3.11-.24-.42-.55-1-1.38-1-.81,.01-1.13,.63-1.33,1-1.43,2.77-4.85,3.9-7.62,2.52-2.46-1.38-3.48-4.37-2.37-6.95,2.08-4.73,4.25-9.52,6.34-14.15l.49-1.08c.34-.82,1.14-1.35,2.04-1.35Z"/><path class="d" d="M53.14,47.18c-.49-.08-.96-.09-1.47-.11-.07,0-.14,0-.21,0v-7.07c0-2.86,0-5.73,0-8.63,.01-.38-.12-.74-.38-1.02-.26-.28-.61-.43-.99-.45h-.11c-.37,.04-.7,.21-.94,.49-.24,.28-.35,.64-.32,.97,0,5.68,0,11.36,0,17.03,0,.9,.53,1.43,1.44,1.45,.38,0,.75,0,1.13,0,.31,0,.62,0,.96,0,.06,0,.12,0,.18,0,.88,.06,1.56,.82,1.5,1.71-.03,.43-.22,.82-.54,1.1-.32,.28-.73,.43-1.2,.39H4.61c-.06,0-.12,0-.17,0-.43-.02-.82-.21-1.11-.53s-.43-.73-.41-1.16c.05-.88,.8-1.59,1.72-1.52,.39,0,.77,0,1.16,0h.58c1.29,0,1.75-.45,1.75-1.72V31.53c0-.11,0-.21,0-.31-.04-.7-.59-1.26-1.32-1.31h-.02c-.69,0-1.27,.49-1.39,1.2-.02,.2-.03,.4-.02,.57v15.42h-.05c-.36,0-.69-.01-1,0h0c-1.68,0-3.2,.99-3.88,2.5-.76,1.49-.56,3.28,.5,4.55,.86,1.07,2.15,1.69,3.49,1.69,.11,0,.23,0,.34-.01,15.73,0,31.46,0,47.19,0,.21,0,.43,0,.65-.01,2-.12,3.65-1.58,4.02-3.56,.43-2.36-1.13-4.63-3.51-5.06Z"/><path class="d" d="M14.11,31.21c0-.17,0-.34,0-.52-.06-.69-.62-1.22-1.3-1.23-.51-.01-.82,.18-1,.35-.29,.28-.44,.7-.44,1.24v17.08c0,1.23,.48,1.71,1.72,1.71h30.66c1.28,0,1.75-.47,1.75-1.73V31.08c0-.12,0-.24,0-.33-.04-.74-.64-1.33-1.42-1.28-.73,0-1.32,.61-1.31,1.32,0,.1,0,.21,0,.31v15.97H14.11v-15.85Z"/><path class="d" d="M19.98,42.6c.17,.79,.63,1.47,1.29,1.9,2.1,1.5,4.57,2.31,7.15,2.32h0c2.57-.01,5.03-.81,7.12-2.29l.08-.06c.67-.48,1.11-1.19,1.25-2,.14-.81-.05-1.63-.54-2.3-.48-.67-1.19-1.11-2-1.25-.81-.14-1.63,.05-2.31,.54-2.16,1.61-5.06,1.61-7.24,0-.67-.47-1.49-.66-2.29-.52-.81,.14-1.52,.58-1.98,1.24l-.1,.14c-.44,.68-.59,1.49-.43,2.28Zm13.87-.27c-1.6,1.12-3.48,1.72-5.43,1.72-1.94,0-3.82-.59-5.42-1.69-.22-.16-.31-.28-.33-.34,0-.06,.05-.15,.08-.2,.05-.08,.12-.16,.24-.16,.08,0,.2,.04,.36,.15,3.03,2.13,7.09,2.13,10.11,0,.42-.28,.55-.1,.61,0,.06,.09,.17,.25-.23,.53Z"/><path class="d" d="M29.9,36.96c.76,.77,1.77,1.2,2.86,1.21,2.22,0,4.05-1.82,4.08-4.05,0-2.21-1.8-4.02-4-4.05h-.11c-1.07,0-2.07,.42-2.83,1.17-.76,.76-1.17,1.76-1.17,2.83h0c0,1.09,.4,2.11,1.16,2.88Zm1.6-2.89c0-.34,.14-.66,.39-.89,.24-.23,.55-.36,.88-.36h.03c.71,0,1.3,.59,1.3,1.29-.02,.72-.6,1.3-1.31,1.31-.71-.01-1.29-.6-1.28-1.35Z"/><path class="d" d="M24.05,38.18h0c1.08,0,2.1-.42,2.86-1.18,.77-.76,1.19-1.78,1.2-2.87v-.1c-.02-2.19-1.81-3.96-4-3.96-.02,0-.03,0-.05,0-2.23,0-4.05,1.82-4.05,4.06,.03,2.23,1.8,4,4.03,4.04Zm1.32-4.03h0c-.01,.71-.6,1.28-1.29,1.28h-.02c-.72-.03-1.29-.62-1.28-1.33,.02-.7,.6-1.26,1.33-1.26,.01,0,.02,0,.04,0,.34,.01,.65,.15,.89,.4,.23,.25,.35,.57,.34,.91Z"/></g></g></g></svg>