<?xml version="1.0" encoding="UTF-8"?><svg xmlns="http://www.w3.org/2000/svg" viewBox="0 0 65.15 70.06"><defs><style>.d{fill:#fff;}</style></defs><g id="a"/><g id="b"><g id="c"><g><path class="d" d="M64.92,45.53c-.37-.68-1.17-1.2-2.33-.61l-2.63,1.41c-2.43,1.3-4.85,2.61-7.27,3.92-1.03-1.08-2.08-2.16-3.12-3.23l-.62-.64c.7,.11,1.4,.17,2.1,.17,1.08,0,2.16-.13,3.26-.39,1.93-.49,3.74-1.32,5.35-2.46,.57-.39,.75-.84,.81-1.15,.05-.29,.04-.75-.27-1.16-.06-.1-.13-.2-.21-.28-.29-.32-.69-.5-1.13-.52-.4,0-.78,.12-1.08,.37-.27,.18-.54,.35-.86,.53-3.57,2.25-8.19,2.25-11.79-.01-2.23-1.35-4.14-3.09-5.67-5.19-.62-.84-1.33-1.62-2.11-2.28-1.76-1.56-4.39-1.53-6.08,.03-.91,.76-1.63,1.69-2.14,2.75-.43,.89-.96,1.74-1.58,2.52-.69,.86-1.87,1.15-2.87,.69l-.2-.07s-.08-.02-.12-.04c-.16-.07-.29-.2-.36-.37s-.06-.35,0-.51l.04-.13c.11-.39,.21-.79,.32-1.18,.3-1.12,.6-2.27,.97-3.34,.29-.8,.7-1.56,1.18-2.24,.56-.75,1.32-1.32,2.24-1.67,.41-.18,.82-.35,1.23-.52,.94-.39,1.91-.79,2.81-1.29,1.94-.99,4.17-1.2,6.31-.55l4.35,1.03c2.95,.7,5.9,1.4,8.81,2.11,.83,.22,1.71,.17,2.48-.15,2.93-1.14,5.84-2.22,9.05-3.42,.53-.2,.89-.51,1.08-.93,.12-.27,.23-.72,.01-1.29-.22-.58-.61-.83-.89-.95-.3-.12-.79-.21-1.42,.08l-2.35,.88c-2.2,.82-4.39,1.64-6.61,2.45-.1,.04-.21,.05-.28,.04-2.51-.58-5.02-1.17-7.54-1.75-1.95-.46-3.9-.91-5.78-1.35-1.8-.55-3.73-.65-5.64-.29-.78,.2-1.51,.51-2.22,.8-.4,.17-.8,.33-1.23,.49-.14,.05-.29,.07-.37,.06-2.21-.55-4.42-1.12-6.62-1.69l-2.4-.62c-5.45-1.39-10.91-2.79-16.36-4.19-1.57-.4-2.11,.69-2.23,1.04-.15,.42-.12,.87,.08,1.26,.25,.47,.72,.81,1.34,.97,5.73,1.46,11.46,2.92,17.19,4.39l4.41,1.14c-1.75,1.17-3.05,2.92-3.68,4.96-.55,1.73-1.04,3.46-1.48,5.05-.54,1.7,.2,3.56,1.79,4.44,2.78,1.43,5.49,1.06,7.47-1.09,.77-.98,1.48-2.03,2.09-3.1,.39-.65,.85-1.26,1.43-1.89,.21-.22,.5-.34,.8-.34,.31-.02,.59,.11,.87,.38,.55,.45,1.04,.97,1.46,1.53,1.53,2.03,3.35,3.81,5.43,5.29,1.09,.76,2.18,1.38,3.27,1.86l-.07,.11c-.29,.46-.38,1.01-.28,1.45,.06,.49,.39,.79,.65,1.03,2.28,2.33,4.55,4.67,6.89,7.07,.36,.31,.46,.83,.2,1.34-.09,.21-.22,.39-.38,.54-.62,.56-1.58,.5-2.14-.13l-10.09-10.78-.2-.21c-.19-.21-.38-.41-.59-.6l-.07-.07c-.32-.3-.75-.48-1.18-.46-.44,.01-.85,.19-1.11,.47l-.09,.09c-.61,.66-.58,1.69,.05,2.32,.05,.05,.1,.11,.16,.16l.09,.09c3.21,3.4,6.43,6.8,9.65,10.19,.47,.5,.96,.97,1.47,1.46l.21,.2c-.15,.26-.34,.49-.57,.7-1.26,1.15-3.22,1.06-4.38-.21-2.93-3.05-5.86-6.11-8.84-9.23-.16-.2-.44-.54-.92-.63-.78-.14-1.36-.03-1.74,.35-.46,.46-.42,1.1-.38,1.61,.03,.52,.38,.82,.55,.95l7.88,8.23c.64,.81,1.42,1.52,2.29,2.08,0,0-.02,.02-.03,.03-1.06,1.15-2.33,1.52-3.36,1-.71-.4-1.33-.92-1.89-1.56-1.59-1.71-3.15-3.44-4.71-5.18-.73-.81-1.45-1.62-2.18-2.42-1.13-1.25-2.11-.66-2.47-.34-.48,.41-.61,.86-.63,1.17-.03,.47,.15,.93,.53,1.36l2.36,2.63c1.75,1.95,3.5,3.91,5.28,5.84-.06,.08-.12,.15-.19,.22-.28,.26-.68,.39-1.04,.39-.39-.01-.74-.17-1.04-.49-.55-.53-1.08-1.08-1.62-1.63-.29-.3-.59-.61-.89-.91-6.49-6.55-12.98-13.09-19.48-19.63-.35-.35-.79-.61-1.28-.76-1.05-.3-2.12-.58-3.18-.86l-2.57-.69c-.62-.17-1.25-.34-1.88-.5-.52-.13-1.01-.08-1.41,.16-.25,.15-.57,.44-.71,.99-.03,.11-.05,.22-.07,.33-.04,.44,.09,.86,.37,1.2,.26,.32,.63,.52,1.03,.58,.03,0,.06,.02,.08,.03l.18,.06c2.32,.61,4.64,1.23,7.05,1.88,.05,0,.1,.03,.14,.05,.75,.71,1.5,1.43,2.25,2.16l-.79,.88c-.71,.77-1.41,1.55-2.08,2.31-.57,.61-.94,1.37-1.07,2.2-.16,1.08,.11,2.16,.76,3.04,.54,.74,1.3,1.26,2.15,1.5-.18,1.45,.33,2.91,1.42,3.95,1.05,1,2.49,1.45,3.88,1.25,.32,1.03,.99,1.93,1.9,2.54,.95,.62,2.09,.88,3.19,.73v.04c.21,.59,.52,1.12,.93,1.58,.8,.89,1.91,1.42,3.1,1.48,.08,0,.16,0,.24,0,1.11,0,2.17-.41,2.99-1.15,.6-.53,1.15-1.07,1.73-1.64,.03-.03,.06-.06,.09-.09,.48,.5,.95,.99,1.43,1.45,.38,.37,.82,.68,1.31,.9,2.15,.99,4.66,.21,5.9-1.73,1.14,.36,2.37,.37,3.55,.03,1.73-.58,3.18-1.75,4.1-3.33,.24-.05,.48-.09,.72-.13,.42-.07,.86-.13,1.28-.26,1.79-.5,3.26-1.83,3.94-3.56,1.91-.04,3.61-1.28,4.19-3,.75-1.66,.38-3.59-.88-4.82,1.79-.96,3.57-1.91,5.37-2.87,1.23-.66,2.45-1.32,3.69-1.98,.49-.26,.8-.62,.93-1.05,.09-.29,.13-.75-.17-1.29Zm-37.8,19.3l-.03,.03c-.62,.61-1.21,1.18-1.82,1.67-.44,.33-1.06,.25-1.43-.22-.36-.41-.35-1.03,.03-1.41,.56-.55,1.08-1.14,1.59-1.71l1.67,1.64Zm-4.02-4.09c-.35,.36-.69,.73-1.03,1.09-.22,.24-.44,.49-.66,.74-.18,.21-.36,.42-.57,.65-.36,.43-.96,.57-1.48,.34-.52-.22-.83-.75-.77-1.33,.01-.14,.06-.27,.11-.33,.8-.97,1.63-1.92,2.46-2.87l.1-.12,1.85,1.82Zm-4.29-4.19c-.68,.75-1.36,1.5-2.03,2.26-.29,.32-.58,.65-.84,1l-.07,.1c-.21,.27-.52,.45-.86,.49-.34,.04-.69-.05-.99-.29-.28-.24-.45-.57-.48-.94s.08-.72,.31-.99c.74-.85,1.5-1.68,2.26-2.52l.89-.99,1.85,1.82-.04,.05Zm-4.49-3.96c-.78,.86-1.56,1.71-2.31,2.5-.34,.32-.88,.32-1.24,0-.15-.14-.24-.34-.24-.55s.07-.41,.24-.58l2.64-2.91,1.23,1.19-.32,.35Z"/><path class="d" d="M25.41,17.03c.62,.54,1.27,1.05,1.92,1.56,1.78,1.41,3.47,2.74,4.56,4.6,.17,.32,.44,.57,.76,.72,.21,.09,.43,.14,.65,.14,.19,0,.39-.04,.57-.11,.38-.15,.68-.42,.86-.79,.68-1.18,1.58-2.2,2.7-3.06,.69-.58,1.38-1.15,2.08-1.72,.98-.8,2-1.63,2.93-2.46,2.29-1.79,3.84-4.36,4.35-7.19,.54-2.6-.41-5.25-2.45-6.88C42.28,.04,39.41-.49,36.82,.47c-1.32,.53-2.55,1.31-3.59,2.29-1.01-.79-2.09-1.5-3.3-2.15-.57-.24-1.17-.41-1.78-.5-4.04-.61-7.83,2.2-8.43,6.27-.2,1.64,.07,3.3,.77,4.77,1.1,2.54,3.13,4.3,4.92,5.86Zm6.46-11.02c1.16,1.19,2.1,.65,2.83,0,.85-.84,1.79-1.59,2.75-2.21,.23-.13,.48-.24,.73-.32,1.05-.35,2.18-.26,3.17,.23,.99,.5,1.73,1.36,2.06,2.34,.43,1.68,.04,3.5-1.06,4.88-1.16,1.53-2.53,2.88-4.1,4.07-1.71,1.44-3.35,2.91-4.63,4.06-.12,.12-.23,.24-.34,.36-1.32-1.46-2.82-2.67-4.28-3.86-.79-.64-1.61-1.31-2.42-2.04-1.53-1.21-2.69-2.82-3.37-4.68-.23-.59-.32-1.23-.26-1.85,.2-2.12,1.99-3.72,4.08-3.72,.12,0,.25,0,.38,.02,1.23,.12,2.39,.66,3.32,1.6,.32,.27,.63,.58,.95,.92l.2,.2Z"/></g></g></g></svg>