<svg xmlns="http://www.w3.org/2000/svg" xmlns:xlink="http://www.w3.org/1999/xlink" width="90.511" height="135.882" viewBox="0 0 90.511 135.882"><defs><clipPath id="a"><rect width="90.511" height="135.882" fill="none"/></clipPath></defs><g clip-path="url(#a)"><path d="M13.939,29.9c0-2.456-.013-4.669,0-6.882a9.805,9.805,0,0,1,14.273-8.865c.279.134.57.244.916.39.108-2.157.071-4.235.342-6.271a9.795,9.795,0,0,1,19.367.1c.253,2.19.161,4.421.218,6.633.014.537,0,1.075,0,1.643a31.149,31.149,0,0,1,4.015-1.336A10.165,10.165,0,0,1,65.193,25.323q.151,21.053.274,42.107a3.715,3.715,0,0,0,.24,1.513c.4-.567.81-1.125,1.191-1.7,2.5-3.792,5.458-7.092,9.682-9.036a12.587,12.587,0,0,1,8.47-1.047c4.1,1.009,6.337,4.454,5.139,8.484a72.576,72.576,0,0,1-3.573,8.8A63.749,63.749,0,0,1,83.611,80.2c-2.522,4.375-3.639,9.167-4.74,14.049a117.21,117.21,0,0,1-11.6,30.2c-1.45,2.67-2.788,5.4-4.126,8.129a5.25,5.25,0,0,1-4.994,3.3q-19.877,0-39.754,0A4.954,4.954,0,0,1,13.717,133c-4.594-9-8.671-18.206-10.936-28.112A70.9,70.9,0,0,1,.9,90.109Q.516,64.628,0,39.147c-.1-5.143,2.478-9.1,6.82-10.356A8.844,8.844,0,0,1,13.939,29.9M4.855,65.85h-.02c.156,8.356.132,16.721.538,25.065a84.127,84.127,0,0,0,1.85,13.521c1.948,9.064,5.783,17.449,9.9,25.709a2.246,2.246,0,0,0,2.338,1.452c8.173-.04,16.346-.021,24.52-.021,4.479,0,8.959-.008,13.438.007a1.775,1.775,0,0,0,1.882-1.041c1.524-3.1,3.118-6.167,4.721-9.228,4.7-8.973,8.6-18.294,10.576-28.229a62.176,62.176,0,0,1,6.9-18.229,58.33,58.33,0,0,0,2.673-5.3,54.763,54.763,0,0,0,1.869-5.32,1.978,1.978,0,0,0-1.313-2.557,5.38,5.38,0,0,0-1.865-.421c-3.88-.163-6.932,1.7-9.237,4.512-2.563,3.123-4.711,6.589-7.007,9.93a9.433,9.433,0,0,0-1.131,2.177c-.447,1.271-1.285,2.039-2.358,1.868a2.241,2.241,0,0,1-1.991-2.3c-.037-.505-.024-1.015-.026-1.523q-.094-19.048-.188-38.1c-.024-4.294-.033-8.59-.145-12.882A5.646,5.646,0,0,0,54,19.638c-3.342.729-4.942,2.693-4.934,6.15.025,10.3.076,20.6.1,30.892,0,1.706-.03,3.416-.133,5.119a2.22,2.22,0,0,1-2.32,2.241A2.167,2.167,0,0,1,44.7,61.685c-.01-.369,0-.739,0-1.108q0-24.728,0-49.456c0-.461.016-.925-.011-1.385a5.526,5.526,0,0,0-4.606-5.292c-3.676-.538-6.463,1.994-6.465,5.914q-.011,25.212,0,50.426c0,.416.028.834-.012,1.246a2.033,2.033,0,0,1-1.944,1.989,1.95,1.95,0,0,1-2.211-1.482,6.2,6.2,0,0,1-.194-1.771q-.018-11.844-.008-23.689c0-4.756.022-9.513-.02-14.269A5.324,5.324,0,0,0,25.2,17.633,5.241,5.241,0,0,0,19.2,19.986a8.1,8.1,0,0,0-.866,3.679c-.058,14.638-.034,29.276-.046,43.915a6.222,6.222,0,0,1-.216,1.907,1.96,1.96,0,0,1-2.255,1.423,2.021,2.021,0,0,1-1.865-1.92c-.041-.412-.017-.83-.017-1.246q0-14.269-.013-28.538a11.093,11.093,0,0,0-.284-2.6A4.949,4.949,0,0,0,9.23,32.8a4.727,4.727,0,0,0-4.5,3.466,8.621,8.621,0,0,0-.383,2.715c.145,8.956.333,17.912.509,26.868" transform="translate(0 0)" fill="#d60011"/><path d="M55.183,181.87c1.154-1.011,2.158-1.965,3.238-2.824a11.59,11.59,0,0,1,13.66-.849A11.8,11.8,0,0,1,76.6,191.158c-1.083,3.871-3.377,7.041-5.951,10.018a81.218,81.218,0,0,1-13.665,12.268c-1.021.748-2.084,1.077-3.176.279-6.584-4.807-12.843-9.993-17.321-16.913a21.322,21.322,0,0,1-2.889-6.927,11.049,11.049,0,0,1,5.315-12.053,11.607,11.607,0,0,1,13.384,1.495c.944.8,1.862,1.638,2.89,2.544m17.493,6.94c-.064-3.788-1.1-6.087-3.756-7.375a6.879,6.879,0,0,0-7.648.932c-1.42,1.1-2.708,2.368-4.054,3.563-1.609,1.426-2.478,1.422-4.073.008-1.45-1.285-2.822-2.68-4.385-3.81a6.8,6.8,0,0,0-10.953,4.357,8.638,8.638,0,0,0,1.118,5.992c3.826,6.852,9.713,11.752,15.788,16.454a1.129,1.129,0,0,0,1.056-.055c5.455-4.216,10.68-8.679,14.555-14.478,1.312-1.964,2.408-4.047,2.353-5.587" transform="translate(-18.207 -96.34)" fill="#d60011"/></g></svg>