<svg xmlns="http://www.w3.org/2000/svg" xmlns:xlink="http://www.w3.org/1999/xlink" width="250" height="236.945" viewBox="0 0 250 236.945"><defs><clipPath id="a"><rect width="250" height="236.945" fill="none"/></clipPath></defs><g transform="translate(-752 -2249)"><g transform="translate(752 2249)"><g transform="translate(0 0)" clip-path="url(#a)"><path d="M225.086,138.221H213.241V103.927A19.769,19.769,0,0,0,193.5,84.181H130.314a19.769,19.769,0,0,0-19.746,19.746v34.294H98.72a11.861,11.861,0,0,0-11.845,11.848v39.489a19.717,19.717,0,0,0,18.494,19.618l-5.677,19.87H62.782a19.774,19.774,0,0,0-19.343-15.8h-7.9V31.443A23.543,23.543,0,0,1,82.39,28.113l.068.48a11.775,11.775,0,0,0-7.121,12.879l1.075,6.376L65.854,65.981a7.9,7.9,0,0,0,6.794,11.876A7.806,7.806,0,0,0,74,77.743l37.886-6.4a7.9,7.9,0,0,0,3.823-13.783L99.775,43.9,98.7,37.528a11.82,11.82,0,0,0-8.321-9.339L90.207,27a31.44,31.44,0,0,0-62.564,4.446V213.251h-7.9V209.3a3.949,3.949,0,1,0-7.9,0v5.623A19.753,19.753,0,0,0,0,233a3.948,3.948,0,0,0,3.95,3.948h242.1a3.949,3.949,0,0,0,0-7.9H224.118l-5.68-19.87a19.715,19.715,0,0,0,18.5-19.618V150.069a11.861,11.861,0,0,0-11.848-11.848M110.565,63.553,72.679,69.96,83.026,52.188l11.931-2.013,15.637,13.37Zm-19-20.818-7.789,1.317-.66-3.893a3.955,3.955,0,0,1,3.236-4.553,4.022,4.022,0,0,1,.662-.055,3.959,3.959,0,0,1,3.893,3.291Zm38.743,49.345H193.5a11.863,11.863,0,0,1,11.848,11.848v35.024a11.82,11.82,0,0,0-7.9,11.118v8a19.561,19.561,0,0,0-11.848-4.051H138.211a19.561,19.561,0,0,0-11.848,4.051v-8a11.82,11.82,0,0,0-7.9-11.118V103.927a11.863,11.863,0,0,1,11.848-11.848M185.6,161.915a11.861,11.861,0,0,1,11.848,11.848v3.948H126.363v-3.948a11.861,11.861,0,0,1,11.848-11.848ZM191.2,209.3l11.284,19.743H121.323L132.6,209.3Zm6.241-7.9H126.363v-15.8h71.082ZM94.773,189.558V150.069a3.956,3.956,0,0,1,3.948-3.95h15.8a3.955,3.955,0,0,1,3.948,3.95V201.4H106.62a11.861,11.861,0,0,1-11.848-11.845m-86.2,39.489a11.862,11.862,0,0,1,11.17-7.9H43.439a11.864,11.864,0,0,1,11.167,7.9Zm99.33,0,5.641-19.743h9.962l-11.282,19.743Zm103.675,0L200.3,209.3h9.962l5.641,19.743Zm17.455-39.489A11.861,11.861,0,0,1,217.188,201.4H205.343V150.069a3.953,3.953,0,0,1,3.948-3.95h15.8a3.957,3.957,0,0,1,3.95,3.95Z" transform="translate(0 0.001)" fill="#db0812"/><path d="M73.433,7.087a2.85,2.85,0,0,0-2.849,2.849V55.528a2.849,2.849,0,0,0,2.849,2.849h.039v0h52.469a2.853,2.853,0,0,0,2.852-2.852V9.936a2.852,2.852,0,0,0-2.852-2.849H73.433Zm49.581,45.592H76.363V12.788h46.651Z" transform="translate(112.728 11.319)" fill="#db0812"/><path d="M74.972,14.325V37.12a2.851,2.851,0,0,0,2.849,2.852h29.635a2.851,2.851,0,0,0,2.849-2.852V14.325a2.849,2.849,0,0,0-2.849-2.849H77.821a2.849,2.849,0,0,0-2.849,2.849m29.635,19.946H80.673v-17.1h23.935Z" transform="translate(119.736 18.329)" fill="#db0812"/></g></g></g></svg>