<svg xmlns="http://www.w3.org/2000/svg" xmlns:xlink="http://www.w3.org/1999/xlink" width="182.699" height="250" viewBox="0 0 182.699 250"><defs><clipPath id="a"><rect width="182.699" height="250" fill="none"/></clipPath></defs><g transform="translate(-766 -2247)"><g transform="translate(766 2247)"><g transform="translate(0 0)" clip-path="url(#a)"><path d="M50.739,72.662H30.321a3.651,3.651,0,1,0,0,7.3H50.739a3.651,3.651,0,1,0,0-7.3" transform="translate(44.608 121.535)" fill="#db0812"/><path d="M143.673,115.771V97.32a21.92,21.92,0,0,0,25.136-11.046,3.638,3.638,0,0,0,.428-1.718V58.471l0-.067c0-.04-.005-.078-.008-.118a2.569,2.569,0,0,0-.037-.38c0-.032-.008-.067-.013-.1a3.55,3.55,0,0,0-.118-.462l-.013-.043a3.807,3.807,0,0,0-.166-.406c-.013-.027-.027-.056-.043-.083a3.752,3.752,0,0,0-.241-.412l-.037-.048a3.261,3.261,0,0,0-.273-.337c-.013-.013-.024-.032-.037-.048L143.673,29.823V20.4A20.417,20.417,0,0,0,123.276,0H47a20.42,20.42,0,0,0-20.4,20.4v9.274L1.034,55.924a3.644,3.644,0,0,0-1.029,2.55c0,.051-.005.1-.005.155v25.93a3.675,3.675,0,0,0,.412,1.689A21.913,21.913,0,0,0,26.606,97V200.279a20.42,20.42,0,0,0,20.4,20.4h64.391v25.668a3.652,3.652,0,0,0,5.5,3.148l23.984-14.09,23.979,14.09a3.652,3.652,0,0,0,5.5-3.148V185.369a40.188,40.188,0,0,0,12.337-28.9c0-21.579-17.265-39.287-39.025-40.7M47,7.3h76.273a13.112,13.112,0,0,1,13.1,13.1v7.109H33.91V20.4A13.108,13.108,0,0,1,47,7.3M31.8,34.813h105.87a3.724,3.724,0,0,0,1.342.716L157.141,54.82H12.307ZM7.3,83.618V62.124H161.933V83.618a14.578,14.578,0,0,1-25.489-.73c-.013-.024-.029-.059-.045-.083a3.652,3.652,0,0,0-3.207-1.9h-.008a3.655,3.655,0,0,0-3.207,1.927l-.029.051a14.576,14.576,0,0,1-25.892,0l-.032-.061a3.653,3.653,0,0,0-3.207-1.916H100.8A3.646,3.646,0,0,0,97.6,82.81l-.037.072a14.578,14.578,0,0,1-25.895,0c-.035-.069-.075-.142-.115-.208A3.611,3.611,0,0,0,68.306,80.9a3.65,3.65,0,0,0-3.132,1.97,14.575,14.575,0,0,1-25.895,0,3.654,3.654,0,0,0-6.489.008A14.747,14.747,0,0,1,28.955,87.6a3.678,3.678,0,0,0-1.478,1.042,14.474,14.474,0,0,1-7.633,2.111A14.311,14.311,0,0,1,7.3,83.618m28.733,7.3a21.913,21.913,0,0,0,32.381,0,21.908,21.908,0,0,0,32.387,0,21.908,21.908,0,0,0,32.387,0,21.875,21.875,0,0,0,3.178,2.87V115.91c-20.945,2.2-37.309,19.547-37.309,40.551a39.734,39.734,0,0,0,4.447,18.281H33.91V92.953a22.555,22.555,0,0,0,2.127-2.039M47,213.375a13.106,13.106,0,0,1-13.093-13.1V182.047h74.426a41.332,41.332,0,0,0,3.057,3.322v28.006Zm116.055,26.592-20.33-11.947a3.651,3.651,0,0,0-3.7,0L118.7,239.967V191.026a42.563,42.563,0,0,0,44.36,0Zm1.825-59.465a3.65,3.65,0,0,0-1.12,1.01,35.212,35.212,0,0,1-45.766,0,3.632,3.632,0,0,0-1.117-1.008,32.925,32.925,0,0,1-10.517-24.037c0-18.468,15.485-33.493,34.517-33.493S175.4,138,175.4,156.467A32.919,32.919,0,0,1,164.88,180.5Z" transform="translate(0 0.001)" fill="#db0812"/><path d="M89.232,64.292H75.775L71.638,51.9a3.651,3.651,0,0,0-6.927,0l-4.137,12.39H47.12a3.652,3.652,0,0,0-2.109,6.633l10.8,7.636L51.7,90.874a3.651,3.651,0,0,0,5.57,4.137L68.177,87.3l10.9,7.71a3.652,3.652,0,0,0,5.572-4.137l-4.11-12.313,10.8-7.636a3.652,3.652,0,0,0-2.109-6.633ZM72.755,78.3l1.438,4.311L70.281,79.85a3.651,3.651,0,0,0-4.215,0l-3.915,2.763L63.594,78.3a3.655,3.655,0,0,0-1.36-4.14L58.6,71.6H63.2a3.657,3.657,0,0,0,3.466-2.5l1.5-4.511,1.51,4.511a3.651,3.651,0,0,0,3.461,2.5h4.594L74.1,74.162a3.66,3.66,0,0,0-1.35,4.14Z" transform="translate(72.703 82.638)" fill="#db0812"/></g></g></g></svg>