<svg xmlns="http://www.w3.org/2000/svg" xmlns:xlink="http://www.w3.org/1999/xlink" width="150" height="58.339" viewBox="0 0 150 58.339"><defs><clipPath id="a"><rect width="150" height="58.34" fill="none"/></clipPath></defs><g transform="translate(-510 -1858)"><g transform="translate(510 1858)"><rect width="150" height="58.34" fill="#db0812"/><g clip-path="url(#a)"><path d="M282.163,66.559q-.184.23-.476.537t-.6.633q-.311.327-.676.672a12.092,12.092,0,0,1-1.607,1.344,7.8,7.8,0,0,1-.877.575,3.991,3.991,0,0,1-.438.268l-.438.231a2.39,2.39,0,0,1-.438.192.545.545,0,0,1-.219.1.558.558,0,0,0-.219.1c-.073.025-.207.063-.4.114a.871.871,0,0,1-.4.115,1.261,1.261,0,0,1-.347.1c-.11.012-.226.032-.347.057a1.149,1.149,0,0,1-.292.038h-.457a.617.617,0,0,0,.2-.038.715.715,0,0,1,.237-.038.829.829,0,0,0,.311-.077,3.269,3.269,0,0,0,.657-.192,1.882,1.882,0,0,1,.2-.058,1.5,1.5,0,0,0,.2-.058.328.328,0,0,1,.183-.1.324.324,0,0,0,.183-.1,4.951,4.951,0,0,0,.84-.384c.146-.077.293-.159.439-.249s.292-.185.438-.288a5.444,5.444,0,0,0,.84-.575c.147-.1.286-.2.42-.307s.261-.2.384-.307a4.049,4.049,0,0,1,.42-.327,2.3,2.3,0,0,0,.383-.326q.365-.307.694-.615c.219-.2.426-.409.621-.614a6.324,6.324,0,0,0,.493-.5q.2-.23.384-.422l.328-.345a.434.434,0,0,0-.073.115.987.987,0,0,1-.091.153,1.343,1.343,0,0,1-.128.153c-.1.129-.207.269-.328.423m-11.233-1.938a4.711,4.711,0,0,0-.2.633,10.012,10.012,0,0,0-.274,1.305q-.091.653-.128,1.19a5.548,5.548,0,0,0,.037.806v.23a.114.114,0,0,0,.037.077.114.114,0,0,1-.037-.077.336.336,0,0,0-.018-.1.437.437,0,0,1-.019-.134,4.35,4.35,0,0,1-.073-.806v-.576a3.514,3.514,0,0,1,.073-.614c.025-.128.043-.243.055-.345a2.86,2.86,0,0,1,.054-.307c.025-.128.05-.243.073-.345a3.157,3.157,0,0,1,.11-.345q.183-.652.4-1.266c.1-.2.183-.4.255-.576s.146-.345.219-.5.14-.294.2-.422a2.729,2.729,0,0,1,.164-.308,1.168,1.168,0,0,0,.055-.134.238.238,0,0,1,.054-.1.113.113,0,0,0,.037-.077,1.522,1.522,0,0,1-.11.307l-.164.345a3.193,3.193,0,0,0-.164.422c-.05.153-.11.32-.183.5s-.147.371-.219.575-.152.416-.238.633m.676-4.433a3.524,3.524,0,0,0,.256-.384,3.555,3.555,0,0,1,.255-.383q.219-.384.421-.672t.384-.518a1.366,1.366,0,0,0,.127-.153.959.959,0,0,0,.091-.154.428.428,0,0,1,.073-.114.428.428,0,0,0-.073.114c-.024.052-.049.11-.073.173a.5.5,0,0,1-.11.173q-.146.27-.328.538a3.338,3.338,0,0,1-.183.326q-.11.173-.22.364a2.324,2.324,0,0,0-.237.364c-.109.192-.219.378-.328.557s-.2.333-.274.461-.1.153-.074.077Zm10.813-.537.11-.461c.024-.077.049-.153.073-.23a.681.681,0,0,0,.037-.192.721.721,0,0,0,.036-.211.4.4,0,0,1,.037-.172.692.692,0,0,1,.036-.269v.269a1.734,1.734,0,0,1-.036.384,1.137,1.137,0,0,1-.019.211,1.926,1.926,0,0,1-.054.211,1.444,1.444,0,0,0-.055.25,1.528,1.528,0,0,1-.054.249c-.049.154-.159.038-.11-.038m.365.173a6.087,6.087,0,0,0,.329-1.861,5.51,5.51,0,0,0-.329-1.824,6.441,6.441,0,0,0-.895-1.708,5.259,5.259,0,0,0-1.315-1.266,2.765,2.765,0,0,0-1.552-.5,3.885,3.885,0,0,0-2.046.729,13.183,13.183,0,0,0-2.3,1.939A24.46,24.46,0,0,0,272.39,58.1a25.649,25.649,0,0,0-1.972,3.224,21.58,21.58,0,0,0-1.388,3.34,10.268,10.268,0,0,0-.53,3.089,4.621,4.621,0,0,0,.511,1.9,9.872,9.872,0,0,0,1.315,2.073,8.564,8.564,0,0,0,1.827,1.669,3.64,3.64,0,0,0,2.046.691,7.917,7.917,0,0,0,3.178-.7,18.439,18.439,0,0,0,3.141-1.766,24.123,24.123,0,0,0,2.867-2.331,7.2,7.2,0,0,0,1.171-1.207c1.3-1.421-1.6-3.31-1.9-2.744a12.4,12.4,0,0,1-1.006,1.169,23.8,23.8,0,0,1-2.557,2.361,15.8,15.8,0,0,1-2.777,1.785,6.2,6.2,0,0,1-2.776.71q-1.17,0-1.516-.67a3.5,3.5,0,0,1-.347-1.628,9.848,9.848,0,0,1,.438-2.756,20.041,20.041,0,0,1,1.151-2.986,23.441,23.441,0,0,1,1.625-2.872,20.758,20.758,0,0,1,1.882-2.451,10.65,10.65,0,0,1,1.936-1.722,3.213,3.213,0,0,1,1.735-.652q.511,0,.548.288a3.916,3.916,0,0,1,.036.442,3.756,3.756,0,0,1-.383,1.535c-.255.563.758,1.978,2.137,1.938" transform="translate(-170.648 -33.472)" fill="#ffed00"/><path d="M318.1,46.625v0a2.5,2.5,0,0,1,.036-.46,2.983,2.983,0,0,1,.019-.327c.012-.115.03-.236.055-.364a2.17,2.17,0,0,0,.109-.4c.024-.14.061-.3.11-.48.048-.153.091-.313.128-.48s.079-.351.128-.556c.048-.178.1-.358.164-.537s.115-.37.165-.576q.183-.613.4-1.209t.438-1.247c.147-.409.3-.812.457-1.209s.311-.786.457-1.17.292-.748.438-1.094.28-.672.4-.979q.438-1,.657-1.458a.624.624,0,0,0,.091-.211.725.725,0,0,1,.055-.173l.073-.153a3.574,3.574,0,0,1-.219.576q-.11.27-.256.633t-.329.825q-.183.46-.384.979t-.42,1.094q-.438,1.151-.876,2.418-.22.614-.439,1.228t-.4,1.19q-.109.307-.2.575t-.164.537q-.074.308-.146.557c-.05.166-.1.325-.147.479a6.722,6.722,0,0,0-.219.883,1.493,1.493,0,0,0-.091.345,2.8,2.8,0,0,1-.055.307,2.5,2.5,0,0,0-.036.46m-.331-6.927q.2-.671.493-1.516.145-.422.292-.864t.328-.941q.183-.5.347-.978t.347-1.017q.4-1,.8-2.073t.84-2.188q.438-1.113.9-2.168t.9-2.054q.438-1,.859-1.9t.785-1.708q.364-.767.676-1.42t.53-1.113q.255-.538.438-.96-.184.46-.4,1-.184.461-.457,1.113t-.639,1.459q-.329.806-.73,1.727t-.841,1.919q-.438,1-.876,2.054t-.877,2.168q-.438,1.075-.858,2.149T319.8,34.5q-.184.537-.365,1.016t-.366.94q-.183.461-.328.9t-.329.863q-.293.845-.53,1.5t-.42,1.151q-.182.575-.365,1.036a.659.659,0,0,1,.073-.269,2.239,2.239,0,0,1,.11-.325,3.414,3.414,0,0,0,.146-.442q.147-.5.347-1.171m7.4-16.964c-.109.268-.226.544-.347.825q-.184.461-.384.921t-.42.922q-.4,1-.767,1.842-.184.422-.347.844a7.247,7.247,0,0,1-.347.768q-.146.384-.274.672t-.2.479c-.073.153-.134.294-.183.422a.3.3,0,0,1,.036-.115l.146-.307.164-.518q.091-.288.238-.672.145-.345.311-.768t.347-.844a19.8,19.8,0,0,1,.767-1.843q.183-.5.4-.96c.146-.307.28-.6.4-.883s.243-.556.366-.825.243-.531.365-.787c.1-.23.195-.441.292-.633s.171-.352.219-.48c.073-.154.134-.294.183-.423a3.665,3.665,0,0,1-.183.461l-.183.48c-.073.192-.159.4-.255.633q-.183.384-.347.787m1.206,17.386q-.53,1.094-1.151,2.245t-1.315,2.245a15.212,15.212,0,0,1-1.461,1.957,7.5,7.5,0,0,1-1.589,1.382,3.088,3.088,0,0,1-1.662.518q-.841,0-.841-.769a12.123,12.123,0,0,1,.457-2.92q.456-1.767,1.188-3.9t1.68-4.477q.95-2.344,1.918-4.63t1.918-4.4q.95-2.114,1.68-3.785t1.187-2.747a5.27,5.27,0,0,0,.457-1.345,1.831,1.831,0,0,0-.348-1.018,5.577,5.577,0,0,0-.767-.922,5.639,5.639,0,0,0-.8-.653,1.384,1.384,0,0,0-.493-.25q-.366,0-.366.46a10.516,10.516,0,0,1-.456,1.133q-.457,1.055-1.206,2.763t-1.7,3.915q-.951,2.208-1.955,4.625T318.8,34.42q-.946,2.457-1.686,4.683t-1.19,4.049a12.908,12.908,0,0,0-.451,2.936,3.942,3.942,0,0,0,.541,2.034,6.928,6.928,0,0,0,1.3,1.612,5.983,5.983,0,0,0,1.633,1.074,3.907,3.907,0,0,0,1.533.384,4.777,4.777,0,0,0,3.141-1.155,12.726,12.726,0,0,0,2.484-2.82,25.11,25.11,0,0,0,1.918-3.49q.822-1.823,1.443-3.128a.854.854,0,0,0-.128-.787,4.793,4.793,0,0,0-.694-.921,3.73,3.73,0,0,0-.822-.672q-.4-.23-.511-.038-.4.845-.932,1.938" transform="translate(-200.503 -10.582)" fill="#ffed00"/><path d="M248.017,100.132a.459.459,0,0,0,.13.353,6.383,6.383,0,0,1,.747.666,1.659,1.659,0,0,0,.858.471,2.135,2.135,0,0,0,1.212.039,2.9,2.9,0,0,0,1.138-.588,5.866,5.866,0,0,0,1.6-3.332,1.709,1.709,0,0,0-.317-.823,1.216,1.216,0,0,0-.616-.588,3.331,3.331,0,0,0-1.212-.157,10.524,10.524,0,0,0-1.213.157.493.493,0,0,1-.168.117.385.385,0,0,0-.168.157,17.98,17.98,0,0,1-1.492,1.686A2,2,0,0,0,248,99.661q0,.2.019.47" transform="translate(-157.618 -61.12)" fill="#ffed00"/><path d="M61.848,64.753q.081,3.407,1.764,4.988a7.006,7.006,0,0,0,4.968,1.581,14.9,14.9,0,0,0,5.475-1.014,6.1,6.1,0,0,1,.527,1.48,9.647,9.647,0,0,1,.243,1.723,13.54,13.54,0,0,1-2.94.851,20.414,20.414,0,0,1-3.549.284,13.391,13.391,0,0,1-4.866-.791A8.552,8.552,0,0,1,58.2,68.221,14.562,14.562,0,0,1,57.59,63.9a15.311,15.311,0,0,1,.588-4.319,9.722,9.722,0,0,1,1.8-3.487,8.732,8.732,0,0,1,3.062-2.352,10.124,10.124,0,0,1,4.359-.872,9.116,9.116,0,0,1,3.771.73,7.669,7.669,0,0,1,2.717,2.008,8.721,8.721,0,0,1,1.663,3.041,12.453,12.453,0,0,1,.567,3.832q0,.569-.04,1.2T76,64.753Zm10.3-3a7.66,7.66,0,0,0-.3-2.17,5.519,5.519,0,0,0-.892-1.8,4.352,4.352,0,0,0-1.5-1.237,4.721,4.721,0,0,0-2.17-.466,4.779,4.779,0,0,0-3.792,1.5,7.34,7.34,0,0,0-1.6,4.177Z" transform="translate(-36.602 -33.603)" fill="#fff"/><path d="M123.736,60.454a3.957,3.957,0,0,0-1.217-3.325,5.715,5.715,0,0,0-3.528-.933,15.007,15.007,0,0,0-2.656.223,20.223,20.223,0,0,0-2.413.588,6.314,6.314,0,0,1-.77-3.2,18.725,18.725,0,0,1,3.042-.69,22.125,22.125,0,0,1,3.2-.243q4.055,0,6.164,1.846t2.109,5.9V73.633q-1.42.325-3.447.669a24.705,24.705,0,0,1-4.136.344,16.21,16.21,0,0,1-3.589-.365,7.327,7.327,0,0,1-2.717-1.176,5.448,5.448,0,0,1-1.724-2.068A6.936,6.936,0,0,1,111.448,68a6.2,6.2,0,0,1,2.636-5.252,8.586,8.586,0,0,1,2.8-1.3,12.738,12.738,0,0,1,3.325-.426q1.3,0,2.129.061t1.4.141Zm0,3.934q-.608-.081-1.541-.163t-1.581-.081a6.6,6.6,0,0,0-3.832.933,3.246,3.246,0,0,0-1.318,2.839,3.486,3.486,0,0,0,.446,1.906,3.07,3.07,0,0,0,1.116,1.055,3.85,3.85,0,0,0,1.48.446,15.332,15.332,0,0,0,1.54.081,19.03,19.03,0,0,0,1.926-.1,11.54,11.54,0,0,0,1.764-.3Z" transform="translate(-70.832 -33.602)" fill="#fff"/><path d="M162.01,70.39a13.877,13.877,0,0,0,5.029.973,7.657,7.657,0,0,0,1.784-.2,4.734,4.734,0,0,0,1.481-.609,3.389,3.389,0,0,0,1.014-.993,2.354,2.354,0,0,0,.386-1.318,2.656,2.656,0,0,0-.3-1.338,2.85,2.85,0,0,0-.811-.893,5.4,5.4,0,0,0-1.176-.628q-.67-.263-1.44-.507l-1.419-.527a10.253,10.253,0,0,1-3.772-2.19,4.524,4.524,0,0,1-1.176-3.285,5.38,5.38,0,0,1,1.967-4.379,8.9,8.9,0,0,1,5.779-1.622,15.758,15.758,0,0,1,3.1.3,19.12,19.12,0,0,1,2.656.71,9.865,9.865,0,0,1-.3,1.622,9.346,9.346,0,0,1-.548,1.5,20.974,20.974,0,0,0-2.129-.628,11.094,11.094,0,0,0-2.656-.3,6.344,6.344,0,0,0-2.656.527,1.884,1.884,0,0,0-1.156,1.866,2.29,2.29,0,0,0,.284,1.176,2.652,2.652,0,0,0,.77.831,5.087,5.087,0,0,0,1.116.588q.628.243,1.358.487l1.784.608a13.366,13.366,0,0,1,1.845.77,5.444,5.444,0,0,1,1.5,1.116,5.182,5.182,0,0,1,1.014,1.622,6.7,6.7,0,0,1-.223,5.029,6.026,6.026,0,0,1-1.723,2.109,8.286,8.286,0,0,1-2.7,1.359,11.835,11.835,0,0,1-3.487.487,19.424,19.424,0,0,1-3.407-.263,17.4,17.4,0,0,1-2.717-.71,8.011,8.011,0,0,1,.345-1.643q.263-.831.588-1.643" transform="translate(-102.374 -33.603)" fill="#fff"/><path d="M211.95,74.839c-.217,0-.44.006-.669.02s-.453.02-.669.02q-.406,0-.852-.02t-.73-.061l-6.894-20.8a9.411,9.411,0,0,1,1.1-.1q.567-.02,1.055-.02.526,0,1.176.02a7.6,7.6,0,0,1,1.1.1l5.758,19.344,5.961-19.344a14.2,14.2,0,0,1,1.987-.122q.446,0,1.014.02a10.779,10.779,0,0,1,1.136.1l-8.07,25.021a19.058,19.058,0,0,1-1.176,2.8,6.615,6.615,0,0,1-1.379,1.824,4.485,4.485,0,0,1-1.723.973,7.77,7.77,0,0,1-2.21.284,12.012,12.012,0,0,1-1.845-.142,12.7,12.7,0,0,1-1.6-.345,7.165,7.165,0,0,1,.649-3.123c.243.081.574.169.994.264a6.172,6.172,0,0,0,1.358.142,4.686,4.686,0,0,0,.994-.1,2.23,2.23,0,0,0,.871-.406,3.053,3.053,0,0,0,.751-.872,7.809,7.809,0,0,0,.669-1.541Z" transform="translate(-128.47 -34.24)" fill="#fff"/></g></g></g></svg>