<?xml version="1.0" encoding="UTF-8"?><svg xmlns="http://www.w3.org/2000/svg" viewBox="0 0 238.33 238.33"><defs><style>.d{fill:#fff;}.e{fill:#db0812;}.f{fill:none;stroke:#ccc;stroke-miterlimit:10;}.g{fill:#ffed00;}</style></defs><g id="a"/><g id="b"><g id="c"><g><g><rect class="f" x=".5" y=".5" width="18.26" height="18.26"/><rect class="f" x="18.76" y=".5" width="18.26" height="18.26"/><rect class="f" x="37.01" y=".5" width="18.26" height="18.26"/><rect class="f" x="55.27" y=".5" width="18.26" height="18.26"/><rect class="f" x="73.53" y=".5" width="18.26" height="18.26"/><rect class="f" x="91.78" y=".5" width="18.26" height="18.26"/><rect class="f" x="110.04" y=".5" width="18.26" height="18.26"/><rect class="f" x="128.29" y=".5" width="18.26" height="18.26"/><rect class="f" x="146.55" y=".5" width="18.26" height="18.26"/><rect class="f" x="164.81" y=".5" width="18.26" height="18.26"/><rect class="f" x="183.06" y=".5" width="18.26" height="18.26"/><rect class="f" x="201.32" y=".5" width="18.26" height="18.26"/><rect class="f" x="219.58" y=".5" width="18.26" height="18.26"/><rect class="f" x=".5" y="18.76" width="18.26" height="18.26"/><rect class="f" x="18.76" y="18.76" width="18.26" height="18.26"/><rect class="f" x="37.01" y="18.76" width="18.26" height="18.26"/><rect class="f" x="55.27" y="18.76" width="18.26" height="18.26"/><rect class="f" x="73.53" y="18.76" width="18.26" height="18.26"/><rect class="f" x="91.78" y="18.76" width="18.26" height="18.26"/><rect class="f" x="110.04" y="18.76" width="18.26" height="18.26"/><rect class="f" x="128.29" y="18.76" width="18.26" height="18.26"/><rect class="f" x="146.55" y="18.76" width="18.26" height="18.26"/><rect class="f" x="164.81" y="18.76" width="18.26" height="18.26"/><rect class="f" x="183.06" y="18.76" width="18.26" height="18.26"/><rect class="f" x="201.32" y="18.76" width="18.26" height="18.26"/><rect class="f" x="219.58" y="18.76" width="18.26" height="18.26"/><rect class="f" x=".5" y="37.01" width="18.26" height="18.26"/><rect class="f" x="18.76" y="37.01" width="18.26" height="18.26"/><rect class="f" x="37.01" y="37.01" width="18.26" height="18.26"/><rect class="f" x="55.27" y="37.01" width="18.26" height="18.26"/><rect class="f" x="73.53" y="37.01" width="18.26" height="18.26"/><rect class="f" x="91.78" y="37.01" width="18.26" height="18.26"/><rect class="f" x="110.04" y="37.01" width="18.26" height="18.26"/><rect class="f" x="128.29" y="37.01" width="18.26" height="18.26"/><rect class="f" x="146.55" y="37.01" width="18.26" height="18.26"/><rect class="f" x="164.81" y="37.01" width="18.26" height="18.26"/><rect class="f" x="183.06" y="37.01" width="18.26" height="18.26"/><rect class="f" x="201.32" y="37.01" width="18.26" height="18.26"/><rect class="f" x="219.58" y="37.01" width="18.26" height="18.26"/><rect class="f" x=".5" y="55.27" width="18.26" height="18.26"/><rect class="f" x="18.76" y="55.27" width="18.26" height="18.26"/><rect class="f" x="37.01" y="55.27" width="18.26" height="18.26"/><rect class="f" x="55.27" y="55.27" width="18.26" height="18.26"/><rect class="f" x="73.53" y="55.27" width="18.26" height="18.26"/><rect class="f" x="91.78" y="55.27" width="18.26" height="18.26"/><rect class="f" x="110.04" y="55.27" width="18.26" height="18.26"/><rect class="f" x="128.29" y="55.27" width="18.26" height="18.26"/><rect class="f" x="146.55" y="55.27" width="18.26" height="18.26"/><rect class="f" x="164.81" y="55.27" width="18.26" height="18.26"/><rect class="f" x="183.06" y="55.27" width="18.26" height="18.26"/><rect class="f" x="201.32" y="55.27" width="18.26" height="18.26"/><rect class="f" x="219.58" y="55.27" width="18.26" height="18.26"/><rect class="f" x=".5" y="73.53" width="18.26" height="18.26"/><rect class="f" x="18.76" y="73.53" width="18.26" height="18.26"/><rect class="f" x="37.01" y="73.53" width="18.26" height="18.26"/><rect class="f" x="55.27" y="73.53" width="18.26" height="18.26"/><rect class="f" x="73.53" y="73.53" width="18.26" height="18.26"/><rect class="f" x="91.78" y="73.53" width="18.26" height="18.26"/><rect class="f" x="110.04" y="73.53" width="18.26" height="18.26"/><rect class="f" x="128.29" y="73.53" width="18.26" height="18.26"/><rect class="f" x="146.55" y="73.53" width="18.26" height="18.26"/><rect class="f" x="164.81" y="73.53" width="18.26" height="18.26"/><rect class="f" x="183.06" y="73.53" width="18.26" height="18.26"/><rect class="f" x="201.32" y="73.53" width="18.26" height="18.26"/><rect class="f" x="219.58" y="73.53" width="18.26" height="18.26"/><rect class="f" x=".5" y="91.78" width="18.26" height="18.26"/><rect class="f" x="18.76" y="91.78" width="18.26" height="18.26"/><rect class="f" x="37.01" y="91.78" width="18.26" height="18.26"/><rect class="f" x="55.27" y="91.78" width="18.26" height="18.26"/><rect class="f" x="73.53" y="91.78" width="18.26" height="18.26"/><rect class="f" x="91.78" y="91.78" width="18.26" height="18.26"/><rect class="f" x="110.04" y="91.78" width="18.26" height="18.26"/><rect class="f" x="128.29" y="91.78" width="18.26" height="18.26"/><rect class="f" x="146.55" y="91.78" width="18.26" height="18.26"/><rect class="f" x="164.81" y="91.78" width="18.26" height="18.26"/><rect class="f" x="183.06" y="91.78" width="18.26" height="18.26"/><rect class="f" x="201.32" y="91.78" width="18.26" height="18.26"/><rect class="f" x="219.58" y="91.78" width="18.26" height="18.26"/><rect class="f" x=".5" y="110.04" width="18.26" height="18.26"/><rect class="f" x="18.76" y="110.04" width="18.26" height="18.26"/><rect class="f" x="37.01" y="110.04" width="18.26" height="18.26"/><rect class="f" x="55.27" y="110.04" width="18.26" height="18.26"/><rect class="f" x="73.53" y="110.04" width="18.26" height="18.26"/><rect class="f" x="91.78" y="110.04" width="18.26" height="18.26"/><rect class="f" x="110.04" y="110.04" width="18.26" height="18.26"/><rect class="f" x="128.29" y="110.04" width="18.26" height="18.26"/><rect class="f" x="146.55" y="110.04" width="18.26" height="18.26"/><rect class="f" x="164.81" y="110.04" width="18.26" height="18.26"/><rect class="f" x="183.06" y="110.04" width="18.26" height="18.26"/><rect class="f" x="201.32" y="110.04" width="18.26" height="18.26"/><rect class="f" x="219.58" y="110.04" width="18.26" height="18.26"/><rect class="f" x=".5" y="128.29" width="18.26" height="18.26"/><rect class="f" x="18.76" y="128.29" width="18.26" height="18.26"/><rect class="f" x="37.01" y="128.29" width="18.26" height="18.26"/><rect class="f" x="55.27" y="128.29" width="18.26" height="18.26"/><rect class="f" x="73.53" y="128.29" width="18.26" height="18.26"/><rect class="f" x="91.78" y="128.29" width="18.26" height="18.26"/><rect class="f" x="110.04" y="128.29" width="18.26" height="18.26"/><rect class="f" x="128.29" y="128.29" width="18.26" height="18.26"/><rect class="f" x="146.55" y="128.29" width="18.26" height="18.26"/><rect class="f" x="164.81" y="128.29" width="18.26" height="18.26"/><rect class="f" x="183.06" y="128.29" width="18.26" height="18.26"/><rect class="f" x="201.32" y="128.29" width="18.26" height="18.26"/><rect class="f" x="219.58" y="128.29" width="18.26" height="18.26"/><rect class="f" x=".5" y="146.55" width="18.26" height="18.26"/><rect class="f" x="18.76" y="146.55" width="18.26" height="18.26"/><rect class="f" x="37.01" y="146.55" width="18.26" height="18.26"/><rect class="f" x="55.27" y="146.55" width="18.26" height="18.26"/><rect class="f" x="73.53" y="146.55" width="18.26" height="18.26"/><rect class="f" x="91.78" y="146.55" width="18.26" height="18.26"/><rect class="f" x="110.04" y="146.55" width="18.26" height="18.26"/><rect class="f" x="128.29" y="146.55" width="18.26" height="18.26"/><rect class="f" x="146.55" y="146.55" width="18.26" height="18.26"/><rect class="f" x="164.81" y="146.55" width="18.26" height="18.26"/><rect class="f" x="183.06" y="146.55" width="18.26" height="18.26"/><rect class="f" x="201.32" y="146.55" width="18.26" height="18.26"/><rect class="f" x="219.58" y="146.55" width="18.26" height="18.26"/><rect class="f" x=".5" y="164.81" width="18.26" height="18.26"/><rect class="f" x="18.76" y="164.81" width="18.26" height="18.26"/><rect class="f" x="37.01" y="164.81" width="18.26" height="18.26"/><rect class="f" x="55.27" y="164.81" width="18.26" height="18.26"/><rect class="f" x="73.53" y="164.81" width="18.26" height="18.26"/><rect class="f" x="91.78" y="164.81" width="18.26" height="18.26"/><rect class="f" x="110.04" y="164.81" width="18.26" height="18.26"/><rect class="f" x="128.29" y="164.81" width="18.26" height="18.26"/><rect class="f" x="146.55" y="164.81" width="18.26" height="18.26"/><rect class="f" x="164.81" y="164.81" width="18.26" height="18.26"/><rect class="f" x="183.06" y="164.81" width="18.26" height="18.26"/><rect class="f" x="201.32" y="164.81" width="18.26" height="18.26"/><rect class="f" x="219.58" y="164.81" width="18.26" height="18.26"/><rect class="f" x=".5" y="183.06" width="18.26" height="18.26"/><rect class="f" x="18.76" y="183.06" width="18.26" height="18.26"/><rect class="f" x="37.01" y="183.06" width="18.26" height="18.26"/><rect class="f" x="55.27" y="183.06" width="18.26" height="18.26"/><rect class="f" x="73.53" y="183.06" width="18.26" height="18.26"/><rect class="f" x="91.78" y="183.06" width="18.26" height="18.26"/><rect class="f" x="110.04" y="183.06" width="18.26" height="18.26"/><rect class="f" x="128.29" y="183.06" width="18.26" height="18.26"/><rect class="f" x="146.55" y="183.06" width="18.26" height="18.26"/><rect class="f" x="164.81" y="183.06" width="18.26" height="18.26"/><rect class="f" x="183.06" y="183.06" width="18.26" height="18.26"/><rect class="f" x="201.32" y="183.06" width="18.26" height="18.26"/><rect class="f" x="219.58" y="183.06" width="18.26" height="18.26"/><rect class="f" x=".5" y="201.32" width="18.26" height="18.26"/><rect class="f" x="18.76" y="201.32" width="18.26" height="18.26"/><rect class="f" x="37.01" y="201.32" width="18.26" height="18.26"/><rect class="f" x="55.27" y="201.32" width="18.26" height="18.26"/><rect class="f" x="73.53" y="201.32" width="18.26" height="18.26"/><rect class="f" x="91.78" y="201.32" width="18.26" height="18.26"/><rect class="f" x="110.04" y="201.32" width="18.26" height="18.26"/><rect class="f" x="128.29" y="201.32" width="18.26" height="18.26"/><rect class="f" x="146.55" y="201.32" width="18.26" height="18.26"/><rect class="f" x="164.81" y="201.32" width="18.26" height="18.26"/><rect class="f" x="183.06" y="201.32" width="18.26" height="18.26"/><rect class="f" x="201.32" y="201.32" width="18.26" height="18.26"/><rect class="f" x="219.58" y="201.32" width="18.26" height="18.26"/><rect class="f" x=".5" y="219.58" width="18.26" height="18.26"/><rect class="f" x="18.76" y="219.58" width="18.26" height="18.26"/><rect class="f" x="37.01" y="219.58" width="18.26" height="18.26"/><rect class="f" x="55.27" y="219.58" width="18.26" height="18.26"/><rect class="f" x="73.53" y="219.58" width="18.26" height="18.26"/><rect class="f" x="91.78" y="219.58" width="18.26" height="18.26"/><rect class="f" x="110.04" y="219.58" width="18.26" height="18.26"/><rect class="f" x="128.29" y="219.58" width="18.26" height="18.26"/><rect class="f" x="146.55" y="219.58" width="18.26" height="18.26"/><rect class="f" x="164.81" y="219.58" width="18.26" height="18.26"/><rect class="f" x="183.06" y="219.58" width="18.26" height="18.26"/><rect class="f" x="201.32" y="219.58" width="18.26" height="18.26"/><rect class="f" x="219.58" y="219.58" width="18.26" height="18.26"/></g><g><rect class="e" x="91.78" y="108.52" width="54.77" height="21.3"/><path class="g" d="M132.5,120.6c-.04,.06-.1,.12-.17,.2-.07,.08-.14,.15-.22,.23-.08,.08-.16,.16-.25,.25-.18,.18-.37,.34-.59,.49-.1,.07-.2,.14-.32,.21-.05,.04-.11,.07-.16,.1-.05,.03-.11,.06-.16,.08-.07,.04-.12,.06-.16,.07-.03,.02-.05,.03-.08,.03-.03,0-.05,.02-.08,.04-.03,0-.08,.02-.15,.04-.05,.03-.1,.04-.15,.04-.04,.02-.09,.03-.13,.04-.04,0-.08,.01-.13,.02-.04,0-.07,.01-.11,.01h-.17s.05,0,.07-.01c.03,0,.06-.01,.09-.01s.07,0,.11-.03c.06,0,.14-.03,.24-.07,.03,0,.05-.02,.07-.02,.02,0,.05-.01,.07-.02,.02-.02,.04-.03,.07-.03,.03,0,.05-.02,.07-.04,.11-.04,.21-.08,.31-.14,.05-.03,.11-.06,.16-.09,.05-.03,.11-.07,.16-.11,.12-.07,.22-.14,.31-.21,.05-.04,.1-.07,.15-.11,.05-.04,.1-.07,.14-.11,.05-.05,.1-.09,.15-.12,.05-.03,.1-.07,.14-.12,.09-.07,.17-.15,.25-.22,.08-.07,.16-.15,.23-.22,.07-.07,.13-.13,.18-.18,.05-.06,.1-.11,.14-.15l.12-.13s-.02,.02-.03,.04c0,.02-.02,.04-.03,.06-.01,.02-.03,.04-.05,.06-.04,.05-.08,.1-.12,.15m-4.1-.71c-.03,.08-.06,.16-.07,.23-.04,.16-.08,.32-.1,.48-.02,.16-.04,.3-.05,.43,0,.15,0,.25,.01,.29v.08s0,.02,.01,.03c0,0-.01-.02-.01-.03s0-.02,0-.03c0-.01,0-.03,0-.05-.02-.09-.03-.19-.03-.29v-.21c0-.06,0-.13,.03-.22,0-.05,.02-.09,.02-.13,0-.04,.01-.07,.02-.11,0-.05,.02-.09,.03-.13,0-.04,.02-.08,.04-.13,.04-.16,.09-.31,.15-.46,.04-.07,.07-.14,.09-.21,.03-.07,.05-.13,.08-.18,.03-.06,.05-.11,.07-.15,.02-.05,.04-.08,.06-.11,0-.02,.02-.04,.02-.05,0-.01,.01-.03,.02-.03,0,0,.01-.02,.01-.03,0,.04-.02,.08-.04,.11l-.06,.13s-.04,.1-.06,.15c-.02,.06-.04,.12-.07,.18-.03,.07-.05,.14-.08,.21-.03,.07-.06,.15-.09,.23m.25-1.62s.07-.09,.09-.14c.03-.05,.06-.09,.09-.14,.05-.09,.1-.18,.15-.25,.05-.07,.1-.13,.14-.19,.02-.02,.03-.04,.05-.06,.01-.02,.02-.04,.03-.06,0-.02,.02-.03,.03-.04,0,0-.02,.02-.03,.04,0,.02-.02,.04-.03,.06,0,.02-.02,.04-.04,.06-.04,.07-.08,.13-.12,.2-.02,.04-.04,.08-.07,.12-.03,.04-.05,.09-.08,.13-.02,.02-.05,.06-.09,.13-.04,.07-.08,.14-.12,.2-.04,.07-.07,.12-.1,.17-.03,.05-.04,.06-.03,.03l.11-.28Zm3.95-.2l.04-.17,.03-.08s.01-.05,.01-.07c0-.03,.01-.05,.01-.08s0-.04,.01-.06c0-.05,0-.08,.01-.1v.1c0,.06,0,.1-.01,.14,0,.03,0,.05,0,.08,0,.02-.01,.05-.02,.08,0,.03-.02,.06-.02,.09,0,.03-.01,.06-.02,.09-.02,.06-.06,.01-.04-.01m.13,.06c.08-.25,.12-.47,.12-.68s-.04-.44-.12-.67c-.08-.23-.19-.44-.33-.62-.14-.19-.3-.34-.48-.46-.18-.12-.37-.18-.57-.18-.22,0-.47,.09-.75,.27-.28,.18-.56,.41-.84,.71-.28,.29-.56,.63-.83,1.01-.27,.38-.51,.77-.72,1.18-.21,.41-.38,.81-.51,1.22-.13,.41-.19,.78-.19,1.13,0,.2,.06,.43,.19,.69,.12,.27,.28,.52,.48,.76,.2,.24,.42,.44,.67,.61,.25,.17,.5,.25,.75,.25,.38,0,.77-.09,1.16-.26,.39-.17,.77-.39,1.15-.64,.37-.26,.72-.54,1.05-.85,.32-.31,.19-.15,.43-.44,.47-.52-.59-1.21-.69-1-.23,.28-.07,.11-.37,.43-.29,.31-.6,.6-.93,.86-.33,.26-.67,.48-1.01,.65-.35,.17-.68,.26-1.01,.26-.28,0-.47-.08-.55-.24-.08-.16-.13-.36-.13-.59,0-.31,.05-.64,.16-1.01,.11-.36,.25-.73,.42-1.09,.17-.36,.37-.71,.59-1.05,.22-.34,.45-.63,.69-.89,.24-.26,.47-.47,.71-.63,.24-.16,.45-.24,.63-.24,.12,0,.19,.04,.2,.11,0,.07,.01,.12,.01,.16,0,.17-.05,.36-.14,.56-.09,.21,.28,.72,.78,.71"/><path class="g" d="M134.72,121.68v0c0-.07,0-.12,.01-.17,0-.04,0-.08,0-.12,0-.04,.01-.09,.02-.13,.02-.05,.03-.1,.04-.15,0-.05,.02-.11,.04-.18,.02-.06,.03-.11,.05-.18,.01-.06,.03-.13,.05-.2,.02-.07,.04-.13,.06-.2,.02-.07,.04-.14,.06-.21,.04-.15,.09-.3,.15-.44,.05-.14,.11-.3,.16-.46,.05-.15,.11-.3,.17-.44,.06-.14,.11-.29,.17-.43s.11-.27,.16-.4c.05-.13,.1-.25,.15-.36,.11-.24,.19-.42,.24-.53,.02-.03,.03-.05,.03-.08,0-.02,.01-.04,.02-.06l.03-.06c-.02,.07-.04,.14-.08,.21-.03,.07-.06,.14-.09,.23-.04,.09-.08,.19-.12,.3-.04,.11-.09,.23-.14,.36-.05,.13-.1,.26-.15,.4-.11,.28-.21,.57-.32,.88-.05,.15-.11,.3-.16,.45-.05,.15-.1,.29-.15,.43-.03,.07-.05,.14-.07,.21-.02,.07-.04,.13-.06,.2-.02,.07-.04,.14-.05,.2-.02,.06-.04,.12-.05,.17-.04,.11-.06,.22-.08,.32-.02,.05-.03,.09-.03,.13,0,.04-.01,.08-.02,.11,0,.05-.01,.1-.01,.17m-.12-2.53c.05-.16,.11-.35,.18-.55,.04-.1,.07-.21,.11-.32,.04-.11,.08-.22,.12-.34,.04-.12,.09-.24,.13-.36,.04-.12,.08-.24,.13-.37,.1-.24,.2-.5,.29-.76,.1-.26,.2-.53,.31-.8,.11-.27,.22-.53,.33-.79,.11-.26,.22-.51,.33-.75,.11-.24,.21-.47,.31-.69,.1-.22,.2-.43,.29-.62,.09-.19,.17-.36,.25-.52,.08-.16,.14-.29,.19-.41,.06-.13,.12-.25,.16-.35-.04,.11-.09,.23-.15,.36-.04,.11-.1,.25-.17,.41-.07,.16-.14,.34-.23,.53-.08,.2-.17,.41-.27,.63-.1,.22-.2,.46-.31,.7-.11,.24-.21,.49-.32,.75-.11,.26-.21,.52-.32,.79-.11,.26-.21,.52-.31,.78-.1,.26-.2,.52-.3,.77-.04,.13-.09,.25-.13,.37-.04,.12-.09,.23-.13,.34-.04,.11-.08,.22-.12,.33-.04,.11-.08,.21-.12,.32-.07,.21-.14,.39-.19,.55-.06,.16-.11,.3-.15,.42-.04,.14-.09,.27-.13,.38,0-.03,0-.06,.03-.1,0-.04,.02-.08,.04-.12,.02-.04,.04-.1,.05-.16,.04-.12,.08-.26,.13-.43m2.7-6.19c-.04,.1-.08,.2-.13,.3-.04,.11-.09,.22-.14,.34-.05,.11-.1,.22-.15,.34-.1,.24-.19,.47-.28,.67-.04,.1-.09,.21-.13,.31s-.08,.2-.13,.28c-.04,.09-.07,.18-.1,.25-.03,.07-.06,.13-.07,.17-.03,.06-.05,.11-.07,.15,0,0,0-.02,.01-.04l.05-.11,.06-.19c.02-.07,.05-.15,.09-.25,.04-.08,.07-.18,.11-.28,.04-.1,.08-.21,.13-.31,.08-.22,.17-.45,.28-.67,.04-.12,.09-.24,.15-.35,.05-.11,.1-.22,.15-.32,.04-.1,.09-.2,.13-.3,.04-.1,.09-.19,.13-.29,.04-.08,.07-.16,.11-.23,.04-.07,.06-.13,.08-.18,.03-.06,.05-.11,.07-.15-.02,.06-.04,.11-.07,.17l-.07,.18c-.03,.07-.06,.15-.09,.23-.04,.09-.09,.19-.13,.29m.44,6.35c-.13,.27-.27,.54-.42,.82-.15,.28-.31,.55-.48,.82-.17,.27-.35,.5-.53,.71-.19,.21-.38,.38-.58,.5-.2,.13-.4,.19-.61,.19s-.31-.09-.31-.28c0-.28,.06-.64,.17-1.07,.11-.43,.26-.9,.43-1.42,.18-.52,.38-1.06,.61-1.63,.23-.57,.46-1.13,.7-1.69,.24-.56,.47-1.09,.7-1.61,.23-.51,.44-.98,.61-1.38,.18-.41,.32-.74,.43-1,.11-.26,.17-.43,.17-.49,0-.12-.04-.25-.13-.37-.08-.13-.18-.24-.28-.34-.1-.1-.2-.18-.29-.24-.09-.06-.15-.09-.18-.09-.09,0-.13,.06-.13,.17,0,.02-.06,.16-.17,.41-.11,.26-.26,.59-.44,1.01-.18,.42-.39,.89-.62,1.43-.23,.54-.47,1.1-.71,1.69-.24,.59-.48,1.18-.71,1.78-.23,.6-.44,1.17-.62,1.71-.18,.54-.32,1.03-.43,1.48-.11,.44-.16,.8-.16,1.07s.07,.52,.2,.74c.13,.22,.29,.42,.47,.59,.18,.17,.38,.3,.6,.39,.21,.09,.4,.14,.56,.14,.43,0,.81-.14,1.15-.42,.34-.28,.64-.62,.91-1.03,.27-.41,.5-.83,.7-1.27,.2-.44,.38-.82,.53-1.14,.04-.07,.02-.17-.05-.29-.07-.12-.15-.23-.25-.34-.1-.11-.2-.19-.3-.25-.1-.06-.16-.06-.19-.01-.1,.21-.21,.44-.34,.71"/><path class="g" d="M124.79,122.76c0,.07,.02,.11,.05,.13,.1,.08,.19,.16,.27,.24,.08,.09,.19,.14,.31,.17,.15,.05,.29,.05,.44,.01,.15-.04,.29-.11,.42-.21,.34-.36,.53-.77,.59-1.22,0-.08-.04-.18-.12-.3-.08-.12-.15-.2-.22-.21-.15-.05-.3-.07-.44-.06-.14,0-.29,.03-.44,.06-.02,.02-.04,.03-.06,.04-.02,0-.04,.03-.06,.06-.15,.2-.34,.41-.54,.62-.13,.14-.19,.31-.19,.5,0,.05,0,.1,0,.17"/><path class="d" d="M101,119.89c.02,.83,.23,1.44,.64,1.82,.41,.38,1.01,.58,1.81,.58,.7,0,1.37-.12,2-.37,.08,.15,.14,.33,.19,.54,.05,.21,.08,.42,.09,.63-.33,.14-.68,.24-1.07,.31-.39,.07-.82,.1-1.3,.1-.69,0-1.28-.1-1.78-.29-.49-.19-.9-.46-1.22-.81-.32-.35-.56-.76-.7-1.24-.15-.48-.22-1-.22-1.58s.07-1.09,.21-1.58c.14-.49,.36-.91,.66-1.27,.3-.36,.67-.65,1.12-.86,.45-.21,.98-.32,1.59-.32,.52,0,.98,.09,1.38,.27,.39,.18,.73,.42,.99,.73,.27,.31,.47,.68,.61,1.11,.14,.43,.21,.9,.21,1.4,0,.14,0,.28-.01,.44,0,.15-.02,.28-.03,.39h-5.17Zm3.76-1.1c0-.28-.04-.54-.11-.79-.07-.25-.18-.47-.33-.66-.14-.19-.33-.34-.55-.45-.22-.11-.49-.17-.79-.17-.6,0-1.06,.18-1.38,.55-.32,.37-.52,.87-.58,1.53h3.75Z"/><path class="d" d="M111.1,118.32c0-.58-.15-.99-.44-1.21-.3-.23-.73-.34-1.29-.34-.35,0-.67,.03-.97,.08-.3,.05-.59,.13-.88,.21-.19-.33-.28-.72-.28-1.17,.34-.11,.71-.19,1.11-.25,.4-.06,.79-.09,1.17-.09,.99,0,1.74,.22,2.25,.67,.51,.45,.77,1.17,.77,2.15v4.75c-.35,.08-.77,.16-1.26,.24-.49,.08-1,.13-1.51,.13-.48,0-.92-.04-1.31-.13-.39-.09-.72-.23-.99-.43-.27-.2-.48-.45-.63-.76-.15-.31-.22-.68-.22-1.11s.09-.8,.26-1.12c.17-.32,.41-.59,.7-.8,.3-.21,.64-.37,1.02-.47,.38-.1,.79-.16,1.21-.16,.32,0,.58,0,.78,.02,.2,.01,.37,.03,.51,.05v-.28Zm0,1.44c-.15-.02-.34-.04-.56-.06-.23-.02-.42-.03-.58-.03-.61,0-1.08,.11-1.4,.34-.32,.23-.48,.57-.48,1.04,0,.3,.05,.53,.16,.7,.11,.17,.24,.3,.41,.39,.16,.09,.34,.14,.54,.16,.2,.02,.38,.03,.56,.03,.23,0,.46-.01,.7-.04,.24-.02,.46-.06,.64-.11v-2.41Z"/><path class="d" d="M113.56,121.95c.27,.11,.56,.19,.88,.26,.32,.06,.64,.1,.96,.1,.23,0,.44-.02,.65-.07,.21-.05,.39-.12,.54-.22,.15-.1,.28-.22,.37-.36,.09-.14,.14-.3,.14-.48,0-.2-.04-.36-.11-.49-.07-.13-.17-.24-.3-.33-.12-.09-.27-.17-.43-.23-.16-.06-.34-.13-.53-.19l-.52-.19c-.63-.24-1.09-.5-1.38-.8-.29-.3-.43-.7-.43-1.2,0-.67,.24-1.2,.72-1.6,.48-.39,1.18-.59,2.11-.59,.38,0,.76,.04,1.13,.11,.37,.07,.69,.16,.97,.26-.02,.2-.06,.39-.11,.59-.05,.2-.12,.38-.2,.55-.22-.08-.48-.16-.78-.23-.3-.07-.62-.11-.97-.11-.37,0-.69,.06-.97,.19-.28,.13-.42,.36-.42,.68,0,.17,.03,.31,.1,.43,.07,.12,.16,.22,.28,.3,.12,.08,.25,.16,.41,.21,.15,.06,.32,.12,.5,.18l.65,.22c.24,.08,.46,.17,.67,.28,.21,.11,.39,.24,.55,.41,.15,.16,.28,.36,.37,.59,.09,.23,.14,.51,.14,.84,0,.37-.07,.7-.22,1-.15,.3-.36,.56-.63,.77-.27,.21-.6,.38-.98,.5-.38,.12-.81,.18-1.27,.18s-.89-.03-1.24-.1c-.36-.06-.69-.15-.99-.26,.02-.2,.06-.4,.13-.6,.06-.2,.14-.4,.21-.6"/><path class="d" d="M122.26,123.34c-.08,0-.16,0-.24,0-.08,0-.17,0-.24,0-.1,0-.2,0-.31,0-.11,0-.2-.01-.27-.02l-2.52-7.6c.13-.02,.26-.03,.4-.04,.14,0,.27,0,.39,0,.13,0,.27,0,.43,0,.16,0,.29,.02,.4,.04l2.1,7.06,2.18-7.06c.21-.03,.45-.04,.73-.04,.11,0,.23,0,.37,0,.14,0,.28,.02,.41,.04l-2.95,9.14c-.14,.4-.28,.75-.43,1.02-.15,.28-.32,.5-.5,.67-.19,.17-.4,.29-.63,.36-.23,.07-.5,.1-.81,.1-.23,0-.45-.02-.67-.05-.22-.03-.42-.08-.58-.13,0-.23,.02-.43,.06-.61,.04-.18,.1-.36,.18-.53,.09,.03,.21,.06,.36,.1,.15,.03,.32,.05,.5,.05,.13,0,.25-.01,.36-.04,.11-.02,.22-.07,.32-.15,.1-.07,.19-.18,.27-.32,.08-.14,.17-.33,.24-.56l.46-1.44Z"/></g></g></g></g></svg>