<?xml version="1.0" encoding="UTF-8"?><svg xmlns="http://www.w3.org/2000/svg" viewBox="0 0 238.33 238.33"><defs><style>.d{fill:#fff;}.e{fill:#db0812;}.f{fill:none;stroke:#ccc;stroke-miterlimit:10;}.g{fill:#ffed00;}</style></defs><g id="a"/><g id="b"><g id="c"><g><g><rect class="f" x=".5" y=".5" width="18.26" height="18.26"/><rect class="f" x="18.76" y=".5" width="18.26" height="18.26"/><rect class="f" x="37.01" y=".5" width="18.26" height="18.26"/><rect class="f" x="55.27" y=".5" width="18.26" height="18.26"/><rect class="f" x="73.53" y=".5" width="18.26" height="18.26"/><rect class="f" x="91.78" y=".5" width="18.26" height="18.26"/><rect class="f" x="110.04" y=".5" width="18.26" height="18.26"/><rect class="f" x="128.29" y=".5" width="18.26" height="18.26"/><rect class="f" x="146.55" y=".5" width="18.26" height="18.26"/><rect class="f" x="164.81" y=".5" width="18.26" height="18.26"/><rect class="f" x="183.06" y=".5" width="18.26" height="18.26"/><rect class="f" x="201.32" y=".5" width="18.26" height="18.26"/><rect class="f" x="219.58" y=".5" width="18.26" height="18.26"/><rect class="f" x=".5" y="18.76" width="18.26" height="18.26"/><rect class="f" x="18.76" y="18.76" width="18.26" height="18.26"/><rect class="f" x="37.01" y="18.76" width="18.26" height="18.26"/><rect class="f" x="55.27" y="18.76" width="18.26" height="18.26"/><rect class="f" x="73.53" y="18.76" width="18.26" height="18.26"/><rect class="f" x="91.78" y="18.76" width="18.26" height="18.26"/><rect class="f" x="110.04" y="18.76" width="18.26" height="18.26"/><rect class="f" x="128.29" y="18.76" width="18.26" height="18.26"/><rect class="f" x="146.55" y="18.76" width="18.26" height="18.26"/><rect class="f" x="164.81" y="18.76" width="18.26" height="18.26"/><rect class="f" x="183.06" y="18.76" width="18.26" height="18.26"/><rect class="f" x="201.32" y="18.76" width="18.26" height="18.26"/><rect class="f" x="219.58" y="18.76" width="18.26" height="18.26"/><rect class="f" x=".5" y="37.01" width="18.26" height="18.26"/><rect class="f" x="18.76" y="37.01" width="18.26" height="18.26"/><rect class="f" x="37.01" y="37.01" width="18.26" height="18.26"/><rect class="f" x="55.27" y="37.01" width="18.26" height="18.26"/><rect class="f" x="73.53" y="37.01" width="18.26" height="18.26"/><rect class="f" x="91.78" y="37.01" width="18.26" height="18.26"/><rect class="f" x="110.04" y="37.01" width="18.26" height="18.26"/><rect class="f" x="128.29" y="37.01" width="18.26" height="18.26"/><rect class="f" x="146.55" y="37.01" width="18.26" height="18.26"/><rect class="f" x="164.81" y="37.01" width="18.26" height="18.26"/><rect class="f" x="183.06" y="37.01" width="18.26" height="18.26"/><rect class="f" x="201.32" y="37.01" width="18.26" height="18.26"/><rect class="f" x="219.58" y="37.01" width="18.26" height="18.26"/><rect class="f" x=".5" y="55.27" width="18.26" height="18.26"/><rect class="f" x="18.76" y="55.27" width="18.26" height="18.26"/><rect class="f" x="37.01" y="55.27" width="18.26" height="18.26"/><rect class="f" x="55.27" y="55.27" width="18.26" height="18.26"/><rect class="f" x="73.53" y="55.27" width="18.26" height="18.26"/><rect class="f" x="91.78" y="55.27" width="18.26" height="18.26"/><rect class="f" x="110.04" y="55.27" width="18.26" height="18.26"/><rect class="f" x="128.29" y="55.27" width="18.26" height="18.26"/><rect class="f" x="146.55" y="55.27" width="18.26" height="18.26"/><rect class="f" x="164.81" y="55.27" width="18.26" height="18.26"/><rect class="f" x="183.06" y="55.27" width="18.26" height="18.26"/><rect class="f" x="201.32" y="55.27" width="18.26" height="18.26"/><rect class="f" x="219.58" y="55.27" width="18.26" height="18.26"/><rect class="f" x=".5" y="73.53" width="18.26" height="18.26"/><rect class="f" x="18.76" y="73.53" width="18.26" height="18.26"/><rect class="f" x="37.01" y="73.53" width="18.26" height="18.26"/><rect class="f" x="55.27" y="73.53" width="18.26" height="18.26"/><rect class="f" x="73.53" y="73.53" width="18.26" height="18.26"/><rect class="f" x="91.78" y="73.53" width="18.26" height="18.26"/><rect class="f" x="110.04" y="73.53" width="18.26" height="18.26"/><rect class="f" x="128.29" y="73.53" width="18.26" height="18.26"/><rect class="f" x="146.55" y="73.53" width="18.26" height="18.26"/><rect class="f" x="164.81" y="73.53" width="18.26" height="18.26"/><rect class="f" x="183.06" y="73.53" width="18.26" height="18.26"/><rect class="f" x="201.32" y="73.53" width="18.26" height="18.26"/><rect class="f" x="219.58" y="73.53" width="18.26" height="18.26"/><rect class="f" x=".5" y="91.78" width="18.26" height="18.26"/><rect class="f" x="18.76" y="91.78" width="18.26" height="18.26"/><rect class="f" x="37.01" y="91.78" width="18.26" height="18.26"/><rect class="f" x="55.27" y="91.78" width="18.26" height="18.26"/><rect class="f" x="73.53" y="91.78" width="18.26" height="18.26"/><rect class="f" x="91.78" y="91.78" width="18.26" height="18.26"/><rect class="f" x="110.04" y="91.78" width="18.26" height="18.26"/><rect class="f" x="128.29" y="91.78" width="18.26" height="18.26"/><rect class="f" x="146.55" y="91.78" width="18.26" height="18.26"/><rect class="f" x="164.81" y="91.78" width="18.26" height="18.26"/><rect class="f" x="183.06" y="91.78" width="18.26" height="18.26"/><rect class="f" x="201.32" y="91.78" width="18.26" height="18.26"/><rect class="f" x="219.58" y="91.78" width="18.26" height="18.26"/><rect class="f" x=".5" y="110.04" width="18.26" height="18.26"/><rect class="f" x="18.76" y="110.04" width="18.26" height="18.26"/><rect class="f" x="37.01" y="110.04" width="18.26" height="18.26"/><rect class="f" x="55.27" y="110.04" width="18.26" height="18.26"/><rect class="f" x="73.53" y="110.04" width="18.26" height="18.26"/><rect class="f" x="91.78" y="110.04" width="18.26" height="18.26"/><rect class="f" x="110.04" y="110.04" width="18.26" height="18.26"/><rect class="f" x="128.29" y="110.04" width="18.26" height="18.26"/><rect class="f" x="146.55" y="110.04" width="18.26" height="18.26"/><rect class="f" x="164.81" y="110.04" width="18.26" height="18.26"/><rect class="f" x="183.06" y="110.04" width="18.26" height="18.26"/><rect class="f" x="201.32" y="110.04" width="18.26" height="18.26"/><rect class="f" x="219.58" y="110.04" width="18.26" height="18.26"/><rect class="f" x=".5" y="128.29" width="18.26" height="18.26"/><rect class="f" x="18.76" y="128.29" width="18.26" height="18.26"/><rect class="f" x="37.01" y="128.29" width="18.26" height="18.26"/><rect class="f" x="55.27" y="128.29" width="18.26" height="18.26"/><rect class="f" x="73.53" y="128.29" width="18.26" height="18.26"/><rect class="f" x="91.78" y="128.29" width="18.26" height="18.26"/><rect class="f" x="110.04" y="128.29" width="18.26" height="18.26"/><rect class="f" x="128.29" y="128.29" width="18.26" height="18.26"/><rect class="f" x="146.55" y="128.29" width="18.26" height="18.26"/><rect class="f" x="164.81" y="128.29" width="18.26" height="18.26"/><rect class="f" x="183.06" y="128.29" width="18.26" height="18.26"/><rect class="f" x="201.32" y="128.29" width="18.26" height="18.26"/><rect class="f" x="219.58" y="128.29" width="18.26" height="18.26"/><rect class="f" x=".5" y="146.55" width="18.26" height="18.26"/><rect class="f" x="18.76" y="146.55" width="18.26" height="18.26"/><rect class="f" x="37.01" y="146.55" width="18.26" height="18.26"/><rect class="f" x="55.27" y="146.55" width="18.26" height="18.26"/><rect class="f" x="73.53" y="146.55" width="18.26" height="18.26"/><rect class="f" x="91.78" y="146.55" width="18.26" height="18.26"/><rect class="f" x="110.04" y="146.55" width="18.26" height="18.26"/><rect class="f" x="128.29" y="146.55" width="18.26" height="18.26"/><rect class="f" x="146.55" y="146.55" width="18.26" height="18.26"/><rect class="f" x="164.81" y="146.55" width="18.26" height="18.26"/><rect class="f" x="183.06" y="146.55" width="18.26" height="18.26"/><rect class="f" x="201.32" y="146.55" width="18.26" height="18.26"/><rect class="f" x="219.58" y="146.55" width="18.26" height="18.26"/><rect class="f" x=".5" y="164.81" width="18.26" height="18.26"/><rect class="f" x="18.76" y="164.81" width="18.26" height="18.26"/><rect class="f" x="37.01" y="164.81" width="18.26" height="18.26"/><rect class="f" x="55.27" y="164.81" width="18.26" height="18.26"/><rect class="f" x="73.53" y="164.81" width="18.26" height="18.26"/><rect class="f" x="91.78" y="164.81" width="18.26" height="18.26"/><rect class="f" x="110.04" y="164.81" width="18.26" height="18.26"/><rect class="f" x="128.29" y="164.81" width="18.26" height="18.26"/><rect class="f" x="146.55" y="164.81" width="18.26" height="18.26"/><rect class="f" x="164.81" y="164.81" width="18.26" height="18.26"/><rect class="f" x="183.06" y="164.81" width="18.26" height="18.26"/><rect class="f" x="201.32" y="164.81" width="18.26" height="18.26"/><rect class="f" x="219.58" y="164.81" width="18.26" height="18.26"/><rect class="f" x=".5" y="183.06" width="18.26" height="18.26"/><rect class="f" x="18.76" y="183.06" width="18.26" height="18.26"/><rect class="f" x="37.01" y="183.06" width="18.26" height="18.26"/><rect class="f" x="55.27" y="183.06" width="18.26" height="18.26"/><rect class="f" x="73.53" y="183.06" width="18.26" height="18.26"/><rect class="f" x="91.78" y="183.06" width="18.26" height="18.26"/><rect class="f" x="110.04" y="183.06" width="18.26" height="18.26"/><rect class="f" x="128.29" y="183.06" width="18.26" height="18.26"/><rect class="f" x="146.55" y="183.06" width="18.26" height="18.26"/><rect class="f" x="164.81" y="183.06" width="18.26" height="18.26"/><rect class="f" x="183.06" y="183.06" width="18.26" height="18.26"/><rect class="f" x="201.32" y="183.06" width="18.26" height="18.26"/><rect class="f" x="219.58" y="183.06" width="18.26" height="18.26"/><rect class="f" x=".5" y="201.32" width="18.26" height="18.26"/><rect class="f" x="18.76" y="201.32" width="18.26" height="18.26"/><rect class="f" x="37.01" y="201.32" width="18.26" height="18.26"/><rect class="f" x="55.27" y="201.32" width="18.26" height="18.26"/><rect class="f" x="73.53" y="201.32" width="18.26" height="18.26"/><rect class="f" x="91.78" y="201.32" width="18.26" height="18.26"/><rect class="f" x="110.04" y="201.32" width="18.26" height="18.26"/><rect class="f" x="128.29" y="201.32" width="18.26" height="18.26"/><rect class="f" x="146.55" y="201.32" width="18.26" height="18.26"/><rect class="f" x="164.81" y="201.32" width="18.26" height="18.26"/><rect class="f" x="183.06" y="201.32" width="18.26" height="18.26"/><rect class="f" x="201.32" y="201.32" width="18.26" height="18.26"/><rect class="f" x="219.58" y="201.32" width="18.26" height="18.26"/><rect class="f" x=".5" y="219.58" width="18.26" height="18.26"/><rect class="f" x="18.76" y="219.58" width="18.26" height="18.26"/><rect class="f" x="37.01" y="219.58" width="18.26" height="18.26"/><rect class="f" x="55.27" y="219.58" width="18.26" height="18.26"/><rect class="f" x="73.53" y="219.58" width="18.26" height="18.26"/><rect class="f" x="91.78" y="219.58" width="18.26" height="18.26"/><rect class="f" x="110.04" y="219.58" width="18.26" height="18.26"/><rect class="f" x="128.29" y="219.58" width="18.26" height="18.26"/><rect class="f" x="146.55" y="219.58" width="18.26" height="18.26"/><rect class="f" x="164.81" y="219.58" width="18.26" height="18.26"/><rect class="f" x="183.06" y="219.58" width="18.26" height="18.26"/><rect class="f" x="201.32" y="219.58" width="18.26" height="18.26"/><rect class="f" x="219.58" y="219.58" width="18.26" height="18.26"/></g><g><rect class="e" x="55.27" y="94.32" width="127.79" height="49.7"/><path class="g" d="M150.28,122.5c-.1,.13-.24,.28-.41,.46-.17,.18-.34,.35-.51,.54-.18,.19-.37,.38-.58,.57-.42,.41-.87,.8-1.37,1.14-.23,.17-.48,.34-.75,.49-.12,.09-.25,.16-.37,.23-.12,.07-.25,.13-.37,.2-.17,.09-.29,.14-.37,.16-.06,.04-.12,.07-.19,.08-.06,.01-.12,.04-.19,.08-.06,.02-.18,.05-.34,.1-.12,.07-.24,.1-.34,.1-.1,.04-.2,.07-.3,.08-.09,.01-.19,.03-.3,.05-.08,.02-.17,.03-.25,.03h-.39c.05,0,.11-.01,.17-.03,.06-.02,.13-.03,.2-.03s.16-.02,.26-.07c.15-.02,.33-.08,.56-.16,.06-.02,.12-.04,.17-.05,.05-.01,.11-.03,.17-.05,.04-.04,.09-.07,.16-.08,.06-.01,.11-.04,.16-.08,.25-.09,.49-.2,.72-.33,.12-.07,.25-.14,.37-.21,.12-.08,.25-.16,.37-.25,.27-.15,.51-.32,.72-.49,.12-.09,.24-.17,.36-.26,.11-.09,.22-.17,.33-.26,.12-.11,.24-.2,.36-.28,.11-.08,.22-.17,.33-.28,.21-.17,.41-.35,.59-.52,.19-.17,.36-.35,.53-.52,.17-.15,.31-.29,.42-.43,.11-.13,.22-.25,.33-.36l.28-.29s-.04,.05-.06,.1c-.02,.04-.05,.09-.08,.13-.03,.04-.07,.09-.11,.13-.08,.11-.18,.23-.28,.36m-9.57-1.65c-.07,.19-.13,.37-.17,.54-.1,.37-.18,.74-.23,1.11-.05,.37-.09,.71-.11,1.01,0,.35,.01,.58,.03,.69v.2s.01,.04,.03,.07c-.02-.02-.03-.04-.03-.07s0-.05-.02-.08c-.01-.03-.02-.07-.02-.11-.04-.22-.06-.45-.06-.69v-.49c0-.13,.02-.3,.06-.52,.02-.11,.04-.21,.05-.29,.01-.09,.03-.17,.05-.26,.02-.11,.04-.21,.06-.29,.02-.09,.05-.18,.09-.29,.1-.37,.22-.73,.34-1.08,.08-.17,.16-.34,.22-.49,.06-.15,.12-.29,.19-.43,.06-.13,.12-.25,.17-.36,.05-.11,.1-.2,.14-.26,.02-.04,.04-.08,.05-.11,0-.03,.03-.06,.05-.08,.02-.02,.03-.04,.03-.07-.02,.09-.05,.18-.09,.26-.04,.09-.09,.19-.14,.29-.05,.11-.1,.23-.14,.36-.04,.13-.09,.27-.16,.43-.06,.15-.12,.32-.19,.49-.06,.17-.13,.35-.2,.54m.58-3.78c.08-.11,.16-.22,.22-.33,.06-.11,.13-.22,.22-.33,.12-.22,.24-.41,.36-.57,.11-.16,.22-.31,.33-.44,.04-.04,.08-.09,.11-.13,.03-.04,.06-.09,.08-.13,.02-.04,.04-.08,.06-.1-.02,.02-.04,.05-.06,.1-.02,.04-.04,.09-.06,.15-.02,.05-.05,.1-.09,.15-.08,.15-.18,.31-.28,.46-.04,.09-.09,.18-.16,.28-.06,.1-.13,.2-.19,.31-.04,.04-.11,.15-.2,.31-.09,.16-.19,.32-.28,.47-.09,.15-.17,.28-.23,.39-.06,.11-.08,.13-.06,.07l.25-.65Zm9.21-.46l.09-.39c.02-.07,.04-.13,.06-.2,.02-.07,.03-.12,.03-.16,.02-.07,.03-.13,.03-.18s.01-.1,.03-.15c0-.11,.01-.19,.03-.23v.23c0,.13-.01,.24-.03,.33,0,.07,0,.13-.02,.18-.01,.05-.03,.11-.05,.18-.02,.07-.04,.14-.05,.21-.01,.08-.03,.15-.05,.21-.04,.13-.14,.03-.09-.03m.31,.15c.19-.58,.28-1.11,.28-1.59s-.09-1.02-.28-1.55c-.19-.53-.44-1.02-.76-1.45-.32-.44-.7-.8-1.12-1.08-.43-.28-.87-.43-1.32-.43-.52,0-1.1,.21-1.74,.62-.64,.41-1.3,.96-1.96,1.65-.66,.69-1.31,1.47-1.95,2.35-.63,.88-1.19,1.8-1.68,2.75-.49,.95-.88,1.9-1.18,2.85-.3,.95-.45,1.83-.45,2.63,0,.46,.15,1,.44,1.62,.29,.62,.66,1.21,1.12,1.77,.46,.56,.98,1.03,1.56,1.42,.58,.39,1.16,.59,1.74,.59,.89,0,1.79-.2,2.71-.6,.91-.4,1.8-.9,2.68-1.5,.87-.6,1.69-1.27,2.44-1.99,.76-.72,.44-.35,1-1.03,1.1-1.21-1.37-2.82-1.62-2.34-.54,.64-.17,.27-.86,1-.68,.73-1.41,1.4-2.18,2.01-.77,.61-1.56,1.12-2.37,1.52-.81,.4-1.6,.6-2.37,.6-.66,0-1.09-.19-1.29-.57-.2-.38-.3-.84-.3-1.39,0-.72,.12-1.5,.37-2.35,.25-.85,.58-1.7,.98-2.54,.4-.85,.87-1.66,1.38-2.45,.52-.78,1.05-1.48,1.6-2.09,.55-.61,1.1-1.1,1.65-1.47,.55-.37,1.04-.56,1.48-.56,.29,0,.45,.08,.47,.25,.02,.16,.03,.29,.03,.38,0,.39-.11,.83-.33,1.31-.22,.48,.65,1.69,1.82,1.65"/><path class="g" d="M155.46,125.02v0c0-.15,.01-.28,.03-.39,0-.09,0-.18,.02-.28,.01-.1,.03-.2,.05-.31,.04-.11,.07-.22,.09-.34,.02-.12,.05-.26,.09-.41,.04-.13,.08-.27,.11-.41,.03-.14,.07-.3,.11-.47,.04-.15,.09-.3,.14-.46,.05-.15,.1-.32,.14-.49,.1-.35,.22-.69,.34-1.03,.12-.34,.25-.69,.37-1.06,.13-.35,.25-.69,.39-1.03,.14-.34,.26-.67,.39-1s.25-.64,.37-.93c.12-.29,.24-.57,.34-.83,.25-.57,.44-.98,.56-1.24,.04-.07,.07-.12,.08-.18,.01-.05,.03-.1,.05-.15l.06-.13c-.04,.15-.1,.32-.19,.49-.06,.15-.14,.33-.22,.54-.08,.21-.18,.44-.28,.7-.1,.26-.21,.54-.33,.83-.11,.29-.23,.6-.36,.93-.25,.65-.5,1.34-.75,2.06-.13,.35-.25,.7-.37,1.05-.12,.35-.24,.69-.34,1.01-.06,.17-.12,.34-.17,.49-.05,.15-.1,.31-.14,.46-.04,.17-.08,.33-.12,.47-.04,.14-.08,.28-.12,.41-.08,.26-.15,.51-.19,.75-.04,.11-.07,.21-.08,.29-.01,.09-.03,.18-.05,.26-.02,.11-.03,.24-.03,.39m-.28-5.9c.11-.38,.25-.81,.42-1.29,.08-.24,.17-.49,.25-.74,.08-.25,.18-.52,.28-.8,.1-.28,.2-.56,.3-.83,.09-.27,.19-.56,.3-.87,.23-.57,.46-1.16,.68-1.77,.23-.61,.47-1.23,.72-1.86,.25-.63,.5-1.25,.76-1.85,.26-.6,.51-1.18,.76-1.75,.25-.57,.49-1.11,.73-1.62,.24-.51,.46-1,.67-1.46,.21-.44,.4-.84,.58-1.21,.18-.37,.33-.69,.45-.95,.15-.31,.27-.58,.37-.82-.1,.26-.22,.55-.34,.85-.1,.26-.23,.58-.39,.95-.16,.37-.34,.79-.54,1.24-.19,.46-.39,.95-.62,1.47-.23,.52-.47,1.07-.72,1.64-.25,.57-.5,1.15-.75,1.75-.25,.6-.5,1.22-.75,1.85-.25,.61-.49,1.22-.73,1.83-.24,.61-.47,1.21-.7,1.8-.1,.31-.21,.59-.31,.87-.1,.27-.21,.54-.31,.8-.1,.26-.2,.52-.28,.77-.08,.25-.18,.5-.28,.74-.17,.48-.32,.91-.45,1.28-.14,.37-.25,.7-.36,.98-.1,.33-.21,.62-.31,.88,0-.07,.02-.14,.06-.23,.02-.09,.05-.18,.09-.28,.04-.1,.08-.22,.12-.38,.08-.28,.18-.62,.3-1m6.3-14.45c-.09,.23-.19,.46-.3,.7-.1,.26-.21,.52-.33,.78-.11,.26-.23,.52-.36,.79-.23,.57-.45,1.09-.65,1.57-.1,.24-.2,.48-.3,.72s-.19,.46-.3,.65c-.08,.22-.16,.41-.23,.57-.07,.16-.13,.3-.17,.41-.06,.13-.11,.25-.16,.36,0-.02,0-.05,.03-.1l.12-.26,.14-.44c.05-.16,.12-.35,.2-.57,.08-.2,.17-.41,.26-.65,.09-.24,.19-.48,.3-.72,.19-.52,.4-1.05,.65-1.57,.1-.28,.22-.56,.34-.82,.12-.26,.24-.51,.34-.75,.1-.24,.21-.47,.31-.7,.1-.23,.21-.45,.31-.67,.08-.2,.17-.38,.25-.54,.08-.16,.15-.3,.19-.41,.06-.13,.11-.25,.16-.36-.04,.13-.09,.26-.16,.39-.04,.11-.09,.25-.16,.41-.06,.16-.14,.34-.22,.54-.1,.22-.2,.44-.3,.67m1.03,14.81c-.3,.62-.63,1.26-.98,1.91-.35,.65-.73,1.29-1.12,1.91-.39,.62-.81,1.18-1.24,1.67-.44,.49-.89,.88-1.35,1.18-.47,.29-.94,.44-1.42,.44s-.72-.22-.72-.66c0-.65,.13-1.48,.39-2.49,.26-1,.6-2.11,1.01-3.32,.41-1.21,.89-2.48,1.43-3.81,.54-1.33,1.08-2.65,1.63-3.94,.55-1.3,1.09-2.55,1.63-3.75,.54-1.2,1.02-2.28,1.43-3.22,.41-.95,.75-1.73,1.01-2.34,.26-.61,.39-.99,.39-1.15,0-.28-.1-.57-.3-.87-.2-.29-.42-.56-.65-.79-.24-.23-.47-.41-.68-.56-.22-.14-.36-.21-.42-.21-.21,0-.31,.13-.31,.39,0,.04-.13,.37-.39,.97-.26,.6-.6,1.38-1.03,2.35-.43,.97-.91,2.08-1.45,3.34-.54,1.25-1.09,2.57-1.67,3.94-.57,1.37-1.12,2.76-1.66,4.15-.54,1.4-1.02,2.73-1.44,3.99-.42,1.26-.76,2.41-1.01,3.45-.26,1.04-.38,1.87-.38,2.5s.15,1.21,.46,1.73c.31,.52,.68,.98,1.11,1.37,.43,.39,.89,.7,1.39,.92,.5,.22,.93,.33,1.31,.33,1,0,1.89-.33,2.68-.98,.79-.66,1.49-1.46,2.12-2.4,.62-.95,1.17-1.94,1.63-2.97,.47-1.04,.88-1.92,1.23-2.66,.08-.17,.05-.4-.11-.67-.16-.27-.35-.53-.59-.78-.24-.25-.47-.44-.7-.57-.23-.13-.37-.14-.44-.03-.23,.48-.49,1.03-.79,1.65"/><path class="g" d="M132.29,127.55c.01,.16,.05,.26,.11,.3,.23,.18,.44,.37,.64,.57,.19,.2,.43,.33,.73,.4,.34,.11,.68,.12,1.03,.03,.35-.09,.67-.26,.97-.5,.78-.85,1.24-1.79,1.37-2.84,0-.18-.09-.41-.27-.7-.18-.29-.35-.46-.52-.5-.36-.11-.7-.16-1.03-.13-.33,.02-.67,.07-1.03,.13-.04,.04-.09,.08-.14,.1-.05,.02-.1,.07-.14,.13-.36,.47-.78,.95-1.27,1.44-.3,.33-.45,.72-.45,1.17,0,.11,0,.24,.02,.4"/><path class="d" d="M76.78,120.85c.05,1.93,.55,3.35,1.5,4.25,.96,.9,2.37,1.35,4.23,1.35,1.64,0,3.19-.29,4.66-.86,.18,.35,.33,.77,.45,1.26,.12,.5,.18,.98,.21,1.47-.76,.32-1.6,.56-2.51,.73-.91,.16-1.92,.24-3.02,.24-1.61,0-2.99-.22-4.15-.67-1.15-.45-2.1-1.08-2.85-1.9-.75-.82-1.3-1.78-1.64-2.9-.35-1.12-.52-2.34-.52-3.68s.17-2.54,.5-3.68c.33-1.14,.85-2.13,1.54-2.97,.69-.84,1.56-1.51,2.61-2,1.05-.49,2.29-.74,3.71-.74,1.22,0,2.29,.21,3.21,.62,.92,.41,1.69,.98,2.32,1.71,.62,.73,1.09,1.59,1.42,2.59,.32,1,.48,2.09,.48,3.27,0,.32-.01,.66-.03,1.02-.02,.36-.05,.66-.07,.92h-12.06Zm8.78-2.56c0-.64-.09-1.26-.26-1.85-.17-.59-.43-1.1-.76-1.54-.33-.44-.76-.79-1.28-1.05-.52-.26-1.14-.4-1.85-.4-1.4,0-2.48,.43-3.23,1.28-.75,.85-1.2,2.04-1.36,3.56h8.74Z"/><path class="d" d="M100.34,117.19c0-1.36-.35-2.3-1.04-2.83-.69-.53-1.69-.79-3.01-.79-.81,0-1.56,.06-2.26,.19-.7,.13-1.39,.29-2.06,.5-.44-.76-.66-1.67-.66-2.73,.78-.25,1.65-.45,2.59-.59,.94-.14,1.85-.21,2.73-.21,2.3,0,4.05,.52,5.25,1.57,1.2,1.05,1.8,2.72,1.8,5.03v11.09c-.81,.18-1.79,.37-2.94,.57-1.15,.2-2.33,.29-3.52,.29-1.13,0-2.15-.1-3.06-.31-.91-.21-1.68-.54-2.31-1-.63-.46-1.12-1.05-1.47-1.76-.35-.71-.52-1.58-.52-2.59s.2-1.86,.6-2.61c.4-.75,.95-1.37,1.64-1.87,.69-.5,1.49-.86,2.38-1.11,.9-.24,1.84-.36,2.83-.36,.74,0,1.34,.02,1.81,.05,.47,.03,.87,.07,1.19,.12v-.66Zm0,3.35c-.35-.05-.78-.09-1.31-.14-.53-.05-.98-.07-1.35-.07-1.43,0-2.52,.27-3.27,.79-.75,.53-1.12,1.34-1.12,2.42,0,.69,.13,1.23,.38,1.62,.25,.39,.57,.69,.95,.9,.38,.21,.8,.33,1.26,.38,.46,.05,.9,.07,1.31,.07,.53,0,1.08-.03,1.64-.09,.56-.06,1.07-.14,1.5-.26v-5.63Z"/><path class="d" d="M106.08,125.66c.62,.25,1.31,.45,2.06,.6,.75,.15,1.49,.22,2.23,.22,.53,0,1.04-.06,1.52-.17,.48-.12,.9-.29,1.26-.52,.36-.23,.64-.51,.86-.85,.22-.33,.33-.71,.33-1.12,0-.46-.09-.84-.26-1.14-.17-.3-.4-.55-.69-.76-.29-.21-.62-.39-1-.54-.38-.15-.79-.29-1.23-.43l-1.21-.45c-1.47-.55-2.55-1.17-3.21-1.87-.67-.69-1-1.62-1-2.8,0-1.57,.56-2.81,1.68-3.73,1.12-.92,2.76-1.38,4.92-1.38,.9,0,1.78,.09,2.64,.26,.86,.17,1.62,.37,2.26,.6-.05,.46-.13,.92-.26,1.38-.13,.46-.28,.89-.47,1.28-.51-.18-1.11-.36-1.81-.54-.7-.17-1.46-.26-2.26-.26-.85,0-1.61,.15-2.26,.45-.66,.3-.98,.83-.98,1.59,0,.39,.08,.73,.24,1,.16,.28,.38,.51,.66,.71,.28,.2,.59,.36,.95,.5,.36,.14,.74,.28,1.16,.41l1.52,.52c.55,.18,1.08,.4,1.57,.66,.5,.25,.92,.57,1.28,.95,.36,.38,.64,.84,.86,1.38,.22,.54,.33,1.19,.33,1.95,0,.85-.17,1.63-.52,2.33-.35,.7-.84,1.3-1.47,1.8-.63,.5-1.4,.88-2.3,1.16-.9,.28-1.89,.41-2.97,.41s-2.07-.08-2.9-.22c-.83-.15-1.6-.35-2.32-.6,.05-.46,.14-.93,.29-1.4,.15-.47,.32-.94,.5-1.4"/><path class="d" d="M126.39,128.9c-.18,0-.37,0-.57,.02-.2,.01-.39,.02-.57,.02-.23,0-.47,0-.73-.02-.25-.01-.46-.03-.62-.05l-5.87-17.72c.3-.05,.61-.07,.93-.09,.32-.01,.62-.02,.9-.02,.3,0,.63,0,1,.02,.37,.01,.68,.04,.93,.09l4.91,16.48,5.08-16.48c.48-.07,1.05-.1,1.69-.1,.25,0,.54,0,.86,.02,.32,.01,.64,.04,.97,.09l-6.88,21.32c-.32,.94-.66,1.74-1,2.38-.35,.64-.74,1.16-1.17,1.55-.44,.39-.93,.67-1.47,.83-.54,.16-1.17,.24-1.88,.24-.53,0-1.05-.04-1.57-.12-.52-.08-.97-.18-1.36-.29,0-.53,.05-1,.14-1.42,.09-.41,.23-.83,.41-1.24,.21,.07,.49,.14,.85,.22,.36,.08,.74,.12,1.16,.12,.3,0,.58-.03,.85-.09,.26-.06,.51-.17,.74-.35,.23-.17,.44-.42,.64-.74,.2-.32,.39-.76,.57-1.31l1.07-3.35Z"/></g></g></g></g></svg>