<?xml version="1.0" encoding="UTF-8"?><svg xmlns="http://www.w3.org/2000/svg" viewBox="0 0 238.33 238.33"><defs><style>.d{fill:#fff;}.e{fill:#db0812;}.f{fill:none;stroke:#ccc;stroke-miterlimit:10;}.g{fill:#ffed00;}</style></defs><g id="a"/><g id="b"><g id="c"><g><g><rect class="f" x=".5" y=".5" width="18.26" height="18.26"/><rect class="f" x="18.76" y=".5" width="18.26" height="18.26"/><rect class="f" x="37.01" y=".5" width="18.26" height="18.26"/><rect class="f" x="55.27" y=".5" width="18.26" height="18.26"/><rect class="f" x="73.53" y=".5" width="18.26" height="18.26"/><rect class="f" x="91.78" y=".5" width="18.26" height="18.26"/><rect class="f" x="110.04" y=".5" width="18.26" height="18.26"/><rect class="f" x="128.29" y=".5" width="18.26" height="18.26"/><rect class="f" x="146.55" y=".5" width="18.26" height="18.26"/><rect class="f" x="164.81" y=".5" width="18.26" height="18.26"/><rect class="f" x="183.06" y=".5" width="18.26" height="18.26"/><rect class="f" x="201.32" y=".5" width="18.26" height="18.26"/><rect class="f" x="219.58" y=".5" width="18.26" height="18.26"/><rect class="f" x=".5" y="18.76" width="18.26" height="18.26"/><rect class="f" x="18.76" y="18.76" width="18.26" height="18.26"/><rect class="f" x="37.01" y="18.76" width="18.26" height="18.26"/><rect class="f" x="55.27" y="18.76" width="18.26" height="18.26"/><rect class="f" x="73.53" y="18.76" width="18.26" height="18.26"/><rect class="f" x="91.78" y="18.76" width="18.26" height="18.26"/><rect class="f" x="110.04" y="18.76" width="18.26" height="18.26"/><rect class="f" x="128.29" y="18.76" width="18.26" height="18.26"/><rect class="f" x="146.55" y="18.76" width="18.26" height="18.26"/><rect class="f" x="164.81" y="18.76" width="18.26" height="18.26"/><rect class="f" x="183.06" y="18.76" width="18.26" height="18.26"/><rect class="f" x="201.32" y="18.76" width="18.26" height="18.26"/><rect class="f" x="219.58" y="18.76" width="18.26" height="18.26"/><rect class="f" x=".5" y="37.01" width="18.26" height="18.26"/><rect class="f" x="18.76" y="37.01" width="18.26" height="18.26"/><rect class="f" x="37.01" y="37.01" width="18.26" height="18.26"/><rect class="f" x="55.27" y="37.01" width="18.26" height="18.26"/><rect class="f" x="73.53" y="37.01" width="18.26" height="18.26"/><rect class="f" x="91.78" y="37.01" width="18.26" height="18.26"/><rect class="f" x="110.04" y="37.01" width="18.26" height="18.26"/><rect class="f" x="128.29" y="37.01" width="18.26" height="18.26"/><rect class="f" x="146.55" y="37.01" width="18.26" height="18.26"/><rect class="f" x="164.81" y="37.01" width="18.26" height="18.26"/><rect class="f" x="183.06" y="37.01" width="18.26" height="18.26"/><rect class="f" x="201.32" y="37.01" width="18.26" height="18.26"/><rect class="f" x="219.58" y="37.01" width="18.26" height="18.26"/><rect class="f" x=".5" y="55.27" width="18.26" height="18.26"/><rect class="f" x="18.76" y="55.27" width="18.26" height="18.26"/><rect class="f" x="37.01" y="55.27" width="18.26" height="18.26"/><rect class="f" x="55.27" y="55.27" width="18.26" height="18.26"/><rect class="f" x="73.53" y="55.27" width="18.26" height="18.26"/><rect class="f" x="91.78" y="55.27" width="18.26" height="18.26"/><rect class="f" x="110.04" y="55.27" width="18.26" height="18.26"/><rect class="f" x="128.29" y="55.27" width="18.26" height="18.26"/><rect class="f" x="146.55" y="55.27" width="18.26" height="18.26"/><rect class="f" x="164.81" y="55.27" width="18.26" height="18.26"/><rect class="f" x="183.06" y="55.27" width="18.26" height="18.26"/><rect class="f" x="201.32" y="55.27" width="18.26" height="18.26"/><rect class="f" x="219.58" y="55.27" width="18.26" height="18.26"/><rect class="f" x=".5" y="73.53" width="18.26" height="18.26"/><rect class="f" x="18.76" y="73.53" width="18.26" height="18.26"/><rect class="f" x="37.01" y="73.53" width="18.26" height="18.26"/><rect class="f" x="55.27" y="73.53" width="18.26" height="18.26"/><rect class="f" x="73.53" y="73.53" width="18.26" height="18.26"/><rect class="f" x="91.78" y="73.53" width="18.26" height="18.26"/><rect class="f" x="110.04" y="73.53" width="18.26" height="18.26"/><rect class="f" x="128.29" y="73.53" width="18.26" height="18.26"/><rect class="f" x="146.55" y="73.53" width="18.26" height="18.26"/><rect class="f" x="164.81" y="73.53" width="18.26" height="18.26"/><rect class="f" x="183.06" y="73.53" width="18.26" height="18.26"/><rect class="f" x="201.32" y="73.53" width="18.26" height="18.26"/><rect class="f" x="219.58" y="73.53" width="18.26" height="18.26"/><rect class="f" x=".5" y="91.78" width="18.26" height="18.26"/><rect class="f" x="18.76" y="91.78" width="18.26" height="18.26"/><rect class="f" x="37.01" y="91.78" width="18.26" height="18.26"/><rect class="f" x="55.27" y="91.78" width="18.26" height="18.26"/><rect class="f" x="73.53" y="91.78" width="18.26" height="18.26"/><rect class="f" x="91.78" y="91.78" width="18.26" height="18.26"/><rect class="f" x="110.04" y="91.78" width="18.26" height="18.26"/><rect class="f" x="128.29" y="91.78" width="18.26" height="18.26"/><rect class="f" x="146.55" y="91.78" width="18.26" height="18.26"/><rect class="f" x="164.81" y="91.78" width="18.26" height="18.26"/><rect class="f" x="183.06" y="91.78" width="18.26" height="18.26"/><rect class="f" x="201.32" y="91.78" width="18.26" height="18.26"/><rect class="f" x="219.58" y="91.78" width="18.26" height="18.26"/><rect class="f" x=".5" y="110.04" width="18.26" height="18.26"/><rect class="f" x="18.76" y="110.04" width="18.26" height="18.26"/><rect class="f" x="37.01" y="110.04" width="18.26" height="18.26"/><rect class="f" x="55.27" y="110.04" width="18.26" height="18.26"/><rect class="f" x="73.53" y="110.04" width="18.26" height="18.26"/><rect class="f" x="91.78" y="110.04" width="18.26" height="18.26"/><rect class="f" x="110.04" y="110.04" width="18.26" height="18.26"/><rect class="f" x="128.29" y="110.04" width="18.26" height="18.26"/><rect class="f" x="146.55" y="110.04" width="18.26" height="18.26"/><rect class="f" x="164.81" y="110.04" width="18.26" height="18.26"/><rect class="f" x="183.06" y="110.04" width="18.26" height="18.26"/><rect class="f" x="201.32" y="110.04" width="18.26" height="18.26"/><rect class="f" x="219.58" y="110.04" width="18.26" height="18.26"/><rect class="f" x=".5" y="128.29" width="18.26" height="18.26"/><rect class="f" x="18.76" y="128.29" width="18.26" height="18.26"/><rect class="f" x="37.01" y="128.29" width="18.26" height="18.26"/><rect class="f" x="55.27" y="128.29" width="18.26" height="18.26"/><rect class="f" x="73.53" y="128.29" width="18.26" height="18.26"/><rect class="f" x="91.78" y="128.29" width="18.26" height="18.26"/><rect class="f" x="110.04" y="128.29" width="18.26" height="18.26"/><rect class="f" x="128.29" y="128.29" width="18.26" height="18.26"/><rect class="f" x="146.55" y="128.29" width="18.26" height="18.26"/><rect class="f" x="164.81" y="128.29" width="18.26" height="18.26"/><rect class="f" x="183.06" y="128.29" width="18.26" height="18.26"/><rect class="f" x="201.32" y="128.29" width="18.26" height="18.26"/><rect class="f" x="219.58" y="128.29" width="18.26" height="18.26"/><rect class="f" x=".5" y="146.55" width="18.26" height="18.26"/><rect class="f" x="18.76" y="146.55" width="18.26" height="18.26"/><rect class="f" x="37.01" y="146.55" width="18.26" height="18.26"/><rect class="f" x="55.27" y="146.55" width="18.26" height="18.26"/><rect class="f" x="73.53" y="146.55" width="18.26" height="18.26"/><rect class="f" x="91.78" y="146.55" width="18.26" height="18.26"/><rect class="f" x="110.04" y="146.55" width="18.26" height="18.26"/><rect class="f" x="128.29" y="146.55" width="18.26" height="18.26"/><rect class="f" x="146.55" y="146.55" width="18.26" height="18.26"/><rect class="f" x="164.81" y="146.55" width="18.26" height="18.26"/><rect class="f" x="183.06" y="146.55" width="18.26" height="18.26"/><rect class="f" x="201.32" y="146.55" width="18.26" height="18.26"/><rect class="f" x="219.58" y="146.55" width="18.26" height="18.26"/><rect class="f" x=".5" y="164.81" width="18.26" height="18.26"/><rect class="f" x="18.76" y="164.81" width="18.26" height="18.26"/><rect class="f" x="37.01" y="164.81" width="18.26" height="18.26"/><rect class="f" x="55.27" y="164.81" width="18.26" height="18.26"/><rect class="f" x="73.53" y="164.81" width="18.26" height="18.26"/><rect class="f" x="91.78" y="164.81" width="18.26" height="18.26"/><rect class="f" x="110.04" y="164.81" width="18.26" height="18.26"/><rect class="f" x="128.29" y="164.81" width="18.26" height="18.26"/><rect class="f" x="146.55" y="164.81" width="18.26" height="18.26"/><rect class="f" x="164.81" y="164.81" width="18.26" height="18.26"/><rect class="f" x="183.06" y="164.81" width="18.26" height="18.26"/><rect class="f" x="201.32" y="164.81" width="18.26" height="18.26"/><rect class="f" x="219.58" y="164.81" width="18.26" height="18.26"/><rect class="f" x=".5" y="183.06" width="18.26" height="18.26"/><rect class="f" x="18.76" y="183.06" width="18.26" height="18.26"/><rect class="f" x="37.01" y="183.06" width="18.26" height="18.26"/><rect class="f" x="55.27" y="183.06" width="18.26" height="18.26"/><rect class="f" x="73.53" y="183.06" width="18.26" height="18.26"/><rect class="f" x="91.78" y="183.06" width="18.26" height="18.26"/><rect class="f" x="110.04" y="183.06" width="18.26" height="18.26"/><rect class="f" x="128.29" y="183.06" width="18.26" height="18.26"/><rect class="f" x="146.55" y="183.06" width="18.26" height="18.26"/><rect class="f" x="164.81" y="183.06" width="18.26" height="18.26"/><rect class="f" x="183.06" y="183.06" width="18.26" height="18.26"/><rect class="f" x="201.32" y="183.06" width="18.26" height="18.26"/><rect class="f" x="219.58" y="183.06" width="18.26" height="18.26"/><rect class="f" x=".5" y="201.32" width="18.26" height="18.26"/><rect class="f" x="18.76" y="201.32" width="18.26" height="18.26"/><rect class="f" x="37.01" y="201.32" width="18.26" height="18.26"/><rect class="f" x="55.27" y="201.32" width="18.26" height="18.26"/><rect class="f" x="73.53" y="201.32" width="18.26" height="18.26"/><rect class="f" x="91.78" y="201.32" width="18.26" height="18.26"/><rect class="f" x="110.04" y="201.32" width="18.26" height="18.26"/><rect class="f" x="128.29" y="201.32" width="18.26" height="18.26"/><rect class="f" x="146.55" y="201.32" width="18.26" height="18.26"/><rect class="f" x="164.81" y="201.32" width="18.26" height="18.26"/><rect class="f" x="183.06" y="201.32" width="18.26" height="18.26"/><rect class="f" x="201.32" y="201.32" width="18.26" height="18.26"/><rect class="f" x="219.58" y="201.32" width="18.26" height="18.26"/><rect class="f" x=".5" y="219.58" width="18.26" height="18.26"/><rect class="f" x="18.76" y="219.58" width="18.26" height="18.26"/><rect class="f" x="37.01" y="219.58" width="18.26" height="18.26"/><rect class="f" x="55.27" y="219.58" width="18.26" height="18.26"/><rect class="f" x="73.53" y="219.58" width="18.26" height="18.26"/><rect class="f" x="91.78" y="219.58" width="18.26" height="18.26"/><rect class="f" x="110.04" y="219.58" width="18.26" height="18.26"/><rect class="f" x="128.29" y="219.58" width="18.26" height="18.26"/><rect class="f" x="146.55" y="219.58" width="18.26" height="18.26"/><rect class="f" x="164.81" y="219.58" width="18.26" height="18.26"/><rect class="f" x="183.06" y="219.58" width="18.26" height="18.26"/><rect class="f" x="201.32" y="219.58" width="18.26" height="18.26"/><rect class="f" x="219.58" y="219.58" width="18.26" height="18.26"/></g><g><rect class="e" x="18.76" y="80.11" width="200.82" height="78.11"/><path class="g" d="M168.05,124.41c-.16,.21-.38,.45-.64,.72-.26,.28-.53,.56-.81,.85-.28,.29-.58,.59-.9,.9-.65,.65-1.37,1.25-2.15,1.8-.36,.27-.75,.53-1.17,.77-.2,.14-.39,.26-.59,.36-.2,.1-.39,.21-.59,.31-.26,.14-.46,.22-.59,.26-.1,.07-.2,.11-.29,.13-.1,.02-.2,.06-.29,.13-.1,.03-.28,.08-.54,.15-.2,.1-.38,.15-.54,.15-.16,.07-.32,.11-.46,.13-.15,.02-.3,.04-.46,.08-.13,.03-.26,.05-.39,.05h-.61c.08,0,.17-.02,.27-.05,.1-.03,.2-.05,.32-.05s.25-.03,.42-.1c.23-.03,.52-.12,.88-.26,.1-.03,.19-.06,.27-.08,.08-.02,.17-.04,.27-.08,.06-.07,.15-.11,.24-.13,.1-.02,.18-.06,.24-.13,.39-.14,.77-.31,1.12-.51,.2-.1,.39-.21,.59-.33,.2-.12,.39-.25,.59-.39,.42-.24,.8-.5,1.12-.77,.2-.14,.38-.27,.56-.41,.18-.14,.35-.27,.51-.41,.2-.17,.38-.32,.56-.44,.18-.12,.35-.27,.51-.44,.33-.27,.64-.55,.93-.82,.29-.27,.57-.55,.83-.82,.26-.24,.48-.46,.66-.67,.18-.21,.35-.39,.51-.57l.44-.46s-.07,.09-.1,.15c-.03,.07-.07,.14-.12,.2-.05,.07-.11,.14-.17,.21-.13,.17-.28,.36-.44,.57m-15.04-2.6c-.12,.29-.2,.57-.27,.85-.16,.58-.28,1.17-.37,1.75-.08,.58-.14,1.11-.17,1.59,0,.55,.02,.91,.05,1.08v.31s.02,.07,.05,.1c-.03-.03-.05-.07-.05-.1s0-.08-.02-.13c-.02-.05-.03-.11-.03-.18-.06-.34-.1-.7-.1-1.08v-.77c0-.21,.03-.48,.1-.82,.03-.17,.06-.33,.07-.46,.02-.14,.04-.27,.07-.41,.03-.17,.07-.33,.1-.46,.03-.14,.08-.29,.15-.46,.16-.58,.34-1.15,.54-1.7,.13-.27,.24-.53,.34-.77,.1-.24,.2-.46,.29-.67,.1-.21,.19-.39,.27-.56,.08-.17,.15-.31,.22-.41,.03-.07,.06-.13,.07-.18,.02-.05,.04-.09,.07-.13,.03-.03,.05-.07,.05-.1-.03,.14-.08,.28-.15,.41-.07,.14-.14,.29-.22,.46-.08,.17-.16,.36-.22,.57-.07,.2-.15,.43-.24,.67-.1,.24-.2,.5-.29,.77-.1,.27-.2,.56-.32,.85m.9-5.93c.13-.17,.24-.34,.34-.51,.1-.17,.21-.34,.34-.51,.2-.34,.38-.64,.56-.9,.18-.26,.35-.49,.51-.69,.06-.07,.12-.14,.17-.21,.05-.07,.09-.14,.12-.21,.03-.07,.07-.12,.1-.15-.03,.03-.07,.08-.1,.15-.03,.07-.07,.15-.1,.23-.03,.09-.08,.16-.15,.23-.13,.24-.28,.48-.44,.72-.07,.14-.15,.28-.24,.44-.1,.15-.2,.32-.29,.49-.07,.07-.17,.23-.32,.49-.15,.26-.29,.51-.44,.75-.15,.24-.27,.45-.37,.62-.1,.17-.13,.21-.1,.1l.39-1.03Zm14.48-.72l.15-.62c.03-.1,.07-.2,.1-.31,.03-.1,.05-.19,.05-.26,.03-.1,.05-.2,.05-.28s.02-.16,.05-.23c0-.17,.02-.29,.05-.36v.36c0,.21-.02,.38-.05,.51,0,.1,0,.2-.02,.28-.02,.09-.04,.18-.07,.28-.03,.1-.06,.21-.07,.33-.02,.12-.04,.23-.07,.33-.07,.21-.21,.05-.15-.05m.49,.23c.29-.91,.44-1.74,.44-2.49s-.15-1.6-.44-2.44c-.29-.84-.69-1.6-1.2-2.29-.51-.69-1.09-1.25-1.76-1.7-.67-.45-1.36-.67-2.08-.67-.82,0-1.73,.33-2.74,.98-1.01,.65-2.04,1.52-3.08,2.6-1.04,1.08-2.06,2.31-3.06,3.7-.99,1.39-1.88,2.83-2.64,4.32-.77,1.49-1.39,2.98-1.86,4.47-.47,1.49-.71,2.87-.71,4.14,0,.72,.23,1.57,.68,2.54,.46,.98,1.04,1.9,1.76,2.77,.72,.87,1.53,1.62,2.45,2.24,.91,.62,1.83,.93,2.74,.93,1.4,0,2.82-.31,4.26-.94,1.43-.63,2.84-1.41,4.21-2.36,1.37-.95,2.65-1.99,3.84-3.12,1.19-1.13,.69-.55,1.57-1.62,1.74-1.9-2.15-4.43-2.54-3.67-.85,1.01-.27,.42-1.35,1.56-1.08,1.15-2.22,2.2-3.42,3.16-1.21,.96-2.45,1.76-3.72,2.39-1.27,.63-2.51,.95-3.72,.95-1.04,0-1.72-.3-2.03-.9-.31-.6-.46-1.32-.46-2.18,0-1.13,.2-2.36,.59-3.69,.39-1.33,.91-2.67,1.54-4,.64-1.33,1.36-2.61,2.18-3.84,.81-1.23,1.65-2.32,2.52-3.28,.86-.96,1.73-1.72,2.59-2.31,.86-.58,1.64-.87,2.32-.87,.46,0,.7,.13,.73,.39,.03,.26,.05,.45,.05,.59,0,.62-.17,1.3-.51,2.06-.34,.75,1.01,2.65,2.86,2.59"/><path class="g" d="M176.2,128.37v0c0-.24,.02-.44,.05-.62,0-.14,0-.28,.02-.44,.02-.15,.04-.32,.07-.49,.06-.17,.11-.35,.15-.54,.03-.19,.08-.4,.15-.64,.06-.21,.12-.42,.17-.64,.05-.22,.11-.47,.17-.75,.06-.24,.14-.48,.22-.72,.08-.24,.15-.5,.22-.77,.16-.55,.34-1.09,.54-1.62,.2-.53,.39-1.09,.59-1.67,.2-.55,.4-1.09,.61-1.62,.21-.53,.42-1.05,.61-1.57s.39-1,.59-1.46c.2-.46,.37-.9,.54-1.31,.39-.89,.68-1.54,.88-1.95,.06-.1,.11-.2,.12-.28,.02-.09,.04-.16,.07-.23l.1-.21c-.07,.24-.16,.5-.29,.77-.1,.24-.21,.52-.34,.85-.13,.33-.28,.69-.44,1.11-.16,.41-.33,.85-.51,1.31-.18,.46-.37,.95-.56,1.46-.39,1.03-.78,2.11-1.17,3.24-.2,.55-.39,1.1-.59,1.64-.2,.55-.38,1.08-.54,1.59-.1,.27-.19,.53-.27,.77-.08,.24-.16,.48-.22,.72-.07,.27-.13,.52-.2,.75-.07,.22-.13,.44-.2,.64-.13,.41-.23,.81-.29,1.18-.07,.17-.11,.33-.12,.46-.02,.14-.04,.28-.07,.41-.03,.17-.05,.38-.05,.62m-.44-9.27c.18-.6,.4-1.28,.66-2.03,.13-.38,.26-.76,.39-1.16,.13-.39,.28-.81,.44-1.26,.16-.44,.32-.88,.46-1.31,.15-.43,.3-.88,.46-1.36,.36-.89,.72-1.82,1.08-2.78,.36-.96,.73-1.93,1.12-2.93,.39-.99,.79-1.96,1.2-2.9,.41-.94,.81-1.86,1.2-2.75,.39-.89,.77-1.74,1.15-2.54,.37-.81,.72-1.57,1.05-2.29,.32-.68,.63-1.32,.91-1.9,.28-.58,.51-1.08,.71-1.49,.23-.48,.42-.91,.59-1.28-.16,.41-.34,.86-.54,1.34-.16,.41-.37,.91-.61,1.49-.24,.58-.53,1.23-.86,1.95-.29,.72-.62,1.49-.98,2.31-.36,.82-.73,1.68-1.13,2.57-.39,.89-.78,1.81-1.17,2.75-.39,.94-.78,1.91-1.17,2.9-.39,.96-.77,1.92-1.15,2.88-.38,.96-.74,1.9-1.1,2.83-.16,.48-.33,.93-.49,1.36-.16,.43-.33,.85-.49,1.26-.16,.41-.31,.81-.44,1.21-.13,.39-.28,.78-.44,1.16-.26,.75-.5,1.42-.71,2-.21,.58-.4,1.1-.56,1.54-.16,.51-.32,.98-.49,1.39,0-.1,.03-.22,.1-.36,.03-.14,.08-.28,.15-.44,.07-.16,.13-.35,.2-.59,.13-.44,.29-.97,.46-1.57m9.91-22.71c-.15,.36-.3,.73-.46,1.1-.16,.41-.34,.82-.51,1.23-.18,.41-.37,.82-.56,1.23-.36,.89-.7,1.71-1.03,2.47-.16,.38-.32,.75-.46,1.13s-.3,.72-.46,1.03c-.13,.34-.25,.64-.37,.9-.11,.26-.2,.47-.27,.64-.1,.21-.18,.39-.24,.57,0-.03,.02-.09,.05-.15l.2-.41c.06-.2,.14-.44,.22-.69,.08-.26,.19-.56,.32-.9,.13-.31,.27-.65,.42-1.03,.15-.38,.3-.75,.46-1.13,.29-.82,.64-1.64,1.03-2.47,.16-.44,.34-.87,.54-1.28,.2-.41,.37-.8,.54-1.18,.16-.38,.33-.75,.49-1.1,.16-.36,.32-.71,.49-1.05,.13-.31,.26-.59,.39-.85,.13-.26,.23-.47,.29-.64,.1-.21,.18-.39,.24-.57-.07,.21-.15,.41-.24,.62-.07,.17-.15,.39-.24,.64-.1,.26-.21,.54-.34,.85-.16,.34-.32,.69-.46,1.05m1.61,23.28c-.47,.98-.99,1.98-1.54,3.01-.55,1.03-1.14,2.03-1.76,3.01-.62,.98-1.27,1.85-1.96,2.62-.68,.77-1.39,1.39-2.13,1.85-.73,.46-1.48,.69-2.23,.69s-1.13-.34-1.13-1.03c0-1.03,.2-2.33,.61-3.91,.41-1.58,.94-3.32,1.59-5.22,.65-1.9,1.4-3.9,2.25-5.99,.85-2.09,1.7-4.16,2.57-6.2,.86-2.04,1.72-4,2.57-5.89,.85-1.89,1.6-3.58,2.25-5.07,.65-1.49,1.18-2.72,1.59-3.68,.41-.96,.61-1.56,.61-1.8,0-.45-.16-.9-.47-1.36-.31-.46-.65-.87-1.03-1.23-.38-.36-.73-.65-1.08-.87-.34-.22-.56-.33-.66-.33-.33,0-.49,.21-.49,.62,0,.07-.2,.57-.61,1.52-.41,.94-.95,2.18-1.61,3.7-.67,1.53-1.43,3.27-2.27,5.24-.85,1.97-1.72,4.03-2.62,6.19-.9,2.16-1.77,4.33-2.61,6.53-.84,2.19-1.6,4.28-2.26,6.27-.66,1.99-1.19,3.79-1.59,5.42-.4,1.63-.6,2.94-.6,3.93s.24,1.9,.72,2.72c.48,.82,1.06,1.54,1.74,2.16,.68,.62,1.4,1.1,2.19,1.44,.78,.34,1.47,.51,2.05,.51,1.57,0,2.97-.51,4.21-1.55,1.24-1.03,2.35-2.29,3.33-3.78,.98-1.49,1.83-3.05,2.57-4.67,.73-1.63,1.38-3.02,1.93-4.19,.13-.27,.07-.62-.17-1.05-.24-.43-.56-.84-.93-1.23-.38-.39-.74-.69-1.1-.9-.36-.2-.59-.22-.68-.05-.36,.75-.77,1.62-1.25,2.59"/><path class="g" d="M139.78,132.34c.02,.25,.08,.4,.17,.47,.37,.28,.7,.58,1,.89,.3,.31,.68,.52,1.15,.63,.53,.17,1.07,.19,1.62,.05,.55-.14,1.06-.4,1.52-.79,1.23-1.33,1.95-2.82,2.15-4.46,0-.28-.14-.65-.42-1.1-.28-.45-.56-.72-.82-.79-.57-.18-1.11-.24-1.62-.21-.52,.03-1.06,.1-1.62,.21-.07,.07-.14,.12-.23,.16-.08,.04-.16,.11-.22,.21-.57,.73-1.23,1.49-2,2.26-.47,.53-.7,1.14-.7,1.84,0,.18,0,.38,.02,.63"/><path class="d" d="M52.56,121.82c.07,3.04,.86,5.27,2.36,6.68,1.5,1.41,3.72,2.12,6.65,2.12,2.57,0,5.01-.45,7.33-1.36,.29,.54,.52,1.2,.71,1.98,.18,.78,.29,1.55,.33,2.31-1.19,.51-2.51,.89-3.94,1.14-1.43,.25-3.01,.38-4.75,.38-2.53,0-4.71-.35-6.51-1.06-1.81-.71-3.3-1.7-4.48-2.99-1.18-1.28-2.04-2.8-2.58-4.56-.54-1.76-.81-3.68-.81-5.78s.26-3.99,.79-5.78c.52-1.79,1.33-3.35,2.42-4.67,1.09-1.32,2.45-2.37,4.1-3.15,1.65-.78,3.59-1.17,5.84-1.17,1.92,0,3.6,.33,5.05,.98,1.45,.65,2.66,1.55,3.64,2.69,.98,1.14,1.72,2.5,2.23,4.07,.51,1.57,.76,3.29,.76,5.13,0,.51-.02,1.04-.05,1.6-.04,.56-.07,1.04-.11,1.44h-18.95Zm13.79-4.02c0-1.01-.14-1.98-.41-2.91-.27-.92-.67-1.73-1.19-2.42-.52-.69-1.19-1.24-2.01-1.66-.81-.42-1.78-.62-2.91-.62-2.21,0-3.9,.67-5.08,2.01-1.18,1.34-1.89,3.2-2.14,5.59h13.74Z"/><path class="d" d="M89.58,116.06c0-2.14-.54-3.62-1.63-4.45-1.09-.83-2.66-1.25-4.72-1.25-1.27,0-2.45,.1-3.56,.3-1.1,.2-2.18,.46-3.23,.79-.69-1.19-1.03-2.62-1.03-4.29,1.23-.4,2.59-.71,4.07-.92,1.48-.22,2.91-.33,4.29-.33,3.62,0,6.37,.82,8.25,2.47,1.88,1.65,2.82,4.28,2.82,7.9v17.43c-1.27,.29-2.81,.59-4.62,.9-1.81,.31-3.66,.46-5.54,.46-1.77,0-3.38-.16-4.8-.49-1.43-.33-2.64-.85-3.64-1.57-1-.72-1.76-1.65-2.31-2.77-.54-1.12-.81-2.48-.81-4.07s.32-2.92,.95-4.1c.63-1.18,1.49-2.15,2.58-2.93,1.09-.78,2.33-1.36,3.75-1.74,1.41-.38,2.9-.57,4.45-.57,1.16,0,2.11,.03,2.85,.08,.74,.05,1.37,.12,1.87,.19v-1.03Zm0,5.27c-.54-.07-1.23-.14-2.06-.22-.83-.07-1.54-.11-2.12-.11-2.24,0-3.95,.42-5.13,1.25-1.18,.83-1.76,2.1-1.76,3.8,0,1.09,.2,1.94,.6,2.55,.4,.62,.9,1.09,1.49,1.41,.6,.33,1.26,.52,1.98,.6,.72,.07,1.41,.11,2.06,.11,.83,0,1.69-.04,2.58-.14,.89-.09,1.67-.23,2.36-.41v-8.85Z"/><path class="d" d="M98.6,129.37c.98,.4,2.05,.71,3.23,.95,1.18,.24,2.34,.35,3.5,.35,.83,0,1.63-.09,2.39-.27,.76-.18,1.42-.45,1.98-.81,.56-.36,1.01-.8,1.36-1.33,.34-.52,.52-1.11,.52-1.76,0-.72-.14-1.32-.41-1.79-.27-.47-.63-.87-1.09-1.19-.45-.33-.98-.61-1.57-.84-.6-.24-1.24-.46-1.93-.68l-1.9-.71c-2.32-.87-4-1.85-5.05-2.93-1.05-1.09-1.57-2.55-1.57-4.4,0-2.46,.88-4.42,2.63-5.86,1.76-1.45,4.33-2.17,7.74-2.17,1.41,0,2.8,.14,4.15,.41,1.36,.27,2.54,.59,3.56,.95-.07,.72-.21,1.45-.41,2.17-.2,.72-.44,1.39-.73,2.01-.8-.29-1.75-.57-2.85-.84-1.1-.27-2.29-.41-3.56-.41-1.34,0-2.52,.24-3.56,.71-1.03,.47-1.55,1.3-1.55,2.5,0,.62,.13,1.14,.38,1.57,.25,.43,.6,.81,1.03,1.11,.43,.31,.93,.57,1.49,.79,.56,.22,1.17,.43,1.82,.65l2.39,.81c.87,.29,1.69,.63,2.47,1.03,.78,.4,1.45,.9,2.01,1.49,.56,.6,1.01,1.32,1.36,2.17,.34,.85,.52,1.87,.52,3.07,0,1.34-.27,2.56-.81,3.66-.54,1.1-1.31,2.05-2.31,2.82-1,.78-2.2,1.38-3.61,1.82-1.41,.43-2.97,.65-4.67,.65s-3.26-.12-4.56-.35c-1.3-.24-2.52-.55-3.64-.95,.07-.72,.23-1.46,.46-2.2,.23-.74,.5-1.47,.79-2.2"/><path class="d" d="M130.52,134.47c-.29,0-.59,0-.9,.03-.31,.02-.61,.03-.9,.03-.36,0-.74,0-1.14-.03-.4-.02-.72-.05-.98-.08l-9.23-27.85c.47-.07,.96-.12,1.47-.14,.51-.02,.98-.03,1.41-.03,.47,0,.99,0,1.57,.03,.58,.02,1.07,.06,1.47,.14l7.71,25.9,7.98-25.9c.76-.11,1.65-.16,2.66-.16,.4,0,.85,0,1.36,.03,.51,.02,1.01,.06,1.52,.14l-10.8,33.5c-.51,1.48-1.03,2.73-1.57,3.75-.54,1.01-1.16,1.83-1.85,2.44-.69,.62-1.46,1.05-2.31,1.3-.85,.25-1.84,.38-2.96,.38-.83,0-1.66-.06-2.47-.19-.81-.13-1.53-.28-2.14-.46,0-.83,.07-1.57,.22-2.23,.14-.65,.36-1.3,.65-1.95,.33,.11,.77,.23,1.33,.35,.56,.13,1.17,.19,1.82,.19,.47,0,.91-.05,1.33-.14,.42-.09,.8-.27,1.17-.54,.36-.27,.7-.66,1.01-1.17,.31-.51,.61-1.19,.9-2.06l1.68-5.27Z"/></g></g></g></g></svg>