<svg width="109" height="109" viewBox="0 0 109 109" fill="none" xmlns="http://www.w3.org/2000/svg">
<g id="Capa_41" clip-path="url(#clip0_260_4910)">
<path id="Vector" d="M54.6024 108.607C84.354 108.607 108.472 84.4888 108.472 54.7372C108.472 24.9856 84.354 0.867188 54.6024 0.867188C24.8508 0.867188 0.732422 24.9856 0.732422 54.7372C0.732422 84.4888 24.8508 108.607 54.6024 108.607Z" fill="#1E1F1D"/>
<g id="Group">
<path id="Vector_2" d="M79.1916 57.877V89.457C79.1916 90.327 78.4816 91.037 77.6116 91.037H34.9716C34.1016 91.037 33.3916 90.327 33.3916 89.457V57.877" stroke="white" stroke-width="3.16" stroke-miterlimit="10"/>
<path id="Vector_3" d="M42.8625 49.9863H31.8125V57.8763H36.5525" stroke="white" stroke-width="3.16" stroke-miterlimit="10"/>
<path id="Vector_4" d="M76.0312 57.8763H80.7612V49.9863H76.0312" stroke="white" stroke-width="3.16" stroke-miterlimit="10"/>
<path id="Vector_5" d="M42.8613 49.9862C42.8613 51.8262 42.9313 54.7862 46.0213 56.3062C46.0213 56.3062 49.1813 57.2962 49.1813 59.4662V64.2062C49.1813 65.9462 50.5913 67.3662 52.3413 67.3662C54.0913 67.3662 55.5013 65.9562 55.5013 64.2062V61.0462C55.5013 59.3062 56.9113 57.8862 58.6613 57.8862C60.4113 57.8862 61.8213 59.2962 61.8213 61.0462V76.8363C61.8213 78.5763 63.2313 79.9962 64.9813 79.9962C66.7313 79.9962 68.1413 78.5863 68.1413 76.8363V57.8862C68.1413 56.4362 69.5213 54.7262 71.3013 54.7262C73.0813 54.7262 76.0413 53.8662 76.0413 51.5662V49.9862L74.4613 48.4062H44.4613L42.8813 49.9862H42.8613Z" stroke="white" stroke-width="3.16" stroke-miterlimit="10"/>
<path id="Vector_6" d="M31.582 19.3367C34.642 17.5167 38.592 18.5267 40.412 21.5767C41.112 22.7567 41.532 24.1267 41.212 25.9467C40.992 27.1967 41.542 28.5167 42.152 29.5267L46.102 36.1667C46.832 37.3867 48.412 37.7867 49.632 37.0667L54.062 34.4367C55.892 33.3467 58.272 33.9467 59.362 35.7867L64.992 45.2567" stroke="white" stroke-width="3.16" stroke-linejoin="round"/>
<path id="Vector_7" d="M34.2119 23.7568L35.5319 25.9768" stroke="white" stroke-width="3.16" stroke-linejoin="round"/>
<path id="Vector_8" d="M31.5819 19.3369C28.5219 21.1569 27.5219 25.1069 29.3419 28.1669C30.0419 29.3469 31.0419 30.3669 32.8019 30.9569C34.0019 31.3569 34.9019 32.4769 35.5019 33.4869L39.4519 40.1269C40.1819 41.3469 39.7819 42.9269 38.5519 43.6569L34.1219 46.2869" stroke="white" stroke-width="3.16" stroke-linejoin="round"/>
</g>
</g>
<defs>
<clipPath id="clip0_260_4910">
<rect width="107.73" height="107.73" fill="white" transform="translate(0.732422 0.867188)"/>
</clipPath>
</defs>
</svg>
