<svg width="108" height="108" viewBox="0 0 108 108" fill="none" xmlns="http://www.w3.org/2000/svg">
<g clip-path="url(#clip0_260_4882)">
<path d="M53.8622 107.877C83.6138 107.877 107.732 83.7583 107.732 54.0067C107.732 24.2551 83.6138 0.136719 53.8622 0.136719C24.1106 0.136719 -0.0078125 24.2551 -0.0078125 54.0067C-0.0078125 83.7583 24.1106 107.877 53.8622 107.877Z" fill="#1E1F1D"/>
<path d="M63.7221 38.6768L45.1221 57.2768" stroke="white" stroke-width="3.16" stroke-miterlimit="10"/>
<path d="M50.0225 62.1674L68.6225 43.5674" stroke="white" stroke-width="3.16" stroke-miterlimit="10"/>
<path d="M41.2823 59.2967L24.5723 75.8767L21.6323 76.8567L20.6523 77.8367L29.4623 86.6467L30.4423 85.6667L31.4223 82.7267L48.0623 66.0867L50.0923 62.2367L45.1923 57.3467L41.2823 59.2967Z" stroke="white" stroke-width="3.16" stroke-miterlimit="10"/>
<path d="M79.3827 48.4669C78.6427 47.7269 80.1627 45.3269 78.4027 43.5769C75.4227 40.5969 72.1927 40.1369 68.6827 43.6469C67.3727 42.3369 63.7827 38.7569 63.7827 38.7569C63.7827 38.7569 67.7027 32.8469 65.3427 30.4969C60.7227 25.8769 53.9027 25.2269 50.7727 24.9169C50.7727 24.9169 50.6027 23.2769 50.6227 22.5569C59.6227 20.7469 68.9627 20.4469 74.4827 25.9669L81.3327 32.8169C83.0127 34.4969 81.7127 37.1169 83.2927 38.6869C85.2727 40.6669 87.2327 38.7069 89.1627 40.6469L91.1227 42.6069L82.3127 51.4169L79.3727 48.4769L79.3827 48.4669Z" stroke="white" stroke-width="3.16" stroke-miterlimit="10"/>
</g>
<defs>
<clipPath id="clip0_260_4882">
<rect width="107.73" height="107.73" fill="white" transform="translate(-0.0078125 0.136719)"/>
</clipPath>
</defs>
</svg>
