<svg width="109" height="109" viewBox="0 0 109 109" fill="none" xmlns="http://www.w3.org/2000/svg">
<g id="Capa_41" clip-path="url(#clip0_260_4955)">
<path id="Vector" d="M54.1512 108.607C83.9028 108.607 108.021 84.4888 108.021 54.7372C108.021 24.9856 83.9028 0.867188 54.1512 0.867188C24.3997 0.867188 0.28125 24.9856 0.28125 54.7372C0.28125 84.4888 24.3997 108.607 54.1512 108.607Z" fill="#1E1F1D"/>
<path id="Vector_2" d="M38.2812 45.8076L43.1512 47.4376" stroke="white" stroke-width="3.25" stroke-linecap="round" stroke-linejoin="round"/>
<path id="Vector_3" d="M48.0215 49.0576L52.8915 50.6776" stroke="white" stroke-width="3.25" stroke-linecap="round" stroke-linejoin="round"/>
<path id="Vector_4" d="M48.0215 39.3174L52.8915 40.9474" stroke="white" stroke-width="3.25" stroke-linecap="round" stroke-linejoin="round"/>
<path id="Vector_5" d="M57.751 42.5674L62.621 44.1874" stroke="white" stroke-width="3.25" stroke-linecap="round" stroke-linejoin="round"/>
<path id="Vector_6" d="M57.751 32.8271L62.621 34.4571" stroke="white" stroke-width="3.25" stroke-linecap="round" stroke-linejoin="round"/>
<path id="Vector_7" d="M67.4912 36.0771L72.3612 37.6972" stroke="white" stroke-width="3.25" stroke-linecap="round" stroke-linejoin="round"/>
<path id="Vector_8" d="M57.7505 24.7168L38.2805 37.6968L18.8105 50.6768L51.2605 60.4168L70.7305 47.4368L90.2005 34.4568L57.7505 24.7168Z" stroke="white" stroke-width="3.25" stroke-linecap="round" stroke-linejoin="round"/>
<path id="Vector_9" d="M90.2015 34.457V58.787L70.7315 71.767L51.2615 84.747L18.8115 75.017V50.677" stroke="white" stroke-width="3.25" stroke-linecap="round" stroke-linejoin="round"/>
<path id="Vector_10" d="M51.2617 60.417V84.747" stroke="white" stroke-width="3.25" stroke-linecap="round" stroke-linejoin="round"/>
</g>
<defs>
<clipPath id="clip0_260_4955">
<rect width="107.73" height="107.73" fill="white" transform="translate(0.28125 0.867188)"/>
</clipPath>
</defs>
</svg>
