<svg width="109" height="108" viewBox="0 0 109 108" fill="none" xmlns="http://www.w3.org/2000/svg">
<g clip-path="url(#clip0_260_4833)">
<path d="M54.6307 107.877C84.3823 107.877 108.501 83.7583 108.501 54.0067C108.501 24.2551 84.3823 0.136719 54.6307 0.136719C24.8792 0.136719 0.760742 24.2551 0.760742 54.0067C0.760742 83.7583 24.8792 107.877 54.6307 107.877Z" fill="#1E1F1D"/>
<path d="M71.8811 32.5366H67.141C67.141 32.5366 59.3511 29.2466 57.9011 26.2166C57.3111 24.9766 57.8311 23.0566 59.6311 23.0566H84.3711C86.1611 23.0566 86.691 24.9766 86.101 26.2166C84.651 29.2466 76.6311 32.5366 76.6311 32.5366H75.0511" stroke="white" stroke-width="3.16" stroke-miterlimit="10"/>
<path d="M76.6206 32.5371V69.9571C76.6206 73.3871 76.0206 76.7771 74.8706 79.8471L73.3606 83.8671C72.8506 85.2371 70.9206 85.2371 70.4006 83.8671L68.8906 79.8471C67.7406 76.7771 67.1406 73.3871 67.1406 69.9571V32.5371" stroke="white" stroke-width="3.16" stroke-miterlimit="10"/>
<path d="M32.4004 70.1964C32.4004 73.5464 33.0004 76.9464 34.1504 79.9364L35.6604 83.9164C36.1804 85.2664 38.0904 85.2964 38.6104 83.9464L40.1204 80.0264C41.2704 77.0364 41.8704 73.7464 41.8704 70.3964V68.8564" stroke="white" stroke-width="3.16" stroke-miterlimit="10"/>
<path d="M41.8809 34.1162V42.0062" stroke="white" stroke-width="3.16" stroke-miterlimit="10"/>
<path d="M32.4004 34.1162V43.5862" stroke="white" stroke-width="3.16" stroke-miterlimit="10"/>
<path d="M41.8809 45.167V49.907" stroke="white" stroke-width="3.16" stroke-miterlimit="10"/>
<path d="M41.8809 53.0664V57.7964" stroke="white" stroke-width="3.16" stroke-miterlimit="10"/>
<path d="M41.8809 60.957V65.697" stroke="white" stroke-width="3.16" stroke-miterlimit="10"/>
<path d="M32.4004 46.7471V51.4871" stroke="white" stroke-width="3.16" stroke-miterlimit="10"/>
<path d="M32.4004 54.6465V59.3765" stroke="white" stroke-width="3.16" stroke-miterlimit="10"/>
<path d="M32.4004 62.5371V67.2771" stroke="white" stroke-width="3.16" stroke-miterlimit="10"/>
<path d="M24.7409 23.0566C23.6509 23.0566 22.7609 24.0566 22.9609 25.1566C23.8609 30.2566 30.3309 34.1066 37.1509 34.1066C43.9709 34.1066 50.4409 30.2566 51.3409 25.1566C51.5309 24.0566 50.6509 23.0566 49.5609 23.0566H24.7509H24.7409Z" stroke="white" stroke-width="3.16" stroke-miterlimit="10"/>
<path d="M27.6611 42.0068L46.6111 46.7468" stroke="white" stroke-width="3.16" stroke-miterlimit="10"/>
<path d="M27.6602 49.9062L46.6102 54.6462" stroke="white" stroke-width="3.16" stroke-miterlimit="10"/>
<path d="M27.6611 57.7969L46.6111 62.5369" stroke="white" stroke-width="3.16" stroke-miterlimit="10"/>
<path d="M27.6602 65.6963L46.6102 70.4363" stroke="white" stroke-width="3.16" stroke-miterlimit="10"/>
</g>
<defs>
<clipPath id="clip0_260_4833">
<rect width="107.73" height="107.73" fill="white" transform="translate(0.760742 0.136719)"/>
</clipPath>
</defs>
</svg>
