<svg width="109" height="108" viewBox="0 0 109 108" fill="none" xmlns="http://www.w3.org/2000/svg">
<g id="Capa_41" clip-path="url(#clip0_260_4920)">
<path id="Vector" d="M54.8348 107.877C84.5864 107.877 108.705 83.7583 108.705 54.0067C108.705 24.2551 84.5864 0.136719 54.8348 0.136719C25.0833 0.136719 0.964844 24.2551 0.964844 54.0067C0.964844 83.7583 25.0833 107.877 54.8348 107.877Z" fill="#1E1F1D"/>
<g id="Group">
<g id="Group_2">
<path id="Vector_2" d="M54.8346 74.7168C52.8246 74.7168 51.1846 76.3568 51.1846 78.3668C51.1846 80.3768 52.8246 82.0168 54.8346 82.0168C56.8446 82.0168 58.4846 80.3768 58.4846 78.3668C58.4846 76.3568 56.8446 74.7168 54.8346 74.7168ZM54.8346 80.7868C53.4946 80.7868 52.4146 79.6968 52.4146 78.3668C52.4146 77.0368 53.5046 75.9468 54.8346 75.9468C56.1646 75.9468 57.2546 77.0368 57.2546 78.3668C57.2546 79.6968 56.1646 80.7868 54.8346 80.7868Z" fill="black" stroke="white" stroke-miterlimit="10"/>
<path id="Vector_3" d="M69.0049 20.7666H40.6649C36.9949 20.7666 34.0049 23.7566 34.0049 27.4266V80.5766C34.0049 84.2466 36.9949 87.2366 40.6649 87.2366H69.0049C72.6749 87.2366 75.6649 84.2466 75.6649 80.5766V27.4266C75.6649 23.7566 72.6749 20.7666 69.0049 20.7666ZM74.4349 80.5766C74.4349 83.5666 71.9949 86.0066 69.0049 86.0066H40.6649C37.6749 86.0066 35.2349 83.5666 35.2349 80.5766V27.4266C35.2349 24.4366 37.6749 21.9966 40.6649 21.9966H69.0049C71.9949 21.9966 74.4349 24.4366 74.4349 27.4266V80.5766Z" fill="black" stroke="white" stroke-miterlimit="10"/>
<path id="Vector_4" d="M54.8346 33.8166C56.8446 33.8166 58.4846 32.1766 58.4846 30.1666C58.4846 28.1566 56.8446 26.5166 54.8346 26.5166C52.8246 26.5166 51.1846 28.1566 51.1846 30.1666C51.1846 32.1766 52.8246 33.8166 54.8346 33.8166ZM54.8346 27.7466C56.1746 27.7466 57.2546 28.8366 57.2546 30.1666C57.2546 31.4966 56.1646 32.5866 54.8346 32.5866C53.5046 32.5866 52.4146 31.4966 52.4146 30.1666C52.4146 28.8366 53.5046 27.7466 54.8346 27.7466Z" fill="black" stroke="white" stroke-miterlimit="10"/>
<path id="Vector_5" d="M61.7852 39.1465H47.8652C45.8952 39.1465 44.2852 40.7565 44.2852 42.7265V65.2765C44.2852 67.2465 45.8952 68.8565 47.8652 68.8565H61.7852C63.7652 68.8565 65.3652 67.2465 65.3652 65.2765V42.7265C65.3652 40.7565 63.7552 39.1465 61.7852 39.1465ZM64.1452 65.2765C64.1452 66.5765 63.0852 67.6265 61.7852 67.6265H47.8652C46.5652 67.6265 45.5152 66.5665 45.5152 65.2765V54.6165H64.1452V65.2765ZM64.1452 53.3865H45.5152V42.7265C45.5152 41.4265 46.5752 40.3765 47.8652 40.3765H61.7852C63.0852 40.3765 64.1452 41.4365 64.1452 42.7265V53.3865Z" fill="black" stroke="white" stroke-miterlimit="10"/>
</g>
<g id="Group_3">
<path id="Vector_6" d="M69.005 21.377H40.665C37.325 21.377 34.625 24.087 34.625 27.417V80.567C34.625 83.907 37.335 86.607 40.665 86.607H69.005C72.345 86.607 75.045 83.897 75.045 80.567V27.427C75.045 24.087 72.335 21.387 69.005 21.387V21.377ZM54.835 27.127C56.515 27.127 57.875 28.487 57.875 30.167C57.875 31.847 56.515 33.207 54.835 33.207C53.155 33.207 51.795 31.847 51.795 30.167C51.795 28.487 53.155 27.127 54.835 27.127ZM54.835 81.397C53.155 81.397 51.795 80.037 51.795 78.357C51.795 76.677 53.155 75.317 54.835 75.317C56.515 75.317 57.875 76.677 57.875 78.357C57.875 80.037 56.515 81.397 54.835 81.397Z" stroke="white" stroke-linecap="round" stroke-linejoin="round"/>
<path id="Vector_7" d="M64.7545 54.0066H44.9045M61.7845 39.7666H47.8645C46.2245 39.7666 44.8945 41.0966 44.8945 42.7366V65.2866C44.8945 66.9266 46.2245 68.2566 47.8645 68.2566H61.7845C63.4245 68.2566 64.7545 66.9266 64.7545 65.2866V42.7366C64.7545 41.0966 63.4245 39.7666 61.7845 39.7666Z" stroke="white" stroke-linecap="round" stroke-linejoin="round"/>
</g>
</g>
</g>
<defs>
<clipPath id="clip0_260_4920">
<rect width="107.73" height="107.73" fill="white" transform="translate(0.964844 0.136719)"/>
</clipPath>
</defs>
</svg>
