<svg width="109" height="108" viewBox="0 0 109 108" fill="none" xmlns="http://www.w3.org/2000/svg">
<g id="Capa_41" clip-path="url(#clip0_260_4946)">
<path id="Vector" d="M54.1512 107.877C83.9028 107.877 108.021 83.7583 108.021 54.0067C108.021 24.2551 83.9028 0.136719 54.1512 0.136719C24.3997 0.136719 0.28125 24.2551 0.28125 54.0067C0.28125 83.7583 24.3997 107.877 54.1512 107.877Z" fill="#1E1F1D"/>
<path id="Vector_2" d="M29.0211 61.3568H17.8711V45.4268H41.7611V61.3568" stroke="white" stroke-width="3.19" stroke-miterlimit="10"/>
<path id="Vector_3" d="M41.7617 45.4268H67.2517V61.3568" stroke="white" stroke-width="3.19" stroke-miterlimit="10"/>
<path id="Vector_4" d="M67.251 45.4268H91.151V61.3568H78.401" stroke="white" stroke-width="3.19" stroke-miterlimit="10"/>
<path id="Vector_5" d="M29.0215 45.4271V29.4971H54.5115V45.4271" stroke="white" stroke-width="3.19" stroke-miterlimit="10"/>
<path id="Vector_6" d="M54.5117 29.4971H78.4017V45.4271" stroke="white" stroke-width="3.19" stroke-miterlimit="10"/>
<path id="Vector_7" d="M54.5115 61.3564H29.0215V77.2864H54.5115V61.3564Z" stroke="white" stroke-width="3.19" stroke-miterlimit="10"/>
<path id="Vector_8" d="M54.5117 77.2864H78.4017V61.3564H54.5117" stroke="white" stroke-width="3.19" stroke-miterlimit="10"/>
</g>
<defs>
<clipPath id="clip0_260_4946">
<rect width="107.73" height="107.73" fill="white" transform="translate(0.28125 0.136719)"/>
</clipPath>
</defs>
</svg>
