<svg width="108" height="109" viewBox="0 0 108 109" fill="none" xmlns="http://www.w3.org/2000/svg">
<g id="Capa_41" clip-path="url(#clip0_260_4889)">
<path id="Vector" d="M53.8622 108.607C83.6138 108.607 107.732 84.4888 107.732 54.7372C107.732 24.9856 83.6138 0.867188 53.8622 0.867188C24.1106 0.867188 -0.0078125 24.9856 -0.0078125 54.7372C-0.0078125 84.4888 24.1106 108.607 53.8622 108.607Z" fill="#1E1F1D"/>
<g id="Group">
<path id="Vector_2" d="M39.3525 49.4874L54.1625 69.7774C54.7025 70.5274 54.5425 71.5774 53.7925 72.1174L45.6725 78.0374C44.9225 78.5774 43.8825 78.4174 43.3325 77.6774L34.4525 65.4974C33.9025 64.7474 32.8625 64.5874 32.1125 65.1374L30.7625 66.1274C29.6625 66.9374 29.2325 68.2374 29.5225 69.5474L31.5925 79.0574C31.7925 79.9474 32.3525 80.7174 33.1325 81.1874L35.5125 82.5874C36.5525 83.1974 36.6025 84.6774 35.6125 85.3974L33.0825 87.2474C29.2725 90.0274 24.4125 88.6074 23.1125 84.1574L18.6425 66.4474C18.1425 64.4474 18.9325 62.3274 20.6225 61.0974L37.0125 49.1374C37.7625 48.5974 38.8125 48.7574 39.3525 49.5074V49.4874Z" stroke="white" stroke-width="3.16" stroke-miterlimit="10"/>
<path id="Vector_3" d="M54.8922 65.0976L59.8222 64.7676L60.6922 59.1176L65.5222 58.8876L66.3922 53.2376L71.2222 52.9976L72.0922 47.3576L76.9122 47.1176L77.7922 41.4676L82.6122 41.2376L83.4822 35.5876L88.3122 35.3476L89.6022 28.7176L82.3622 20.8076L40.5322 49.8676" stroke="white" stroke-width="3.16" stroke-miterlimit="10"/>
</g>
</g>
<defs>
<clipPath id="clip0_260_4889">
<rect width="107.73" height="107.73" fill="white" transform="translate(-0.0078125 0.867188)"/>
</clipPath>
</defs>
</svg>
