<svg width="109" height="109" viewBox="0 0 109 109" fill="none" xmlns="http://www.w3.org/2000/svg">
<g id="Capa_41" clip-path="url(#clip0_260_4894)">
<path id="Vector" d="M54.372 108.607C84.1235 108.607 108.242 84.4888 108.242 54.7372C108.242 24.9856 84.1235 0.867188 54.372 0.867188C24.6204 0.867188 0.501953 24.9856 0.501953 54.7372C0.501953 84.4888 24.6204 108.607 54.372 108.607Z" fill="#1E1F1D"/>
<g id="Group">
<path id="Vector_2" d="M54.3621 71.7471C52.4321 71.7471 47.9121 78.8371 47.9121 81.8671C47.9121 85.4271 50.8121 88.3271 54.3721 88.3271C57.9321 88.3271 60.8321 85.4271 60.8321 81.8671C60.8321 78.9571 56.6121 71.7871 54.3721 71.7471H54.3621ZM54.3621 85.8771C52.1421 85.8771 50.3421 84.0771 50.3421 81.8571C50.3421 79.9371 53.1321 75.7071 54.3821 74.4171C55.6121 75.6471 58.3721 79.8371 58.3721 81.8571C58.3721 84.0771 56.5721 85.8771 54.3521 85.8771H54.3621Z" fill="white"/>
<path id="Vector_3" d="M85.8421 43.9975H78.4221C77.7521 43.9975 77.2021 44.5475 77.2021 45.2175V48.0975H67.3722V41.9675C67.3722 41.2975 66.8221 40.7475 66.1521 40.7475H60.4721V35.2475C60.4721 34.5775 59.9221 34.0275 59.2521 34.0275H55.5921V28.9975H69.3321C71.3521 28.9975 72.9921 27.3575 72.9921 25.3375V24.8075C72.9921 22.7875 71.3521 21.1475 69.3321 21.1475H39.4221C37.4021 21.1475 35.7621 22.7875 35.7621 24.8075V25.3375C35.7621 27.3575 37.4021 28.9975 39.4221 28.9975H53.1621V34.0275H49.5021C48.8321 34.0275 48.2821 34.5775 48.2821 35.2475V40.7475H42.6021C41.9321 40.7475 41.3821 41.2975 41.3821 41.9675V48.0975H31.5621V45.2175C31.5621 44.5475 31.0121 43.9975 30.3421 43.9975H22.9221C22.2521 43.9975 21.7021 44.5475 21.7021 45.2175V71.7475C21.7021 72.4175 22.2521 72.9675 22.9221 72.9675H30.3421C31.0121 72.9675 31.5621 72.4175 31.5621 71.7475V69.3475H77.2221V71.7475C77.2221 72.4175 77.7722 72.9675 78.4422 72.9675H85.8622C86.5322 72.9675 87.0822 72.4175 87.0822 71.7475V45.2175C87.0822 44.5475 86.5322 43.9975 85.8622 43.9975H85.8421ZM38.1921 25.3375V24.8075C38.1921 24.1375 38.7421 23.5875 39.4121 23.5875H69.3221C69.9921 23.5875 70.5421 24.1375 70.5421 24.8075V25.3375C70.5421 26.0075 69.9921 26.5575 69.3221 26.5575H39.4121C38.7421 26.5575 38.1921 26.0075 38.1921 25.3375ZM50.7021 36.4675H58.0221V40.7475H50.7021V36.4675ZM43.8021 43.1875H64.9321V49.1675C64.9321 54.9875 60.1921 59.7275 54.3721 59.7275C48.5521 59.7275 43.8121 54.9875 43.8121 49.1675V43.1875H43.8021ZM29.0921 70.5275H24.1121V46.4375H29.0921V70.5275ZM41.9321 66.9075H31.5321V50.5375H41.4321C42.1221 57.0675 47.6521 62.1675 54.3621 62.1675C61.0721 62.1675 66.6021 57.0575 67.2921 50.5375H77.1922V66.9075H41.9421H41.9321ZM84.6121 70.5275H79.6321V46.4375H84.6121V70.5275Z" fill="white"/>
</g>
</g>
<defs>
<clipPath id="clip0_260_4894">
<rect width="107.73" height="107.73" fill="white" transform="translate(0.501953 0.867188)"/>
</clipPath>
</defs>
</svg>
