<svg width="109" height="109" viewBox="0 0 109 109" fill="none" xmlns="http://www.w3.org/2000/svg">
<g id="Capa_41" clip-path="url(#clip0_260_4937)">
<path id="Vector" d="M54.8348 108.607C84.5864 108.607 108.705 84.4888 108.705 54.7372C108.705 24.9856 84.5864 0.867188 54.8348 0.867188C25.0833 0.867188 0.964844 24.9856 0.964844 54.7372C0.964844 84.4888 25.0833 108.607 54.8348 108.607Z" fill="#1E1F1D"/>
<g id="Group">
<path id="Vector_2" d="M70.2943 64.2477C70.1043 64.0277 69.1243 62.9377 68.3043 62.9377H67.1843V22.2177C67.1843 19.4877 64.5743 17.0977 61.6043 17.0977C60.1643 17.0977 58.6343 17.7577 57.5243 18.8677C56.5543 19.8377 56.0243 21.0177 56.0243 22.2077V62.9277H53.6343L53.6143 22.1977C53.6143 19.4777 51.0143 17.0977 48.0443 17.0977C46.7243 17.0977 45.3543 17.6377 44.2643 18.5877C43.1243 19.5877 42.4743 20.8977 42.4743 22.2077V62.9377H41.3443C40.5243 62.9377 39.5443 64.0277 39.3543 64.2377C38.8843 64.7777 38.3543 65.5777 38.4743 66.3777L40.7243 78.1277C40.9443 79.6877 41.8043 80.6177 43.0143 80.6177H45.1843V84.7277C45.1843 85.7677 45.6043 86.7777 46.3343 87.5177C47.0843 88.2577 48.0743 88.6677 49.1243 88.6777H50.4743C50.8643 90.2177 52.0943 92.3577 54.8143 92.3577C57.5343 92.3577 58.7943 90.2177 59.1643 88.6677H60.5043C61.5543 88.6677 62.5443 88.2577 63.2943 87.5177C64.0343 86.7777 64.4443 85.7777 64.4543 84.7277V80.6177H66.6243C67.8343 80.6177 68.6943 79.6877 68.9043 78.1577L71.1642 66.3377C71.2743 65.5777 70.7443 64.7777 70.2743 64.2377L70.2943 64.2477ZM58.5443 19.8977C59.3743 19.0677 60.5443 18.5477 61.6043 18.5477C63.5543 18.5477 65.7343 20.1177 65.7343 22.2177V62.9377H62.4643V23.4477C62.4643 23.0477 62.1443 22.7277 61.7443 22.7277C61.3443 22.7277 61.0243 23.0477 61.0243 23.4477V62.9477H57.4843V22.2177C57.4843 21.4177 57.8643 20.5877 58.5543 19.8977H58.5443ZM45.2243 19.6877C46.0343 18.9777 47.0943 18.5477 48.0543 18.5477C49.9943 18.5477 52.1743 20.1177 52.1743 22.2077L52.1943 62.9377H48.7843V23.4477C48.7843 23.0477 48.4643 22.7277 48.0643 22.7277C47.6643 22.7277 47.3443 23.0477 47.3443 23.4477V62.9477H43.9343V22.2077C43.9343 21.3277 44.4043 20.3977 45.2343 19.6777L45.2243 19.6877ZM54.8343 90.9277C53.0643 90.9277 52.3143 89.5977 52.0043 88.6877H57.6743C57.3843 89.5877 56.6443 90.9277 54.8343 90.9277ZM63.0243 84.7477C63.0243 85.4176 62.7643 86.0377 62.2943 86.5177C61.8243 86.9877 61.1943 87.2477 60.5343 87.2477H58.5843H49.1543C48.4843 87.2477 47.8543 86.9877 47.3843 86.5177C46.9143 86.0477 46.6543 85.4077 46.6543 84.7477V80.6377H63.0343V84.7477H63.0243ZM67.4943 77.9477C67.4243 78.4177 67.2343 79.1977 66.6343 79.1977H43.0143C42.4243 79.1977 42.2243 78.4177 42.1543 77.9177L39.9043 66.1677C39.8743 65.7577 40.9443 64.5777 41.4043 64.4077H68.2543C68.7143 64.5777 69.7843 65.7577 69.7643 66.1277L67.5043 77.9477H67.4943Z" fill="black" stroke="white" stroke-width="0.48" stroke-miterlimit="10"/>
<path id="Vector_3" d="M66.4547 63.6681H41.3447C40.7747 63.6681 39.0547 65.3281 39.1847 66.2481L41.4447 78.0381C41.5847 79.0481 42.0547 79.9081 43.0147 79.9081H66.6347C67.5947 79.9081 68.0647 79.0481 68.2047 78.0381L70.4647 66.2481C70.5947 65.3281 68.8647 63.6681 68.3047 63.6681H66.4547ZM66.4547 63.6681V22.2181C66.4547 19.7981 64.0247 17.8281 61.5947 17.8281C59.2447 17.8281 56.7347 19.8781 56.7447 22.2181V63.6681M52.9047 63.6681L52.8847 22.2081C52.8847 19.7881 50.4547 17.8281 48.0347 17.8281C45.6947 17.8281 43.1847 19.8681 43.1847 22.2181V63.6681" stroke="white" stroke-width="1.45" stroke-linecap="round" stroke-linejoin="round"/>
<path id="Vector_4" d="M45.9141 79.8975V84.7375C45.9141 85.5875 46.2541 86.4075 46.8541 87.0175C47.4541 87.6175 48.2741 87.9575 49.1341 87.9575H51.0841C51.0841 87.9575 51.5141 91.6375 54.8341 91.6375C58.1541 91.6375 58.5841 87.9475 58.5841 87.9475H60.5341C62.3141 87.9475 63.7541 86.5075 63.7541 84.7275V79.8975" stroke="white" stroke-width="1.45" stroke-linecap="round" stroke-linejoin="round"/>
<path id="Vector_5" d="M51.084 87.958H58.574" stroke="white" stroke-width="1.45" stroke-linecap="round" stroke-linejoin="round"/>
<path id="Vector_6" d="M48.0547 63.6673V23.4473" stroke="white" stroke-width="1.45" stroke-linecap="round" stroke-linejoin="round"/>
<path id="Vector_7" d="M61.7344 63.6673V23.4473" stroke="white" stroke-width="1.45" stroke-linecap="round" stroke-linejoin="round"/>
</g>
</g>
<defs>
<clipPath id="clip0_260_4937">
<rect width="107.73" height="107.73" fill="white" transform="translate(0.964844 0.867188)"/>
</clipPath>
</defs>
</svg>
