<svg width="109" height="108" viewBox="0 0 109 108" fill="none" xmlns="http://www.w3.org/2000/svg">
<g id="Capa_41" clip-path="url(#clip0_260_4934)">
<path id="Vector" d="M54.493 107.877C84.2446 107.877 108.363 83.7583 108.363 54.0067C108.363 24.2551 84.2446 0.136719 54.493 0.136719C24.7415 0.136719 0.623047 24.2551 0.623047 54.0067C0.623047 83.7583 24.7415 107.877 54.493 107.877Z" fill="#1E1F1D"/>
<path id="Vector_2" d="M92.4227 50.307L72.2527 42.647L92.4227 34.987C92.7327 34.867 92.9427 34.567 92.9427 34.237C92.9427 33.907 92.7327 33.597 92.4227 33.487L54.7827 19.197C54.6027 19.127 54.3927 19.127 54.2127 19.197L16.5727 33.487C16.2627 33.607 16.0527 33.907 16.0527 34.237C16.0527 34.567 16.2627 34.877 16.5727 34.987L36.7427 42.647L16.5727 50.307C16.2627 50.427 16.0527 50.727 16.0527 51.057V56.947C16.0527 57.287 16.2627 57.587 16.5727 57.697L36.7427 65.357L16.5727 73.017C16.2627 73.137 16.0527 73.437 16.0527 73.767C16.0527 74.097 16.2627 74.407 16.5727 74.517L54.2127 88.807C54.3027 88.837 54.4027 88.857 54.5027 88.857C54.6027 88.857 54.6927 88.837 54.7927 88.807L92.4327 74.517C92.7427 74.397 92.9527 74.097 92.9527 73.767C92.9527 73.437 92.7427 73.127 92.4327 73.017L72.2627 65.357L92.4327 57.697C92.7427 57.577 92.9527 57.277 92.9527 56.947V51.057C92.9527 50.717 92.7427 50.417 92.4327 50.307H92.4227ZM54.4927 20.807L89.8627 34.237L54.4927 47.667L19.1227 34.237L54.4927 20.807ZM39.0027 43.507L54.2027 49.277C54.2927 49.317 54.3927 49.327 54.4927 49.327C54.5927 49.327 54.6827 49.307 54.7827 49.277L69.9827 43.507L89.8627 51.057L54.4927 64.487L19.1227 51.057L39.0027 43.507ZM89.8627 73.767L54.4927 87.197L19.1227 73.767L39.0027 66.217L54.2027 71.987C54.2927 72.017 54.3927 72.037 54.4927 72.037C54.5927 72.037 54.6827 72.017 54.7827 71.987L69.9827 66.217L89.8627 73.767ZM54.4927 70.377L17.6527 56.387V52.227L54.2027 66.107C54.2927 66.137 54.3927 66.157 54.4927 66.157C54.5927 66.157 54.6827 66.137 54.7827 66.107L91.3327 52.227V56.387L54.4927 70.377Z" fill="white" stroke="white" stroke-miterlimit="10"/>
</g>
<defs>
<clipPath id="clip0_260_4934">
<rect width="107.73" height="107.73" fill="white" transform="translate(0.623047 0.136719)"/>
</clipPath>
</defs>
</svg>
