<svg width="109" height="108" viewBox="0 0 109 108" fill="none" xmlns="http://www.w3.org/2000/svg">
<g id="Capa_41" clip-path="url(#clip0_260_4899)">
<path id="Vector" d="M54.6024 107.877C84.354 107.877 108.472 83.7583 108.472 54.0067C108.472 24.2551 84.354 0.136719 54.6024 0.136719C24.8508 0.136719 0.732422 24.2551 0.732422 54.0067C0.732422 83.7583 24.8508 107.877 54.6024 107.877Z" fill="#1E1F1D"/>
<g id="Group">
<path id="Vector_2" d="M49.067 32.682L39.5918 42.1572L69.5943 72.1598L79.0696 62.6845L49.067 32.682Z" stroke="white" stroke-width="3.16" stroke-miterlimit="10"/>
<path id="Vector_3" d="M73.783 67.3963L77.493 70.5863C78.723 71.8163 78.723 74.0863 77.493 75.3263L72.753 80.0663C70.583 81.9763 67.673 81.2963 66.433 80.0663L50.643 65.8563C48.503 63.7163 45.563 64.6263 44.323 65.8563L39.583 70.5963" stroke="white" stroke-width="3.16" stroke-miterlimit="10"/>
<path id="Vector_4" d="M34.2003 69.6601L21.5714 82.289C20.3373 83.523 20.3373 85.5238 21.5714 86.7579L23.4169 88.6034C24.651 89.8375 26.6518 89.8375 27.8858 88.6034L40.5148 75.9745C41.7488 74.7405 41.7488 72.7397 40.5148 71.5056L38.6692 69.6601C37.4352 68.426 35.4344 68.426 34.2003 69.6601Z" stroke="white" stroke-width="3.16" stroke-miterlimit="10"/>
<path id="Vector_5" d="M51.3623 31.1966L63.9923 18.4766" stroke="white" stroke-width="3.16" stroke-miterlimit="10"/>
<path id="Vector_6" d="M58.543 37.4263L68.023 27.9463" stroke="white" stroke-width="3.16" stroke-miterlimit="10"/>
<path id="Vector_7" d="M68.0225 46.8968L77.4925 37.4268" stroke="white" stroke-width="3.16" stroke-miterlimit="10"/>
<path id="Vector_8" d="M74.3428 53.2161L88.5528 38.9961" stroke="white" stroke-width="3.16" stroke-miterlimit="10"/>
<path id="Vector_9" d="M63.2832 42.1568L68.0232 37.4268" stroke="white" stroke-width="3.16" stroke-miterlimit="10"/>
</g>
</g>
<defs>
<clipPath id="clip0_260_4899">
<rect width="107.73" height="107.73" fill="white" transform="translate(0.732422 0.136719)"/>
</clipPath>
</defs>
</svg>
