<svg width="109" height="108" viewBox="0 0 109 108" fill="none" xmlns="http://www.w3.org/2000/svg">
<g clip-path="url(#clip0_260_4869)">
<path d="M54.372 107.877C84.1235 107.877 108.242 83.7583 108.242 54.0067C108.242 24.2551 84.1235 0.136719 54.372 0.136719C24.6204 0.136719 0.501953 24.2551 0.501953 54.0067C0.501953 83.7583 24.6204 107.877 54.372 107.877Z" fill="#1E1F1D"/>
<path d="M87.722 63.6764H85.702V58.7264C85.702 49.0164 77.8019 41.1164 68.0919 41.1164H61.082C60.972 38.9464 59.192 37.2164 57.002 37.2164H54.362V32.3264H65.652C66.002 32.3264 66.332 32.1864 66.572 31.9264C66.812 31.6764 66.932 31.3264 66.912 30.9864C66.652 27.2764 63.552 24.3664 59.852 24.3664H56.692C56.132 21.5164 53.192 19.3564 49.642 19.3564C46.092 19.3564 43.152 21.5164 42.592 24.3664H39.432C35.732 24.3664 32.632 27.2764 32.372 30.9864C32.352 31.3364 32.472 31.6764 32.712 31.9264C32.952 32.1764 33.282 32.3264 33.632 32.3264H44.922V37.2164H42.282C40.092 37.2164 38.302 38.9464 38.202 41.1164H28.022C27.442 37.7264 24.682 35.1064 21.122 34.8064C20.772 34.7764 20.422 34.8964 20.162 35.1364C19.902 35.3764 19.752 35.7064 19.752 36.0664V61.3364C19.752 61.6864 19.902 62.0264 20.162 62.2664C20.392 62.4764 20.702 62.5964 21.012 62.5964C21.052 62.5964 21.082 62.5964 21.122 62.5964C24.702 62.2964 27.482 59.6364 28.032 56.2164H38.222C38.432 58.2864 40.162 59.9064 42.282 59.9064H56.992C59.112 59.9064 60.842 58.2764 61.052 56.2164H68.082C69.472 56.2164 70.602 57.3464 70.602 58.7364V63.6864H68.372C67.672 63.6864 67.112 64.2464 67.112 64.9464V71.0764C67.112 71.7764 67.672 72.3364 68.372 72.3364H87.702C88.4019 72.3364 88.962 71.7764 88.962 71.0764V64.9464C88.962 64.2464 88.4019 63.6864 87.702 63.6864L87.722 63.6764ZM49.642 21.8764C51.752 21.8764 53.542 22.9264 54.102 24.3664H45.182C45.742 22.9264 47.532 21.8764 49.642 21.8764ZM39.442 26.8864H59.852C61.7719 26.8864 63.432 28.0964 64.102 29.8164H35.192C35.862 28.0964 37.522 26.8864 39.442 26.8864ZM47.442 32.3364H51.842V37.2264H47.442V32.3364ZM28.142 43.6464H38.182V53.7064H28.142V43.6464ZM25.622 54.9864C25.622 57.1964 24.252 59.0664 22.262 59.7964V37.6264C24.242 38.3464 25.622 40.2264 25.622 42.4364V54.9964V54.9864ZM58.582 55.8064C58.582 56.6864 57.872 57.3964 56.992 57.3964H42.282C41.402 57.3964 40.692 56.6864 40.692 55.8064V41.3364C40.692 40.4564 41.402 39.7464 42.282 39.7464H56.992C57.872 39.7464 58.582 40.4564 58.582 41.3364V55.8064ZM68.0919 53.7064H61.102V43.6464H68.0919C76.4119 43.6464 83.182 50.4164 83.182 58.7364V63.6864H73.122V58.7364C73.122 55.9664 70.8619 53.7064 68.0919 53.7064ZM86.452 69.8164H69.632V66.1964H86.452V69.8164Z" fill="white"/>
<path d="M83.352 75.3867H80.832V77.2767H83.352V75.3867Z" fill="white"/>
<path d="M83.352 80.4365H80.832V83.5965H83.352V80.4365Z" fill="white"/>
<path d="M83.352 86.7568H80.832V88.6468H83.352V86.7568Z" fill="white"/>
<path d="M78.3218 75.3867H75.8018V77.2767H78.3218V75.3867Z" fill="white"/>
<path d="M78.3218 80.4365H75.8018V83.5965H78.3218V80.4365Z" fill="white"/>
<path d="M78.3218 86.7568H75.8018V88.6468H78.3218V86.7568Z" fill="white"/>
<path d="M73.2915 75.3867H70.7715V77.2767H73.2915V75.3867Z" fill="white"/>
<path d="M73.2915 80.4365H70.7715V83.5965H73.2915V80.4365Z" fill="white"/>
<path d="M73.2915 86.7568H70.7715V88.6468H73.2915V86.7568Z" fill="white"/>
</g>
<defs>
<clipPath id="clip0_260_4869">
<rect width="107.73" height="107.73" fill="white" transform="translate(0.501953 0.136719)"/>
</clipPath>
</defs>
</svg>
