<svg width="109" height="109" viewBox="0 0 109 109" fill="none" xmlns="http://www.w3.org/2000/svg">
<g id="Capa_41" clip-path="url(#clip0_260_4931)">
<path id="Vector" d="M54.493 108.607C84.2446 108.607 108.363 84.4888 108.363 54.7372C108.363 24.9856 84.2446 0.867188 54.493 0.867188C24.7415 0.867188 0.623047 24.9856 0.623047 54.7372C0.623047 84.4888 24.7415 108.607 54.493 108.607Z" fill="#1E1F1D"/>
<path id="Vector_2" d="M88.5433 20.7668H58.2133C57.9433 20.7668 57.6933 20.8968 57.5433 21.1168L19.7533 76.3268C19.6633 76.4568 19.6133 76.6168 19.6133 76.7868V87.8968C19.6133 88.3468 19.9733 88.7068 20.4233 88.7068H54.4833C54.7733 88.7068 55.0333 88.5468 55.1733 88.3168L89.2333 31.8868C89.3133 31.7568 89.3533 31.6168 89.3533 31.4668V21.5668C89.3533 21.1168 88.9933 20.7568 88.5433 20.7568V20.7668ZM53.6833 87.0868H21.2333V77.5868H53.6833V87.0868ZM55.2933 84.9968V77.0068L60.8133 68.0568C61.0433 67.6768 60.9333 67.1768 60.5533 66.9468C60.1733 66.7168 59.6733 66.8268 59.4433 67.2068L54.0333 75.9668H21.9633L58.6433 22.3768H87.1033L65.7333 57.0268C65.5033 57.4068 65.6133 57.9068 65.9933 58.1368C66.1233 58.2168 66.2733 58.2568 66.4133 58.2568C66.6833 58.2568 66.9433 58.1168 67.1033 57.8768L87.7433 24.4168V31.2468L55.3033 84.9968H55.2933Z" fill="white" stroke="white" stroke-miterlimit="10"/>
</g>
<defs>
<clipPath id="clip0_260_4931">
<rect width="107.73" height="107.73" fill="white" transform="translate(0.623047 0.867188)"/>
</clipPath>
</defs>
</svg>
