<svg width="109" height="109" viewBox="0 0 109 109" fill="none" xmlns="http://www.w3.org/2000/svg">
<g id="Capa_41" clip-path="url(#clip0_260_4852)">
<path id="Vector" d="M54.6307 108.607C84.3823 108.607 108.501 84.4888 108.501 54.7372C108.501 24.9856 84.3823 0.867188 54.6307 0.867188C24.8792 0.867188 0.760742 24.9856 0.760742 54.7372C0.760742 84.4888 24.8792 108.607 54.6307 108.607Z" fill="#1E1F1D"/>
<g id="Group">
<path id="Vector_2" d="M68.0508 77.627V91.847" stroke="white" stroke-width="3.16" stroke-linejoin="round"/>
<path id="Vector_3" d="M39.6211 77.627V91.847" stroke="white" stroke-width="3.16" stroke-linejoin="round"/>
<path id="Vector_4" d="M72.7909 53.9473H75.9509V61.8473L72.7909 65.0073V66.5873C72.7909 68.6573 72.3009 72.8573 71.2109 74.4873C70.1309 76.1173 64.8909 80.8073 64.8909 80.8073C62.6309 82.9673 59.7609 83.9673 56.9909 83.9673H50.6709C47.9109 83.9673 45.0309 82.9773 42.7709 80.8073C42.7709 80.8073 37.5409 76.1173 36.4509 74.4873C35.3709 72.8573 34.8709 68.6573 34.8709 66.5873V65.0073L31.7109 61.8473V53.9473H34.8709" stroke="white" stroke-width="3.16" stroke-linejoin="round"/>
<path id="Vector_5" d="M49.1016 31.837V17.627H58.5716V31.837" stroke="white" stroke-width="3.16" stroke-linejoin="round"/>
<path id="Vector_6" d="M80.6812 49.207H26.9912" stroke="white" stroke-width="3.16" stroke-linejoin="round"/>
<path id="Vector_7" d="M44.3613 27.0973V19.1973C36.8613 21.6973 31.7313 27.0273 31.7313 34.9873V41.3073L28.5713 42.8873V46.0473" stroke="white" stroke-width="3.16" stroke-linejoin="round"/>
<path id="Vector_8" d="M63.3105 27.0973V19.1973C70.8105 21.6973 75.9405 27.0273 75.9405 34.9873V41.3073L79.1005 42.8873V46.0473" stroke="white" stroke-width="3.16" stroke-linejoin="round"/>
</g>
</g>
<defs>
<clipPath id="clip0_260_4852">
<rect width="107.73" height="107.73" fill="white" transform="translate(0.760742 0.867188)"/>
</clipPath>
</defs>
</svg>
