<svg xmlns="http://www.w3.org/2000/svg" width="55.287" height="55.287" viewBox="0 0 55.287 55.287"><path d="M102.707,56.278a67.166,67.166,0,0,0,11.721.937,67.166,67.166,0,0,0,11.721-.937c4.514-.837,6.707-2.037,6.707-3.67,0-3.637-11.584-4.607-18.429-4.607S96,48.971,96,52.607C96,54.24,98.194,55.441,102.707,56.278Zm11.721-6.435c10.214,0,16.2,1.8,16.578,2.753-.088.141-.823,1.06-5.192,1.869a65.207,65.207,0,0,1-11.386.906,65.243,65.243,0,0,1-11.386-.906c-4.381-.812-5.11-1.736-5.192-1.847C98.259,51.639,104.24,49.843,114.429,49.843Z" transform="translate(-86.786 -44.314)" fill="#fff"/><path d="M71.287,28.9a.921.921,0,0,0-.921-.921H67.6V24.293C67.6,18.906,55.257,16,43.643,16s-23.958,2.906-23.958,8.293v3.686H16.921A.921.921,0,0,0,16,28.9v4.607a27.616,27.616,0,0,0,3.686,13.772V62.994c0,5.387,12.344,8.293,23.958,8.293S67.6,68.38,67.6,62.994V47.279a27.617,27.617,0,0,0,3.686-13.772ZM35.35,58.386H51.936v1.843H35.35Zm18.383-1.152a.909.909,0,0,0-.875-.691H34.429a.909.909,0,0,0-.875.691,25.91,25.91,0,0,1-12.025-10.46V27.607a13.81,13.81,0,0,0,3.686,2.09V46.408a5.529,5.529,0,1,0,11.057,0V40.879a2.764,2.764,0,0,1,5.529,0v1.843a5.529,5.529,0,1,0,11.057,0V40.879a2.767,2.767,0,0,1,2.764-2.764,4.613,4.613,0,0,0,4.607-4.607V30.373a16.608,16.608,0,0,0,5.529-2.736V46.775a25.909,25.909,0,0,1-12.025,10.46ZM43.643,32.586A60.249,60.249,0,0,0,58.386,30.9v2.608a2.767,2.767,0,0,1-2.764,2.764,4.613,4.613,0,0,0-4.607,4.607v1.843a3.686,3.686,0,0,1-7.372,0V40.879a4.607,4.607,0,1,0-9.214,0v5.529a3.686,3.686,0,0,1-7.372,0V30.362A56.67,56.67,0,0,0,43.643,32.586Zm0-14.743c13.032,0,22.115,3.4,22.115,6.45,0,1.558-2.572,3.29-6.712,4.52a56.287,56.287,0,0,1-15.4,1.93c-6.632,0-12.9-.921-17.184-2.525h0c-3.087-1.154-4.93-2.622-4.93-3.925C21.529,21.242,30.611,17.843,43.643,17.843Zm-25.8,11.979h1.843V43.051a25.79,25.79,0,0,1-1.843-9.544Zm25.8,39.622c-13.032,0-22.115-3.4-22.115-6.45V50.051A27.719,27.719,0,0,0,33.507,59.21v1.941a.921.921,0,0,0,.921.921H52.858a.921.921,0,0,0,.921-.921V59.21a27.719,27.719,0,0,0,11.979-9.159V62.994C65.758,66.045,56.676,69.444,43.643,69.444Zm25.8-35.936A25.791,25.791,0,0,1,67.6,43.051V29.822h1.843Z" transform="translate(-16 -16)" fill="#fff"/></svg>