<svg xmlns="http://www.w3.org/2000/svg" width="55.286" height="55.287" viewBox="0 0 55.286 55.287"><path d="M66.714,16H49.976a2.647,2.647,0,0,0-2.519,1.843H38.873a2.6,2.6,0,0,0-2.485,1.843h-8.54a2.632,2.632,0,0,0-2.629,2.629v.135h-1.39a14.6,14.6,0,0,0-6.494,1.533,2.407,2.407,0,0,0,0,4.305,14.6,14.6,0,0,0,6.494,1.533h1.39v.135a2.632,2.632,0,0,0,2.629,2.629h8.54a2.6,2.6,0,0,0,2.485,1.843h.167v1.08a.915.915,0,0,1-.27.652l-.921.921A2.764,2.764,0,0,0,39.8,41.8h3.012a2.509,2.509,0,0,0,2.415,1.843,1.916,1.916,0,0,1,1.364.565l.186.186a2.58,2.58,0,0,1,.726,1.451l.842,5.9a8.687,8.687,0,0,1-.673,4.8h-.484a2.627,2.627,0,0,0-2.522,1.9,5.537,5.537,0,0,0-4.708,5.467v4.553a2.822,2.822,0,0,0,2.819,2.819H64.786a2.822,2.822,0,0,0,2.819-2.819v-6.4a3.692,3.692,0,0,0-2.893-3.6,2.769,2.769,0,0,0-2.635-1.93h-.091l-1.752-16.79a5.329,5.329,0,0,1,1.323-3.482h5.158A4.582,4.582,0,0,0,71.291,31.7V20.577A4.582,4.582,0,0,0,66.714,16ZM23.829,27.979a12.743,12.743,0,0,1-5.67-1.339.564.564,0,0,1,0-1.009,12.743,12.743,0,0,1,5.67-1.339h1.39v3.686Zm3.233,1.978V22.315a.787.787,0,0,1,.786-.786H28.9v9.214H27.848a.787.787,0,0,1-.786-.786Zm3.686-8.428h5.529v1.843H32.59v1.843h3.686v1.843H32.59V28.9h3.686v1.843H30.747Zm7.372,10.3V20.44a.755.755,0,0,1,.754-.754h4.775v5.529H45.49V19.686h1.843v12.9H45.49V27.057H43.648v5.529H38.873a.755.755,0,0,1-.754-.754ZM50.174,51.481l-.842-5.9a4.4,4.4,0,0,0-.275-1.02h1.851a3.8,3.8,0,0,1,3.8,3.8v8.181H49.664a10.52,10.52,0,0,0,.51-5.062ZM63,59.308v.921H61.155v1.843h2.764a.921.921,0,0,0,.921-.921v-.672a1.843,1.843,0,0,1,.921,1.594v1.842H56.548v1.843h9.214v2.71a.977.977,0,0,1-.976.976H42.781a.977.977,0,0,1-.976-.976V63.915a3.692,3.692,0,0,1,2.764-3.569v.8a.921.921,0,0,0,.921.921H59.312V60.229h-12.9V59.167a.781.781,0,0,1,.78-.78H62.076A.922.922,0,0,1,63,59.308ZM58.4,39.9l1.737,16.648H56.548V48.362a5.64,5.64,0,0,0-5.641-5.641H47.7a3.743,3.743,0,0,0-2.469-.921.663.663,0,0,1-.662-.662V36.272H42.726v3.686H39.8a.921.921,0,0,1-.651-1.573l.921-.921a2.746,2.746,0,0,0,.81-1.955v-1.08h6.574a2.647,2.647,0,0,0,2.519,1.843h9.335a7.171,7.171,0,0,0-.92,3.528.949.949,0,0,0,0,.1Zm11.052-8.2a2.737,2.737,0,0,1-2.734,2.734H49.976a.8.8,0,0,1-.8-.8V18.643a.8.8,0,0,1,.8-.8H66.714a2.737,2.737,0,0,1,2.734,2.734Z" transform="translate(-16.005 -16)" fill="#fff"/><path d="M224,64h1.843v1.843H224Z" transform="translate(-200.043 -58.471)" fill="#fff"/><path d="M224,96h1.843v1.843H224Z" transform="translate(-200.043 -86.786)" fill="#fff"/><path d="M224,128h1.843v1.843H224Z" transform="translate(-200.043 -115.1)" fill="#fff"/><path d="M333.822,80h-12.9a.921.921,0,0,0-.921.921v1.843h1.843v-.921H332.9V86.45H321.843V84.607H320v2.764a.921.921,0,0,0,.921.921h12.9a.921.921,0,0,0,.921-.921v-6.45A.921.921,0,0,0,333.822,80Z" transform="translate(-284.986 -72.628)" fill="#fff"/><path d="M360,48h1.843v1.843H360Z" transform="translate(-320.378 -44.314)" fill="#fff"/><path d="M328,48h1.843v1.843H328Z" transform="translate(-292.064 -44.314)" fill="#fff"/><path d="M392,48h1.843v1.843H392Z" transform="translate(-348.693 -44.314)" fill="#fff"/><path d="M424,48h1.843v1.843H424Z" transform="translate(-377.007 -44.314)" fill="#fff"/><path d="M272,432h9.214v1.843H272Z" transform="translate(-242.514 -384.085)" fill="#fff"/></svg>