<svg xmlns="http://www.w3.org/2000/svg" width="55.286" height="45.765" viewBox="0 0 55.286 45.765"><path d="M54.963,149.283c-1.281-5.441-2.681-11.426-3.951-16.833a9.6,9.6,0,0,0-9.384-7.239h-12.9a1.08,1.08,0,0,0-2.161,0H13.812a9.607,9.607,0,0,0-9.531,7.238C3.013,137.842,1.606,143.859.33,149.283c-2.795,12.335,13.02,16.409,17.239,6.113a5.483,5.483,0,0,0,6.456-4.261h7.243a5.483,5.483,0,0,0,6.456,4.261C42,165.709,57.73,161.621,54.963,149.283ZM35.535,127.372v7.544a1.081,1.081,0,0,1-1.08,1.08H20.838a1.081,1.081,0,0,1-1.08-1.08v-7.544ZM18.678,153.349a3.294,3.294,0,1,1,3.294-3.294A3.3,3.3,0,0,1,18.678,153.349Zm14.643-3.294a3.294,3.294,0,1,1,3.294,3.294A3.3,3.3,0,0,1,33.321,150.055Zm14.81,8.794a6.954,6.954,0,0,1-8.421-4.3,5.454,5.454,0,1,0-8.442-5.569H24.025a5.454,5.454,0,1,0-8.442,5.569,6.954,6.954,0,0,1-8.421,4.3c-3.2-.907-5.9-4.064-4.729-9.072l1.339-5.7q1.307-5.566,2.613-11.131a7.432,7.432,0,0,1,7.4-5.571H17.6v7.544a3.244,3.244,0,0,0,3.24,3.24H34.455a3.244,3.244,0,0,0,3.24-3.24v-7.544h3.811a7.431,7.431,0,0,1,7.4,5.571q1.3,5.566,2.613,11.132l1.339,5.7c1.176,5.008-1.528,8.165-4.729,9.072Z" transform="translate(-0.001 -115.491)" fill="#fff"/><path d="M81.935,237.157h-2.16V235a1.08,1.08,0,1,0-2.16,0v2.16h-2.16a1.08,1.08,0,1,0,0,2.16h2.16v2.16a1.08,1.08,0,1,0,2.16,0v-2.16h2.16A1.08,1.08,0,0,0,81.935,237.157Z" transform="translate(-66.341 -213.412)" fill="#fff"/><path d="M191.227,48.451a7.561,7.561,0,0,1,10.693,0,1.08,1.08,0,0,0,1.528-1.528,9.721,9.721,0,0,0-13.748,0,1.08,1.08,0,1,0,1.528,1.528Z" transform="translate(-168.928 -44.076)" fill="#fff"/><path d="M217.94,85.744a1.08,1.08,0,0,0,1.528,1.528,3.24,3.24,0,0,1,4.583,0,1.08,1.08,0,1,0,1.528-1.528A5.426,5.426,0,0,0,217.94,85.744Z" transform="translate(-194.113 -79.842)" fill="#fff"/><path d="M365.083,237.15h-2.16v-2.16a1.08,1.08,0,1,0-2.16,0v2.16H358.6a1.08,1.08,0,1,0,0,2.16h2.16v2.16a1.08,1.08,0,1,0,2.16,0v-2.16h2.16A1.08,1.08,0,0,0,365.083,237.15Z" transform="translate(-318.905 -213.406)" fill="#fff"/></svg>