<svg xmlns="http://www.w3.org/2000/svg" width="55.287" height="47.915" viewBox="0 0 55.287 47.915"><path d="M54.365,59.643h-.921V56.879a4.607,4.607,0,0,0-2.764-4.217V38.45a.921.921,0,0,0-.553-.844,3.648,3.648,0,0,0,.553-1.92,3.686,3.686,0,0,0-7.372,0,3.648,3.648,0,0,0,.512,1.843H11.466a3.648,3.648,0,0,0,.512-1.843,3.686,3.686,0,0,0-7.372,0,3.647,3.647,0,0,0,.553,1.92.921.921,0,0,0-.553.844V52.662a4.607,4.607,0,0,0-2.764,4.217v2.764H.921A.921.921,0,0,0,0,60.565v12.9a.921.921,0,0,0,.921.921h.921v4.607a.921.921,0,0,0,.921.921H6.45a.921.921,0,0,0,.921-.921V74.386H47.915v4.607a.921.921,0,0,0,.921.921h3.686a.921.921,0,0,0,.921-.921V74.386h.921a.921.921,0,0,0,.921-.921v-12.9A.921.921,0,0,0,54.365,59.643Zm-7.372-25.8a1.843,1.843,0,1,1-1.843,1.843A1.843,1.843,0,0,1,46.994,33.843Zm-38.7,0A1.843,1.843,0,1,1,6.45,35.686,1.843,1.843,0,0,1,8.293,33.843ZM6.45,39.372H48.837v12.9h-3.71a4.559,4.559,0,0,0,.945-2.764V47.665a4.613,4.613,0,0,0-4.607-4.607H34.093a4.613,4.613,0,0,0-4.607,4.607v1.843a4.559,4.559,0,0,0,.945,2.764H24.855a4.559,4.559,0,0,0,.945-2.764V47.665a4.613,4.613,0,0,0-4.607-4.607H13.822a4.613,4.613,0,0,0-4.607,4.607v1.843a4.559,4.559,0,0,0,.945,2.764H6.45Zm37.779,8.293v1.843a2.764,2.764,0,0,1-2.764,2.764H34.093a2.764,2.764,0,0,1-2.764-2.764V47.665A2.764,2.764,0,0,1,34.093,44.9h7.372A2.764,2.764,0,0,1,44.229,47.665Zm-20.272,0v1.843a2.764,2.764,0,0,1-2.764,2.764H13.822a2.764,2.764,0,0,1-2.764-2.764V47.665A2.764,2.764,0,0,1,13.822,44.9h7.372A2.764,2.764,0,0,1,23.958,47.665ZM3.686,56.879A2.764,2.764,0,0,1,6.45,54.115H48.837A2.764,2.764,0,0,1,51.6,56.879v2.764H3.686ZM5.529,78.072H3.686V74.386H5.529Zm46.072,0H49.758V74.386H51.6Zm1.843-5.529H1.843V61.486h51.6Z" transform="translate(0 -32)" fill="#fff"/></svg>