<svg xmlns="http://www.w3.org/2000/svg" width="45.625" height="55.287" viewBox="0 0 45.625 55.287"><path d="M14.84,2.873a1.135,1.135,0,0,1-.023,1.615.966.966,0,0,1-.369.254A1.1,1.1,0,0,1,13.2,4.487L12.21,3.5A13.128,13.128,0,0,1,14.217,2.25Z" transform="translate(13.647 2.868)" fill="#fff"/><path d="M10.79,6.065A13.8,13.8,0,0,1,14.065,2.79l.992.992a1.1,1.1,0,0,0,1.246.254l.023.023a12.323,12.323,0,0,0-4.267,4.267L12.036,8.3a1.1,1.1,0,0,0-.254-1.246Z" transform="translate(11.792 3.573)" fill="#fff"/><path d="M10.26,6.217A11.4,11.4,0,0,1,11.483,4.21l.992.992a1.1,1.1,0,0,1,.254,1.246.966.966,0,0,1-.254.369,1.115,1.115,0,0,1-1.615,0Z" transform="translate(11.099 5.429)" fill="#fff"/><path d="M13.684,9.959a12.657,12.657,0,0,0,1.084,14.693L32.644,6.776A12.552,12.552,0,0,0,24.5,3.847a12.332,12.332,0,0,0-6.551,1.845l-.023-.023a.966.966,0,0,0,.369-.254A1.135,1.135,0,0,0,18.32,3.8L17.7,3.178A14.666,14.666,0,0,1,24.5,1.54a14.879,14.879,0,0,1,10.61,4.383,1.082,1.082,0,0,1,.346.807,1.132,1.132,0,0,1-.346.83L15.552,27.12a1.132,1.132,0,0,1-.83.346,1.175,1.175,0,0,1-.807-.346A14.986,14.986,0,0,1,11.193,9.705l.6.6a1.115,1.115,0,0,0,1.615,0,.966.966,0,0,0,.254-.369Z" transform="translate(10.166 1.94)" fill="#fff"/><path d="M10.344,3.32,12.4,5.373A11.4,11.4,0,0,0,11.175,7.38L9.56,5.765l.784-1.015a1.144,1.144,0,0,0,0-1.43Z" transform="translate(10.185 4.266)" fill="#fff"/><path d="M16.968,5.308,6.127,19.217A5.547,5.547,0,0,0,3.89,18.34L15.308,3.67Z" transform="translate(2.776 4.723)" fill="#fff"/><path d="M10.5,6.008,8.84,4.37l.623-.807A1.19,1.19,0,0,1,11.1,3.379l.185.185a1.144,1.144,0,0,1,0,1.43Z" transform="translate(9.244 4.023)" fill="#fff"/><path d="M10.981,3A2.347,2.347,0,0,0,11,6.279l1.153,1.153a1.19,1.19,0,0,0-1.638.185L9.9,8.424l-.531-.531a4.686,4.686,0,0,1-.023-6.528,4.715,4.715,0,0,1,6.551-.023l3.783,3.806A13.128,13.128,0,0,0,17.67,6.395L14.279,2.981A2.375,2.375,0,0,0,10.981,3Z" transform="translate(8.187 -0.031)" fill="#fff"/><path d="M14.685,24.971H11.733L4.19,15.514A5.271,5.271,0,0,0,6.266,14.43Z" transform="translate(3.168 18.782)" fill="#fff"/><path d="M10.758,19.438a1.143,1.143,0,0,1-.185,1.615,1.176,1.176,0,0,1-.715.254,1.1,1.1,0,0,1-.9-.438L7.46,19h2.952Z" transform="translate(7.441 24.754)" fill="#fff"/><path d="M31.526,21.307H13.073a1.176,1.176,0,0,0,.715-.254,1.143,1.143,0,0,0,.185-1.615L13.627,19h17.9a5.769,5.769,0,0,1,5.767,5.767V29.38a1.142,1.142,0,0,1-1.153,1.153H6.153A1.142,1.142,0,0,1,5,29.38V24.767A5.765,5.765,0,0,1,10.674,19l1.5,1.868a1.1,1.1,0,0,0,.9.438H10.767a3.455,3.455,0,0,0-3.46,3.46v3.46H34.986v-3.46a3.455,3.455,0,0,0-3.46-3.46Z" transform="translate(4.226 24.754)" fill="#fff"/><path d="M4.287,14.057c.046-.023.069-.046.115-.069a1.146,1.146,0,0,1,1.5.254l.807.992a5.271,5.271,0,0,1-2.076,1.084L4.1,15.672a1.143,1.143,0,0,1,.185-1.615Z" transform="translate(2.725 17.979)" fill="#fff"/><path d="M6.518,10.907l-.877,1.13a1.137,1.137,0,0,1-.9.438,2.019,2.019,0,0,1-.369-.046H4.35a1.471,1.471,0,0,1-.323-.185,1.168,1.168,0,0,1-.185-1.638l.438-.577a5.547,5.547,0,0,1,2.237.877Z" transform="translate(2.385 13.033)" fill="#fff"/><path d="M5.8,18.691a1.146,1.146,0,0,0-1.5-.254l-.023-.023a3.443,3.443,0,0,0-.346-6.482,2.019,2.019,0,0,0,.369.046,1.137,1.137,0,0,0,.9-.438l.877-1.13A5.689,5.689,0,0,1,8.7,15.231a5.721,5.721,0,0,1-2.1,4.452Z" transform="translate(2.828 13.53)" fill="#fff"/><path d="M6.767,21.533A5.767,5.767,0,1,1,6.767,10a5.908,5.908,0,0,1,.9.069l-.438.577a1.168,1.168,0,0,0,.185,1.638,1.471,1.471,0,0,0,.323.185,2.671,2.671,0,0,0-.969-.161,3.46,3.46,0,0,0,0,6.92A3.231,3.231,0,0,0,8.1,18.95l.023.023c-.046.023-.069.046-.115.069a1.143,1.143,0,0,0-.185,1.615l.531.646A5.211,5.211,0,0,1,6.767,21.533Z" transform="translate(-1 12.994)" fill="#fff"/></svg>