<svg xmlns="http://www.w3.org/2000/svg" width="33.172" height="55.287" viewBox="0 0 33.172 55.287"><g transform="translate(0 0)"><g transform="translate(0)"><path d="M124.565,25.8h-.921V23.958h.921a2.764,2.764,0,0,0,2.764-2.764V5.359A2.758,2.758,0,0,0,126.408,0H98.764a2.758,2.758,0,0,0-.921,5.359V21.193a2.764,2.764,0,0,0,2.764,2.764h.921V25.8h-.921A4.613,4.613,0,0,0,96,30.408a.921.921,0,0,0,.921.921,15.572,15.572,0,0,0,9.214,14.261v8.775a.921.921,0,0,0,.921.921h11.057a.921.921,0,0,0,.921-.921V45.59a15.577,15.577,0,0,0,9.214-14.261.921.921,0,0,0,.921-.921A4.613,4.613,0,0,0,124.565,25.8ZM97.843,2.764a.921.921,0,0,1,.921-.921h27.643a.921.921,0,0,1,0,1.843H98.764A.921.921,0,0,1,97.843,2.764Zm2.764,19.35a.921.921,0,0,1-.921-.921V5.529h25.8V21.193a.921.921,0,0,1-.921.921ZM121.8,23.958V25.8H103.372V23.958ZM107.979,53.444V46.3l.086.023c.092.028.184.049.276.075q.506.144,1.022.252c.165.035.331.064.5.092.285.05.571.092.86.124.175.021.348.043.525.058q.563.047,1.129.053c.07,0,.138.01.208.01s.139-.009.209-.01q.566-.006,1.128-.053c.177-.015.352-.038.528-.058.286-.034.569-.075.852-.123q.253-.044.5-.092c.335-.069.666-.153.994-.245.1-.029.206-.052.309-.082.027-.008.055-.014.082-.022l0,7.137Zm9.786-9.3a13.869,13.869,0,0,1-7.822.754,13.363,13.363,0,0,1-2.54-.757,13.753,13.753,0,0,1-8.638-12.81h27.643A13.755,13.755,0,0,1,117.765,44.142ZM98,29.486a2.77,2.77,0,0,1,2.607-1.843h23.958a2.77,2.77,0,0,1,2.607,1.843Z" transform="translate(-96 0)" fill="#fff"/><path d="M144.2,57.837h-2.934a2.764,2.764,0,1,0,0,1.843H144.2a.921.921,0,0,0,0-1.843Zm-5.529,1.843a.921.921,0,1,1,.921-.921A.921.921,0,0,1,138.671,59.68Z" transform="translate(-131.299 -49.544)" fill="#fff"/></g></g></svg>