<svg xmlns="http://www.w3.org/2000/svg" width="55.287" height="49.909" viewBox="0 0 55.287 49.909"><g transform="translate(0 0)"><g transform="translate(0 0)"><path d="M54.633,30.673,26.255,17.7A9.6,9.6,0,1,0,18.271,35.16L24.485,38l-.357.778a6.1,6.1,0,0,0-.229,4.486L22,47.42A4.091,4.091,0,0,1,18.292,49.8H8.879V48.356a6.555,6.555,0,0,0-6.546-6.547H1.118A1.118,1.118,0,0,0,0,42.926H0v22.69a1.118,1.118,0,0,0,1.117,1.119H2.333A6.555,6.555,0,0,0,8.879,60.19V58.744h8.869a13.907,13.907,0,0,0,12.616-8.1l1.669-3.649a6.11,6.11,0,0,0,3.246-3.114l.354-.779,6.059,2.771a1.12,1.12,0,0,0,1.483-.553l.324-.709a6.319,6.319,0,0,0,1.553.2,7.876,7.876,0,0,0,6.96-4.778,8.208,8.208,0,0,0,.427-5.9l2.332-1.5a1.118,1.118,0,0,0-.138-1.959ZM6.642,60.19A4.316,4.316,0,0,1,2.333,64.5h-.1V44.047h.1a4.316,4.316,0,0,1,4.311,4.31V60.19Zm11.106-3.683H8.881V52.04h9.412a6.327,6.327,0,0,0,5.741-3.688L25.3,45.587a6.061,6.061,0,0,0,4.067,1.854l-1.037,2.268a11.663,11.663,0,0,1-10.58,6.8Zm15.5-13.56a3.892,3.892,0,1,1-7.08-3.237l.356-.78L33.6,42.169Zm8.364.422L35.551,40.6l-9.117-4.17L19.2,33.123a7.363,7.363,0,1,1,6.124-13.392L51.839,31.855l-1.365.877-.011.006L45.082,36.2a1.114,1.114,0,0,0-.412.476ZM49.977,39.1a5.474,5.474,0,0,1-5.525,3.428L46.568,37.9l3.892-2.5a6.2,6.2,0,0,1-.483,3.7Z" transform="translate(0 -16.826)" fill="#fff"/><path d="M206.333,74.983l-10.121-4.627a1.118,1.118,0,0,0-.932,2.033L205.4,77.018a1.119,1.119,0,1,0,.93-2.035Z" transform="translate(-163.547 -61.725)" fill="#fff"/></g></g></svg>