<svg xmlns="http://www.w3.org/2000/svg" width="55.285" height="55.287" viewBox="0 0 55.285 55.287"><path d="M338.42,155.148a1.08,1.08,0,1,0,1.08,1.079A1.079,1.079,0,0,0,338.42,155.148Zm0,0" transform="translate(-300.967 -138.395)" fill="#fff"/><path d="M156.725,336.84a1.08,1.08,0,1,0,1.08,1.08A1.079,1.079,0,0,0,156.725,336.84Zm0,0" transform="translate(-138.892 -300.467)" fill="#fff"/><path d="M54.443,6.642a1.079,1.079,0,0,0-1.011.291l-4.477,4.512H46.81L44.447,9V6.821L48.86,2.343A1.08,1.08,0,0,0,48.435.562,10.806,10.806,0,0,0,34.555,13.6L26.6,21.549,13.349,8.267V5.661a1.08,1.08,0,0,0-.524-.926L5.19.153A1.079,1.079,0,0,0,3.871.316L.817,3.369A1.081,1.081,0,0,0,.655,4.688l4.581,7.635a1.08,1.08,0,0,0,.925.524H8.767L22.019,26.13,14.1,34.054A10.8,10.8,0,0,0,1.063,47.935a1.08,1.08,0,0,0,1.79.416l4.476-4.512H9.487L11.945,46.3v2.158L7.434,52.932a1.08,1.08,0,0,0,.416,1.79,10.8,10.8,0,0,0,12.212-3.934,10.678,10.678,0,0,0,1.669-9.1l6.364-6.364,1.458,1.583-.669.669A1.08,1.08,0,0,0,30.41,39.1l.606-.606L44.693,53.355l.031.032a6.479,6.479,0,0,0,9.163-9.163l-.034-.032L38.974,30.541l.6-.6a1.08,1.08,0,0,0-1.527-1.527l-.664.665L35.8,27.624l6.395-6.395A10.8,10.8,0,0,0,55.222,7.349a1.079,1.079,0,0,0-.779-.707ZM9.979,11.006a1.069,1.069,0,0,0-.764-.306H6.773L2.94,4.3,4.8,2.439,11.19,6.272V8.715a1.08,1.08,0,0,0,.316.763l13.569,13.6L23.546,24.6ZM37.446,32.069l14.931,13.7a4.32,4.32,0,0,1-6.11,6.109L32.544,36.97Zm-1.593-1.462L31.08,35.38,29.622,33.8l4.644-4.644Zm9.134-11.172a8.63,8.63,0,0,1-2.76-.45,1.082,1.082,0,0,0-1.108.26L19.746,40.619a1.08,1.08,0,0,0-.26,1.108,8.647,8.647,0,0,1-8.188,11.4,8.844,8.844,0,0,1-.941-.051l3.43-3.4a1.079,1.079,0,0,0,.319-.766V45.85a1.08,1.08,0,0,0-.316-.763L10.7,42a1.08,1.08,0,0,0-.763-.316H6.879A1.081,1.081,0,0,0,6.112,42l-3.4,3.43a8.736,8.736,0,0,1-.051-.941,8.647,8.647,0,0,1,11.4-8.188,1.079,1.079,0,0,0,1.108-.26L36.539,14.665a1.08,1.08,0,0,0,.26-1.108,8.646,8.646,0,0,1,8.188-11.4,8.824,8.824,0,0,1,.97.054L42.6,5.621a1.079,1.079,0,0,0-.31.758V9.433a1.079,1.079,0,0,0,.3.75l2.983,3.091a1.079,1.079,0,0,0,.777.33h3.055a1.079,1.079,0,0,0,.766-.319l3.4-3.429a8.645,8.645,0,0,1-8.588,9.58Zm0,0" transform="translate(-0.5 0.001)" fill="#fff"/><path d="M197.753,183.742,184.24,197.254a1.08,1.08,0,1,0,1.527,1.527l13.513-13.513a1.08,1.08,0,0,0-1.527-1.527Zm0,0" transform="translate(-164.118 -163.619)" fill="#fff"/><path d="M355.329,356.618a1.08,1.08,0,0,0,1.525-1.53l-9.733-9.7a1.08,1.08,0,0,0-1.525,1.529Zm0,0" transform="translate(-308.049 -307.81)" fill="#fff"/></svg>