<svg xmlns="http://www.w3.org/2000/svg" width="37.227" height="55.287" viewBox="0 0 37.227 55.287"><g transform="translate(20.943 14.261)"><g transform="translate(0)"><path d="M279.475,134.805a.957.957,0,0,1,0-1.353.81.81,0,0,0-1.145-1.145,2.577,2.577,0,0,0,0,3.644.958.958,0,0,1,0,1.353.81.81,0,1,0,1.145,1.145A2.579,2.579,0,0,0,279.475,134.805Z" transform="translate(-277.575 -132.07)" fill="#fff"/></g></g><g transform="translate(28.918 14.261)"><g transform="translate(0)"><path d="M353.331,134.8a.957.957,0,0,1,0-1.353.81.81,0,0,0-1.145-1.145,2.579,2.579,0,0,0,0,3.644.957.957,0,0,1,0,1.353.81.81,0,0,0,1.145,1.145,2.577,2.577,0,0,0,0-3.644Z" transform="translate(-351.432 -132.067)" fill="#fff"/></g></g><g transform="translate(0)"><path d="M119.086,25.864h-1.058a1.824,1.824,0,0,0,.01-.191v-1.49a1.813,1.813,0,0,0-1.811-1.811h-1.234a.81.81,0,0,0,0,1.62h1.234a.191.191,0,0,1,.191.191v1.49a.191.191,0,0,1-.191.191H101.055a.191.191,0,0,1-.191-.191v-1.49a.191.191,0,0,1,.191-.191h10.116a.81.81,0,1,0,0-1.62H101.055a1.813,1.813,0,0,0-1.811,1.811v1.49a1.824,1.824,0,0,0,.01.191h-7a2.727,2.727,0,0,0-.194-.466L111.033,6.424a1.769,1.769,0,0,0,0-2.5l-.87-.87a10.427,10.427,0,0,0-14.746,0L94.391,4.08l-.6-.6a1.856,1.856,0,0,0-2.615-.107l-3.34,3.34a1.856,1.856,0,0,0,.107,2.615l.6.6-1.026,1.026a10.438,10.438,0,0,0-.3,14.435,2.736,2.736,0,0,0,1.616,3.9q.009.211.025.42h-2.97a2.265,2.265,0,1,0,0,4.53h4.433a10.472,10.472,0,0,0,6.07,4.649l-2.475,9.583a.81.81,0,1,0,1.568.405l2.5-9.667a10.474,10.474,0,0,0,1.269.077h.529L96.241,53.006a.88.88,0,0,1-1.7-.44l.318-1.232a.81.81,0,0,0-1.568-.405l-.318,1.232a2.5,2.5,0,1,0,4.841,1.25L99,48.784h11.683l.361,1.4a3.476,3.476,0,1,0,4.808-1.377l-2.568-9.912a10.475,10.475,0,0,0,6.271-5,.811.811,0,0,0,.078-.144,10.362,10.362,0,0,0,1.215-4.881V27.632A1.77,1.77,0,0,0,119.086,25.864ZM88.981,7.858l3.34-3.34c.033-.033.191-.027.325.107l.6.6L89.688,8.783l-.6-.6a.392.392,0,0,1-.123-.243A.117.117,0,0,1,88.981,7.858ZM88.662,12.1l7.9-7.9a8.807,8.807,0,0,1,12.455,0l.87.87a.148.148,0,0,1,0,.209L90.913,24.253a2.729,2.729,0,0,0-2.542-.005A8.818,8.818,0,0,1,88.662,12.1Zm-2.77,20.524a.645.645,0,1,1,0-1.291h3.232a10.33,10.33,0,0,0,.406,1.291Zm3.745-4.83a1.118,1.118,0,1,1,1.118-1.118A1.119,1.119,0,0,1,89.637,27.792Zm9.785,19.372.455-1.76h9.935l.456,1.76Zm.873-3.38,1.161-4.495h6.772l1.164,4.495Zm15.679,8.026a1.857,1.857,0,1,1-1.857-1.857A1.859,1.859,0,0,1,115.974,51.81Zm-1.912-3.475a3.452,3.452,0,0,0-1.7.473L109.9,39.29h.525a10.492,10.492,0,0,0,1.273-.078ZM110.426,37.67H99.254a8.8,8.8,0,0,1-6.966-3.427h25.1A8.8,8.8,0,0,1,110.426,37.67Zm7.962-5.047h-27.1a8.743,8.743,0,0,1-.834-3.336,2.75,2.75,0,0,0,1.795-1.8h26.833a.148.148,0,0,1,.148.148v1.231h0A8.753,8.753,0,0,1,118.388,32.623Z" transform="translate(-83.627 0)" fill="#fff"/></g><g transform="translate(24.931 14.261)"><g transform="translate(0)"><path d="M316.408,134.8a.957.957,0,0,1,0-1.353.81.81,0,1,0-1.145-1.145,2.579,2.579,0,0,0,0,3.644.957.957,0,0,1,0,1.353.81.81,0,0,0,1.145,1.146,2.576,2.576,0,0,0,0-3.644Z" transform="translate(-314.51 -132.068)" fill="#fff"/></g></g></svg>