<svg xmlns="http://www.w3.org/2000/svg" width="55.297" height="55.287" viewBox="0 0 55.297 55.287"><path d="M56.3,34.893a2.679,2.679,0,0,0-2.676-2.676H50.054a2.669,2.669,0,0,0-.892,5.187v.164a.893.893,0,0,1-.892.892H46.486V32.983a3.551,3.551,0,0,0-.361-6.955c1.2-3.247-.919-8.785-5.448-14.188l1.488-1.488a2.669,2.669,0,0,0,3.038-4.3L41.419,2.269a2.669,2.669,0,0,0-4.3,3.037L35.633,6.793C29.3,1.483,22.768-.522,19.977,2.27a.891.891,0,0,0,0,1.261L42.419,25.974H11.7a3.56,3.56,0,0,0-.892,7.008v5.478H9.027a.893.893,0,0,1-.892-.892V37.4a2.669,2.669,0,0,0-.892-5.187H3.676A2.669,2.669,0,0,0,2.784,37.4v1.056a5.357,5.357,0,0,0,5.351,5.351h2.676v6.243A6.251,6.251,0,0,0,17.054,56.3H40.243a6.251,6.251,0,0,0,6.243-6.243V43.812h2.676a5.357,5.357,0,0,0,5.351-5.351V37.4A2.672,2.672,0,0,0,56.3,34.893ZM38.9,3.532a.893.893,0,0,1,1.262,0l3.783,3.784A.892.892,0,1,1,42.68,8.577L38.9,4.793a.893.893,0,0,1,0-1.261Zm-.631,3.154,2.523,2.523L39.5,10.5q-.6-.649-1.233-1.289T36.977,7.975ZM37,10.469c4.924,4.924,8.84,11.888,7.448,15.016L21.988,3.021C25.118,1.63,32.081,5.545,37,10.469ZM9.919,29.542A1.786,1.786,0,0,1,11.7,27.758H45.595a1.784,1.784,0,1,1,0,3.568H11.7A1.786,1.786,0,0,1,9.919,29.542ZM3.676,34H7.243a.892.892,0,0,1,0,1.784H3.676a.892.892,0,0,1,0-1.784Zm4.459,8.027a3.571,3.571,0,0,1-3.568-3.568v-.892H6.351a2.679,2.679,0,0,0,2.676,2.676h1.784v1.784ZM40.243,54.515H17.054a4.465,4.465,0,0,1-4.459-4.459V33.109H44.7V50.055A4.465,4.465,0,0,1,40.243,54.515Zm8.919-12.486H46.486V40.244H48.27a2.679,2.679,0,0,0,2.676-2.676H52.73v.892A3.571,3.571,0,0,1,49.162,42.028Zm4.459-6.243H50.054a.892.892,0,0,1,0-1.784h3.568a.892.892,0,1,1,0,1.784Z" transform="translate(-1 -1.012)" fill="#fff"/><path d="M46.784,54.486A1.786,1.786,0,0,1,45,56.27v1.784a3.571,3.571,0,0,0,3.568-3.568V42H46.784Z" transform="translate(-5.757 -5.443)" fill="#fff"/><path d="M16.991,19.635a2.338,2.338,0,0,1,0,3.307l-1.729,1.729,1.261,1.261L18.252,24.2a4.121,4.121,0,0,0,0-5.829l-.784-.784a2.338,2.338,0,0,1,0-3.306L19.2,12.554l-1.261-1.261-1.729,1.729a4.121,4.121,0,0,0,0,5.829Z" transform="translate(-2.514 -2.123)" fill="#fff"/><path d="M28.2,12.554l-1.261-1.261-1.729,1.729a4.121,4.121,0,0,0,0,5.829l.784.784a2.338,2.338,0,0,1,0,3.306l-1.729,1.729,1.261,1.261L27.252,24.2a4.121,4.121,0,0,0,0-5.829l-.784-.784a2.338,2.338,0,0,1,0-3.306Z" transform="translate(-3.487 -2.123)" fill="#fff"/></svg>