<svg xmlns="http://www.w3.org/2000/svg" width="45.528" height="55.287" viewBox="0 0 45.528 55.287"><path d="M87.368,19.977A22.762,22.762,0,1,0,61.99,45.355v4.357h-6.5A2.787,2.787,0,0,0,52.7,52.5v2.787H76.855V52.5a2.787,2.787,0,0,0-2.787-2.787h-6.5V45.355A22.762,22.762,0,0,0,87.368,19.977ZM74.068,51.57A.929.929,0,0,1,75,52.5v.929H54.557V52.5a.929.929,0,0,1,.929-.929Zm-10.22-1.858V46h1.858v3.716Zm.929-6.039a20.9,20.9,0,1,1,20.9-20.9A20.9,20.9,0,0,1,64.777,43.673Z" transform="translate(-42.013 0)" fill="#fff"/><path d="M109.054,49.433V47.575a.929.929,0,0,0-.929-.929H97.262A10.212,10.212,0,0,0,91.4,28.065H89.543a.929.929,0,0,0-.929.929V39.857a10.212,10.212,0,0,0-18.581,5.861v1.858a.929.929,0,0,0,.929.929H81.825a10.213,10.213,0,0,0,5.861,18.581h1.858a.929.929,0,0,0,.929-.929V55.294a10.212,10.212,0,0,0,18.581-5.861ZM90.472,29.923H91.4a8.362,8.362,0,0,1,2.568,16.315,4.645,4.645,0,0,0-3.5-3.215ZM71.891,46.646v-.929A8.362,8.362,0,0,1,88.205,43.15a4.645,4.645,0,0,0-3.215,3.5ZM88.614,65.227h-.929a8.362,8.362,0,0,1-2.568-16.315,4.645,4.645,0,0,0,3.5,3.215v13.1Zm.929-14.865a2.787,2.787,0,1,1,2.787-2.787A2.787,2.787,0,0,1,89.543,50.362Zm9.275,7.417A8.362,8.362,0,0,1,90.881,52,4.645,4.645,0,0,0,94.1,48.5h13.1v.929A8.362,8.362,0,0,1,98.818,57.779Z" transform="translate(-66.779 -24.806)" fill="#fff"/></svg>