<svg xmlns="http://www.w3.org/2000/svg" width="123.624" height="124.832" viewBox="0 0 123.624 124.832">
  <g id="EA" transform="matrix(0.887, 0.462, -0.462, 0.887, 43.185, 0)">
    <path id="Trazado_911" data-name="Trazado 911" d="M3731.8,643.459a6.712,6.712,0,0,1,2.83-2.625,6.921,6.921,0,0,1,9.335,2.951,6.825,6.825,0,0,1,.764,3.607h0a45.337,45.337,0,1,1-12.914-3.984" transform="translate(-3679.714 -640.052)" fill="#fff" fill-rule="evenodd"/>
    <path id="Trazado_912" data-name="Trazado 912" d="M3740.134,647.631a7.468,7.468,0,0,1-1.939,1.511,6.886,6.886,0,0,1-9.287-2.933h0a6.7,6.7,0,0,1-.728-2.37,40.142,40.142,0,1,0,11.954,3.792" transform="translate(-3676.94 -636.05)" fill="#df0914" fill-rule="evenodd"/>
    <path id="Trazado_913" data-name="Trazado 913" d="M3704.76,646.953a3.722,3.722,0,1,1,5.019,1.588,3.722,3.722,0,0,1-5.019-1.588" transform="translate(-3650.109 -638.294)" fill="#df0914"/>
    <path id="Trazado_914" data-name="Trazado 914" d="M3696.208,676.131a3.014,3.014,0,0,1,.484-.883,2.928,2.928,0,0,1,.773-.61,2.7,2.7,0,0,1,.911-.264,2.6,2.6,0,0,1,1.018.1l.476.15-.3.953-.477-.15a1.58,1.58,0,0,0-.617-.057,1.5,1.5,0,0,0-1.006.524,1.361,1.361,0,0,0-.309.537,1.5,1.5,0,0,0,.1,1.163,1.559,1.559,0,0,0,.366.46,1.486,1.486,0,0,0,.528.291,1.521,1.521,0,0,0,1.181-.108,1.615,1.615,0,0,0,.46-.366,1.486,1.486,0,0,0,.291-.529l.152-.478.954.3-.152.476a2.651,2.651,0,0,1-.5.892,2.264,2.264,0,0,1-.74.592,2.488,2.488,0,0,1-.944.282,3,3,0,0,1-1-.108,2.267,2.267,0,0,1-.866-.5,2.523,2.523,0,0,1-.859-1.652,2.231,2.231,0,0,1,.1-.991" transform="translate(-3660.002 -598.806)" fill="#fff" fill-rule="evenodd"/>
    <path id="Trazado_915" data-name="Trazado 915" d="M3702.442,675.734l.953.3-.151.476a2.652,2.652,0,0,1-.47.872A2.488,2.488,0,0,1,3702,678a2.419,2.419,0,0,1-.945.282,2.611,2.611,0,0,1-1.865-.6,2.513,2.513,0,0,1-.857-1.652,2.65,2.65,0,0,1,.108-1,2.311,2.311,0,0,1,.478-.857,2.345,2.345,0,0,1,1.651-.859,2.225,2.225,0,0,1,.991.092l.478.15-1.2,3.79a1.467,1.467,0,0,0,1.414-1.07Zm-3.088-.493a1.441,1.441,0,0,0,.1,1.163,1.416,1.416,0,0,0,.44.526l.174-.553.238-.793.253-.8.216-.594a1.45,1.45,0,0,0-.879.289,1.406,1.406,0,0,0-.544.766" transform="translate(-3657.341 -600.096)" fill="#fff" fill-rule="evenodd"/>
    <path id="Trazado_916" data-name="Trazado 916" d="M3700.834,675.773a2.356,2.356,0,0,1-.267-.953,2.5,2.5,0,0,1,.11-.96,2.247,2.247,0,0,1,.478-.854,2.153,2.153,0,0,1,.764-.63,2.2,2.2,0,0,1,.971-.273,2.391,2.391,0,0,1,.958.11,1.964,1.964,0,0,1,.848.463,2.082,2.082,0,0,1,.627.764l1.177,2.262-.875.456-1.176-2.264a1.439,1.439,0,0,0-.382-.451,1.536,1.536,0,0,0-2.161.2,1.432,1.432,0,0,0-.276.52,1.861,1.861,0,0,0-.072.584,1.428,1.428,0,0,0,.165.564l1.176,2.264-.892.463Z" transform="translate(-3654.656 -601.533)" fill="#fff" fill-rule="evenodd"/>
    <path id="Trazado_917" data-name="Trazado 917" d="M3703.077,672.559a2.6,2.6,0,0,1,.487-.881,2.919,2.919,0,0,1,.755-.6,2.8,2.8,0,0,1,.93-.271,2.557,2.557,0,0,1,1,.108l.478.152-.285.945-.494-.143a1.53,1.53,0,0,0-.6-.066,1.511,1.511,0,0,0-.562.167,1.668,1.668,0,0,0-.46.366,1.529,1.529,0,0,0-.192,1.693,1.625,1.625,0,0,0,.366.46,1.529,1.529,0,0,0,1.693.189,1.57,1.57,0,0,0,.476-.374,1.244,1.244,0,0,0,.275-.52l.167-.484.938.308-.152.478a2.536,2.536,0,0,1-.485.881,2.384,2.384,0,0,1-.757.6,2.442,2.442,0,0,1-.926.273,2.576,2.576,0,0,1-1.883-.594,2.775,2.775,0,0,1-.857-1.652,2.589,2.589,0,0,1,.108-1" transform="translate(-3651.748 -603.096)" fill="#fff" fill-rule="evenodd"/>
    <path id="Trazado_918" data-name="Trazado 918" d="M3705.433,673.391a2.547,2.547,0,0,1,.3-2.777,2.711,2.711,0,0,1,1.75-.91,2.676,2.676,0,0,1,.96.11,2.112,2.112,0,0,1,.847.463,2.479,2.479,0,0,1,.911,1.749,2.135,2.135,0,0,1-.111.96,2.38,2.38,0,0,1-.454.863,2.692,2.692,0,0,1-1.75.91,2.371,2.371,0,0,1-.967-.125,2.693,2.693,0,0,1-.848-.46,2.571,2.571,0,0,1-.637-.782m.893-.463a1.583,1.583,0,0,0,.374.476,1.345,1.345,0,0,0,1.1.35,1.633,1.633,0,0,0,1.058-.551,1.435,1.435,0,0,0,.284-.5,1.545,1.545,0,0,0-1-1.931,1.448,1.448,0,0,0-.574-.057,1.422,1.422,0,0,0-1.057.548,1.87,1.87,0,0,0-.3.513,1.994,1.994,0,0,0-.057.575,1.623,1.623,0,0,0,.176.581" transform="translate(-3649.133 -604.412)" fill="#fff" fill-rule="evenodd"/>
    <path id="Trazado_919" data-name="Trazado 919" d="M3710.77,668.208l.462.892-2.642,1.372a.482.482,0,0,0-.245.3.445.445,0,0,0,.03.381.455.455,0,0,0,.3.262.415.415,0,0,0,.383-.031l1.8-.936a1.189,1.189,0,0,1,.573-.15,1.444,1.444,0,0,1,.574.057,1.265,1.265,0,0,1,.52.275,1.427,1.427,0,0,1,.382.452,1.643,1.643,0,0,1,.159.588,1.256,1.256,0,0,1-.075.584,1.519,1.519,0,0,1-.274.522,1.409,1.409,0,0,1-.46.363l-2.706,1.409-.466-.892,2.709-1.407a.5.5,0,0,0,.24-.669l-.018-.035a.507.507,0,0,0-.295-.244.523.523,0,0,0-.4.04l-1.8.936a1.616,1.616,0,0,1-.579.176,1.414,1.414,0,0,1-.583-.075,1.442,1.442,0,0,1-.5-.284,1.561,1.561,0,0,1-.375-.476,1.505,1.505,0,0,1-.108-1.139,1.683,1.683,0,0,1,.282-.5,1.294,1.294,0,0,1,.469-.39Z" transform="translate(-3646.538 -606.203)" fill="#fff" fill-rule="evenodd"/>
    <path id="Trazado_920" data-name="Trazado 920" d="M3713.949,666.844l1.167,2.246a2.431,2.431,0,0,1,.283.945,2.277,2.277,0,0,1-.119.984,3.07,3.07,0,0,1-.452.863,2.441,2.441,0,0,1-.791.621,2.39,2.39,0,0,1-.944.28,2.858,2.858,0,0,1-.982-.117,2.508,2.508,0,0,1-.856-.478,2.433,2.433,0,0,1-.613-.773l-1.167-2.246.876-.454,1.167,2.246a1.3,1.3,0,0,0,.39.467,1.521,1.521,0,0,0,1.087.359,1.534,1.534,0,0,0,1.405-1.654,1.563,1.563,0,0,0-.11-.614l-1.167-2.246Z" transform="translate(-3643.938 -607.843)" fill="#fff" fill-rule="evenodd"/>
    <path id="Trazado_921" data-name="Trazado 921" d="M3714.865,664.823l2.1,4.045a2.457,2.457,0,0,1,.264.954,2.485,2.485,0,0,1-.1.975,3.352,3.352,0,0,1-.451.863,2.689,2.689,0,0,1-1.75.91,3.042,3.042,0,0,1-.966-.126,2.292,2.292,0,0,1-.875-.469,2.461,2.461,0,0,1-.775-2.7,2.671,2.671,0,0,1,.462-.848,2.574,2.574,0,0,1,.78-.636l1.354-.7-.934-1.8Zm.56,6.567a1.486,1.486,0,0,0,.46-.366,1.64,1.64,0,0,0,.35-1.1,1.658,1.658,0,0,0-.161-.59l-.7-1.352-1.354.7a1.313,1.313,0,0,0-.469.39,1.911,1.911,0,0,0-.3.513,1.438,1.438,0,0,0-.058.575,1.552,1.552,0,0,0,.176.579,1.617,1.617,0,0,0,.372.478,1.457,1.457,0,0,0,.5.284,1.5,1.5,0,0,0,.6.064,1.575,1.575,0,0,0,.58-.174" transform="translate(-3640.686 -610.273)" fill="#fff" fill-rule="evenodd"/>
    <path id="Trazado_922" data-name="Trazado 922" d="M3720.9,650.033l2.821,24.477-4.491,2.334-.529-8.2-12.447-11,4.475-2.326,7.506,7.382.156-.1-1.933-10.258Z" transform="translate(-3647.812 -628.052)" fill="#fae91d"/>
    <path id="Trazado_923" data-name="Trazado 923" d="M3717.872,663.022c1.715,3.3-1.249,6.353-4.609,8.122s-7.546,2.264-9.22-.956l4.424-2.3c.524,1.006,2.11.665,3.167.117s2.23-1.517,1.724-2.491c-.634-1.222-2.38-.546-5.374.15s-5.629.513-6.958-2.046c-1.715-3.3.89-6,4.34-7.794s7-2.231,8.69,1.022l-4.376,2.275c-.464-.892-1.75-.665-2.691-.174s-1.9,1.26-1.44,2.151c.643,1.24,2.586.418,4.951-.161,3.049-.746,5.862-.824,7.373,2.083" transform="translate(-3654.746 -622.757)" fill="#fae91d"/>
    <path id="Trazado_924" data-name="Trazado 924" d="M3713,671.821l-4.145,2.154-.86-1.651-.149.077a4.854,4.854,0,0,1-3.1,4.36c-3.649,1.9-8.355.546-10.8-4.16s-1.083-9.106,2.649-11.044a5.736,5.736,0,0,1,5.523-.229l.165-.086-.859-1.652,4.114-2.136Zm-7.928-4.962a3.872,3.872,0,1,0-7.069,3.16,3.6,3.6,0,0,0,.242.407,3.87,3.87,0,0,0,5.026,2.169,4.107,4.107,0,0,0,.408-.189,3.717,3.717,0,0,0,1.328-5.514" transform="translate(-3664.093 -619.132)" fill="#fae91d"/>
    <path id="Trazado_925" data-name="Trazado 925" d="M3700.887,667.413l.755,1.453-10.385,5.4a3.314,3.314,0,0,0,4.5,1.293l.087-.051a2.753,2.753,0,0,0,1.789-2.649l4.475-2.325c.687,2.328.253,5.972-4.4,8.392a8.488,8.488,0,0,1-11.469-3.535c-.053-.1-.1-.2-.152-.3a7.947,7.947,0,0,1,2.669-10.916q.344-.208.709-.383a8.15,8.15,0,0,1,11.112,3.063q.157.271.289.555m-5.188.872a3.09,3.09,0,0,0-4.22-1.134c-.048.026-.095.057-.144.086a3.261,3.261,0,0,0-1.583,4.138Z" transform="translate(-3673.445 -612.799)" fill="#fae91d"/>
    <path id="Trazado_926" data-name="Trazado 926" d="M3730.991,666.7c-12.168,4.393-23.663,10.2-40.694,20.687l-.222-.914c16.877-10.742,30.4-18.818,38.168-22.561,4.585-2.193,6.12-2.592,6.952-.989s-1.141,2.689-4.2,3.777" transform="translate(-3667.259 -613.728)" fill="#fae91d"/>
  </g>
</svg>
