<svg width="308" height="203" viewBox="0 0 308 203" fill="none" xmlns="http://www.w3.org/2000/svg">
<path d="M258.985 137.087H49.6213C45.4122 137.087 42 133.674 42 129.465L58.1961 100.54L42 71.6213C42 67.4122 45.4122 64 49.6213 64H258.985C263.194 64 266.606 67.4122 266.606 71.6213L250.41 100.547L266.606 129.472C266.606 133.681 263.194 137.093 258.985 137.093V137.087Z" fill="url(#paint0_linear_419_3327)"/>
<path d="M93.3062 97.3117C92.3459 97.3117 91.8691 96.7941 91.8691 95.7589V71.6759C91.8691 70.6407 92.3459 70.123 93.3062 70.123H104.728C105.504 70.123 105.893 70.7701 105.893 72.0641V73.2696C105.893 74.5637 105.504 75.2107 104.728 75.2107H97.8899V80.8432H103.986C104.735 80.8432 105.109 81.4903 105.109 82.7843V83.9898C105.109 85.2839 104.735 85.9309 103.986 85.9309H97.8899V92.2241H104.728C105.504 92.2241 105.893 92.8711 105.893 94.1651V95.3707C105.893 96.6647 105.504 97.3117 104.728 97.3117H93.3062Z" fill="white"/>
<path d="M108.065 97.3863C106.819 97.3863 106.199 97.1275 106.199 96.6099C106.199 96.4805 106.226 96.3375 106.274 96.1808C106.329 96.0242 106.39 95.8607 106.472 95.6768L111.716 83.1314L107.207 71.7505C107.078 71.4168 107.01 71.158 107.01 70.9741C107.01 70.688 107.146 70.4633 107.418 70.293C107.691 70.1227 108.147 70.041 108.794 70.041H110.694C111.212 70.041 111.668 70.1023 112.057 70.2181C112.445 70.3339 112.717 70.6404 112.874 71.1307L115.516 79.6783L118.465 70.8243C118.595 70.4633 118.847 70.2385 119.221 70.1636C119.596 70.0887 120.073 70.0478 120.638 70.0478H122.388C123.526 70.0478 124.098 70.293 124.098 70.7834C124.098 70.9673 123.996 71.2874 123.785 71.7573L119.085 83.2131L124.016 95.6836C124.173 96.0719 124.248 96.3852 124.248 96.6167C124.248 97.1344 123.642 97.3932 122.423 97.3932H120.672C119.896 97.3932 119.364 97.3182 119.078 97.182C118.792 97.039 118.574 96.7461 118.418 96.3102L115.346 87.0271L111.968 96.2694C111.784 96.7325 111.553 97.039 111.266 97.182C110.98 97.3251 110.463 97.3932 109.714 97.3932H108.045L108.065 97.3863Z" fill="white"/>
<path d="M128.225 97.3866C126.672 97.3866 125.896 96.9576 125.896 96.1062V71.6759C125.896 70.6407 126.372 70.123 127.333 70.123H134.055C136.902 70.123 139.02 70.8382 140.402 72.2616C141.785 73.6851 142.48 75.8237 142.48 78.6706C142.48 81.5175 141.785 83.622 140.402 85.0591C139.02 86.4962 136.902 87.2181 134.055 87.2181H131.916V96.113C131.916 96.9644 131.14 97.3935 129.587 97.3935H128.225V97.3866ZM131.916 82.1237H134.055C135.036 82.1237 135.717 81.8512 136.091 81.3064C136.466 80.7615 136.657 79.8829 136.657 78.6638C136.657 77.4446 136.466 76.5661 136.091 76.0212C135.717 75.4763 135.036 75.2039 134.055 75.2039H131.916V82.1169V82.1237Z" fill="white"/>
<path d="M146.363 97.3117C145.403 97.3117 144.926 96.7941 144.926 95.7589V71.6759C144.926 70.6407 145.403 70.123 146.363 70.123H157.785C158.561 70.123 158.949 70.7701 158.949 72.0641V73.2696C158.949 74.5637 158.561 75.2107 157.785 75.2107H150.947V80.8432H157.042C157.791 80.8432 158.166 81.4903 158.166 82.7843V83.9898C158.166 85.2839 157.791 85.9309 157.042 85.9309H150.947V92.2241H157.785C158.561 92.2241 158.949 92.8711 158.949 94.1651V95.3707C158.949 96.6647 158.561 97.3117 157.785 97.3117H146.363Z" fill="white"/>
<path d="M163.805 97.3866C162.252 97.3866 161.476 96.9576 161.476 96.1062V71.6759C161.476 70.6407 161.993 70.123 163.028 70.123H169.635C172.482 70.123 174.6 70.8177 175.983 72.2003C177.365 73.5829 178.06 75.7419 178.06 78.6706C178.06 79.917 177.849 80.9795 177.42 81.8785C176.991 82.7775 176.453 83.4722 175.805 83.9762C175.158 84.4802 174.471 84.7594 173.749 84.8139V84.9706C174.266 85.1545 174.75 85.495 175.206 85.999C175.662 86.503 175.976 87.0819 176.16 87.7289L178.53 95.5001C178.632 95.8134 178.686 96.1062 178.686 96.3923C178.686 96.8077 178.523 97.0802 178.203 97.2096C177.876 97.339 177.263 97.4071 176.357 97.4071H174.995C174.375 97.4071 173.858 97.3322 173.442 97.1755C173.027 97.0189 172.768 96.7328 172.666 96.3242L170.881 89.1388C170.697 88.3896 170.432 87.8856 170.084 87.6268C169.737 87.368 169.185 87.2386 168.436 87.2386H167.503V96.1335C167.503 96.9848 166.727 97.4139 165.174 97.4139H163.812L163.805 97.3866ZM167.496 82.1237H169.635C170.616 82.1237 171.297 81.8512 171.671 81.3064C172.046 80.7615 172.237 79.8829 172.237 78.6638C172.237 77.4446 172.046 76.5661 171.671 76.0212C171.297 75.4763 170.616 75.2039 169.635 75.2039H167.496V82.1169V82.1237Z" fill="white"/>
<path d="M186.798 97.3866C185.245 97.3866 184.469 96.9576 184.469 96.1062V75.2107H180.117C179.34 75.2107 178.952 74.5637 178.952 73.2696V72.0641C178.952 70.7701 179.34 70.123 180.117 70.123H194.835C195.611 70.123 196 70.7701 196 72.0641V73.2696C196 74.5637 195.611 75.2107 194.835 75.2107H190.483V96.1062C190.483 96.9576 189.706 97.3866 188.154 97.3866H186.791H186.798Z" fill="white"/>
<path d="M207.346 97.618C203.873 97.618 201.319 96.4942 199.677 94.2399C198.036 91.9855 197.212 88.4779 197.212 83.7104C197.212 78.9428 198.036 75.4353 199.677 73.1809C201.319 70.9265 203.88 69.8027 207.346 69.8027C210.813 69.8027 213.415 70.9265 215.056 73.1809C216.698 75.4353 217.522 78.9428 217.522 83.7104C217.522 88.4779 216.698 91.9855 215.056 94.2399C213.408 96.4942 210.84 97.618 207.346 97.618ZM207.387 92.5304C208.838 92.5304 209.866 91.8425 210.473 90.4735C211.079 89.1045 211.385 86.8501 211.385 83.7172C211.385 80.5842 211.079 78.2958 210.473 76.9404C209.866 75.5783 208.838 74.904 207.387 74.904C205.937 74.904 204.935 75.5851 204.302 76.9404C203.669 78.2958 203.348 80.557 203.348 83.7172C203.348 86.8774 203.669 89.1045 204.302 90.4735C204.935 91.8493 205.964 92.5304 207.387 92.5304Z" fill="white"/>
<path d="M98.9527 131.379C97.9924 131.379 97.5156 130.861 97.5156 129.826V105.743C97.5156 104.708 97.9924 104.19 98.9527 104.19H105.089C107.936 104.19 109.986 104.885 111.246 106.268C112.499 107.65 113.133 109.435 113.133 111.607C113.133 112.874 112.792 114.032 112.104 115.081C111.416 116.13 110.545 116.824 109.482 117.158L109.523 117.315C110.817 117.649 111.886 118.418 112.731 119.624C113.569 120.829 113.991 122.219 113.991 123.799C113.991 128.846 111.028 131.372 105.096 131.372H98.9595L98.9527 131.379ZM103.339 115.067H105.089C105.941 115.067 106.56 114.829 106.935 114.345C107.31 113.869 107.5 113.106 107.5 112.071C107.5 111.035 107.31 110.375 106.935 109.932C106.56 109.489 105.947 109.271 105.089 109.271H103.339V115.06V115.067ZM103.339 126.291H105.089C106.097 126.291 106.833 126.046 107.282 125.556C107.732 125.066 107.963 124.262 107.963 123.145C107.963 122.028 107.739 121.136 107.282 120.618C106.826 120.1 106.097 119.842 105.089 119.842H103.339V126.291Z" fill="white"/>
<path d="M118.261 131.461C116.708 131.461 115.932 131.032 115.932 130.18V105.75C115.932 104.715 116.449 104.197 117.485 104.197H124.091C126.938 104.197 129.056 104.892 130.439 106.275C131.821 107.657 132.516 109.816 132.516 112.745C132.516 113.984 132.305 115.054 131.876 115.953C131.447 116.845 130.909 117.546 130.262 118.05C129.615 118.554 128.927 118.834 128.205 118.888V119.045C128.722 119.229 129.206 119.569 129.662 120.073C130.119 120.577 130.432 121.156 130.616 121.803L132.986 129.574C133.088 129.888 133.143 130.18 133.143 130.466C133.143 130.882 132.979 131.154 132.659 131.284C132.332 131.413 131.719 131.481 130.813 131.481H129.451C128.831 131.481 128.314 131.406 127.898 131.25C127.483 131.093 127.224 130.807 127.122 130.398L125.337 123.213C125.153 122.464 124.888 121.96 124.54 121.701C124.193 121.442 123.641 121.313 122.892 121.313H121.959V130.208C121.959 131.059 121.183 131.488 119.63 131.488H118.268L118.261 131.461ZM121.952 116.198H124.091C125.072 116.198 125.753 115.925 126.127 115.381C126.502 114.836 126.693 113.957 126.693 112.738C126.693 111.519 126.502 110.64 126.127 110.095C125.753 109.551 125.072 109.278 124.091 109.278H121.952V116.191V116.198Z" fill="white"/>
<path d="M144.748 131.692C141.274 131.692 138.72 130.568 137.079 128.314C135.437 126.06 134.613 122.552 134.613 117.785C134.613 113.017 135.437 109.509 137.079 107.255C138.72 105.001 141.281 103.877 144.748 103.877C148.214 103.877 150.816 105.001 152.458 107.255C154.099 109.509 154.923 113.017 154.923 117.785C154.923 122.552 154.099 126.06 152.458 128.314C150.809 130.568 148.242 131.692 144.748 131.692ZM144.789 126.605C146.239 126.605 147.268 125.917 147.874 124.548C148.48 123.179 148.787 120.924 148.787 117.791C148.787 114.658 148.48 112.37 147.874 111.015C147.268 109.653 146.239 108.978 144.789 108.978C143.338 108.978 142.337 109.659 141.703 111.015C141.07 112.37 140.75 114.631 140.75 117.791C140.75 120.952 141.07 123.179 141.703 124.548C142.337 125.923 143.365 126.605 144.789 126.605Z" fill="white"/>
<path d="M160.365 131.461C158.813 131.461 158.036 131.031 158.036 130.18V105.396C158.036 104.544 158.813 104.115 160.365 104.115H161.687C162.565 104.115 163.212 104.204 163.628 104.388C164.043 104.572 164.363 104.905 164.602 105.396L170.663 117.478C170.793 117.764 170.936 118.111 171.092 118.527C171.249 118.942 171.392 119.358 171.521 119.773L171.719 119.732C171.665 119.29 171.617 118.854 171.562 118.411C171.508 117.968 171.487 117.532 171.487 117.09V105.396C171.487 104.544 172.264 104.115 173.817 104.115H174.75C176.303 104.115 177.079 104.544 177.079 105.396V130.18C177.079 131.031 176.303 131.461 174.75 131.461H173.429C172.577 131.461 171.937 131.372 171.528 131.188C171.113 131.004 170.793 130.671 170.554 130.18L164.459 117.907C164.329 117.621 164.186 117.274 164.03 116.858C163.873 116.443 163.73 116.027 163.601 115.612L163.403 115.653C163.458 116.095 163.505 116.531 163.56 116.974C163.614 117.417 163.635 117.853 163.635 118.295V130.18C163.635 131.031 162.858 131.461 161.305 131.461H160.372H160.365Z" fill="white"/>
<path d="M190.932 131.692C187.254 131.692 184.584 130.562 182.929 128.294C181.274 126.026 180.443 122.498 180.443 117.71C180.443 112.922 181.302 109.612 183.025 107.316C184.748 105.021 187.445 103.877 191.123 103.877C191.845 103.877 192.519 103.925 193.145 104.013C193.765 104.102 194.249 104.204 194.583 104.306C195.046 104.435 195.366 104.626 195.536 104.871C195.706 105.117 195.788 105.45 195.788 105.859C195.788 106.349 195.74 106.874 195.652 107.432C195.563 107.991 195.42 108.467 195.223 108.869C195.025 109.271 194.76 109.469 194.426 109.469C194.167 109.469 193.765 109.407 193.22 109.292C192.676 109.176 192.069 109.114 191.395 109.114C189.74 109.114 188.535 109.796 187.785 111.151C187.036 112.513 186.662 114.706 186.662 117.737C186.662 120.768 187.05 123.002 187.826 124.357C188.603 125.712 189.856 126.393 191.593 126.393C192.444 126.393 193.118 126.325 193.615 126.182C194.106 126.039 194.521 125.971 194.862 125.971C195.175 125.971 195.427 126.155 195.618 126.516C195.815 126.877 195.958 127.32 196.067 127.837C196.169 128.355 196.224 128.873 196.224 129.39C196.224 129.778 196.149 130.112 195.992 130.398C195.836 130.684 195.516 130.916 195.018 131.1C194.63 131.229 194.065 131.358 193.329 131.488C192.594 131.617 191.797 131.685 190.939 131.685L190.932 131.692Z" fill="white"/>
<path d="M199.868 131.379C198.907 131.379 198.431 130.861 198.431 129.826V105.743C198.431 104.708 198.907 104.19 199.868 104.19H211.289C212.066 104.19 212.454 104.837 212.454 106.132V107.337C212.454 108.631 212.066 109.278 211.289 109.278H204.451V114.911H210.547C211.296 114.911 211.671 115.558 211.671 116.852V118.057C211.671 119.351 211.296 119.998 210.547 119.998H204.451V126.291H211.289C212.066 126.291 212.454 126.938 212.454 128.233V129.438C212.454 130.732 212.066 131.379 211.289 131.379H199.868Z" fill="white"/>
<defs>
<linearGradient id="paint0_linear_419_3327" x1="155.529" y1="272.356" x2="152.784" y2="-112.141" gradientUnits="userSpaceOnUse">
<stop offset="0.26" stop-color="#941E14"/>
<stop offset="0.39" stop-color="#7A4428"/>
<stop offset="0.44" stop-color="#612011"/>
<stop offset="0.48" stop-color="#673118"/>
<stop offset="0.59" stop-color="#9A3315"/>
</linearGradient>
</defs>
</svg>
