<svg width="308" height="203" viewBox="0 0 308 203" fill="none" xmlns="http://www.w3.org/2000/svg">
<path d="M92.2984 97.3108C91.3381 97.3108 90.8613 96.7931 90.8613 95.7579V71.6749C90.8613 70.6397 91.3381 70.1221 92.2984 70.1221H103.72C104.497 70.1221 104.885 70.7691 104.885 72.0631V73.2687C104.885 74.5627 104.497 75.2097 103.72 75.2097H96.8821V80.8423H102.978C103.727 80.8423 104.102 81.4893 104.102 82.7833V83.9888C104.102 85.2829 103.727 85.9299 102.978 85.9299H96.8821V92.2231H103.72C104.497 92.2231 104.885 92.8701 104.885 94.1642V95.3697C104.885 96.6637 104.497 97.3108 103.72 97.3108H92.2984Z" fill="white"/>
<path d="M107.058 97.3854C105.818 97.3854 105.191 97.1266 105.191 96.6089C105.191 96.4795 105.219 96.3365 105.266 96.1799C105.321 96.0232 105.382 95.8598 105.464 95.6759L110.708 83.1304L106.199 71.7495C106.07 71.4158 106.002 71.157 106.002 70.9731C106.002 70.6871 106.138 70.4623 106.411 70.292C106.683 70.1218 107.139 70.04 107.786 70.04H109.687C110.204 70.04 110.66 70.1013 111.049 70.2171C111.437 70.3329 111.709 70.6394 111.866 71.1298L114.509 79.6773L117.458 70.8233C117.587 70.4623 117.839 70.2376 118.214 70.1626C118.588 70.0877 119.065 70.0469 119.63 70.0469H121.381C122.518 70.0469 123.09 70.292 123.09 70.7824C123.09 70.9663 122.988 71.2864 122.777 71.7564L118.077 83.2121L123.008 95.6827C123.165 96.0709 123.24 96.3842 123.24 96.6158C123.24 97.1334 122.634 97.3922 121.415 97.3922H119.664C118.888 97.3922 118.357 97.3173 118.071 97.1811C117.785 97.038 117.567 96.7452 117.41 96.3093L114.338 87.0262L110.96 96.2684C110.776 96.7315 110.545 97.038 110.259 97.1811C109.973 97.3241 109.455 97.3922 108.706 97.3922H107.037L107.058 97.3854Z" fill="white"/>
<path d="M257.985 137.087H48.6213C44.4122 137.087 41 133.674 41 129.465L57.196 100.54L41 71.6213C41 67.4122 44.4122 64 48.6213 64H257.985C262.194 64 265.606 67.4122 265.606 71.6213L249.41 100.547L265.606 129.472C265.606 133.681 262.194 137.093 257.985 137.093V137.087Z" fill="url(#paint0_linear_419_3311)"/>
<path d="M127.217 97.3857C125.664 97.3857 124.888 96.9566 124.888 96.1052V71.6749C124.888 70.6397 125.364 70.1221 126.325 70.1221H133.047C135.894 70.1221 138.012 70.8372 139.395 72.2607C140.777 73.6841 141.472 75.8227 141.472 78.6696C141.472 81.5165 140.777 83.6211 139.395 85.0581C138.012 86.4952 135.894 87.2172 133.047 87.2172H130.908V96.1121C130.908 96.9634 130.132 97.3925 128.579 97.3925H127.217V97.3857ZM130.908 82.1227H133.047C134.028 82.1227 134.709 81.8503 135.083 81.3054C135.458 80.7605 135.649 79.8819 135.649 78.6628C135.649 77.4437 135.458 76.5651 135.083 76.0202C134.709 75.4754 134.028 75.2029 133.047 75.2029H130.908V82.1159V82.1227Z" fill="white"/>
<path d="M145.355 97.3108C144.395 97.3108 143.918 96.7931 143.918 95.7579V71.6749C143.918 70.6397 144.395 70.1221 145.355 70.1221H156.777C157.553 70.1221 157.941 70.7691 157.941 72.0631V73.2687C157.941 74.5627 157.553 75.2097 156.777 75.2097H149.939V80.8423H156.034C156.784 80.8423 157.158 81.4893 157.158 82.7833V83.9888C157.158 85.2829 156.784 85.9299 156.034 85.9299H149.939V92.2231H156.777C157.553 92.2231 157.941 92.8701 157.941 94.1642V95.3697C157.941 96.6637 157.553 97.3108 156.777 97.3108H145.355Z" fill="white"/>
<path d="M162.797 97.3857C161.244 97.3857 160.468 96.9566 160.468 96.1052V71.6749C160.468 70.6397 160.985 70.1221 162.021 70.1221H168.627C171.474 70.1221 173.592 70.8168 174.975 72.1994C176.357 73.5819 177.052 75.741 177.052 78.6696C177.052 79.916 176.841 80.9785 176.412 81.8775C175.983 82.7697 175.445 83.4712 174.798 83.9752C174.151 84.4792 173.463 84.7585 172.741 84.8129V84.9696C173.258 85.1535 173.742 85.494 174.198 85.998C174.655 86.502 174.968 87.0809 175.152 87.728L177.522 95.4991C177.624 95.8124 177.679 96.1052 177.679 96.3913C177.679 96.8068 177.515 97.0792 177.195 97.2086C176.868 97.338 176.255 97.4061 175.349 97.4061H173.987C173.367 97.4061 172.85 97.3312 172.434 97.1745C172.019 97.0179 171.76 96.7318 171.658 96.3232L169.873 89.1378C169.69 88.3886 169.424 87.8846 169.077 87.6258C168.729 87.367 168.178 87.2376 167.428 87.2376H166.495V96.1325C166.495 96.9838 165.719 97.4129 164.166 97.4129H162.804L162.797 97.3857ZM166.488 82.1227H168.627C169.608 82.1227 170.289 81.8503 170.664 81.3054C171.038 80.7605 171.229 79.8819 171.229 78.6628C171.229 77.4437 171.038 76.5651 170.664 76.0202C170.289 75.4754 169.608 75.2029 168.627 75.2029H166.488V82.1159V82.1227Z" fill="white"/>
<path d="M185.79 97.3857C184.238 97.3857 183.461 96.9566 183.461 96.1052V75.2097H179.109C178.333 75.2097 177.944 74.5627 177.944 73.2687V72.0631C177.944 70.7691 178.333 70.1221 179.109 70.1221H193.827C194.604 70.1221 194.992 70.7691 194.992 72.0631V73.2687C194.992 74.5627 194.604 75.2097 193.827 75.2097H189.475V96.1052C189.475 96.9566 188.699 97.3857 187.146 97.3857H185.784H185.79Z" fill="white"/>
<path d="M206.339 97.617C202.865 97.617 200.311 96.4933 198.67 94.2389C197.021 91.9845 196.204 88.477 196.204 83.7094C196.204 78.9418 197.028 75.4343 198.67 73.1799C200.311 70.9255 202.872 69.8018 206.339 69.8018C209.805 69.8018 212.407 70.9255 214.048 73.1799C215.69 75.4343 216.514 78.9418 216.514 83.7094C216.514 88.477 215.69 91.9845 214.048 94.2389C212.4 96.4933 209.833 97.617 206.339 97.617ZM206.379 92.5294C207.83 92.5294 208.859 91.8415 209.465 90.4725C210.071 89.1035 210.377 86.8492 210.377 83.7162C210.377 80.5832 210.071 78.2948 209.465 76.9395C208.859 75.5773 207.823 74.903 206.379 74.903C204.935 74.903 203.928 75.5841 203.294 76.9395C202.661 78.2948 202.341 80.556 202.341 83.7162C202.341 86.8764 202.661 89.1035 203.294 90.4725C203.928 91.8483 204.956 92.5294 206.379 92.5294Z" fill="white"/>
<path d="M132.251 131.691C128.777 131.691 126.223 130.567 124.582 128.313C122.934 126.059 122.116 122.551 122.116 117.784C122.116 113.016 122.94 109.508 124.582 107.254C126.223 105 128.784 103.876 132.251 103.876C135.717 103.876 138.319 105 139.961 107.254C141.602 109.508 142.426 113.016 142.426 117.784C142.426 122.551 141.602 126.059 139.961 128.313C138.312 130.567 135.745 131.691 132.251 131.691ZM132.292 126.604C133.742 126.604 134.771 125.916 135.377 124.547C135.983 123.178 136.29 120.923 136.29 117.79C136.29 114.657 135.983 112.369 135.377 111.014C134.771 109.652 133.735 108.977 132.292 108.977C130.848 108.977 129.84 109.658 129.206 111.014C128.573 112.369 128.253 114.63 128.253 117.79C128.253 120.951 128.573 123.178 129.206 124.547C129.84 125.923 130.868 126.604 132.292 126.604Z" fill="white"/>
<path d="M147.862 131.46C146.309 131.46 145.532 131.031 145.532 130.179V105.749C145.532 104.714 146.05 104.196 147.085 104.196H153.692C156.538 104.196 158.657 104.891 160.039 106.274C161.422 107.656 162.116 109.815 162.116 112.744C162.116 113.983 161.905 115.053 161.476 115.952C161.047 116.844 160.509 117.545 159.862 118.049C159.215 118.553 158.527 118.833 157.805 118.887V119.044C158.323 119.228 158.806 119.568 159.263 120.072C159.719 120.576 160.032 121.155 160.216 121.802L162.586 129.573C162.689 129.887 162.743 130.179 162.743 130.466C162.743 130.881 162.58 131.153 162.26 131.283C161.933 131.412 161.32 131.48 160.414 131.48H159.052C158.432 131.48 157.914 131.405 157.499 131.249C157.083 131.092 156.825 130.806 156.722 130.397L154.938 123.212C154.754 122.463 154.488 121.959 154.141 121.7C153.794 121.441 153.242 121.312 152.493 121.312H151.56V130.207C151.56 131.058 150.783 131.487 149.231 131.487H147.868L147.862 131.46ZM151.553 116.197H153.692C154.672 116.197 155.353 115.924 155.728 115.38C156.103 114.835 156.293 113.956 156.293 112.737C156.293 111.518 156.103 110.639 155.728 110.094C155.353 109.55 154.672 109.277 153.692 109.277H151.553V116.19V116.197Z" fill="white"/>
<path d="M174.355 131.691C170.882 131.691 168.328 130.567 166.686 128.313C165.038 126.059 164.221 122.551 164.221 117.784C164.221 113.016 165.045 109.508 166.686 107.254C168.328 105 170.888 103.876 174.355 103.876C177.822 103.876 180.424 105 182.065 107.254C183.706 109.508 184.53 113.016 184.53 117.784C184.53 122.551 183.706 126.059 182.065 128.313C180.417 130.567 177.849 131.691 174.355 131.691ZM174.396 126.604C175.847 126.604 176.875 125.916 177.481 124.547C178.087 123.178 178.394 120.923 178.394 117.79C178.394 114.657 178.087 112.369 177.481 111.014C176.875 109.652 175.84 108.977 174.396 108.977C172.952 108.977 171.944 109.658 171.311 111.014C170.677 112.369 170.357 114.63 170.357 117.79C170.357 120.951 170.677 123.178 171.311 124.547C171.944 125.923 172.973 126.604 174.396 126.604Z" fill="white"/>
<defs>
<linearGradient id="paint0_linear_419_3311" x1="154.413" y1="228.045" x2="151.934" y2="-55.6384" gradientUnits="userSpaceOnUse">
<stop stop-color="#EFBE48"/>
<stop offset="0.12" stop-color="#F8DB77"/>
<stop offset="0.21" stop-color="#FFEE97"/>
<stop offset="0.45" stop-color="#A2631F"/>
<stop offset="0.67" stop-color="#EFA64C"/>
<stop offset="1" stop-color="#EFBE48"/>
</linearGradient>
</defs>
</svg>
