<svg width="308" height="203" viewBox="0 0 308 203" fill="none" xmlns="http://www.w3.org/2000/svg">
<path d="M258.985 138.087H49.6213C45.4122 138.087 42 134.674 42 130.465L58.1961 101.54L42 72.6213C42 68.4122 45.4122 65 49.6213 65H258.985C263.194 65 266.606 68.4122 266.606 72.6213L250.41 101.547L266.606 130.472C266.606 134.681 263.194 138.093 258.985 138.093V138.087Z" fill="url(#paint0_linear_419_3328)"/>
<path d="M93.2994 98.3108C92.3391 98.3108 91.8623 97.7931 91.8623 96.7579V72.6749C91.8623 71.6397 92.3391 71.1221 93.2994 71.1221H104.721C105.498 71.1221 105.886 71.7691 105.886 73.0631V74.2687C105.886 75.5627 105.498 76.2097 104.721 76.2097H97.883V81.8423H103.979C104.728 81.8423 105.102 82.4893 105.102 83.7833V84.9888C105.102 86.2829 104.728 86.9299 103.979 86.9299H97.883V93.2231H104.721C105.498 93.2231 105.886 93.8701 105.886 95.1642V96.3697C105.886 97.6637 105.498 98.3108 104.721 98.3108H93.2994Z" fill="white"/>
<path d="M108.065 98.3854C106.819 98.3854 106.199 98.1266 106.199 97.6089C106.199 97.4795 106.226 97.3365 106.274 97.1799C106.329 97.0232 106.39 96.8598 106.472 96.6759L111.716 84.1304L107.207 72.7495C107.078 72.4158 107.01 72.157 107.01 71.9731C107.01 71.6871 107.146 71.4623 107.418 71.292C107.691 71.1218 108.147 71.04 108.794 71.04H110.694C111.212 71.04 111.668 71.1013 112.056 71.2171C112.445 71.3329 112.717 71.6394 112.874 72.1298L115.516 80.6773L118.465 71.8233C118.595 71.4623 118.847 71.2376 119.221 71.1626C119.596 71.0877 120.073 71.0469 120.638 71.0469H122.388C123.526 71.0469 124.098 71.292 124.098 71.7824C124.098 71.9663 123.996 72.2864 123.785 72.7564L119.085 84.2121L124.016 96.6827C124.173 97.0709 124.248 97.3842 124.248 97.6158C124.248 98.1334 123.642 98.3922 122.423 98.3922H120.672C119.896 98.3922 119.364 98.3173 119.078 98.1811C118.792 98.038 118.574 97.7452 118.418 97.3093L115.346 88.0262L111.968 97.2684C111.784 97.7315 111.553 98.038 111.266 98.1811C110.98 98.3241 110.463 98.3922 109.714 98.3922H108.045L108.065 98.3854Z" fill="white"/>
<path d="M128.218 98.3857C126.665 98.3857 125.889 97.9566 125.889 97.1052V72.6749C125.889 71.6397 126.365 71.1221 127.326 71.1221H134.048C136.895 71.1221 139.013 71.8372 140.396 73.2607C141.778 74.6841 142.473 76.8227 142.473 79.6696C142.473 82.5165 141.778 84.6211 140.396 86.0581C139.013 87.4952 136.895 88.2172 134.048 88.2172H131.909V97.1121C131.909 97.9634 131.133 98.3925 129.58 98.3925H128.218V98.3857ZM131.909 83.1227H134.048C135.029 83.1227 135.71 82.8503 136.084 82.3054C136.459 81.7605 136.65 80.8819 136.65 79.6628C136.65 78.4437 136.459 77.5651 136.084 77.0202C135.71 76.4754 135.029 76.2029 134.048 76.2029H131.909V83.1159V83.1227Z" fill="white"/>
<path d="M146.363 98.3108C145.403 98.3108 144.926 97.7931 144.926 96.7579V72.6749C144.926 71.6397 145.403 71.1221 146.363 71.1221H157.785C158.561 71.1221 158.949 71.7691 158.949 73.0631V74.2687C158.949 75.5627 158.561 76.2097 157.785 76.2097H150.947V81.8423H157.042C157.791 81.8423 158.166 82.4893 158.166 83.7833V84.9888C158.166 86.2829 157.791 86.9299 157.042 86.9299H150.947V93.2231H157.785C158.561 93.2231 158.949 93.8701 158.949 95.1642V96.3697C158.949 97.6637 158.561 98.3108 157.785 98.3108H146.363Z" fill="white"/>
<path d="M163.798 98.3857C162.245 98.3857 161.469 97.9566 161.469 97.1052V72.6749C161.469 71.6397 161.986 71.1221 163.022 71.1221H169.628C172.475 71.1221 174.593 71.8168 175.976 73.1994C177.358 74.5819 178.053 76.741 178.053 79.6696C178.053 80.916 177.842 81.9785 177.413 82.8775C176.984 83.7697 176.446 84.4712 175.799 84.9752C175.152 85.4792 174.464 85.7585 173.742 85.8129V85.9696C174.259 86.1535 174.743 86.494 175.199 86.998C175.656 87.502 175.969 88.0809 176.153 88.728L178.523 96.4991C178.625 96.8124 178.68 97.1052 178.68 97.3913C178.68 97.8068 178.516 98.0792 178.196 98.2086C177.869 98.338 177.256 98.4061 176.35 98.4061H174.988C174.368 98.4061 173.851 98.3312 173.435 98.1745C173.02 98.0179 172.761 97.7318 172.659 97.3232L170.874 90.1378C170.691 89.3886 170.425 88.8846 170.078 88.6258C169.73 88.367 169.179 88.2376 168.429 88.2376H167.496V97.1325C167.496 97.9838 166.72 98.4129 165.167 98.4129H163.805L163.798 98.3857ZM167.49 83.1227H169.628C170.609 83.1227 171.29 82.8503 171.665 82.3054C172.039 81.7605 172.23 80.8819 172.23 79.6628C172.23 78.4437 172.039 77.5651 171.665 77.0202C171.29 76.4754 170.609 76.2029 169.628 76.2029H167.49V83.1159V83.1227Z" fill="white"/>
<path d="M186.798 98.3857C185.245 98.3857 184.469 97.9566 184.469 97.1052V76.2097H180.117C179.34 76.2097 178.952 75.5627 178.952 74.2687V73.0631C178.952 71.7691 179.34 71.1221 180.117 71.1221H194.835C195.611 71.1221 196 71.7691 196 73.0631V74.2687C196 75.5627 195.611 76.2097 194.835 76.2097H190.483V97.1052C190.483 97.9566 189.706 98.3857 188.154 98.3857H186.791H186.798Z" fill="white"/>
<path d="M207.346 98.617C203.873 98.617 201.319 97.4933 199.677 95.2389C198.029 92.9845 197.212 89.477 197.212 84.7094C197.212 79.9418 198.036 76.4343 199.677 74.1799C201.319 71.9255 203.88 70.8018 207.346 70.8018C210.813 70.8018 213.415 71.9255 215.056 74.1799C216.698 76.4343 217.522 79.9418 217.522 84.7094C217.522 89.477 216.698 92.9845 215.056 95.2389C213.408 97.4933 210.84 98.617 207.346 98.617ZM207.387 93.5294C208.838 93.5294 209.866 92.8415 210.473 91.4725C211.079 90.1035 211.385 87.8492 211.385 84.7162C211.385 81.5832 211.079 79.2948 210.473 77.9395C209.866 76.5773 208.831 75.903 207.387 75.903C205.943 75.903 204.935 76.5841 204.302 77.9395C203.669 79.2948 203.348 81.556 203.348 84.7162C203.348 87.8764 203.669 90.1035 204.302 91.4725C204.935 92.8483 205.964 93.5294 207.387 93.5294Z" fill="white"/>
<path d="M113.984 132.46C112.431 132.46 111.654 132.031 111.654 131.179V106.749C111.654 105.714 112.131 105.196 113.091 105.196H119.814C122.661 105.196 124.779 105.911 126.161 107.335C127.544 108.758 128.239 110.897 128.239 113.744C128.239 116.591 127.544 118.695 126.161 120.132C124.779 121.569 122.661 122.291 119.814 122.291H117.675V131.186C117.675 132.038 116.899 132.467 115.346 132.467H113.984V132.46ZM117.675 117.197H119.814C120.794 117.197 121.475 116.924 121.85 116.38C122.225 115.835 122.415 114.956 122.415 113.737C122.415 112.518 122.225 111.639 121.85 111.094C121.475 110.55 120.794 110.277 119.814 110.277H117.675V117.19V117.197Z" fill="white"/>
<path d="M132.127 132.378C131.167 132.378 130.69 131.86 130.69 130.825V106.395C130.69 105.543 131.467 105.114 133.02 105.114H134.382C135.935 105.114 136.711 105.543 136.711 106.395V127.29H142.385C143.161 127.29 143.549 127.937 143.549 129.231V130.437C143.549 131.731 143.161 132.378 142.385 132.378H132.127Z" fill="white"/>
<path d="M145.293 132.46C144.693 132.46 144.271 132.371 144.012 132.187C143.753 132.003 143.624 131.785 143.624 131.527C143.624 131.424 143.624 131.315 143.644 131.2C143.658 131.084 143.706 130.859 143.781 130.519L149.372 106.592C149.502 106.02 149.774 105.632 150.19 105.428C150.605 105.223 151.15 105.114 151.824 105.114H154.739C155.461 105.114 156.026 105.216 156.428 105.428C156.83 105.632 157.096 106.027 157.225 106.592L162.817 130.519C162.892 130.859 162.939 131.084 162.953 131.2C162.967 131.315 162.973 131.424 162.973 131.527C162.973 131.785 162.844 132.003 162.585 132.187C162.326 132.371 161.897 132.46 161.305 132.46H159.248C158.703 132.46 158.24 132.391 157.852 132.262C157.464 132.133 157.232 131.86 157.15 131.445L156.299 126.902H150.319L149.468 131.445C149.393 131.86 149.154 132.133 148.766 132.262C148.378 132.391 147.922 132.46 147.404 132.46H145.306H145.293ZM152.676 113.934L151.164 122.168H155.359L153.806 113.934C153.704 113.444 153.609 112.947 153.534 112.456C153.459 111.966 153.391 111.476 153.336 110.978H153.139C153.084 111.469 153.023 111.966 152.941 112.456C152.866 112.947 152.771 113.444 152.669 113.934H152.676Z" fill="white"/>
<path d="M170.657 132.46C169.104 132.46 168.327 132.031 168.327 131.179V110.284H163.975C163.199 110.284 162.811 109.637 162.811 108.343V107.137C162.811 105.843 163.199 105.196 163.975 105.196H178.693C179.47 105.196 179.858 105.843 179.858 107.137V108.343C179.858 109.637 179.47 110.284 178.693 110.284H174.341V131.179C174.341 132.031 173.565 132.46 172.012 132.46H170.65H170.657Z" fill="white"/>
<path d="M181.377 132.46C180.777 132.46 180.355 132.371 180.096 132.187C179.837 132.003 179.708 131.785 179.708 131.527C179.708 131.424 179.708 131.315 179.728 131.2C179.749 131.084 179.783 130.859 179.865 130.519L185.456 106.592C185.586 106.02 185.858 105.632 186.274 105.428C186.689 105.223 187.234 105.114 187.908 105.114H190.823C191.545 105.114 192.11 105.216 192.512 105.428C192.914 105.632 193.18 106.027 193.309 106.592L198.901 130.519C198.976 130.859 199.023 131.084 199.037 131.2C199.051 131.315 199.057 131.424 199.057 131.527C199.057 131.785 198.928 132.003 198.669 132.187C198.41 132.371 197.981 132.46 197.389 132.46H195.332C194.787 132.46 194.324 132.391 193.936 132.262C193.548 132.133 193.316 131.86 193.234 131.445L192.383 126.902H186.403L185.552 131.445C185.477 131.86 185.238 132.133 184.85 132.262C184.462 132.391 184.006 132.46 183.488 132.46H181.39H181.377ZM188.753 113.934L187.241 122.168H191.436L189.883 113.934C189.781 113.444 189.686 112.947 189.611 112.456C189.536 111.966 189.468 111.476 189.413 110.978H189.216C189.161 111.469 189.1 111.966 189.018 112.456C188.943 112.947 188.848 113.444 188.746 113.934H188.753Z" fill="white"/>
<defs>
<linearGradient id="paint0_linear_419_3328" x1="155.529" y1="273.356" x2="152.784" y2="-111.141" gradientUnits="userSpaceOnUse">
<stop stop-color="#D5D5D5"/>
<stop offset="0.05" stop-color="#E0E0E0"/>
<stop offset="0.21" stop-color="white"/>
<stop offset="0.45" stop-color="#272727"/>
<stop offset="0.67" stop-color="#B7B7B7"/>
<stop offset="1" stop-color="#D5D5D5"/>
</linearGradient>
</defs>
</svg>
