<svg xmlns="http://www.w3.org/2000/svg" width="289.011" height="288.752" viewBox="0 0 289.011 288.752"><g transform="translate(-480.721 -619.72)"><rect width="252.342" height="252.344" transform="translate(499.056 637.924)" fill="#fff"/><path d="M-.225-.225H252.567V252.569H-.225Zm252.342.45H.225V252.119H252.117Z" transform="translate(499.056 637.924)" fill="#3c3c3b"/><path d="M115.347,74.186q-.034.492-.145,1.193t-.227,1.445q-.117.744-.29,1.567a20.287,20.287,0,0,1-.937,3.382,13.041,13.041,0,0,1-.66,1.626,6.311,6.311,0,0,1-.349.786c-.126.244-.256.491-.384.735a3.938,3.938,0,0,1-.422.681.911.911,0,0,1-.21.34.964.964,0,0,0-.212.342c-.074.1-.223.284-.443.54a1.451,1.451,0,0,1-.445.54,2.013,2.013,0,0,1-.386.462c-.139.124-.281.26-.424.41a1.864,1.864,0,0,1-.366.33l-.351.244-.454.313-.2.137.151-.1.227-.157a1.127,1.127,0,0,0,.241-.244,1.163,1.163,0,0,1,.29-.281,1.4,1.4,0,0,0,.355-.4,5.577,5.577,0,0,0,.721-.889c.078-.1.153-.195.223-.271a2.733,2.733,0,0,0,.221-.271.555.555,0,0,1,.16-.305.549.549,0,0,0,.16-.305,8.4,8.4,0,0,0,.792-1.327c.128-.246.252-.5.366-.763s.225-.533.33-.813a9.081,9.081,0,0,0,.609-1.592c.1-.279.2-.555.286-.823s.166-.531.237-.786a7.134,7.134,0,0,1,.269-.851,3.791,3.791,0,0,0,.218-.813c.141-.513.265-1.017.372-1.506s.2-.968.271-1.437a10.371,10.371,0,0,0,.2-1.157c.038-.34.08-.655.128-.947l.124-.788a.735.735,0,0,0,.008.229,1.5,1.5,0,0,1,.021.3,2.311,2.311,0,0,1-.031.334c-.011.271-.031.569-.05.9M98.028,82.2a7.932,7.932,0,0,0,.326,1.065,16.563,16.563,0,0,0,.865,2.058c.33.658.649,1.243.954,1.76a9.212,9.212,0,0,0,.819,1.075l.218.319a.194.194,0,0,0,.124.071.194.194,0,0,1-.124-.071.509.509,0,0,0-.116-.115.833.833,0,0,1-.153-.168,7.219,7.219,0,0,1-.867-1.04l-.548-.794a5.692,5.692,0,0,1-.483-.916c-.088-.2-.174-.374-.254-.527a4.884,4.884,0,0,1-.218-.475c-.086-.2-.162-.382-.227-.546a4.974,4.974,0,0,1-.177-.58q-.369-1.071-.651-2.126-.092-.561-.2-1.036c-.069-.315-.128-.615-.172-.9s-.088-.536-.124-.771a4.221,4.221,0,0,1-.067-.58,2.326,2.326,0,0,0-.052-.237.391.391,0,0,1-.017-.185.184.184,0,0,0-.023-.139,2.528,2.528,0,0,1,.141.529c.029.185.065.4.1.632a5.562,5.562,0,0,0,.174.735c.078.26.155.546.223.863s.153.649.246,1,.187.718.275,1.1m-3.285-6.749a6.039,6.039,0,0,0-.013-.771,6.073,6.073,0,0,1-.013-.773c-.042-.491-.063-.933-.061-1.325s.013-.752.036-1.078a2.335,2.335,0,0,0,.031-.332,1.863,1.863,0,0,0-.021-.3.744.744,0,0,1-.01-.229.744.744,0,0,0,.01.229c.015.094.036.2.063.307a.823.823,0,0,1,.013.342,10.5,10.5,0,0,1,.059,1.054,5.272,5.272,0,0,1,.059.622c.008.229.025.466.044.712a3.891,3.891,0,0,0,.021.727c.032.37.057.729.076,1.08s.04.649.061.893.011.307-.029.176Zm14.382-11.026-.286-.741c-.04-.126-.078-.258-.118-.386a1.073,1.073,0,0,0-.132-.3,1.2,1.2,0,0,0-.151-.326.664.664,0,0,1-.115-.273,1.126,1.126,0,0,1-.2-.407l-.256-.368.256.368.254.37a2.862,2.862,0,0,1,.315.563,1.864,1.864,0,0,1,.176.311,2.89,2.89,0,0,1,.126.342,2.431,2.431,0,0,0,.162.4,2.75,2.75,0,0,1,.162.4c.078.26-.183.206-.189.053m.668-.111a10.2,10.2,0,0,0-1.317-2.876,9.22,9.22,0,0,0-2.187-2.2,10.792,10.792,0,0,0-2.857-1.5,8.789,8.789,0,0,0-3.018-.494,4.64,4.64,0,0,0-2.613.79,6.491,6.491,0,0,0-2.124,2.951,21.993,21.993,0,0,0-1.327,4.859,40.767,40.767,0,0,0-.515,5.978,42.863,42.863,0,0,0,.349,6.318,36.4,36.4,0,0,0,1.264,5.921,17.233,17.233,0,0,0,2.21,4.758,7.718,7.718,0,0,0,2.512,2.132,16.5,16.5,0,0,0,3.783,1.6,14.328,14.328,0,0,0,4.105.563,6.1,6.1,0,0,0,3.476-1,13.206,13.206,0,0,0,3.71-3.989,30.972,30.972,0,0,0,2.649-5.419,40.626,40.626,0,0,0,1.731-5.942A12.038,12.038,0,0,0,120.088,74c.435-3.189-5.359-3.033-5.228-1.972a20.72,20.72,0,0,1-.275,2.567,39.775,39.775,0,0,1-1.275,5.684,26.514,26.514,0,0,1-2.126,5.1A10.4,10.4,0,0,1,108.035,89q-1.612,1.111-2.726.519a5.872,5.872,0,0,1-2.027-1.912,16.449,16.449,0,0,1-2.017-4.214,33.522,33.522,0,0,1-1.256-5.207,39.091,39.091,0,0,1-.492-5.5,34.8,34.8,0,0,1,.26-5.165A17.833,17.833,0,0,1,100.8,63.3a5.378,5.378,0,0,1,1.769-2.548c.47-.323.813-.366,1.029-.124a6.191,6.191,0,0,1,.47.573,6.291,6.291,0,0,1,.933,2.481c.183,1.017,2.924,2,4.787.636" transform="translate(564.256 670.016)" fill="#ffed00"/><path d="M119.209,88.71l.145.212-.145-.212a4.2,4.2,0,0,1-.387-.668c-.1-.141-.193-.3-.286-.468s-.183-.355-.271-.554a3.5,3.5,0,0,0-.233-.66c-.1-.216-.2-.471-.3-.765-.08-.258-.174-.517-.282-.783s-.225-.559-.351-.888c-.1-.292-.2-.592-.286-.9s-.193-.618-.321-.949c-.221-.681-.42-1.363-.6-2.05s-.37-1.4-.582-2.134c-.187-.7-.363-1.4-.521-2.1s-.321-1.38-.485-2.048-.309-1.307-.437-1.922-.254-1.191-.378-1.733c-.229-1.193-.391-2.071-.481-2.632a1,1,0,0,0-.076-.378,1.2,1.2,0,0,1-.088-.29l-.046-.282a6.014,6.014,0,0,1,.246,1c.071.317.153.689.25,1.117s.208.91.332,1.451.258,1.109.4,1.712.3,1.239.462,1.9q.492,2,1.094,4.167.281,1.054.565,2.109c.187.7.38,1.376.576,2.021.1.349.185.679.271.983s.183.605.286.9c.126.33.237.632.328.909s.174.54.254.8A11.455,11.455,0,0,0,118.4,87a2.522,2.522,0,0,0,.2.563,4.468,4.468,0,0,1,.218.475,4.2,4.2,0,0,0,.387.668m-7.047-9.228q-.361-1.114-.763-2.556-.2-.719-.42-1.47t-.441-1.607q-.223-.862-.452-1.678c-.153-.546-.317-1.122-.489-1.731q-.4-1.755-.867-3.619t-.924-3.813q-.452-1.95-.828-3.838t-.721-3.682q-.346-1.789-.624-3.434t-.544-3.1q-.229-1.4-.42-2.6c-.13-.8-.239-1.477-.33-2.037-.1-.657-.208-1.235-.307-1.741.122.54.256,1.126.4,1.756.124.542.267,1.2.429,1.97s.332,1.645.508,2.619q.312,1.42.637,3.071t.668,3.445q.344,1.792.746,3.663t.855,3.821q.418,1.9.861,3.775t.876,3.691c.174.609.328,1.193.464,1.748s.267,1.1.391,1.641.261,1.059.407,1.556.267,1,.368,1.5c.267.964.5,1.817.693,2.565s.368,1.414.517,1.987q.3.965.483,1.775a1.1,1.1,0,0,1-.155-.439,3.752,3.752,0,0,1-.16-.554,5.582,5.582,0,0,0-.218-.748q-.272-.825-.636-1.943m-5.945-30.407c.1.475.206.964.307,1.466.122.54.239,1.086.347,1.634s.208,1.107.3,1.67q.4,1.758.7,3.268.149.753.324,1.493a12.056,12.056,0,0,1,.252,1.386q.163.67.261,1.189c.065.344.126.628.179.849.046.281.1.534.151.756a.485.485,0,0,1-.059-.193l-.092-.563c-.078-.256-.168-.546-.265-.868s-.2-.706-.313-1.153c-.086-.408-.185-.859-.3-1.353s-.225-.987-.326-1.491q-.421-1.586-.695-3.27c-.149-.573-.269-1.141-.361-1.7s-.185-1.1-.286-1.6-.195-1-.281-1.487-.17-.962-.246-1.431c-.084-.408-.151-.792-.2-1.147a8.693,8.693,0,0,0-.157-.87c-.044-.282-.094-.533-.149-.756a6,6,0,0,1,.185.807q.083.335.206.836c.082.332.164.706.25,1.115.074.47.166.941.271,1.414m18.2,22.8q.309,2.01.552,4.188t.323,4.344a25.36,25.36,0,0,1-.151,4.085,12.522,12.522,0,0,1-.872,3.415,5.187,5.187,0,0,1-1.8,2.3,1.193,1.193,0,0,1-1.89-.261,20.25,20.25,0,0,1-2.147-4.455q-1.054-2.872-2.075-6.5t-1.945-7.766q-.922-4.131-1.764-8.2t-1.544-7.883q-.7-3.816-1.286-6.814t-.979-4.915a8.813,8.813,0,0,0-.649-2.287,3.08,3.08,0,0,0-1.447-1.073,9.44,9.44,0,0,0-1.933-.54,9.31,9.31,0,0,0-1.729-.136,2.358,2.358,0,0,0-.918.124c-.334.233-.357.559-.065.983a17.291,17.291,0,0,1,.449,1.995q.375,1.89.968,4.951t1.384,7.01q.793,3.945,1.708,8.23t1.949,8.57q1.036,4.286,2.134,8.054T112.9,86a21.545,21.545,0,0,0,2.172,4.474,6.6,6.6,0,0,0,2.68,2.287,11.524,11.524,0,0,0,3.323.987,10.065,10.065,0,0,0,3.271-.073,6.546,6.546,0,0,0,2.476-.93,8,8,0,0,0,3.229-4.581,21.264,21.264,0,0,0,.739-6.247,42.129,42.129,0,0,0-.679-6.633q-.6-3.29-.987-5.68c-.061-.376-.368-.7-.926-.964a8.165,8.165,0,0,0-1.832-.609,6.316,6.316,0,0,0-1.771-.143c-.513.046-.762.189-.741.435q.249,1.546.561,3.556" transform="translate(571.588 653.772)" fill="#ffed00"/><path d="M93.332,85.594c.191.24.365.359.515.361a10.782,10.782,0,0,1,1.662.208A2.773,2.773,0,0,0,97.14,86a3.559,3.559,0,0,0,1.706-1.1A4.861,4.861,0,0,0,99.854,83a9.824,9.824,0,0,0-.96-6.117,2.869,2.869,0,0,0-1.22-.83,2.019,2.019,0,0,0-1.407-.225,5.612,5.612,0,0,0-1.819.937,17.3,17.3,0,0,0-1.521,1.37.823.823,0,0,1-.12.321.644.644,0,0,0-.082.376,29.767,29.767,0,0,1-.452,3.741,3.367,3.367,0,0,0,.586,2.388c.126.181.282.389.473.63" transform="translate(562.819 686.855)" fill="#ffed00"/><path d="M47.046,119.37q3.35,4.615,7.175,5.193t8.348-2.548a25,25,0,0,0,6.577-6.606,10.3,10.3,0,0,1,2.134,1.536,16.206,16.206,0,0,1,1.974,2.143,22.727,22.727,0,0,1-3.239,3.97,34.3,34.3,0,0,1-4.617,3.768,22.438,22.438,0,0,1-7.455,3.541,14.328,14.328,0,0,1-12.626-2.75,24.423,24.423,0,0,1-4.947-5.369,25.62,25.62,0,0,1-3.3-6.51,16.266,16.266,0,0,1-.832-6.522,14.613,14.613,0,0,1,1.979-6.152,16.951,16.951,0,0,1,5.176-5.348,15.227,15.227,0,0,1,5.888-2.58,12.8,12.8,0,0,1,5.653.177A14.642,14.642,0,0,1,60.12,97.92a20.892,20.892,0,0,1,4.428,4.741c.361.521.72,1.082,1.082,1.685s.664,1.124.91,1.557Zm11.334-13.933a12.837,12.837,0,0,0-2.483-2.7,9.225,9.225,0,0,0-2.945-1.636,7.276,7.276,0,0,0-3.245-.277,7.888,7.888,0,0,0-3.432,1.422,8.007,8.007,0,0,0-3.8,5.674,12.294,12.294,0,0,0,1.767,7.276Z" transform="translate(511.881 704.233)" fill="#e30613"/><path d="M69.649,95.455q-2.279-3.3-4.84-3.424A9.579,9.579,0,0,0,59.062,94.1a25.32,25.32,0,0,0-3.447,2.834,34.34,34.34,0,0,0-2.766,3.105,10.584,10.584,0,0,1-4.109-3.678,31.46,31.46,0,0,1,3.535-3.844,36.822,36.822,0,0,1,4.182-3.382q5.586-3.859,10.246-3.325t8.518,6.123l12.385,17.932q-1.646,1.8-4.113,4.2a41.454,41.454,0,0,1-5.369,4.411,27.117,27.117,0,0,1-5.291,2.911,12.328,12.328,0,0,1-4.861.966,9.153,9.153,0,0,1-4.342-1.21,11.593,11.593,0,0,1-3.731-3.611,10.376,10.376,0,0,1-1.365-9.742,14.37,14.37,0,0,1,2.619-4.449,21.3,21.3,0,0,1,4.176-3.75q1.787-1.234,2.991-1.941t2.061-1.136Zm3.741,5.419q-.916.467-2.277,1.241t-2.256,1.4a11.046,11.046,0,0,0-4.392,4.93,5.435,5.435,0,0,0,.886,5.165,5.811,5.811,0,0,0,2.428,2.2,5.112,5.112,0,0,0,2.54.391,6.422,6.422,0,0,0,2.462-.792,25.494,25.494,0,0,0,2.2-1.355,31.146,31.146,0,0,0,2.558-1.972,19.384,19.384,0,0,0,2.141-2.1Z" transform="translate(523.287 695.915)" fill="#e30613"/><path d="M75.85,111.4a23.21,23.21,0,0,0,7.854-3.443,12.838,12.838,0,0,0,2.264-1.975,7.9,7.9,0,0,0,1.46-2.248,5.677,5.677,0,0,0,.452-2.33,3.94,3.94,0,0,0-.723-2.184,4.456,4.456,0,0,0-1.691-1.554,4.739,4.739,0,0,0-1.968-.458,9.162,9.162,0,0,0-2.218.254q-1.171.272-2.466.672l-2.456.624a17.153,17.153,0,0,1-7.278.571,7.573,7.573,0,0,1-4.745-3.405,9.009,9.009,0,0,1-1.456-7.906q1.165-4.106,6.415-7.732a26.625,26.625,0,0,1,4.564-2.533,32.189,32.189,0,0,1,4.335-1.548,16.7,16.7,0,0,1,1.124,2.523,15.543,15.543,0,0,1,.672,2.586,35.436,35.436,0,0,0-3.529,1.162,18.621,18.621,0,0,0-3.949,2.105,10.635,10.635,0,0,0-3.157,3.254,3.154,3.154,0,0,0,.181,3.668,3.847,3.847,0,0,0,1.51,1.351,4.434,4.434,0,0,0,1.853.412,8.563,8.563,0,0,0,2.1-.252q1.1-.263,2.334-.622l3.037-.859a22.182,22.182,0,0,1,3.275-.693,9.105,9.105,0,0,1,3.128.107,8.676,8.676,0,0,1,2.939,1.269,11.214,11.214,0,0,1,4.476,7.138,10.1,10.1,0,0,1-.366,4.546,13.87,13.87,0,0,1-2.422,4.436,19.8,19.8,0,0,1-4.342,3.989,32.422,32.422,0,0,1-4.943,2.878,29.051,29.051,0,0,1-4.419,1.607,13.4,13.4,0,0,1-1.086-2.59q-.429-1.4-.754-2.823" transform="translate(535.808 687.247)" fill="#e30613"/><path d="M104.489,103.923q-.447.309-.9.666c-.3.237-.605.458-.9.662q-.561.387-1.193.783c-.424.263-.779.47-1.063.613l-29.288-22.1a16.006,16.006,0,0,1,1.412-1.183q.762-.567,1.433-1.031.724-.5,1.638-1.092a13.013,13.013,0,0,1,1.605-.9l26.335,21.167L93.373,69.194A23.48,23.48,0,0,1,96,67.136c.408-.284.88-.6,1.416-.939a18.539,18.539,0,0,1,1.661-.941L111.759,107.4a31.921,31.921,0,0,1,1.042,4.974,11.1,11.1,0,0,1-.162,3.825,7.527,7.527,0,0,1-1.449,2.979,13.011,13.011,0,0,1-2.775,2.495,20.106,20.106,0,0,1-2.676,1.559,21.312,21.312,0,0,1-2.535,1.05,11.969,11.969,0,0,1-2.077-4.919c.412-.12.951-.313,1.619-.582a10.182,10.182,0,0,0,2.006-1.1,7.777,7.777,0,0,0,1.273-1.084,3.756,3.756,0,0,0,.815-1.388,5.141,5.141,0,0,0,.2-1.916,13.164,13.164,0,0,0-.544-2.758Z" transform="translate(543.642 677.295)" fill="#e30613"/><path d="M285.222,286.857a1.889,1.889,0,0,1-1.339-.554L-1.339,1.34a1.9,1.9,0,0,1,0-2.679,1.9,1.9,0,0,1,2.679,0L286.561,283.623a1.894,1.894,0,0,1-1.339,3.235Z" transform="translate(482.616 621.615)" fill="#00a8e7"/></g></svg>