<svg xmlns="http://www.w3.org/2000/svg" width="289.011" height="288.752" viewBox="0 0 289.011 288.752"><g transform="translate(-824.277 -619.72)"><path d="M-.225-.225H252.569V252.569H-.225Zm252.344.45H.225V252.119H252.119Z" transform="translate(845.432 637.924)" fill="#3c3c3b"/><path d="M318.12,89.023c-.288.21-.658.456-1.116.737s-.928.571-1.414.87-1.015.605-1.584.922a29.9,29.9,0,0,1-3.771,1.844q-.945.421-2.057.79c-.34.141-.685.263-1.027.368s-.687.212-1.029.317a8.385,8.385,0,0,1-1.029.263,1.9,1.9,0,0,1-.513.132,1.8,1.8,0,0,0-.513.132c-.17.034-.489.086-.943.158a3.259,3.259,0,0,1-.945.158,4.854,4.854,0,0,1-.813.132c-.256.017-.529.042-.813.078a4.643,4.643,0,0,1-.687.052h-1.069a2.411,2.411,0,0,0,.47-.052,2.7,2.7,0,0,1,.557-.052,3.161,3.161,0,0,0,.729-.107,12.464,12.464,0,0,0,1.542-.263c.17-.034.328-.061.47-.078s.3-.044.473-.08a1.045,1.045,0,0,1,.427-.132,1.024,1.024,0,0,0,.431-.13,16.674,16.674,0,0,0,1.968-.529c.344-.1.687-.218,1.029-.344s.685-.252,1.029-.4a14.923,14.923,0,0,0,1.97-.79q.515-.209.987-.42t.9-.422a10.175,10.175,0,0,1,.987-.447,5.876,5.876,0,0,0,.9-.449q.856-.421,1.628-.844t1.456-.844c.46-.244.844-.475,1.161-.685s.611-.4.9-.578l.773-.475a.692.692,0,0,0-.174.158,1.405,1.405,0,0,1-.214.212,2.7,2.7,0,0,1-.3.21c-.227.178-.487.368-.769.58m-26.355-2.661a4.835,4.835,0,0,0-.471.868,9.148,9.148,0,0,0-.641,1.792,14.047,14.047,0,0,0-.3,1.632,4.555,4.555,0,0,0,.084,1.107v.315c0,.038.032.071.086.107-.053-.036-.086-.069-.086-.107a.288.288,0,0,0-.042-.13.384.384,0,0,1-.042-.185,3.535,3.535,0,0,1-.172-1.107v-.79a2.875,2.875,0,0,1,.172-.842,4.393,4.393,0,0,0,.128-.473,2.559,2.559,0,0,1,.128-.424c.057-.176.116-.332.172-.473a3.234,3.234,0,0,1,.256-.473,19.336,19.336,0,0,1,.947-1.739c.225-.282.428-.544.6-.79s.344-.475.513-.687.328-.4.473-.578a4.3,4.3,0,0,1,.384-.422,1.287,1.287,0,0,0,.13-.185.321.321,0,0,1,.128-.13c.057-.036.086-.071.086-.107a1.672,1.672,0,0,1-.258.422c-.113.141-.242.3-.384.475a3.557,3.557,0,0,0-.387.578,7.147,7.147,0,0,1-.428.685q-.258.369-.515.79c-.168.282-.357.571-.557.87m1.586-6.085a5.813,5.813,0,0,0,.6-.529,6.3,6.3,0,0,1,.6-.527q.518-.527.987-.922t.9-.712a2.949,2.949,0,0,0,.3-.21,1.6,1.6,0,0,0,.214-.21.679.679,0,0,1,.17-.158.679.679,0,0,0-.17.158,2.82,2.82,0,0,0-.172.237.813.813,0,0,1-.256.237,10.665,10.665,0,0,1-.771.739,4.775,4.775,0,0,1-.43.447c-.172.158-.344.326-.515.5a3.759,3.759,0,0,0-.557.5c-.256.263-.513.519-.769.765s-.471.456-.643.632-.231.212-.172.1Zm25.366-.739.258-.634c.057-.1.115-.208.172-.315a.6.6,0,0,0,.084-.263.609.609,0,0,0,.086-.29.365.365,0,0,1,.086-.237.606.606,0,0,1,.086-.37v.37a1.408,1.408,0,0,1-.086.527.994.994,0,0,1-.042.29,1.808,1.808,0,0,1-.13.288,1.479,1.479,0,0,0-.128.344,1.305,1.305,0,0,1-.128.342c-.115.212-.37.053-.258-.052m.859.237a5.365,5.365,0,0,0,.769-2.556,4.882,4.882,0,0,0-.769-2.5,8.729,8.729,0,0,0-2.1-2.346,11.872,11.872,0,0,0-3.082-1.737,9.987,9.987,0,0,0-3.644-.685,13.756,13.756,0,0,0-4.8,1,32.592,32.592,0,0,0-5.4,2.663,46.48,46.48,0,0,0-5.358,3.792,38.751,38.751,0,0,0-4.627,4.424,25.416,25.416,0,0,0-3.256,4.586,8.984,8.984,0,0,0-1.243,4.239,4.469,4.469,0,0,0,1.2,2.609,15.23,15.23,0,0,0,3.084,2.846,20.177,20.177,0,0,0,4.283,2.292,12.981,12.981,0,0,0,4.8.949,30.085,30.085,0,0,0,7.455-.964,56.911,56.911,0,0,0,7.371-2.424,61.7,61.7,0,0,0,6.728-3.2,15.612,15.612,0,0,0,2.745-1.657c3.04-1.953-3.764-4.545-4.457-3.768a24.686,24.686,0,0,1-2.361,1.6,55.154,55.154,0,0,1-6,3.241,45.9,45.9,0,0,1-6.514,2.451,23.247,23.247,0,0,1-6.512.975c-1.83,0-3.014-.307-3.558-.922a3.252,3.252,0,0,1-.813-2.233,8.55,8.55,0,0,1,1.027-3.785,22.527,22.527,0,0,1,2.7-4.1,33.546,33.546,0,0,1,3.813-3.943,37.332,37.332,0,0,1,4.413-3.363A25.687,25.687,0,0,1,310.02,74.9a11.323,11.323,0,0,1,4.071-.893c.8,0,1.227.132,1.285.4a3.234,3.234,0,0,1,.086.605,3.576,3.576,0,0,1-.9,2.105c-.6.775,1.777,2.716,5.014,2.663" transform="translate(738.935 681.56)" fill="#ffed00"/><path d="M313.279,101.658v0a2.06,2.06,0,0,1,.084-.632,2.362,2.362,0,0,1,.044-.449,3.681,3.681,0,0,1,.128-.5,2.111,2.111,0,0,0,.258-.554,4.459,4.459,0,0,1,.258-.66,5.565,5.565,0,0,0,.3-.658c.086-.227.185-.483.3-.763.113-.244.242-.491.386-.739a6.07,6.07,0,0,0,.386-.79q.429-.842.943-1.659t1.027-1.714c.345-.561.7-1.115,1.073-1.659s.729-1.08,1.071-1.607.685-1.027,1.029-1.5.657-.922.943-1.344q1.028-1.368,1.542-2a.715.715,0,0,0,.214-.288.776.776,0,0,1,.128-.239l.172-.21a3.852,3.852,0,0,1-.513.79c-.172.248-.372.536-.6.87s-.487.71-.771,1.132-.588.87-.9,1.344-.643.973-.985,1.5q-1.028,1.578-2.056,3.319c-.345.561-.687,1.124-1.031,1.687s-.657,1.105-.941,1.632c-.172.282-.33.544-.473.79s-.271.492-.384.737c-.116.282-.231.536-.344.765s-.229.447-.342.658a6.343,6.343,0,0,0-.515,1.212,1.433,1.433,0,0,0-.214.473,2.545,2.545,0,0,1-.13.422,2.06,2.06,0,0,0-.084.632m-.779-9.511q.472-.919,1.159-2.08c.227-.386.456-.783.685-1.185s.485-.834.771-1.29.557-.9.815-1.346.527-.9.813-1.4q.945-1.366,1.886-2.844t1.972-3q1.028-1.529,2.1-2.977t2.1-2.819q1.028-1.369,2.014-2.607t1.842-2.344q.856-1.054,1.586-1.951c.485-.6.9-1.107,1.242-1.529q.6-.736,1.029-1.315c-.288.42-.6.878-.943,1.368q-.429.633-1.071,1.529t-1.5,2q-.773,1.105-1.714,2.371t-1.972,2.634q-1.028,1.371-2.056,2.819T321.2,79.16q-1.028,1.474-2.014,2.951t-1.928,2.9c-.288.492-.573.958-.857,1.4s-.573.872-.859,1.29-.542.838-.771,1.241A11.109,11.109,0,0,1,314,90.12c-.458.773-.87,1.456-1.242,2.056s-.7,1.124-.985,1.578c-.284.527-.571,1-.857,1.424a.633.633,0,0,1,.172-.368,2.246,2.246,0,0,1,.256-.449,3.52,3.52,0,0,0,.344-.607q.344-.681.813-1.607m17.361-23.287c-.258.368-.531.748-.815,1.134-.286.422-.586.842-.9,1.264s-.643.842-.987,1.265q-.945,1.371-1.8,2.527c-.288.387-.557.775-.815,1.16a8.987,8.987,0,0,1-.815,1.054q-.344.527-.643.922c-.2.265-.355.485-.47.66a6.756,6.756,0,0,0-.429.578.314.314,0,0,1,.086-.158l.344-.42c.115-.212.242-.449.384-.712s.33-.571.557-.924c.227-.315.473-.666.729-1.054s.527-.771.813-1.159a23.164,23.164,0,0,1,1.8-2.529,12.917,12.917,0,0,1,.941-1.317c.344-.422.657-.825.943-1.212s.571-.763.857-1.134.571-.727.857-1.08c.227-.315.458-.605.685-.868a6.641,6.641,0,0,0,.515-.658,7.123,7.123,0,0,0,.428-.58,4.245,4.245,0,0,1-.428.634l-.429.658c-.172.261-.372.554-.6.868q-.429.527-.813,1.08m2.827,23.868q-1.245,1.5-2.7,3.082T326.9,98.89a26.685,26.685,0,0,1-3.43,2.689,18.29,18.29,0,0,1-3.726,1.9,11.22,11.22,0,0,1-3.9.712q-1.973,0-1.972-1.057a10.413,10.413,0,0,1,1.071-4.006,52.806,52.806,0,0,1,2.787-5.356q1.709-2.929,3.941-6.146t4.5-6.358q2.268-3.138,4.5-6.039t3.941-5.2q1.715-2.29,2.785-3.77a5.494,5.494,0,0,0,1.073-1.848,1.956,1.956,0,0,0-.815-1.4,10.721,10.721,0,0,0-1.8-1.265,14.133,14.133,0,0,0-1.888-.9,4.545,4.545,0,0,0-1.155-.344q-.859,0-.859.632A11.839,11.839,0,0,1,330.89,62.7q-1.074,1.446-2.829,3.792t-3.985,5.373q-2.23,3.032-4.586,6.352T314.912,84.9q-2.219,3.375-3.955,6.43a54.422,54.422,0,0,0-2.792,5.558,11.09,11.09,0,0,0-1.057,4.031,3.873,3.873,0,0,0,1.269,2.792,12.947,12.947,0,0,0,3.044,2.212,17.088,17.088,0,0,0,3.833,1.475,14.607,14.607,0,0,0,3.594.527,16.634,16.634,0,0,0,7.369-1.584,25.39,25.39,0,0,0,5.827-3.873,34.994,34.994,0,0,0,4.5-4.791q1.927-2.5,3.384-4.293c.229-.282.128-.641-.3-1.082A8.453,8.453,0,0,0,338,91.042a9.352,9.352,0,0,0-1.93-.922c-.628-.212-1.027-.227-1.2-.053q-.945,1.162-2.185,2.661" transform="translate(758.052 672.981)" fill="#ffed00"/><path d="M276.927,86.793a.535.535,0,0,0,.307.487,15.882,15.882,0,0,1,1.75.912,5.078,5.078,0,0,0,2.012.649,8.371,8.371,0,0,0,2.846.052,9.217,9.217,0,0,0,2.668-.807q3.238-2.041,3.764-4.573c0-.284-.25-.662-.744-1.13a2.791,2.791,0,0,0-1.445-.805,13.156,13.156,0,0,0-2.844-.216q-1.357.054-2.844.216a1.444,1.444,0,0,1-.393.162.874.874,0,0,0-.4.214,36.412,36.412,0,0,1-3.5,2.315,2.269,2.269,0,0,0-1.223,1.882,5.26,5.26,0,0,0,.042.643" transform="translate(730.591 691.921)" fill="#ffed00"/><path d="M201.584,86.314a7.656,7.656,0,0,0,4.14,6.848q3.945,2.173,11.654,2.172a57.414,57.414,0,0,0,12.843-1.393,6.641,6.641,0,0,1,1.235,2.035,8.251,8.251,0,0,1,.573,2.365,49.977,49.977,0,0,1-6.9,1.168,81.249,81.249,0,0,1-8.326.389,52.024,52.024,0,0,1-11.416-1.084,24.778,24.778,0,0,1-7.848-3.061,12.611,12.611,0,0,1-4.518-4.678,12.47,12.47,0,0,1-1.428-5.928,12.716,12.716,0,0,1,5.613-10.715,22.766,22.766,0,0,1,7.182-3.231A38.644,38.644,0,0,1,214.618,70a34.863,34.863,0,0,1,8.848,1,20.487,20.487,0,0,1,6.373,2.754,12.156,12.156,0,0,1,3.9,4.176,10.757,10.757,0,0,1,1.332,5.26,15.137,15.137,0,0,1-.1,1.643c-.065.575-.128,1.067-.191,1.473ZM225.749,82.2a6.567,6.567,0,0,0-.714-2.979,7.2,7.2,0,0,0-2.092-2.476,10.869,10.869,0,0,0-3.521-1.7,17.918,17.918,0,0,0-5.088-.639q-5.8,0-8.9,2.059a8.434,8.434,0,0,0-3.758,5.734Z" transform="translate(653.093 681.608)" fill="#e30613"/><path d="M244.546,80.413a4.6,4.6,0,0,0-2.855-4.565,20.956,20.956,0,0,0-8.276-1.279,58.963,58.963,0,0,0-6.232.307q-2.9.3-5.659.805a6.043,6.043,0,0,1-1.807-4.4,71.732,71.732,0,0,1,7.135-.947q3.9-.335,7.516-.334,9.511,0,14.46,2.535a8.487,8.487,0,0,1,4.947,8.1V98.5q-3.332.452-8.087.92t-9.7.475a64.118,64.118,0,0,1-8.419-.5,24.868,24.868,0,0,1-6.375-1.613,10.436,10.436,0,0,1-4.042-2.842,6.326,6.326,0,0,1-1.428-4.174,6.013,6.013,0,0,1,1.666-4.2,12.691,12.691,0,0,1,4.518-3.008,28.493,28.493,0,0,1,6.564-1.781,50.4,50.4,0,0,1,7.8-.584c2.029,0,3.693.031,4.993.082s2.393.122,3.283.2Zm0,5.4q-1.429-.109-3.615-.221t-3.71-.115a24.485,24.485,0,0,0-8.99,1.283q-3.092,1.28-3.092,3.9a3.343,3.343,0,0,0,1.046,2.617,7.025,7.025,0,0,0,2.617,1.449,14.107,14.107,0,0,0,3.472.613q1.9.109,3.615.111,2.19,0,4.52-.139t4.138-.416Z" transform="translate(675.013 681.608)" fill="#e30613"/><path d="M240.138,94.054a49.288,49.288,0,0,0,5.661.975,52.453,52.453,0,0,0,6.136.361,30.731,30.731,0,0,0,4.186-.277,16.282,16.282,0,0,0,3.472-.836,7.48,7.48,0,0,0,2.378-1.365,2.4,2.4,0,0,0,.9-1.809,2.513,2.513,0,0,0-.714-1.838,5.817,5.817,0,0,0-1.9-1.223,17.082,17.082,0,0,0-2.758-.865q-1.572-.361-3.378-.695l-3.331-.723a30.808,30.808,0,0,1-8.847-3.006,5.077,5.077,0,0,1-2.76-4.508q0-3.785,4.615-6.014T257.356,70a62.888,62.888,0,0,1,7.278.418q3.57.418,6.234.975a8.86,8.86,0,0,1-.714,2.227,10.384,10.384,0,0,1-1.285,2.059q-2.1-.444-4.995-.863a43.5,43.5,0,0,0-6.232-.418,24.24,24.24,0,0,0-6.232.723q-2.711.724-2.71,2.561a2.207,2.207,0,0,0,.664,1.615,5.5,5.5,0,0,0,1.809,1.139,15.939,15.939,0,0,0,2.615.807q1.474.335,3.187.67l4.186.834q2.285.444,4.329,1.057a14.487,14.487,0,0,1,3.52,1.533,7.962,7.962,0,0,1,2.38,2.225,5.409,5.409,0,0,1,.9,3.145,5.706,5.706,0,0,1-1.426,3.758,11.34,11.34,0,0,1-4.044,2.894,26.6,26.6,0,0,1-6.325,1.867,46.385,46.385,0,0,1-8.182.668,77.3,77.3,0,0,1-7.992-.363q-3.424-.364-6.373-.975a7.294,7.294,0,0,1,.807-2.252,25.358,25.358,0,0,1,1.38-2.256" transform="translate(695.213 681.608)" fill="#e30613"/><path d="M279.364,99.048c-.508,0-1.033.008-1.571.029s-1.061.027-1.569.027c-.636,0-1.3-.011-2-.027s-1.269-.05-1.714-.084L256.342,70.432c.823-.073,1.68-.12,2.569-.137s1.712-.029,2.474-.029q1.234,0,2.758.029c1.013.017,1.869.065,2.569.137l13.509,26.557L294.2,70.432q2-.166,4.663-.166,1.045,0,2.378.029c.888.017,1.775.065,2.664.137l-18.934,34.35a22.367,22.367,0,0,1-2.758,3.842,11.759,11.759,0,0,1-3.235,2.5,13.781,13.781,0,0,1-4.043,1.336,30.533,30.533,0,0,1-5.184.389q-2.19,0-4.329-.195t-3.758-.471a6.357,6.357,0,0,1,.382-2.285,7.986,7.986,0,0,1,1.139-2c.573.109,1.348.231,2.332.361a24.361,24.361,0,0,0,3.186.195,18.757,18.757,0,0,0,2.332-.139,7.353,7.353,0,0,0,2.044-.557,6.016,6.016,0,0,0,1.76-1.195,9.433,9.433,0,0,0,1.571-2.117Z" transform="translate(711.924 681.847)" fill="#e30613"/><path d="M285.222,286.857a1.888,1.888,0,0,1-1.339-.554L-1.339,1.34a1.9,1.9,0,0,1,0-2.679,1.9,1.9,0,0,1,2.679,0L286.561,283.623a1.895,1.895,0,0,1-1.339,3.235Z" transform="translate(826.171 621.615)" fill="#00a8e7"/></g></svg>