<svg xmlns="http://www.w3.org/2000/svg" width="289.011" height="288.752" viewBox="0 0 289.011 288.752"><g transform="translate(-1166.267 -619.72)"><path d="M-.225-.225H252.569V252.569H-.225Zm252.344.45H.225V252.119H252.119Z" transform="translate(1187.423 637.924)" fill="#3c3c3b"/><path d="M450.508,104.463q-.309.386-.8.9c-.326.344-.664.7-1.01,1.061s-.725.737-1.132,1.122a20.157,20.157,0,0,1-2.689,2.25,13.026,13.026,0,0,1-1.47.964,6.575,6.575,0,0,1-.733.449l-.735.387a4.306,4.306,0,0,1-.733.321.875.875,0,0,1-.366.158.967.967,0,0,0-.366.162c-.122.042-.347.107-.674.193a1.474,1.474,0,0,1-.672.193,2.129,2.129,0,0,1-.582.162c-.183.019-.376.052-.58.094a1.894,1.894,0,0,1-.489.067h-.765a1.007,1.007,0,0,0,.336-.067,1.227,1.227,0,0,1,.4-.063,1.389,1.389,0,0,0,.521-.128,5.6,5.6,0,0,0,1.1-.323,3.11,3.11,0,0,1,.338-.1,2.842,2.842,0,0,0,.336-.1.54.54,0,0,1,.307-.16.533.533,0,0,0,.305-.162,8.255,8.255,0,0,0,1.4-.641c.244-.128.49-.265.735-.416s.489-.311.735-.483a9.3,9.3,0,0,0,1.4-.964c.246-.17.479-.344.7-.515s.437-.342.641-.512a6.428,6.428,0,0,1,.7-.546,3.848,3.848,0,0,0,.641-.548c.407-.342.8-.685,1.162-1.029s.712-.683,1.038-1.029a10.187,10.187,0,0,0,.826-.834q.335-.386.641-.706l.552-.578a.748.748,0,0,0-.122.195,1.51,1.51,0,0,1-.155.254,2.52,2.52,0,0,1-.212.258q-.246.324-.55.706M431.7,101.22a7.684,7.684,0,0,0-.338,1.059,16.591,16.591,0,0,0-.456,2.183c-.1.729-.174,1.4-.216,1.993a9.231,9.231,0,0,0,.061,1.349v.386a.194.194,0,0,0,.061.13.194.194,0,0,1-.061-.13.537.537,0,0,0-.031-.16.8.8,0,0,1-.031-.225,7.157,7.157,0,0,1-.122-1.349v-.964a5.776,5.776,0,0,1,.122-1.029c.042-.214.071-.407.092-.578a4.994,4.994,0,0,1,.092-.513c.042-.212.082-.407.122-.578a5.277,5.277,0,0,1,.183-.578q.306-1.091.674-2.121c.162-.344.305-.662.428-.964s.244-.576.366-.834.235-.492.338-.706a4.82,4.82,0,0,1,.273-.515,1.734,1.734,0,0,0,.094-.225.4.4,0,0,1,.092-.16.187.187,0,0,0,.061-.128,2.631,2.631,0,0,1-.183.513l-.275.578a5.136,5.136,0,0,0-.275.706c-.084.258-.185.536-.307.836s-.244.622-.366.964-.256.7-.4,1.061m1.13-7.423a5.609,5.609,0,0,0,.427-.643,6.7,6.7,0,0,1,.429-.641q.366-.641.7-1.124c.225-.321.439-.611.643-.867a2.31,2.31,0,0,0,.214-.258,1.655,1.655,0,0,0,.153-.258.766.766,0,0,1,.122-.193.766.766,0,0,0-.122.193c-.04.086-.082.183-.122.288a.815.815,0,0,1-.183.29q-.246.452-.55.9a5.884,5.884,0,0,1-.305.548c-.124.193-.246.4-.368.611a3.777,3.777,0,0,0-.4.609q-.275.481-.55.931c-.185.3-.338.557-.46.773s-.164.258-.122.126Zm18.1-.9.183-.771c.038-.128.08-.256.122-.386a19.989,19.989,0,0,0,.122-.674.68.68,0,0,1,.061-.29,1.142,1.142,0,0,1,.061-.45v.45a2.881,2.881,0,0,1-.061.643,1.825,1.825,0,0,1-.032.353,2.915,2.915,0,0,1-.09.353,2.687,2.687,0,0,0-.094.418,2.637,2.637,0,0,1-.09.418c-.084.258-.267.063-.183-.065m.611.29a10.232,10.232,0,0,0,.55-3.117,9.245,9.245,0,0,0-.55-3.052,10.763,10.763,0,0,0-1.5-2.859,8.838,8.838,0,0,0-2.2-2.121,4.646,4.646,0,0,0-2.6-.834,6.506,6.506,0,0,0-3.426,1.22,21.935,21.935,0,0,0-3.852,3.247,40.98,40.98,0,0,0-3.823,4.623,43.123,43.123,0,0,0-3.3,5.4,36.044,36.044,0,0,0-2.323,5.59,17.188,17.188,0,0,0-.888,5.172,7.76,7.76,0,0,0,.855,3.18,16.515,16.515,0,0,0,2.2,3.472,14.264,14.264,0,0,0,3.058,2.792,6.072,6.072,0,0,0,3.426,1.159,13.236,13.236,0,0,0,5.319-1.174,31.015,31.015,0,0,0,5.26-2.955,40.829,40.829,0,0,0,4.8-3.9,12.052,12.052,0,0,0,1.96-2.023c2.168-2.378-2.687-5.539-3.182-4.592a21.111,21.111,0,0,1-1.685,1.954,39.728,39.728,0,0,1-4.279,3.955,26.577,26.577,0,0,1-4.648,2.987,10.387,10.387,0,0,1-4.648,1.187c-1.307,0-2.151-.372-2.539-1.12a5.865,5.865,0,0,1-.582-2.724,16.486,16.486,0,0,1,.735-4.615,33.705,33.705,0,0,1,1.926-5,39.57,39.57,0,0,1,2.722-4.806,34.763,34.763,0,0,1,3.149-4.1,17.835,17.835,0,0,1,3.241-2.884,5.38,5.38,0,0,1,2.907-1.092c.569,0,.876.16.916.481a6.555,6.555,0,0,1,.061.741,6.272,6.272,0,0,1-.643,2.571c-.428.943,1.269,3.312,3.579,3.245" transform="translate(867.569 691.788)" fill="#ffed00"/><path d="M447.053,119.871v0a4.259,4.259,0,0,1,.059-.769,5.048,5.048,0,0,1,.032-.546c.019-.195.05-.4.09-.611a3.687,3.687,0,0,0,.185-.674c.04-.235.1-.5.183-.8.08-.258.153-.525.214-.8s.132-.59.214-.931c.082-.3.174-.6.275-.9s.193-.618.275-.964q.306-1.025.674-2.023t.733-2.088q.369-1.028.765-2.025t.765-1.958c.242-.643.489-1.252.733-1.83s.468-1.126.674-1.64q.733-1.669,1.1-2.443a1.039,1.039,0,0,0,.151-.351,1.263,1.263,0,0,1,.092-.29l.122-.256a5.974,5.974,0,0,1-.365.962q-.186.452-.429,1.061t-.55,1.382q-.309.77-.643,1.638t-.7,1.83q-.736,1.93-1.468,4.048-.369,1.031-.735,2.056c-.244.687-.47,1.349-.672,1.993q-.183.515-.336.964c-.1.3-.195.6-.275.9-.084.344-.164.655-.244.931s-.164.546-.246.8a10.892,10.892,0,0,0-.366,1.477,2.421,2.421,0,0,0-.153.578,4.411,4.411,0,0,1-.093.515,4.259,4.259,0,0,0-.059.769m-.555-11.6c.225-.75.5-1.6.826-2.538.162-.471.326-.952.489-1.447s.347-1.015.55-1.573.4-1.1.582-1.64.376-1.1.582-1.7q.67-1.669,1.344-3.47t1.407-3.663q.733-1.861,1.5-3.63t1.5-3.437q.733-1.669,1.437-3.18t1.315-2.859q.61-1.283,1.13-2.378t.888-1.861c.284-.6.531-1.136.735-1.607-.2.513-.43,1.071-.672,1.67q-.309.77-.765,1.863t-1.071,2.443q-.55,1.348-1.224,2.89t-1.407,3.214q-.733,1.669-1.466,3.437t-1.468,3.63q-.736,1.8-1.437,3.6t-1.378,3.533q-.306.9-.611,1.7t-.613,1.575q-.3.77-.55,1.51t-.55,1.445c-.326.943-.622,1.781-.888,2.506s-.5,1.372-.7,1.928c-.2.641-.407,1.222-.613,1.735a1.1,1.1,0,0,1,.122-.45,3.82,3.82,0,0,1,.185-.544,5.833,5.833,0,0,0,.242-.741c.164-.555.357-1.21.582-1.958m12.387-28.4c-.183.449-.376.912-.58,1.382-.2.513-.42,1.029-.641,1.54s-.458,1.029-.7,1.544q-.673,1.672-1.283,3.084c-.206.471-.4.941-.582,1.412a11.969,11.969,0,0,1-.582,1.285c-.162.431-.315.805-.458,1.126s-.254.59-.336.8c-.122.258-.225.494-.305.708a.51.51,0,0,1,.061-.195l.244-.513q.123-.384.275-.867t.4-1.124c.162-.386.338-.813.521-1.286s.376-.941.58-1.412a33.023,33.023,0,0,1,1.284-3.084c.2-.555.429-1.092.672-1.605s.469-1.008.674-1.479.407-.931.611-1.38.408-.889.613-1.319c.162-.386.326-.737.489-1.057s.284-.59.366-.8c.122-.258.225-.492.307-.708a6.282,6.282,0,0,1-.307.771c-.082.214-.183.483-.305.8s-.265.674-.427,1.059c-.2.429-.4.868-.582,1.317m2.019,29.107q-.89,1.832-1.926,3.76t-2.2,3.756a25.545,25.545,0,0,1-2.445,3.277,12.554,12.554,0,0,1-2.661,2.313,5.173,5.173,0,0,1-2.783.867q-1.409,0-1.407-1.286a20.347,20.347,0,0,1,.763-4.888q.764-2.957,1.989-6.529t2.813-7.5q1.589-3.922,3.208-7.749t3.212-7.367q1.589-3.539,2.813-6.337t1.987-4.6a8.828,8.828,0,0,0,.765-2.252,3.062,3.062,0,0,0-.582-1.7,9.572,9.572,0,0,0-2.63-2.638,2.3,2.3,0,0,0-.825-.418c-.408,0-.611.258-.611.769a17.7,17.7,0,0,1-.765,1.9q-.764,1.766-2.017,4.625t-2.844,6.554q-1.592,3.7-3.273,7.743t-3.266,8.159q-1.586,4.111-2.823,7.837t-1.991,6.779a21.564,21.564,0,0,0-.756,4.915,6.613,6.613,0,0,0,.9,3.407,11.665,11.665,0,0,0,2.174,2.7,10.035,10.035,0,0,0,2.733,1.8,6.535,6.535,0,0,0,2.565.643,8,8,0,0,0,5.26-1.933,21.311,21.311,0,0,0,4.157-4.722,42.033,42.033,0,0,0,3.21-5.842q1.377-3.049,2.416-5.235a1.435,1.435,0,0,0-.214-1.319,8.047,8.047,0,0,0-1.162-1.54,6.221,6.221,0,0,0-1.376-1.126q-.673-.384-.855-.063-.673,1.414-1.559,3.245" transform="translate(881.212 681.326)" fill="#ffed00"/><path d="M421.113,101.747a.761.761,0,0,0,.218.592,10.389,10.389,0,0,1,1.25,1.117,2.784,2.784,0,0,0,1.435.786,3.57,3.57,0,0,0,2.031.065,4.869,4.869,0,0,0,1.9-.985,9.819,9.819,0,0,0,2.686-5.577,2.863,2.863,0,0,0-.533-1.376,2.029,2.029,0,0,0-1.029-.985,5.61,5.61,0,0,0-2.031-.263,17.673,17.673,0,0,0-2.029.263.832.832,0,0,1-.283.2.656.656,0,0,0-.281.261,29.7,29.7,0,0,1-2.5,2.823,3.354,3.354,0,0,0-.874,2.3c0,.219.012.481.032.786" transform="translate(861.614 704.421)" fill="#ffed00"/><path d="M412.4,72.991q.137,5.7,2.955,8.35t8.316,2.647a24.965,24.965,0,0,0,9.165-1.7,10.236,10.236,0,0,1,.882,2.477,16.216,16.216,0,0,1,.408,2.884,22.837,22.837,0,0,1-4.922,1.428,34.168,34.168,0,0,1-5.942.475,22.444,22.444,0,0,1-8.146-1.325A14.33,14.33,0,0,1,406.3,78.8a24.433,24.433,0,0,1-1.019-7.23,25.517,25.517,0,0,1,.987-7.23,16.278,16.278,0,0,1,3.019-5.84,14.6,14.6,0,0,1,5.127-3.936,16.918,16.918,0,0,1,7.3-1.46,15.253,15.253,0,0,1,6.314,1.222,12.811,12.811,0,0,1,4.548,3.359,14.61,14.61,0,0,1,2.785,5.092,20.909,20.909,0,0,1,.95,6.417c0,.634-.023,1.3-.069,2s-.092,1.3-.136,1.8Zm17.245-5.025a12.785,12.785,0,0,0-.51-3.63,9.227,9.227,0,0,0-1.493-3.021,7.273,7.273,0,0,0-2.512-2.071,7.894,7.894,0,0,0-3.634-.781,8,8,0,0,0-6.346,2.512,12.291,12.291,0,0,0-2.682,6.991Z" transform="translate(847.253 666.248)" fill="#e30613"/><path d="M443.063,65.8q0-4.008-2.038-5.568a9.577,9.577,0,0,0-5.907-1.563,25.133,25.133,0,0,0-4.447.376,34.334,34.334,0,0,0-4.039.983,10.556,10.556,0,0,1-1.29-5.363,31.583,31.583,0,0,1,5.092-1.155A37.372,37.372,0,0,1,435.8,53.1q6.788,0,10.32,3.09t3.529,9.877V87.857q-2.376.547-5.77,1.12a41.365,41.365,0,0,1-6.925.578,27.041,27.041,0,0,1-6.008-.611,12.264,12.264,0,0,1-4.548-1.97,9.135,9.135,0,0,1-2.886-3.462,11.592,11.592,0,0,1-1.017-5.092,10.373,10.373,0,0,1,4.411-8.789,14.386,14.386,0,0,1,4.686-2.174,21.323,21.323,0,0,1,5.566-.712q2.173,0,3.565.1t2.344.239Zm0,6.585q-1.022-.137-2.582-.273c-1.04-.088-1.924-.136-2.647-.136a11.066,11.066,0,0,0-6.415,1.561,5.434,5.434,0,0,0-2.206,4.754,5.845,5.845,0,0,0,.746,3.191,5.145,5.145,0,0,0,1.867,1.764,6.455,6.455,0,0,0,2.479.746,25.6,25.6,0,0,0,2.579.136,31.387,31.387,0,0,0,3.226-.17,19.12,19.12,0,0,0,2.955-.508Z" transform="translate(862.896 666.248)" fill="#e30613"/><path d="M439.917,82.425a23.184,23.184,0,0,0,8.419,1.63,12.92,12.92,0,0,0,2.987-.338A7.946,7.946,0,0,0,453.8,82.7a5.7,5.7,0,0,0,1.7-1.664,3.938,3.938,0,0,0,.645-2.206,4.444,4.444,0,0,0-.51-2.241,4.752,4.752,0,0,0-1.357-1.493,9.048,9.048,0,0,0-1.968-1.054q-1.122-.438-2.411-.847l-2.376-.884a17.132,17.132,0,0,1-6.314-3.665,7.578,7.578,0,0,1-1.968-5.5,9,9,0,0,1,3.292-7.329q3.29-2.717,9.673-2.716a26.533,26.533,0,0,1,5.194.508,32.355,32.355,0,0,1,4.447,1.187,16.5,16.5,0,0,1-.51,2.716,15.874,15.874,0,0,1-.916,2.514,35.044,35.044,0,0,0-3.563-1.054,18.579,18.579,0,0,0-4.447-.51,10.617,10.617,0,0,0-4.447.884,3.155,3.155,0,0,0-1.935,3.123,3.839,3.839,0,0,0,.475,1.968,4.435,4.435,0,0,0,1.29,1.393,8.415,8.415,0,0,0,1.867.983q1.053.409,2.275.815l2.987,1.019a22.2,22.2,0,0,1,3.088,1.29,9.114,9.114,0,0,1,2.512,1.867,8.68,8.68,0,0,1,1.7,2.714,11.236,11.236,0,0,1-.374,8.421,10.1,10.1,0,0,1-2.886,3.529,13.914,13.914,0,0,1-4.514,2.275,19.831,19.831,0,0,1-5.839.813,32.484,32.484,0,0,1-5.7-.441,28.917,28.917,0,0,1-4.548-1.187,13.525,13.525,0,0,1,.576-2.75q.441-1.391.985-2.75" transform="translate(877.311 666.248)" fill="#e30613"/><path d="M467.909,88.517c-.363,0-.737.011-1.12.034s-.758.034-1.12.034c-.452,0-.928-.013-1.426-.034s-.907-.057-1.222-.1l-11.54-34.827a15.882,15.882,0,0,1,1.832-.17q.951-.034,1.766-.034.879,0,1.968.034a12.9,12.9,0,0,1,1.834.17l9.639,32.384,9.98-32.384a23.547,23.547,0,0,1,3.327-.2c.5,0,1.063.011,1.7.034a18.3,18.3,0,0,1,1.9.17L471.915,95.51a31.935,31.935,0,0,1-1.97,4.684,11.13,11.13,0,0,1-2.307,3.056,7.509,7.509,0,0,1-2.886,1.628,13,13,0,0,1-3.7.475,20.318,20.318,0,0,1-3.09-.237,21.558,21.558,0,0,1-2.682-.576,12,12,0,0,1,1.086-5.23c.408.137.962.284,1.664.443a10.3,10.3,0,0,0,2.275.239,7.992,7.992,0,0,0,1.662-.17,3.76,3.76,0,0,0,1.458-.681,5.092,5.092,0,0,0,1.258-1.458A13.063,13.063,0,0,0,465.8,95.1Z" transform="translate(889.237 666.539)" fill="#e30613"/><path d="M285.222,286.857a1.889,1.889,0,0,1-1.339-.554L-1.339,1.34a1.9,1.9,0,0,1,0-2.679,1.9,1.9,0,0,1,2.679,0L286.561,283.623a1.894,1.894,0,0,1-1.339,3.235Z" transform="translate(1168.162 621.615)" fill="#00a8e7"/></g></svg>