<svg xmlns="http://www.w3.org/2000/svg" width="289.011" height="288.752" viewBox="0 0 289.011 288.752"><g transform="translate(-824.277 -1004.451)"><rect width="252.344" height="252.344" transform="translate(845.432 1028.171)" fill="#e93a8d"/><path d="M301.007,270.028q-.309.386-.8.9c-.326.344-.664.695-1.01,1.059s-.725.739-1.132,1.122a20.027,20.027,0,0,1-2.689,2.25,12.79,12.79,0,0,1-1.47.964,6.586,6.586,0,0,1-.733.449l-.735.387a4.013,4.013,0,0,1-.733.321.9.9,0,0,1-.366.16.961.961,0,0,0-.366.16c-.122.044-.347.107-.674.193a1.479,1.479,0,0,1-.672.195,2.12,2.12,0,0,1-.582.16c-.183.021-.376.053-.58.1a1.881,1.881,0,0,1-.489.065h-.765a1,1,0,0,0,.336-.065,1.227,1.227,0,0,1,.4-.065,1.389,1.389,0,0,0,.521-.128,5.45,5.45,0,0,0,1.1-.321,2.759,2.759,0,0,1,.338-.1,2.271,2.271,0,0,0,.336-.1.551.551,0,0,1,.307-.16.531.531,0,0,0,.305-.16,8.266,8.266,0,0,0,1.4-.643c.244-.128.491-.265.735-.416s.489-.309.735-.481a9.579,9.579,0,0,0,1.4-.964c.246-.172.479-.344.7-.515s.437-.342.641-.513a6.693,6.693,0,0,1,.7-.546,3.851,3.851,0,0,0,.641-.548c.407-.342.8-.683,1.162-1.029s.712-.683,1.038-1.027a10.177,10.177,0,0,0,.826-.834q.335-.387.641-.706l.552-.58a.746.746,0,0,0-.122.195,1.61,1.61,0,0,1-.155.256,2.323,2.323,0,0,1-.212.256c-.164.216-.347.45-.55.708M282.2,266.783a7.619,7.619,0,0,0-.338,1.061,16.516,16.516,0,0,0-.456,2.183c-.1.729-.174,1.393-.216,1.991a9.231,9.231,0,0,0,.061,1.349v.386a.191.191,0,0,0,.061.13.191.191,0,0,1-.061-.13.563.563,0,0,0-.031-.16.782.782,0,0,1-.031-.225,7.123,7.123,0,0,1-.122-1.349v-.964a5.753,5.753,0,0,1,.122-1.027c.042-.214.071-.407.092-.578a4.925,4.925,0,0,1,.092-.513c.042-.214.082-.407.122-.578a5.448,5.448,0,0,1,.183-.58q.306-1.088.674-2.119.243-.515.428-.964c.122-.3.244-.576.368-.834s.233-.492.336-.706a4.635,4.635,0,0,1,.273-.515,1.854,1.854,0,0,0,.094-.225.4.4,0,0,1,.092-.16.194.194,0,0,0,.061-.128,2.677,2.677,0,0,1-.183.513l-.275.578a5.149,5.149,0,0,0-.275.706c-.084.258-.185.536-.307.834s-.244.622-.366.964-.256.7-.4,1.061m1.13-7.421a5.788,5.788,0,0,0,.428-.643,6.5,6.5,0,0,1,.429-.643c.244-.426.479-.8.7-1.122s.437-.613.641-.867a2.309,2.309,0,0,0,.214-.258,1.652,1.652,0,0,0,.153-.258.732.732,0,0,1,.122-.193.732.732,0,0,0-.122.193c-.04.086-.082.183-.122.288a.831.831,0,0,1-.183.29q-.246.449-.55.9a5.3,5.3,0,0,1-.305.55c-.124.191-.246.4-.368.609a3.784,3.784,0,0,0-.4.609q-.275.484-.55.931c-.185.3-.338.559-.46.773s-.164.258-.122.128Zm18.1-.9.183-.773c.038-.128.08-.254.122-.386a1.178,1.178,0,0,0,.061-.321,1.192,1.192,0,0,0,.061-.351.689.689,0,0,1,.061-.292,1.132,1.132,0,0,1,.061-.449v.449a2.883,2.883,0,0,1-.061.643,1.84,1.84,0,0,1-.032.355,2.959,2.959,0,0,1-.09.351,2.688,2.688,0,0,0-.094.418,2.593,2.593,0,0,1-.09.418c-.084.258-.267.065-.183-.063m.611.288a10.213,10.213,0,0,0,.55-3.117,9.226,9.226,0,0,0-.55-3.05,10.764,10.764,0,0,0-1.5-2.859,8.77,8.77,0,0,0-2.2-2.12,4.633,4.633,0,0,0-2.6-.836,6.523,6.523,0,0,0-3.426,1.22,22.016,22.016,0,0,0-3.852,3.247,41.01,41.01,0,0,0-3.823,4.625,43.236,43.236,0,0,0-3.3,5.4,36.114,36.114,0,0,0-2.323,5.59,17.2,17.2,0,0,0-.888,5.172,7.761,7.761,0,0,0,.855,3.182,16.5,16.5,0,0,0,2.2,3.47,14.317,14.317,0,0,0,3.058,2.794,6.082,6.082,0,0,0,3.426,1.157,13.234,13.234,0,0,0,5.319-1.172,31.029,31.029,0,0,0,5.26-2.956,40.453,40.453,0,0,0,4.8-3.9,11.984,11.984,0,0,0,1.96-2.021c2.168-2.378-2.687-5.541-3.182-4.594a21.082,21.082,0,0,1-1.685,1.956,39.712,39.712,0,0,1-4.279,3.953,26.354,26.354,0,0,1-4.648,2.987,10.366,10.366,0,0,1-4.648,1.189q-1.958,0-2.538-1.122a5.855,5.855,0,0,1-.58-2.724,16.475,16.475,0,0,1,.733-4.613,33.712,33.712,0,0,1,1.926-5,39.427,39.427,0,0,1,2.722-4.806,34.794,34.794,0,0,1,3.149-4.1,17.972,17.972,0,0,1,3.241-2.884,5.4,5.4,0,0,1,2.907-1.092c.569,0,.876.162.916.483a6.487,6.487,0,0,1,.061.741,6.271,6.271,0,0,1-.643,2.569c-.428.943,1.269,3.312,3.579,3.245" transform="translate(731.725 892.226)" fill="#ffed00"/><path d="M297.552,285.436v0a4.258,4.258,0,0,1,.059-.769,5.091,5.091,0,0,1,.032-.548c.019-.193.05-.4.09-.611a3.605,3.605,0,0,0,.185-.674c.04-.235.1-.5.183-.8.08-.258.153-.525.214-.8s.132-.588.214-.931q.123-.45.275-.9c.1-.3.193-.62.277-.964q.3-1.028.672-2.023t.733-2.088q.369-1.031.765-2.025t.765-1.96c.242-.641.489-1.252.733-1.83s.468-1.124.674-1.638q.733-1.669,1.1-2.443a1.066,1.066,0,0,0,.151-.353,1.293,1.293,0,0,1,.092-.29l.122-.256a5.916,5.916,0,0,1-.365.962c-.124.3-.267.655-.429,1.061s-.347.868-.55,1.384-.42,1.057-.643,1.636-.458,1.189-.7,1.832q-.736,1.927-1.468,4.048-.369,1.028-.735,2.056t-.672,1.991c-.122.344-.235.666-.336.964s-.195.6-.275.9c-.084.344-.164.655-.244.931s-.164.546-.246.8a10.846,10.846,0,0,0-.366,1.475,2.43,2.43,0,0,0-.153.58,4.427,4.427,0,0,1-.094.515,4.258,4.258,0,0,0-.059.769m-.555-11.6c.225-.75.5-1.6.826-2.538.162-.47.326-.952.489-1.445s.347-1.017.55-1.575.4-1.1.582-1.638.376-1.1.582-1.7q.67-1.669,1.344-3.472t1.407-3.663q.733-1.861,1.5-3.628t1.5-3.439q.733-1.669,1.437-3.18t1.315-2.859q.61-1.283,1.13-2.376l.888-1.863q.427-.9.735-1.605-.306.767-.672,1.67c-.206.513-.46,1.136-.765,1.861s-.664,1.544-1.071,2.445q-.55,1.346-1.223,2.888t-1.407,3.214q-.733,1.672-1.466,3.439T303.206,258q-.736,1.8-1.437,3.6t-1.378,3.533c-.2.6-.407,1.17-.611,1.7s-.408,1.061-.613,1.573-.386,1.019-.55,1.512-.345.973-.55,1.445q-.49,1.414-.888,2.5t-.7,1.928c-.2.643-.407,1.221-.613,1.735a1.1,1.1,0,0,1,.122-.449,3.848,3.848,0,0,1,.185-.546,5.725,5.725,0,0,0,.242-.741c.164-.555.359-1.21.582-1.958m12.387-28.4c-.183.449-.376.91-.58,1.382-.2.513-.418,1.029-.641,1.54s-.458,1.029-.7,1.544q-.673,1.669-1.283,3.082c-.206.471-.4.943-.582,1.414a12.146,12.146,0,0,1-.582,1.285q-.243.644-.458,1.124c-.143.323-.254.59-.336.8-.122.258-.225.492-.305.706a.5.5,0,0,1,.061-.193l.244-.513q.123-.386.275-.866c.1-.323.235-.695.4-1.124.162-.387.338-.815.521-1.286s.376-.941.58-1.412a33.013,33.013,0,0,1,1.284-3.084c.2-.555.429-1.094.672-1.607s.47-1.008.674-1.479.407-.93.611-1.38.408-.888.613-1.317c.162-.386.326-.739.489-1.059s.284-.59.366-.8c.122-.258.225-.492.307-.706a6.272,6.272,0,0,1-.307.769c-.082.214-.183.483-.305.8s-.265.674-.428,1.061c-.2.428-.4.867-.582,1.317m2.019,29.1q-.888,1.832-1.926,3.76t-2.2,3.756a25.536,25.536,0,0,1-2.445,3.277,12.623,12.623,0,0,1-2.661,2.315,5.174,5.174,0,0,1-2.783.867c-.939,0-1.407-.428-1.407-1.288a20.32,20.32,0,0,1,.763-4.886q.764-2.96,1.989-6.53t2.813-7.5q1.589-3.925,3.208-7.751t3.212-7.367q1.589-3.536,2.813-6.335t1.987-4.6a8.828,8.828,0,0,0,.765-2.252,3.057,3.057,0,0,0-.582-1.7,9.325,9.325,0,0,0-1.283-1.546,9.48,9.48,0,0,0-1.347-1.092,2.318,2.318,0,0,0-.825-.42c-.408,0-.611.258-.611.771a17.709,17.709,0,0,1-.765,1.9q-.764,1.766-2.017,4.625t-2.844,6.554q-1.592,3.693-3.273,7.743T298.718,265q-1.586,4.111-2.823,7.839t-1.991,6.78a21.547,21.547,0,0,0-.756,4.913,6.62,6.62,0,0,0,.9,3.409,11.617,11.617,0,0,0,2.174,2.7,10.042,10.042,0,0,0,2.733,1.8,6.529,6.529,0,0,0,2.565.641,8,8,0,0,0,5.26-1.933,21.3,21.3,0,0,0,4.157-4.72,42.048,42.048,0,0,0,3.21-5.844q1.377-3.049,2.416-5.235a1.436,1.436,0,0,0-.214-1.319,8.164,8.164,0,0,0-1.162-1.54,6.2,6.2,0,0,0-1.376-1.124q-.673-.387-.855-.065-.673,1.414-1.559,3.245" transform="translate(745.369 881.765)" fill="#ffed00"/><path d="M271.612,267.313a.768.768,0,0,0,.218.592,10.535,10.535,0,0,1,1.25,1.115,2.787,2.787,0,0,0,1.435.788,3.586,3.586,0,0,0,2.031.065,4.87,4.87,0,0,0,1.9-.985,9.825,9.825,0,0,0,2.685-5.579,2.876,2.876,0,0,0-.533-1.376,2.038,2.038,0,0,0-1.029-.985,5.649,5.649,0,0,0-2.031-.263,18.114,18.114,0,0,0-2.029.263.806.806,0,0,1-.283.2.65.65,0,0,0-.281.263,29.667,29.667,0,0,1-2.5,2.821,3.355,3.355,0,0,0-.874,2.3c0,.218.012.481.032.786" transform="translate(725.77 904.86)" fill="#ffed00"/><path d="M217.845,266.726q.137,5.7,2.955,8.35t8.316,2.649a24.968,24.968,0,0,0,9.165-1.7,10.252,10.252,0,0,1,.882,2.479,16.218,16.218,0,0,1,.408,2.884,22.728,22.728,0,0,1-4.922,1.426,34.168,34.168,0,0,1-5.942.475,22.411,22.411,0,0,1-8.146-1.325,14.649,14.649,0,0,1-5.6-3.733,14.8,14.8,0,0,1-3.226-5.7,24.414,24.414,0,0,1-1.017-7.23,25.53,25.53,0,0,1,.985-7.23,16.243,16.243,0,0,1,3.021-5.839,14.6,14.6,0,0,1,5.125-3.938,16.951,16.951,0,0,1,7.3-1.46,15.247,15.247,0,0,1,6.314,1.223,12.794,12.794,0,0,1,4.548,3.359,14.592,14.592,0,0,1,2.785,5.092,20.841,20.841,0,0,1,.951,6.417q0,.95-.069,2c-.046.7-.092,1.3-.136,1.8Zm17.245-5.024a12.791,12.791,0,0,0-.51-3.632,9.18,9.18,0,0,0-1.493-3.019,7.256,7.256,0,0,0-2.512-2.071,7.894,7.894,0,0,0-3.634-.781,8,8,0,0,0-6.346,2.51,12.3,12.3,0,0,0-2.682,6.993Z" transform="translate(670.468 892.285)" fill="#e30613"/><path d="M248.5,259.53q0-4.005-2.037-5.566a9.573,9.573,0,0,0-5.907-1.563,25.1,25.1,0,0,0-4.445.374,34.16,34.16,0,0,0-4.039.983,10.536,10.536,0,0,1-1.292-5.361,31.381,31.381,0,0,1,5.092-1.155,37.11,37.11,0,0,1,5.363-.408q6.788,0,10.32,3.092t3.529,9.875v21.793q-2.376.544-5.77,1.12a41.36,41.36,0,0,1-6.925.576,27.157,27.157,0,0,1-6.008-.609,12.265,12.265,0,0,1-4.548-1.972,9.1,9.1,0,0,1-2.886-3.46,11.6,11.6,0,0,1-1.017-5.092,10.369,10.369,0,0,1,4.413-8.791,14.353,14.353,0,0,1,4.684-2.172,21.323,21.323,0,0,1,5.566-.714q2.173,0,3.565.1t2.342.237Zm0,6.585c-.678-.09-1.54-.179-2.581-.271s-1.924-.136-2.647-.136a11.052,11.052,0,0,0-6.415,1.561,5.428,5.428,0,0,0-2.206,4.753,5.839,5.839,0,0,0,.746,3.191,5.129,5.129,0,0,0,1.867,1.764,6.458,6.458,0,0,0,2.479.748,25.634,25.634,0,0,0,2.579.135,31.935,31.935,0,0,0,3.226-.17,19.272,19.272,0,0,0,2.953-.51Z" transform="translate(686.11 892.285)" fill="#e30613"/><path d="M245.358,276.163a23.313,23.313,0,0,0,8.419,1.63,12.816,12.816,0,0,0,2.987-.34,7.9,7.9,0,0,0,2.477-1.017,5.717,5.717,0,0,0,1.7-1.664,3.938,3.938,0,0,0,.645-2.206,4.439,4.439,0,0,0-.51-2.241,4.757,4.757,0,0,0-1.357-1.494,9.132,9.132,0,0,0-1.968-1.052q-1.122-.441-2.411-.847l-2.376-.884a17.133,17.133,0,0,1-6.314-3.667,7.573,7.573,0,0,1-1.968-5.5,9,9,0,0,1,3.292-7.331q3.292-2.717,9.673-2.716a26.387,26.387,0,0,1,5.193.51,32.08,32.08,0,0,1,4.447,1.187,16.539,16.539,0,0,1-.51,2.716,15.421,15.421,0,0,1-.916,2.512,35.058,35.058,0,0,0-3.563-1.052,18.575,18.575,0,0,0-4.447-.51,10.647,10.647,0,0,0-4.447.882,3.159,3.159,0,0,0-1.935,3.124,3.838,3.838,0,0,0,.475,1.968,4.455,4.455,0,0,0,1.29,1.393,8.58,8.58,0,0,0,1.867.983q1.054.407,2.275.815l2.987,1.017a22.425,22.425,0,0,1,3.088,1.29,9.119,9.119,0,0,1,2.512,1.869,8.634,8.634,0,0,1,1.7,2.714,11.232,11.232,0,0,1-.374,8.419A10.116,10.116,0,0,1,264.4,280.2a13.866,13.866,0,0,1-4.516,2.275,19.766,19.766,0,0,1-5.839.813,32.685,32.685,0,0,1-5.7-.439,28.914,28.914,0,0,1-4.548-1.189,13.546,13.546,0,0,1,.576-2.75q.441-1.388.985-2.748" transform="translate(700.525 892.286)" fill="#e30613"/><path d="M273.35,282.254c-.363,0-.737.01-1.12.034s-.758.032-1.12.032q-.679,0-1.424-.032c-.5-.025-.907-.059-1.223-.1l-11.54-34.827a16.372,16.372,0,0,1,1.832-.17c.634-.021,1.222-.034,1.766-.034.586,0,1.244.013,1.968.034a13.194,13.194,0,0,1,1.834.17l9.639,32.384,9.98-32.384a23.858,23.858,0,0,1,3.327-.2c.5,0,1.063.013,1.7.034a18.86,18.86,0,0,1,1.9.17l-13.509,41.887a31.635,31.635,0,0,1-1.97,4.684,11.14,11.14,0,0,1-2.308,3.058,7.557,7.557,0,0,1-2.886,1.628,13.056,13.056,0,0,1-3.7.475,20.031,20.031,0,0,1-3.088-.239,20.838,20.838,0,0,1-2.684-.576,12.057,12.057,0,0,1,1.086-5.228c.409.137.962.282,1.664.443a10.3,10.3,0,0,0,2.275.237,7.864,7.864,0,0,0,1.662-.17,3.755,3.755,0,0,0,1.458-.68,5.091,5.091,0,0,0,1.258-1.458,13.009,13.009,0,0,0,1.118-2.581Z" transform="translate(712.451 892.576)" fill="#e30613"/><path d="M285.222,286.857a1.888,1.888,0,0,1-1.339-.554L-1.339,1.34a1.9,1.9,0,0,1,0-2.679,1.9,1.9,0,0,1,2.679,0L286.561,283.623a1.895,1.895,0,0,1-1.339,3.235Z" transform="translate(826.171 1006.345)" fill="#00a8e7"/></g></svg>