<svg xmlns="http://www.w3.org/2000/svg" xmlns:xlink="http://www.w3.org/1999/xlink" width="135" height="135.001" viewBox="0 0 135 135.001"><defs><filter id="a" x="0" y="0" width="135" height="135.001" filterUnits="userSpaceOnUse"><feOffset input="SourceAlpha"/><feGaussianBlur stdDeviation="2.5" result="b"/><feFlood flood-opacity="0.161"/><feComposite operator="in" in2="b"/><feComposite in="SourceGraphic"/></filter></defs><g transform="translate(7.5 7.5)"><g transform="matrix(1, 0, 0, 1, -7.5, -7.5)" filter="url(#a)"><path d="M262.719,244.671a9.142,9.142,0,0,1,4.894-1.389,9.334,9.334,0,0,1,9.333,9.333,9.211,9.211,0,0,1-1.321,4.793l.043.031a61.011,61.011,0,1,1-12.949-12.768" transform="translate(-159.71 -225.5)" fill="#fff" fill-rule="evenodd"/></g><path d="M275.217,265.76a9.846,9.846,0,0,1-3.262.594,9.274,9.274,0,0,1-8.67-12.541,53.962,53.962,0,1,0,11.932,11.947" transform="translate(-171.621 -237.433)" fill="#e00111" fill-rule="evenodd"/><path d="M331.9,263.043a5.1,5.1,0,1,1,5.095,5.093,5.1,5.1,0,0,1-5.095-5.093" transform="translate(-236.591 -243.512)" fill="#e00111"/><path d="M219.435,388.182a3.28,3.28,0,0,1,1.122-.743,3.449,3.449,0,0,1,1.291-.258,3.328,3.328,0,0,1,1.275.258,3.264,3.264,0,0,1,1.136.743l.472.472-.943.954-.484-.469a2.009,2.009,0,0,0-.685-.457,2.049,2.049,0,0,0-2.229.457,1.925,1.925,0,0,0-.455.667,2.084,2.084,0,0,0,0,1.547,2.059,2.059,0,0,0,.455.682,2,2,0,0,0,1.457.606,2.111,2.111,0,0,0,.789-.151,1.882,1.882,0,0,0,.667-.455l.484-.471.943.959-.472.47a3.455,3.455,0,0,1-1.136.758,3.54,3.54,0,0,1-1.275.242,3.67,3.67,0,0,1-1.291-.242,3.477,3.477,0,0,1-1.122-.758,3.313,3.313,0,0,1-.743-1.123,3.509,3.509,0,0,1,0-2.566,3.282,3.282,0,0,1,.743-1.121" transform="translate(-188.795 -297.957)" fill="#fff" fill-rule="evenodd"/><path d="M236.433,391.616l.956.957-.469.471a3.445,3.445,0,0,1-1.108.744,3.462,3.462,0,0,1-2.609,0,3.462,3.462,0,0,1-1.108-.744,3.27,3.27,0,0,1-.743-1.123,3.577,3.577,0,0,1-.242-1.289,3.45,3.45,0,0,1,.242-1.274,3.381,3.381,0,0,1,1.865-1.867,3.426,3.426,0,0,1,1.289-.255,3.3,3.3,0,0,1,1.275.255,3.265,3.265,0,0,1,1.138.744l.469.47-3.777,3.778a2,2,0,0,0,2.351-.4Zm-3.382-2.441a1.986,1.986,0,0,0-.608,1.457,1.956,1.956,0,0,0,.214.893c.121-.12.3-.3.545-.543.252-.257.515-.517.787-.789s.553-.551.805-.8.466-.449.608-.592a2.039,2.039,0,0,0-1.229-.2,1.943,1.943,0,0,0-1.123.577" transform="translate(-194.13 -297.98)" fill="#fff" fill-rule="evenodd"/><path d="M244.064,390.6a3.333,3.333,0,0,1,.259-1.317,3.471,3.471,0,0,1,.728-1.078,3.341,3.341,0,0,1,1.094-.728,3.22,3.22,0,0,1,1.318-.274,3.156,3.156,0,0,1,1.319.274,3.289,3.289,0,0,1,1.091.728,3.145,3.145,0,0,1,.731,1.078,3.185,3.185,0,0,1,.273,1.317v3.412h-1.351V390.6a1.877,1.877,0,0,0-.166-.787,2.089,2.089,0,0,0-1.094-1.093,2.046,2.046,0,0,0-1.607,0,2.068,2.068,0,0,0-.652.441,2.1,2.1,0,0,0-.44.652,2,2,0,0,0-.15.787v3.412h-1.352Z" transform="translate(-199.587 -297.968)" fill="#fff" fill-rule="evenodd"/><path d="M258.955,388.182a3.28,3.28,0,0,1,1.123-.743,3.417,3.417,0,0,1,1.288-.258,3.337,3.337,0,0,1,1.275.258,3.272,3.272,0,0,1,1.137.743l.469.472-.939.954-.486-.469a2.014,2.014,0,0,0-.683-.457,2.051,2.051,0,0,0-1.547,0,1.993,1.993,0,0,0-.682.457,1.864,1.864,0,0,0-.455.667,2.028,2.028,0,0,0,0,1.547,2.076,2.076,0,0,0,1.91,1.288,2.114,2.114,0,0,0,.789-.151,1.886,1.886,0,0,0,.667-.455l.486-.471.939.959-.469.47a3.463,3.463,0,0,1-1.137.758,3.549,3.549,0,0,1-1.275.242,3.636,3.636,0,0,1-1.288-.242,3.476,3.476,0,0,1-1.123-.758,3.293,3.293,0,0,1-.744-1.123,3.549,3.549,0,0,1,0-2.566,3.262,3.262,0,0,1,.744-1.121" transform="translate(-205.446 -297.957)" fill="#fff" fill-rule="evenodd"/><path d="M270.6,390.631a3.338,3.338,0,0,1,.258-1.318,3.5,3.5,0,0,1,.729-1.078,3.355,3.355,0,0,1,1.093-.728,3.344,3.344,0,0,1,2.639,0,3.364,3.364,0,0,1,1.09.728,3.408,3.408,0,0,1,1,2.4,3.218,3.218,0,0,1-.271,1.319,3.277,3.277,0,0,1-.728,1.093,3.576,3.576,0,0,1-1.09.743,3.518,3.518,0,0,1-2.639,0,3.565,3.565,0,0,1-1.093-.743,3.728,3.728,0,0,1-.729-1.093,3.44,3.44,0,0,1-.258-1.319m1.336,0a2.11,2.11,0,0,0,.152.8,1.98,1.98,0,0,0,1.105,1.106,2.131,2.131,0,0,0,.8.153,2,2,0,0,0,1.456-.592,1.973,1.973,0,0,0,.441-.667,2,2,0,0,0,.165-.8,1.9,1.9,0,0,0-.165-.788,1.781,1.781,0,0,0-.441-.652,1.839,1.839,0,0,0-.652-.441,1.961,1.961,0,0,0-.8-.166,1.983,1.983,0,0,0-.8.166,2.006,2.006,0,0,0-.667.441,2.069,2.069,0,0,0-.439.652,1.994,1.994,0,0,0-.152.788" transform="translate(-210.767 -297.98)" fill="#fff" fill-rule="evenodd"/><path d="M290.138,387.18v1.349h-4.111a.677.677,0,0,0-.682.685.71.71,0,0,0,.2.5.662.662,0,0,0,.484.2h2.731a1.859,1.859,0,0,1,.788.169,1.909,1.909,0,0,1,.652.425,1.806,1.806,0,0,1,.439.651,1.831,1.831,0,0,1,.168.789,1.909,1.909,0,0,1-.168.8,1.95,1.95,0,0,1-.439.652,2.09,2.09,0,0,1-.652.442,2.019,2.019,0,0,1-.788.152h-4.094V392.64h4.094a.67.67,0,0,0,.5-.2.683.683,0,0,0,.2-.5.662.662,0,0,0-.2-.487.679.679,0,0,0-.5-.2h-2.731a2.131,2.131,0,0,1-.8-.151,2.188,2.188,0,0,1-.638-.441,2.333,2.333,0,0,1-.439-.652,2.123,2.123,0,0,1-.152-.8,2.009,2.009,0,0,1,.152-.789,2.122,2.122,0,0,1,.439-.655,2.088,2.088,0,0,1,1.44-.591Z" transform="translate(-216.41 -297.957)" fill="#fff" fill-rule="evenodd"/><path d="M304.652,387.18v3.4a3.248,3.248,0,0,1-.272,1.32,3.36,3.36,0,0,1-.73,1.093,3.516,3.516,0,0,1-1.091.741,3.321,3.321,0,0,1-1.319.259,3.411,3.411,0,0,1-1.32-.259,3.559,3.559,0,0,1-1.09-.741,3.755,3.755,0,0,1-.728-1.093,3.41,3.41,0,0,1-.259-1.32v-3.4h1.351v3.4a2.083,2.083,0,0,0,.152.8,2.314,2.314,0,0,0,.439.667,2.392,2.392,0,0,0,.652.438,2.2,2.2,0,0,0,1.609,0,2.1,2.1,0,0,0,.652-.438,1.964,1.964,0,0,0,.44-.667,1.993,1.993,0,0,0,.167-.8v-3.4Z" transform="translate(-222.244 -297.957)" fill="#fff" fill-rule="evenodd"/><path d="M318,382.466v6.125a3.241,3.241,0,0,1-.275,1.322,3.475,3.475,0,0,1-1.8,1.835,3.512,3.512,0,0,1-2.64,0,3.5,3.5,0,0,1-1.833-1.835,3.367,3.367,0,0,1-.26-1.322,3.272,3.272,0,0,1,1-2.394,3.352,3.352,0,0,1,1.092-.728,3.246,3.246,0,0,1,1.321-.273h2.047v-2.729Zm-3.4,8.188a2.036,2.036,0,0,0,.787-.151,2.1,2.1,0,0,0,.652-.44,1.941,1.941,0,0,0,.441-.667,2.008,2.008,0,0,0,.167-.805v-2.046H314.6a1.946,1.946,0,0,0-.8.167,1.966,1.966,0,0,0-.671.44,2.2,2.2,0,0,0-.439.653,2.063,2.063,0,0,0-.151.785,2.2,2.2,0,0,0,.151.805,2.393,2.393,0,0,0,.439.667,2.351,2.351,0,0,0,.671.44,2.149,2.149,0,0,0,.8.151" transform="translate(-227.864 -295.971)" fill="#fff" fill-rule="evenodd"/><path d="M339.48,314.03l-11.827,31.017-6.8-.019,4.461-10.115-8.034-20.864h6.784l4.382,13.457.241,0,4.055-13.471Z" transform="translate(-230.431 -267.139)" fill="#ffef41"/><path d="M300.2,329.242c0,4.958-5.436,6.812-10.549,6.815s-10.42-1.962-10.424-6.848h6.722c0,1.528,2.115,2.105,3.711,2.1,1.566,0,3.6-.417,3.6-1.893,0-1.858-2.528-2.129-6.5-3.16-4.12-1.081-7.056-2.885-7.061-6.766,0-4.933,4.8-6.622,9.943-6.63,5.083,0,9.726,1.683,9.731,6.612l-6.639.021c0-1.37-1.686-1.9-3.092-1.9s-3.078.342-3.078,1.7c.007,1.863,2.836,2.1,6.034,2.88,4.089.994,7.6,2.657,7.6,7.065" transform="translate(-214.402 -266.648)" fill="#ffef41"/><path d="M255.78,335.209l-6.3.042.015-2.489-.244.005c-1.05,2.114-3.151,3.276-6.411,3.284-5.526.01-10.314-4.525-10.319-11.67-.006-7.236,4.362-11.548,9.916-11.552,3.079-.007,5.626,1.266,6.76,3.163l.244-.007-.012-2.443h6.327Zm-6.388-10.84c-.005-2.905-1.612-5.619-5.361-5.615s-4.964,3.03-4.964,5.638c.005,2.745,1.47,5.719,5.262,5.721,3.886-.013,5.064-3.132,5.064-5.744" transform="translate(-194.724 -266.634)" fill="#ffef41"/><path d="M210.1,324.227c0,.859-.117,2.215-.117,2.215l-15.638.007a4.494,4.494,0,0,0,4.717,4.33c1.937.007,3.187-.718,3.8-2.058l6.787.01c-.617,3.222-3.407,7.3-10.466,7.3-6.781.014-11.5-5.335-11.507-11.8,0-6.538,4.28-11.394,11.033-11.4a10.974,10.974,0,0,1,11.4,11.392m-6.737-2.167a4.179,4.179,0,0,0-4.556-3.973,4.4,4.4,0,0,0-4.473,3.973Z" transform="translate(-175.83 -266.636)" fill="#ffef41"/><path d="M258.127,364.294c-17.252-2.325-34.586-2.461-61.455-.542l.293-1.236c26.85-2.37,48.015-3.615,59.619-3.258,6.844.211,8.927.708,8.927,3.135,0,2.589-3.043,2.488-7.384,1.9" transform="translate(-179.621 -286.168)" fill="#ffef41"/></g></svg>