<svg xmlns="http://www.w3.org/2000/svg" width="112" height="151" viewBox="0 0 112 151"><g transform="translate(-4670 6583)"><rect width="112" height="151" rx="4" transform="translate(4670 -6583)" fill="#e00109"/><g transform="translate(4746.993 -6574.999)"><path d="M189.835,235.767a2.166,2.166,0,0,1,1.159-.329,2.211,2.211,0,0,1,2.211,2.211,2.182,2.182,0,0,1-.313,1.136l.01.007a14.454,14.454,0,1,1-3.068-3.025" transform="translate(-167.208 -233.003)" fill="#fff" fill-rule="evenodd"/><path d="M200.79,248.787a2.333,2.333,0,0,1-.773.141,2.2,2.2,0,0,1-2.054-2.971,12.784,12.784,0,1,0,2.827,2.83" transform="translate(-176.248 -242.076)" fill="#e00111" fill-rule="evenodd"/><path d="M331.9,259.155a1.208,1.208,0,1,1,1.207,1.206,1.207,1.207,0,0,1-1.207-1.206" transform="translate(-309.32 -254.528)" fill="#e00111"/><path d="M218.682,387.418a.777.777,0,0,1,.266-.176.817.817,0,0,1,.306-.061.788.788,0,0,1,.3.061.773.773,0,0,1,.269.176l.112.112-.223.226-.115-.111a.476.476,0,0,0-.162-.108.485.485,0,0,0-.528.108.456.456,0,0,0-.108.158.493.493,0,0,0,0,.366.488.488,0,0,0,.108.162.473.473,0,0,0,.345.144.5.5,0,0,0,.187-.036.446.446,0,0,0,.158-.108l.115-.112.223.227-.112.111a.818.818,0,0,1-.269.18.838.838,0,0,1-.3.057.869.869,0,0,1-.306-.057.824.824,0,0,1-.266-.18.785.785,0,0,1-.176-.266.831.831,0,0,1,0-.608.778.778,0,0,1,.176-.266" transform="translate(-211.424 -366.043)" fill="#fff" fill-rule="evenodd"/><path d="M232.371,388.274l.226.227-.111.112a.816.816,0,0,1-.263.176.82.82,0,0,1-.618,0,.82.82,0,0,1-.262-.176.775.775,0,0,1-.176-.266.848.848,0,0,1-.057-.305.818.818,0,0,1,.057-.3.8.8,0,0,1,.442-.442.811.811,0,0,1,.305-.06.781.781,0,0,1,.3.06.773.773,0,0,1,.27.176l.111.111-.895.895a.474.474,0,0,0,.557-.094Zm-.8-.578a.471.471,0,0,0-.144.345.464.464,0,0,0,.051.212l.129-.129.186-.187.191-.191q.094-.09.144-.14a.483.483,0,0,0-.291-.047.461.461,0,0,0-.266.137" transform="translate(-222.349 -366.091)" fill="#fff" fill-rule="evenodd"/><path d="M244.064,388.012a.79.79,0,0,1,.061-.312.822.822,0,0,1,.172-.255.792.792,0,0,1,.259-.172.763.763,0,0,1,.312-.065.748.748,0,0,1,.312.065.779.779,0,0,1,.259.172.745.745,0,0,1,.173.255.755.755,0,0,1,.065.312v.808h-.32v-.808a.445.445,0,0,0-.039-.186.495.495,0,0,0-.259-.259.485.485,0,0,0-.381,0,.49.49,0,0,0-.155.1.5.5,0,0,0-.1.154.474.474,0,0,0-.036.186v.808h-.32Z" transform="translate(-233.527 -366.066)" fill="#fff" fill-rule="evenodd"/><path d="M258.2,387.418a.776.776,0,0,1,.266-.176.809.809,0,0,1,.305-.061.79.79,0,0,1,.3.061.774.774,0,0,1,.269.176l.111.112-.222.226-.115-.111a.477.477,0,0,0-.162-.108.486.486,0,0,0-.367,0,.472.472,0,0,0-.161.108.441.441,0,0,0-.108.158.48.48,0,0,0,0,.366.492.492,0,0,0,.453.305.5.5,0,0,0,.187-.036.447.447,0,0,0,.158-.108l.115-.112.222.227-.111.111a.82.82,0,0,1-.269.18.841.841,0,0,1-.3.057.861.861,0,0,1-.305-.057.823.823,0,0,1-.266-.18.78.78,0,0,1-.176-.266.841.841,0,0,1,0-.608.773.773,0,0,1,.176-.266" transform="translate(-245.527 -366.043)" fill="#fff" fill-rule="evenodd"/><path d="M270.6,388.04a.791.791,0,0,1,.061-.312.83.83,0,0,1,.173-.255.794.794,0,0,1,.259-.173.792.792,0,0,1,.625,0,.8.8,0,0,1,.258.173.808.808,0,0,1,.237.568.762.762,0,0,1-.064.313.777.777,0,0,1-.172.259.848.848,0,0,1-.258.176.834.834,0,0,1-.625,0,.844.844,0,0,1-.259-.176.883.883,0,0,1-.173-.259.815.815,0,0,1-.061-.313m.316,0a.5.5,0,0,0,.036.191.469.469,0,0,0,.262.262.5.5,0,0,0,.191.036.472.472,0,0,0,.345-.14.467.467,0,0,0,.1-.158.474.474,0,0,0,.039-.191.448.448,0,0,0-.039-.187.421.421,0,0,0-.1-.154.435.435,0,0,0-.155-.1.465.465,0,0,0-.19-.039.506.506,0,0,0-.349.144.49.49,0,0,0-.1.154.472.472,0,0,0-.036.187" transform="translate(-256.426 -366.09)" fill="#fff" fill-rule="evenodd"/><path d="M285.451,387.18v.32h-.974a.16.16,0,0,0-.162.162.168.168,0,0,0,.047.118.157.157,0,0,0,.115.046h.647a.441.441,0,0,1,.187.04.452.452,0,0,1,.154.1.428.428,0,0,1,.1.154.434.434,0,0,1,.04.187.452.452,0,0,1-.04.19.463.463,0,0,1-.1.155.5.5,0,0,1-.154.1.479.479,0,0,1-.187.036h-.97v-.32h.97a.159.159,0,0,0,.118-.046.162.162,0,0,0,.047-.119.157.157,0,0,0-.047-.115.161.161,0,0,0-.118-.046h-.647a.5.5,0,0,1-.19-.036.519.519,0,0,1-.151-.1.553.553,0,0,1-.1-.155.5.5,0,0,1-.036-.19.476.476,0,0,1,.036-.187.5.5,0,0,1,.1-.155.495.495,0,0,1,.341-.14Z" transform="translate(-267.984 -366.042)" fill="#fff" fill-rule="evenodd"/><path d="M299.456,387.18v.805a.769.769,0,0,1-.064.313.8.8,0,0,1-.173.259.833.833,0,0,1-.259.176.787.787,0,0,1-.312.061.808.808,0,0,1-.313-.061.843.843,0,0,1-.258-.176.89.89,0,0,1-.172-.259.808.808,0,0,1-.061-.313v-.805h.32v.805a.494.494,0,0,0,.036.19.549.549,0,0,0,.1.158.568.568,0,0,0,.154.1.522.522,0,0,0,.381,0,.5.5,0,0,0,.154-.1.466.466,0,0,0,.1-.158.473.473,0,0,0,.04-.19v-.805Z" transform="translate(-279.933 -366.042)" fill="#fff" fill-rule="evenodd"/><path d="M312.8,382.466v1.451a.768.768,0,0,1-.065.313.823.823,0,0,1-.427.435.832.832,0,0,1-.625,0,.829.829,0,0,1-.434-.435.8.8,0,0,1-.062-.313.775.775,0,0,1,.237-.567.8.8,0,0,1,.259-.173.77.77,0,0,1,.313-.065h.485v-.647Zm-.8,1.94a.483.483,0,0,0,.186-.036.5.5,0,0,0,.155-.1.46.46,0,0,0,.1-.158.476.476,0,0,0,.04-.191v-.485h-.485a.516.516,0,0,0-.35.144.522.522,0,0,0-.1.155.489.489,0,0,0-.036.186.522.522,0,0,0,.036.191.568.568,0,0,0,.1.158.557.557,0,0,0,.159.1.509.509,0,0,0,.19.036" transform="translate(-291.445 -361.975)" fill="#fff" fill-rule="evenodd"/><path d="M322.538,314.03l-2.8,7.348-1.611,0,1.057-2.4-1.9-4.943h1.607l1.038,3.188h.057l.961-3.191Z" transform="translate(-296.703 -302.921)" fill="#ffef41"/><path d="M284.2,316.744c0,1.175-1.288,1.614-2.5,1.615s-2.469-.465-2.47-1.622h1.592c0,.362.5.5.879.5s.853-.1.853-.448c0-.44-.6-.5-1.539-.749-.976-.256-1.672-.683-1.673-1.6,0-1.169,1.138-1.569,2.355-1.571s2.3.4,2.305,1.567l-1.573.005c0-.325-.4-.451-.732-.45s-.729.081-.729.4c0,.441.672.5,1.43.682.969.235,1.8.629,1.8,1.674" transform="translate(-263.872 -301.915)" fill="#ffef41"/><path d="M238.031,318.132l-1.492.01,0-.59h-.058a1.537,1.537,0,0,1-1.519.778,2.543,2.543,0,0,1-2.445-2.765,2.435,2.435,0,0,1,2.349-2.737,1.826,1.826,0,0,1,1.6.749l.058,0,0-.579h1.5Zm-1.513-2.568a1.217,1.217,0,0,0-1.27-1.33,1.181,1.181,0,0,0-1.176,1.336,1.232,1.232,0,0,0,1.247,1.355,1.2,1.2,0,0,0,1.2-1.361" transform="translate(-223.567 -301.886)" fill="#ffef41"/><path d="M192.987,315.534c0,.2-.028.525-.028.525l-3.7,0a1.065,1.065,0,0,0,1.117,1.026.886.886,0,0,0,.9-.488l1.608,0a2.253,2.253,0,0,1-2.48,1.73,2.7,2.7,0,0,1-2.726-2.794,2.534,2.534,0,0,1,2.614-2.7,2.6,2.6,0,0,1,2.7,2.7m-1.6-.513a.99.99,0,0,0-1.079-.941,1.043,1.043,0,0,0-1.06.941Z" transform="translate(-184.867 -301.89)" fill="#ffef41"/><path d="M211.231,360.4a68.161,68.161,0,0,0-14.559-.128l.07-.293c6.361-.561,11.375-.856,14.124-.772,1.621.05,2.115.168,2.115.743,0,.613-.721.59-1.749.451" transform="translate(-192.632 -341.896)" fill="#ffef41"/></g><rect width="39" height="5" rx="2.5" transform="translate(4679 -6466)" fill="#fff"/><rect width="55" height="5" rx="2.5" transform="translate(4679 -6456)" fill="#fff"/><rect width="89" height="6" rx="3" transform="translate(4679 -6447)" fill="#fff" opacity="0.5"/></g></svg>