<svg width="183" height="137" viewBox="0 0 183 137" fill="none" xmlns="http://www.w3.org/2000/svg">
<path d="M176.64 39.4202H152.437C151.321 37.1308 150.077 34.9196 148.719 32.7866C149.771 31.0731 150.375 29.0539 150.375 26.8924C150.375 20.657 145.32 15.609 139.092 15.609C137.407 15.609 135.8 15.9858 134.364 16.647C122.696 7.11971 107.801 1.40332 91.562 1.40332C64.8144 1.40332 41.6929 16.9101 30.6938 39.4202H6.49159C3.07171 39.4202 0.298828 42.193 0.298828 45.6129L13.4593 69.1184L0.298828 92.6238C0.298828 96.0437 3.07171 98.8166 6.49159 98.8166H30.6938C41.7 121.327 64.8215 136.833 91.5691 136.833C118.317 136.833 141.438 121.327 152.437 98.8166H176.64C180.059 98.8166 182.832 96.0437 182.832 92.6238L169.672 69.1184L182.832 45.6129C182.832 42.193 180.059 39.4202 176.64 39.4202Z" fill="#010101"/>
<path d="M159.192 68.7043C159.192 106.103 128.875 136.419 91.4768 136.419C54.0785 136.419 23.7617 106.103 23.7617 68.7043C23.7617 31.306 54.0714 0.989258 91.4697 0.989258C128.868 0.989258 159.185 31.306 159.185 68.7043H159.192Z" fill="url(#paint0_radial_401_4382)"/>
<path d="M91.4757 130.184C125.43 130.184 152.955 102.659 152.955 68.7042C152.955 34.75 125.43 7.22461 91.4757 7.22461C57.5215 7.22461 29.9961 34.75 29.9961 68.7042C29.9961 102.659 57.5215 130.184 91.4757 130.184Z" fill="url(#paint1_linear_401_4382)"/>
<g style="mix-blend-mode:screen" opacity="0.6">
<path d="M91.4757 7.80762C125.056 7.80762 152.372 35.124 152.372 68.7042C152.372 102.284 125.056 129.601 91.4757 129.601C57.8955 129.601 30.5791 102.284 30.5791 68.7042C30.5791 35.124 57.8955 7.80762 91.4757 7.80762ZM91.4757 7.22461C57.5187 7.22461 29.9961 34.7472 29.9961 68.7042C29.9961 102.661 57.5258 130.184 91.4757 130.184C125.426 130.184 152.955 102.661 152.955 68.7042C152.955 34.7472 125.426 7.22461 91.4757 7.22461Z" fill="url(#paint2_linear_401_4382)"/>
</g>
<path style="mix-blend-mode:screen" d="M53.225 116.363C60.6833 98.4743 71.5899 82.0219 85.4685 68.1433C101.452 52.1601 120.848 40.1301 141.921 32.7571C130.752 17.3001 112.593 7.23242 92.0666 7.23242C58.1095 7.23242 30.5869 34.755 30.5869 68.7121C30.5869 87.9373 39.4103 105.094 53.2321 116.37L53.225 116.363Z" fill="url(#paint3_radial_401_4382)"/>
<path d="M150.284 26.4778C150.284 32.7132 145.229 37.7613 139 37.7613C132.772 37.7613 127.717 32.7061 127.717 26.4778C127.717 20.2495 132.772 15.1943 139 15.1943C145.229 15.1943 150.284 20.2495 150.284 26.4778Z" fill="url(#paint4_radial_401_4382)"/>
<path d="M144.909 26.4777C144.909 29.7412 142.264 32.386 139 32.386C135.737 32.386 133.092 29.7412 133.092 26.4777C133.092 23.2142 135.737 20.5693 139 20.5693C142.264 20.5693 144.909 23.2142 144.909 26.4777Z" fill="url(#paint5_linear_401_4382)"/>
<path d="M139 20.6262C142.228 20.6262 144.852 23.2498 144.852 26.4777C144.852 29.7056 142.228 32.3292 139 32.3292C135.772 32.3292 133.149 29.7056 133.149 26.4777C133.149 23.2498 135.772 20.6262 139 20.6262ZM139 20.5693C135.737 20.5693 133.092 23.2142 133.092 26.4777C133.092 29.7412 135.737 32.386 139 32.386C142.264 32.386 144.909 29.7412 144.909 26.4777C144.909 23.2142 142.264 20.5693 139 20.5693Z" fill="url(#paint6_linear_401_4382)"/>
<path style="mix-blend-mode:screen" opacity="0.5" d="M135.267 31.0636C135.986 29.343 137.031 27.7646 138.367 26.4279C139.903 24.8922 141.766 23.7333 143.792 23.0223C142.719 21.5363 140.97 20.5693 139 20.5693C135.737 20.5693 133.092 23.2142 133.092 26.4777C133.092 28.3263 133.938 29.9758 135.267 31.0565V31.0636Z" fill="url(#paint7_radial_401_4382)"/>
<path d="M139 32.3299C142.232 32.3299 144.851 29.7101 144.851 26.4784C144.851 23.2467 142.232 20.627 139 20.627C135.768 20.627 133.148 23.2467 133.148 26.4784C133.148 29.7101 135.768 32.3299 139 32.3299Z" fill="url(#paint8_linear_401_4382)"/>
<path style="mix-blend-mode:screen" d="M135.359 31.0139C136.07 29.3075 137.108 27.7433 138.431 26.4208C139.952 24.8993 141.801 23.7546 143.806 23.0507C142.74 21.579 141.012 20.6191 139.057 20.6191C135.822 20.6191 133.205 23.2427 133.205 26.4706C133.205 28.2979 134.044 29.9332 135.359 31.0068V31.0139Z" fill="url(#paint9_radial_401_4382)"/>
<path d="M176.541 98.4033H6.39979C2.97991 98.4033 0.207031 95.6304 0.207031 92.2105L13.3675 68.705L0.207031 45.1996C0.207031 41.7797 2.97991 39.0068 6.39979 39.0068H176.541C179.96 39.0068 182.733 41.7797 182.733 45.1996L169.573 68.705L182.733 92.2105C182.733 95.6304 179.96 98.4033 176.541 98.4033Z" fill="url(#paint10_linear_401_4382)"/>
<path d="M41.8994 66.0814C41.1244 66.0814 40.7334 65.6619 40.7334 64.8158V45.2421C40.7334 44.4032 41.1244 43.9766 41.8994 43.9766H51.1779C51.8107 43.9766 52.1235 44.5027 52.1235 45.555V46.5361C52.1235 47.5884 51.8107 48.1145 51.1779 48.1145H45.625V52.6933H50.5807C51.1921 52.6933 51.4978 53.2195 51.4978 54.2718V55.2529C51.4978 56.3052 51.1921 56.8313 50.5807 56.8313H45.625V61.9434H51.1779C51.8107 61.9434 52.1235 62.4695 52.1235 63.5218V64.503C52.1235 65.5552 51.8107 66.0814 51.1779 66.0814H41.8994Z" fill="white"/>
<path d="M53.8933 66.139C52.8837 66.139 52.3789 65.9257 52.3789 65.5062C52.3789 65.3996 52.4002 65.2858 52.4429 65.1579C52.4856 65.0299 52.5353 64.8948 52.5993 64.7455L56.8582 54.5498L53.1966 45.2998C53.0899 45.0296 53.0401 44.8163 53.0401 44.667C53.0401 44.4324 53.1539 44.2546 53.3743 44.1124C53.5947 43.9702 53.9715 43.9062 54.4977 43.9062H56.0405C56.46 43.9062 56.8297 43.956 57.1426 44.0484C57.4554 44.1409 57.6758 44.3897 57.8038 44.7879L59.951 51.7343L62.347 44.539C62.4537 44.2475 62.6599 44.0627 62.9656 44.0058C63.2713 43.9489 63.6553 43.9134 64.1174 43.9134H65.5394C66.4637 43.9134 66.9258 44.1124 66.9258 44.5106C66.9258 44.6599 66.8405 44.923 66.6699 45.2998L62.8519 54.6138L66.8619 64.7455C66.9898 65.0583 67.0538 65.3143 67.0538 65.5062C67.0538 65.9257 66.5561 66.139 65.5678 66.139H64.1459C63.5131 66.139 63.0794 66.0821 62.8519 65.9684C62.6172 65.8546 62.4395 65.6129 62.3186 65.2574L59.823 57.7137L57.0786 65.229C56.9293 65.6058 56.7444 65.8546 56.5098 65.9684C56.2752 66.0821 55.8557 66.139 55.2442 66.139H53.8862H53.8933Z" fill="white"/>
<path d="M70.275 66.1382C69.0095 66.1382 68.3838 65.7899 68.3838 65.1002V45.2421C68.3838 44.4032 68.7748 43.9766 69.5498 43.9766H75.0102C77.3281 43.9766 79.0487 44.5525 80.1721 45.7114C81.2954 46.8703 81.8642 48.6051 81.8642 50.923C81.8642 53.2408 81.3025 54.9472 80.1721 56.1132C79.0416 57.2793 77.3281 57.8623 75.0102 57.8623H73.2754V65.0931C73.2754 65.7898 72.6426 66.1311 71.3842 66.1311H70.2821L70.275 66.1382ZM73.2754 53.7314H75.0102C75.8066 53.7314 76.3611 53.511 76.6669 53.0702C76.9726 52.6294 77.1219 51.9113 77.1219 50.923C77.1219 49.9347 76.9726 49.2166 76.6669 48.7758C76.3611 48.335 75.8066 48.1145 75.0102 48.1145H73.2754V53.7314Z" fill="white"/>
<path d="M85.0215 66.0814C84.2465 66.0814 83.8555 65.6619 83.8555 64.8158V45.2421C83.8555 44.4032 84.2465 43.9766 85.0215 43.9766H94.3C94.9328 43.9766 95.2456 44.5027 95.2456 45.555V46.5361C95.2456 47.5884 94.9328 48.1145 94.3 48.1145H88.7471V52.6933H93.7027C94.3142 52.6933 94.6199 53.2195 94.6199 54.2718V55.2529C94.6199 56.3052 94.3142 56.8313 93.7027 56.8313H88.7471V61.9434H94.3C94.9328 61.9434 95.2456 62.4695 95.2456 63.5218V64.503C95.2456 65.5552 94.9328 66.0814 94.3 66.0814H85.0215Z" fill="white"/>
<path d="M99.191 66.1382C97.9255 66.1382 97.2998 65.7899 97.2998 65.1002V45.2421C97.2998 44.4032 97.7193 43.9766 98.5654 43.9766H103.933C106.251 43.9766 107.972 44.5382 109.095 45.6687C110.219 46.7992 110.787 48.5483 110.787 50.923C110.787 51.9326 110.617 52.8 110.268 53.5252C109.92 54.2504 109.486 54.8192 108.96 55.2316C108.434 55.644 107.872 55.8715 107.289 55.907V56.035C107.709 56.1843 108.107 56.4616 108.477 56.874C108.846 57.2864 109.102 57.7556 109.252 58.2818L111.178 64.5954C111.264 64.8513 111.306 65.0931 111.306 65.3206C111.306 65.6548 111.171 65.8752 110.915 65.9818C110.652 66.0885 110.155 66.1382 109.415 66.1382H108.313C107.808 66.1382 107.389 66.0742 107.048 65.9463C106.713 65.8183 106.5 65.5908 106.415 65.2495L104.964 59.4122C104.815 58.8008 104.602 58.3955 104.317 58.1822C104.033 57.976 103.585 57.8694 102.974 57.8694H102.213V65.1002C102.213 65.797 101.58 66.1382 100.322 66.1382H99.2195H99.191ZM102.191 53.7314H103.926C104.723 53.7314 105.277 53.511 105.583 53.0702C105.889 52.6294 106.038 51.9113 106.038 50.923C106.038 49.9347 105.889 49.2166 105.583 48.7758C105.277 48.335 104.723 48.1145 103.926 48.1145H102.191V53.7314Z" fill="white"/>
<path d="M117.876 66.1382C116.611 66.1382 115.985 65.7899 115.985 65.1002V48.1145H112.451C111.819 48.1145 111.506 47.5884 111.506 46.5361V45.555C111.506 44.5027 111.819 43.9766 112.451 43.9766H124.418C125.05 43.9766 125.363 44.5027 125.363 45.555V46.5361C125.363 47.5884 125.05 48.1145 124.418 48.1145H120.884V65.1002C120.884 65.797 120.251 66.1382 118.993 66.1382H117.891H117.876Z" fill="white"/>
<path d="M134.577 66.3307C131.755 66.3307 129.679 65.4136 128.342 63.5863C127.005 61.759 126.337 58.908 126.337 55.033C126.337 51.1581 127.005 48.307 128.342 46.4798C129.679 44.6525 131.755 43.7354 134.577 43.7354C137.4 43.7354 139.505 44.6525 140.841 46.4798C142.178 48.307 142.846 51.1652 142.846 55.033C142.846 58.9008 142.178 61.759 140.841 63.5863C139.505 65.4207 137.414 66.3307 134.577 66.3307ZM134.606 62.1928C135.786 62.1928 136.618 61.6382 137.116 60.5219C137.606 59.4057 137.855 57.5784 137.855 55.0259C137.855 52.4735 137.606 50.6249 137.116 49.5157C136.618 48.4137 135.786 47.8591 134.606 47.8591C133.426 47.8591 132.615 48.4137 132.096 49.5157C131.577 50.6178 131.321 52.4592 131.321 55.0259C131.321 57.5926 131.577 59.4057 132.096 60.5219C132.615 61.6382 133.447 62.1928 134.606 62.1928Z" fill="white"/>
<path d="M46.4922 93.7679C45.7172 93.7679 45.3262 93.3484 45.3262 92.5023V72.9287C45.3262 72.0897 45.7172 71.6631 46.4922 71.6631H51.4763C53.7941 71.6631 55.4578 72.2248 56.4817 73.3553C57.5055 74.4857 58.0103 75.929 58.0103 77.6923C58.0103 78.7233 57.733 79.6618 57.1713 80.515C56.6168 81.3681 55.9058 81.9298 55.0384 82.2071L55.0668 82.3351C56.1191 82.6053 56.9865 83.231 57.669 84.2121C58.3516 85.1933 58.6929 86.3238 58.6929 87.6036C58.6929 91.706 56.2826 93.7608 51.4621 93.7608H46.478L46.4922 93.7679ZM50.0614 80.5079H51.4834C52.1802 80.5079 52.6779 80.3159 52.9836 79.9248C53.2893 79.5338 53.4386 78.9223 53.4386 78.0763C53.4386 77.2302 53.2893 76.6969 52.9836 76.3414C52.6779 75.9859 52.1802 75.8082 51.4834 75.8082H50.0614V80.515V80.5079ZM50.0614 89.6299H51.4834C52.301 89.6299 52.8983 89.4308 53.268 89.0327C53.6377 88.6345 53.8225 87.9804 53.8225 87.0774C53.8225 86.1745 53.6377 85.4493 53.268 85.0227C52.8983 84.6032 52.3081 84.3899 51.4834 84.3899H50.0614V89.6299Z" fill="white"/>
<path d="M62.1774 93.8316C60.9118 93.8316 60.2861 93.4832 60.2861 92.7936V72.9355C60.2861 72.0965 60.7056 71.6699 61.5517 71.6699H66.9197C69.2375 71.6699 70.9581 72.2316 72.0815 73.3621C73.2049 74.4926 73.7737 76.2416 73.7737 78.6163C73.7737 79.6259 73.603 80.4934 73.2547 81.2186C72.9063 81.9438 72.4726 82.5126 71.9464 82.925C71.4203 83.3373 70.8586 83.5648 70.2756 83.6004V83.7284C70.6951 83.8777 71.0932 84.155 71.4629 84.5673C71.8327 84.9797 72.0886 85.449 72.2379 85.9751L74.1647 92.2887C74.25 92.5447 74.2927 92.7864 74.2927 93.014C74.2927 93.3481 74.1576 93.5685 73.9017 93.6752C73.6386 93.7818 73.1409 93.8316 72.4015 93.8316H71.2994C70.7946 93.8316 70.3751 93.7676 70.0339 93.6396C69.6997 93.5117 69.4864 93.2841 69.4011 92.9429L67.9506 87.1056C67.8013 86.4941 67.588 86.0889 67.3036 85.8756C67.0192 85.6694 66.5713 85.5627 65.9599 85.5627H65.1991V92.7936C65.1991 93.4903 64.5663 93.8316 63.3079 93.8316H62.2058H62.1774ZM65.1778 81.4248H66.9126C67.7089 81.4248 68.2635 81.2044 68.5692 80.7635C68.8749 80.3227 69.0242 79.6046 69.0242 78.6163C69.0242 77.6281 68.8749 76.9099 68.5692 76.4691C68.2635 76.0283 67.7089 75.8079 66.9126 75.8079H65.1778V81.4248Z" fill="white"/>
<path d="M83.7053 94.0241C80.8826 94.0241 78.8065 93.1069 77.4699 91.2797C76.1332 89.4524 75.4648 86.6013 75.4648 82.7264C75.4648 78.8515 76.1332 76.0004 77.4699 74.1731C78.8065 72.3459 80.8826 71.4287 83.7053 71.4287C86.5279 71.4287 88.6325 72.3459 89.9691 74.1731C91.3058 76.0004 91.9741 78.8586 91.9741 82.7264C91.9741 86.5942 91.3058 89.4524 89.9691 91.2797C88.6325 93.114 86.5421 94.0241 83.7053 94.0241ZM83.7337 89.8861C84.914 89.8861 85.7458 89.3315 86.2435 88.2153C86.7341 87.099 86.9829 85.2718 86.9829 82.7193C86.9829 80.1668 86.7341 78.3182 86.2435 77.2091C85.7458 76.1071 84.914 75.5525 83.7337 75.5525C82.5535 75.5525 81.7429 76.1071 81.2239 77.2091C80.7049 78.3111 80.4489 80.1526 80.4489 82.7193C80.4489 85.286 80.7049 87.099 81.2239 88.2153C81.7429 89.3315 82.5748 89.8861 83.7337 89.8861Z" fill="white"/>
<path d="M96.3971 93.8321C95.1315 93.8321 94.5059 93.4837 94.5059 92.7941V72.6516C94.5059 71.9548 95.1386 71.6064 96.3971 71.6064H97.4707C98.1888 71.6064 98.7149 71.6775 99.0491 71.8269C99.3833 71.9762 99.6463 72.2463 99.8383 72.6445L104.766 82.4633C104.872 82.698 104.986 82.9823 105.114 83.3165C105.242 83.6507 105.356 83.992 105.462 84.3261L105.619 84.2977C105.576 83.9422 105.533 83.5796 105.491 83.2241C105.448 82.8686 105.427 82.506 105.427 82.1505V72.6516C105.427 71.9548 106.06 71.6064 107.318 71.6064H108.079C109.344 71.6064 109.97 71.9548 109.97 72.6516V92.7941C109.97 93.4908 109.337 93.8321 108.079 93.8321H107.005C106.308 93.8321 105.796 93.761 105.462 93.6117C105.128 93.4624 104.865 93.1922 104.673 92.7941L99.7174 82.8188C99.6108 82.5842 99.497 82.2998 99.3691 81.9656C99.2411 81.6315 99.1273 81.2902 99.0207 80.956L98.8643 80.9845C98.9069 81.34 98.9496 81.7026 98.9922 82.0581C99.0349 82.4135 99.0562 82.7762 99.0562 83.1317V92.7941C99.0562 93.4908 98.4234 93.8321 97.165 93.8321H96.4042H96.3971Z" fill="white"/>
<path d="M121.24 94.0244C118.253 94.0244 116.085 93.1072 114.734 91.2657C113.39 89.4242 112.715 86.5589 112.715 82.6627C112.715 78.7664 113.412 76.0789 114.812 74.2161C116.213 72.3533 118.403 71.4219 121.396 71.4219C121.986 71.4219 122.534 71.4574 123.038 71.5356C123.543 71.6067 123.934 71.6849 124.205 71.7703C124.581 71.8769 124.844 72.0262 124.979 72.2253C125.115 72.4244 125.186 72.6945 125.186 73.0287C125.186 73.4269 125.15 73.8535 125.072 74.3085C125.001 74.7635 124.88 75.1475 124.724 75.4745C124.567 75.8016 124.347 75.9651 124.077 75.9651C123.863 75.9651 123.543 75.9153 123.095 75.8229C122.655 75.7305 122.157 75.6807 121.609 75.6807C120.266 75.6807 119.284 76.2353 118.673 77.3373C118.062 78.4394 117.756 80.224 117.756 82.6911C117.756 85.1583 118.069 86.9713 118.701 88.0733C119.334 89.1754 120.351 89.73 121.766 89.73C122.463 89.73 123.01 89.6731 123.408 89.5593C123.806 89.4456 124.148 89.3887 124.418 89.3887C124.667 89.3887 124.873 89.538 125.036 89.8295C125.193 90.1281 125.314 90.4836 125.399 90.9031C125.484 91.3226 125.527 91.7421 125.527 92.1687C125.527 92.4815 125.463 92.7588 125.335 92.9863C125.207 93.2209 124.944 93.4058 124.546 93.5551C124.233 93.6618 123.771 93.7684 123.174 93.8679C122.576 93.9746 121.929 94.0244 121.233 94.0244H121.24Z" fill="white"/>
<path d="M128.498 93.7679C127.723 93.7679 127.332 93.3484 127.332 92.5023V72.9287C127.332 72.0897 127.723 71.6631 128.498 71.6631H137.777C138.409 71.6631 138.722 72.1892 138.722 73.2415V74.2227C138.722 75.2749 138.409 75.8011 137.777 75.8011H132.224V80.3799H137.179C137.791 80.3799 138.096 80.906 138.096 81.9583V82.9394C138.096 83.9917 137.791 84.5179 137.179 84.5179H132.224V89.6299H137.777C138.409 89.6299 138.722 90.156 138.722 91.2083V92.1895C138.722 93.2417 138.409 93.7679 137.777 93.7679H128.498Z" fill="white"/>
<defs>
<radialGradient id="paint0_radial_401_4382" cx="0" cy="0" r="1" gradientUnits="userSpaceOnUse" gradientTransform="translate(46.0869 13.7729) scale(123.308)">
<stop stop-color="#DEDEDE"/>
<stop offset="0.26" stop-color="#BFBEBF"/>
<stop offset="0.76" stop-color="#7E7F7F"/>
<stop offset="1" stop-color="white"/>
</radialGradient>
<linearGradient id="paint1_linear_401_4382" x1="161.565" y1="140.273" x2="42.8437" y2="19.0484" gradientUnits="userSpaceOnUse">
<stop stop-color="#844421"/>
<stop offset="0.23" stop-color="#E69541"/>
<stop offset="0.41" stop-color="#995B2F"/>
<stop offset="0.5" stop-color="#7A4428"/>
<stop offset="0.73" stop-color="#673118"/>
<stop offset="1" stop-color="#EF9B4E"/>
</linearGradient>
<linearGradient id="paint2_linear_401_4382" x1="47.9985" y1="25.2341" x2="134.946" y2="112.182" gradientUnits="userSpaceOnUse">
<stop stop-color="#8B4A2A"/>
<stop offset="0.14" stop-color="#CE8042"/>
<stop offset="0.21" stop-color="#EE9A4D"/>
<stop offset="0.45" stop-color="#5F2912"/>
<stop offset="0.67" stop-color="#854E32"/>
<stop offset="1" stop-color="#C5763B"/>
</linearGradient>
<radialGradient id="paint3_radial_401_4382" cx="0" cy="0" r="1" gradientUnits="userSpaceOnUse" gradientTransform="translate(120.023 72.8429) scale(157.364 157.364)">
<stop stop-color="#B16838"/>
<stop offset="0.14" stop-color="#875034"/>
<stop offset="0.16" stop-color="#844D32"/>
<stop offset="0.32" stop-color="#6E3D23"/>
<stop offset="0.49" stop-color="#5F3119"/>
<stop offset="0.7" stop-color="#562A13"/>
<stop offset="1" stop-color="#542812"/>
</radialGradient>
<radialGradient id="paint4_radial_401_4382" cx="0" cy="0" r="1" gradientUnits="userSpaceOnUse" gradientTransform="translate(131.435 17.3202) scale(20.5548 20.5548)">
<stop stop-color="#DEDEDE"/>
<stop offset="0.26" stop-color="#BFBEBF"/>
<stop offset="0.76" stop-color="#7E7F7F"/>
<stop offset="1" stop-color="white"/>
</radialGradient>
<linearGradient id="paint5_linear_401_4382" x1="134.407" y1="21.8847" x2="145.811" y2="33.289" gradientUnits="userSpaceOnUse">
<stop stop-color="#D5D5D5"/>
<stop offset="0.05" stop-color="#E0E0E0"/>
<stop offset="0.21" stop-color="white"/>
<stop offset="0.45" stop-color="#272727"/>
<stop offset="0.67" stop-color="#B7B7B7"/>
<stop offset="1" stop-color="#D5D5D5"/>
</linearGradient>
<linearGradient id="paint6_linear_401_4382" x1="134.82" y1="22.2971" x2="143.181" y2="30.6584" gradientUnits="userSpaceOnUse">
<stop stop-color="#D5D5D5"/>
<stop offset="0.05" stop-color="#E0E0E0"/>
<stop offset="0.21" stop-color="white"/>
<stop offset="0.45" stop-color="#272727"/>
<stop offset="0.67" stop-color="#B7B7B7"/>
<stop offset="1" stop-color="#D5D5D5"/>
</linearGradient>
<radialGradient id="paint7_radial_401_4382" cx="0" cy="0" r="1" gradientUnits="userSpaceOnUse" gradientTransform="translate(141.688 26.8759) scale(15.13 15.13)">
<stop stop-color="#CBCBCB"/>
<stop offset="0.14" stop-color="#6E6E6E"/>
<stop offset="0.24" stop-color="#4C4C4C"/>
<stop offset="0.36" stop-color="#313131"/>
<stop offset="0.48" stop-color="#1B1B1B"/>
<stop offset="0.61" stop-color="#0C0C0C"/>
<stop offset="0.77" stop-color="#030303"/>
<stop offset="1" stop-color="#010101"/>
</radialGradient>
<linearGradient id="paint8_linear_401_4382" x1="145.676" y1="33.2969" x2="134.371" y2="21.7503" gradientUnits="userSpaceOnUse">
<stop stop-color="#844421"/>
<stop offset="0.23" stop-color="#E69541"/>
<stop offset="0.41" stop-color="#995B2F"/>
<stop offset="0.5" stop-color="#7A4428"/>
<stop offset="0.73" stop-color="#673118"/>
<stop offset="1" stop-color="#EF9B4E"/>
</linearGradient>
<radialGradient id="paint9_radial_401_4382" cx="0" cy="0" r="1" gradientUnits="userSpaceOnUse" gradientTransform="translate(141.716 26.8759) scale(14.9878)">
<stop stop-color="#B16838"/>
<stop offset="0.14" stop-color="#875034"/>
<stop offset="0.16" stop-color="#844D32"/>
<stop offset="0.32" stop-color="#6E3D23"/>
<stop offset="0.49" stop-color="#5F3119"/>
<stop offset="0.7" stop-color="#562A13"/>
<stop offset="1" stop-color="#542812"/>
</radialGradient>
<linearGradient id="paint10_linear_401_4382" x1="92.4727" y1="208.337" x2="90.2402" y2="-104.138" gradientUnits="userSpaceOnUse">
<stop offset="0.26" stop-color="#941E14"/>
<stop offset="0.39" stop-color="#7A4428"/>
<stop offset="0.44" stop-color="#612011"/>
<stop offset="0.48" stop-color="#673118"/>
<stop offset="0.59" stop-color="#9A3315"/>
</linearGradient>
</defs>
</svg>
