<svg width="184" height="137" viewBox="0 0 184 137" fill="none" xmlns="http://www.w3.org/2000/svg">
<path d="M183.522 45.6129C183.522 42.193 180.749 39.4202 177.329 39.4202H153.127C152.409 37.9484 151.641 36.5122 150.816 35.1044C152.714 33.1065 153.887 30.4119 153.887 27.4328C153.887 21.2756 148.896 16.2844 142.739 16.2844C140.521 16.2844 138.459 16.9385 136.724 18.0548C124.829 7.6814 109.273 1.40332 92.2514 1.40332C65.5038 1.40332 42.3823 16.9101 31.3832 39.4202H7.18101C3.76113 39.4202 0.988281 42.193 0.988281 45.6129L14.1487 69.1184L0.988281 92.6238C0.988281 96.0437 3.76113 98.8166 7.18101 98.8166H31.3832C42.3894 121.327 65.5109 136.833 92.2585 136.833C119.006 136.833 142.128 121.327 153.127 98.8166H177.329C180.749 98.8166 183.522 96.0437 183.522 92.6238L170.361 69.1184L183.522 45.6129Z" fill="#010101"/>
<path d="M159.88 68.7043C159.88 106.103 129.564 136.419 92.1652 136.419C54.767 136.419 24.4502 106.103 24.4502 68.7043C24.4502 31.306 54.767 0.989258 92.1652 0.989258C129.564 0.989258 159.88 31.306 159.88 68.7043Z" fill="url(#paint0_radial_419_3266)"/>
<path d="M92.1659 130.184C126.12 130.184 153.646 102.659 153.646 68.7043C153.646 34.75 126.12 7.22468 92.1659 7.22468C58.2117 7.22468 30.6863 34.75 30.6863 68.7043C30.6863 102.659 58.2117 130.184 92.1659 130.184Z" fill="url(#paint1_linear_419_3266)"/>
<path d="M92.1669 7.80769C125.747 7.80769 153.064 35.1241 153.064 68.7043C153.064 102.285 125.747 129.601 92.1669 129.601C58.5867 129.601 31.2704 102.285 31.2704 68.7043C31.2704 35.1241 58.5867 7.80769 92.1669 7.80769ZM92.1659 7.22468C58.2089 7.22468 30.6863 34.7472 30.6863 68.7043C30.6863 102.661 58.216 130.184 92.1659 130.184C126.116 130.184 153.646 102.661 153.646 68.7043C153.646 34.7472 126.116 7.22468 92.1659 7.22468Z" fill="url(#paint2_linear_419_3266)"/>
<path d="M53.3243 116.362C60.7827 98.4734 71.6894 82.021 85.568 68.1424C101.551 52.1593 120.947 40.1293 142.021 32.7563C130.851 17.2993 112.692 7.23161 92.1659 7.23161C58.2089 7.23161 30.6863 34.7542 30.6863 68.7112C30.6863 87.9365 39.5097 105.093 53.3315 116.369L53.3243 116.362Z" fill="url(#paint3_radial_419_3266)" style="mix-blend-mode:screen"/>
<path d="M153.794 27.0185C153.794 33.1757 148.803 38.1669 142.645 38.1669C136.488 38.1669 131.497 33.1757 131.497 27.0185C131.497 20.8613 136.488 15.8701 142.645 15.8701C148.803 15.8701 153.794 20.8613 153.794 27.0185Z" fill="url(#paint4_radial_419_3266)"/>
<path d="M148.483 27.0179C148.483 30.2458 145.867 32.8552 142.646 32.8552C139.425 32.8552 136.809 30.2387 136.809 27.0179C136.809 23.7971 139.425 21.1807 142.646 21.1807C145.867 21.1807 148.483 23.7971 148.483 27.0179Z" fill="url(#paint5_linear_419_3266)"/>
<path d="M142.646 21.2375C145.838 21.2375 148.433 23.8327 148.433 27.0179C148.433 30.2032 145.838 32.7983 142.646 32.7983C139.453 32.7983 136.865 30.2032 136.865 27.0179C136.865 23.8327 139.461 21.2375 142.646 21.2375ZM142.646 21.1807C139.418 21.1807 136.809 23.7971 136.809 27.0179C136.809 30.2387 139.425 32.8552 142.646 32.8552C145.867 32.8552 148.483 30.2387 148.483 27.0179C148.483 23.7971 145.867 21.1807 142.646 21.1807Z" fill="url(#paint6_linear_419_3266)"/>
<path d="M138.956 31.547C139.667 29.8477 140.698 28.2835 142.02 26.9682C143.542 25.4466 145.383 24.309 147.381 23.6052C146.322 22.1405 144.594 21.1807 142.646 21.1807C139.418 21.1807 136.809 23.7971 136.809 27.0179C136.809 28.8452 137.648 30.4734 138.963 31.547H138.956Z" fill="url(#paint7_radial_419_3266)" style="mix-blend-mode:screen"/>
<path d="M142.646 32.8562C145.87 32.8562 148.483 30.2428 148.483 27.0189C148.483 23.7951 145.87 21.1817 142.646 21.1817C139.422 21.1817 136.809 23.7951 136.809 27.0189C136.809 30.2428 139.422 32.8562 142.646 32.8562Z" fill="url(#paint8_linear_419_3266)"/>
<path d="M142.646 21.2375C145.838 21.2375 148.426 23.8336 148.426 27.0189C148.426 30.2042 145.831 32.8064 142.646 32.8064C139.461 32.8064 136.865 30.2103 136.865 27.0179C136.865 23.8256 139.461 21.2375 142.646 21.2375ZM142.646 21.1807C139.418 21.1807 136.809 23.7981 136.809 27.0189C136.809 30.2397 139.425 32.8552 142.646 32.8552C145.867 32.8552 148.483 30.2397 148.483 27.0189C148.483 23.7981 145.867 21.1807 142.646 21.1807Z" fill="url(#paint9_linear_419_3266)"/>
<path d="M138.956 31.548C139.667 29.8487 140.698 28.2845 142.02 26.9692C143.542 25.4547 145.383 24.31 147.381 23.6062C146.322 22.1415 144.594 21.1817 142.646 21.1817C139.418 21.1817 136.809 23.7981 136.809 27.0189C136.809 28.8462 137.648 30.4744 138.963 31.548H138.956Z" fill="url(#paint10_radial_419_3266)" style="mix-blend-mode:screen"/>
<path d="M177.229 98.4032H7.08824C3.66836 98.4032 0.895508 95.6303 0.895508 92.2104L14.056 68.7049L0.895508 45.1995C0.895508 41.7796 3.66836 39.0067 7.08824 39.0067H177.229C180.649 39.0067 183.422 41.7796 183.422 45.1995L170.261 68.7049L183.422 92.2104C183.422 95.6303 180.649 98.4032 177.229 98.4032Z" fill="url(#paint11_linear_419_3266)"/>
<path d="M42.5879 66.0814C41.8129 66.0814 41.4219 65.6619 41.4219 64.8158V45.2421C41.4219 44.4032 41.8129 43.9766 42.5879 43.9766H51.8664C52.4992 43.9766 52.812 44.5027 52.812 45.555V46.5361C52.812 47.5884 52.4992 48.1145 51.8664 48.1145H46.3135V52.6933H51.2692C51.8807 52.6933 52.1863 53.2195 52.1863 54.2718V55.2529C52.1863 56.3052 51.8807 56.8313 51.2692 56.8313H46.3135V61.9434H51.8664C52.4992 61.9434 52.812 62.4695 52.812 63.5218V64.503C52.812 65.5552 52.4992 66.0814 51.8664 66.0814H42.5879Z" fill="white"/>
<path d="M54.5818 66.139C53.5722 66.139 53.0674 65.9257 53.0674 65.5062C53.0674 65.3996 53.0888 65.2858 53.1314 65.1579C53.1741 65.0299 53.2238 64.8948 53.2878 64.7455L57.5467 54.5498L53.885 45.2998C53.7784 45.0296 53.7286 44.8163 53.7286 44.667C53.7286 44.4324 53.8424 44.2546 54.0628 44.1124C54.2832 43.9702 54.66 43.9062 55.1861 43.9062H56.729C57.1485 43.9062 57.5183 43.956 57.8311 44.0484C58.1439 44.1409 58.3643 44.3897 58.4923 44.7879L60.6395 51.7343L63.0355 44.539C63.1422 44.2475 63.3484 44.0627 63.6541 44.0058C63.9598 43.9489 64.3438 43.9134 64.8059 43.9134H66.2279C67.1522 43.9134 67.6144 44.1124 67.6144 44.5106C67.6144 44.6599 67.5291 44.923 67.3584 45.2998L63.5403 54.6138L67.5503 64.7455C67.6783 65.0583 67.7423 65.3143 67.7423 65.5062C67.7423 65.9257 67.2446 66.139 66.2564 66.139H64.8344C64.2016 66.139 63.7678 66.0821 63.5403 65.9684C63.3057 65.8546 63.1279 65.6129 63.0071 65.2574L60.5116 57.7137L57.767 65.229C57.6177 65.6058 57.4329 65.8546 57.1983 65.9684C56.9637 66.0821 56.5442 66.139 55.9327 66.139H54.5747H54.5818Z" fill="white"/>
<path d="M70.9635 66.1382C69.698 66.1382 69.0723 65.7899 69.0723 65.1002V45.2421C69.0723 44.4032 69.4633 43.9766 70.2383 43.9766H75.6988C78.0166 43.9766 79.7372 44.5525 80.8606 45.7114C81.984 46.8703 82.5528 48.6051 82.5528 50.923C82.5528 53.2408 81.9911 54.9472 80.8606 56.1132C79.7301 57.2793 78.0166 57.8623 75.6988 57.8623H73.9639V65.0931C73.9639 65.7899 73.3311 66.1311 72.0726 66.1311H70.9706L70.9635 66.1382ZM73.9639 53.7314H75.6988C76.4951 53.7314 77.0496 53.511 77.3554 53.0702C77.6611 52.6294 77.8104 51.9113 77.8104 50.923C77.8104 49.9347 77.6611 49.2166 77.3554 48.7758C77.0496 48.335 76.4951 48.1145 75.6988 48.1145H73.9639V53.7314Z" fill="white"/>
<path d="M85.7022 66.0814C84.9272 66.0814 84.5361 65.6619 84.5361 64.8158V45.2421C84.5361 44.4032 84.9272 43.9766 85.7022 43.9766H94.9807C95.6135 43.9766 95.9263 44.5027 95.9263 45.555V46.5361C95.9263 47.5884 95.6135 48.1145 94.9807 48.1145H89.4278V52.6933H94.3834C94.9948 52.6933 95.3006 53.2195 95.3006 54.2718V55.2529C95.3006 56.3052 94.9948 56.8313 94.3834 56.8313H89.4278V61.9434H94.9807C95.6135 61.9434 95.9263 62.4695 95.9263 63.5218V64.503C95.9263 65.5552 95.6135 66.0814 94.9807 66.0814H85.7022Z" fill="white"/>
<path d="M99.8805 66.1382C98.615 66.1382 97.9893 65.7899 97.9893 65.1002V45.2421C97.9893 44.4032 98.4088 43.9766 99.2548 43.9766H104.623C106.941 43.9766 108.661 44.5382 109.785 45.6687C110.908 46.7992 111.477 48.5483 111.477 50.923C111.477 51.9326 111.306 52.8 110.958 53.5252C110.609 54.2504 110.176 54.8192 109.65 55.2316C109.123 55.644 108.562 55.8715 107.979 55.907V56.035C108.398 56.1843 108.796 56.4616 109.166 56.874C109.536 57.2864 109.792 57.7556 109.941 58.2818L111.868 64.5954C111.953 64.8513 111.996 65.0931 111.996 65.3206C111.996 65.6548 111.861 65.8752 111.605 65.9818C111.342 66.0885 110.844 66.1382 110.105 66.1382H109.003C108.498 66.1382 108.078 66.0743 107.737 65.9463C107.403 65.8183 107.189 65.5908 107.104 65.2495L105.654 59.4122C105.504 58.8008 105.291 58.3955 105.007 58.1822C104.722 57.976 104.274 57.8694 103.663 57.8694H102.902V65.1002C102.902 65.797 102.269 66.1382 101.011 66.1382H99.8805ZM102.881 53.7314H104.616C105.412 53.7314 105.967 53.511 106.272 53.0702C106.578 52.6294 106.727 51.9113 106.727 50.923C106.727 49.9347 106.578 49.2166 106.272 48.7758C105.967 48.335 105.412 48.1145 104.616 48.1145H102.881V53.7314Z" fill="white"/>
<path d="M118.565 66.1382C117.299 66.1382 116.674 65.7899 116.674 65.1002V48.1145H113.14C112.507 48.1145 112.194 47.5884 112.194 46.5361V45.555C112.194 44.5027 112.507 43.9766 113.14 43.9766H125.106C125.739 43.9766 126.052 44.5027 126.052 45.555V46.5361C126.052 47.5884 125.739 48.1145 125.106 48.1145H121.572V65.1002C121.572 65.797 120.94 66.1382 119.681 66.1382H118.565Z" fill="white"/>
<path d="M135.266 66.3307C132.443 66.3307 130.367 65.4136 129.03 63.5863C127.694 61.759 127.025 58.908 127.025 55.033C127.025 51.1581 127.694 48.307 129.03 46.4798C130.367 44.6525 132.443 43.7354 135.266 43.7354C138.088 43.7354 140.193 44.6525 141.53 46.4798C142.866 48.307 143.535 51.1652 143.535 55.033C143.535 58.9008 142.866 61.759 141.53 63.5863C140.193 65.4207 138.103 66.3307 135.266 66.3307ZM135.294 62.1927C136.475 62.1927 137.306 61.6382 137.804 60.5219C138.295 59.4057 138.544 57.5784 138.544 55.0259C138.544 52.4735 138.295 50.6249 137.804 49.5157C137.306 48.4137 136.475 47.8591 135.294 47.8591C134.114 47.8591 133.303 48.4137 132.784 49.5157C132.265 50.6178 132.009 52.4592 132.009 55.0259C132.009 57.5926 132.265 59.4057 132.784 60.5219C133.303 61.6382 134.135 62.1927 135.294 62.1927Z" fill="white"/>
<path d="M75.0518 94.0241C72.2292 94.0241 70.1531 93.1069 68.8164 91.2796C67.4797 89.4524 66.8114 86.6013 66.8114 82.7264C66.8114 78.8515 67.4797 76.0004 68.8164 74.1731C70.1531 72.3459 72.2292 71.4287 75.0518 71.4287C77.8745 71.4287 79.979 72.3459 81.3156 74.1731C82.6523 76.0004 83.3207 78.8586 83.3207 82.7264C83.3207 86.5942 82.6523 89.4524 81.3156 91.2796C79.979 93.114 77.8887 94.0241 75.0518 94.0241ZM75.0803 89.8861C76.2605 89.8861 77.0923 89.3315 77.59 88.2153C78.0806 87.099 78.3295 85.2718 78.3295 82.7193C78.3295 80.1668 78.0806 78.3182 77.59 77.2091C77.0923 76.107 76.2605 75.5525 75.0803 75.5525C73.9 75.5525 73.0895 76.107 72.5705 77.2091C72.0514 78.3111 71.7955 80.1526 71.7955 82.7193C71.7955 85.286 72.0514 87.099 72.5705 88.2153C73.0895 89.3315 73.9214 89.8861 75.0803 89.8861Z" fill="white"/>
<path d="M87.7428 93.8316C86.4773 93.8316 85.8516 93.4832 85.8516 92.7935V72.9355C85.8516 72.0965 86.2711 71.6699 87.1171 71.6699H92.4852C94.803 71.6699 96.5236 72.2316 97.647 73.3621C98.7704 74.4926 99.3392 76.2416 99.3392 78.6163C99.3392 79.6259 99.1686 80.4934 98.8202 81.2186C98.4718 81.9438 98.038 82.5126 97.5119 82.925C96.9857 83.3373 96.4241 83.5648 95.8411 83.6004V83.7284C96.2605 83.8777 96.6587 84.155 97.0285 84.5673C97.3982 84.9797 97.6541 85.449 97.8034 85.9751L99.7302 92.2887C99.8155 92.5447 99.8582 92.7864 99.8582 93.014C99.8582 93.3481 99.7231 93.5685 99.4671 93.6752C99.204 93.7818 98.7064 93.8316 97.9669 93.8316H96.8649C96.3601 93.8316 95.9406 93.7676 95.5993 93.6396C95.2652 93.5117 95.0519 93.2841 94.9666 92.9429L93.5161 87.1056C93.3668 86.4941 93.1535 86.0889 92.8691 85.8756C92.5847 85.6694 92.1368 85.5627 91.5254 85.5627H90.7646V92.7935C90.7646 93.4903 90.1317 93.8316 88.8733 93.8316H87.7428ZM90.7432 81.4248H92.4781C93.2744 81.4248 93.8289 81.2044 94.1347 80.7635C94.4404 80.3227 94.5897 79.6046 94.5897 78.6163C94.5897 77.6281 94.4404 76.9099 94.1347 76.4691C93.8289 76.0283 93.2744 75.8079 92.4781 75.8079H90.7432V81.4248Z" fill="white"/>
<path d="M109.272 94.0241C106.449 94.0241 104.373 93.1069 103.036 91.2796C101.7 89.4524 101.031 86.6013 101.031 82.7264C101.031 78.8515 101.7 76.0004 103.036 74.1731C104.373 72.3459 106.449 71.4287 109.272 71.4287C112.095 71.4287 114.199 72.3459 115.536 74.1731C116.872 76.0004 117.541 78.8586 117.541 82.7264C117.541 86.5942 116.872 89.4524 115.536 91.2796C114.199 93.114 112.109 94.0241 109.272 94.0241ZM109.3 89.8861C110.481 89.8861 111.312 89.3315 111.81 88.2153C112.301 87.099 112.55 85.2718 112.55 82.7193C112.55 80.1668 112.301 78.3182 111.81 77.2091C111.312 76.107 110.481 75.5525 109.3 75.5525C108.12 75.5525 107.31 76.107 106.791 77.2091C106.271 78.3111 106.016 80.1526 106.016 82.7193C106.016 85.286 106.271 87.099 106.791 88.2153C107.31 89.3315 108.141 89.8861 109.3 89.8861Z" fill="white"/>
<defs>
<radialGradient id="paint0_radial_419_3266" cx="0" cy="0" r="1" gradientUnits="userSpaceOnUse" gradientTransform="translate(31.0008 -20.7124) scale(0.479384 0.356584)">
<stop stop-color="#DEDEDE"/>
<stop offset="0.26" stop-color="#BFBEBF"/>
<stop offset="0.76" stop-color="#7E7F7F"/>
<stop offset="1" stop-color="white"/>
</radialGradient>
<linearGradient id="paint1_linear_419_3266" x1="21.2659" y1="16.1494" x2="146.767" y2="184.871" gradientUnits="userSpaceOnUse">
<stop stop-color="#EFBE48"/>
<stop offset="0.12" stop-color="#F8DB77"/>
<stop offset="0.21" stop-color="#FFEE97"/>
<stop offset="0.45" stop-color="#A2631F"/>
<stop offset="0.67" stop-color="#EFA64C"/>
<stop offset="1" stop-color="#EFBE48"/>
</linearGradient>
<linearGradient id="paint2_linear_419_3266" x1="27.6336" y1="20.8859" x2="119.634" y2="144.57" gradientUnits="userSpaceOnUse">
<stop stop-color="#EFBE48"/>
<stop offset="0.12" stop-color="#F8DB77"/>
<stop offset="0.21" stop-color="#FFEE97"/>
<stop offset="0.45" stop-color="#A2631F"/>
<stop offset="0.67" stop-color="#EFA64C"/>
<stop offset="1" stop-color="#EFBE48"/>
</linearGradient>
<radialGradient id="paint3_radial_419_3266" cx="0" cy="0" r="1" gradientUnits="userSpaceOnUse" gradientTransform="translate(147.612 82.6551) scale(258.13 195.872)">
<stop stop-color="#FDC84E"/>
<stop offset="0.14" stop-color="#A2631F"/>
<stop offset="0.16" stop-color="#965C1C"/>
<stop offset="0.25" stop-color="#6F4415"/>
<stop offset="0.34" stop-color="#4D2F0F"/>
<stop offset="0.44" stop-color="#311E0A"/>
<stop offset="0.55" stop-color="#1B1106"/>
<stop offset="0.66" stop-color="#0C0803"/>
<stop offset="0.8" stop-color="#030201"/>
<stop offset="1" stop-color="#010101"/>
</radialGradient>
<radialGradient id="paint4_radial_419_3266" cx="0" cy="0" r="1" gradientUnits="userSpaceOnUse" gradientTransform="translate(31.0032 13.8113) scale(166.32 123.715)">
<stop stop-color="#DEDEDE"/>
<stop offset="0.26" stop-color="#BFBEBF"/>
<stop offset="0.76" stop-color="#7E7F7F"/>
<stop offset="1" stop-color="white"/>
</radialGradient>
<linearGradient id="paint5_linear_419_3266" x1="21.2491" y1="16.129" x2="146.838" y2="184.968" gradientUnits="userSpaceOnUse">
<stop stop-color="#D5D5D5"/>
<stop offset="0.05" stop-color="#E0E0E0"/>
<stop offset="0.21" stop-color="white"/>
<stop offset="0.45" stop-color="#272727"/>
<stop offset="0.67" stop-color="#B7B7B7"/>
<stop offset="1" stop-color="#D5D5D5"/>
</linearGradient>
<linearGradient id="paint6_linear_419_3266" x1="27.5887" y1="20.8447" x2="119.661" y2="144.625" gradientUnits="userSpaceOnUse">
<stop stop-color="#D5D5D5"/>
<stop offset="0.05" stop-color="#E0E0E0"/>
<stop offset="0.21" stop-color="white"/>
<stop offset="0.45" stop-color="#272727"/>
<stop offset="0.67" stop-color="#B7B7B7"/>
<stop offset="1" stop-color="#D5D5D5"/>
</linearGradient>
<radialGradient id="paint7_radial_419_3266" cx="0" cy="0" r="1" gradientUnits="userSpaceOnUse" gradientTransform="translate(147.66 82.6076) scale(258.157 195.847)">
<stop stop-color="#CBCBCB"/>
<stop offset="0.14" stop-color="#6E6E6E"/>
<stop offset="0.24" stop-color="#4C4C4C"/>
<stop offset="0.36" stop-color="#313131"/>
<stop offset="0.48" stop-color="#1B1B1B"/>
<stop offset="0.61" stop-color="#0C0C0C"/>
<stop offset="0.77" stop-color="#030303"/>
<stop offset="1" stop-color="#010101"/>
</radialGradient>
<linearGradient id="paint8_linear_419_3266" x1="21.2491" y1="16.129" x2="146.838" y2="184.968" gradientUnits="userSpaceOnUse">
<stop stop-color="#EFBE48"/>
<stop offset="0.12" stop-color="#F8DB77"/>
<stop offset="0.21" stop-color="#FFEE97"/>
<stop offset="0.45" stop-color="#A2631F"/>
<stop offset="0.67" stop-color="#EFA64C"/>
<stop offset="1" stop-color="#EFBE48"/>
</linearGradient>
<linearGradient id="paint9_linear_419_3266" x1="27.5887" y1="20.8447" x2="119.661" y2="144.625" gradientUnits="userSpaceOnUse">
<stop stop-color="#EFBE48"/>
<stop offset="0.12" stop-color="#F8DB77"/>
<stop offset="0.21" stop-color="#FFEE97"/>
<stop offset="0.45" stop-color="#A2631F"/>
<stop offset="0.67" stop-color="#EFA64C"/>
<stop offset="1" stop-color="#EFBE48"/>
</linearGradient>
<radialGradient id="paint10_radial_419_3266" cx="0" cy="0" r="1" gradientUnits="userSpaceOnUse" gradientTransform="translate(147.66 82.6076) scale(258.157 195.847)">
<stop stop-color="#FDC84E"/>
<stop offset="0.14" stop-color="#A2631F"/>
<stop offset="0.16" stop-color="#965C1C"/>
<stop offset="0.25" stop-color="#6F4415"/>
<stop offset="0.34" stop-color="#4D2F0F"/>
<stop offset="0.44" stop-color="#311E0A"/>
<stop offset="0.55" stop-color="#1B1106"/>
<stop offset="0.66" stop-color="#0C0803"/>
<stop offset="0.8" stop-color="#030201"/>
<stop offset="1" stop-color="#010101"/>
</radialGradient>
<linearGradient id="paint11_linear_419_3266" x1="93.1192" y1="305.899" x2="82.5664" y2="-221.192" gradientUnits="userSpaceOnUse">
<stop stop-color="#EFBE48"/>
<stop offset="0.12" stop-color="#F8DB77"/>
<stop offset="0.21" stop-color="#FFEE97"/>
<stop offset="0.45" stop-color="#A2631F"/>
<stop offset="0.67" stop-color="#EFA64C"/>
<stop offset="1" stop-color="#EFBE48"/>
</linearGradient>
</defs>
</svg>
