<svg width="184" height="137" viewBox="0 0 184 137" fill="none" xmlns="http://www.w3.org/2000/svg">
<path d="M177.377 39.4204H153.175C152.478 37.9984 151.739 36.5978 150.942 35.2327C152.883 33.2063 154.078 30.4548 154.078 27.426C154.078 21.1906 149.023 16.1425 142.794 16.1425C140.533 16.1425 138.429 16.8108 136.666 17.9555C124.785 7.63901 109.271 1.39648 92.2996 1.39648C65.552 1.39648 42.4305 16.9033 31.4243 39.4204H7.22207C3.80219 39.4204 1.0293 42.1933 1.0293 45.6132L14.1898 69.1186L1.0293 92.6241C1.0293 96.044 3.80219 98.8169 7.22207 98.8169H31.4243C42.4305 121.327 65.552 136.834 92.2924 136.834C119.033 136.834 142.162 121.327 153.161 98.8169H177.363C180.783 98.8169 183.556 96.044 183.556 92.6241L170.395 69.1186L183.556 45.6132C183.556 42.1933 180.783 39.4204 177.363 39.4204H177.377Z" fill="#010101"/>
<path d="M159.929 68.7043C159.929 106.103 129.612 136.419 92.2138 136.419C54.8156 136.419 24.4988 106.103 24.4988 68.7043C24.4988 31.306 54.8156 0.989258 92.2138 0.989258C129.612 0.989258 159.929 31.306 159.929 68.7043Z" fill="url(#paint0_radial_419_3265)"/>
<path d="M153.694 68.7042C153.694 102.661 126.164 130.184 92.2139 130.184C58.264 130.184 30.7343 102.661 30.7343 68.7042C30.7343 34.7471 58.264 7.22452 92.2139 7.22452C126.164 7.22452 153.694 34.7471 153.694 68.7042Z" fill="url(#paint1_linear_419_3265)"/>
<path d="M92.2139 7.8077C125.794 7.8077 153.111 35.1241 153.111 68.7043C153.111 102.285 125.794 129.601 92.2139 129.601C58.6337 129.601 31.3173 102.285 31.3173 68.7043C31.3173 35.1241 58.6337 7.8077 92.2139 7.8077ZM92.2139 7.21758C58.2569 7.21758 30.7343 34.7402 30.7343 68.6972C30.7343 102.654 58.264 130.177 92.2139 130.177C126.164 130.177 153.694 102.654 153.694 68.6972C153.694 34.7402 126.164 7.21758 92.2139 7.21758Z" fill="url(#paint2_linear_419_3265)"/>
<path d="M53.3793 116.362C60.8376 98.4735 71.7442 82.0211 85.6228 68.1425C101.606 52.1593 121.002 40.1293 142.076 32.7492C130.906 17.2993 112.747 7.22452 92.2209 7.22452C58.2638 7.22452 30.7412 34.7471 30.7412 68.7042C30.7412 87.9223 39.5647 105.086 53.3864 116.362H53.3793Z" fill="url(#paint3_radial_419_3265)" style="mix-blend-mode:screen"/>
<path d="M153.992 27.0188C153.992 33.2542 148.937 38.3023 142.709 38.3023C136.481 38.3023 131.426 33.2471 131.426 27.0188C131.426 20.7905 136.481 15.7354 142.709 15.7354C148.937 15.7354 153.992 20.7905 153.992 27.0188Z" fill="url(#paint4_radial_419_3265)"/>
<path d="M148.617 27.0187C148.617 30.2822 145.972 32.9271 142.709 32.9271C139.445 32.9271 136.801 30.2822 136.801 27.0187C136.801 23.7552 139.445 21.1104 142.709 21.1104C145.972 21.1104 148.617 23.7552 148.617 27.0187Z" fill="url(#paint5_linear_419_3265)"/>
<path d="M142.709 21.1672C145.937 21.1672 148.56 23.7908 148.56 27.0187C148.56 30.2466 145.937 32.8702 142.709 32.8702C139.481 32.8702 136.857 30.2466 136.857 27.0187C136.857 23.7908 139.481 21.1672 142.709 21.1672ZM142.709 21.1104C139.445 21.1104 136.801 23.7552 136.801 27.0187C136.801 30.2822 139.445 32.9271 142.709 32.9271C145.972 32.9271 148.617 30.2822 148.617 27.0187C148.617 23.7552 145.972 21.1104 142.709 21.1104Z" fill="url(#paint6_linear_419_3265)"/>
<path d="M138.976 31.6046C139.694 29.884 140.739 28.3056 142.076 26.9689C143.612 25.4332 145.475 24.2743 147.501 23.5633C146.427 22.0773 144.678 21.1104 142.709 21.1104C139.445 21.1104 136.801 23.7552 136.801 27.0187C136.801 28.8673 137.647 30.5168 138.976 31.5975V31.6046Z" fill="url(#paint7_radial_419_3265)" style="mix-blend-mode:screen"/>
<path d="M177.285 98.4032H7.1439C3.72402 98.4032 0.951172 95.6303 0.951172 92.2104L14.1117 68.7049L0.951172 45.1995C0.951172 41.7796 3.72402 39.0067 7.1439 39.0067H177.285C180.705 39.0067 183.477 41.7796 183.477 45.1995L170.317 68.7049L183.477 92.2104C183.477 95.6303 180.705 98.4032 177.285 98.4032Z" fill="url(#paint8_linear_419_3265)"/>
<path d="M42.6435 66.0814C41.8686 66.0814 41.4775 65.6619 41.4775 64.8158V45.2421C41.4775 44.4032 41.8686 43.9766 42.6435 43.9766H51.922C52.5548 43.9766 52.8676 44.5027 52.8676 45.555V46.5361C52.8676 47.5884 52.5548 48.1145 51.922 48.1145H46.3692V52.6933H51.3248C51.9362 52.6933 52.242 53.2195 52.242 54.2718V55.2529C52.242 56.3052 51.9362 56.8313 51.3248 56.8313H46.3692V61.9434H51.922C52.5548 61.9434 52.8676 62.4695 52.8676 63.5218V64.503C52.8676 65.5552 52.5548 66.0814 51.922 66.0814H42.6435Z" fill="white"/>
<path d="M54.6375 66.139C53.6279 66.139 53.123 65.9257 53.123 65.5062C53.123 65.3996 53.1444 65.2858 53.187 65.1579C53.2297 65.0299 53.2795 64.8948 53.3435 64.7455L57.6023 54.5498L53.9407 45.2998C53.834 45.0296 53.7843 44.8163 53.7843 44.667C53.7843 44.4324 53.898 44.2546 54.1184 44.1124C54.3388 43.9702 54.7157 43.9062 55.2418 43.9062H56.7846C57.2041 43.9062 57.5738 43.956 57.8867 44.0484C58.1995 44.1409 58.42 44.3897 58.5479 44.7879L60.6951 51.7343L63.0912 44.539C63.1978 44.2475 63.404 44.0627 63.7097 44.0058C64.0154 43.9489 64.3994 43.9134 64.8615 43.9134H66.2835C67.2078 43.9134 67.67 44.1124 67.67 44.5106C67.67 44.6599 67.5846 44.923 67.414 45.2998L63.596 54.6138L67.606 64.7455C67.734 65.0583 67.7979 65.3143 67.7979 65.5062C67.7979 65.9257 67.3003 66.139 66.312 66.139H64.89C64.2572 66.139 63.8235 66.0821 63.596 65.9684C63.3613 65.8546 63.1836 65.6129 63.0627 65.2574L60.5671 57.7137L57.8227 65.229C57.6734 65.6058 57.4885 65.8546 57.2539 65.9684C57.0193 66.0821 56.5998 66.139 55.9883 66.139H54.6304H54.6375Z" fill="white"/>
<path d="M71.0192 66.1382C69.7536 66.1382 69.1279 65.7899 69.1279 65.1002V45.2421C69.1279 44.4032 69.519 43.9766 70.294 43.9766H75.7544C78.0722 43.9766 79.7929 44.5525 80.9162 45.7114C82.0396 46.8703 82.6084 48.6051 82.6084 50.923C82.6084 53.2408 82.0467 54.9472 80.9162 56.1132C79.7857 57.2793 78.0722 57.8623 75.7544 57.8623H74.0196V65.0931C74.0196 65.7899 73.3868 66.1311 72.1283 66.1311H71.0263L71.0192 66.1382ZM74.0196 53.7314H75.7544C76.5507 53.7314 77.1053 53.511 77.411 53.0702C77.7168 52.6294 77.8661 51.9113 77.8661 50.923C77.8661 49.9347 77.7168 49.2166 77.411 48.7758C77.1053 48.335 76.5507 48.1145 75.7544 48.1145H74.0196V53.7314Z" fill="white"/>
<path d="M85.7578 66.0814C84.9829 66.0814 84.5918 65.6619 84.5918 64.8158V45.2421C84.5918 44.4032 84.9829 43.9766 85.7578 43.9766H95.0363C95.6691 43.9766 95.9819 44.5027 95.9819 45.555V46.5361C95.9819 47.5884 95.6691 48.1145 95.0363 48.1145H89.4834V52.6933H94.4391C95.0505 52.6933 95.3563 53.2195 95.3563 54.2718V55.2529C95.3563 56.3052 95.0505 56.8313 94.4391 56.8313H89.4834V61.9434H95.0363C95.6691 61.9434 95.9819 62.4695 95.9819 63.5218V64.503C95.9819 65.5552 95.6691 66.0814 95.0363 66.0814H85.7578Z" fill="white"/>
<path d="M99.9352 66.1382C98.6696 66.1382 98.0439 65.7899 98.0439 65.1002V45.2421C98.0439 44.4032 98.4634 43.9766 99.3095 43.9766H104.677C106.995 43.9766 108.716 44.5382 109.839 45.6687C110.963 46.7992 111.531 48.5483 111.531 50.923C111.531 51.9326 111.361 52.8 111.012 53.5252C110.664 54.2504 110.23 54.8192 109.704 55.2316C109.178 55.644 108.616 55.8715 108.033 55.907V56.035C108.453 56.1843 108.851 56.4616 109.221 56.874C109.59 57.2864 109.846 57.7556 109.996 58.2818L111.923 64.5954C112.008 64.8513 112.051 65.0931 112.051 65.3206C112.051 65.6548 111.915 65.8752 111.659 65.9818C111.396 66.0885 110.899 66.1382 110.159 66.1382H109.057C108.552 66.1382 108.133 66.0743 107.792 65.9463C107.457 65.8183 107.244 65.5908 107.159 65.2495L105.708 59.4122C105.559 58.8008 105.346 58.3955 105.061 58.1822C104.777 57.976 104.329 57.8694 103.718 57.8694H102.957V65.1002C102.957 65.797 102.324 66.1382 101.066 66.1382H99.9352ZM102.936 53.7314H104.67C105.467 53.7314 106.021 53.511 106.327 53.0702C106.633 52.6294 106.782 51.9113 106.782 50.923C106.782 49.9347 106.633 49.2166 106.327 48.7758C106.021 48.335 105.467 48.1145 104.67 48.1145H102.936V53.7314Z" fill="white"/>
<path d="M118.621 66.1382C117.355 66.1382 116.729 65.7899 116.729 65.1002V48.1145H113.196C112.563 48.1145 112.25 47.5884 112.25 46.5361V45.555C112.25 44.5027 112.563 43.9766 113.196 43.9766H125.162C125.794 43.9766 126.107 44.5027 126.107 45.555V46.5361C126.107 47.5884 125.794 48.1145 125.162 48.1145H121.628V65.1002C121.628 65.797 120.995 66.1382 119.737 66.1382H118.621Z" fill="white"/>
<path d="M135.321 66.3307C132.499 66.3307 130.423 65.4136 129.086 63.5863C127.749 61.759 127.081 58.908 127.081 55.033C127.081 51.1581 127.749 48.307 129.086 46.4798C130.423 44.6525 132.499 43.7354 135.321 43.7354C138.144 43.7354 140.249 44.6525 141.585 46.4798C142.922 48.307 143.59 51.1652 143.59 55.033C143.59 58.9008 142.922 61.759 141.585 63.5863C140.249 65.4207 138.158 66.3307 135.321 66.3307ZM135.35 62.1927C136.53 62.1927 137.362 61.6382 137.86 60.5219C138.35 59.4057 138.599 57.5784 138.599 55.0259C138.599 52.4735 138.35 50.6249 137.86 49.5157C137.362 48.4137 136.53 47.8591 135.35 47.8591C134.17 47.8591 133.359 48.4137 132.84 49.5157C132.321 50.6178 132.065 52.4592 132.065 55.0259C132.065 57.5926 132.321 59.4057 132.84 60.5219C133.359 61.6382 134.191 62.1927 135.35 62.1927Z" fill="white"/>
<path d="M59.4518 93.8316C58.1862 93.8316 57.5605 93.4832 57.5605 92.7935V72.9355C57.5605 72.0965 57.9516 71.6699 58.7266 71.6699H64.187C66.5049 71.6699 68.2254 72.2458 69.3488 73.4047C70.4722 74.5637 71.041 76.2985 71.041 78.6163C71.041 80.9342 70.4793 82.6406 69.3488 83.8066C68.2183 84.9726 66.5049 85.5556 64.187 85.5556H62.4522V92.7864C62.4522 93.4832 61.8194 93.8245 60.5609 93.8245H59.4589L59.4518 93.8316ZM62.4522 81.4248H64.187C64.9833 81.4248 65.5379 81.2044 65.8436 80.7635C66.1493 80.3227 66.2986 79.6046 66.2986 78.6163C66.2986 77.6281 66.1493 76.9099 65.8436 76.4691C65.5379 76.0283 64.9833 75.8079 64.187 75.8079H62.4522V81.4248Z" fill="white"/>
<path d="M74.1905 93.7683C73.4155 93.7683 73.0244 93.3488 73.0244 92.5027V72.6447C73.0244 71.9479 73.6572 71.5995 74.9156 71.5995H76.0177C77.2832 71.5995 77.9089 71.9479 77.9089 72.6447V89.6232H82.5162C83.149 89.6232 83.4618 90.1493 83.4618 91.2016V92.1828C83.4618 93.235 83.149 93.7612 82.5162 93.7612H74.1833L74.1905 93.7683Z" fill="white"/>
<path d="M84.8909 93.8321C84.4075 93.8321 84.0591 93.761 83.8529 93.6117C83.6396 93.4624 83.54 93.2846 83.54 93.0785C83.54 92.9931 83.5401 92.9078 83.5543 92.8083C83.5685 92.7159 83.604 92.531 83.668 92.2537L88.2113 72.808C88.3179 72.3459 88.5383 72.033 88.8725 71.8624C89.2067 71.6918 89.6475 71.6064 90.202 71.6064H92.5697C93.1598 71.6064 93.6148 71.6918 93.9419 71.8624C94.2689 72.033 94.4822 72.3459 94.5889 72.808L99.1321 92.2537C99.1961 92.5239 99.2317 92.7087 99.2459 92.8083C99.253 92.9007 99.2601 92.9931 99.2601 93.0785C99.2601 93.2918 99.1535 93.4695 98.9473 93.6117C98.734 93.761 98.3856 93.8321 97.9092 93.8321H96.2384C95.7976 93.8321 95.4208 93.7823 95.1008 93.6757C94.788 93.569 94.596 93.3486 94.532 93.0145L93.8352 89.3244H88.972L88.2753 93.0145C88.2113 93.3486 88.0193 93.569 87.7065 93.6757C87.3936 93.7823 87.0239 93.8321 86.6044 93.8321H84.8909ZM90.8917 78.7733L89.6617 85.4637H93.0674L91.8018 78.7733C91.7165 78.3751 91.6454 77.977 91.5814 77.5717C91.5174 77.1664 91.4676 76.7754 91.425 76.3701H91.2685C91.2259 76.7683 91.1761 77.1664 91.1121 77.5717C91.0482 77.977 90.9771 78.368 90.8917 78.7733Z" fill="white"/>
<path d="M105.502 93.8316C104.237 93.8316 103.611 93.4832 103.611 92.7935V75.8079H100.077C99.4447 75.8079 99.1318 75.2818 99.1318 74.2295V73.2483C99.1318 72.1961 99.4447 71.6699 100.077 71.6699H112.044C112.676 71.6699 112.989 72.1961 112.989 73.2483V74.2295C112.989 75.2818 112.676 75.8079 112.044 75.8079H108.51V92.7935C108.51 93.4903 107.877 93.8316 106.619 93.8316H105.502Z" fill="white"/>
<path d="M114.219 93.8321C113.736 93.8321 113.387 93.761 113.181 93.6117C112.968 93.4624 112.868 93.2846 112.868 93.0785C112.868 92.9931 112.868 92.9078 112.882 92.8083C112.897 92.7159 112.932 92.531 112.996 92.2537L117.539 72.808C117.646 72.3459 117.866 72.033 118.201 71.8624C118.535 71.6918 118.976 71.6064 119.53 71.6064H121.898C122.488 71.6064 122.943 71.6918 123.27 71.8624C123.597 72.033 123.81 72.3459 123.917 72.808L128.46 92.2537C128.524 92.5239 128.56 92.7087 128.574 92.8083C128.581 92.9007 128.588 92.9931 128.588 93.0785C128.588 93.2918 128.482 93.4695 128.275 93.6117C128.062 93.761 127.714 93.8321 127.237 93.8321H125.567C125.126 93.8321 124.749 93.7823 124.429 93.6757C124.116 93.569 123.924 93.3486 123.86 93.0145L123.163 89.3244H118.3L117.603 93.0145C117.539 93.3486 117.347 93.569 117.035 93.6757C116.722 93.7823 116.352 93.8321 115.933 93.8321H114.219ZM120.22 78.7733L118.99 85.4637H122.396L121.13 78.7733C121.045 78.3751 120.973 77.977 120.91 77.5717C120.846 77.1664 120.796 76.7754 120.753 76.3701H120.597C120.554 76.7683 120.504 77.1664 120.44 77.5717C120.376 77.977 120.305 78.368 120.22 78.7733Z" fill="white"/>
<defs>
<radialGradient id="paint0_radial_419_3265" cx="0" cy="0" r="1" gradientUnits="userSpaceOnUse" gradientTransform="translate(31.0529 13.812) scale(166.259 123.685)">
<stop stop-color="#DEDEDE"/>
<stop offset="0.26" stop-color="#BFBEBF"/>
<stop offset="0.76" stop-color="#7E7F7F"/>
<stop offset="1" stop-color="white"/>
</radialGradient>
<linearGradient id="paint1_linear_419_3265" x1="21.3297" y1="16.1494" x2="146.836" y2="184.857" gradientUnits="userSpaceOnUse">
<stop stop-color="#D5D5D5"/>
<stop offset="0.05" stop-color="#E0E0E0"/>
<stop offset="0.21" stop-color="white"/>
<stop offset="0.45" stop-color="#272727"/>
<stop offset="0.67" stop-color="#B7B7B7"/>
<stop offset="1" stop-color="#D5D5D5"/>
</linearGradient>
<linearGradient id="paint2_linear_419_3265" x1="27.6967" y1="20.886" x2="119.701" y2="144.559" gradientUnits="userSpaceOnUse">
<stop stop-color="#D5D5D5"/>
<stop offset="0.05" stop-color="#E0E0E0"/>
<stop offset="0.21" stop-color="white"/>
<stop offset="0.45" stop-color="#272727"/>
<stop offset="0.67" stop-color="#B7B7B7"/>
<stop offset="1" stop-color="#D5D5D5"/>
</linearGradient>
<radialGradient id="paint3_radial_419_3265" cx="0" cy="0" r="1" gradientUnits="userSpaceOnUse" gradientTransform="translate(147.639 82.6641) scale(258.1 195.873)">
<stop stop-color="#CBCBCB"/>
<stop offset="0.14" stop-color="#6E6E6E"/>
<stop offset="0.24" stop-color="#4C4C4C"/>
<stop offset="0.36" stop-color="#313131"/>
<stop offset="0.48" stop-color="#1B1B1B"/>
<stop offset="0.61" stop-color="#0C0C0C"/>
<stop offset="0.77" stop-color="#030303"/>
<stop offset="1" stop-color="#010101"/>
</radialGradient>
<radialGradient id="paint4_radial_419_3265" cx="0" cy="0" r="1" gradientUnits="userSpaceOnUse" gradientTransform="translate(31.0401 13.7862) scale(166.323 123.732)">
<stop stop-color="#DEDEDE"/>
<stop offset="0.26" stop-color="#BFBEBF"/>
<stop offset="0.76" stop-color="#7E7F7F"/>
<stop offset="1" stop-color="white"/>
</radialGradient>
<linearGradient id="paint5_linear_419_3265" x1="21.2772" y1="16.1103" x2="146.847" y2="184.903" gradientUnits="userSpaceOnUse">
<stop stop-color="#D5D5D5"/>
<stop offset="0.05" stop-color="#E0E0E0"/>
<stop offset="0.21" stop-color="white"/>
<stop offset="0.45" stop-color="#272727"/>
<stop offset="0.67" stop-color="#B7B7B7"/>
<stop offset="1" stop-color="#D5D5D5"/>
</linearGradient>
<linearGradient id="paint6_linear_419_3265" x1="27.6497" y1="20.851" x2="119.713" y2="144.604" gradientUnits="userSpaceOnUse">
<stop stop-color="#D5D5D5"/>
<stop offset="0.05" stop-color="#E0E0E0"/>
<stop offset="0.21" stop-color="white"/>
<stop offset="0.45" stop-color="#272727"/>
<stop offset="0.67" stop-color="#B7B7B7"/>
<stop offset="1" stop-color="#D5D5D5"/>
</linearGradient>
<radialGradient id="paint7_radial_419_3265" cx="0" cy="0" r="1" gradientUnits="userSpaceOnUse" gradientTransform="translate(147.641 82.6248) scale(258.194 195.852)">
<stop stop-color="#CBCBCB"/>
<stop offset="0.14" stop-color="#6E6E6E"/>
<stop offset="0.24" stop-color="#4C4C4C"/>
<stop offset="0.36" stop-color="#313131"/>
<stop offset="0.48" stop-color="#1B1B1B"/>
<stop offset="0.61" stop-color="#0C0C0C"/>
<stop offset="0.77" stop-color="#030303"/>
<stop offset="1" stop-color="#010101"/>
</radialGradient>
<linearGradient id="paint8_linear_419_3265" x1="93.2492" y1="388.261" x2="81.579" y2="-326.239" gradientUnits="userSpaceOnUse">
<stop stop-color="#D5D5D5"/>
<stop offset="0.05" stop-color="#E0E0E0"/>
<stop offset="0.21" stop-color="white"/>
<stop offset="0.45" stop-color="#272727"/>
<stop offset="0.67" stop-color="#B7B7B7"/>
<stop offset="1" stop-color="#D5D5D5"/>
</linearGradient>
</defs>
</svg>
