<svg width="201" height="84" viewBox="0 0 201 84" fill="none" xmlns="http://www.w3.org/2000/svg">
<path d="M17.3259 82.9252C17.0273 82.9252 16.7926 82.6906 16.6078 82.2071C16.43 81.7307 16.302 81.1762 16.2309 80.5505C16.1527 79.9248 16.1172 79.4058 16.1172 78.9863C16.1172 78.6592 16.1883 78.3891 16.3447 78.1829L26.0071 64.1336C26.6328 63.2378 27.0807 62.4344 27.3509 61.7163C27.6211 60.9982 27.7562 60.3156 27.7562 59.6615C27.7562 58.5879 27.4362 57.7987 26.7963 57.2939C26.1564 56.7891 25.3743 56.5331 24.45 56.5331C23.5257 56.5331 22.6299 56.6753 21.8549 56.9597C21.0799 57.2441 20.4045 57.5285 19.8428 57.8129C19.274 58.0973 18.8119 58.2395 18.4564 58.2395C18.1577 58.2395 17.852 58.0475 17.5392 57.6565C17.2263 57.2725 16.9704 56.7962 16.7784 56.2487C16.5864 55.6941 16.4869 55.1538 16.4869 54.6134C16.4869 54.0446 16.9419 53.5114 17.852 53.0066C18.7621 52.5018 19.8855 52.0823 21.2292 51.7552C22.573 51.4282 23.9097 51.2646 25.2535 51.2646C28.2965 51.2646 30.593 52.0325 32.143 53.5683C33.693 55.104 34.4679 57.0664 34.4679 59.4482C34.4679 60.6995 34.2546 61.8869 33.8209 63.0032C33.3872 64.1194 32.8113 65.2144 32.1003 66.288L24.3647 77.6923H33.3588C34.2546 77.6923 34.7026 78.4388 34.7026 79.9319V80.6927C34.7026 82.1858 34.2546 82.9323 33.3588 82.9323H17.3401L17.3259 82.9252Z" fill="#010101"/>
<path d="M49.7188 83.0182C47.9271 83.0182 47.0313 82.5419 47.0313 81.5892V76.5766H37.5466C37.2764 76.5766 37.0418 76.3136 36.8285 75.7945C36.6223 75.2755 36.4588 74.6783 36.3379 74.0028C36.217 73.3345 36.1602 72.8013 36.1602 72.4173C36.1602 72.2111 36.1886 72.0476 36.2526 71.9267L45.8723 52.6019C46.107 52.0971 46.4767 51.7914 46.9673 51.6848C47.4579 51.5781 48.0338 51.5283 48.6879 51.5283H50.9702C52.7619 51.5283 53.6506 52.0047 53.6506 52.9574V71.3437H54.8593C55.7551 71.3437 56.2031 72.0903 56.2031 73.5834V74.3441C56.2031 75.8372 55.7551 76.5837 54.8593 76.5837H53.6506V81.5962C53.6506 82.549 52.7547 83.0253 50.9702 83.0253H49.7188V83.0182ZM47.4365 61.1836L47.209 61.141L42.1965 71.3437H46.9815V67.3195C46.9815 65.4994 47.1308 63.4588 47.4294 61.1907L47.4365 61.1836Z" fill="#010101"/>
<path d="M60.7605 83.0178C58.9688 83.0178 58.0801 82.5415 58.0801 81.5888V77.4721C58.0801 76.5193 58.9759 76.043 60.7605 76.043H62.1896C63.9813 76.043 64.8772 76.5193 64.8772 77.4721V81.5888C64.8772 82.5415 63.9813 83.0178 62.1896 83.0178H60.7605Z" fill="#010101"/>
<path d="M75.9328 51.4355C77.0349 51.4355 78.1298 51.6417 79.2176 52.0612C80.3054 52.4807 81.3008 53.1419 82.1896 54.052C83.0854 54.9621 83.8035 56.1636 84.3368 57.6496C84.87 59.1427 85.1402 60.9629 85.1402 63.1101C85.1402 65.9754 84.806 68.4638 84.1306 70.5826C83.4623 72.7014 82.5877 74.5002 81.5141 75.972C80.4405 77.4508 79.2958 78.6737 78.0943 79.6407C76.8856 80.6076 75.7409 81.3542 74.653 81.8803C73.5652 82.3993 72.648 82.769 71.9015 82.9752C71.155 83.1814 70.7355 83.2881 70.6502 83.2881C70.1454 83.2881 69.7259 83.0108 69.3988 82.4633C69.0717 81.9088 68.8229 81.3115 68.6594 80.6503C68.4958 79.9962 68.4105 79.5198 68.4105 79.2212C68.4105 78.8941 68.4461 78.6666 68.5243 78.5529C68.5954 78.432 68.7518 78.3467 68.9935 78.2827C71.3185 77.6001 73.1457 76.5479 74.4753 75.1259C75.8049 73.711 76.7647 72.0615 77.3619 70.1845C76.7931 70.4831 76.2528 70.6822 75.7267 70.7888C75.2076 70.8955 74.7028 70.9452 74.2265 70.9452C73.5084 70.9452 72.7263 70.7888 71.8802 70.476C71.0341 70.1631 70.2164 69.6512 69.4415 68.9331C68.6665 68.215 68.0266 67.2481 67.5147 66.0252C67.0099 64.8022 66.7539 63.2807 66.7539 61.4606C66.7539 59.0432 67.209 57.1022 68.119 55.6233C69.0291 54.1444 70.1951 53.078 71.61 52.4238C73.0249 51.7697 74.4682 51.4427 75.9257 51.4427L75.9328 51.4355ZM78.3929 62.5768C78.3929 60.3727 78.144 58.837 77.6534 57.9696C77.1629 57.1022 76.5727 56.6685 75.8831 56.6685C75.1365 56.6685 74.5393 57.0809 74.0914 57.8985C73.6434 58.7161 73.423 59.8466 73.423 61.2757C73.423 62.7048 73.6577 63.7286 74.1411 64.5179C74.6175 65.3071 75.2858 65.7052 76.1532 65.7052C76.8358 65.7052 77.5539 65.499 78.3004 65.0795C78.3573 64.2761 78.3929 63.4371 78.3929 62.5768Z" fill="#010101"/>
<path d="M96.9573 51.4355C98.0593 51.4355 99.1542 51.6417 100.242 52.0612C101.33 52.4807 102.325 53.1419 103.214 54.052C104.11 54.9621 104.828 56.1636 105.361 57.6496C105.894 59.1427 106.165 60.9629 106.165 63.1101C106.165 65.9754 105.83 68.4638 105.155 70.5826C104.487 72.7014 103.612 74.5002 102.539 75.972C101.465 77.4508 100.32 78.6737 99.1187 79.6407C97.91 80.6076 96.7653 81.3542 95.6775 81.8803C94.5896 82.3993 93.6725 82.769 92.9259 82.9752C92.1794 83.1814 91.7599 83.2881 91.6746 83.2881C91.1698 83.2881 90.7503 83.0108 90.4232 82.4633C90.0962 81.9088 89.8473 81.3115 89.6838 80.6503C89.5202 79.9962 89.4349 79.5198 89.4349 79.2212C89.4349 78.8941 89.4705 78.6666 89.5487 78.5529C89.6198 78.432 89.7762 78.3467 90.0179 78.2827C92.3429 77.6001 94.1702 76.5479 95.4997 75.1259C96.8293 73.711 97.7891 72.0615 98.3863 70.1845C97.8176 70.4831 97.2772 70.6822 96.7511 70.7888C96.232 70.8955 95.7272 70.9452 95.2509 70.9452C94.5328 70.9452 93.7507 70.7888 92.9046 70.476C92.0585 70.1631 91.2409 69.6512 90.4659 68.9331C89.6909 68.215 89.051 67.2481 88.5391 66.0252C88.0343 64.8022 87.7783 63.2807 87.7783 61.4606C87.7783 59.0432 88.2334 57.1022 89.1434 55.6233C90.0535 54.1444 91.2195 53.078 92.6344 52.4238C94.0493 51.7697 95.4926 51.4427 96.9501 51.4427L96.9573 51.4355ZM99.4173 62.5768C99.4173 60.3727 99.1684 58.837 98.6779 57.9696C98.1873 57.1022 97.5971 56.6685 96.9075 56.6685C96.1609 56.6685 95.5637 57.0809 95.1158 57.8985C94.6678 58.7161 94.4474 59.8466 94.4474 61.2757C94.4474 62.7048 94.6821 63.7286 95.1655 64.5179C95.6419 65.3071 96.3102 65.7052 97.1777 65.7052C97.8602 65.7052 98.5783 65.499 99.3249 65.0795C99.3817 64.2761 99.4173 63.4371 99.4173 62.5768Z" fill="#010101"/>
<path d="M118.024 83.2884C114.895 83.2884 112.592 81.8806 111.113 79.058C109.634 76.2424 108.895 72.3106 108.895 67.2697C108.895 62.2287 109.634 58.2969 111.113 55.4814C112.592 52.6659 114.895 51.251 118.024 51.251C121.152 51.251 123.47 52.6588 124.956 55.4814C126.449 58.2969 127.196 62.2287 127.196 67.2697C127.196 72.3106 126.449 76.2424 124.956 79.058C123.463 81.8735 121.152 83.2884 118.024 83.2884ZM118.024 78.0555C118.557 78.0555 118.998 77.7782 119.346 77.2307C119.687 76.6761 119.943 75.631 120.107 74.0739C120.27 72.5239 120.356 70.2559 120.356 67.2768C120.356 64.2977 120.27 61.9941 120.107 60.4512C119.943 58.9155 119.687 57.8704 119.346 57.3229C119.005 56.7683 118.564 56.4981 118.024 56.4981C117.483 56.4981 117.05 56.7754 116.701 57.3229C116.36 57.8775 116.104 58.9226 115.94 60.4512C115.777 61.987 115.692 64.2622 115.692 67.2768C115.692 70.2914 115.777 72.5239 115.94 74.0739C116.104 75.6239 116.36 76.6761 116.701 77.2307C117.043 77.7853 117.483 78.0555 118.024 78.0555Z" fill="#010101"/>
<path d="M5.48069 83.3517C4.96166 83.3517 4.7057 83.181 4.7057 82.8327V81.4604C4.17245 81.4462 3.62499 81.3538 3.06331 81.2045C2.50162 81.048 2.00393 80.8703 1.57733 80.6641C1.21472 80.4935 0.901884 80.2944 0.645926 80.0811C0.389968 79.8678 0.254883 79.626 0.254883 79.3701C0.254883 79.1994 0.290428 78.9364 0.361528 78.5809C0.432627 78.2254 0.54639 77.8984 0.709918 77.5855C0.873447 77.2727 1.07964 77.1162 1.32137 77.1162C1.47779 77.1162 1.73375 77.2015 2.08924 77.3722C2.44474 77.5428 2.85712 77.7206 3.33348 77.8912C3.80985 78.0619 4.31466 78.1472 4.8479 78.1472C5.31716 78.1472 5.75086 78.0334 6.15613 77.7988C6.56139 77.5642 6.76758 77.0807 6.76758 76.3342C6.76758 75.8507 6.65383 75.4525 6.4192 75.1397C6.18457 74.8269 5.87884 74.5495 5.4878 74.3078C5.09675 74.0661 4.68437 73.8244 4.22934 73.5826C3.43302 73.1347 2.76469 72.6654 2.21012 72.1819C1.65554 71.6985 1.23605 71.1297 0.944542 70.4827C0.653035 69.8356 0.50373 69.0465 0.50373 68.1151C0.50373 66.7144 0.894773 65.5768 1.68398 64.681C2.46607 63.7922 3.4828 63.2377 4.72703 63.0101V61.8725C4.72703 61.5241 4.98299 61.3535 5.50202 61.3535H5.62999C6.14902 61.3535 6.40498 61.5241 6.40498 61.8725V62.9319C6.924 62.9532 7.44303 63.0243 7.96916 63.1665C8.4953 63.3016 8.95033 63.4936 9.32716 63.7353C9.48358 63.842 9.64711 63.97 9.81775 64.1264C9.98839 64.2828 10.0737 64.4748 10.0737 64.6952C10.0737 64.9369 10.0382 65.2356 9.96706 65.5911C9.89596 65.9466 9.79642 66.2594 9.65422 66.5366C9.51913 66.8139 9.34138 66.949 9.13519 66.949C9.00011 66.949 8.77259 66.8922 8.45975 66.7713C8.14691 66.6504 7.79141 66.5295 7.40037 66.4087C7.00221 66.2878 6.61116 66.2309 6.23434 66.2309C5.67976 66.2309 5.26028 66.3234 4.97588 66.5153C4.69148 66.7073 4.49951 66.9277 4.40708 67.1766C4.31465 67.4254 4.26489 67.6671 4.26489 67.8876C4.26489 68.4066 4.40709 68.819 4.69148 69.1318C4.97588 69.4446 5.3456 69.7077 5.79353 69.9352C6.24145 70.1627 6.7107 70.4116 7.19418 70.6889C7.95494 71.1226 8.58062 71.5776 9.0712 72.0611C9.56179 72.5446 9.9315 73.0991 10.1875 73.7319C10.4363 74.3647 10.5643 75.1326 10.5643 76.0497C10.5643 76.8603 10.415 77.6281 10.1235 78.3534C9.83197 79.0786 9.36982 79.7114 8.75126 80.2446C8.13269 80.7779 7.34349 81.1405 6.39787 81.3324V82.8327C6.39787 83.181 6.14191 83.3517 5.62288 83.3517H5.4949H5.48069Z" fill="#010101"/>
<path d="M17.3259 31.9887C17.0273 31.9887 16.7926 31.7541 16.6078 31.2706C16.43 30.7942 16.302 30.2396 16.2309 29.614C16.1527 28.9883 16.1172 28.4693 16.1172 28.0498C16.1172 27.7227 16.1883 27.4525 16.3447 27.2463L26.0071 13.1971C26.6328 12.3013 27.0807 11.4978 27.3509 10.7797C27.6211 10.0616 27.7562 9.37907 27.7562 8.72496C27.7562 7.65136 27.4362 6.86219 26.7963 6.35738C26.1564 5.85258 25.3743 5.59661 24.45 5.59661C23.5257 5.59661 22.6299 5.73879 21.8549 6.02319C21.0799 6.30759 20.4045 6.592 19.8428 6.87639C19.274 7.16079 18.8119 7.30297 18.4564 7.30297C18.1577 7.30297 17.852 7.111 17.5392 6.71995C17.2263 6.33602 16.9704 5.85966 16.7784 5.3122C16.5864 4.75762 16.4869 4.21728 16.4869 3.67692C16.4869 3.10813 16.9419 2.57487 17.852 2.07007C18.7621 1.56526 19.8855 1.14577 21.2292 0.818712C22.573 0.491655 23.9097 0.328125 25.2535 0.328125C28.2965 0.328125 30.593 1.09599 32.143 2.63174C33.693 4.16748 34.4679 6.12984 34.4679 8.51167C34.4679 9.76302 34.2546 10.9504 33.8209 12.0666C33.3872 13.1829 32.8113 14.2778 32.1003 15.3514L24.3647 26.7558H33.3588C34.2546 26.7558 34.7026 27.5023 34.7026 28.9954V29.7562C34.7026 31.2493 34.2546 31.9958 33.3588 31.9958H17.3401L17.3259 31.9887Z" fill="#DD0B18"/>
<path d="M46.9885 32.3518C43.8602 32.3518 41.5565 30.9441 40.0777 28.1214C38.5988 25.3059 37.8594 21.3741 37.8594 16.3331C37.8594 11.2922 38.5988 7.36037 40.0777 4.54483C41.5565 1.7293 43.8602 0.314453 46.9885 0.314453C50.1169 0.314453 52.4348 1.72219 53.9207 4.54483C55.4138 7.36037 56.1604 11.2922 56.1604 16.3331C56.1604 21.3741 55.4138 25.3059 53.9207 28.1214C52.4276 30.9369 50.1169 32.3518 46.9885 32.3518ZM46.9885 27.1189C47.5218 27.1189 47.9626 26.8416 48.311 26.2942C48.6523 25.7396 48.9082 24.6944 49.0717 23.1373C49.2353 21.5874 49.3206 19.3193 49.3206 16.3402C49.3206 13.3612 49.2353 11.0575 49.0717 9.51467C48.9082 7.97892 48.6523 6.93379 48.311 6.38632C47.9697 5.83175 47.5289 5.56155 46.9885 5.56155C46.4482 5.56155 46.0145 5.83886 45.6661 6.38632C45.3248 6.9409 45.0688 7.98603 44.9053 9.51467C44.7418 11.0504 44.6565 13.3256 44.6565 16.3402C44.6565 19.3549 44.7418 21.5874 44.9053 23.1373C45.0688 24.6873 45.3248 25.7396 45.6661 26.2942C46.0074 26.8487 46.4482 27.1189 46.9885 27.1189Z" fill="#DD0B18"/>
<path d="M60.7605 32.0813C58.9688 32.0813 58.0801 31.6049 58.0801 30.6522V26.5355C58.0801 25.5828 58.9759 25.1064 60.7605 25.1064H62.1896C63.9813 25.1064 64.8772 25.5828 64.8772 26.5355V30.6522C64.8772 31.6049 63.9813 32.0813 62.1896 32.0813H60.7605Z" fill="#DD0B18"/>
<path d="M75.9328 0.499023C77.0349 0.499023 78.1298 0.705215 79.2176 1.1247C80.3054 1.54419 81.3008 2.2054 82.1896 3.11548C83.0854 4.02555 83.8035 5.22717 84.3368 6.71315C84.87 8.20623 85.1402 10.0264 85.1402 12.1736C85.1402 15.0389 84.806 17.5273 84.1306 19.6461C83.4623 21.7648 82.5877 23.5637 81.5141 25.0354C80.4405 26.5143 79.2958 27.7372 78.0943 28.7042C76.8856 29.6711 75.7409 30.4176 74.653 30.9438C73.5652 31.4628 72.648 31.8326 71.9015 32.0387C71.155 32.2449 70.7355 32.3516 70.6502 32.3516C70.1454 32.3516 69.7259 32.0743 69.3988 31.5268C69.0717 30.9722 68.8229 30.375 68.6594 29.7138C68.4958 29.0597 68.4105 28.5833 68.4105 28.2847C68.4105 27.9576 68.4461 27.7301 68.5243 27.6163C68.5954 27.4955 68.7518 27.4101 68.9935 27.3462C71.3185 26.6636 73.1457 25.6113 74.4753 24.1893C75.8049 22.7745 76.7647 21.1249 77.3619 19.2479C76.7931 19.5465 76.2528 19.7456 75.7267 19.8523C75.2076 19.9589 74.7028 20.0087 74.2265 20.0087C73.5084 20.0087 72.7263 19.8523 71.8802 19.5395C71.0341 19.2266 70.2164 18.7147 69.4415 17.9966C68.6665 17.2785 68.0266 16.3115 67.5147 15.0886C67.0099 13.8657 66.7539 12.3442 66.7539 10.5241C66.7539 8.10668 67.209 6.16565 68.119 4.68679C69.0291 3.20792 70.1951 2.14143 71.61 1.48732C73.0249 0.833201 74.4682 0.50614 75.9257 0.50614L75.9328 0.499023ZM78.3929 11.6403C78.3929 9.43625 78.144 7.90047 77.6534 7.03306C77.1629 6.16565 76.5727 5.73197 75.8831 5.73197C75.1365 5.73197 74.5393 6.14433 74.0914 6.96198C73.6434 7.77962 73.423 8.9101 73.423 10.3392C73.423 11.7683 73.6577 12.7921 74.1411 13.5813C74.6175 14.3705 75.2858 14.7687 76.1532 14.7687C76.8358 14.7687 77.5539 14.5625 78.3004 14.143C78.3573 13.3396 78.3929 12.5006 78.3929 11.6403Z" fill="#DD0B18"/>
<path d="M96.9573 0.499023C98.0593 0.499023 99.1542 0.705215 100.242 1.1247C101.33 1.54419 102.325 2.2054 103.214 3.11548C104.11 4.02555 104.828 5.22717 105.361 6.71315C105.894 8.20623 106.165 10.0264 106.165 12.1736C106.165 15.0389 105.83 17.5273 105.155 19.6461C104.487 21.7648 103.612 23.5637 102.539 25.0354C101.465 26.5143 100.32 27.7372 99.1187 28.7042C97.91 29.6711 96.7653 30.4176 95.6775 30.9438C94.5896 31.4628 93.6725 31.8326 92.9259 32.0387C92.1794 32.2449 91.7599 32.3516 91.6746 32.3516C91.1698 32.3516 90.7503 32.0743 90.4232 31.5268C90.0962 30.9722 89.8473 30.375 89.6838 29.7138C89.5202 29.0597 89.4349 28.5833 89.4349 28.2847C89.4349 27.9576 89.4705 27.7301 89.5487 27.6163C89.6198 27.4955 89.7762 27.4101 90.0179 27.3462C92.3429 26.6636 94.1702 25.6113 95.4997 24.1893C96.8293 22.7745 97.7891 21.1249 98.3863 19.2479C97.8176 19.5465 97.2772 19.7456 96.7511 19.8523C96.232 19.9589 95.7272 20.0087 95.2509 20.0087C94.5328 20.0087 93.7507 19.8523 92.9046 19.5395C92.0585 19.2266 91.2409 18.7147 90.4659 17.9966C89.6909 17.2785 89.051 16.3115 88.5391 15.0886C88.0343 13.8657 87.7783 12.3442 87.7783 10.5241C87.7783 8.10668 88.2334 6.16565 89.1434 4.68679C90.0535 3.20792 91.2195 2.14143 92.6344 1.48732C94.0493 0.833201 95.4926 0.50614 96.9501 0.50614L96.9573 0.499023ZM99.4173 11.6403C99.4173 9.43625 99.1684 7.90047 98.6779 7.03306C98.1873 6.16565 97.5971 5.73197 96.9075 5.73197C96.1609 5.73197 95.5637 6.14433 95.1158 6.96198C94.6678 7.77962 94.4474 8.9101 94.4474 10.3392C94.4474 11.7683 94.6821 12.7921 95.1655 13.5813C95.6419 14.3705 96.3102 14.7687 97.1777 14.7687C97.8602 14.7687 98.5783 14.5625 99.3249 14.143C99.3817 13.3396 99.4173 12.5006 99.4173 11.6403Z" fill="#DD0B18"/>
<path d="M118.024 32.3518C114.895 32.3518 112.592 30.9441 111.113 28.1214C109.634 25.3059 108.895 21.3741 108.895 16.3331C108.895 11.2922 109.634 7.36037 111.113 4.54483C112.592 1.7293 114.895 0.314453 118.024 0.314453C121.152 0.314453 123.47 1.72219 124.956 4.54483C126.449 7.36037 127.196 11.2922 127.196 16.3331C127.196 21.3741 126.449 25.3059 124.956 28.1214C123.463 30.9369 121.152 32.3518 118.024 32.3518ZM118.024 27.1189C118.557 27.1189 118.998 26.8416 119.346 26.2942C119.687 25.7396 119.943 24.6944 120.107 23.1373C120.27 21.5874 120.356 19.3193 120.356 16.3402C120.356 13.3612 120.27 11.0575 120.107 9.51467C119.943 7.97892 119.687 6.93379 119.346 6.38632C119.005 5.83175 118.564 5.56155 118.024 5.56155C117.483 5.56155 117.05 5.83886 116.701 6.38632C116.36 6.9409 116.104 7.98603 115.94 9.51467C115.777 11.0504 115.692 13.3256 115.692 16.3402C115.692 19.3549 115.777 21.5874 115.94 23.1373C116.104 24.6873 116.36 25.7396 116.701 26.2942C117.043 26.8487 117.483 27.1189 118.024 27.1189Z" fill="#DD0B18"/>
<path d="M5.48069 32.4161C4.96166 32.4161 4.7057 32.2455 4.7057 31.8971V30.5249C4.17245 30.5107 3.62499 30.4182 3.06331 30.2689C2.50162 30.1125 2.00393 29.9348 1.57733 29.7286C1.21472 29.5579 0.901884 29.3589 0.645926 29.1456C0.389968 28.9323 0.254883 28.6905 0.254883 28.4346C0.254883 28.2639 0.290428 28.0008 0.361528 27.6453C0.432627 27.2898 0.54639 26.9628 0.709918 26.65C0.873447 26.3371 1.07964 26.1807 1.32137 26.1807C1.47779 26.1807 1.73375 26.266 2.08924 26.4367C2.44474 26.6073 2.85712 26.7851 3.33348 26.9557C3.80985 27.1263 4.31466 27.2116 4.8479 27.2116C5.31716 27.2116 5.75086 27.0979 6.15613 26.8633C6.56139 26.6286 6.76758 26.1452 6.76758 25.3986C6.76758 24.9151 6.65383 24.517 6.4192 24.2041C6.18457 23.8913 5.87884 23.614 5.4878 23.3723C5.09675 23.1306 4.68437 22.8888 4.22934 22.6471C3.43302 22.1991 2.76469 21.7299 2.21012 21.2464C1.65554 20.7629 1.23605 20.1942 0.944542 19.5471C0.653035 18.9001 0.50373 18.1109 0.50373 17.1795C0.50373 15.7789 0.894773 14.6413 1.68398 13.7454C2.46607 12.8567 3.4828 12.3021 4.72703 12.0746V10.937C4.72703 10.5886 4.98299 10.418 5.50202 10.418H5.62999C6.14902 10.418 6.40498 10.5886 6.40498 10.937V11.9964C6.924 12.0177 7.44303 12.0888 7.96916 12.231C8.4953 12.3661 8.95033 12.5581 9.32716 12.7998C9.48358 12.9065 9.64711 13.0344 9.81775 13.1909C9.98839 13.3473 10.0737 13.5392 10.0737 13.7596C10.0737 14.0014 10.0382 14.3 9.96706 14.6555C9.89596 15.011 9.79642 15.3239 9.65422 15.6011C9.51913 15.8784 9.34138 16.0135 9.13519 16.0135C9.00011 16.0135 8.77259 15.9566 8.45975 15.8357C8.14691 15.7149 7.79141 15.594 7.40037 15.4731C7.00221 15.3523 6.61116 15.2954 6.23434 15.2954C5.67976 15.2954 5.26028 15.3878 4.97588 15.5798C4.69148 15.7718 4.49951 15.9922 4.40708 16.241C4.31465 16.4899 4.26489 16.7316 4.26489 16.952C4.26489 17.471 4.40709 17.8834 4.69148 18.1962C4.97588 18.5091 5.3456 18.7722 5.79353 18.9997C6.24145 19.2272 6.7107 19.476 7.19418 19.7533C7.95494 20.187 8.58062 20.6421 9.0712 21.1255C9.56179 21.609 9.9315 22.1636 10.1875 22.7964C10.4363 23.4292 10.5643 24.197 10.5643 25.1142C10.5643 25.9247 10.415 26.6926 10.1235 27.4179C9.83197 28.1431 9.36982 28.7758 8.75126 29.3091C8.13269 29.8423 7.34349 30.205 6.39787 30.3969V31.8971C6.39787 32.2455 6.14191 32.4161 5.62288 32.4161H5.4949H5.48069Z" fill="#DD0B18"/>
<path d="M143.96 8.18445C143.775 8.18445 143.64 8.16314 143.562 8.11337C143.484 8.0636 143.448 7.99252 143.448 7.9072V0.726133C143.448 0.477285 143.569 0.356445 143.818 0.356445H145.539C146.996 0.356445 147.728 1.1243 147.728 2.65294C147.728 4.18158 146.996 4.96367 145.539 4.96367H144.671V7.9072C144.671 7.99252 144.629 8.0636 144.55 8.11337C144.465 8.16314 144.337 8.18445 144.152 8.18445H143.974H143.96ZM144.664 3.93272H145.531C145.88 3.93272 146.129 3.83319 146.285 3.63412C146.434 3.43504 146.513 3.10798 146.513 2.65294C146.513 2.19791 146.434 1.88507 146.285 1.67888C146.136 1.47981 145.88 1.38028 145.531 1.38028H144.664V3.93272Z" fill="#010101"/>
<path d="M149.314 8.18483C148.973 8.18483 148.802 8.09243 148.802 7.90757V4.08242C148.802 3.61317 148.781 3.27189 148.745 3.05859C148.71 2.84529 148.688 2.69598 148.688 2.61066C148.688 2.54667 148.738 2.48981 148.838 2.44715C148.937 2.40449 149.051 2.37601 149.186 2.36179C149.314 2.34757 149.421 2.34048 149.492 2.34048C149.606 2.34048 149.684 2.39735 149.727 2.50399C149.769 2.61064 149.826 2.81683 149.883 3.12256C150.039 2.85949 150.238 2.65333 150.48 2.4898C150.722 2.32628 150.957 2.24805 151.177 2.24805C151.319 2.24805 151.412 2.28361 151.461 2.3476C151.511 2.41159 151.532 2.51822 151.532 2.6462C151.532 2.75285 151.518 2.8666 151.497 2.98746C151.476 3.10833 151.44 3.21499 151.404 3.30742C151.362 3.39274 151.312 3.44251 151.255 3.44251C151.198 3.44251 151.134 3.4283 151.063 3.40697C150.992 3.37853 150.893 3.37143 150.757 3.37143C150.58 3.37143 150.416 3.42118 150.274 3.52783C150.132 3.63448 150.025 3.76245 149.968 3.92598V7.90757C149.968 8.09243 149.791 8.18483 149.442 8.18483H149.321H149.314Z" fill="#010101"/>
<path d="M154.17 8.2346C152.613 8.2346 151.838 7.24634 151.838 5.27689C151.838 4.24595 152.03 3.47805 152.421 2.98746C152.812 2.49688 153.359 2.24805 154.063 2.24805C154.767 2.24805 155.251 2.50402 155.571 3.01593C155.898 3.52785 156.054 4.25307 156.054 5.19869C156.054 5.53997 155.912 5.71058 155.62 5.71058H153.018C153.032 6.25805 153.139 6.66332 153.338 6.91216C153.537 7.16812 153.829 7.28901 154.227 7.28901C154.483 7.28901 154.703 7.25345 154.895 7.18946C155.087 7.12547 155.251 7.05435 155.372 6.99036C155.5 6.92637 155.585 6.89086 155.627 6.89086C155.684 6.89086 155.734 6.92639 155.777 7.0046C155.819 7.0757 155.848 7.16812 155.869 7.26054C155.891 7.35297 155.905 7.43831 155.905 7.5023C155.905 7.60184 155.819 7.7085 155.649 7.82226C155.478 7.93602 155.258 8.03554 154.988 8.12086C154.717 8.19907 154.44 8.24172 154.149 8.24172L154.17 8.2346ZM153.032 4.84319H154.952C154.952 3.72693 154.653 3.17233 154.049 3.17233C153.736 3.17233 153.487 3.30742 153.31 3.57048C153.132 3.83355 153.039 4.26014 153.032 4.85026V4.84319Z" fill="#010101"/>
<path d="M159.118 8.23391C158.371 8.23391 157.81 7.97794 157.426 7.47314C157.042 6.96833 156.843 6.2289 156.843 5.25484C156.843 4.28078 157.035 3.54138 157.412 3.02235C157.788 2.50333 158.357 2.24023 159.118 2.24023C159.324 2.24023 159.53 2.26158 159.737 2.30424C159.943 2.3469 160.113 2.40378 160.241 2.47487C160.376 2.54597 160.44 2.61707 160.44 2.69528C160.44 2.75927 160.426 2.84458 160.405 2.95123C160.384 3.05788 160.348 3.15032 160.312 3.22853C160.27 3.31385 160.227 3.34938 160.17 3.34938C160.099 3.34938 159.978 3.32095 159.808 3.26407C159.637 3.20719 159.431 3.17875 159.175 3.17875C158.762 3.17875 158.471 3.34227 158.293 3.66222C158.115 3.98217 158.023 4.50831 158.023 5.22642C158.023 5.94452 158.108 6.45644 158.293 6.78349C158.478 7.11055 158.762 7.26697 159.175 7.26697C159.452 7.26697 159.68 7.2314 159.857 7.1603C160.042 7.0892 160.17 7.05368 160.241 7.05368C160.291 7.05368 160.341 7.08921 160.384 7.16742C160.426 7.24563 160.455 7.33806 160.476 7.4376C160.497 7.54425 160.504 7.62957 160.504 7.70778C160.504 7.78599 160.433 7.85709 160.291 7.9353C160.149 8.01351 159.971 8.07751 159.758 8.12728C159.545 8.17705 159.331 8.20548 159.104 8.20548L159.118 8.23391Z" fill="#010101"/>
<path d="M161.82 1.58642C161.607 1.58642 161.45 1.56506 161.365 1.5153C161.272 1.46553 161.23 1.40155 161.23 1.30912V0.583895C161.23 0.491466 161.272 0.427492 161.365 0.377723C161.45 0.327953 161.607 0.306641 161.82 0.306641C162.033 0.306641 162.175 0.327953 162.268 0.377723C162.36 0.427492 162.403 0.491466 162.403 0.583895V1.30912C162.403 1.40155 162.36 1.46553 162.268 1.5153C162.182 1.56506 162.033 1.58642 161.82 1.58642ZM161.727 8.17735C161.543 8.17735 161.415 8.15599 161.336 8.10622C161.265 8.05645 161.223 7.98537 161.223 7.90005V2.58179C161.223 2.49647 161.258 2.42538 161.336 2.37561C161.408 2.32584 161.543 2.30453 161.727 2.30453H161.884C162.069 2.30453 162.197 2.32584 162.275 2.37561C162.346 2.42538 162.389 2.49647 162.389 2.58179V7.90005C162.389 7.98537 162.353 8.05645 162.275 8.10622C162.204 8.15599 162.069 8.17735 161.884 8.17735H161.727Z" fill="#010101"/>
<path d="M165.724 8.2346C165.013 8.2346 164.465 7.97864 164.096 7.47383C163.726 6.96192 163.541 6.22961 163.541 5.26265C163.541 4.2957 163.726 3.54915 164.103 3.03012C164.48 2.5111 165.02 2.24805 165.724 2.24805C166.428 2.24805 166.982 2.5111 167.345 3.03012C167.707 3.54915 167.899 4.2957 167.899 5.26265C167.899 6.22961 167.715 6.96903 167.345 7.47383C166.975 7.98575 166.435 8.2346 165.724 8.2346ZM165.71 7.28901C166.051 7.28901 166.3 7.12548 166.463 6.79842C166.62 6.47137 166.705 5.9523 166.705 5.24842C166.705 4.54454 166.627 4.01133 166.463 3.68427C166.3 3.35721 166.051 3.19368 165.71 3.19368C165.368 3.19368 165.112 3.35721 164.956 3.68427C164.807 4.01133 164.728 4.53032 164.728 5.24842C164.728 5.96652 164.807 6.47137 164.956 6.79842C165.105 7.12548 165.361 7.28901 165.71 7.28901Z" fill="#010101"/>
<path d="M171.042 8.15561C170.793 8.15561 170.672 8.03473 170.672 7.78588V0.711528C170.672 0.46268 170.793 0.341797 171.042 0.341797H174.234C174.405 0.341797 174.49 0.476891 174.49 0.747069V0.967475C174.49 1.23765 174.405 1.36563 174.234 1.36563H171.895V3.64082H173.992C174.156 3.64082 174.241 3.77591 174.241 4.03897V4.25938C174.241 4.52956 174.156 4.66465 173.992 4.66465H171.895V7.11755H174.234C174.405 7.11755 174.49 7.25263 174.49 7.5157V7.73611C174.49 8.00628 174.405 8.1343 174.234 8.1343H171.042V8.15561Z" fill="#010101"/>
<path d="M175.074 8.15615C174.882 8.15615 174.782 8.09215 174.782 7.96417C174.782 7.93573 174.789 7.90021 174.811 7.85755C174.832 7.81489 174.846 7.77223 174.875 7.72957L176.19 5.15578L174.974 2.72415C174.932 2.63883 174.91 2.56062 174.91 2.50374C174.91 2.43264 174.946 2.37579 175.024 2.34735C175.102 2.31891 175.23 2.30469 175.408 2.30469H175.607C175.728 2.30469 175.827 2.31178 175.92 2.33311C176.005 2.35444 176.069 2.4042 176.098 2.49663L176.901 4.35943L177.669 2.51086C177.704 2.41132 177.768 2.35445 177.861 2.34023C177.946 2.3189 178.053 2.3118 178.174 2.3118H178.351C178.529 2.3118 178.657 2.32599 178.728 2.36154C178.799 2.39709 178.842 2.44687 178.842 2.51086C178.842 2.56063 178.814 2.63884 178.764 2.73127L177.548 5.19844L178.863 7.74376C178.92 7.85041 178.949 7.92864 178.949 7.98552C178.949 8.10639 178.849 8.16327 178.657 8.16327H178.231C178.11 8.16327 178.01 8.14906 177.918 8.12773C177.832 8.1064 177.761 8.03526 177.719 7.9144L176.837 5.93786L175.97 7.9144C175.927 8.03526 175.856 8.1064 175.771 8.12773C175.678 8.14906 175.579 8.16327 175.458 8.16327H175.067L175.074 8.15615Z" fill="#010101"/>
<path d="M180.313 10.4664C179.986 10.4664 179.823 10.374 179.823 10.1891V4.07461C179.823 3.60535 179.801 3.26408 179.766 3.05078C179.73 2.83748 179.709 2.68817 179.709 2.60285C179.709 2.53886 179.759 2.48199 179.865 2.43933C179.972 2.39667 180.086 2.36824 180.221 2.35402C180.356 2.3398 180.456 2.33267 180.534 2.33267C180.64 2.33267 180.711 2.38245 180.754 2.47487C180.797 2.57441 180.847 2.75218 180.896 3.02235C181.223 2.50333 181.657 2.24023 182.19 2.24023C182.724 2.24023 183.164 2.51042 183.477 3.05078C183.79 3.59113 183.954 4.30922 183.954 5.21218C183.954 6.17913 183.783 6.9257 183.449 7.45183C183.115 7.97797 182.681 8.24102 182.148 8.24102C181.878 8.24102 181.65 8.18416 181.465 8.07751C181.273 7.97086 181.117 7.83577 180.982 7.67224V10.1963C180.982 10.3811 180.818 10.4736 180.491 10.4736H180.313V10.4664ZM181.821 7.25273C182.461 7.25273 182.78 6.57021 182.78 5.19799C182.78 3.82577 182.475 3.2001 181.863 3.2001C181.536 3.2001 181.245 3.39916 180.982 3.80443V6.78349C181.216 7.09633 181.501 7.25273 181.821 7.25273Z" fill="#010101"/>
<path d="M187.182 8.2346C185.625 8.2346 184.85 7.24634 184.85 5.27689C184.85 4.24595 185.042 3.47805 185.433 2.98746C185.824 2.49688 186.371 2.24805 187.075 2.24805C187.779 2.24805 188.262 2.50402 188.582 3.01593C188.909 3.52785 189.066 4.25307 189.066 5.19869C189.066 5.53997 188.924 5.71058 188.632 5.71058H186.03C186.044 6.25805 186.151 6.66332 186.35 6.91216C186.549 7.16812 186.84 7.28901 187.239 7.28901C187.494 7.28901 187.715 7.25345 187.907 7.18946C188.099 7.12547 188.262 7.05435 188.383 6.99036C188.511 6.92637 188.597 6.89086 188.639 6.89086C188.696 6.89086 188.746 6.92639 188.789 7.0046C188.831 7.0757 188.86 7.16812 188.881 7.26054C188.902 7.35297 188.916 7.43831 188.916 7.5023C188.916 7.60184 188.831 7.7085 188.661 7.82226C188.49 7.93602 188.269 8.03554 187.999 8.12086C187.729 8.19907 187.452 8.24172 187.16 8.24172L187.182 8.2346ZM186.044 4.84319H187.964C187.964 3.72693 187.665 3.17233 187.061 3.17233C186.748 3.17233 186.499 3.30742 186.321 3.57048C186.144 3.83355 186.051 4.26014 186.044 4.85026V4.84319Z" fill="#010101"/>
<path d="M190.686 8.18483C190.345 8.18483 190.174 8.09243 190.174 7.90757V4.08242C190.174 3.61317 190.153 3.27189 190.117 3.05859C190.082 2.84529 190.061 2.69598 190.061 2.61066C190.061 2.54667 190.11 2.48981 190.21 2.44715C190.309 2.40449 190.423 2.37601 190.558 2.36179C190.686 2.34757 190.793 2.34048 190.864 2.34048C190.978 2.34048 191.056 2.39735 191.099 2.50399C191.141 2.61064 191.198 2.81683 191.255 3.12256C191.411 2.85949 191.611 2.65333 191.852 2.4898C192.094 2.32628 192.329 2.24805 192.549 2.24805C192.691 2.24805 192.784 2.28361 192.833 2.3476C192.883 2.41159 192.905 2.51822 192.905 2.6462C192.905 2.75285 192.89 2.8666 192.869 2.98746C192.848 3.10833 192.812 3.21499 192.777 3.30742C192.734 3.39274 192.684 3.44251 192.627 3.44251C192.57 3.44251 192.506 3.4283 192.435 3.40697C192.364 3.37853 192.265 3.37143 192.13 3.37143C191.952 3.37143 191.788 3.42118 191.646 3.52783C191.504 3.63448 191.397 3.76245 191.34 3.92598V7.90757C191.34 8.09243 191.163 8.18483 190.814 8.18483H190.693H190.686Z" fill="#010101"/>
<path d="M194.761 8.23408C194.555 8.23408 194.349 8.19143 194.157 8.10611C193.958 8.02079 193.794 7.87148 193.666 7.66529C193.538 7.45911 193.474 7.16762 193.474 6.7979V3.27136H193.083C192.912 3.27136 192.827 3.13627 192.827 2.8732V2.73099C192.827 2.46082 192.912 2.33284 193.083 2.33284H193.474L193.616 1.19527C193.645 1.01041 193.787 0.917969 194.029 0.917969H194.199C194.356 0.917969 194.47 0.939281 194.534 0.989051C194.598 1.03882 194.633 1.10995 194.633 1.19527V2.33284H195.301C195.472 2.33284 195.557 2.46793 195.557 2.73099V2.8732C195.557 3.14338 195.472 3.27136 195.301 3.27136H194.633V6.66281C194.633 6.89744 194.662 7.06808 194.711 7.1534C194.761 7.24583 194.861 7.28849 195.01 7.28849C195.131 7.28849 195.216 7.28135 195.28 7.26002C195.344 7.23869 195.387 7.2316 195.422 7.2316C195.479 7.2316 195.529 7.27424 195.557 7.35245C195.586 7.43777 195.607 7.5231 195.621 7.62264C195.636 7.72217 195.643 7.79327 195.643 7.84304C195.643 7.92836 195.593 7.99234 195.5 8.05633C195.401 8.11321 195.287 8.16298 195.152 8.19142C195.017 8.21986 194.889 8.23408 194.768 8.23408H194.761Z" fill="#010101"/>
<path d="M198.38 8.2346C197.669 8.2346 197.122 7.97864 196.752 7.47383C196.382 6.96192 196.197 6.22961 196.197 5.26265C196.197 4.2957 196.382 3.54915 196.759 3.03012C197.136 2.5111 197.676 2.24805 198.38 2.24805C199.084 2.24805 199.638 2.5111 200.001 3.03012C200.364 3.54915 200.556 4.2957 200.556 5.26265C200.556 6.22961 200.371 6.96903 200.001 7.47383C199.631 7.98575 199.091 8.2346 198.38 8.2346ZM198.366 7.28901C198.707 7.28901 198.956 7.12548 199.119 6.79842C199.276 6.47137 199.361 5.9523 199.361 5.24842C199.361 4.54454 199.283 4.01133 199.119 3.68427C198.956 3.35721 198.707 3.19368 198.366 3.19368C198.025 3.19368 197.769 3.35721 197.612 3.68427C197.463 4.01133 197.385 4.53032 197.385 5.24842C197.385 5.96652 197.463 6.47137 197.612 6.79842C197.761 7.12548 198.017 7.28901 198.366 7.28901Z" fill="#010101"/>
<path d="M197.178 21.7017L200.492 15.9569C201.423 14.35 200.257 12.3379 198.401 12.3379H192.237H197.875C197.648 12.3379 197.427 12.3663 197.221 12.4232H162.119C161.913 12.3663 161.693 12.3379 161.465 12.3379H145.418C143.562 12.3379 142.403 14.35 143.328 15.9569L146.641 21.7017L143.328 27.4465C142.396 29.0534 143.562 31.0655 145.418 31.0655H197.875H192.237H198.401C200.257 31.0655 201.416 29.0534 200.492 27.4465L197.178 21.7017Z" fill="#B74B17"/>
<path d="M149.685 27.4474C149.294 27.4474 149.102 27.2341 149.102 26.8146V17.0029C149.102 16.5834 149.294 16.3701 149.685 16.3701H152.187C153.346 16.3701 154.185 16.6545 154.697 17.2162C155.209 17.7779 155.465 18.5031 155.465 19.3918C155.465 19.9109 155.323 20.3801 155.045 20.8067C154.768 21.2333 154.413 21.5177 153.979 21.6528L153.993 21.7168C154.519 21.8519 154.953 22.1647 155.301 22.6624C155.65 23.1601 155.813 23.7218 155.813 24.3617C155.813 26.4165 154.605 27.4474 152.187 27.4474H149.685ZM151.476 20.7996H152.187C152.536 20.7996 152.785 20.7001 152.941 20.5081C153.09 20.3161 153.168 20.0033 153.168 19.5838C153.168 19.1857 153.09 18.8941 152.941 18.7164C152.785 18.5386 152.536 18.4463 152.187 18.4463H151.476V20.8067V20.7996ZM151.476 25.3713H152.187C152.6 25.3713 152.898 25.2718 153.083 25.0727C153.268 24.8736 153.36 24.5465 153.36 24.0915C153.36 23.6365 153.268 23.2739 153.083 23.0606C152.898 22.8473 152.6 22.7406 152.187 22.7406H151.476V25.3713Z" fill="white"/>
<path d="M157.555 27.483C156.922 27.483 156.603 27.3052 156.603 26.9568V17.0029C156.603 16.5834 156.816 16.3701 157.235 16.3701H159.93C161.089 16.3701 161.956 16.6545 162.518 17.2162C163.08 17.7779 163.364 18.6595 163.364 19.854C163.364 20.3588 163.279 20.7996 163.101 21.1622C162.93 21.5248 162.71 21.8092 162.447 22.0154C162.184 22.2216 161.907 22.3354 161.608 22.3567V22.4207C161.821 22.4918 162.02 22.634 162.198 22.8402C162.383 23.0464 162.511 23.281 162.582 23.5441L163.549 26.708C163.592 26.836 163.613 26.9568 163.613 27.0706C163.613 27.2412 163.549 27.3479 163.414 27.4048C163.279 27.4545 163.03 27.483 162.66 27.483H162.106C161.85 27.483 161.643 27.4545 161.473 27.3905C161.302 27.3265 161.196 27.2128 161.153 27.0421L160.428 24.1128C160.357 23.8071 160.243 23.6009 160.101 23.4943C159.958 23.3876 159.731 23.3378 159.425 23.3378H159.048V26.9639C159.048 27.3123 158.728 27.4901 158.096 27.4901H157.541L157.555 27.483ZM159.063 21.2618H159.93C160.328 21.2618 160.605 21.148 160.762 20.9276C160.911 20.7072 160.989 20.3446 160.989 19.854C160.989 19.3634 160.911 19.0008 160.762 18.7804C160.605 18.56 160.328 18.4463 159.93 18.4463H159.063V21.2618Z" fill="white"/>
<path d="M168.348 27.5745C166.933 27.5745 165.888 27.1123 165.219 26.1951C164.551 25.2779 164.217 23.8489 164.217 21.9079C164.217 19.9668 164.551 18.5377 165.219 17.6205C165.888 16.7034 166.933 16.2412 168.348 16.2412C169.763 16.2412 170.822 16.7034 171.49 17.6205C172.159 18.5377 172.493 19.9668 172.493 21.9079C172.493 23.8489 172.159 25.2779 171.49 26.1951C170.822 27.1123 169.77 27.5745 168.348 27.5745ZM168.362 25.4984C168.952 25.4984 169.371 25.2211 169.62 24.6594C169.869 24.0977 169.99 23.1805 169.99 21.9079C169.99 20.6352 169.869 19.6967 169.62 19.1421C169.371 18.5875 168.952 18.3102 168.362 18.3102C167.772 18.3102 167.359 18.5875 167.103 19.1421C166.847 19.6967 166.712 20.621 166.712 21.9079C166.712 23.1948 166.84 24.1048 167.103 24.6594C167.359 25.2211 167.779 25.4984 168.362 25.4984Z" fill="white"/>
<path d="M174.712 27.4819C174.079 27.4819 173.759 27.3042 173.759 26.9558V16.8526C173.759 16.5042 174.079 16.3265 174.712 16.3265H175.252C175.607 16.3265 175.878 16.362 176.041 16.4402C176.212 16.5113 176.34 16.6535 176.439 16.8526L178.906 21.7727C178.956 21.8864 179.02 22.0286 179.084 22.1993C179.148 22.3699 179.205 22.5406 179.262 22.7041L179.34 22.6899C179.319 22.5121 179.297 22.3344 179.276 22.1495C179.255 21.9717 179.248 21.794 179.248 21.6091V16.8455C179.248 16.4971 179.568 16.3193 180.2 16.3193H180.577C181.21 16.3193 181.53 16.4971 181.53 16.8455V26.9487C181.53 27.2971 181.21 27.4748 180.577 27.4748H180.037C179.688 27.4748 179.433 27.4393 179.262 27.3611C179.091 27.29 178.963 27.1478 178.864 26.9487L176.375 21.9433C176.325 21.8296 176.261 21.6873 176.197 21.5167C176.134 21.3461 176.077 21.1826 176.02 21.0119L175.942 21.0261C175.963 21.2039 175.984 21.3816 176.006 21.5665C176.027 21.7442 176.034 21.922 176.034 22.1068V26.9487C176.034 27.2971 175.714 27.4748 175.081 27.4748H174.704L174.712 27.4819Z" fill="white"/>
<path d="M187.175 27.5747C185.675 27.5747 184.587 27.1126 183.912 26.1883C183.236 25.264 182.902 23.8278 182.902 21.8726C182.902 19.9173 183.251 18.5736 183.955 17.6351C184.658 16.7037 185.753 16.2344 187.254 16.2344C187.552 16.2344 187.822 16.2557 188.078 16.2913C188.334 16.3268 188.526 16.3695 188.661 16.4121C188.853 16.469 188.981 16.5401 189.045 16.6396C189.116 16.7392 189.152 16.8743 189.152 17.0449C189.152 17.244 189.131 17.4573 189.095 17.6848C189.06 17.9123 189.003 18.1043 188.917 18.2679C188.839 18.4314 188.732 18.5167 188.59 18.5167C188.484 18.5167 188.32 18.4954 188.1 18.4456C187.879 18.3958 187.63 18.3745 187.353 18.3745C186.678 18.3745 186.187 18.6517 185.881 19.2063C185.576 19.7609 185.419 20.6568 185.419 21.8868C185.419 23.1168 185.576 24.034 185.896 24.5886C186.216 25.1431 186.727 25.4204 187.431 25.4204C187.78 25.4204 188.057 25.392 188.256 25.3351C188.455 25.2782 188.626 25.2498 188.761 25.2498C188.889 25.2498 188.988 25.3209 189.067 25.4702C189.145 25.6195 189.209 25.7972 189.252 26.0105C189.294 26.2238 189.315 26.43 189.315 26.6433C189.315 26.7998 189.287 26.942 189.223 27.0557C189.159 27.1695 189.024 27.269 188.825 27.3401C188.668 27.397 188.434 27.4468 188.135 27.4965C187.837 27.5463 187.51 27.5747 187.161 27.5747H187.175Z" fill="white"/>
<path d="M190.815 27.4474C190.424 27.4474 190.232 27.2341 190.232 26.8146V17.0029C190.232 16.5834 190.424 16.3701 190.815 16.3701H195.472C195.792 16.3701 195.949 16.6332 195.949 17.1593V17.6499C195.949 18.176 195.792 18.4391 195.472 18.4391H192.685V20.7356H195.174C195.48 20.7356 195.636 20.9987 195.636 21.5248V22.0154C195.636 22.5415 195.48 22.8046 195.174 22.8046H192.685V25.3713H195.472C195.792 25.3713 195.949 25.6344 195.949 26.1605V26.6511C195.949 27.1772 195.792 27.4403 195.472 27.4403H190.815V27.4474Z" fill="white"/>
</svg>
