<svg width="202" height="84" viewBox="0 0 202 84" fill="none" xmlns="http://www.w3.org/2000/svg">
<path d="M18.0153 82.9252C17.7167 82.9252 17.4821 82.6906 17.2972 82.2071C17.1195 81.7307 16.9915 81.1762 16.9204 80.5505C16.8422 79.9248 16.8066 79.4058 16.8066 78.9863C16.8066 78.6592 16.8777 78.3891 17.0342 78.1829L26.6966 64.1336C27.3223 63.2378 27.7702 62.4344 28.0403 61.7163C28.3105 60.9982 28.4456 60.3156 28.4456 59.6615C28.4456 58.5879 28.1257 57.7987 27.4858 57.2939C26.8459 56.7891 26.0638 56.5331 25.1395 56.5331C24.2152 56.5331 23.3193 56.6753 22.5444 56.9597C21.7694 57.2441 21.0939 57.5285 20.5322 57.8129C19.9634 58.0973 19.5013 58.2395 19.1458 58.2395C18.8472 58.2395 18.5415 58.0475 18.2286 57.6565C17.9158 57.2725 17.6598 56.7962 17.4679 56.2487C17.2759 55.6941 17.1764 55.1538 17.1764 54.6134C17.1764 54.0446 17.6314 53.5114 18.5415 53.0066C19.4515 52.5018 20.5749 52.0823 21.9187 51.7552C23.2625 51.4282 24.5992 51.2646 25.9429 51.2646C28.986 51.2646 31.2825 52.0325 32.8324 53.5683C34.3824 55.104 35.1574 57.0664 35.1574 59.4482C35.1574 60.6995 34.9441 61.8869 34.5104 63.0032C34.0767 64.1194 33.5008 65.2144 32.7898 66.288L25.0542 77.6923H34.0483C34.9441 77.6923 35.392 78.4388 35.392 79.9319V80.6927C35.392 82.1858 34.9441 82.9323 34.0483 82.9323H18.0296L18.0153 82.9252Z" fill="#010101"/>
<path d="M50.4083 83.0182C48.6166 83.0182 47.7207 82.5419 47.7207 81.5892V76.5766H38.236C37.9658 76.5766 37.7313 76.3136 37.518 75.7945C37.3118 75.2755 37.1482 74.6783 37.0274 74.0028C36.9065 73.3345 36.8496 72.8013 36.8496 72.4173C36.8496 72.2111 36.8781 72.0476 36.942 71.9267L46.5618 52.6019C46.7964 52.0971 47.1661 51.7914 47.6567 51.6848C48.1473 51.5781 48.7232 51.5283 49.3773 51.5283H51.6596C53.4513 51.5283 54.34 52.0047 54.34 52.9574V71.3437H55.5488C56.4446 71.3437 56.8926 72.0903 56.8926 73.5834V74.3441C56.8926 75.8372 56.4446 76.5837 55.5488 76.5837H54.34V81.5962C54.34 82.549 53.4442 83.0253 51.6596 83.0253H50.4083V83.0182ZM48.126 61.1836L47.8985 61.141L42.8859 71.3437H47.6709V67.3195C47.6709 65.4994 47.8202 63.4588 48.1188 61.1907L48.126 61.1836Z" fill="#010101"/>
<path d="M61.4568 83.0178C59.6651 83.0178 58.7764 82.5415 58.7764 81.5888V77.4721C58.7764 76.5193 59.6722 76.043 61.4568 76.043H62.8859C64.6776 76.043 65.5735 76.5193 65.5735 77.4721V81.5888C65.5735 82.5415 64.6776 83.0178 62.8859 83.0178H61.4568Z" fill="#010101"/>
<path d="M76.6223 51.4355C77.7244 51.4355 78.8193 51.6417 79.9071 52.0612C80.9949 52.4807 81.9903 53.1419 82.879 54.052C83.7749 54.9621 84.493 56.1636 85.0262 57.6496C85.5595 59.1427 85.8296 60.9629 85.8296 63.1101C85.8296 65.9754 85.4955 68.4638 84.82 70.5826C84.1517 72.7014 83.2772 74.5002 82.2036 75.972C81.13 77.4508 79.9853 78.6737 78.7837 79.6407C77.575 80.6076 76.4303 81.3542 75.3425 81.8803C74.2547 82.3993 73.3375 82.769 72.5909 82.9752C71.8444 83.1814 71.4249 83.2881 71.3396 83.2881C70.8348 83.2881 70.4153 83.0108 70.0882 82.4633C69.7612 81.9088 69.5123 81.3115 69.3488 80.6503C69.1852 79.9962 69.0999 79.5198 69.0999 79.2212C69.0999 78.8941 69.1355 78.6666 69.2137 78.5529C69.2848 78.432 69.4413 78.3467 69.683 78.2827C72.008 77.6001 73.8352 76.5479 75.1647 75.1259C76.4943 73.711 77.4541 72.0615 78.0513 70.1845C77.4825 70.4831 76.9422 70.6822 76.4161 70.7888C75.8971 70.8955 75.3923 70.9452 74.9159 70.9452C74.1978 70.9452 73.4157 70.7888 72.5696 70.476C71.7235 70.1631 70.9059 69.6512 70.1309 68.9331C69.356 68.215 68.716 67.2481 68.2041 66.0252C67.6993 64.8022 67.4434 63.2807 67.4434 61.4606C67.4434 59.0432 67.8983 57.1022 68.8084 55.6233C69.7185 54.1444 70.8845 53.078 72.2994 52.4238C73.7143 51.7697 75.1577 51.4427 76.6152 51.4427L76.6223 51.4355ZM79.0823 62.5768C79.0823 60.3727 78.8334 58.837 78.3429 57.9696C77.8523 57.1022 77.2622 56.6685 76.5725 56.6685C75.826 56.6685 75.2287 57.0809 74.7808 57.8985C74.3329 58.7161 74.1125 59.8466 74.1125 61.2757C74.1125 62.7048 74.3471 63.7286 74.8306 64.5179C75.307 65.3071 75.9753 65.7052 76.8427 65.7052C77.5252 65.7052 78.2433 65.499 78.9899 65.0795C79.0468 64.2761 79.0823 63.4371 79.0823 62.5768Z" fill="#010101"/>
<path d="M97.6467 51.4355C98.7488 51.4355 99.8437 51.6417 100.932 52.0612C102.019 52.4807 103.015 53.1419 103.904 54.052C104.799 54.9621 105.517 56.1636 106.051 57.6496C106.584 59.1427 106.854 60.9629 106.854 63.1101C106.854 65.9754 106.52 68.4638 105.845 70.5826C105.176 72.7014 104.302 74.5002 103.228 75.972C102.154 77.4508 101.01 78.6737 99.8082 79.6407C98.5995 80.6076 97.4547 81.3542 96.3669 81.8803C95.2791 82.3993 94.3619 82.769 93.6154 82.9752C92.8688 83.1814 92.4493 83.2881 92.364 83.2881C91.8592 83.2881 91.4398 83.0108 91.1127 82.4633C90.7857 81.9088 90.5368 81.3115 90.3733 80.6503C90.2097 79.9962 90.1244 79.5198 90.1244 79.2212C90.1244 78.8941 90.1599 78.6666 90.2381 78.5529C90.3092 78.432 90.4657 78.3467 90.7074 78.2827C93.0324 77.6001 94.8596 76.5479 96.1892 75.1259C97.5187 73.711 98.4786 72.0615 99.0758 70.1845C98.507 70.4831 97.9666 70.6822 97.4405 70.7888C96.9215 70.8955 96.4167 70.9452 95.9403 70.9452C95.2222 70.9452 94.4402 70.7888 93.5941 70.476C92.748 70.1631 91.9303 69.6512 91.1554 68.9331C90.3804 68.215 89.7405 67.2481 89.2286 66.0252C88.7238 64.8022 88.4678 63.2807 88.4678 61.4606C88.4678 59.0432 88.9228 57.1022 89.8329 55.6233C90.743 54.1444 91.909 53.078 93.3239 52.4238C94.7388 51.7697 96.1821 51.4427 97.6396 51.4427L97.6467 51.4355ZM100.107 62.5768C100.107 60.3727 99.858 58.837 99.3674 57.9696C98.8768 57.1022 98.2867 56.6685 97.597 56.6685C96.8505 56.6685 96.2532 57.0809 95.8053 57.8985C95.3574 58.7161 95.1369 59.8466 95.1369 61.2757C95.1369 62.7048 95.3715 63.7286 95.855 64.5179C96.3314 65.3071 96.9998 65.7052 97.8672 65.7052C98.5497 65.7052 99.2678 65.499 100.014 65.0795C100.071 64.2761 100.107 63.4371 100.107 62.5768Z" fill="#010101"/>
<path d="M118.713 83.2884C115.585 83.2884 113.281 81.8806 111.802 79.058C110.323 76.2424 109.584 72.3106 109.584 67.2697C109.584 62.2287 110.323 58.2969 111.802 55.4814C113.281 52.6659 115.585 51.251 118.713 51.251C121.841 51.251 124.159 52.6588 125.645 55.4814C127.138 58.2969 127.885 62.2287 127.885 67.2697C127.885 72.3106 127.138 76.2424 125.645 79.058C124.152 81.8735 121.841 83.2884 118.713 83.2884ZM118.713 78.0555C119.246 78.0555 119.687 77.7782 120.036 77.2307C120.377 76.6761 120.633 75.631 120.796 74.0739C120.96 72.5239 121.045 70.2559 121.045 67.2768C121.045 64.2977 120.96 61.9941 120.796 60.4512C120.633 58.9155 120.377 57.8704 120.036 57.3229C119.694 56.7683 119.253 56.4981 118.713 56.4981C118.173 56.4981 117.739 56.7754 117.391 57.3229C117.049 57.8775 116.793 58.9226 116.63 60.4512C116.466 61.987 116.381 64.2622 116.381 67.2768C116.381 70.2914 116.466 72.5239 116.63 74.0739C116.793 75.6239 117.049 76.6761 117.391 77.2307C117.732 77.7853 118.173 78.0555 118.713 78.0555Z" fill="#010101"/>
<path d="M6.17017 83.3517C5.65114 83.3517 5.39516 83.181 5.39516 82.8327V81.4604C4.86192 81.4462 4.31446 81.3538 3.75277 81.2045C3.19109 81.048 2.69337 80.8703 2.26677 80.6641C1.90417 80.4935 1.59133 80.2944 1.33537 80.0811C1.07942 79.8678 0.944336 79.626 0.944336 79.3701C0.944336 79.1994 0.979903 78.9364 1.051 78.5809C1.1221 78.2254 1.23585 77.8984 1.39938 77.5855C1.56291 77.2727 1.76909 77.1162 2.01083 77.1162C2.16725 77.1162 2.42322 77.2015 2.77871 77.3722C3.13421 77.5428 3.54659 77.7206 4.02295 77.8912C4.49932 78.0619 5.00413 78.1472 5.53737 78.1472C6.00663 78.1472 6.44031 78.0334 6.84558 77.7988C7.25084 77.5642 7.45706 77.0807 7.45706 76.3342C7.45706 75.8507 7.34327 75.4525 7.10864 75.1397C6.87401 74.8269 6.56829 74.5495 6.17724 74.3078C5.78619 74.0661 5.37385 73.8244 4.91881 73.5826C4.1225 73.1347 3.45414 72.6654 2.89957 72.1819C2.34499 71.6985 1.92553 71.1297 1.63402 70.4827C1.34252 69.8356 1.19321 69.0465 1.19321 68.1151C1.19321 66.7144 1.58424 65.5768 2.37344 64.681C3.15553 63.7922 4.17228 63.2377 5.41651 63.0101V61.8725C5.41651 61.5241 5.67245 61.3535 6.19147 61.3535H6.31945C6.83847 61.3535 7.09445 61.5241 7.09445 61.8725V62.9319C7.61348 62.9532 8.13251 63.0243 8.65864 63.1665C9.18478 63.3016 9.6398 63.4936 10.0166 63.7353C10.173 63.842 10.3366 63.97 10.5072 64.1264C10.6779 64.2828 10.7632 64.4748 10.7632 64.6952C10.7632 64.9369 10.7276 65.2356 10.6565 65.5911C10.5854 65.9466 10.4859 66.2594 10.3437 66.5366C10.2086 66.8139 10.0308 66.949 9.82464 66.949C9.68955 66.949 9.46207 66.8922 9.14923 66.7713C8.8364 66.6504 8.48086 66.5295 8.08982 66.4087C7.69166 66.2878 7.30065 66.2309 6.92382 66.2309C6.36924 66.2309 5.94974 66.3234 5.66535 66.5153C5.38095 66.7073 5.18899 66.9277 5.09656 67.1766C5.00413 67.4254 4.95435 67.6671 4.95435 67.8876C4.95435 68.4066 5.09653 68.819 5.38093 69.1318C5.66533 69.4446 6.03508 69.7077 6.48301 69.9352C6.93093 70.1627 7.40017 70.4116 7.88364 70.6889C8.64441 71.1226 9.27009 71.5776 9.76068 72.0611C10.2513 72.5446 10.621 73.0991 10.8769 73.7319C11.1258 74.3647 11.2537 75.1326 11.2537 76.0497C11.2537 76.8603 11.1044 77.6281 10.8129 78.3534C10.5214 79.0786 10.0593 79.7114 9.44072 80.2446C8.82216 80.7779 8.03295 81.1405 7.08733 81.3324V82.8327C7.08733 83.181 6.83136 83.3517 6.31233 83.3517H6.18436H6.17017Z" fill="#010101"/>
<path d="M18.0153 31.9887C17.7167 31.9887 17.4821 31.7541 17.2972 31.2706C17.1195 30.7942 16.9915 30.2396 16.9204 29.614C16.8422 28.9883 16.8066 28.4693 16.8066 28.0498C16.8066 27.7227 16.8777 27.4525 17.0342 27.2463L26.6966 13.1971C27.3223 12.3013 27.7702 11.4978 28.0403 10.7797C28.3105 10.0616 28.4456 9.37907 28.4456 8.72496C28.4456 7.65136 28.1257 6.86219 27.4858 6.35738C26.8459 5.85258 26.0638 5.59661 25.1395 5.59661C24.2152 5.59661 23.3193 5.73879 22.5444 6.02319C21.7694 6.30759 21.0939 6.592 20.5322 6.87639C19.9634 7.16079 19.5013 7.30297 19.1458 7.30297C18.8472 7.30297 18.5415 7.111 18.2286 6.71995C17.9158 6.33602 17.6598 5.85966 17.4679 5.3122C17.2759 4.75762 17.1764 4.21728 17.1764 3.67692C17.1764 3.10813 17.6314 2.57487 18.5415 2.07007C19.4515 1.56526 20.5749 1.14577 21.9187 0.818712C23.2625 0.491655 24.5992 0.328125 25.9429 0.328125C28.986 0.328125 31.2825 1.09599 32.8324 2.63174C34.3824 4.16748 35.1574 6.12984 35.1574 8.51167C35.1574 9.76302 34.9441 10.9504 34.5104 12.0666C34.0767 13.1829 33.5008 14.2778 32.7898 15.3514L25.0542 26.7558H34.0483C34.9441 26.7558 35.392 27.5023 35.392 28.9954V29.7562C35.392 31.2493 34.9441 31.9958 34.0483 31.9958H18.0296L18.0153 31.9887Z" fill="#DD0B18"/>
<path d="M47.678 32.3518C44.5496 32.3518 42.246 30.9441 40.7671 28.1214C39.2883 25.3059 38.5488 21.3741 38.5488 16.3331C38.5488 11.2922 39.2883 7.36037 40.7671 4.54483C42.246 1.7293 44.5496 0.314453 47.678 0.314453C50.8063 0.314453 53.1242 1.72219 54.6102 4.54483C56.1032 7.36037 56.8498 11.2922 56.8498 16.3331C56.8498 21.3741 56.1032 25.3059 54.6102 28.1214C53.1171 30.9369 50.8063 32.3518 47.678 32.3518ZM47.678 27.1189C48.2112 27.1189 48.652 26.8416 49.0004 26.2942C49.3417 25.7396 49.5977 24.6944 49.7612 23.1373C49.9247 21.5874 50.01 19.3193 50.01 16.3402C50.01 13.3612 49.9247 11.0575 49.7612 9.51467C49.5977 7.97892 49.3417 6.93379 49.0004 6.38632C48.6591 5.83175 48.2183 5.56155 47.678 5.56155C47.1376 5.56155 46.7039 5.83886 46.3555 6.38632C46.0142 6.9409 45.7583 7.98603 45.5948 9.51467C45.4313 11.0504 45.3459 13.3256 45.3459 16.3402C45.3459 19.3549 45.4313 21.5874 45.5948 23.1373C45.7583 24.6873 46.0142 25.7396 46.3555 26.2942C46.6968 26.8487 47.1376 27.1189 47.678 27.1189Z" fill="#DD0B18"/>
<path d="M61.4568 32.0813C59.6651 32.0813 58.7764 31.6049 58.7764 30.6522V26.5355C58.7764 25.5828 59.6722 25.1064 61.4568 25.1064H62.8859C64.6776 25.1064 65.5735 25.5828 65.5735 26.5355V30.6522C65.5735 31.6049 64.6776 32.0813 62.8859 32.0813H61.4568Z" fill="#DD0B18"/>
<path d="M76.6223 0.499023C77.7244 0.499023 78.8193 0.705215 79.9071 1.1247C80.9949 1.54419 81.9903 2.2054 82.879 3.11548C83.7749 4.02555 84.493 5.22717 85.0262 6.71315C85.5595 8.20623 85.8296 10.0264 85.8296 12.1736C85.8296 15.0389 85.4955 17.5273 84.82 19.6461C84.1517 21.7648 83.2772 23.5637 82.2036 25.0354C81.13 26.5143 79.9853 27.7372 78.7837 28.7042C77.575 29.6711 76.4303 30.4176 75.3425 30.9438C74.2547 31.4628 73.3375 31.8326 72.5909 32.0387C71.8444 32.2449 71.4249 32.3516 71.3396 32.3516C70.8348 32.3516 70.4153 32.0743 70.0882 31.5268C69.7612 30.9722 69.5123 30.375 69.3488 29.7138C69.1852 29.0597 69.0999 28.5833 69.0999 28.2847C69.0999 27.9576 69.1355 27.7301 69.2137 27.6163C69.2848 27.4955 69.4413 27.4101 69.683 27.3462C72.008 26.6636 73.8352 25.6113 75.1647 24.1893C76.4943 22.7745 77.4541 21.1249 78.0513 19.2479C77.4825 19.5465 76.9422 19.7456 76.4161 19.8523C75.8971 19.9589 75.3923 20.0087 74.9159 20.0087C74.1978 20.0087 73.4157 19.8523 72.5696 19.5395C71.7235 19.2266 70.9059 18.7147 70.1309 17.9966C69.356 17.2785 68.716 16.3115 68.2041 15.0886C67.6993 13.8657 67.4434 12.3442 67.4434 10.5241C67.4434 8.10668 67.8983 6.16565 68.8084 4.68679C69.7185 3.20792 70.8845 2.14143 72.2994 1.48732C73.7143 0.833201 75.1577 0.50614 76.6152 0.50614L76.6223 0.499023ZM79.0823 11.6403C79.0823 9.43625 78.8334 7.90047 78.3429 7.03306C77.8523 6.16565 77.2622 5.73197 76.5725 5.73197C75.826 5.73197 75.2287 6.14433 74.7808 6.96198C74.3329 7.77962 74.1125 8.9101 74.1125 10.3392C74.1125 11.7683 74.3471 12.7921 74.8306 13.5813C75.307 14.3705 75.9753 14.7687 76.8427 14.7687C77.5252 14.7687 78.2433 14.5625 78.9899 14.143C79.0468 13.3396 79.0823 12.5006 79.0823 11.6403Z" fill="#DD0B18"/>
<path d="M97.6467 0.499023C98.7488 0.499023 99.8437 0.705215 100.932 1.1247C102.019 1.54419 103.015 2.2054 103.904 3.11548C104.799 4.02555 105.517 5.22717 106.051 6.71315C106.584 8.20623 106.854 10.0264 106.854 12.1736C106.854 15.0389 106.52 17.5273 105.845 19.6461C105.176 21.7648 104.302 23.5637 103.228 25.0354C102.154 26.5143 101.01 27.7372 99.8082 28.7042C98.5995 29.6711 97.4547 30.4176 96.3669 30.9438C95.2791 31.4628 94.3619 31.8326 93.6154 32.0387C92.8688 32.2449 92.4493 32.3516 92.364 32.3516C91.8592 32.3516 91.4398 32.0743 91.1127 31.5268C90.7857 30.9722 90.5368 30.375 90.3733 29.7138C90.2097 29.0597 90.1244 28.5833 90.1244 28.2847C90.1244 27.9576 90.1599 27.7301 90.2381 27.6163C90.3092 27.4955 90.4657 27.4101 90.7074 27.3462C93.0324 26.6636 94.8596 25.6113 96.1892 24.1893C97.5187 22.7745 98.4786 21.1249 99.0758 19.2479C98.507 19.5465 97.9666 19.7456 97.4405 19.8523C96.9215 19.9589 96.4167 20.0087 95.9403 20.0087C95.2222 20.0087 94.4402 19.8523 93.5941 19.5395C92.748 19.2266 91.9303 18.7147 91.1554 17.9966C90.3804 17.2785 89.7405 16.3115 89.2286 15.0886C88.7238 13.8657 88.4678 12.3442 88.4678 10.5241C88.4678 8.10668 88.9228 6.16565 89.8329 4.68679C90.743 3.20792 91.909 2.14143 93.3239 1.48732C94.7388 0.833201 96.1821 0.50614 97.6396 0.50614L97.6467 0.499023ZM100.107 11.6403C100.107 9.43625 99.858 7.90047 99.3674 7.03306C98.8768 6.16565 98.2867 5.73197 97.597 5.73197C96.8505 5.73197 96.2532 6.14433 95.8053 6.96198C95.3574 7.77962 95.1369 8.9101 95.1369 10.3392C95.1369 11.7683 95.3715 12.7921 95.855 13.5813C96.3314 14.3705 96.9998 14.7687 97.8672 14.7687C98.5497 14.7687 99.2678 14.5625 100.014 14.143C100.071 13.3396 100.107 12.5006 100.107 11.6403Z" fill="#DD0B18"/>
<path d="M118.713 32.3518C115.585 32.3518 113.281 30.9441 111.802 28.1214C110.323 25.3059 109.584 21.3741 109.584 16.3331C109.584 11.2922 110.323 7.36037 111.802 4.54483C113.281 1.7293 115.585 0.314453 118.713 0.314453C121.841 0.314453 124.159 1.72219 125.645 4.54483C127.138 7.36037 127.885 11.2922 127.885 16.3331C127.885 21.3741 127.138 25.3059 125.645 28.1214C124.152 30.9369 121.841 32.3518 118.713 32.3518ZM118.713 27.1189C119.246 27.1189 119.687 26.8416 120.036 26.2942C120.377 25.7396 120.633 24.6944 120.796 23.1373C120.96 21.5874 121.045 19.3193 121.045 16.3402C121.045 13.3612 120.96 11.0575 120.796 9.51467C120.633 7.97892 120.377 6.93379 120.036 6.38632C119.694 5.83175 119.253 5.56155 118.713 5.56155C118.173 5.56155 117.739 5.83886 117.391 6.38632C117.049 6.9409 116.793 7.98603 116.63 9.51467C116.466 11.0504 116.381 13.3256 116.381 16.3402C116.381 19.3549 116.466 21.5874 116.63 23.1373C116.793 24.6873 117.049 25.7396 117.391 26.2942C117.732 26.8487 118.173 27.1189 118.713 27.1189Z" fill="#DD0B18"/>
<path d="M6.17017 32.4161C5.65114 32.4161 5.39516 32.2455 5.39516 31.8971V30.5249C4.86192 30.5107 4.31446 30.4182 3.75277 30.2689C3.19109 30.1125 2.69337 29.9348 2.26677 29.7286C1.90417 29.5579 1.59133 29.3589 1.33537 29.1456C1.07942 28.9323 0.944336 28.6905 0.944336 28.4346C0.944336 28.2639 0.979903 28.0008 1.051 27.6453C1.1221 27.2898 1.23585 26.9628 1.39938 26.65C1.56291 26.3371 1.76909 26.1807 2.01083 26.1807C2.16725 26.1807 2.42322 26.266 2.77871 26.4367C3.13421 26.6073 3.54659 26.7851 4.02295 26.9557C4.49932 27.1263 5.00413 27.2116 5.53737 27.2116C6.00663 27.2116 6.44031 27.0979 6.84558 26.8633C7.25084 26.6286 7.45706 26.1452 7.45706 25.3986C7.45706 24.9151 7.34327 24.517 7.10864 24.2041C6.87401 23.8913 6.56829 23.614 6.17724 23.3723C5.78619 23.1306 5.37385 22.8888 4.91881 22.6471C4.1225 22.1991 3.45414 21.7299 2.89957 21.2464C2.34499 20.7629 1.92553 20.1942 1.63402 19.5471C1.34252 18.9001 1.19321 18.1109 1.19321 17.1795C1.19321 15.7789 1.58424 14.6413 2.37344 13.7454C3.15553 12.8567 4.17228 12.3021 5.41651 12.0746V10.937C5.41651 10.5886 5.67245 10.418 6.19147 10.418H6.31945C6.83847 10.418 7.09445 10.5886 7.09445 10.937V11.9964C7.61348 12.0177 8.13251 12.0888 8.65864 12.231C9.18478 12.3661 9.6398 12.5581 10.0166 12.7998C10.173 12.9065 10.3366 13.0344 10.5072 13.1909C10.6779 13.3473 10.7632 13.5392 10.7632 13.7596C10.7632 14.0014 10.7276 14.3 10.6565 14.6555C10.5854 15.011 10.4859 15.3239 10.3437 15.6011C10.2086 15.8784 10.0308 16.0135 9.82464 16.0135C9.68955 16.0135 9.46207 15.9566 9.14923 15.8357C8.8364 15.7149 8.48086 15.594 8.08982 15.4731C7.69166 15.3523 7.30065 15.2954 6.92382 15.2954C6.36924 15.2954 5.94974 15.3878 5.66535 15.5798C5.38095 15.7718 5.18899 15.9922 5.09656 16.241C5.00413 16.4899 4.95435 16.7316 4.95435 16.952C4.95435 17.471 5.09653 17.8834 5.38093 18.1962C5.66533 18.5091 6.03508 18.7722 6.48301 18.9997C6.93093 19.2272 7.40017 19.476 7.88364 19.7533C8.64441 20.187 9.27009 20.6421 9.76068 21.1255C10.2513 21.609 10.621 22.1636 10.8769 22.7964C11.1258 23.4292 11.2537 24.197 11.2537 25.1142C11.2537 25.9247 11.1044 26.6926 10.8129 27.4179C10.5214 28.1431 10.0593 28.7758 9.44072 29.3091C8.82216 29.8423 8.03295 30.205 7.08733 30.3969V31.8971C7.08733 32.2455 6.83136 32.4161 6.31233 32.4161H6.18436H6.17017Z" fill="#DD0B18"/>
<path d="M144.651 8.18445C144.466 8.18445 144.331 8.16314 144.252 8.11337C144.174 8.0636 144.139 7.99252 144.139 7.9072V0.726133C144.139 0.477285 144.26 0.356445 144.508 0.356445H146.229C147.686 0.356445 148.419 1.1243 148.419 2.65294C148.419 4.18158 147.686 4.96367 146.229 4.96367H145.362V7.9072C145.362 7.99252 145.319 8.0636 145.241 8.11337C145.155 8.16314 145.027 8.18445 144.843 8.18445H144.665H144.651ZM145.354 3.93272H146.222C146.57 3.93272 146.819 3.83319 146.976 3.63412C147.125 3.43504 147.203 3.10798 147.203 2.65294C147.203 2.19791 147.125 1.88507 146.976 1.67888C146.826 1.47981 146.57 1.38028 146.222 1.38028H145.354V3.93272Z" fill="#010101"/>
<path d="M150.005 8.18483C149.663 8.18483 149.493 8.09243 149.493 7.90757V4.08242C149.493 3.61317 149.471 3.27189 149.436 3.05859C149.4 2.84529 149.379 2.69598 149.379 2.61066C149.379 2.54667 149.429 2.48981 149.528 2.44715C149.628 2.40449 149.741 2.37601 149.877 2.36179C150.005 2.34757 150.111 2.34048 150.182 2.34048C150.296 2.34048 150.374 2.39735 150.417 2.50399C150.46 2.61064 150.516 2.81683 150.573 3.12256C150.73 2.85949 150.929 2.65333 151.171 2.4898C151.412 2.32628 151.647 2.24805 151.867 2.24805C152.01 2.24805 152.102 2.28361 152.152 2.3476C152.202 2.41159 152.223 2.51822 152.223 2.6462C152.223 2.75285 152.209 2.8666 152.187 2.98746C152.166 3.10833 152.13 3.21499 152.095 3.30742C152.052 3.39274 152.002 3.44251 151.946 3.44251C151.889 3.44251 151.825 3.4283 151.754 3.40697C151.683 3.37853 151.583 3.37143 151.448 3.37143C151.27 3.37143 151.107 3.42118 150.964 3.52783C150.822 3.63448 150.716 3.76245 150.659 3.92598V7.90757C150.659 8.09243 150.481 8.18483 150.133 8.18483H150.012H150.005Z" fill="#010101"/>
<path d="M154.86 8.2346C153.303 8.2346 152.528 7.24634 152.528 5.27689C152.528 4.24595 152.72 3.47805 153.111 2.98746C153.502 2.49688 154.05 2.24805 154.754 2.24805C155.458 2.24805 155.941 2.50402 156.261 3.01593C156.588 3.52785 156.745 4.25307 156.745 5.19869C156.745 5.53997 156.602 5.71058 156.311 5.71058H153.709C153.723 6.25805 153.83 6.66332 154.029 6.91216C154.228 7.16812 154.519 7.28901 154.917 7.28901C155.173 7.28901 155.394 7.25345 155.586 7.18946C155.778 7.12547 155.941 7.05435 156.062 6.99036C156.19 6.92637 156.275 6.89086 156.318 6.89086C156.375 6.89086 156.425 6.92639 156.467 7.0046C156.51 7.0757 156.538 7.16812 156.56 7.26054C156.581 7.35297 156.595 7.43831 156.595 7.5023C156.595 7.60184 156.51 7.7085 156.339 7.82226C156.169 7.93602 155.948 8.03554 155.678 8.12086C155.408 8.19907 155.131 8.24172 154.839 8.24172L154.86 8.2346ZM153.723 4.84319H155.642C155.642 3.72693 155.344 3.17233 154.74 3.17233C154.427 3.17233 154.178 3.30742 154 3.57048C153.822 3.83355 153.73 4.26014 153.723 4.85026V4.84319Z" fill="#010101"/>
<path d="M159.808 8.23391C159.062 8.23391 158.5 7.97794 158.116 7.47314C157.732 6.96833 157.533 6.2289 157.533 5.25484C157.533 4.28078 157.725 3.54138 158.102 3.02235C158.479 2.50333 159.048 2.24023 159.808 2.24023C160.015 2.24023 160.221 2.26158 160.427 2.30424C160.633 2.3469 160.804 2.40378 160.932 2.47487C161.067 2.54597 161.131 2.61707 161.131 2.69528C161.131 2.75927 161.117 2.84458 161.095 2.95123C161.074 3.05788 161.038 3.15032 161.003 3.22853C160.96 3.31385 160.918 3.34938 160.861 3.34938C160.79 3.34938 160.669 3.32095 160.498 3.26407C160.327 3.20719 160.121 3.17875 159.865 3.17875C159.453 3.17875 159.161 3.34227 158.984 3.66222C158.806 3.98217 158.713 4.50831 158.713 5.22642C158.713 5.94452 158.799 6.45644 158.984 6.78349C159.169 7.11055 159.453 7.26697 159.865 7.26697C160.143 7.26697 160.37 7.2314 160.548 7.1603C160.733 7.0892 160.861 7.05368 160.932 7.05368C160.982 7.05368 161.031 7.08921 161.074 7.16742C161.117 7.24563 161.145 7.33806 161.166 7.4376C161.188 7.54425 161.195 7.62957 161.195 7.70778C161.195 7.78599 161.124 7.85709 160.982 7.9353C160.839 8.01351 160.662 8.07751 160.448 8.12728C160.235 8.17705 160.022 8.20548 159.794 8.20548L159.808 8.23391Z" fill="#010101"/>
<path d="M162.51 1.58642C162.297 1.58642 162.141 1.56506 162.055 1.5153C161.963 1.46553 161.92 1.40155 161.92 1.30912V0.583895C161.92 0.491466 161.963 0.427492 162.055 0.377723C162.141 0.327953 162.297 0.306641 162.51 0.306641C162.724 0.306641 162.866 0.327953 162.958 0.377723C163.051 0.427492 163.093 0.491466 163.093 0.583895V1.30912C163.093 1.40155 163.051 1.46553 162.958 1.5153C162.873 1.56506 162.724 1.58642 162.51 1.58642ZM162.418 8.17735C162.233 8.17735 162.105 8.15599 162.027 8.10622C161.956 8.05645 161.913 7.98537 161.913 7.90005V2.58179C161.913 2.49647 161.949 2.42538 162.027 2.37561C162.098 2.32584 162.233 2.30453 162.418 2.30453H162.574C162.759 2.30453 162.887 2.32584 162.965 2.37561C163.036 2.42538 163.079 2.49647 163.079 2.58179V7.90005C163.079 7.98537 163.044 8.05645 162.965 8.10622C162.894 8.15599 162.759 8.17735 162.574 8.17735H162.418Z" fill="#010101"/>
<path d="M166.414 8.2346C165.703 8.2346 165.156 7.97864 164.786 7.47383C164.416 6.96192 164.231 6.22961 164.231 5.26265C164.231 4.2957 164.416 3.54915 164.793 3.03012C165.17 2.5111 165.71 2.24805 166.414 2.24805C167.118 2.24805 167.673 2.5111 168.035 3.03012C168.398 3.54915 168.59 4.2957 168.59 5.26265C168.59 6.22961 168.405 6.96903 168.035 7.47383C167.666 7.98575 167.125 8.2346 166.414 8.2346ZM166.4 7.28901C166.741 7.28901 166.99 7.12548 167.154 6.79842C167.31 6.47137 167.395 5.9523 167.395 5.24842C167.395 4.54454 167.317 4.01133 167.154 3.68427C166.99 3.35721 166.741 3.19368 166.4 3.19368C166.059 3.19368 165.803 3.35721 165.646 3.68427C165.497 4.01133 165.419 4.53032 165.419 5.24842C165.419 5.96652 165.497 6.47137 165.646 6.79842C165.796 7.12548 166.052 7.28901 166.4 7.28901Z" fill="#010101"/>
<path d="M171.732 8.15561C171.483 8.15561 171.362 8.03473 171.362 7.78588V0.711528C171.362 0.46268 171.483 0.341797 171.732 0.341797H174.924C175.095 0.341797 175.18 0.476891 175.18 0.747069V0.967475C175.18 1.23765 175.095 1.36563 174.924 1.36563H172.585V3.64082H174.683C174.846 3.64082 174.931 3.77591 174.931 4.03897V4.25938C174.931 4.52956 174.846 4.66465 174.683 4.66465H172.585V7.11755H174.924C175.095 7.11755 175.18 7.25263 175.18 7.5157V7.73611C175.18 8.00628 175.095 8.1343 174.924 8.1343H171.732V8.15561Z" fill="#010101"/>
<path d="M175.764 8.15615C175.572 8.15615 175.473 8.09215 175.473 7.96417C175.473 7.93573 175.48 7.90021 175.501 7.85755C175.522 7.81489 175.537 7.77223 175.565 7.72957L176.88 5.15578L175.665 2.72415C175.622 2.63883 175.601 2.56062 175.601 2.50374C175.601 2.43264 175.636 2.37579 175.714 2.34735C175.793 2.31891 175.921 2.30469 176.098 2.30469H176.297C176.418 2.30469 176.518 2.31178 176.61 2.33311C176.696 2.35444 176.76 2.4042 176.788 2.49663L177.591 4.35943L178.359 2.51086C178.395 2.41132 178.459 2.35445 178.551 2.34023C178.637 2.3189 178.743 2.3118 178.864 2.3118H179.042C179.22 2.3118 179.348 2.32599 179.419 2.36154C179.49 2.39709 179.532 2.44687 179.532 2.51086C179.532 2.56063 179.504 2.63884 179.454 2.73127L178.238 5.19844L179.554 7.74376C179.611 7.85041 179.639 7.92864 179.639 7.98552C179.639 8.10639 179.54 8.16327 179.348 8.16327H178.921C178.8 8.16327 178.701 8.14906 178.608 8.12773C178.523 8.1064 178.452 8.03526 178.409 7.9144L177.527 5.93786L176.66 7.9144C176.617 8.03526 176.546 8.1064 176.461 8.12773C176.369 8.14906 176.269 8.16327 176.148 8.16327H175.757L175.764 8.15615Z" fill="#010101"/>
<path d="M181.004 10.4664C180.677 10.4664 180.513 10.374 180.513 10.1891V4.07461C180.513 3.60535 180.492 3.26408 180.456 3.05078C180.421 2.83748 180.399 2.68817 180.399 2.60285C180.399 2.53886 180.449 2.48199 180.556 2.43933C180.662 2.39667 180.776 2.36824 180.911 2.35402C181.046 2.3398 181.146 2.33267 181.224 2.33267C181.331 2.33267 181.402 2.38245 181.445 2.47487C181.487 2.57441 181.537 2.75218 181.587 3.02235C181.914 2.50333 182.348 2.24023 182.881 2.24023C183.414 2.24023 183.855 2.51042 184.168 3.05078C184.48 3.59113 184.644 4.30922 184.644 5.21218C184.644 6.17913 184.473 6.9257 184.139 7.45183C183.805 7.97797 183.371 8.24102 182.838 8.24102C182.568 8.24102 182.34 8.18416 182.156 8.07751C181.964 7.97086 181.807 7.83577 181.672 7.67224V10.1963C181.672 10.3811 181.509 10.4736 181.181 10.4736H181.004V10.4664ZM182.511 7.25273C183.151 7.25273 183.471 6.57021 183.471 5.19799C183.471 3.82577 183.165 3.2001 182.554 3.2001C182.227 3.2001 181.935 3.39916 181.672 3.80443V6.78349C181.907 7.09633 182.191 7.25273 182.511 7.25273Z" fill="#010101"/>
<path d="M187.871 8.2346C186.314 8.2346 185.539 7.24634 185.539 5.27689C185.539 4.24595 185.731 3.47805 186.122 2.98746C186.513 2.49688 187.061 2.24805 187.764 2.24805C188.468 2.24805 188.952 2.50402 189.272 3.01593C189.599 3.52785 189.755 4.25307 189.755 5.19869C189.755 5.53997 189.613 5.71058 189.322 5.71058H186.719C186.734 6.25805 186.84 6.66332 187.039 6.91216C187.238 7.16812 187.53 7.28901 187.928 7.28901C188.184 7.28901 188.404 7.25345 188.596 7.18946C188.788 7.12547 188.952 7.05435 189.073 6.99036C189.201 6.92637 189.286 6.89086 189.329 6.89086C189.386 6.89086 189.435 6.92639 189.478 7.0046C189.521 7.0757 189.549 7.16812 189.57 7.26054C189.592 7.35297 189.606 7.43831 189.606 7.5023C189.606 7.60184 189.521 7.7085 189.35 7.82226C189.179 7.93602 188.959 8.03554 188.689 8.12086C188.419 8.19907 188.141 8.24172 187.85 8.24172L187.871 8.2346ZM186.734 4.84319H188.653C188.653 3.72693 188.355 3.17233 187.75 3.17233C187.437 3.17233 187.189 3.30742 187.011 3.57048C186.833 3.83355 186.741 4.26014 186.734 4.85026V4.84319Z" fill="#010101"/>
<path d="M191.377 8.18483C191.035 8.18483 190.865 8.09243 190.865 7.90757V4.08242C190.865 3.61317 190.843 3.27189 190.808 3.05859C190.772 2.84529 190.751 2.69598 190.751 2.61066C190.751 2.54667 190.801 2.48981 190.9 2.44715C191 2.40449 191.114 2.37601 191.249 2.36179C191.377 2.34757 191.483 2.34048 191.554 2.34048C191.668 2.34048 191.746 2.39735 191.789 2.50399C191.832 2.61064 191.889 2.81683 191.945 3.12256C192.102 2.85949 192.301 2.65333 192.543 2.4898C192.784 2.32628 193.019 2.24805 193.239 2.24805C193.382 2.24805 193.474 2.28361 193.524 2.3476C193.574 2.41159 193.595 2.51822 193.595 2.6462C193.595 2.75285 193.581 2.8666 193.559 2.98746C193.538 3.10833 193.503 3.21499 193.467 3.30742C193.424 3.39274 193.375 3.44251 193.318 3.44251C193.261 3.44251 193.197 3.4283 193.126 3.40697C193.055 3.37853 192.955 3.37143 192.82 3.37143C192.642 3.37143 192.479 3.42118 192.337 3.52783C192.194 3.63448 192.088 3.76245 192.031 3.92598V7.90757C192.031 8.09243 191.853 8.18483 191.505 8.18483H191.384H191.377Z" fill="#010101"/>
<path d="M195.444 8.23408C195.238 8.23408 195.031 8.19143 194.839 8.10611C194.64 8.02079 194.477 7.87148 194.349 7.66529C194.221 7.45911 194.157 7.16762 194.157 6.7979V3.27136H193.766C193.595 3.27136 193.51 3.13627 193.51 2.8732V2.73099C193.51 2.46082 193.595 2.33284 193.766 2.33284H194.157L194.299 1.19527C194.327 1.01041 194.47 0.917969 194.711 0.917969H194.882C195.038 0.917969 195.152 0.939281 195.216 0.989051C195.28 1.03882 195.316 1.10995 195.316 1.19527V2.33284H195.984C196.155 2.33284 196.24 2.46793 196.24 2.73099V2.8732C196.24 3.14338 196.155 3.27136 195.984 3.27136H195.316V6.66281C195.316 6.89744 195.344 7.06808 195.394 7.1534C195.444 7.24583 195.543 7.28849 195.693 7.28849C195.813 7.28849 195.899 7.28135 195.963 7.26002C196.027 7.23869 196.069 7.2316 196.105 7.2316C196.162 7.2316 196.212 7.27424 196.24 7.35245C196.268 7.43777 196.29 7.5231 196.304 7.62264C196.318 7.72217 196.325 7.79327 196.325 7.84304C196.325 7.92836 196.276 7.99234 196.183 8.05633C196.084 8.11321 195.97 8.16298 195.835 8.19142C195.7 8.21986 195.572 8.23408 195.451 8.23408H195.444Z" fill="#010101"/>
<path d="M199.07 8.2346C198.36 8.2346 197.812 7.97864 197.442 7.47383C197.073 6.96192 196.888 6.22961 196.888 5.26265C196.888 4.2957 197.073 3.54915 197.449 3.03012C197.826 2.5111 198.367 2.24805 199.07 2.24805C199.774 2.24805 200.329 2.5111 200.692 3.03012C201.054 3.54915 201.246 4.2957 201.246 5.26265C201.246 6.22961 201.061 6.96903 200.692 7.47383C200.322 7.98575 199.781 8.2346 199.07 8.2346ZM199.056 7.28901C199.398 7.28901 199.646 7.12548 199.81 6.79842C199.966 6.47137 200.052 5.9523 200.052 5.24842C200.052 4.54454 199.973 4.01133 199.81 3.68427C199.646 3.35721 199.398 3.19368 199.056 3.19368C198.715 3.19368 198.459 3.35721 198.303 3.68427C198.153 4.01133 198.075 4.53032 198.075 5.24842C198.075 5.96652 198.153 6.47137 198.303 6.79842C198.452 7.12548 198.708 7.28901 199.056 7.28901Z" fill="#010101"/>
<path d="M197.968 19.8032L201.282 14.0584C202.213 12.4515 201.047 10.4395 199.191 10.4395H193.027H198.665C198.438 10.4395 198.217 10.4679 198.011 10.5248H162.909C162.703 10.4679 162.483 10.4395 162.255 10.4395H146.208C144.352 10.4395 143.193 12.4515 144.118 14.0584L147.431 19.8032L144.118 25.5481C143.186 27.1549 144.352 29.167 146.208 29.167H198.665H193.027H199.191C201.047 29.167 202.206 27.1549 201.282 25.5481L197.968 19.8032Z" fill="#D7A016"/>
<path d="M163.698 26.4012C162.219 26.4012 161.132 25.9249 160.435 24.965C159.738 24.0052 159.39 22.5121 159.39 20.4858C159.39 18.4595 159.738 16.9663 160.435 16.0065C161.132 15.0466 162.219 14.5703 163.698 14.5703C165.177 14.5703 166.279 15.0466 166.976 16.0065C167.673 16.9663 168.021 18.4595 168.021 20.4858C168.021 22.5121 167.673 24.0052 166.976 24.965C166.279 25.9249 165.184 26.4012 163.698 26.4012ZM163.713 24.2398C164.331 24.2398 164.765 23.9483 165.028 23.3653C165.291 22.7823 165.419 21.8224 165.419 20.4929C165.419 19.1633 165.291 18.1892 165.028 17.6133C164.772 17.0374 164.331 16.746 163.713 16.746C163.094 16.746 162.667 17.0374 162.397 17.6133C162.127 18.1892 161.992 19.1562 161.992 20.4929C161.992 21.8295 162.127 22.7823 162.397 23.3653C162.667 23.9483 163.108 24.2398 163.713 24.2398Z" fill="white"/>
<path d="M170.339 26.3024C169.678 26.3024 169.351 26.1175 169.351 25.7549V15.3673C169.351 14.9265 169.571 14.7061 170.012 14.7061H172.82C174.029 14.7061 174.932 15.0047 175.522 15.5877C176.112 16.1778 176.404 17.095 176.404 18.3392C176.404 18.8654 176.311 19.3204 176.133 19.7043C175.956 20.0883 175.721 20.3798 175.451 20.5931C175.174 20.8064 174.882 20.9272 174.576 20.9486V21.0126C174.797 21.0908 175.003 21.233 175.195 21.4534C175.387 21.6667 175.522 21.9155 175.6 22.1857L176.61 25.4918C176.653 25.6269 176.674 25.7478 176.674 25.8686C176.674 26.0464 176.603 26.1602 176.468 26.217C176.333 26.2739 176.07 26.3024 175.686 26.3024H175.11C174.847 26.3024 174.626 26.2668 174.448 26.2028C174.271 26.1388 174.164 26.0179 174.121 25.8402L173.361 22.7829C173.282 22.463 173.169 22.2497 173.019 22.1359C172.87 22.0293 172.635 21.9724 172.315 21.9724H171.917V25.7549C171.917 26.1175 171.59 26.3024 170.929 26.3024H170.353H170.339ZM171.91 19.811H172.82C173.24 19.811 173.531 19.6972 173.688 19.4626C173.844 19.228 173.929 18.8582 173.929 18.3392C173.929 17.8202 173.851 17.4505 173.688 17.2158C173.531 16.9812 173.24 16.8675 172.82 16.8675H171.91V19.811Z" fill="white"/>
<path d="M181.601 26.4012C180.122 26.4012 179.034 25.9249 178.337 24.965C177.64 24.0052 177.292 22.5121 177.292 20.4858C177.292 18.4595 177.64 16.9663 178.337 16.0065C179.034 15.0466 180.122 14.5703 181.601 14.5703C183.079 14.5703 184.181 15.0466 184.878 16.0065C185.575 16.9663 185.923 18.4595 185.923 20.4858C185.923 22.5121 185.575 24.0052 184.878 24.965C184.181 25.9249 183.087 26.4012 181.601 26.4012ZM181.615 24.2398C182.233 24.2398 182.667 23.9483 182.93 23.3653C183.193 22.7823 183.321 21.8224 183.321 20.4929C183.321 19.1633 183.193 18.1892 182.93 17.6133C182.674 17.0374 182.233 16.746 181.615 16.746C180.996 16.746 180.57 17.0374 180.299 17.6133C180.029 18.1892 179.894 19.1562 179.894 20.4929C179.894 21.8295 180.029 22.7823 180.299 23.3653C180.57 23.9483 181.01 24.2398 181.615 24.2398Z" fill="white"/>
</svg>
