<svg width="189" height="78" viewBox="0 0 189 78" fill="none" xmlns="http://www.w3.org/2000/svg">
<path d="M10.6654 77.5052C8.38308 77.5052 6.78335 77.3772 5.85905 77.1212C4.93476 76.8653 4.47972 76.2965 4.47972 75.4077C4.47972 75.038 4.57215 74.5261 4.75701 73.8649C4.94187 73.2036 5.1765 72.4287 5.47512 71.547L25.0203 12.9185H3.37768C1.16649 12.9185 0.0644531 11.077 0.0644531 7.40117V5.52415C0.0644531 1.84121 1.16649 0.00683594 3.37768 0.00683594H37.8253C38.5577 0.00683594 39.2047 0.561402 39.7592 1.66344C40.3138 2.76548 40.7546 3.9813 41.0817 5.30375C41.4159 6.6262 41.5794 7.6998 41.5794 8.50322C41.5794 9.24265 41.5083 9.90387 41.359 10.494C41.2097 11.0841 41.0604 11.6743 40.9182 12.2573L21.4867 74.3128C21.0459 75.6353 20.342 76.5027 19.3893 76.9079C18.4294 77.3132 16.8866 77.5123 14.7536 77.5123H10.6654V77.5052Z" fill="#010101"/>
<path d="M54.9883 23.2842C53.0188 23.2842 51.4404 22.3599 50.2531 20.5185C49.0657 18.677 48.4756 15.7121 48.4756 11.6239C48.4756 7.53572 49.0657 4.67042 50.2531 2.81473C51.4404 0.951926 53.0188 0.0205078 54.9883 0.0205078C56.9577 0.0205078 58.4935 0.94481 59.6951 2.78628C60.8966 4.62776 61.501 7.57838 61.501 11.6239C61.501 15.6695 60.8966 18.677 59.6951 20.5185C58.4935 22.3599 56.9222 23.2842 54.9883 23.2842ZM54.9883 20.0563C55.8628 20.0563 56.5738 19.4377 57.1213 18.1935C57.6687 16.9564 57.9389 14.7665 57.9389 11.6239C57.9389 8.48134 57.6616 6.39813 57.1213 5.13967C56.5738 3.88121 55.8628 3.24843 54.9883 3.24843C54.1138 3.24843 53.4099 3.86699 52.8837 5.11123C52.3576 6.35546 52.0874 8.524 52.0874 11.6239C52.0874 14.7239 52.3505 16.9493 52.8837 18.1935C53.4099 19.4306 54.1138 20.0563 54.9883 20.0563ZM54.8816 38.9972C54.2986 38.9972 54.0071 38.8479 54.0071 38.5564C54.0071 38.4142 54.0782 38.1938 54.2275 37.9023L71.4122 1.12256C71.5544 0.795504 71.7322 0.582195 71.9313 0.489766C72.1303 0.397337 72.429 0.354676 72.8342 0.354676H73.7087C74.2918 0.354676 74.5833 0.503981 74.5833 0.795488C74.5833 0.944797 74.5122 1.1581 74.3629 1.44961L57.1781 38.2293C57.0288 38.5564 56.8582 38.7697 56.6591 38.8621C56.46 38.9545 56.1543 38.9972 55.7562 38.9972H54.8816ZM73.6021 39.1607C71.6327 39.1607 70.0542 38.2364 68.8669 36.395C67.6795 34.5535 67.0894 31.5886 67.0894 27.5004C67.0894 23.4122 67.6795 20.5469 68.8669 18.6912C70.0542 16.8284 71.6327 15.897 73.6021 15.897C75.5716 15.897 77.1073 16.8213 78.3089 18.6628C79.5105 20.5042 80.1148 23.4549 80.1148 27.5004C80.1148 31.546 79.5105 34.5535 78.3089 36.395C77.1073 38.2364 75.536 39.1607 73.6021 39.1607ZM73.6021 35.9328C74.4766 35.9328 75.1876 35.3143 75.7351 34.07C76.2825 32.8329 76.5527 30.643 76.5527 27.5004C76.5527 24.3578 76.2754 22.2746 75.7351 21.0162C75.1876 19.7577 74.4766 19.1249 73.6021 19.1249C72.7276 19.1249 72.0237 19.7435 71.4976 20.9877C70.9714 22.232 70.7012 24.4005 70.7012 27.5004C70.7012 30.6004 70.9643 32.8258 71.4976 34.07C72.0237 35.3143 72.7276 35.9328 73.6021 35.9328Z" fill="#010101"/>
<path d="M54.8112 76.8363C52.9697 76.8363 51.5122 75.9262 50.4457 74.0919C49.3721 72.2646 48.8389 69.8259 48.8389 66.7757C48.8389 63.4981 49.4077 60.9669 50.5381 59.1894C51.6686 57.4119 53.1617 56.5232 55.0032 56.5232C55.8848 56.5232 56.6456 56.7081 57.2926 57.0707C57.9396 57.4333 58.487 57.8954 58.935 58.45V49.072C58.935 48.4179 59.4895 48.0908 60.5987 48.0908H61.203C62.3122 48.0908 62.8668 48.4179 62.8668 49.072V70.6649C62.8668 72.2504 62.9308 73.4022 63.0587 74.1061C63.1867 74.81 63.2507 75.2934 63.2507 75.5423C63.2507 75.7911 63.073 75.9973 62.7246 76.1466C62.3691 76.2959 61.9709 76.4026 61.5159 76.4666C61.0609 76.5306 60.7053 76.559 60.4565 76.559C60.0797 76.559 59.8166 76.3741 59.6815 76.0115C59.5393 75.6489 59.3758 74.9735 59.1696 73.9852C58.6364 74.8668 57.9965 75.5636 57.2428 76.0684C56.4892 76.5732 55.6786 76.8221 54.8254 76.8221L54.8112 76.8363ZM55.9488 73.587C56.4749 73.587 57.0153 73.3951 57.5556 73.0183C58.096 72.6414 58.5581 72.1224 58.935 71.4683V61.4433C58.1244 60.3839 57.1859 59.8578 56.0981 59.8578C53.9296 59.8578 52.8418 62.1756 52.8418 66.8184C52.8418 71.4612 53.8727 73.587 55.9417 73.587H55.9488Z" fill="#010101"/>
<path d="M74.4772 76.8365C71.9532 76.8365 70.0406 75.9762 68.7324 74.2627C67.4241 72.5492 66.7629 70.0393 66.7629 66.7403C66.7629 63.4413 67.4028 60.9386 68.6897 59.1754C69.9766 57.4121 71.9034 56.5305 74.4772 56.5305C75.1811 56.5305 75.885 56.6087 76.5746 56.758C77.2714 56.9073 77.8402 57.1064 78.2952 57.341C78.7503 57.5828 78.9778 57.8245 78.9778 58.0804C78.9778 58.308 78.9422 58.5995 78.864 58.9478C78.7858 59.3033 78.6792 59.6162 78.5441 59.8935C78.4019 60.1708 78.2455 60.313 78.0677 60.313C77.8118 60.313 77.4065 60.2205 76.8377 60.0286C76.2689 59.8366 75.5579 59.7442 74.6976 59.7442C73.3112 59.7442 72.3158 60.2916 71.7114 61.3866C71.1071 62.4815 70.8014 64.2519 70.8014 66.6977C70.8014 69.1435 71.1071 70.8783 71.7114 71.9733C72.3158 73.0682 73.3112 73.6157 74.6976 73.6157C75.629 73.6157 76.404 73.4948 77.0225 73.2602C77.6411 73.0184 78.0748 72.9047 78.3237 72.9047C78.5014 72.9047 78.6578 73.0398 78.8 73.3028C78.9351 73.5659 79.0418 73.8787 79.1058 74.2271C79.1697 74.5826 79.1982 74.8812 79.1982 75.1372C79.1982 75.3931 78.9565 75.6491 78.4801 75.9122C78.0037 76.1752 77.3994 76.3956 76.6813 76.5734C75.9632 76.7511 75.2237 76.8365 74.4701 76.8365H74.4772Z" fill="#010101"/>
<path d="M86.3941 76.8358C85.6902 76.8358 85.0005 76.6936 84.3322 76.4021C83.6639 76.1106 83.1093 75.6129 82.6685 74.909C82.2277 74.2052 82.0072 73.2169 82.0072 71.9584V60.0066H80.6848C80.1018 60.0066 79.8174 59.5516 79.8174 58.6415V58.1509C79.8174 57.2408 80.1089 56.7858 80.6848 56.7858H82.0072L82.4978 52.9251C82.5974 52.2923 83.0666 51.9795 83.8985 51.9795H84.4673C84.9934 51.9795 85.3774 52.0648 85.6049 52.2283C85.8324 52.3919 85.9462 52.6265 85.9462 52.9251V56.7858H88.2142C88.7972 56.7858 89.0816 57.2408 89.0816 58.1509V58.6415C89.0816 59.5516 88.7901 60.0066 88.2142 60.0066H85.9462V71.5034C85.9462 72.3139 86.0315 72.8685 86.2092 73.1671C86.387 73.4657 86.7282 73.6221 87.2331 73.6221C87.6383 73.6221 87.9369 73.5937 88.1431 73.5297C88.3422 73.4657 88.5057 73.4373 88.6337 73.4373C88.8328 73.4373 88.9892 73.5795 89.0887 73.8496C89.1883 74.1269 89.2665 74.4398 89.3163 74.7739C89.366 75.1152 89.3945 75.357 89.3945 75.5134C89.3945 75.7907 89.2309 76.0324 88.9039 76.2315C88.5768 76.4306 88.1787 76.587 87.7165 76.6865C87.2473 76.7861 86.8136 76.8358 86.4154 76.8358H86.3941Z" fill="#010101"/>
<path d="M98.6863 76.8365C96.269 76.8365 94.4275 75.9762 93.1619 74.2485C91.9035 72.5207 91.2707 70.018 91.2707 66.7403C91.2707 63.4627 91.9035 60.9386 93.1833 59.1754C94.463 57.4121 96.2903 56.5305 98.6863 56.5305C101.082 56.5305 102.938 57.4121 104.189 59.1754C105.434 60.9386 106.059 63.4627 106.059 66.7403C106.059 70.018 105.434 72.5207 104.189 74.2485C102.938 75.9762 101.111 76.8365 98.6863 76.8365ZM98.6508 73.6228C99.8097 73.6228 100.663 73.0682 101.203 71.9591C101.744 70.8499 102.014 69.1008 102.014 66.7048C102.014 64.3087 101.744 62.517 101.203 61.4079C100.663 60.2987 99.8097 59.7442 98.6508 59.7442C97.4919 59.7442 96.6174 60.2987 96.0983 61.4079C95.5793 62.517 95.3233 64.2803 95.3233 66.7048C95.3233 69.1293 95.5793 70.8499 96.0983 71.9591C96.6174 73.0682 97.4634 73.6228 98.6508 73.6228Z" fill="#010101"/>
<path d="M110.518 76.644C109.33 76.644 108.74 76.3312 108.74 75.6984V72.9398C108.74 72.307 109.33 71.9941 110.518 71.9941H111.271C112.459 71.9941 113.049 72.307 113.049 72.9398V75.6984C113.049 76.3312 112.459 76.644 111.271 76.644H110.518Z" fill="#010101"/>
<path d="M141.374 45.6952C140.009 45.6952 138.779 45.5672 137.691 45.3042C136.596 45.0482 135.743 44.6927 135.11 44.2377C134.478 43.7827 134.172 43.2921 134.172 42.7446C134.172 42.5029 134.264 42.1189 134.456 41.5999C134.648 41.0809 134.897 40.6045 135.217 40.1708C135.53 39.7371 135.836 39.5167 136.134 39.5167C136.404 39.5167 136.739 39.6305 137.137 39.8651C137.535 40.0997 138.061 40.3272 138.736 40.5619C139.412 40.7965 140.272 40.9102 141.339 40.9102C142.512 40.9102 143.443 40.5405 144.14 39.8082C144.837 39.0759 145.185 38.0378 145.185 36.6941C145.185 35.2507 144.844 34.1274 144.161 33.3382C143.479 32.549 142.291 32.1508 140.599 32.1508H136.959C136.362 32.1508 135.949 32.0228 135.729 31.7598C135.509 31.5038 135.416 31.0843 135.445 30.5084L136.22 18.3504C136.276 17.7745 136.426 17.3621 136.667 17.0991C136.916 16.8431 137.336 16.708 137.94 16.708H148.378C149.195 16.708 149.608 17.3906 149.608 18.7557V19.8577C149.608 20.9527 149.195 21.493 148.378 21.493H141.623L141.211 27.3445H141.58C143.493 27.3445 145.15 27.6147 146.55 28.1621C147.958 28.7096 149.053 29.6481 149.842 30.9848C150.631 32.3214 151.03 34.1629 151.03 36.5092C151.03 38.2298 150.745 39.6802 150.169 40.8676C149.593 42.0549 148.847 42.9935 147.915 43.6902C146.984 44.387 145.953 44.8918 144.801 45.2047C143.657 45.5175 142.512 45.6739 141.36 45.6739L141.374 45.6952Z" fill="#B74B17"/>
<path d="M159.234 29.3206C158.545 29.3206 157.99 29.0006 157.578 28.3536C157.165 27.7066 156.952 26.6686 156.952 25.2395C156.952 23.8104 157.158 22.8079 157.578 22.1537C157.99 21.4996 158.545 21.1797 159.234 21.1797C159.924 21.1797 160.457 21.4996 160.884 22.1467C161.303 22.7937 161.517 23.8246 161.517 25.2395C161.517 26.6543 161.303 27.7066 160.884 28.3536C160.464 29.0006 159.91 29.3206 159.234 29.3206ZM159.234 28.1901C159.54 28.1901 159.789 27.9768 159.981 27.536C160.173 27.0952 160.265 26.3344 160.265 25.2395C160.265 24.1445 160.173 23.4122 159.981 22.9714C159.789 22.5306 159.54 22.3102 159.234 22.3102C158.929 22.3102 158.68 22.5306 158.495 22.9643C158.31 23.398 158.218 24.1588 158.218 25.2466C158.218 26.3344 158.31 27.1094 158.495 27.5431C158.68 27.9768 158.929 28.1972 159.234 28.1972V28.1901ZM159.199 34.8165C158.993 34.8165 158.893 34.7668 158.893 34.6601C158.893 34.6104 158.922 34.5322 158.971 34.4326L164.986 21.5636C165.036 21.4499 165.1 21.3788 165.171 21.3432C165.242 21.3077 165.349 21.2934 165.484 21.2934H165.79C165.996 21.2934 166.096 21.3432 166.096 21.4428C166.096 21.4925 166.067 21.5707 166.017 21.6703L160.002 34.5393C159.953 34.653 159.889 34.7241 159.817 34.7597C159.746 34.7881 159.64 34.8094 159.505 34.8094H159.199V34.8165ZM165.747 34.8734C165.057 34.8734 164.503 34.5535 164.091 33.9065C163.678 33.2595 163.465 32.2214 163.465 30.7923C163.465 29.3632 163.671 28.3607 164.091 27.7066C164.503 27.0525 165.057 26.7325 165.747 26.7325C166.437 26.7325 166.97 27.0525 167.397 27.6995C167.816 28.3465 168.029 29.3774 168.029 30.7923C168.029 32.2072 167.816 33.2595 167.397 33.9065C166.977 34.5535 166.43 34.8734 165.747 34.8734ZM165.747 33.743C166.053 33.743 166.302 33.5296 166.494 33.0888C166.686 32.6551 166.778 31.8872 166.778 30.7923C166.778 29.6974 166.686 28.9651 166.494 28.5242C166.302 28.0834 166.053 27.863 165.747 27.863C165.441 27.863 165.193 28.0834 165.008 28.5171C164.823 28.9509 164.73 29.7116 164.73 30.7994C164.73 31.8873 164.823 32.6622 165.008 33.096C165.193 33.5297 165.441 33.7501 165.747 33.7501V33.743Z" fill="#B74B17"/>
<path d="M153.852 44.792C153.276 44.792 152.814 44.5077 152.479 43.9317C152.145 43.3558 151.975 42.588 151.975 41.6352C151.975 40.6043 152.152 39.808 152.508 39.2534C152.863 38.6917 153.333 38.4144 153.909 38.4144C154.186 38.4144 154.428 38.4713 154.627 38.5851C154.826 38.6988 155.003 38.841 155.146 39.0188V36.0753C155.146 35.8691 155.323 35.7695 155.672 35.7695H155.864C156.212 35.7695 156.39 35.8691 156.39 36.0753V42.8581C156.39 43.3558 156.411 43.7185 156.447 43.9389C156.489 44.1593 156.504 44.3086 156.504 44.3868C156.504 44.465 156.447 44.529 156.34 44.5788C156.226 44.6285 156.105 44.657 155.956 44.6783C155.814 44.6996 155.7 44.7067 155.622 44.7067C155.501 44.7067 155.423 44.6499 155.38 44.5361C155.338 44.4223 155.281 44.209 155.217 43.9033C155.053 44.1806 154.847 44.401 154.612 44.5574C154.378 44.7138 154.122 44.792 153.852 44.792ZM154.207 43.7682C154.371 43.7682 154.541 43.7113 154.712 43.5905C154.883 43.4696 155.025 43.3132 155.146 43.107V39.9573C154.89 39.6231 154.598 39.4596 154.257 39.4596C153.574 39.4596 153.233 40.1919 153.233 41.6495C153.233 43.107 153.56 43.7753 154.207 43.7753V43.7682Z" fill="#B74B17"/>
<path d="M160.03 44.792C159.241 44.792 158.637 44.5218 158.224 43.9815C157.812 43.4411 157.606 42.6519 157.606 41.6139C157.606 40.5758 157.805 39.7937 158.21 39.2391C158.615 38.6846 159.22 38.4073 160.03 38.4073C160.251 38.4073 160.471 38.4286 160.691 38.4784C160.912 38.5281 161.09 38.585 161.232 38.6632C161.374 38.7414 161.445 38.8126 161.445 38.8979C161.445 38.969 161.431 39.0614 161.409 39.168C161.388 39.2818 161.353 39.3742 161.31 39.4667C161.267 39.552 161.217 39.5946 161.161 39.5946C161.082 39.5946 160.954 39.5662 160.777 39.5022C160.599 39.4453 160.371 39.4169 160.108 39.4169C159.675 39.4169 159.362 39.5875 159.17 39.9359C158.978 40.2843 158.885 40.8389 158.885 41.6068C158.885 42.3746 158.978 42.9221 159.17 43.2634C159.362 43.6046 159.675 43.7824 160.108 43.7824C160.4 43.7824 160.642 43.7468 160.841 43.6686C161.033 43.5904 161.175 43.5549 161.253 43.5549C161.31 43.5549 161.36 43.5975 161.402 43.6829C161.445 43.7682 161.481 43.8606 161.495 43.9744C161.516 44.0881 161.523 44.1805 161.523 44.2588C161.523 44.337 161.445 44.4223 161.296 44.5005C161.146 44.5858 160.954 44.6498 160.734 44.7067C160.506 44.7636 160.279 44.792 160.037 44.792H160.03Z" fill="#B74B17"/>
<path d="M163.778 44.7918C163.557 44.7918 163.337 44.7491 163.131 44.6567C162.917 44.5643 162.747 44.4079 162.605 44.1875C162.462 43.9671 162.398 43.6542 162.398 43.2632V39.5091H161.986C161.801 39.5091 161.716 39.3669 161.716 39.0825V38.9261C161.716 38.6417 161.808 38.4995 161.986 38.4995H162.398L162.555 37.2908C162.583 37.0917 162.733 36.9922 162.996 36.9922H163.173C163.337 36.9922 163.458 37.0206 163.529 37.0704C163.6 37.1202 163.636 37.1984 163.636 37.2908V38.4995H164.347C164.531 38.4995 164.617 38.6417 164.617 38.9261V39.0825C164.617 39.3669 164.524 39.5091 164.347 39.5091H163.636V43.121C163.636 43.3769 163.664 43.5476 163.721 43.6471C163.778 43.7395 163.884 43.7893 164.041 43.7893C164.169 43.7893 164.261 43.7822 164.325 43.7609C164.389 43.7395 164.439 43.7324 164.482 43.7324C164.546 43.7324 164.595 43.7751 164.624 43.8604C164.652 43.9457 164.681 44.0453 164.695 44.1519C164.709 44.2586 164.716 44.3368 164.716 44.3865C164.716 44.4719 164.666 44.5501 164.56 44.614C164.453 44.678 164.332 44.7278 164.183 44.7562C164.034 44.7847 163.899 44.806 163.771 44.806L163.778 44.7918Z" fill="#B74B17"/>
<path d="M167.638 44.7919C166.877 44.7919 166.301 44.5217 165.903 43.9813C165.505 43.441 165.306 42.6518 165.306 41.6208C165.306 40.5899 165.505 39.8007 165.903 39.2461C166.301 38.6915 166.877 38.4142 167.631 38.4142C168.384 38.4142 168.967 38.6915 169.358 39.2461C169.749 39.8007 169.949 40.5899 169.949 41.6208C169.949 42.6518 169.749 43.4339 169.358 43.9813C168.967 44.5217 168.391 44.7919 167.631 44.7919H167.638ZM167.624 43.7822C167.986 43.7822 168.256 43.6045 168.427 43.2561C168.598 42.9077 168.683 42.3603 168.683 41.6066C168.683 40.853 168.598 40.2913 168.427 39.9429C168.256 39.5945 167.986 39.4167 167.624 39.4167C167.261 39.4167 166.984 39.5945 166.82 39.9429C166.657 40.2913 166.578 40.8458 166.578 41.6066C166.578 42.3674 166.657 42.9077 166.82 43.2561C166.984 43.6045 167.247 43.7822 167.624 43.7822Z" fill="#B74B17"/>
<path d="M171.356 44.7283C170.986 44.7283 170.794 44.6288 170.794 44.4297V43.5623C170.794 43.3632 170.979 43.2637 171.356 43.2637H171.59C171.96 43.2637 172.152 43.3632 172.152 43.5623V44.4297C172.152 44.6288 171.967 44.7283 171.59 44.7283H171.356Z" fill="#B74B17"/>
<path d="M135.394 13.8427C135.096 13.8427 134.946 13.7645 134.946 13.6152C134.946 13.5726 134.953 13.5085 134.968 13.4161L137.015 5.76584C137.072 5.57387 137.257 5.48145 137.577 5.48145H138.103C138.423 5.48145 138.608 5.57387 138.665 5.76584L140.698 13.4161C140.705 13.473 140.712 13.5157 140.72 13.5441C140.727 13.5726 140.734 13.601 140.734 13.6223C140.734 13.7716 140.584 13.8498 140.279 13.8498H139.945C139.817 13.8498 139.71 13.8356 139.618 13.8001C139.525 13.7716 139.475 13.7076 139.454 13.6223L139.013 11.8164H136.66L136.212 13.6223C136.198 13.7076 136.141 13.7716 136.048 13.8001C135.956 13.8285 135.849 13.8498 135.721 13.8498H135.401L135.394 13.8427ZM137.655 7.72107L136.909 10.7641H138.75L138.004 7.72107C137.975 7.6002 137.947 7.47933 137.925 7.34425C137.904 7.20916 137.883 7.08116 137.861 6.95319H137.804C137.79 7.08116 137.769 7.20916 137.748 7.34425C137.726 7.47933 137.698 7.60731 137.662 7.72107H137.655Z" fill="#010101"/>
<path d="M143.095 13.8995C142.519 13.8995 142.057 13.6151 141.723 13.0391C141.388 12.4632 141.218 11.6954 141.218 10.7427C141.218 9.71171 141.396 8.91539 141.751 8.36082C142.107 7.79913 142.576 7.52185 143.152 7.52185C143.429 7.52185 143.671 7.57872 143.87 7.69248C144.069 7.80624 144.247 7.94845 144.389 8.1262V5.18268C144.389 4.97649 144.567 4.87695 144.915 4.87695H145.107C145.455 4.87695 145.633 4.97649 145.633 5.18268V11.9656C145.633 12.4633 145.654 12.8259 145.69 13.0463C145.733 13.2667 145.747 13.416 145.747 13.4942C145.747 13.5724 145.69 13.6364 145.583 13.6862C145.47 13.7359 145.349 13.7644 145.199 13.7857C145.057 13.807 144.943 13.8142 144.865 13.8142C144.744 13.8142 144.666 13.7573 144.623 13.6435C144.581 13.5297 144.524 13.3165 144.46 13.0107C144.296 13.288 144.09 13.5084 143.856 13.6648C143.621 13.8212 143.365 13.8995 143.095 13.8995ZM143.45 12.8756C143.614 12.8756 143.784 12.8188 143.955 12.6979C144.126 12.577 144.268 12.4206 144.389 12.2144V9.0647C144.133 8.73053 143.841 8.56701 143.5 8.56701C142.818 8.56701 142.476 9.29933 142.476 10.7569C142.476 12.2144 142.803 12.8827 143.45 12.8827V12.8756Z" fill="#010101"/>
<path d="M147.751 6.81753C147.523 6.81753 147.36 6.7891 147.26 6.73933C147.168 6.68956 147.118 6.61135 147.118 6.51892V5.74394C147.118 5.65151 147.168 5.5733 147.26 5.52353C147.353 5.47376 147.516 5.44531 147.751 5.44531C147.986 5.44531 148.135 5.47376 148.227 5.52353C148.32 5.5733 148.37 5.65151 148.37 5.74394V6.51892C148.37 6.61135 148.32 6.68956 148.227 6.73933C148.135 6.7891 147.971 6.81753 147.751 6.81753ZM147.659 13.8421C147.459 13.8421 147.324 13.8137 147.246 13.7639C147.168 13.7142 147.125 13.636 147.125 13.5435V7.87692C147.125 7.78449 147.168 7.70628 147.246 7.65651C147.324 7.60675 147.467 7.57829 147.659 7.57829H147.822C148.021 7.57829 148.156 7.60675 148.234 7.65651C148.313 7.70628 148.355 7.78449 148.355 7.87692V13.5435C148.355 13.636 148.313 13.7142 148.234 13.7639C148.156 13.8137 148.014 13.8421 147.822 13.8421H147.659Z" fill="#010101"/>
<path d="M152.003 13.8994C151.213 13.8994 150.609 13.6292 150.197 13.0888C149.784 12.5485 149.578 11.7593 149.578 10.7212C149.578 9.68319 149.777 8.9011 150.182 8.34652C150.588 7.79195 151.192 7.51465 152.003 7.51465C152.223 7.51465 152.443 7.53598 152.664 7.58575C152.884 7.63552 153.062 7.69241 153.204 7.77062C153.346 7.84883 153.418 7.91992 153.418 8.00524C153.418 8.07634 153.403 8.16877 153.382 8.27542C153.361 8.38918 153.325 8.48159 153.282 8.57402C153.24 8.65934 153.19 8.70202 153.133 8.70202C153.055 8.70202 152.927 8.67357 152.749 8.60958C152.571 8.55271 152.344 8.52427 152.081 8.52427C151.647 8.52427 151.334 8.69489 151.142 9.04328C150.95 9.39167 150.858 9.94625 150.858 10.7141C150.858 11.482 150.95 12.0295 151.142 12.3707C151.334 12.712 151.647 12.8898 152.081 12.8898C152.372 12.8898 152.614 12.8542 152.813 12.776C153.005 12.6978 153.147 12.6622 153.226 12.6622C153.282 12.6622 153.332 12.7049 153.375 12.7902C153.418 12.8756 153.453 12.968 153.467 13.0817C153.489 13.1955 153.496 13.2879 153.496 13.3661C153.496 13.4443 153.417 13.5297 153.268 13.6079C153.119 13.6932 152.927 13.7572 152.707 13.8141C152.479 13.8709 152.251 13.8994 152.01 13.8994H152.003Z" fill="#010101"/>
<path d="M154.875 6.81753C154.647 6.81753 154.484 6.7891 154.384 6.73933C154.292 6.68956 154.242 6.61135 154.242 6.51892V5.74394C154.242 5.65151 154.292 5.5733 154.384 5.52353C154.477 5.47376 154.64 5.44531 154.875 5.44531C155.11 5.44531 155.259 5.47376 155.351 5.52353C155.444 5.5733 155.494 5.65151 155.494 5.74394V6.51892C155.494 6.61135 155.444 6.68956 155.351 6.73933C155.259 6.7891 155.095 6.81753 154.875 6.81753ZM154.783 13.8421C154.583 13.8421 154.448 13.8137 154.37 13.7639C154.292 13.7142 154.249 13.636 154.249 13.5435V7.87692C154.249 7.78449 154.292 7.70628 154.37 7.65651C154.448 7.60675 154.591 7.57829 154.783 7.57829H154.946C155.145 7.57829 155.28 7.60675 155.358 7.65651C155.437 7.70628 155.479 7.78449 155.479 7.87692V13.5435C155.479 13.636 155.437 13.7142 155.358 13.7639C155.28 13.8137 155.138 13.8421 154.946 13.8421H154.783Z" fill="#010101"/>
<path d="M159.034 13.9001C158.273 13.9001 157.698 13.6299 157.299 13.0895C156.901 12.5492 156.702 11.76 156.702 10.729C156.702 9.69809 156.901 8.90889 157.299 8.35431C157.698 7.79974 158.273 7.52246 159.027 7.52246C159.781 7.52246 160.364 7.79974 160.755 8.35431C161.146 8.90889 161.345 9.69809 161.345 10.729C161.345 11.76 161.146 12.5421 160.755 13.0895C160.364 13.6299 159.788 13.9001 159.027 13.9001H159.034ZM159.02 12.8905C159.383 12.8905 159.653 12.7127 159.823 12.3643C159.994 12.0159 160.079 11.4685 160.079 10.7148C160.079 9.96116 159.994 9.39948 159.823 9.05109C159.653 8.70271 159.383 8.52497 159.02 8.52497C158.657 8.52497 158.38 8.70271 158.217 9.05109C158.053 9.39948 157.975 9.95405 157.975 10.7148C157.975 11.4756 158.053 12.0159 158.217 12.3643C158.38 12.7127 158.643 12.8905 159.02 12.8905Z" fill="#010101"/>
<path d="M163.102 13.8432C162.903 13.8432 162.768 13.8148 162.69 13.765C162.611 13.7152 162.569 13.637 162.569 13.5446V9.47057C162.569 8.97288 162.547 8.61027 162.512 8.38275C162.469 8.15524 162.455 7.99882 162.455 7.89928C162.455 7.82818 162.512 7.77129 162.618 7.72863C162.732 7.68597 162.853 7.65753 162.995 7.64331C163.137 7.62909 163.251 7.62199 163.329 7.62199C163.45 7.62199 163.529 7.67888 163.571 7.79264C163.614 7.9064 163.671 8.11968 163.735 8.42541C163.927 8.16234 164.154 7.94904 164.424 7.7784C164.695 7.60777 164.993 7.52246 165.327 7.52246C165.754 7.52246 166.117 7.65043 166.422 7.9135C166.721 8.17656 166.877 8.58894 166.877 9.15773V13.5446C166.877 13.637 166.835 13.7152 166.749 13.765C166.664 13.8148 166.529 13.8432 166.337 13.8432H166.173C165.974 13.8432 165.832 13.8148 165.754 13.765C165.669 13.7152 165.626 13.637 165.626 13.5446V9.40659C165.626 9.13641 165.562 8.93022 165.441 8.78091C165.32 8.6316 165.121 8.5605 164.844 8.5605C164.666 8.5605 164.51 8.60317 164.368 8.68138C164.225 8.75959 164.104 8.85912 164.012 8.96577C163.92 9.07953 163.848 9.17906 163.813 9.26438V13.5446C163.813 13.637 163.77 13.7152 163.692 13.765C163.614 13.8148 163.472 13.8432 163.28 13.8432H163.102Z" fill="#010101"/>
<path d="M169.706 13.8999C169.18 13.8999 168.775 13.7364 168.469 13.4093C168.171 13.0823 168.021 12.6272 168.021 12.0442C168.021 11.5039 168.156 11.0773 168.427 10.7644C168.697 10.4445 169.067 10.217 169.529 10.0819C169.998 9.9468 170.524 9.87569 171.121 9.87569V9.41355C171.121 9.17181 171.057 8.95851 170.922 8.78787C170.787 8.61723 170.545 8.5319 170.197 8.5319C169.906 8.5319 169.642 8.56747 169.408 8.63145C169.173 8.69544 168.981 8.76654 168.832 8.83053C168.683 8.89452 168.576 8.92296 168.526 8.92296C168.476 8.92296 168.42 8.88029 168.377 8.79497C168.334 8.70965 168.299 8.61012 168.284 8.49636C168.263 8.3826 168.256 8.29728 168.256 8.22618C168.256 8.14086 168.356 8.04132 168.555 7.93467C168.754 7.82802 169.003 7.7356 169.315 7.65028C169.628 7.56496 169.941 7.5294 170.254 7.5294C170.958 7.5294 171.491 7.70005 171.847 8.03422C172.202 8.36839 172.38 8.83053 172.38 9.40644V11.9873C172.38 12.485 172.401 12.8476 172.437 13.068C172.472 13.2885 172.494 13.4378 172.494 13.516C172.494 13.5942 172.437 13.6582 172.323 13.7079C172.209 13.7577 172.081 13.7862 171.946 13.8075C171.811 13.8288 171.704 13.8359 171.626 13.8359C171.505 13.8359 171.427 13.779 171.377 13.6724C171.328 13.5657 171.285 13.3809 171.235 13.1178C171.057 13.3382 170.851 13.5231 170.602 13.6795C170.361 13.8288 170.062 13.907 169.714 13.907L169.706 13.8999ZM170.012 12.9259C170.24 12.9259 170.453 12.869 170.645 12.7552C170.837 12.6415 170.993 12.4779 171.121 12.2646V10.7644C170.439 10.7644 169.962 10.8569 169.685 11.0346C169.408 11.2195 169.273 11.5394 169.273 11.9944C169.273 12.2859 169.337 12.5135 169.458 12.677C169.578 12.8405 169.77 12.9187 170.019 12.9187L170.012 12.9259Z" fill="#010101"/>
<path d="M175.232 13.8997C175.011 13.8997 174.791 13.8571 174.585 13.7647C174.378 13.6722 174.201 13.5158 174.065 13.2954C173.923 13.075 173.859 12.7622 173.859 12.3711V5.18296C173.859 5.09053 173.902 5.01231 173.98 4.95543C174.058 4.89855 174.201 4.87012 174.393 4.87012H174.556C174.755 4.87012 174.89 4.89855 174.968 4.95543C175.047 5.01231 175.089 5.08342 175.089 5.18296V12.2289C175.089 12.4849 175.118 12.6555 175.175 12.755C175.232 12.8475 175.338 12.8972 175.495 12.8972C175.623 12.8972 175.715 12.8901 175.779 12.8688C175.843 12.8475 175.893 12.8404 175.935 12.8404C175.999 12.8404 176.049 12.883 176.078 12.9683C176.106 13.0537 176.134 13.1532 176.149 13.2599C176.163 13.3665 176.17 13.4447 176.17 13.4945C176.17 13.5798 176.12 13.658 176.014 13.722C175.914 13.786 175.786 13.8357 175.637 13.8642C175.487 13.8926 175.352 13.914 175.224 13.914L175.232 13.8997Z" fill="#010101"/>
<path d="M131.996 54.2122C131.84 54.2122 131.726 54.1908 131.662 54.1482C131.598 54.1055 131.562 54.0486 131.562 53.9704V47.8843C131.562 47.6781 131.669 47.5715 131.875 47.5715H133.333C134.57 47.5715 135.181 48.2185 135.181 49.5196C135.181 50.8207 134.563 51.4748 133.333 51.4748H132.593V53.9704C132.593 54.0486 132.558 54.1055 132.487 54.1482C132.416 54.1908 132.302 54.2122 132.146 54.2122H131.996ZM132.593 50.6145H133.333C133.632 50.6145 133.845 50.5292 133.973 50.3586C134.101 50.1879 134.165 49.9106 134.165 49.5267C134.165 49.1428 134.101 48.8726 133.973 48.702C133.845 48.5313 133.632 48.446 133.333 48.446H132.593V50.6145Z" fill="#010101"/>
<path d="M136.532 54.2123C136.241 54.2123 136.099 54.1341 136.099 53.9776V50.7355C136.099 50.3374 136.084 50.053 136.049 49.8752C136.02 49.6975 135.999 49.5695 135.999 49.4913C135.999 49.4344 136.042 49.3917 136.127 49.3562C136.212 49.3206 136.312 49.2993 136.419 49.2851C136.525 49.2709 136.618 49.2637 136.682 49.2637C136.774 49.2637 136.845 49.3064 136.881 49.3988C136.916 49.4913 136.966 49.669 137.016 49.925C137.151 49.7046 137.314 49.5268 137.521 49.3917C137.727 49.2566 137.919 49.1855 138.111 49.1855C138.232 49.1855 138.31 49.214 138.352 49.2709C138.395 49.3277 138.416 49.4131 138.416 49.5268C138.416 49.6121 138.409 49.7117 138.388 49.8183C138.367 49.925 138.345 50.0103 138.31 50.0885C138.274 50.1667 138.232 50.2023 138.182 50.2023C138.132 50.2023 138.075 50.188 138.018 50.1667C137.961 50.1454 137.869 50.1312 137.755 50.1312C137.606 50.1312 137.464 50.1738 137.343 50.2663C137.222 50.3587 137.137 50.4653 137.08 50.6075V53.9776C137.08 54.1341 136.93 54.2123 136.639 54.2123H136.532Z" fill="#010101"/>
<path d="M140.643 54.2549C139.327 54.2549 138.666 53.4231 138.666 51.7522C138.666 50.8777 138.83 50.2307 139.164 49.8112C139.498 49.3917 139.96 49.1855 140.557 49.1855C141.154 49.1855 141.567 49.3988 141.837 49.8325C142.107 50.2662 142.249 50.8777 142.249 51.6811C142.249 51.9726 142.129 52.1148 141.88 52.1148H139.676C139.69 52.5841 139.775 52.9183 139.946 53.1316C140.109 53.3449 140.365 53.4515 140.699 53.4515C140.913 53.4515 141.105 53.4231 141.268 53.3662C141.432 53.3093 141.567 53.2524 141.674 53.1955C141.78 53.1387 141.851 53.1102 141.894 53.1102C141.944 53.1102 141.986 53.1387 142.022 53.2027C142.057 53.2666 142.086 53.3377 142.1 53.4231C142.114 53.5084 142.129 53.5724 142.129 53.6293C142.129 53.7146 142.057 53.7999 141.908 53.8994C141.766 53.999 141.581 54.0772 141.354 54.1483C141.126 54.2194 140.891 54.2549 140.643 54.2549ZM139.676 51.3825H141.304C141.304 50.4369 141.048 49.9676 140.536 49.9676C140.273 49.9676 140.067 50.0814 139.91 50.3018C139.761 50.5293 139.683 50.8848 139.676 51.3825Z" fill="#010101"/>
<path d="M144.837 54.2549C144.204 54.2549 143.728 54.0416 143.401 53.615C143.074 53.1884 142.91 52.5628 142.91 51.738C142.91 50.9133 143.074 50.2876 143.394 49.8468C143.714 49.406 144.197 49.1855 144.837 49.1855C145.015 49.1855 145.185 49.2069 145.363 49.2424C145.534 49.278 145.683 49.3277 145.79 49.3917C145.896 49.4557 145.96 49.5126 145.96 49.5766C145.96 49.6335 145.953 49.7046 145.932 49.797C145.911 49.8894 145.889 49.9605 145.854 50.0316C145.818 50.1027 145.783 50.1383 145.733 50.1383C145.669 50.1383 145.569 50.1169 145.427 50.0672C145.285 50.0174 145.107 49.9961 144.894 49.9961C144.545 49.9961 144.297 50.1312 144.147 50.4085C143.998 50.6857 143.92 51.1266 143.92 51.738C143.92 52.3495 143.998 52.7832 144.147 53.0533C144.297 53.3306 144.545 53.4657 144.894 53.4657C145.128 53.4657 145.32 53.4373 145.477 53.3733C145.633 53.3164 145.74 53.2809 145.804 53.2809C145.847 53.2809 145.889 53.3164 145.925 53.3804C145.96 53.4444 145.982 53.5226 146.003 53.615C146.017 53.7003 146.024 53.7786 146.024 53.8425C146.024 53.9065 145.967 53.9705 145.847 54.0345C145.726 54.0985 145.576 54.1554 145.399 54.198C145.221 54.2407 145.036 54.262 144.844 54.262L144.837 54.2549Z" fill="#010101"/>
<path d="M147.119 48.6311C146.934 48.6311 146.806 48.6097 146.735 48.5671C146.657 48.5244 146.621 48.4675 146.621 48.3893V47.7779C146.621 47.6997 146.657 47.6428 146.735 47.6001C146.813 47.5575 146.941 47.5361 147.119 47.5361C147.297 47.5361 147.425 47.5575 147.496 47.6001C147.574 47.6428 147.61 47.6997 147.61 47.7779V48.3893C147.61 48.4675 147.574 48.5244 147.496 48.5671C147.418 48.6097 147.297 48.6311 147.119 48.6311ZM147.041 54.2123C146.884 54.2123 146.771 54.191 146.714 54.1484C146.657 54.1057 146.621 54.0488 146.621 53.9706V49.4629C146.621 49.3847 146.65 49.3278 146.714 49.2852C146.778 49.2425 146.884 49.2212 147.041 49.2212H147.176C147.332 49.2212 147.446 49.2425 147.503 49.2852C147.56 49.3278 147.595 49.3847 147.595 49.4629V53.9706C147.595 54.0488 147.567 54.1057 147.503 54.1484C147.439 54.191 147.332 54.2123 147.176 54.2123H147.041Z" fill="#010101"/>
<path d="M150.425 54.2542C149.82 54.2542 149.358 54.0409 149.045 53.6072C148.733 53.1735 148.576 52.5478 148.576 51.7302C148.576 50.9126 148.733 50.2798 149.053 49.839C149.372 49.3981 149.828 49.1777 150.425 49.1777C151.022 49.1777 151.484 49.3981 151.797 49.839C152.11 50.2798 152.266 50.9126 152.266 51.7302C152.266 52.5478 152.11 53.1735 151.797 53.6072C151.484 54.0409 151.029 54.2542 150.425 54.2542ZM150.418 53.4508C150.709 53.4508 150.922 53.3086 151.058 53.0384C151.193 52.7611 151.264 52.3274 151.264 51.7231C151.264 51.1187 151.2 50.6779 151.058 50.4006C150.922 50.1234 150.709 49.9883 150.418 49.9883C150.126 49.9883 149.913 50.1234 149.778 50.4006C149.65 50.6779 149.586 51.1187 149.586 51.7231C149.586 52.3274 149.65 52.7611 149.778 53.0384C149.906 53.3157 150.119 53.4508 150.418 53.4508Z" fill="#010101"/>
<path d="M154.933 54.1904C154.727 54.1904 154.62 54.0837 154.62 53.8775V47.891C154.62 47.6848 154.727 47.5781 154.933 47.5781H157.635C157.777 47.5781 157.855 47.6919 157.855 47.9194V48.1114C157.855 48.3389 157.784 48.4527 157.635 48.4527H155.651V50.3794H157.429C157.564 50.3794 157.635 50.4932 157.635 50.7207V50.9127C157.635 51.1402 157.564 51.254 157.429 51.254H155.651V53.3301H157.635C157.777 53.3301 157.855 53.4438 157.855 53.6713V53.8633C157.855 54.0908 157.784 54.2046 157.635 54.2046H154.933V54.1904Z" fill="#010101"/>
<path d="M158.346 54.1908C158.182 54.1908 158.097 54.134 158.097 54.0273C158.097 53.9989 158.104 53.9704 158.118 53.9349C158.132 53.8993 158.154 53.8638 158.168 53.8282L159.284 51.6455L158.253 49.5836C158.218 49.5054 158.196 49.4485 158.196 49.3916C158.196 49.3276 158.232 49.285 158.296 49.2565C158.36 49.2281 158.473 49.221 158.623 49.221H158.793C158.893 49.221 158.985 49.2281 159.057 49.2423C159.135 49.2565 159.184 49.3063 159.206 49.3774L159.888 50.9558L160.542 49.3845C160.571 49.2992 160.628 49.2565 160.706 49.2352C160.784 49.221 160.87 49.2139 160.969 49.2139H161.118C161.268 49.2139 161.374 49.2281 161.438 49.2565C161.502 49.285 161.531 49.3276 161.531 49.3845C161.531 49.4272 161.509 49.4912 161.467 49.5765L160.436 51.6668L161.552 53.8211C161.602 53.9064 161.63 53.9775 161.63 54.0273C161.63 54.1268 161.545 54.1766 161.389 54.1766H161.033C160.934 54.1766 160.841 54.1695 160.77 54.1482C160.699 54.1268 160.635 54.07 160.599 53.9704L159.853 52.2996L159.113 53.9704C159.078 54.07 159.021 54.1339 158.943 54.1482C158.865 54.1624 158.779 54.1766 158.68 54.1766H158.353L158.346 54.1908Z" fill="#010101"/>
<path d="M162.782 56.1462C162.505 56.1462 162.37 56.068 162.37 55.9115V50.7355C162.37 50.3374 162.356 50.053 162.32 49.8752C162.292 49.6975 162.271 49.5695 162.271 49.4913C162.271 49.4344 162.313 49.3917 162.406 49.3562C162.491 49.3206 162.598 49.2993 162.704 49.2851C162.818 49.2709 162.903 49.2637 162.967 49.2637C163.053 49.2637 163.117 49.3064 163.159 49.3846C163.202 49.4628 163.237 49.6192 163.28 49.8468C163.557 49.406 163.92 49.1855 164.375 49.1855C164.83 49.1855 165.2 49.4131 165.463 49.8681C165.733 50.3231 165.868 50.9346 165.868 51.6954C165.868 52.513 165.726 53.1458 165.442 53.5866C165.157 54.0274 164.787 54.2549 164.34 54.2549C164.112 54.2549 163.92 54.2123 163.756 54.1198C163.593 54.0274 163.458 53.9136 163.344 53.7714V55.9044C163.344 56.0608 163.202 56.1391 162.932 56.1391H162.782V56.1462ZM164.055 53.4231C164.595 53.4231 164.866 52.8472 164.866 51.6882C164.866 50.5293 164.61 49.9961 164.091 49.9961C163.813 49.9961 163.565 50.1667 163.344 50.508V53.032C163.543 53.2951 163.785 53.4302 164.055 53.4302V53.4231Z" fill="#010101"/>
<path d="M168.598 54.2549C167.282 54.2549 166.621 53.4231 166.621 51.7522C166.621 50.8777 166.785 50.2307 167.119 49.8112C167.453 49.3917 167.915 49.1855 168.512 49.1855C169.11 49.1855 169.522 49.3988 169.792 49.8325C170.062 50.2662 170.205 50.8777 170.205 51.6811C170.205 51.9726 170.084 52.1148 169.835 52.1148H167.631C167.645 52.5841 167.73 52.9183 167.901 53.1316C168.064 53.3449 168.32 53.4515 168.655 53.4515C168.868 53.4515 169.06 53.4231 169.223 53.3662C169.387 53.3093 169.522 53.2524 169.629 53.1955C169.735 53.1387 169.806 53.1102 169.849 53.1102C169.899 53.1102 169.941 53.1387 169.977 53.2027C170.013 53.2666 170.041 53.3377 170.055 53.4231C170.069 53.5084 170.084 53.5724 170.084 53.6293C170.084 53.7146 170.013 53.7999 169.863 53.8994C169.721 53.999 169.536 54.0772 169.309 54.1483C169.081 54.2194 168.847 54.2549 168.598 54.2549ZM167.631 51.3825H169.259C169.259 50.4369 169.003 49.9676 168.491 49.9676C168.228 49.9676 168.022 50.0814 167.865 50.3018C167.716 50.5293 167.638 50.8848 167.631 51.3825Z" fill="#010101"/>
<path d="M171.57 54.2123C171.279 54.2123 171.137 54.1341 171.137 53.9776V50.7355C171.137 50.3374 171.122 50.053 171.087 49.8752C171.058 49.6975 171.037 49.5695 171.037 49.4913C171.037 49.4344 171.08 49.3917 171.165 49.3562C171.25 49.3206 171.35 49.2993 171.457 49.2851C171.563 49.2709 171.656 49.2637 171.72 49.2637C171.812 49.2637 171.883 49.3064 171.919 49.3988C171.954 49.4913 172.004 49.669 172.054 49.925C172.189 49.7046 172.352 49.5268 172.559 49.3917C172.765 49.2566 172.957 49.1855 173.149 49.1855C173.27 49.1855 173.348 49.214 173.391 49.2709C173.433 49.3277 173.454 49.4131 173.454 49.5268C173.454 49.6121 173.447 49.7117 173.426 49.8183C173.405 49.925 173.383 50.0103 173.348 50.0885C173.312 50.1667 173.27 50.2023 173.22 50.2023C173.17 50.2023 173.113 50.188 173.056 50.1667C172.999 50.1454 172.907 50.1312 172.793 50.1312C172.644 50.1312 172.502 50.1738 172.381 50.2663C172.26 50.3587 172.175 50.4653 172.118 50.6075V53.9776C172.118 54.1341 171.969 54.2123 171.677 54.2123H171.57Z" fill="#010101"/>
<path d="M175.019 54.2548C174.841 54.2548 174.671 54.2193 174.507 54.1482C174.337 54.0771 174.201 53.9491 174.095 53.7713C173.981 53.5936 173.931 53.3518 173.931 53.0319V50.0457H173.604C173.462 50.0457 173.384 49.932 173.384 49.7045V49.5836C173.384 49.3561 173.455 49.2423 173.604 49.2423H173.931L174.052 48.2825C174.081 48.1261 174.194 48.0479 174.4 48.0479H174.543C174.678 48.0479 174.77 48.0692 174.827 48.1118C174.884 48.1545 174.912 48.2114 174.912 48.2896V49.2494H175.481C175.623 49.2494 175.702 49.3632 175.702 49.5907V49.7116C175.702 49.9391 175.631 50.0529 175.481 50.0529H174.912V52.9253C174.912 53.1243 174.934 53.2665 174.976 53.3376C175.019 53.4159 175.104 53.4514 175.232 53.4514C175.332 53.4514 175.41 53.4443 175.46 53.4301C175.51 53.4159 175.552 53.4087 175.581 53.4087C175.631 53.4087 175.666 53.4443 175.695 53.5154C175.723 53.5865 175.737 53.6647 175.751 53.75C175.766 53.8353 175.773 53.8993 175.773 53.9349C175.773 54.006 175.73 54.0629 175.652 54.1126C175.567 54.1624 175.474 54.198 175.353 54.2264C175.239 54.2548 175.126 54.2619 175.026 54.2619L175.019 54.2548Z" fill="#010101"/>
<path d="M178.083 54.2542C177.479 54.2542 177.016 54.0409 176.704 53.6072C176.391 53.1735 176.234 52.5478 176.234 51.7302C176.234 50.9126 176.391 50.2798 176.711 49.839C177.031 49.3981 177.486 49.1777 178.083 49.1777C178.68 49.1777 179.142 49.3981 179.455 49.839C179.768 50.2798 179.924 50.9126 179.924 51.7302C179.924 52.5478 179.768 53.1735 179.455 53.6072C179.142 54.0409 178.687 54.2542 178.083 54.2542ZM178.076 53.4508C178.367 53.4508 178.581 53.3086 178.716 53.0384C178.851 52.7611 178.922 52.3274 178.922 51.7231C178.922 51.1187 178.858 50.6779 178.716 50.4006C178.581 50.1234 178.367 49.9883 178.076 49.9883C177.784 49.9883 177.571 50.1234 177.436 50.4006C177.308 50.6779 177.244 51.1187 177.244 51.7231C177.244 52.3274 177.308 52.7611 177.436 53.0384C177.564 53.3157 177.777 53.4508 178.076 53.4508Z" fill="#010101"/>
<path d="M184.112 66.5769L187.802 60.1922C188.833 58.4076 187.546 56.168 185.477 56.168H178.623H184.894C184.638 56.168 184.396 56.2035 184.169 56.2675H145.135C144.908 56.2035 144.666 56.168 144.41 56.168H126.564C124.502 56.168 123.208 58.4005 124.239 60.1922L127.929 66.5769L124.239 72.9616C123.208 74.7462 124.495 76.9859 126.564 76.9859H184.894H178.623H185.477C187.539 76.9859 188.833 74.7533 187.802 72.9616L184.112 66.5769Z" fill="#B74B17"/>
<path d="M131.3 72.968C130.866 72.968 130.646 72.7334 130.646 72.2641V61.3504C130.646 60.8811 130.859 60.6465 131.3 60.6465H134.08C135.374 60.6465 136.298 60.9593 136.867 61.5921C137.435 62.2249 137.72 63.0283 137.72 64.0095C137.72 64.5854 137.563 65.1115 137.251 65.5879C136.938 66.0642 136.547 66.3771 136.063 66.5335L136.077 66.6046C136.668 66.7539 137.151 67.1094 137.528 67.6498C137.912 68.1972 138.097 68.83 138.097 69.541C138.097 71.8304 136.753 72.9751 134.065 72.9751H131.285L131.3 72.968ZM133.29 65.5737H134.08C134.464 65.5737 134.748 65.467 134.919 65.2466C135.089 65.0333 135.175 64.6849 135.175 64.2157C135.175 63.7464 135.089 63.4478 134.919 63.2487C134.748 63.0496 134.471 62.9501 134.08 62.9501H133.29V65.5737ZM133.29 70.6644H134.08C134.535 70.6644 134.869 70.5506 135.075 70.3302C135.281 70.1098 135.381 69.7401 135.381 69.2353C135.381 68.7305 135.281 68.3252 135.075 68.0906C134.869 67.856 134.542 67.7351 134.08 67.7351H133.29V70.6644Z" fill="white"/>
<path d="M140.045 73.0045C139.341 73.0045 138.985 72.8126 138.985 72.4215V61.3513C138.985 60.8821 139.22 60.6475 139.689 60.6475H142.683C143.977 60.6475 144.936 60.9603 145.562 61.5931C146.188 62.2259 146.508 63.1999 146.508 64.5224C146.508 65.084 146.408 65.5675 146.216 65.9728C146.024 66.3781 145.782 66.6909 145.484 66.9255C145.192 67.153 144.88 67.281 144.552 67.3024V67.3735C144.787 67.4588 145.007 67.6081 145.214 67.8427C145.42 68.0702 145.562 68.3333 145.647 68.6248L146.721 72.1442C146.771 72.2864 146.792 72.4215 146.792 72.5495C146.792 72.7344 146.721 72.8623 146.572 72.9192C146.422 72.9761 146.145 73.0045 145.733 73.0045H145.114C144.83 73.0045 144.595 72.969 144.41 72.8979C144.225 72.8268 144.105 72.6988 144.055 72.5139L143.244 69.2576C143.159 68.9163 143.045 68.6888 142.882 68.575C142.725 68.4542 142.476 68.3973 142.135 68.3973H141.716V72.4286C141.716 72.8125 141.36 73.0116 140.656 73.0116H140.038L140.045 73.0045ZM141.716 66.0866H142.683C143.13 66.0866 143.436 65.9657 143.607 65.7169C143.777 65.468 143.863 65.0698 143.863 64.5224C143.863 63.9749 143.777 63.5696 143.607 63.3279C143.436 63.0862 143.13 62.9582 142.683 62.9582H141.716V66.0937V66.0866Z" fill="white"/>
<path d="M152.054 73.1106C150.482 73.1106 149.324 72.5987 148.577 71.5819C147.83 70.5581 147.461 68.9726 147.461 66.8112C147.461 64.6497 147.83 63.0642 148.577 62.0404C149.324 61.0166 150.482 60.5118 152.054 60.5118C153.625 60.5118 154.805 61.0237 155.552 62.0404C156.298 63.0642 156.668 64.6497 156.668 66.8112C156.668 68.9726 156.298 70.5581 155.552 71.5819C154.805 72.6058 153.639 73.1106 152.054 73.1106ZM152.075 70.8069C152.729 70.8069 153.198 70.4941 153.476 69.8755C153.753 69.257 153.888 68.2331 153.888 66.8112C153.888 65.3892 153.753 64.3582 153.476 63.7397C153.198 63.1211 152.736 62.8154 152.075 62.8154C151.414 62.8154 150.966 63.1211 150.674 63.7397C150.383 64.3582 150.241 65.3821 150.241 66.8112C150.241 68.2403 150.383 69.2499 150.674 69.8755C150.966 70.5012 151.428 70.8069 152.075 70.8069Z" fill="white"/>
<path d="M159.128 73.0042C158.424 73.0042 158.068 72.8123 158.068 72.4212V61.1875C158.068 60.8036 158.424 60.6045 159.128 60.6045H159.725C160.123 60.6045 160.415 60.6471 160.607 60.7253C160.791 60.8107 160.941 60.96 161.047 61.1804L163.792 66.655C163.849 66.783 163.913 66.9466 163.984 67.1314C164.055 67.3163 164.119 67.5082 164.176 67.6931L164.261 67.6789C164.24 67.4798 164.211 67.2807 164.19 67.0816C164.169 66.8826 164.154 66.6835 164.154 66.4844V61.1875C164.154 60.8036 164.51 60.6045 165.214 60.6045H165.633C166.337 60.6045 166.693 60.7964 166.693 61.1875V72.4212C166.693 72.8051 166.337 73.0042 165.633 73.0042H165.036C164.652 73.0042 164.361 72.9616 164.176 72.8833C163.991 72.798 163.842 72.6487 163.735 72.4283L160.969 66.8683C160.912 66.7404 160.848 66.5839 160.777 66.392C160.706 66.2071 160.642 66.0151 160.585 65.8303L160.5 65.8516C160.521 66.0507 160.55 66.2498 160.571 66.4489C160.592 66.6479 160.607 66.847 160.607 67.0461V72.4354C160.607 72.8194 160.251 73.0184 159.547 73.0184H159.128V73.0042Z" fill="white"/>
<path d="M172.985 73.1108C171.321 73.1108 170.112 72.5989 169.359 71.5679C168.605 70.5441 168.235 68.9444 168.235 66.7687C168.235 64.5931 168.626 63.1 169.408 62.062C170.191 61.0239 171.413 60.5049 173.077 60.5049C173.404 60.5049 173.71 60.5262 173.994 60.5689C174.279 60.6115 174.492 60.6542 174.649 60.704C174.862 60.7608 175.004 60.8462 175.082 60.9599C175.16 61.0737 175.196 61.223 175.196 61.4078C175.196 61.6282 175.175 61.87 175.132 62.1188C175.089 62.3748 175.025 62.5881 174.94 62.773C174.855 62.9578 174.734 63.0431 174.577 63.0431C174.457 63.0431 174.279 63.0147 174.03 62.9649C173.781 62.9151 173.511 62.8867 173.205 62.8867C172.452 62.8867 171.911 63.1924 171.57 63.811C171.229 64.4296 171.058 65.425 171.058 66.7972C171.058 68.1694 171.236 69.179 171.584 69.7976C171.94 70.4161 172.508 70.7219 173.291 70.7219C173.674 70.7219 173.98 70.6863 174.208 70.6223C174.428 70.5583 174.62 70.5228 174.769 70.5228C174.912 70.5228 175.025 70.6081 175.111 70.7716C175.196 70.9352 175.267 71.1342 175.31 71.3689C175.359 71.6035 175.381 71.8381 175.381 72.0727C175.381 72.2505 175.345 72.3998 175.274 72.5278C175.203 72.6558 175.054 72.7624 174.833 72.8477C174.656 72.9046 174.4 72.9686 174.065 73.0255C173.731 73.0824 173.369 73.1108 172.985 73.1108Z" fill="white"/>
<path d="M177.031 72.969C176.597 72.969 176.377 72.7344 176.377 72.2651V61.3513C176.377 60.8821 176.59 60.6475 177.031 60.6475H182.207C182.563 60.6475 182.733 60.939 182.733 61.5291V62.0765C182.733 62.6667 182.555 62.9582 182.207 62.9582H179.107V65.5107H181.873C182.214 65.5107 182.385 65.8022 182.385 66.3923V66.9398C182.385 67.5299 182.214 67.8214 181.873 67.8214H179.107V70.6725H182.207C182.563 70.6725 182.733 70.964 182.733 71.5541V72.1016C182.733 72.6917 182.555 72.9832 182.207 72.9832H177.031V72.969Z" fill="white"/>
</svg>
