<svg width="188" height="78" viewBox="0 0 188 78" fill="none" xmlns="http://www.w3.org/2000/svg">
<path d="M11.1273 77.5052C8.84498 77.5052 7.24523 77.3772 6.32094 77.1212C5.39665 76.8653 4.94161 76.2965 4.94161 75.4077C4.94161 75.038 5.03405 74.5261 5.21891 73.8649C5.40377 73.2036 5.6384 72.4287 5.93702 71.547L25.4822 12.9185H3.83958C1.62839 12.9185 0.526367 11.077 0.526367 7.40117V5.52415C0.526367 1.84121 1.62839 0.00683594 3.83958 0.00683594H38.2872C39.0196 0.00683594 39.6665 0.561402 40.2211 1.66344C40.7757 2.76548 41.2165 3.9813 41.5436 5.30375C41.8778 6.6262 42.0413 7.6998 42.0413 8.50322C42.0413 9.24265 41.9702 9.90387 41.8209 10.494C41.6715 11.0841 41.5222 11.6743 41.38 12.2573L21.9486 74.3128C21.5078 75.6352 20.8039 76.5027 19.8512 76.9079C18.8913 77.3132 17.3485 77.5123 15.2155 77.5123H11.1273V77.5052Z" fill="#010101"/>
<path d="M54.2071 23.2842C52.2376 23.2842 50.6592 22.3599 49.4718 20.5185C48.2845 18.677 47.6943 15.7121 47.6943 11.6239C47.6943 7.53572 48.2845 4.67042 49.4718 2.81473C50.6592 0.951926 52.2376 0.0205078 54.2071 0.0205078C56.1765 0.0205078 57.7123 0.94481 58.9138 2.78628C60.1154 4.62776 60.7197 7.57838 60.7197 11.6239C60.7197 15.6695 60.1154 18.677 58.9138 20.5185C57.7123 22.3599 56.141 23.2842 54.2071 23.2842ZM54.2071 20.0563C55.0816 20.0563 55.7926 19.4377 56.34 18.1935C56.8875 16.9564 57.1577 14.7665 57.1577 11.6239C57.1577 8.48134 56.8804 6.39813 56.34 5.13967C55.7926 3.88121 55.0816 3.24843 54.2071 3.24843C53.3325 3.24843 52.6286 3.86699 52.1025 5.11123C51.5764 6.35546 51.3062 8.524 51.3062 11.6239C51.3062 14.7239 51.5693 16.9493 52.1025 18.1935C52.6286 19.4306 53.3325 20.0563 54.2071 20.0563ZM54.1004 38.9972C53.5174 38.9972 53.2259 38.8479 53.2259 38.5564C53.2259 38.4142 53.297 38.1938 53.4463 37.9023L70.631 1.12256C70.7732 0.795504 70.9509 0.582195 71.15 0.489766C71.3491 0.397337 71.6477 0.354676 72.053 0.354676H72.9275C73.5105 0.354676 73.802 0.503981 73.802 0.795488C73.802 0.944797 73.731 1.1581 73.5816 1.44961L56.3969 38.2293C56.2476 38.5564 56.077 38.7697 55.8779 38.8621C55.6788 38.9545 55.3731 38.9972 54.9749 38.9972H54.1004ZM72.8209 39.1607C70.8514 39.1607 69.273 38.2364 68.0856 36.395C66.8983 34.5535 66.3081 31.5886 66.3081 27.5004C66.3081 23.4122 66.8983 20.5469 68.0856 18.6912C69.273 16.8284 70.8514 15.897 72.8209 15.897C74.7903 15.897 76.3261 16.8213 77.5277 18.6628C78.7292 20.5042 79.3336 23.4549 79.3336 27.5004C79.3336 31.546 78.7292 34.5535 77.5277 36.395C76.3261 38.2364 74.7548 39.1607 72.8209 39.1607ZM72.8209 35.9328C73.6954 35.9328 74.4064 35.3142 74.9539 34.07C75.5013 32.8329 75.7715 30.643 75.7715 27.5004C75.7715 24.3578 75.4942 22.2746 74.9539 21.0162C74.4064 19.7577 73.6954 19.1249 72.8209 19.1249C71.9464 19.1249 71.2425 19.7435 70.7163 20.9877C70.1902 22.232 69.92 24.4005 69.92 27.5004C69.92 30.6004 70.1831 32.8258 70.7163 34.07C71.2425 35.3142 71.9464 35.9328 72.8209 35.9328Z" fill="#010101"/>
<path d="M54.029 76.8363C52.1875 76.8363 50.73 75.9262 49.6635 74.0919C48.5899 72.2646 48.0566 69.8259 48.0566 66.7757C48.0566 63.4981 48.6254 60.9669 49.7559 59.1894C50.8864 57.4119 52.3795 56.5232 54.2209 56.5232C55.1026 56.5232 55.8634 56.7081 56.5104 57.0707C57.1574 57.4333 57.7048 57.8954 58.1528 58.45V49.072C58.1528 48.4179 58.7073 48.0908 59.8165 48.0908H60.4208C61.53 48.0908 62.0845 48.4179 62.0845 49.072V70.6649C62.0845 72.2504 62.1485 73.4022 62.2765 74.1061C62.4045 74.81 62.4685 75.2934 62.4685 75.5423C62.4685 75.7911 62.2908 75.9973 61.9424 76.1466C61.5869 76.2959 61.1887 76.4026 60.7337 76.4666C60.2786 76.5306 59.9231 76.559 59.6743 76.559C59.2975 76.559 59.0344 76.3741 58.8993 76.0115C58.7571 75.6489 58.5936 74.9735 58.3874 73.9852C57.8542 74.8668 57.2142 75.5636 56.4606 76.0684C55.7069 76.5732 54.8964 76.8221 54.0432 76.8221L54.029 76.8363ZM55.1666 73.587C55.6927 73.587 56.2331 73.3951 56.7734 73.0183C57.3138 72.6414 57.7759 72.1224 58.1528 71.4683V61.4433C57.3422 60.3839 56.4037 59.8578 55.3159 59.8578C53.1474 59.8578 52.0595 62.1756 52.0595 66.8184C52.0595 71.4612 53.0905 73.587 55.1595 73.587H55.1666Z" fill="#010101"/>
<path d="M73.6947 76.8363C71.1707 76.8363 69.2581 75.976 67.9499 74.2625C66.6417 72.549 65.9805 70.0391 65.9805 66.7401C65.9805 63.4411 66.6203 60.9384 67.9072 59.1752C69.1941 57.4119 71.1209 56.5303 73.6947 56.5303C74.3986 56.5303 75.1025 56.6085 75.7922 56.7578C76.4889 56.9071 77.0577 57.1062 77.5128 57.3408C77.9678 57.5826 78.1953 57.8243 78.1953 58.0802C78.1953 58.3078 78.1598 58.5993 78.0816 58.9476C78.0033 59.3031 77.8967 59.616 77.7616 59.8933C77.6194 60.1706 77.463 60.3128 77.2852 60.3128C77.0293 60.3128 76.624 60.2203 76.0552 60.0284C75.4864 59.8364 74.7754 59.744 73.9151 59.744C72.5287 59.744 71.5333 60.2914 70.929 61.3864C70.3246 62.4813 70.0189 64.2517 70.0189 66.6975C70.0189 69.1433 70.3246 70.8781 70.929 71.9731C71.5333 73.068 72.5287 73.6155 73.9151 73.6155C74.8465 73.6155 75.6215 73.4946 76.2401 73.26C76.8587 73.0182 77.2924 72.9045 77.5412 72.9045C77.719 72.9045 77.8754 73.0395 78.0176 73.3026C78.1527 73.5657 78.2593 73.8785 78.3233 74.2269C78.3873 74.5824 78.4157 74.881 78.4157 75.137C78.4157 75.3929 78.174 75.6489 77.6976 75.912C77.2213 76.175 76.6169 76.3954 75.8988 76.5732C75.1807 76.7509 74.4413 76.8363 73.6876 76.8363H73.6947Z" fill="#010101"/>
<path d="M85.6118 76.8358C84.908 76.8358 84.2183 76.6936 83.5499 76.4021C82.8816 76.1106 82.3271 75.6129 81.8862 74.909C81.4454 74.2052 81.225 73.2169 81.225 71.9584V60.0066H79.9025C79.3195 60.0066 79.0352 59.5516 79.0352 58.6415V58.1509C79.0352 57.2408 79.3266 56.7858 79.9025 56.7858H81.225L81.7156 52.9251C81.8152 52.2923 82.2844 51.9795 83.1163 51.9795H83.685C84.2112 51.9795 84.5951 52.0648 84.8227 52.2283C85.0502 52.3919 85.1639 52.6265 85.1639 52.9251V56.7858H87.432C88.015 56.7858 88.2994 57.2408 88.2994 58.1509V58.6415C88.2994 59.5516 88.0079 60.0066 87.432 60.0066H85.1639V71.5034C85.1639 72.3139 85.2492 72.8685 85.427 73.1671C85.6047 73.4657 85.946 73.6221 86.4508 73.6221C86.8561 73.6221 87.1547 73.5937 87.3609 73.5297C87.56 73.4657 87.7235 73.4373 87.8515 73.4373C88.0506 73.4373 88.207 73.5795 88.3065 73.8496C88.406 74.1269 88.4843 74.4398 88.534 74.774C88.5838 75.1152 88.6122 75.357 88.6122 75.5134C88.6122 75.7907 88.4487 76.0324 88.1217 76.2315C87.7946 76.4306 87.3964 76.587 86.9343 76.6865C86.465 76.7861 86.0314 76.8358 85.6332 76.8358H85.6118Z" fill="#010101"/>
<path d="M97.8971 76.8363C95.4798 76.8363 93.6383 75.976 92.3727 74.2482C91.1143 72.5205 90.4814 70.0178 90.4814 66.7401C90.4814 63.4625 91.1142 60.9384 92.394 59.1752C93.6738 57.4119 95.5011 56.5303 97.8971 56.5303C100.293 56.5303 102.149 57.4119 103.4 59.1752C104.644 60.9384 105.27 63.4625 105.27 66.7401C105.27 70.0178 104.644 72.5205 103.4 74.2482C102.149 75.976 100.322 76.8363 97.8971 76.8363ZM97.8616 73.6226C99.0205 73.6226 99.8737 73.068 100.414 71.9588C100.954 70.8497 101.225 69.1006 101.225 66.7046C101.225 64.3085 100.954 62.5168 100.414 61.4077C99.8737 60.2985 99.0205 59.744 97.8616 59.744C96.7026 59.744 95.8281 60.2985 95.3091 61.4077C94.7901 62.5168 94.5341 64.2801 94.5341 66.7046C94.5341 69.1291 94.7901 70.8497 95.3091 71.9588C95.8281 73.068 96.6742 73.6226 97.8616 73.6226Z" fill="#010101"/>
<path d="M109.735 76.644C108.548 76.644 107.958 76.3312 107.958 75.6984V72.9398C107.958 72.307 108.548 71.9941 109.735 71.9941H110.489C111.677 71.9941 112.267 72.307 112.267 72.9398V75.6984C112.267 76.3312 111.677 76.644 110.489 76.644H109.735Z" fill="#010101"/>
<path d="M131.549 43.0288C130.88 43.0288 130.553 42.4742 130.553 41.3651V40.7963C130.553 39.6871 130.888 39.1326 131.549 39.1326H135.111V24.2017L131.854 24.6638C131.456 24.7065 131.158 24.5998 130.959 24.3297C130.76 24.0666 130.624 23.7253 130.56 23.313C130.496 22.9006 130.461 22.5451 130.461 22.2322C130.461 21.8128 130.532 21.507 130.674 21.3151C130.816 21.1302 131.037 21.0093 131.321 20.9667L138.737 19.6016C139 19.6016 139.284 19.7082 139.583 19.9144C139.882 20.1277 140.031 20.3765 140.031 20.6609V39.1184H143.159C143.828 39.1184 144.155 39.6729 144.155 40.7821V41.3509C144.155 42.46 143.821 43.0146 143.159 43.0146H131.549V43.0288Z" fill="#7C7C7D"/>
<path d="M150.973 43.2919C148.641 43.2919 146.934 42.2468 145.832 40.1493C144.73 38.0519 144.183 35.1297 144.183 31.3828C144.183 27.6358 144.73 24.7136 145.832 22.6162C146.934 20.5188 148.641 19.4736 150.973 19.4736C153.305 19.4736 155.018 20.5188 156.127 22.6162C157.236 24.7136 157.791 27.6358 157.791 31.3828C157.791 35.1297 157.236 38.0519 156.127 40.1493C155.018 42.2468 153.298 43.2919 150.973 43.2919ZM150.973 39.4028C151.371 39.4028 151.698 39.1966 151.954 38.7842C152.21 38.3719 152.395 37.5897 152.515 36.4379C152.636 35.2861 152.7 33.6011 152.7 31.3828C152.7 29.1645 152.636 27.451 152.515 26.3134C152.395 25.1687 152.203 24.3937 151.954 23.9813C151.698 23.569 151.371 23.3628 150.973 23.3628C150.574 23.3628 150.247 23.569 149.991 23.9813C149.735 24.3937 149.551 25.1687 149.423 26.3134C149.302 27.4581 149.238 29.1431 149.238 31.3828C149.238 33.6224 149.295 35.2861 149.423 36.4379C149.544 37.5897 149.735 38.3719 149.991 38.7842C150.247 39.1966 150.574 39.4028 150.973 39.4028Z" fill="#7C7C7D"/>
<path d="M167.632 27.7854C166.942 27.7854 166.388 27.4655 165.975 26.8185C165.563 26.1715 165.35 25.1334 165.35 23.7043C165.35 22.2752 165.556 21.2727 165.975 20.6186C166.388 19.9645 166.942 19.6445 167.632 19.6445C168.322 19.6445 168.855 19.9645 169.281 20.6115C169.701 21.2585 169.914 22.2894 169.914 23.7043C169.914 25.1192 169.701 26.1715 169.281 26.8185C168.862 27.4655 168.307 27.7854 167.632 27.7854ZM167.632 26.6549C167.938 26.6549 168.186 26.4416 168.378 26.0008C168.57 25.56 168.663 24.7992 168.663 23.7043C168.663 22.6094 168.57 21.8771 168.378 21.4362C168.186 20.9954 167.938 20.775 167.632 20.775C167.326 20.775 167.077 20.9954 166.892 21.4291C166.708 21.8628 166.615 22.6236 166.615 23.7114C166.615 24.7992 166.708 25.5742 166.892 26.0079C167.077 26.4416 167.326 26.662 167.632 26.662V26.6549ZM167.596 33.2814C167.39 33.2814 167.291 33.2316 167.291 33.125C167.291 33.0752 167.319 32.997 167.369 32.8975L173.384 20.0285C173.434 19.9147 173.498 19.8436 173.569 19.8081C173.64 19.7725 173.746 19.7583 173.882 19.7583H174.187C174.393 19.7583 174.493 19.8081 174.493 19.9076C174.493 19.9574 174.465 20.0356 174.415 20.1351L168.4 33.0041C168.35 33.1179 168.286 33.189 168.215 33.2245C168.144 33.253 168.037 33.2743 167.902 33.2743H167.596V33.2814ZM174.145 33.3383C173.455 33.3383 172.9 33.0183 172.488 32.3713C172.076 31.7243 171.862 30.6863 171.862 29.2572C171.862 27.8281 172.068 26.8256 172.488 26.1714C172.9 25.5173 173.455 25.1974 174.145 25.1974C174.834 25.1974 175.368 25.5173 175.794 26.1644C176.214 26.8114 176.427 27.8423 176.427 29.2572C176.427 30.6721 176.214 31.7243 175.794 32.3713C175.375 33.0183 174.827 33.3383 174.145 33.3383ZM174.145 32.2078C174.45 32.2078 174.699 31.9945 174.891 31.5537C175.083 31.12 175.176 30.3521 175.176 29.2572C175.176 28.1623 175.083 27.4299 174.891 26.9891C174.699 26.5483 174.45 26.3279 174.145 26.3279C173.839 26.3279 173.59 26.5483 173.405 26.982C173.22 27.4157 173.128 28.1765 173.128 29.2643C173.128 30.3521 173.22 31.1271 173.405 31.5608C173.59 31.9945 173.839 32.2149 174.145 32.2149V32.2078Z" fill="#7C7C7D"/>
<path d="M162.249 43.2559C161.673 43.2559 161.211 42.9715 160.877 42.3956C160.543 41.8197 160.372 41.0518 160.372 40.0991C160.372 39.0682 160.55 38.2718 160.905 37.7173C161.261 37.1556 161.73 36.8783 162.306 36.8783C162.583 36.8783 162.825 36.9352 163.024 37.0489C163.223 37.1627 163.401 37.3049 163.543 37.4826V34.5391C163.543 34.3329 163.721 34.2334 164.069 34.2334H164.261C164.61 34.2334 164.787 34.3329 164.787 34.5391V41.322C164.787 41.8197 164.809 42.1823 164.844 42.4027C164.887 42.6231 164.901 42.7724 164.901 42.8506C164.901 42.9288 164.844 42.9928 164.738 43.0426C164.624 43.0924 164.503 43.1208 164.354 43.1422C164.211 43.1635 164.098 43.1706 164.019 43.1706C163.899 43.1706 163.82 43.1137 163.778 42.9999C163.735 42.8862 163.678 42.6729 163.614 42.3671C163.451 42.6444 163.244 42.8649 163.01 43.0213C162.775 43.1777 162.519 43.2559 162.249 43.2559ZM162.605 42.2321C162.768 42.2321 162.939 42.1752 163.109 42.0543C163.28 41.9335 163.422 41.777 163.543 41.5708V38.4211C163.287 38.087 162.996 37.9234 162.654 37.9234C161.972 37.9234 161.63 38.6558 161.63 40.1133C161.63 41.5708 161.958 42.2392 162.605 42.2392V42.2321Z" fill="#7C7C7D"/>
<path d="M168.427 43.2558C167.638 43.2558 167.034 42.9856 166.621 42.4453C166.209 41.9049 166.003 41.1157 166.003 40.0777C166.003 39.0396 166.202 38.2575 166.607 37.7029C167.013 37.1484 167.617 36.8711 168.427 36.8711C168.648 36.8711 168.868 36.8924 169.089 36.9422C169.309 36.992 169.487 37.0488 169.629 37.127C169.771 37.2053 169.842 37.2764 169.842 37.3617C169.842 37.4328 169.828 37.5252 169.807 37.6319C169.785 37.7456 169.75 37.838 169.707 37.9305C169.665 38.0158 169.615 38.0584 169.558 38.0584C169.48 38.0584 169.352 38.03 169.174 37.966C168.996 37.9092 168.769 37.8807 168.506 37.8807C168.072 37.8807 167.759 38.0513 167.567 38.3997C167.375 38.7481 167.283 39.3027 167.283 40.0706C167.283 40.8384 167.375 41.3859 167.567 41.7272C167.759 42.0684 168.072 42.2462 168.506 42.2462C168.797 42.2462 169.039 42.2107 169.238 42.1324C169.43 42.0542 169.572 42.0187 169.65 42.0187C169.707 42.0187 169.757 42.0613 169.8 42.1467C169.842 42.232 169.878 42.3244 169.892 42.4382C169.913 42.5519 169.921 42.6443 169.921 42.7226C169.921 42.8008 169.842 42.8861 169.693 42.9643C169.544 43.0496 169.352 43.1136 169.131 43.1705C168.904 43.2274 168.676 43.2558 168.435 43.2558H168.427Z" fill="#7C7C7D"/>
<path d="M172.175 43.2557C171.955 43.2557 171.734 43.213 171.528 43.1206C171.315 43.0282 171.144 42.8717 171.002 42.6513C170.86 42.4309 170.796 42.1181 170.796 41.727V37.973H170.383C170.199 37.973 170.113 37.8308 170.113 37.5464V37.39C170.113 37.1056 170.206 36.9634 170.383 36.9634H170.796L170.952 35.7547C170.981 35.5556 171.13 35.4561 171.393 35.4561H171.571C171.734 35.4561 171.855 35.4845 171.926 35.5343C171.997 35.584 172.033 35.6623 172.033 35.7547V36.9634H172.744C172.929 36.9634 173.014 37.1056 173.014 37.39V37.5464C173.014 37.8308 172.922 37.973 172.744 37.973H172.033V41.5848C172.033 41.8408 172.061 42.0114 172.118 42.111C172.175 42.2034 172.282 42.2532 172.438 42.2532C172.566 42.2532 172.659 42.2461 172.723 42.2247C172.787 42.2034 172.836 42.1963 172.879 42.1963C172.943 42.1963 172.993 42.2389 173.021 42.3243C173.05 42.4096 173.078 42.5091 173.092 42.6158C173.107 42.7224 173.114 42.8006 173.114 42.8504C173.114 42.9357 173.064 43.0139 172.957 43.0779C172.851 43.1419 172.73 43.1917 172.58 43.2201C172.431 43.2486 172.296 43.2699 172.168 43.2699L172.175 43.2557Z" fill="#7C7C7D"/>
<path d="M176.035 43.2555C175.274 43.2555 174.698 42.9854 174.3 42.445C173.902 41.9047 173.703 41.1155 173.703 40.0845C173.703 39.0536 173.902 38.2644 174.3 37.7098C174.698 37.1552 175.274 36.8779 176.028 36.8779C176.782 36.8779 177.365 37.1552 177.756 37.7098C178.147 38.2644 178.346 39.0536 178.346 40.0845C178.346 41.1155 178.147 41.8976 177.756 42.445C177.365 42.9854 176.789 43.2555 176.028 43.2555H176.035ZM176.021 42.2459C176.384 42.2459 176.654 42.0682 176.824 41.7198C176.995 41.3714 177.08 40.824 177.08 40.0703C177.08 39.3167 176.995 38.755 176.824 38.4066C176.654 38.0582 176.384 37.8804 176.021 37.8804C175.658 37.8804 175.381 38.0582 175.218 38.4066C175.054 38.755 174.976 39.3095 174.976 40.0703C174.976 40.8311 175.054 41.3714 175.218 41.7198C175.381 42.0682 175.644 42.2459 176.021 42.2459Z" fill="#7C7C7D"/>
<path d="M179.753 43.199C179.383 43.199 179.191 43.0995 179.191 42.9004V42.033C179.191 41.8339 179.376 41.7344 179.753 41.7344H179.988C180.357 41.7344 180.549 41.8339 180.549 42.033V42.9004C180.549 43.0995 180.365 43.199 179.988 43.199H179.753Z" fill="#7C7C7D"/>
<path d="M134.606 13.8427C134.307 13.8427 134.158 13.7645 134.158 13.6152C134.158 13.5726 134.165 13.5085 134.18 13.4161L136.227 5.76584C136.284 5.57387 136.469 5.48145 136.789 5.48145H137.315C137.635 5.48145 137.82 5.57387 137.877 5.76584L139.91 13.4161C139.917 13.473 139.924 13.5157 139.931 13.5441C139.939 13.5726 139.946 13.601 139.946 13.6223C139.946 13.7716 139.796 13.8498 139.491 13.8498H139.156C139.028 13.8498 138.922 13.8356 138.829 13.8001C138.737 13.7716 138.687 13.7076 138.666 13.6223L138.225 11.8164H135.872L135.424 13.6223C135.41 13.7076 135.353 13.7716 135.26 13.8001C135.168 13.8285 135.061 13.8498 134.933 13.8498H134.613L134.606 13.8427ZM136.867 7.72107L136.121 10.7641H137.962L137.215 7.72107C137.187 7.6002 137.159 7.47933 137.137 7.34425C137.116 7.20916 137.095 7.08116 137.073 6.95319H137.016C137.002 7.08116 136.981 7.20916 136.959 7.34425C136.938 7.47933 136.91 7.60731 136.874 7.72107H136.867Z" fill="#010101"/>
<path d="M142.307 13.8995C141.731 13.8995 141.269 13.6151 140.935 13.0391C140.6 12.4632 140.43 11.6954 140.43 10.7427C140.43 9.71171 140.607 8.91539 140.963 8.36082C141.318 7.79913 141.788 7.52185 142.364 7.52185C142.641 7.52185 142.883 7.57872 143.082 7.69248C143.281 7.80624 143.459 7.94845 143.601 8.1262V5.18268C143.601 4.97649 143.778 4.87695 144.127 4.87695H144.319C144.667 4.87695 144.845 4.97649 144.845 5.18268V11.9656C144.845 12.4633 144.866 12.8259 144.902 13.0463C144.945 13.2667 144.959 13.416 144.959 13.4942C144.959 13.5724 144.902 13.6364 144.795 13.6862C144.681 13.7359 144.561 13.7644 144.411 13.7857C144.269 13.807 144.155 13.8142 144.077 13.8142C143.956 13.8142 143.878 13.7573 143.835 13.6435C143.793 13.5297 143.736 13.3165 143.672 13.0107C143.508 13.288 143.302 13.5084 143.067 13.6648C142.833 13.8212 142.577 13.8995 142.307 13.8995ZM142.662 12.8756C142.826 12.8756 142.996 12.8188 143.167 12.6979C143.338 12.577 143.48 12.4206 143.601 12.2144V9.0647C143.345 8.73053 143.053 8.56701 142.712 8.56701C142.029 8.56701 141.688 9.29933 141.688 10.7569C141.688 12.2144 142.015 12.8827 142.662 12.8827V12.8756Z" fill="#010101"/>
<path d="M146.963 6.81753C146.735 6.81753 146.572 6.7891 146.472 6.73933C146.38 6.68956 146.33 6.61135 146.33 6.51892V5.74394C146.33 5.65151 146.38 5.5733 146.472 5.52353C146.565 5.47376 146.728 5.44531 146.963 5.44531C147.197 5.44531 147.347 5.47376 147.439 5.52353C147.532 5.5733 147.581 5.65151 147.581 5.74394V6.51892C147.581 6.61135 147.532 6.68956 147.439 6.73933C147.347 6.7891 147.183 6.81753 146.963 6.81753ZM146.87 13.8421C146.671 13.8421 146.536 13.8137 146.458 13.7639C146.38 13.7142 146.337 13.636 146.337 13.5435V7.87692C146.337 7.78449 146.38 7.70628 146.458 7.65651C146.536 7.60675 146.678 7.57829 146.87 7.57829H147.034C147.233 7.57829 147.368 7.60675 147.446 7.65651C147.525 7.70628 147.567 7.78449 147.567 7.87692V13.5435C147.567 13.636 147.525 13.7142 147.446 13.7639C147.368 13.8137 147.226 13.8421 147.034 13.8421H146.87Z" fill="#010101"/>
<path d="M151.215 13.8994C150.425 13.8994 149.821 13.6292 149.409 13.0888C148.996 12.5485 148.79 11.7593 148.79 10.7212C148.79 9.68319 148.989 8.9011 149.394 8.34652C149.8 7.79195 150.404 7.51465 151.215 7.51465C151.435 7.51465 151.655 7.53598 151.876 7.58575C152.096 7.63552 152.274 7.69241 152.416 7.77062C152.558 7.84883 152.629 7.91992 152.629 8.00524C152.629 8.07634 152.615 8.16877 152.594 8.27542C152.573 8.38918 152.537 8.48159 152.494 8.57402C152.452 8.65934 152.402 8.70202 152.345 8.70202C152.267 8.70202 152.139 8.67357 151.961 8.60959C151.783 8.55271 151.556 8.52427 151.293 8.52427C150.859 8.52427 150.546 8.69489 150.354 9.04328C150.162 9.39167 150.07 9.94625 150.07 10.7141C150.07 11.482 150.162 12.0295 150.354 12.3707C150.546 12.712 150.859 12.8898 151.293 12.8898C151.584 12.8898 151.826 12.8542 152.025 12.776C152.217 12.6978 152.359 12.6622 152.437 12.6622C152.494 12.6622 152.544 12.7049 152.587 12.7902C152.629 12.8756 152.665 12.968 152.679 13.0817C152.701 13.1955 152.708 13.2879 152.708 13.3661C152.708 13.4443 152.629 13.5297 152.48 13.6079C152.331 13.6932 152.139 13.7572 151.918 13.8141C151.691 13.8709 151.463 13.8994 151.222 13.8994H151.215Z" fill="#010101"/>
<path d="M154.095 6.81753C153.867 6.81753 153.704 6.7891 153.604 6.73933C153.512 6.68956 153.462 6.61135 153.462 6.51892V5.74394C153.462 5.65151 153.512 5.5733 153.604 5.52353C153.697 5.47376 153.86 5.44531 154.095 5.44531C154.329 5.44531 154.479 5.47376 154.571 5.52353C154.663 5.5733 154.713 5.65151 154.713 5.74394V6.51892C154.713 6.61135 154.663 6.68956 154.571 6.73933C154.479 6.7891 154.315 6.81753 154.095 6.81753ZM154.002 13.8421C153.803 13.8421 153.668 13.8137 153.59 13.7639C153.512 13.7142 153.469 13.636 153.469 13.5435V7.87692C153.469 7.78449 153.512 7.70628 153.59 7.65651C153.668 7.60675 153.81 7.57829 154.002 7.57829H154.166C154.365 7.57829 154.5 7.60675 154.578 7.65651C154.656 7.70628 154.699 7.78449 154.699 7.87692V13.5435C154.699 13.636 154.656 13.7142 154.578 13.7639C154.5 13.8137 154.358 13.8421 154.166 13.8421H154.002Z" fill="#010101"/>
<path d="M158.254 13.9001C157.493 13.9001 156.917 13.6299 156.519 13.0895C156.121 12.5492 155.922 11.76 155.922 10.729C155.922 9.69809 156.121 8.90889 156.519 8.35431C156.917 7.79974 157.493 7.52246 158.247 7.52246C159 7.52246 159.584 7.79974 159.975 8.35431C160.366 8.90889 160.565 9.69809 160.565 10.729C160.565 11.76 160.366 12.5421 159.975 13.0895C159.584 13.6299 159.008 13.9001 158.247 13.9001H158.254ZM158.24 12.8905C158.602 12.8905 158.873 12.7127 159.043 12.3643C159.214 12.0159 159.299 11.4685 159.299 10.7148C159.299 9.96116 159.214 9.39948 159.043 9.05109C158.873 8.70271 158.602 8.52496 158.24 8.52496C157.877 8.52496 157.6 8.70271 157.436 9.05109C157.273 9.39948 157.195 9.95405 157.195 10.7148C157.195 11.4756 157.273 12.0159 157.436 12.3643C157.6 12.7127 157.863 12.8905 158.24 12.8905Z" fill="#010101"/>
<path d="M162.314 13.8432C162.115 13.8432 161.98 13.8148 161.902 13.765C161.823 13.7152 161.781 13.637 161.781 13.5446V9.47058C161.781 8.97288 161.759 8.61028 161.724 8.38276C161.681 8.15524 161.667 7.99883 161.667 7.89929C161.667 7.82819 161.724 7.77129 161.831 7.72863C161.944 7.68597 162.065 7.65754 162.207 7.64332C162.35 7.6291 162.463 7.62199 162.542 7.62199C162.662 7.62199 162.741 7.67888 162.783 7.79264C162.826 7.9064 162.883 8.11969 162.947 8.42542C163.139 8.16235 163.366 7.94905 163.636 7.77841C163.907 7.60777 164.205 7.52246 164.539 7.52246C164.966 7.52246 165.329 7.65043 165.634 7.9135C165.933 8.17657 166.089 8.58894 166.089 9.15774V13.5446C166.089 13.637 166.047 13.7152 165.961 13.765C165.876 13.8148 165.741 13.8432 165.549 13.8432H165.386C165.186 13.8432 165.044 13.8148 164.966 13.765C164.881 13.7152 164.838 13.637 164.838 13.5446V9.40659C164.838 9.13641 164.774 8.93022 164.653 8.78091C164.532 8.6316 164.333 8.56051 164.056 8.56051C163.878 8.56051 163.722 8.60317 163.58 8.68138C163.437 8.75959 163.316 8.85913 163.224 8.96578C163.132 9.07954 163.061 9.17906 163.025 9.26438V13.5446C163.025 13.637 162.982 13.7152 162.904 13.765C162.826 13.8148 162.684 13.8432 162.492 13.8432H162.328H162.314Z" fill="#010101"/>
<path d="M168.918 13.8998C168.392 13.8998 167.987 13.7363 167.681 13.4092C167.383 13.0822 167.233 12.6271 167.233 12.0441C167.233 11.5038 167.368 11.0772 167.639 10.7643C167.909 10.4444 168.279 10.2169 168.741 10.0818C169.21 9.94669 169.736 9.87559 170.333 9.87559V9.41345C170.333 9.17171 170.269 8.95841 170.134 8.78777C169.999 8.61713 169.757 8.5318 169.409 8.5318C169.118 8.5318 168.854 8.56736 168.62 8.63135C168.385 8.69534 168.193 8.76644 168.044 8.83043C167.895 8.89442 167.788 8.92286 167.738 8.92286C167.688 8.92286 167.632 8.88018 167.589 8.79487C167.546 8.70955 167.511 8.61002 167.496 8.49626C167.475 8.3825 167.468 8.29718 167.468 8.22608C167.468 8.14076 167.568 8.04122 167.767 7.93457C167.966 7.82792 168.215 7.73549 168.527 7.65018C168.84 7.56486 169.153 7.5293 169.466 7.5293C170.17 7.5293 170.703 7.69995 171.059 8.03412C171.414 8.36829 171.592 8.83043 171.592 9.40633V11.9872C171.592 12.4849 171.613 12.8475 171.649 13.0679C171.684 13.2884 171.706 13.4377 171.706 13.5159C171.706 13.5941 171.649 13.6581 171.535 13.7078C171.421 13.7576 171.293 13.7861 171.158 13.8074C171.023 13.8287 170.916 13.8358 170.838 13.8358C170.717 13.8358 170.639 13.7789 170.589 13.6723C170.54 13.5656 170.497 13.3808 170.447 13.1177C170.269 13.3381 170.063 13.523 169.814 13.6794C169.573 13.8287 169.274 13.9069 168.926 13.9069L168.918 13.8998ZM169.224 12.9258C169.452 12.9258 169.665 12.8689 169.857 12.7551C170.049 12.6413 170.205 12.4778 170.333 12.2645V10.7643C169.651 10.7643 169.174 10.8568 168.897 11.0345C168.62 11.2194 168.485 11.5393 168.485 11.9943C168.485 12.2858 168.549 12.5134 168.67 12.6769C168.79 12.8404 168.982 12.9186 169.231 12.9186L169.224 12.9258Z" fill="#010101"/>
<path d="M174.443 13.8997C174.222 13.8997 174.002 13.8571 173.796 13.7647C173.589 13.6722 173.412 13.5158 173.276 13.2954C173.134 13.075 173.07 12.7622 173.07 12.3711V5.18296C173.07 5.09053 173.113 5.01231 173.191 4.95543C173.269 4.89855 173.412 4.87012 173.604 4.87012H173.767C173.966 4.87012 174.101 4.89855 174.179 4.95543C174.258 5.01231 174.3 5.08342 174.3 5.18296V12.2289C174.3 12.4849 174.329 12.6555 174.386 12.755C174.443 12.8475 174.549 12.8972 174.706 12.8972C174.834 12.8972 174.926 12.8901 174.99 12.8688C175.054 12.8475 175.104 12.8404 175.146 12.8404C175.21 12.8404 175.26 12.883 175.289 12.9683C175.317 13.0537 175.345 13.1532 175.36 13.2599C175.374 13.3665 175.381 13.4447 175.381 13.4945C175.381 13.5798 175.331 13.658 175.225 13.722C175.125 13.786 174.997 13.8357 174.848 13.8642C174.698 13.8926 174.563 13.914 174.435 13.914L174.443 13.8997Z" fill="#010101"/>
<path d="M131.215 54.212C131.059 54.212 130.945 54.1906 130.881 54.148C130.817 54.1053 130.781 54.0484 130.781 53.9702V47.8841C130.781 47.6779 130.888 47.5713 131.094 47.5713H132.552C133.789 47.5713 134.4 48.2183 134.4 49.5194C134.4 50.8205 133.782 51.4747 132.552 51.4747H131.812V53.9702C131.812 54.0484 131.777 54.1053 131.706 54.148C131.634 54.1906 131.521 54.212 131.364 54.212H131.215ZM131.812 50.6143H132.552C132.85 50.6143 133.064 50.529 133.191 50.3584C133.319 50.1878 133.383 49.9105 133.383 49.5265C133.383 49.1426 133.319 48.8724 133.191 48.7018C133.064 48.5311 132.85 48.4458 132.552 48.4458H131.812V50.6072V50.6143Z" fill="#010101"/>
<path d="M135.743 54.2123C135.452 54.2123 135.31 54.1341 135.31 53.9776V50.7355C135.31 50.3374 135.295 50.053 135.26 49.8752C135.231 49.6975 135.21 49.5695 135.21 49.4913C135.21 49.4344 135.253 49.3917 135.338 49.3562C135.423 49.3206 135.523 49.2993 135.629 49.2851C135.736 49.2709 135.828 49.2637 135.892 49.2637C135.985 49.2637 136.056 49.3064 136.092 49.3988C136.127 49.4913 136.177 49.669 136.227 49.925C136.362 49.7046 136.525 49.5268 136.731 49.3917C136.938 49.2566 137.13 49.1855 137.322 49.1855C137.442 49.1855 137.521 49.214 137.563 49.2709C137.606 49.3277 137.627 49.4131 137.627 49.5268C137.627 49.6121 137.62 49.7117 137.599 49.8183C137.578 49.925 137.556 50.0103 137.521 50.0885C137.485 50.1667 137.442 50.2023 137.393 50.2023C137.343 50.2023 137.286 50.188 137.229 50.1667C137.172 50.1454 137.08 50.1312 136.966 50.1312C136.817 50.1312 136.675 50.1738 136.554 50.2662C136.433 50.3587 136.348 50.4653 136.291 50.6075V53.9776C136.291 54.1341 136.141 54.2123 135.85 54.2123H135.743Z" fill="#010101"/>
<path d="M139.853 54.2549C138.537 54.2549 137.876 53.4231 137.876 51.7522C137.876 50.8777 138.04 50.2307 138.374 49.8112C138.708 49.3917 139.17 49.1855 139.767 49.1855C140.364 49.1855 140.777 49.3988 141.047 49.8325C141.317 50.2662 141.459 50.8777 141.459 51.6811C141.459 51.9726 141.339 52.1148 141.09 52.1148H138.886C138.9 52.5841 138.985 52.9183 139.156 53.1316C139.319 53.3449 139.575 53.4515 139.909 53.4515C140.123 53.4515 140.315 53.4231 140.478 53.3662C140.642 53.3093 140.777 53.2524 140.883 53.1955C140.99 53.1387 141.061 53.1102 141.104 53.1102C141.154 53.1102 141.196 53.1387 141.232 53.2027C141.267 53.2666 141.296 53.3377 141.31 53.4231C141.324 53.5084 141.339 53.5724 141.339 53.6293C141.339 53.7146 141.267 53.7999 141.118 53.8994C140.976 53.999 140.791 54.0772 140.564 54.1483C140.336 54.2194 140.101 54.2549 139.853 54.2549ZM138.886 51.3825H140.514C140.514 50.4369 140.258 49.9676 139.746 49.9676C139.483 49.9676 139.277 50.0814 139.12 50.3018C138.971 50.5293 138.893 50.8848 138.886 51.3825Z" fill="#010101"/>
<path d="M144.048 54.2549C143.415 54.2549 142.939 54.0416 142.612 53.615C142.285 53.1884 142.121 52.5628 142.121 51.738C142.121 50.9133 142.285 50.2876 142.605 49.8468C142.925 49.4059 143.408 49.1855 144.048 49.1855C144.226 49.1855 144.396 49.2069 144.574 49.2424C144.745 49.278 144.894 49.3277 145.001 49.3917C145.107 49.4557 145.171 49.5126 145.171 49.5766C145.171 49.6335 145.164 49.7046 145.143 49.797C145.121 49.8894 145.1 49.9605 145.065 50.0316C145.029 50.1027 144.994 50.1383 144.944 50.1383C144.88 50.1383 144.78 50.1169 144.638 50.0672C144.496 50.0174 144.318 49.9961 144.105 49.9961C143.756 49.9961 143.508 50.1312 143.358 50.4085C143.209 50.6857 143.131 51.1266 143.131 51.738C143.131 52.3495 143.209 52.7832 143.358 53.0533C143.508 53.3306 143.756 53.4657 144.105 53.4657C144.339 53.4657 144.531 53.4373 144.688 53.3733C144.844 53.3164 144.951 53.2809 145.015 53.2809C145.058 53.2809 145.1 53.3164 145.136 53.3804C145.171 53.4444 145.193 53.5226 145.214 53.615C145.228 53.7003 145.235 53.7786 145.235 53.8425C145.235 53.9065 145.178 53.9705 145.058 54.0345C144.937 54.0985 144.787 54.1554 144.61 54.198C144.432 54.2407 144.247 54.262 144.055 54.262L144.048 54.2549Z" fill="#010101"/>
<path d="M146.338 48.6311C146.153 48.6311 146.025 48.6097 145.954 48.5671C145.875 48.5244 145.84 48.4675 145.84 48.3893V47.7779C145.84 47.6997 145.875 47.6428 145.954 47.6001C146.032 47.5575 146.16 47.5361 146.338 47.5361C146.515 47.5361 146.643 47.5575 146.714 47.6001C146.793 47.6428 146.828 47.6997 146.828 47.7779V48.3893C146.828 48.4675 146.793 48.5244 146.714 48.5671C146.636 48.6097 146.515 48.6311 146.338 48.6311ZM146.259 54.2124C146.103 54.2124 145.989 54.191 145.932 54.1484C145.875 54.1057 145.84 54.0488 145.84 53.9706V49.4629C145.84 49.3847 145.868 49.3278 145.932 49.2852C145.996 49.2425 146.103 49.2212 146.259 49.2212H146.394C146.551 49.2212 146.665 49.2425 146.721 49.2852C146.778 49.3278 146.814 49.3847 146.814 49.4629V53.9706C146.814 54.0488 146.785 54.1057 146.721 54.1484C146.657 54.191 146.551 54.2124 146.394 54.2124H146.259Z" fill="#010101"/>
<path d="M149.643 54.2542C149.039 54.2542 148.577 54.0409 148.264 53.6072C147.951 53.1735 147.795 52.5478 147.795 51.7302C147.795 50.9126 147.951 50.2798 148.271 49.839C148.591 49.3981 149.046 49.1777 149.643 49.1777C150.241 49.1777 150.703 49.3981 151.016 49.839C151.329 50.2798 151.485 50.9126 151.485 51.7302C151.485 52.5478 151.329 53.1735 151.016 53.6072C150.703 54.0409 150.248 54.2542 149.643 54.2542ZM149.636 53.4508C149.928 53.4508 150.141 53.3086 150.276 53.0384C150.411 52.7611 150.482 52.3274 150.482 51.7231C150.482 51.1187 150.418 50.6779 150.276 50.4006C150.141 50.1234 149.928 49.9883 149.636 49.9883C149.345 49.9883 149.132 50.1234 148.997 50.4006C148.869 50.6779 148.805 51.1187 148.805 51.7231C148.805 52.3274 148.869 52.7611 148.997 53.0384C149.124 53.3157 149.338 53.4508 149.636 53.4508Z" fill="#010101"/>
<path d="M154.144 54.1904C153.938 54.1904 153.831 54.0837 153.831 53.8775V47.891C153.831 47.6848 153.938 47.5781 154.144 47.5781H156.846C156.988 47.5781 157.066 47.6919 157.066 47.9194V48.1114C157.066 48.3389 156.995 48.4527 156.846 48.4527H154.862V50.3794H156.639C156.775 50.3794 156.846 50.4932 156.846 50.7207V50.9127C156.846 51.1402 156.775 51.254 156.639 51.254H154.862V53.3301H156.846C156.988 53.3301 157.066 53.4438 157.066 53.6713V53.8633C157.066 54.0908 156.995 54.2046 156.846 54.2046H154.144V54.1904Z" fill="#010101"/>
<path d="M157.556 54.1908C157.393 54.1908 157.308 54.134 157.308 54.0273C157.308 53.9989 157.315 53.9704 157.329 53.9349C157.343 53.8993 157.364 53.8638 157.379 53.8282L158.495 51.6455L157.464 49.5836C157.428 49.5054 157.407 49.4485 157.407 49.3916C157.407 49.3276 157.443 49.285 157.507 49.2565C157.571 49.2281 157.684 49.221 157.834 49.221H158.004C158.104 49.221 158.196 49.2281 158.267 49.2423C158.346 49.2565 158.395 49.3063 158.417 49.3774L159.099 50.9558L159.753 49.3845C159.782 49.2992 159.839 49.2565 159.917 49.2352C159.995 49.221 160.08 49.2139 160.18 49.2139H160.329C160.479 49.2139 160.585 49.2281 160.649 49.2565C160.713 49.285 160.742 49.3276 160.742 49.3845C160.742 49.4272 160.72 49.4912 160.678 49.5765L159.647 51.6668L160.763 53.8211C160.813 53.9064 160.841 53.9775 160.841 54.0273C160.841 54.1268 160.756 54.1766 160.599 54.1766H160.244C160.144 54.1766 160.052 54.1695 159.981 54.1482C159.91 54.1268 159.846 54.07 159.81 53.9704L159.064 52.2996L158.324 53.9704C158.289 54.07 158.232 54.1339 158.154 54.1482C158.075 54.1624 157.99 54.1766 157.891 54.1766H157.564L157.556 54.1908Z" fill="#010101"/>
<path d="M162.001 56.1462C161.724 56.1462 161.589 56.068 161.589 55.9115V50.7355C161.589 50.3374 161.575 50.053 161.539 49.8752C161.511 49.6975 161.489 49.5695 161.489 49.4913C161.489 49.4344 161.532 49.3917 161.624 49.3562C161.71 49.3206 161.816 49.2993 161.923 49.2851C162.037 49.2709 162.122 49.2637 162.186 49.2637C162.271 49.2637 162.335 49.3064 162.378 49.3846C162.421 49.4628 162.456 49.6192 162.499 49.8468C162.776 49.4059 163.139 49.1855 163.594 49.1855C164.049 49.1855 164.419 49.4131 164.682 49.8681C164.952 50.3231 165.087 50.9346 165.087 51.6954C165.087 52.513 164.945 53.1458 164.66 53.5866C164.376 54.0274 164.006 54.2549 163.558 54.2549C163.331 54.2549 163.139 54.2123 162.975 54.1198C162.812 54.0274 162.677 53.9136 162.563 53.7714V55.9044C162.563 56.0608 162.421 56.1391 162.151 56.1391H162.001V56.1462ZM163.274 53.4231C163.814 53.4231 164.084 52.8472 164.084 51.6882C164.084 50.5293 163.828 49.9961 163.309 49.9961C163.032 49.9961 162.783 50.1667 162.563 50.508V53.032C162.762 53.2951 163.004 53.4302 163.274 53.4302V53.4231Z" fill="#010101"/>
<path d="M167.816 54.2549C166.501 54.2549 165.84 53.4231 165.84 51.7522C165.84 50.8777 166.003 50.2307 166.338 49.8112C166.672 49.3917 167.134 49.1855 167.731 49.1855C168.328 49.1855 168.741 49.3988 169.011 49.8325C169.281 50.2662 169.423 50.8777 169.423 51.6811C169.423 51.9726 169.302 52.1148 169.054 52.1148H166.849C166.864 52.5841 166.949 52.9183 167.12 53.1316C167.283 53.3449 167.539 53.4515 167.873 53.4515C168.087 53.4515 168.279 53.4231 168.442 53.3662C168.606 53.3093 168.741 53.2524 168.847 53.1955C168.954 53.1387 169.025 53.1102 169.068 53.1102C169.118 53.1102 169.16 53.1387 169.196 53.2027C169.231 53.2666 169.26 53.3377 169.274 53.4231C169.288 53.5084 169.302 53.5724 169.302 53.6293C169.302 53.7146 169.231 53.7999 169.082 53.8994C168.94 53.999 168.755 54.0772 168.527 54.1483C168.3 54.2194 168.065 54.2549 167.816 54.2549ZM166.849 51.3825H168.478C168.478 50.4369 168.222 49.9676 167.71 49.9676C167.447 49.9676 167.241 50.0814 167.084 50.3018C166.935 50.5293 166.857 50.8848 166.849 51.3825Z" fill="#010101"/>
<path d="M170.781 54.2123C170.49 54.2123 170.348 54.1341 170.348 53.9776V50.7355C170.348 50.3374 170.333 50.053 170.298 49.8752C170.269 49.6975 170.248 49.5695 170.248 49.4913C170.248 49.4344 170.291 49.3917 170.376 49.3562C170.461 49.3206 170.561 49.2993 170.668 49.2851C170.774 49.2709 170.867 49.2637 170.931 49.2637C171.023 49.2637 171.094 49.3064 171.13 49.3988C171.165 49.4913 171.215 49.669 171.265 49.925C171.4 49.7046 171.563 49.5268 171.77 49.3917C171.976 49.2566 172.168 49.1855 172.36 49.1855C172.481 49.1855 172.559 49.214 172.601 49.2709C172.644 49.3277 172.665 49.4131 172.665 49.5268C172.665 49.6121 172.658 49.7117 172.637 49.8183C172.616 49.925 172.594 50.0103 172.559 50.0885C172.523 50.1667 172.481 50.2023 172.431 50.2023C172.381 50.2023 172.324 50.188 172.267 50.1667C172.21 50.1454 172.118 50.1312 172.004 50.1312C171.855 50.1312 171.713 50.1738 171.592 50.2662C171.471 50.3587 171.386 50.4653 171.329 50.6075V53.9776C171.329 54.1341 171.179 54.2123 170.888 54.2123H170.781Z" fill="#010101"/>
<path d="M174.23 54.2548C174.052 54.2548 173.882 54.2193 173.718 54.1482C173.547 54.0771 173.412 53.9491 173.306 53.7713C173.192 53.5936 173.142 53.3519 173.142 53.0319V50.0457H172.815C172.673 50.0457 172.595 49.932 172.595 49.7045V49.5836C172.595 49.3561 172.666 49.2423 172.815 49.2423H173.142L173.263 48.2825C173.292 48.1261 173.405 48.0479 173.611 48.0479H173.754C173.889 48.0479 173.981 48.0692 174.038 48.1118C174.095 48.1545 174.123 48.2114 174.123 48.2896V49.2494H174.692C174.834 49.2494 174.913 49.3632 174.913 49.5907V49.7116C174.913 49.9391 174.841 50.0529 174.692 50.0529H174.123V52.9253C174.123 53.1243 174.145 53.2665 174.187 53.3376C174.23 53.4159 174.315 53.4514 174.443 53.4514C174.543 53.4514 174.621 53.4443 174.671 53.4301C174.721 53.4159 174.763 53.4087 174.792 53.4087C174.841 53.4087 174.877 53.4443 174.905 53.5154C174.934 53.5865 174.948 53.6647 174.962 53.75C174.977 53.8353 174.984 53.8993 174.984 53.9349C174.984 54.006 174.941 54.0629 174.863 54.1126C174.777 54.1624 174.685 54.1979 174.564 54.2264C174.45 54.2548 174.337 54.2619 174.237 54.2619L174.23 54.2548Z" fill="#010101"/>
<path d="M177.302 54.2542C176.697 54.2542 176.235 54.0409 175.922 53.6072C175.61 53.1735 175.453 52.5478 175.453 51.7302C175.453 50.9126 175.61 50.2798 175.93 49.839C176.249 49.3981 176.705 49.1777 177.302 49.1777C177.899 49.1777 178.361 49.3981 178.674 49.839C178.987 50.2798 179.143 50.9126 179.143 51.7302C179.143 52.5478 178.987 53.1735 178.674 53.6072C178.361 54.0409 177.906 54.2542 177.302 54.2542ZM177.295 53.4508C177.586 53.4508 177.799 53.3086 177.934 53.0384C178.07 52.7611 178.141 52.3274 178.141 51.7231C178.141 51.1187 178.077 50.6779 177.934 50.4006C177.799 50.1234 177.586 49.9883 177.295 49.9883C177.003 49.9883 176.79 50.1234 176.655 50.4006C176.527 50.6779 176.463 51.1187 176.463 51.7231C176.463 52.3274 176.527 52.7611 176.655 53.0384C176.783 53.3157 176.996 53.4508 177.295 53.4508Z" fill="#010101"/>
<path d="M179.427 0.75293H130.44C128.841 0.75293 127.546 2.04851 127.546 3.64668V64.8419C127.546 66.4401 128.841 67.7357 130.44 67.7357H179.427C181.025 67.7357 182.321 66.4401 182.321 64.8419V3.64668C182.321 2.04851 181.025 0.75293 179.427 0.75293Z" stroke="#010101" stroke-width="0.661224" stroke-miterlimit="10"/>
<path d="M183.138 66.5769L186.828 60.1922C187.859 58.4076 186.572 56.168 184.503 56.168H177.649H183.92C183.664 56.168 183.423 56.2035 183.195 56.2675H144.161C143.934 56.2035 143.692 56.168 143.436 56.168H125.59C123.528 56.168 122.234 58.4005 123.265 60.1922L126.955 66.5769L123.265 72.9616C122.234 74.7462 123.521 76.9859 125.59 76.9859H183.92H177.649H184.503C186.565 76.9859 187.859 74.7533 186.828 72.9616L183.138 66.5769Z" fill="#7C7C7D"/>
<path d="M136.007 73.5095C135.275 73.5095 134.905 73.3104 134.905 72.9051V61.3515C134.905 60.8609 135.133 60.6191 135.588 60.6191H138.766C140.11 60.6191 141.112 60.9533 141.766 61.6288C142.42 62.3042 142.748 63.3138 142.748 64.6576C142.748 66.0014 142.42 66.9967 141.766 67.6793C141.112 68.3619 140.11 68.696 138.766 68.696H137.756V72.9051C137.756 73.3104 137.387 73.5095 136.654 73.5095H136.014H136.007ZM137.756 66.2929H138.766C139.228 66.2929 139.555 66.1649 139.733 65.9089C139.911 65.653 139.996 65.2335 139.996 64.6576C139.996 64.0817 139.911 63.6622 139.733 63.4062C139.555 63.1503 139.235 63.0223 138.766 63.0223H137.756V66.2929Z" fill="white"/>
<path d="M144.589 73.4733C144.134 73.4733 143.906 73.2316 143.906 72.741V61.1873C143.906 60.7821 144.276 60.583 145.008 60.583H145.648C146.381 60.583 146.75 60.7821 146.75 61.1873V71.0702H149.431C149.8 71.0702 149.985 71.3759 149.985 71.9873V72.5561C149.985 73.1676 149.8 73.4733 149.431 73.4733H144.582H144.589Z" fill="white"/>
<path d="M150.81 73.5094C150.525 73.5094 150.326 73.4668 150.205 73.3815C150.084 73.2961 150.021 73.1895 150.021 73.0686C150.021 73.0188 150.02 72.9691 150.028 72.9122C150.028 72.8553 150.056 72.7487 150.092 72.5922L152.736 61.2732C152.8 61.0031 152.928 60.8182 153.12 60.7187C153.32 60.6191 153.575 60.5693 153.888 60.5693H155.268C155.609 60.5693 155.879 60.6191 156.064 60.7187C156.256 60.8182 156.377 61.0031 156.441 61.2732L159.086 72.5922C159.121 72.7487 159.143 72.8624 159.15 72.9122C159.157 72.962 159.157 73.0188 159.157 73.0686C159.157 73.1895 159.093 73.2961 158.972 73.3815C158.851 73.4668 158.645 73.5094 158.368 73.5094H157.394C157.138 73.5094 156.917 73.481 156.732 73.417C156.547 73.353 156.441 73.225 156.405 73.0331L156 70.8859H153.17L152.765 73.0331C152.729 73.2321 152.616 73.3601 152.431 73.417C152.246 73.481 152.033 73.5094 151.791 73.5094H150.803H150.81ZM154.301 64.75L153.583 68.6462H155.566L154.834 64.75C154.784 64.5154 154.741 64.2878 154.706 64.0532C154.67 63.8186 154.642 63.5911 154.614 63.3564H154.521C154.493 63.5911 154.464 63.8186 154.429 64.0532C154.393 64.2878 154.35 64.5225 154.301 64.75Z" fill="white"/>
<path d="M162.804 73.5095C162.072 73.5095 161.702 73.3104 161.702 72.9051V63.0223H159.647C159.278 63.0223 159.093 62.7166 159.093 62.1051V61.5363C159.093 60.9249 159.278 60.6191 159.647 60.6191H166.608C166.978 60.6191 167.155 60.9249 167.155 61.5363V62.1051C167.155 62.7166 166.971 63.0223 166.608 63.0223H164.553V72.9051C164.553 73.3104 164.183 73.5095 163.451 73.5095H162.811H162.804Z" fill="white"/>
<path d="M167.881 73.5094C167.597 73.5094 167.398 73.4668 167.277 73.3815C167.156 73.2961 167.092 73.1895 167.092 73.0686C167.092 73.0188 167.092 72.9691 167.099 72.9122C167.099 72.8553 167.127 72.7487 167.163 72.5922L169.808 61.2732C169.872 61.0031 170 60.8182 170.192 60.7187C170.391 60.6191 170.647 60.5693 170.96 60.5693H172.339C172.68 60.5693 172.95 60.6191 173.135 60.7187C173.327 60.8182 173.448 61.0031 173.512 61.2732L176.157 72.5922C176.193 72.7487 176.214 72.8624 176.221 72.9122C176.228 72.962 176.228 73.0188 176.228 73.0686C176.228 73.1895 176.164 73.2961 176.043 73.3815C175.922 73.4668 175.716 73.5094 175.439 73.5094H174.465C174.209 73.5094 173.988 73.481 173.804 73.417C173.619 73.353 173.512 73.225 173.477 73.0331L173.071 70.8859H170.242L169.836 73.0331C169.801 73.2321 169.687 73.3601 169.502 73.417C169.317 73.481 169.104 73.5094 168.862 73.5094H167.874H167.881ZM171.372 64.75L170.654 68.6462H172.638L171.905 64.75C171.855 64.5154 171.813 64.2878 171.777 64.0532C171.742 63.8186 171.713 63.5911 171.685 63.3564H171.592C171.564 63.5911 171.536 63.8186 171.5 64.0532C171.464 64.2878 171.422 64.5225 171.372 64.75Z" fill="white"/>
</svg>
