<svg width="188" height="78" viewBox="0 0 188 78" fill="none" xmlns="http://www.w3.org/2000/svg">
<path d="M11.0521 77.9759C8.76982 77.9759 7.17008 77.8479 6.24579 77.5919C5.3215 77.336 4.86646 76.7672 4.86646 75.8784C4.86646 75.5087 4.9589 74.9968 5.14376 74.3356C5.32862 73.6744 5.56321 72.8994 5.86182 72.0177L25.407 13.3892H3.76443C1.55324 13.3892 0.451172 11.5477 0.451172 7.87187V5.99484C0.451172 2.31189 1.55324 0.477539 3.76443 0.477539H38.212C38.9444 0.477539 39.5914 1.0321 40.1459 2.13414C40.7005 3.23619 41.1414 4.45198 41.4685 5.77443C41.8026 7.09688 41.9661 8.17048 41.9661 8.9739C41.9661 9.71334 41.895 10.3746 41.7457 10.9647C41.5964 11.5548 41.447 12.1449 41.3048 12.7279L21.8734 74.7835C21.4326 76.1059 20.7287 76.9734 19.776 77.3786C18.8161 77.7839 17.2733 77.983 15.1403 77.983H11.0521V77.9759Z" fill="#010101"/>
<path d="M54.045 25.2842C52.0755 25.2842 50.4971 24.3599 49.3097 22.5185C48.1224 20.677 47.5322 17.7121 47.5322 13.6239C47.5322 9.53572 48.1224 6.67042 49.3097 4.81473C50.4971 2.95193 52.0755 2.02051 54.045 2.02051C56.0144 2.02051 57.5501 2.94481 58.7517 4.78628C59.9533 6.62776 60.5577 9.57838 60.5577 13.6239C60.5577 17.6695 59.9533 20.677 58.7517 22.5185C57.5501 24.3599 55.9789 25.2842 54.045 25.2842ZM54.045 22.0563C54.9195 22.0563 55.6305 21.4377 56.1779 20.1935C56.7254 18.9564 56.9956 16.7665 56.9956 13.6239C56.9956 10.4813 56.7183 8.39813 56.1779 7.13967C55.6305 5.88121 54.9195 5.24843 54.045 5.24843C53.1704 5.24843 52.4666 5.86699 51.9404 7.11123C51.4143 8.35546 51.1441 10.524 51.1441 13.6239C51.1441 16.7239 51.4072 18.9493 51.9404 20.1935C52.4666 21.4306 53.1704 22.0563 54.045 22.0563ZM53.9383 40.9972C53.3553 40.9972 53.0638 40.8479 53.0638 40.5564C53.0638 40.4142 53.1349 40.1938 53.2842 39.9023L70.4689 3.12256C70.6111 2.7955 70.7888 2.5822 70.9879 2.48977C71.187 2.39734 71.4856 2.35468 71.8909 2.35468H72.7654C73.3484 2.35468 73.64 2.50398 73.64 2.79549C73.64 2.9448 73.5688 3.1581 73.4195 3.44961L56.2348 40.2293C56.0855 40.5564 55.9149 40.7697 55.7158 40.8621C55.5167 40.9545 55.211 40.9972 54.8128 40.9972H53.9383ZM72.6588 41.1607C70.6894 41.1607 69.1109 40.2364 67.9236 38.395C66.7362 36.5535 66.1461 33.5886 66.1461 29.5004C66.1461 25.4122 66.7362 22.5469 67.9236 20.6912C69.1109 18.8284 70.6894 17.897 72.6588 17.897C74.6283 17.897 76.164 18.8213 77.3656 20.6628C78.5672 22.5042 79.1714 25.4549 79.1714 29.5004C79.1714 33.546 78.5672 36.5535 77.3656 38.395C76.164 40.2364 74.5927 41.1607 72.6588 41.1607ZM72.6588 37.9328C73.5333 37.9328 74.2443 37.3142 74.7918 36.07C75.3393 34.8329 75.6094 32.643 75.6094 29.5004C75.6094 26.3578 75.3321 24.2746 74.7918 23.0162C74.2443 21.7577 73.5333 21.1249 72.6588 21.1249C71.7843 21.1249 71.0803 21.7435 70.5542 22.9877C70.0281 24.232 69.7579 26.4005 69.7579 29.5004C69.7579 32.6004 70.021 34.8258 70.5542 36.07C71.0803 37.3142 71.7843 37.9328 72.6588 37.9328Z" fill="#010101"/>
<path d="M53.8669 77.308C52.0254 77.308 50.5679 76.3979 49.5014 74.5635C48.4278 72.7363 47.8945 70.2976 47.8945 67.2474C47.8945 63.9697 48.4633 61.4386 49.5938 59.6611C50.7243 57.8836 52.2174 56.9949 54.0589 56.9949C54.9405 56.9949 55.7013 57.1797 56.3483 57.5423C56.9953 57.9049 57.5428 58.3671 57.9907 58.9217V49.5437C57.9907 48.8895 58.5452 48.5625 59.6544 48.5625H60.2587C61.3679 48.5625 61.9224 48.8895 61.9224 49.5437V71.1366C61.9224 72.7221 61.9864 73.8739 62.1144 74.5778C62.2424 75.2816 62.3064 75.7651 62.3064 76.014C62.3064 76.2628 62.1286 76.469 61.7803 76.6183C61.4248 76.7676 61.0266 76.8743 60.5716 76.9383C60.1166 77.0023 59.7611 77.0307 59.5122 77.0307C59.1354 77.0307 58.8723 76.8458 58.7372 76.4832C58.595 76.1206 58.4315 75.4452 58.2253 74.4569C57.692 75.3385 57.0522 76.0353 56.2985 76.5401C55.5449 77.0449 54.7343 77.2938 53.8811 77.2938L53.8669 77.308ZM55.0045 74.0587C55.5306 74.0587 56.071 73.8668 56.6113 73.4899C57.1517 73.1131 57.6139 72.5941 57.9907 71.94V61.915C57.1802 60.8556 56.2417 60.3294 55.1538 60.3294C52.9853 60.3294 51.8974 62.6473 51.8974 67.2901C51.8974 71.9329 52.9284 74.0587 54.9974 74.0587H55.0045Z" fill="#010101"/>
<path d="M73.5326 77.3079C71.0086 77.3079 69.096 76.4476 67.7877 74.7341C66.4795 73.0206 65.8184 70.5108 65.8184 67.2118C65.8184 63.9128 66.4582 61.4101 67.7451 59.6469C69.032 57.8836 70.9588 57.002 73.5326 57.002C74.2365 57.002 74.9404 57.0802 75.63 57.2295C76.3268 57.3788 76.8956 57.5778 77.3507 57.8125C77.8057 58.0542 78.0332 58.296 78.0332 58.5519C78.0332 58.7794 77.9976 59.0709 77.9194 59.4193C77.8412 59.7748 77.7346 60.0877 77.5995 60.3649C77.4573 60.6422 77.3008 60.7844 77.1231 60.7844C76.8671 60.7844 76.4619 60.692 75.8931 60.5C75.3243 60.3081 74.6133 60.2156 73.753 60.2156C72.3665 60.2156 71.3712 60.7631 70.7668 61.858C70.1625 62.953 69.8568 64.7233 69.8568 67.1692C69.8568 69.615 70.1625 71.3498 70.7668 72.4447C71.3712 73.5397 72.3665 74.0871 73.753 74.0871C74.6844 74.0871 75.4594 73.9663 76.078 73.7316C76.6965 73.4899 77.1303 73.3761 77.3791 73.3761C77.5569 73.3761 77.7132 73.5112 77.8554 73.7743C77.9905 74.0374 78.0972 74.3502 78.1612 74.6986C78.2252 75.0541 78.2536 75.3527 78.2536 75.6086C78.2536 75.8646 78.0119 76.1206 77.5355 76.3836C77.0592 76.6467 76.4548 76.8671 75.7367 77.0449C75.0186 77.2226 74.2792 77.3079 73.5255 77.3079H73.5326Z" fill="#010101"/>
<path d="M85.4497 77.3075C84.7459 77.3075 84.0562 77.1653 83.3878 76.8738C82.7195 76.5823 82.165 76.0846 81.7241 75.3807C81.2833 74.6768 81.0629 73.6885 81.0629 72.4301V60.4783H79.7404C79.1574 60.4783 78.873 60.0233 78.873 59.1132V58.6226C78.873 57.7125 79.1645 57.2575 79.7404 57.2575H81.0629L81.5535 53.3968C81.653 52.764 82.1223 52.4512 82.9541 52.4512H83.5229C84.049 52.4512 84.433 52.5365 84.6605 52.7C84.8881 52.8635 85.0018 53.0982 85.0018 53.3968V57.2575H87.2698C87.8529 57.2575 88.1372 57.7125 88.1372 58.6226V59.1132C88.1372 60.0233 87.8457 60.4783 87.2698 60.4783H85.0018V71.9751C85.0018 72.7856 85.0871 73.3402 85.2649 73.6388C85.4426 73.9374 85.7839 74.0938 86.2887 74.0938C86.6939 74.0938 86.9926 74.0654 87.1988 74.0014C87.3978 73.9374 87.5614 73.909 87.6894 73.909C87.8885 73.909 88.0448 74.0511 88.1443 74.3213C88.2439 74.5986 88.3221 74.9115 88.3719 75.2456C88.4217 75.5869 88.4501 75.8286 88.4501 75.985C88.4501 76.2623 88.2865 76.5041 87.9595 76.7032C87.6324 76.9022 87.2343 77.0587 86.7722 77.1582C86.3029 77.2577 85.8692 77.3075 85.471 77.3075H85.4497Z" fill="#010101"/>
<path d="M97.735 77.3079C95.3176 77.3079 93.4762 76.4476 92.2106 74.7199C90.9521 72.9922 90.3193 70.4895 90.3193 67.2118C90.3193 63.9341 90.9521 61.4101 92.2319 59.6469C93.5117 57.8836 95.3389 57.002 97.735 57.002C100.131 57.002 101.987 57.8836 103.238 59.6469C104.482 61.4101 105.108 63.9341 105.108 67.2118C105.108 70.4895 104.482 72.9922 103.238 74.7199C101.987 76.4476 100.159 77.3079 97.735 77.3079ZM97.6995 74.0942C98.8584 74.0942 99.7115 73.5397 100.252 72.4305C100.792 71.3214 101.062 69.5723 101.062 67.1763C101.062 64.7802 100.792 62.9885 100.252 61.8794C99.7115 60.7702 98.8584 60.2156 97.6995 60.2156C96.5405 60.2156 95.666 60.7702 95.147 61.8794C94.628 62.9885 94.372 64.7518 94.372 67.1763C94.372 69.6008 94.628 71.3214 95.147 72.4305C95.666 73.5397 96.5121 74.0942 97.6995 74.0942Z" fill="#010101"/>
<path d="M109.573 77.1157C108.386 77.1157 107.796 76.8029 107.796 76.1701V73.4114C107.796 72.7786 108.386 72.4658 109.573 72.4658H110.327C111.514 72.4658 112.105 72.7786 112.105 73.4114V76.1701C112.105 76.8029 111.514 77.1157 110.327 77.1157H109.573Z" fill="#010101"/>
<path d="M131.067 44.4449C130.385 44.4449 130.051 43.8761 130.051 42.7456V42.1697C130.051 41.0392 130.392 40.4705 131.067 40.4705H134.701V25.2196L131.373 25.696C130.968 25.7387 130.662 25.6249 130.456 25.3547C130.25 25.0845 130.115 24.7362 130.051 24.3167C129.987 23.8972 129.951 23.5275 129.951 23.2146C129.951 22.788 130.022 22.4752 130.172 22.2832C130.321 22.0912 130.541 21.9704 130.833 21.9277L138.405 20.5342C138.675 20.5342 138.967 20.6408 139.272 20.8541C139.578 21.0674 139.734 21.3234 139.734 21.622V40.4705H142.927C143.609 40.4705 143.944 41.0392 143.944 42.1697V42.7456C143.944 43.8761 143.602 44.4449 142.927 44.4449H131.075H131.067Z" fill="#D7A016"/>
<path d="M151.032 44.7153C150.442 44.7153 149.795 44.6726 149.098 44.5802C148.394 44.4877 147.726 44.3384 147.079 44.118C146.431 43.9047 145.905 43.6132 145.5 43.2506C145.095 42.888 144.889 42.4472 144.889 41.9282C144.889 41.7006 144.974 41.3878 145.145 40.9754C145.315 40.5702 145.529 40.1933 145.792 39.8521C146.055 39.5108 146.304 39.3401 146.552 39.3401C146.73 39.3401 146.993 39.4539 147.334 39.6814C147.676 39.9089 148.117 40.1365 148.657 40.3782C149.197 40.6128 149.844 40.7337 150.591 40.7337C151.586 40.7337 152.397 40.4422 153.022 39.8663C153.648 39.2904 153.954 38.4798 153.954 37.4347C153.954 36.3042 153.648 35.4439 153.037 34.8538C152.425 34.2637 151.409 33.9721 149.979 33.9721H148.792C148.109 33.9721 147.775 33.4033 147.775 32.2729V31.6614C147.775 30.5309 148.117 29.9621 148.792 29.9621H149.674C150.804 29.9621 151.686 29.6991 152.326 29.18C152.958 28.661 153.278 27.9785 153.278 27.1395C153.278 26.3005 153.044 25.6322 152.567 25.1345C152.091 24.6368 151.38 24.3879 150.427 24.3879C149.887 24.3879 149.396 24.4733 148.97 24.6439C148.536 24.8145 148.181 24.9923 147.903 25.17C147.619 25.3549 147.398 25.4402 147.242 25.4402C147.014 25.4402 146.78 25.2838 146.531 24.9781C146.282 24.6723 146.069 24.3097 145.884 23.8902C145.706 23.4708 145.614 23.101 145.614 22.7882C145.614 22.3332 145.905 21.9279 146.481 21.5653C147.057 21.2027 147.811 20.9112 148.742 20.6979C149.674 20.4846 150.641 20.3779 151.664 20.3779C153.613 20.3779 155.162 20.9183 156.314 21.9919C157.466 23.0655 158.049 24.5088 158.049 26.3218C158.049 27.5021 157.765 28.5188 157.203 29.3791C156.634 30.2394 155.866 30.8722 154.892 31.2775V31.4125C156.229 31.9102 157.217 32.6995 157.864 33.7731C158.511 34.8467 158.831 36.0909 158.831 37.4916C158.831 39.7525 158.142 41.5229 156.762 42.7884C155.383 44.054 153.478 44.6868 151.053 44.6868L151.032 44.7153Z" fill="#D7A016"/>
<path d="M166.71 29.0237C166.02 29.0237 165.466 28.7038 165.053 28.0568C164.641 27.4098 164.428 26.3717 164.428 24.9426C164.428 23.5135 164.634 22.511 165.053 21.8569C165.466 21.2028 166.02 20.8828 166.71 20.8828C167.4 20.8828 167.933 21.2028 168.36 21.8498C168.779 22.4968 168.992 23.5277 168.992 24.9426C168.992 26.3575 168.779 27.4098 168.36 28.0568C167.94 28.7038 167.385 29.0237 166.71 29.0237ZM166.71 27.8932C167.016 27.8932 167.265 27.6799 167.457 27.2391C167.649 26.7983 167.741 26.0375 167.741 24.9426C167.741 23.8477 167.649 23.1153 167.457 22.6745C167.265 22.2337 167.016 22.0133 166.71 22.0133C166.404 22.0133 166.155 22.2337 165.971 22.6674C165.786 23.1011 165.693 23.8619 165.693 24.9497C165.693 26.0375 165.786 26.8125 165.971 27.2462C166.155 27.6799 166.404 27.9003 166.71 27.9003V27.8932ZM166.674 34.5197C166.468 34.5197 166.369 34.4699 166.369 34.3633C166.369 34.3135 166.397 34.2353 166.447 34.1357L172.462 21.2668C172.512 21.153 172.576 21.0819 172.647 21.0463C172.718 21.0108 172.825 20.9966 172.96 20.9966H173.265C173.472 20.9966 173.571 21.0464 173.571 21.1459C173.571 21.1957 173.543 21.2739 173.493 21.3734L167.478 34.2424C167.428 34.3562 167.364 34.4272 167.293 34.4628C167.222 34.4912 167.115 34.5126 166.98 34.5126H166.674V34.5197ZM173.223 34.5766C172.533 34.5766 171.979 34.2566 171.566 33.6096C171.154 32.9626 170.94 31.9246 170.94 30.4955C170.94 29.0664 171.147 28.0639 171.566 27.4098C171.979 26.7556 172.533 26.4357 173.223 26.4357C173.912 26.4357 174.446 26.7556 174.872 27.4026C175.292 28.0496 175.505 29.0806 175.505 30.4955C175.505 31.9103 175.292 32.9626 174.872 33.6096C174.453 34.2566 173.905 34.5766 173.223 34.5766ZM173.223 33.4461C173.528 33.4461 173.777 33.2328 173.969 32.792C174.161 32.3583 174.254 31.5904 174.254 30.4955C174.254 29.4005 174.161 28.6682 173.969 28.2274C173.777 27.7866 173.528 27.5662 173.223 27.5662C172.917 27.5662 172.668 27.7866 172.483 28.2203C172.298 28.654 172.206 29.4147 172.206 30.5026C172.206 31.5904 172.298 32.3654 172.483 32.7991C172.668 33.2328 172.917 33.4532 173.223 33.4532V33.4461Z" fill="#D7A016"/>
<path d="M161.327 44.4952C160.751 44.4952 160.289 44.2108 159.955 43.6349C159.621 43.0589 159.45 42.2911 159.45 41.3384C159.45 40.3074 159.628 39.5111 159.983 38.9565C160.339 38.3948 160.808 38.1176 161.384 38.1176C161.661 38.1176 161.903 38.1744 162.102 38.2882C162.301 38.4019 162.479 38.5442 162.621 38.7219V35.7784C162.621 35.5722 162.799 35.4727 163.147 35.4727H163.339C163.688 35.4727 163.865 35.5722 163.865 35.7784V42.5613C163.865 43.059 163.887 43.4216 163.922 43.642C163.965 43.8624 163.979 44.0117 163.979 44.0899C163.979 44.1681 163.922 44.2321 163.816 44.2819C163.702 44.3316 163.581 44.3601 163.432 44.3814C163.29 44.4027 163.176 44.4099 163.098 44.4099C162.977 44.4099 162.899 44.353 162.856 44.2392C162.813 44.1254 162.756 43.9122 162.692 43.6064C162.529 43.8837 162.323 44.1041 162.088 44.2605C161.853 44.4169 161.597 44.4952 161.327 44.4952ZM161.683 43.4713C161.846 43.4713 162.017 43.4145 162.188 43.2936C162.358 43.1727 162.5 43.0163 162.621 42.8101V39.6604C162.365 39.3262 162.074 39.1627 161.732 39.1627C161.05 39.1627 160.709 39.895 160.709 41.3526C160.709 42.8101 161.036 43.4784 161.683 43.4784V43.4713Z" fill="#D7A016"/>
<path d="M167.505 44.4951C166.716 44.4951 166.112 44.2249 165.7 43.6845C165.287 43.1442 165.081 42.355 165.081 41.3169C165.081 40.2789 165.28 39.4968 165.685 38.9422C166.091 38.3876 166.695 38.1104 167.505 38.1104C167.726 38.1104 167.946 38.1317 168.167 38.1815C168.387 38.2312 168.565 38.2881 168.707 38.3663C168.849 38.4445 168.92 38.5156 168.92 38.6009C168.92 38.672 168.906 38.7645 168.885 38.8711C168.864 38.9849 168.828 39.0773 168.785 39.1697C168.743 39.255 168.693 39.2977 168.636 39.2977C168.558 39.2977 168.43 39.2693 168.252 39.2053C168.074 39.1484 167.847 39.12 167.584 39.12C167.15 39.12 166.837 39.2906 166.645 39.639C166.453 39.9874 166.361 40.542 166.361 41.3098C166.361 42.0777 166.453 42.6252 166.645 42.9664C166.837 43.3077 167.15 43.4855 167.584 43.4855C167.875 43.4855 168.117 43.4499 168.316 43.3717C168.508 43.2935 168.65 43.2579 168.728 43.2579C168.785 43.2579 168.835 43.3006 168.878 43.3859C168.92 43.4713 168.956 43.5637 168.97 43.6774C168.991 43.7912 168.999 43.8836 168.999 43.9618C168.999 44.04 168.92 44.1254 168.771 44.2036C168.622 44.2889 168.43 44.3529 168.209 44.4098C167.982 44.4666 167.754 44.4951 167.513 44.4951H167.505Z" fill="#D7A016"/>
<path d="M171.245 44.4949C171.025 44.4949 170.805 44.4523 170.598 44.3598C170.385 44.2674 170.215 44.111 170.072 43.8906C169.93 43.6702 169.866 43.3573 169.866 42.9663V39.2122H169.454C169.269 39.2122 169.184 39.07 169.184 38.7856V38.6292C169.184 38.3448 169.276 38.2026 169.454 38.2026H169.866L170.023 36.9939C170.051 36.7948 170.2 36.6953 170.463 36.6953H170.641C170.805 36.6953 170.925 36.7237 170.997 36.7735C171.068 36.8233 171.103 36.9015 171.103 36.9939V38.2026H171.814C171.999 38.2026 172.084 38.3448 172.084 38.6292V38.7856C172.084 39.07 171.992 39.2122 171.814 39.2122H171.103V42.8241C171.103 43.08 171.132 43.2507 171.189 43.3502C171.245 43.4426 171.352 43.4924 171.508 43.4924C171.636 43.4924 171.729 43.4853 171.793 43.464C171.857 43.4426 171.907 43.4355 171.949 43.4355C172.013 43.4355 172.063 43.4782 172.092 43.5635C172.12 43.6488 172.148 43.7484 172.163 43.855C172.177 43.9617 172.184 44.0399 172.184 44.0896C172.184 44.175 172.134 44.2532 172.028 44.3172C171.921 44.3812 171.8 44.4309 171.651 44.4594C171.501 44.4878 171.366 44.5091 171.238 44.5091L171.245 44.4949Z" fill="#D7A016"/>
<path d="M175.106 44.4948C174.346 44.4948 173.77 44.2246 173.372 43.6843C172.973 43.1439 172.774 42.3547 172.774 41.3238C172.774 40.2928 172.973 39.5036 173.372 38.949C173.77 38.3945 174.346 38.1172 175.099 38.1172C175.853 38.1172 176.436 38.3945 176.827 38.949C177.218 39.5036 177.417 40.2928 177.417 41.3238C177.417 42.3547 177.218 43.1368 176.827 43.6843C176.436 44.2246 175.86 44.4948 175.099 44.4948H175.106ZM175.092 43.4852C175.455 43.4852 175.725 43.3074 175.896 42.9591C176.066 42.6107 176.152 42.0632 176.152 41.3095C176.152 40.5559 176.066 39.9942 175.896 39.6458C175.725 39.2974 175.455 39.1197 175.092 39.1197C174.73 39.1197 174.452 39.2974 174.289 39.6458C174.125 39.9942 174.047 40.5488 174.047 41.3095C174.047 42.0703 174.125 42.6107 174.289 42.9591C174.452 43.3074 174.715 43.4852 175.092 43.4852Z" fill="#D7A016"/>
<path d="M178.831 44.4315C178.462 44.4315 178.27 44.3319 178.27 44.1328V43.2654C178.27 43.0663 178.454 42.9668 178.831 42.9668H179.066C179.436 42.9668 179.628 43.0663 179.628 43.2654V44.1328C179.628 44.3319 179.443 44.4315 179.066 44.4315H178.831Z" fill="#D7A016"/>
<path d="M134.444 14.3134C134.145 14.3134 133.996 14.2352 133.996 14.0859C133.996 14.0433 134.003 13.9793 134.017 13.8868L136.065 6.23656C136.122 6.04459 136.307 5.95215 136.627 5.95215H137.153C137.473 5.95215 137.658 6.04459 137.715 6.23656L139.748 13.8868C139.755 13.9437 139.762 13.9864 139.769 14.0148C139.777 14.0433 139.784 14.0717 139.784 14.093C139.784 14.2423 139.634 14.3206 139.329 14.3206H138.994C138.866 14.3206 138.76 14.3063 138.667 14.2708C138.575 14.2423 138.525 14.1784 138.504 14.093L138.063 12.2871H135.71L135.262 14.093C135.247 14.1784 135.191 14.2423 135.098 14.2708C135.006 14.2992 134.899 14.3206 134.771 14.3206H134.451L134.444 14.3134ZM136.705 8.1918L135.958 11.2348H137.8L137.053 8.1918C137.025 8.07093 136.997 7.95006 136.975 7.81497C136.954 7.67988 136.933 7.55189 136.911 7.42391H136.854C136.84 7.55189 136.819 7.67988 136.797 7.81497C136.776 7.95006 136.748 8.07804 136.712 8.1918H136.705Z" fill="#010101"/>
<path d="M142.145 14.3702C141.569 14.3702 141.107 14.0858 140.772 13.5099C140.438 12.9339 140.268 12.1661 140.268 11.2134C140.268 10.1824 140.445 9.3861 140.801 8.83152C141.156 8.26984 141.626 7.99255 142.201 7.99255C142.479 7.99255 142.72 8.04943 142.92 8.16319C143.119 8.27694 143.296 8.41913 143.439 8.59688V5.65338C143.439 5.44719 143.616 5.34766 143.965 5.34766H144.157C144.505 5.34766 144.683 5.44719 144.683 5.65338V12.4363C144.683 12.934 144.704 13.2966 144.74 13.517C144.782 13.7374 144.797 13.8867 144.797 13.9649C144.797 14.0431 144.74 14.1071 144.633 14.1569C144.519 14.2066 144.398 14.2351 144.249 14.2564C144.107 14.2777 143.993 14.2848 143.915 14.2848C143.794 14.2848 143.716 14.228 143.673 14.1142C143.631 14.0004 143.574 13.7872 143.51 13.4814C143.346 13.7587 143.14 13.9791 142.905 14.1355C142.671 14.2919 142.415 14.3702 142.145 14.3702ZM142.5 13.3463C142.664 13.3463 142.834 13.2895 143.005 13.1686C143.176 13.0477 143.318 12.8913 143.439 12.6851V9.5354C143.183 9.20123 142.891 9.03772 142.55 9.03772C141.867 9.03772 141.526 9.77003 141.526 11.2276C141.526 12.6851 141.853 13.3534 142.5 13.3534V13.3463Z" fill="#010101"/>
<path d="M146.801 7.28823C146.573 7.28823 146.41 7.2598 146.31 7.21003C146.218 7.16026 146.168 7.08205 146.168 6.98962V6.21464C146.168 6.12221 146.218 6.04398 146.31 5.99421C146.403 5.94444 146.566 5.91602 146.801 5.91602C147.035 5.91602 147.185 5.94444 147.277 5.99421C147.37 6.04398 147.419 6.12221 147.419 6.21464V6.98962C147.419 7.08205 147.37 7.16026 147.277 7.21003C147.185 7.2598 147.021 7.28823 146.801 7.28823ZM146.708 14.3129C146.509 14.3129 146.374 14.2844 146.296 14.2347C146.218 14.1849 146.175 14.1067 146.175 14.0142V8.34762C146.175 8.25519 146.218 8.17697 146.296 8.1272C146.374 8.07743 146.516 8.049 146.708 8.049H146.872C147.071 8.049 147.206 8.07743 147.284 8.1272C147.362 8.17697 147.405 8.25519 147.405 8.34762V14.0142C147.405 14.1067 147.362 14.1849 147.284 14.2347C147.206 14.2844 147.064 14.3129 146.872 14.3129H146.708Z" fill="#010101"/>
<path d="M151.06 14.3701C150.271 14.3701 149.667 14.0999 149.254 13.5595C148.842 13.0192 148.636 12.23 148.636 11.1919C148.636 10.1539 148.835 9.37178 149.24 8.8172C149.645 8.26263 150.25 7.98535 151.06 7.98535C151.281 7.98535 151.501 8.00669 151.721 8.05646C151.942 8.10622 152.12 8.16309 152.262 8.2413C152.404 8.31951 152.475 8.39062 152.475 8.47594C152.475 8.54704 152.461 8.63947 152.44 8.74612C152.418 8.85988 152.383 8.9523 152.34 9.04473C152.297 9.13004 152.248 9.1727 152.191 9.1727C152.113 9.1727 151.984 9.14428 151.807 9.08029C151.629 9.02341 151.402 8.99495 151.138 8.99495C150.705 8.99495 150.392 9.1656 150.2 9.51398C150.008 9.86237 149.915 10.417 149.915 11.1848C149.915 11.9527 150.008 12.5002 150.2 12.8414C150.392 13.1827 150.705 13.3605 151.138 13.3605C151.43 13.3605 151.672 13.3249 151.871 13.2467C152.063 13.1685 152.205 13.1329 152.283 13.1329C152.34 13.1329 152.39 13.1756 152.432 13.2609C152.475 13.3462 152.511 13.4387 152.525 13.5524C152.546 13.6662 152.553 13.7586 152.553 13.8368C152.553 13.915 152.475 14.0004 152.326 14.0786C152.176 14.1639 151.985 14.2279 151.764 14.2847C151.537 14.3416 151.309 14.3701 151.067 14.3701H151.06Z" fill="#010101"/>
<path d="M153.933 7.28823C153.705 7.28823 153.542 7.2598 153.442 7.21003C153.35 7.16026 153.3 7.08205 153.3 6.98962V6.21464C153.3 6.12221 153.35 6.04398 153.442 5.99421C153.534 5.94444 153.698 5.91602 153.933 5.91602C154.167 5.91602 154.317 5.94444 154.409 5.99421C154.501 6.04398 154.551 6.12221 154.551 6.21464V6.98962C154.551 7.08205 154.501 7.16026 154.409 7.21003C154.317 7.2598 154.153 7.28823 153.933 7.28823ZM153.84 14.3129C153.641 14.3129 153.506 14.2844 153.428 14.2347C153.35 14.1849 153.307 14.1067 153.307 14.0142V8.34762C153.307 8.25519 153.35 8.17697 153.428 8.1272C153.506 8.07743 153.648 8.049 153.84 8.049H154.004C154.203 8.049 154.338 8.07743 154.416 8.1272C154.494 8.17697 154.537 8.25519 154.537 8.34762V14.0142C154.537 14.1067 154.494 14.1849 154.416 14.2347C154.338 14.2844 154.196 14.3129 154.004 14.3129H153.84Z" fill="#010101"/>
<path d="M158.092 14.3708C157.331 14.3708 156.755 14.1006 156.357 13.5602C155.959 13.0199 155.76 12.2307 155.76 11.1997C155.76 10.1688 155.959 9.37959 156.357 8.82501C156.755 8.27044 157.331 7.99316 158.085 7.99316C158.838 7.99316 159.421 8.27044 159.812 8.82501C160.203 9.37959 160.402 10.1688 160.402 11.1997C160.402 12.2307 160.203 13.0128 159.812 13.5602C159.421 14.1006 158.845 14.3708 158.085 14.3708H158.092ZM158.078 13.3612C158.44 13.3612 158.71 13.1834 158.881 12.835C159.052 12.4866 159.137 11.9392 159.137 11.1855C159.137 10.4319 159.052 9.87018 158.881 9.5218C158.71 9.17341 158.44 8.99565 158.078 8.99565C157.715 8.99565 157.438 9.17341 157.274 9.5218C157.111 9.87018 157.032 10.4248 157.032 11.1855C157.032 11.9463 157.111 12.4866 157.274 12.835C157.438 13.1834 157.701 13.3612 158.078 13.3612Z" fill="#010101"/>
<path d="M162.152 14.3139C161.953 14.3139 161.818 14.2855 161.739 14.2357C161.661 14.1859 161.619 14.1077 161.619 14.0153V9.94128C161.619 9.44358 161.597 9.08098 161.562 8.85346C161.519 8.62594 161.505 8.46953 161.505 8.36999C161.505 8.29889 161.562 8.242 161.668 8.19934C161.782 8.15668 161.903 8.12824 162.045 8.11402C162.187 8.0998 162.301 8.09269 162.379 8.09269C162.5 8.09269 162.578 8.14956 162.621 8.26332C162.664 8.37708 162.721 8.59039 162.785 8.89612C162.977 8.63305 163.204 8.41975 163.474 8.24911C163.745 8.07847 164.043 7.99316 164.377 7.99316C164.804 7.99316 165.166 8.12113 165.472 8.3842C165.771 8.64727 165.927 9.05965 165.927 9.62844V14.0153C165.927 14.1077 165.885 14.1859 165.799 14.2357C165.714 14.2855 165.579 14.3139 165.387 14.3139H165.223C165.024 14.3139 164.882 14.2855 164.804 14.2357C164.719 14.1859 164.676 14.1077 164.676 14.0153V9.87729C164.676 9.60712 164.612 9.40092 164.491 9.25162C164.37 9.10231 164.171 9.03121 163.894 9.03121C163.716 9.03121 163.56 9.07386 163.417 9.15207C163.275 9.23027 163.154 9.32983 163.062 9.43648C162.969 9.55024 162.898 9.64977 162.863 9.73509V14.0153C162.863 14.1077 162.82 14.1859 162.742 14.2357C162.664 14.2855 162.522 14.3139 162.33 14.3139H162.166H162.152Z" fill="#010101"/>
<path d="M168.756 14.3705C168.23 14.3705 167.825 14.207 167.519 13.8799C167.221 13.5529 167.071 13.0978 167.071 12.5148C167.071 11.9745 167.206 11.5479 167.477 11.235C167.747 10.9151 168.116 10.6876 168.579 10.5525C169.048 10.4174 169.574 10.3463 170.171 10.3463V9.88413C170.171 9.64239 170.107 9.42911 169.972 9.25847C169.837 9.08783 169.595 9.0025 169.247 9.0025C168.955 9.0025 168.692 9.03806 168.458 9.10205C168.223 9.16604 168.031 9.23714 167.882 9.30113C167.733 9.36512 167.626 9.39356 167.576 9.39356C167.526 9.39356 167.469 9.35089 167.427 9.26557C167.384 9.18025 167.349 9.08072 167.334 8.96696C167.313 8.8532 167.306 8.76788 167.306 8.69678C167.306 8.61146 167.405 8.51192 167.605 8.40527C167.804 8.29862 168.053 8.2062 168.365 8.12088C168.678 8.03556 168.991 8 169.304 8C170.008 8 170.541 8.17065 170.896 8.50482C171.252 8.83899 171.43 9.30113 171.43 9.87703V12.4579C171.43 12.9556 171.451 13.3182 171.487 13.5386C171.522 13.7591 171.543 13.9084 171.543 13.9866C171.543 14.0648 171.487 14.1288 171.373 14.1785C171.259 14.2283 171.131 14.2568 170.996 14.2781C170.861 14.2994 170.754 14.3065 170.676 14.3065C170.555 14.3065 170.477 14.2496 170.427 14.143C170.377 14.0363 170.335 13.8515 170.285 13.5884C170.107 13.8088 169.901 13.9937 169.652 14.1501C169.41 14.2994 169.112 14.3776 168.763 14.3776L168.756 14.3705ZM169.062 13.3964C169.29 13.3964 169.503 13.3396 169.695 13.2258C169.887 13.112 170.043 12.9485 170.171 12.7352V11.235C169.489 11.235 169.012 11.3274 168.735 11.5052C168.458 11.6901 168.323 12.01 168.323 12.465C168.323 12.7565 168.387 12.9841 168.508 13.1476C168.628 13.3111 168.82 13.3893 169.069 13.3893L169.062 13.3964Z" fill="#010101"/>
<path d="M174.281 14.3705C174.061 14.3705 173.841 14.3278 173.634 14.2354C173.428 14.1429 173.25 13.9865 173.115 13.7661C172.973 13.5457 172.909 13.2328 172.909 12.8418V5.65366C172.909 5.56123 172.952 5.48302 173.03 5.42614C173.108 5.36926 173.25 5.34082 173.442 5.34082H173.606C173.805 5.34082 173.94 5.36926 174.018 5.42614C174.096 5.48302 174.139 5.55412 174.139 5.65366V12.6996C174.139 12.9556 174.168 13.1262 174.225 13.2257C174.281 13.3182 174.388 13.3679 174.544 13.3679C174.672 13.3679 174.765 13.3608 174.829 13.3395C174.893 13.3182 174.943 13.3111 174.985 13.3111C175.049 13.3111 175.099 13.3537 175.127 13.439C175.156 13.5243 175.184 13.6239 175.199 13.7305C175.213 13.8372 175.22 13.9154 175.22 13.9652C175.22 14.0505 175.17 14.1287 175.063 14.1927C174.964 14.2567 174.836 14.3064 174.687 14.3349C174.537 14.3633 174.402 14.3847 174.274 14.3847L174.281 14.3705Z" fill="#010101"/>
<path d="M131.053 54.6768C130.897 54.6768 130.783 54.6555 130.719 54.6128C130.655 54.5702 130.619 54.5133 130.619 54.4351V48.349C130.619 48.1428 130.726 48.0361 130.932 48.0361H132.39C133.627 48.0361 134.238 48.6832 134.238 49.9843C134.238 51.2854 133.62 51.9395 132.39 51.9395H131.65V54.4351C131.65 54.5133 131.615 54.5702 131.543 54.6128C131.472 54.6555 131.359 54.6768 131.202 54.6768H131.053ZM131.65 51.0792H132.39C132.688 51.0792 132.901 50.9939 133.029 50.8232C133.157 50.6526 133.221 50.3753 133.221 49.9914C133.221 49.6074 133.157 49.3372 133.029 49.1666C132.901 48.996 132.688 48.9107 132.39 48.9107H131.65V51.0721V51.0792Z" fill="#010101"/>
<path d="M135.582 54.6771C135.291 54.6771 135.148 54.5989 135.148 54.4425V51.2004C135.148 50.8022 135.134 50.5178 135.099 50.3401C135.07 50.1623 135.049 50.0343 135.049 49.9561C135.049 49.8992 135.091 49.8566 135.177 49.821C135.262 49.7855 135.362 49.7641 135.468 49.7499C135.575 49.7357 135.667 49.7286 135.731 49.7286C135.824 49.7286 135.895 49.7713 135.93 49.8637C135.966 49.9561 136.016 50.1339 136.066 50.3898C136.201 50.1694 136.364 49.9917 136.57 49.8566C136.777 49.7215 136.968 49.6504 137.16 49.6504C137.281 49.6504 137.36 49.6788 137.402 49.7357C137.445 49.7926 137.466 49.8779 137.466 49.9917C137.466 50.077 137.459 50.1765 137.438 50.2832C137.416 50.3898 137.395 50.4751 137.36 50.5533C137.324 50.6316 137.281 50.6671 137.232 50.6671C137.182 50.6671 137.125 50.6529 137.068 50.6316C137.011 50.6102 136.919 50.596 136.805 50.596C136.656 50.596 136.513 50.6387 136.393 50.7311C136.272 50.8235 136.186 50.9302 136.129 51.0724V54.4425C136.129 54.5989 135.98 54.6771 135.689 54.6771H135.582Z" fill="#010101"/>
<path d="M139.691 54.7266C138.376 54.7266 137.715 53.8948 137.715 52.2239C137.715 51.3494 137.878 50.7024 138.213 50.2829C138.547 49.8634 139.009 49.6572 139.606 49.6572C140.203 49.6572 140.616 49.8705 140.886 50.3042C141.156 50.7379 141.298 51.3494 141.298 52.1528C141.298 52.4443 141.177 52.5865 140.928 52.5865H138.724C138.739 53.0558 138.824 53.39 138.995 53.6033C139.158 53.8166 139.414 53.9232 139.748 53.9232C139.962 53.9232 140.153 53.8948 140.317 53.8379C140.481 53.781 140.616 53.7241 140.722 53.6672C140.829 53.6104 140.9 53.5819 140.943 53.5819C140.992 53.5819 141.035 53.6104 141.071 53.6744C141.106 53.7383 141.135 53.8094 141.149 53.8948C141.163 53.9801 141.177 54.0441 141.177 54.1009C141.177 54.1863 141.106 54.2716 140.957 54.3711C140.815 54.4707 140.63 54.5489 140.402 54.62C140.175 54.6911 139.94 54.7266 139.691 54.7266ZM138.724 51.8542H140.353C140.353 50.9086 140.097 50.4393 139.585 50.4393C139.322 50.4393 139.116 50.5531 138.959 50.7735C138.81 51.001 138.732 51.3565 138.724 51.8542Z" fill="#010101"/>
<path d="M143.886 54.7266C143.253 54.7266 142.777 54.5133 142.45 54.0867C142.122 53.6601 141.959 53.0344 141.959 52.2097C141.959 51.3849 142.122 50.7593 142.442 50.3185C142.762 49.8777 143.246 49.6572 143.886 49.6572C144.063 49.6572 144.234 49.6786 144.412 49.7141C144.583 49.7497 144.732 49.7994 144.838 49.8634C144.945 49.9274 145.009 49.9843 145.009 50.0483C145.009 50.1052 145.002 50.1763 144.981 50.2687C144.959 50.3611 144.938 50.4322 144.903 50.5033C144.867 50.5744 144.831 50.61 144.782 50.61C144.718 50.61 144.618 50.5886 144.476 50.5389C144.334 50.4891 144.156 50.4678 143.943 50.4678C143.594 50.4678 143.345 50.6028 143.196 50.8801C143.047 51.1574 142.969 51.5982 142.969 52.2097C142.969 52.8211 143.047 53.2549 143.196 53.525C143.345 53.8023 143.594 53.9374 143.943 53.9374C144.177 53.9374 144.369 53.909 144.526 53.845C144.682 53.7881 144.789 53.7526 144.853 53.7526C144.895 53.7526 144.938 53.7881 144.974 53.8521C145.009 53.9161 145.03 53.9943 145.052 54.0867C145.066 54.172 145.073 54.2503 145.073 54.3142C145.073 54.3782 145.016 54.4422 144.895 54.5062C144.775 54.5702 144.625 54.6271 144.447 54.6697C144.27 54.7124 144.085 54.7337 143.893 54.7337L143.886 54.7266Z" fill="#010101"/>
<path d="M146.175 49.0959C145.991 49.0959 145.863 49.0746 145.792 49.0319C145.713 48.9893 145.678 48.9324 145.678 48.8542V48.2427C145.678 48.1645 145.713 48.1076 145.792 48.065C145.87 48.0223 145.998 48.001 146.175 48.001C146.353 48.001 146.481 48.0223 146.552 48.065C146.63 48.1076 146.666 48.1645 146.666 48.2427V48.8542C146.666 48.9324 146.63 48.9893 146.552 49.0319C146.474 49.0746 146.353 49.0959 146.175 49.0959ZM146.097 54.6772C145.941 54.6772 145.827 54.6559 145.77 54.6132C145.713 54.5706 145.678 54.5137 145.678 54.4355V49.9278C145.678 49.8496 145.706 49.7927 145.77 49.75C145.834 49.7074 145.941 49.686 146.097 49.686H146.232C146.389 49.686 146.502 49.7074 146.559 49.75C146.616 49.7927 146.652 49.8496 146.652 49.9278V54.4355C146.652 54.5137 146.623 54.5706 146.559 54.6132C146.495 54.6559 146.389 54.6772 146.232 54.6772H146.097Z" fill="#010101"/>
<path d="M149.481 54.7269C148.877 54.7269 148.415 54.5136 148.102 54.0799C147.789 53.6462 147.633 53.0205 147.633 52.2029C147.633 51.3852 147.789 50.7524 148.109 50.3116C148.429 49.8708 148.884 49.6504 149.481 49.6504C150.079 49.6504 150.541 49.8708 150.854 50.3116C151.166 50.7524 151.323 51.3852 151.323 52.2029C151.323 53.0205 151.166 53.6462 150.854 54.0799C150.541 54.5136 150.086 54.7269 149.481 54.7269ZM149.474 53.9234C149.766 53.9234 149.979 53.7813 150.114 53.5111C150.249 53.2338 150.32 52.8001 150.32 52.1957C150.32 51.5914 150.256 51.1506 150.114 50.8733C149.979 50.596 149.766 50.4609 149.474 50.4609C149.183 50.4609 148.97 50.596 148.834 50.8733C148.706 51.1506 148.642 51.5914 148.642 52.1957C148.642 52.8001 148.706 53.2338 148.834 53.5111C148.962 53.7884 149.176 53.9234 149.474 53.9234Z" fill="#010101"/>
<path d="M153.989 54.663C153.782 54.663 153.676 54.5564 153.676 54.3502V48.3636C153.676 48.1574 153.782 48.0508 153.989 48.0508H156.69C156.833 48.0508 156.911 48.1645 156.911 48.392V48.584C156.911 48.8115 156.84 48.9253 156.69 48.9253H154.707V50.8521H156.484C156.619 50.8521 156.69 50.9658 156.69 51.1934V51.3853C156.69 51.6129 156.619 51.7266 156.484 51.7266H154.707V53.8027H156.69C156.833 53.8027 156.911 53.9165 156.911 54.144V54.336C156.911 54.5635 156.84 54.6772 156.69 54.6772H153.989V54.663Z" fill="#010101"/>
<path d="M157.395 54.6635C157.232 54.6635 157.146 54.6066 157.146 54.4999C157.146 54.4715 157.154 54.4431 157.168 54.4075C157.182 54.372 157.203 54.3364 157.218 54.3009L158.334 52.1181L157.303 50.0562C157.267 49.978 157.246 49.9212 157.246 49.8643C157.246 49.8003 157.282 49.7576 157.346 49.7292C157.41 49.7007 157.523 49.6936 157.673 49.6936H157.843C157.943 49.6936 158.035 49.7007 158.106 49.715C158.185 49.7292 158.234 49.779 158.256 49.8501L158.938 51.4285L159.592 49.8572C159.621 49.7718 159.678 49.7292 159.756 49.7079C159.834 49.6936 159.919 49.6865 160.019 49.6865H160.168C160.318 49.6865 160.424 49.7007 160.488 49.7292C160.552 49.7576 160.581 49.8003 160.581 49.8572C160.581 49.8998 160.559 49.9638 160.517 50.0491L159.486 52.1395L160.602 54.2938C160.652 54.3791 160.68 54.4502 160.68 54.4999C160.68 54.5995 160.595 54.6493 160.438 54.6493H160.083C159.983 54.6493 159.891 54.6422 159.82 54.6208C159.749 54.5995 159.685 54.5426 159.649 54.4431L158.903 52.7722L158.163 54.4431C158.128 54.5426 158.071 54.6066 157.993 54.6208C157.914 54.635 157.829 54.6493 157.729 54.6493H157.402L157.395 54.6635Z" fill="#010101"/>
<path d="M161.839 56.6179C161.562 56.6179 161.427 56.5397 161.427 56.3832V51.2072C161.427 50.8091 161.412 50.5246 161.377 50.3469C161.348 50.1691 161.327 50.0412 161.327 49.963C161.327 49.9061 161.37 49.8634 161.462 49.8279C161.548 49.7923 161.654 49.771 161.761 49.7568C161.875 49.7426 161.96 49.7354 162.024 49.7354C162.109 49.7354 162.173 49.7781 162.216 49.8563C162.259 49.9345 162.294 50.0909 162.337 50.3185C162.614 49.8777 162.977 49.6572 163.432 49.6572C163.887 49.6572 164.256 49.8848 164.52 50.3398C164.79 50.7948 164.925 51.4063 164.925 52.167C164.925 52.9847 164.783 53.6175 164.498 54.0583C164.214 54.4991 163.844 54.7266 163.396 54.7266C163.169 54.7266 162.977 54.684 162.813 54.5915C162.65 54.4991 162.515 54.3853 162.401 54.2431V56.3761C162.401 56.5325 162.259 56.6107 161.988 56.6107H161.839V56.6179ZM163.112 53.8948C163.652 53.8948 163.922 53.3189 163.922 52.1599C163.922 51.001 163.666 50.4678 163.147 50.4678C162.87 50.4678 162.621 50.6384 162.401 50.9797V53.5037C162.6 53.7668 162.842 53.9019 163.112 53.9019V53.8948Z" fill="#010101"/>
<path d="M167.655 54.7266C166.34 54.7266 165.679 53.8948 165.679 52.2239C165.679 51.3494 165.842 50.7024 166.176 50.2829C166.511 49.8634 166.973 49.6572 167.57 49.6572C168.167 49.6572 168.58 49.8705 168.85 50.3042C169.12 50.7379 169.262 51.3494 169.262 52.1528C169.262 52.4443 169.141 52.5865 168.892 52.5865H166.688C166.703 53.0558 166.788 53.39 166.959 53.6033C167.122 53.8166 167.378 53.9232 167.712 53.9232C167.925 53.9232 168.117 53.8948 168.281 53.8379C168.445 53.781 168.58 53.7241 168.686 53.6672C168.793 53.6104 168.864 53.5819 168.907 53.5819C168.956 53.5819 168.999 53.6104 169.035 53.6744C169.07 53.7383 169.099 53.8094 169.113 53.8948C169.127 53.9801 169.141 54.0441 169.141 54.1009C169.141 54.1863 169.07 54.2716 168.921 54.3711C168.779 54.4707 168.594 54.5489 168.366 54.62C168.139 54.6911 167.904 54.7266 167.655 54.7266ZM166.688 51.8542H168.316C168.316 50.9086 168.061 50.4393 167.549 50.4393C167.286 50.4393 167.079 50.5531 166.923 50.7735C166.774 51.001 166.695 51.3565 166.688 51.8542Z" fill="#010101"/>
<path d="M170.619 54.6771C170.328 54.6771 170.185 54.5989 170.185 54.4425V51.2004C170.185 50.8022 170.171 50.5178 170.136 50.3401C170.107 50.1623 170.086 50.0343 170.086 49.9561C170.086 49.8992 170.129 49.8566 170.214 49.821C170.299 49.7855 170.399 49.7641 170.505 49.7499C170.612 49.7357 170.705 49.7286 170.769 49.7286C170.861 49.7286 170.932 49.7713 170.968 49.8637C171.003 49.9561 171.053 50.1339 171.103 50.3898C171.238 50.1694 171.401 49.9917 171.607 49.8566C171.814 49.7215 172.006 49.6504 172.198 49.6504C172.319 49.6504 172.397 49.6788 172.439 49.7357C172.482 49.7926 172.503 49.8779 172.503 49.9917C172.503 50.077 172.496 50.1765 172.475 50.2832C172.454 50.3898 172.432 50.4751 172.397 50.5533C172.361 50.6316 172.319 50.6671 172.269 50.6671C172.219 50.6671 172.162 50.6529 172.105 50.6316C172.048 50.6102 171.956 50.596 171.842 50.596C171.693 50.596 171.551 50.6387 171.43 50.7311C171.309 50.8235 171.224 50.9302 171.167 51.0724V54.4425C171.167 54.5989 171.017 54.6771 170.726 54.6771H170.619Z" fill="#010101"/>
<path d="M174.068 54.7275C173.89 54.7275 173.719 54.6919 173.556 54.6208C173.385 54.5497 173.25 54.4217 173.144 54.244C173.03 54.0663 172.98 53.8245 172.98 53.5046V50.5184H172.653C172.511 50.5184 172.433 50.4046 172.433 50.1771V50.0562C172.433 49.8287 172.504 49.715 172.653 49.715H172.98L173.101 48.7551C173.129 48.5987 173.243 48.5205 173.449 48.5205H173.592C173.727 48.5205 173.819 48.5418 173.876 48.5845C173.933 48.6272 173.961 48.684 173.961 48.7622V49.7221H174.53C174.672 49.7221 174.75 49.8358 174.75 50.0634V50.1842C174.75 50.4117 174.679 50.5255 174.53 50.5255H173.961V53.3979C173.961 53.597 173.983 53.7392 174.025 53.8103C174.068 53.8885 174.153 53.924 174.281 53.924C174.381 53.924 174.459 53.9169 174.509 53.9027C174.559 53.8885 174.601 53.8814 174.63 53.8814C174.679 53.8814 174.715 53.9169 174.743 53.988C174.772 54.0591 174.786 54.1374 174.8 54.2227C174.814 54.308 174.822 54.372 174.822 54.4075C174.822 54.4786 174.779 54.5355 174.701 54.5853C174.615 54.6351 174.523 54.6706 174.402 54.699C174.288 54.7275 174.175 54.7346 174.075 54.7346L174.068 54.7275Z" fill="#010101"/>
<path d="M177.14 54.7269C176.535 54.7269 176.073 54.5136 175.76 54.0799C175.447 53.6462 175.291 53.0205 175.291 52.2029C175.291 51.3852 175.447 50.7524 175.767 50.3116C176.087 49.8708 176.542 49.6504 177.14 49.6504C177.737 49.6504 178.199 49.8708 178.512 50.3116C178.825 50.7524 178.981 51.3852 178.981 52.2029C178.981 53.0205 178.825 53.6462 178.512 54.0799C178.199 54.5136 177.744 54.7269 177.14 54.7269ZM177.132 53.9234C177.424 53.9234 177.637 53.7813 177.772 53.5111C177.907 53.2338 177.979 52.8001 177.979 52.1957C177.979 51.5914 177.915 51.1506 177.772 50.8733C177.637 50.596 177.424 50.4609 177.132 50.4609C176.841 50.4609 176.628 50.596 176.493 50.8733C176.365 51.1506 176.301 51.5914 176.301 52.1957C176.301 52.8001 176.365 53.2338 176.493 53.5111C176.621 53.7884 176.834 53.9234 177.132 53.9234Z" fill="#010101"/>
<path d="M179.265 1.22461H130.277C128.679 1.22461 127.384 2.52019 127.384 4.11836V65.3136C127.384 66.9118 128.679 68.2073 130.277 68.2073H179.265C180.863 68.2073 182.159 66.9118 182.159 65.3136V4.11836C182.159 2.52019 180.863 1.22461 179.265 1.22461Z" stroke="#010101" stroke-width="0.661224" stroke-miterlimit="10"/>
<path d="M183.105 67.0476L186.795 60.6629C187.826 58.8783 186.539 56.6387 184.47 56.6387H177.616H183.887C183.631 56.6387 183.389 56.6742 183.162 56.7382H144.128C143.901 56.6742 143.659 56.6387 143.403 56.6387H125.557C123.495 56.6387 122.201 58.8712 123.232 60.6629L126.922 67.0476L123.232 73.4323C122.201 75.2169 123.488 77.4566 125.557 77.4566H183.887H177.616H184.47C186.532 77.4566 187.826 75.224 186.795 73.4323L183.105 67.0476Z" fill="#D7A016"/>
<path d="M144.996 74.3848C143.354 74.3848 142.145 73.8516 141.37 72.7851C140.595 71.7186 140.204 70.062 140.204 67.8081C140.204 65.5543 140.595 63.8977 141.37 62.8312C142.145 61.7647 143.354 61.2314 144.996 61.2314C146.639 61.2314 147.862 61.7647 148.644 62.8312C149.419 63.8977 149.81 65.5543 149.81 67.8081C149.81 70.062 149.419 71.7186 148.644 72.7851C147.869 73.8516 146.653 74.3848 144.996 74.3848ZM145.017 71.9817C145.7 71.9817 146.191 71.6546 146.475 71.0076C146.759 70.3606 146.909 69.2941 146.909 67.8081C146.909 66.3222 146.767 65.2486 146.475 64.6016C146.184 63.9617 145.7 63.6346 145.017 63.6346C144.335 63.6346 143.859 63.9546 143.56 64.6016C143.261 65.2486 143.112 66.3151 143.112 67.8081C143.112 69.3012 143.261 70.3535 143.56 71.0076C143.859 71.6617 144.349 71.9817 145.017 71.9817Z" fill="white"/>
<path d="M152.383 74.278C151.651 74.278 151.281 74.0789 151.281 73.6737V62.12C151.281 61.6294 151.523 61.3877 152.014 61.3877H155.135C156.479 61.3877 157.481 61.7148 158.135 62.3689C158.789 63.023 159.116 64.0468 159.116 65.4262C159.116 66.0163 159.017 66.5211 158.811 66.9406C158.612 67.36 158.356 67.6942 158.05 67.9288C157.744 68.1635 157.417 68.2986 157.076 68.327V68.3981C157.318 68.4834 157.552 68.6469 157.766 68.8816C157.979 69.1233 158.128 69.3935 158.213 69.6992L159.337 73.3751C159.387 73.5244 159.408 73.6595 159.408 73.7945C159.408 73.9936 159.33 74.1216 159.18 74.1785C159.024 74.2425 158.74 74.2709 158.306 74.2709H157.666C157.374 74.2709 157.126 74.2354 156.934 74.1572C156.742 74.0789 156.614 73.951 156.564 73.7519L155.718 70.3533C155.633 69.9978 155.505 69.7561 155.341 69.6352C155.177 69.5144 154.914 69.4504 154.559 69.4504H154.118V73.6595C154.118 74.0647 153.748 74.2638 153.016 74.2638H152.376L152.383 74.278ZM154.132 67.0614H155.142C155.604 67.0614 155.931 66.9334 156.109 66.6775C156.287 66.4215 156.372 66.0021 156.372 65.4262C156.372 64.8503 156.287 64.4308 156.109 64.1748C155.931 63.9188 155.611 63.7909 155.142 63.7909H154.132V67.0614Z" fill="white"/>
<path d="M164.911 74.3848C163.269 74.3848 162.06 73.8516 161.285 72.7851C160.51 71.7186 160.119 70.062 160.119 67.8081C160.119 65.5543 160.51 63.8977 161.285 62.8312C162.06 61.7647 163.269 61.2314 164.911 61.2314C166.554 61.2314 167.777 61.7647 168.559 62.8312C169.334 63.8977 169.725 65.5543 169.725 67.8081C169.725 70.062 169.334 71.7186 168.559 72.7851C167.784 73.8516 166.568 74.3848 164.911 74.3848ZM164.932 71.9817C165.615 71.9817 166.106 71.6546 166.39 71.0076C166.674 70.3606 166.824 69.2941 166.824 67.8081C166.824 66.3222 166.682 65.2486 166.39 64.6016C166.099 63.9617 165.615 63.6346 164.932 63.6346C164.25 63.6346 163.774 63.9546 163.475 64.6016C163.176 65.2486 163.027 66.3151 163.027 67.8081C163.027 69.3012 163.176 70.3535 163.475 71.0076C163.774 71.6617 164.264 71.9817 164.932 71.9817Z" fill="white"/>
</svg>
