<svg width="200" height="84" viewBox="0 0 200 84" fill="none" xmlns="http://www.w3.org/2000/svg">
<path d="M17.07 82.9254C16.7714 82.9254 16.5368 82.6908 16.3519 82.2073C16.1742 81.731 16.0462 81.1764 15.9751 80.5507C15.8969 79.925 15.8613 79.406 15.8613 78.9865C15.8613 78.6594 15.9324 78.3893 16.0889 78.1831L25.7513 64.1338C26.377 63.238 26.8248 62.4346 27.095 61.7165C27.3652 60.9984 27.5003 60.3158 27.5003 59.6617C27.5003 58.5881 27.1804 57.7989 26.5405 57.2941C25.9006 56.7893 25.1185 56.5333 24.1942 56.5333C23.2699 56.5333 22.374 56.6755 21.5991 56.9599C20.8241 57.2443 20.1486 57.5287 19.5869 57.8131C19.0181 58.0975 18.556 58.2397 18.2005 58.2397C17.9019 58.2397 17.5962 58.0477 17.2833 57.6567C16.9705 57.2728 16.7145 56.7964 16.5225 56.2489C16.3306 55.6944 16.2311 55.154 16.2311 54.6137C16.2311 54.0449 16.6861 53.5116 17.5962 53.0068C18.5062 52.502 19.6296 52.0825 20.9734 51.7555C22.3172 51.4284 23.6538 51.2649 24.9976 51.2649C28.0407 51.2649 30.3372 52.0327 31.8872 53.5685C33.4371 55.1042 34.2121 57.0666 34.2121 59.4484C34.2121 60.6998 33.9988 61.8871 33.5651 63.0034C33.1314 64.1196 32.5554 65.2146 31.8445 66.2882L24.1089 77.6925H33.1029C33.9988 77.6925 34.4467 78.439 34.4467 79.9321V80.6929C34.4467 82.186 33.9988 82.9325 33.1029 82.9325H17.0843L17.07 82.9254Z" fill="#010101"/>
<path d="M49.4551 83.0182C47.6634 83.0182 46.7676 82.5419 46.7676 81.5892V76.5766H37.2829C37.0128 76.5766 36.7781 76.3136 36.5648 75.7945C36.3586 75.2755 36.1951 74.6783 36.0742 74.0028C35.9534 73.3345 35.8965 72.8013 35.8965 72.4173C35.8965 72.2111 35.9249 72.0476 35.9889 71.9267L45.6087 52.6019C45.8433 52.0971 46.213 51.7914 46.7036 51.6848C47.1942 51.5781 47.7701 51.5283 48.4242 51.5283H50.7065C52.4982 51.5283 53.387 52.0047 53.387 52.9574V71.3437H54.5956C55.4915 71.3437 55.9394 72.0903 55.9394 73.5834V74.3441C55.9394 75.8372 55.4915 76.5837 54.5956 76.5837H53.387V81.5962C53.387 82.549 52.4911 83.0253 50.7065 83.0253H49.4551V83.0182ZM47.1729 61.1836L46.9454 61.141L41.9328 71.3437H46.7178V67.3195C46.7178 65.4994 46.8671 63.4588 47.1658 61.1907L47.1729 61.1836Z" fill="#010101"/>
<path d="M60.5047 83.0178C58.713 83.0178 57.8242 82.5415 57.8242 81.5888V77.4721C57.8242 76.5193 58.7201 76.043 60.5047 76.043H61.9337C63.7254 76.043 64.6213 76.5193 64.6213 77.4721V81.5888C64.6213 82.5415 63.7254 83.0178 61.9337 83.0178H60.5047Z" fill="#010101"/>
<path d="M75.6701 51.4357C76.7721 51.4357 77.867 51.6419 78.9549 52.0613C80.0427 52.4808 81.0381 53.142 81.9268 54.0521C82.8227 54.9622 83.5408 56.1638 84.074 57.6497C84.6073 59.1428 84.8775 60.963 84.8775 63.1102C84.8775 65.9755 84.5433 68.464 83.8679 70.5827C83.1995 72.7015 82.325 74.5003 81.2514 75.9721C80.1778 77.4509 79.0331 78.6738 77.8315 79.6408C76.6228 80.6077 75.4781 81.3543 74.3903 81.8804C73.3025 82.3995 72.3853 82.7692 71.6388 82.9753C70.8922 83.1815 70.4727 83.2882 70.3874 83.2882C69.8826 83.2882 69.4631 83.0109 69.136 82.4634C68.809 81.9089 68.5602 81.3116 68.3966 80.6504C68.2331 79.9963 68.1478 79.5199 68.1478 79.2213C68.1478 78.8943 68.1833 78.6667 68.2615 78.553C68.3326 78.4321 68.489 78.3468 68.7308 78.2828C71.0557 77.6002 72.883 76.548 74.2126 75.126C75.5421 73.7111 76.5019 72.0616 77.0992 70.1846C76.5304 70.4832 75.99 70.6823 75.4639 70.7889C74.9449 70.8956 74.4401 70.9453 73.9637 70.9453C73.2456 70.9453 72.4635 70.7889 71.6174 70.4761C70.7713 70.1633 69.9537 69.6513 69.1787 68.9332C68.4037 68.2151 67.7639 67.2482 67.2519 66.0253C66.7471 64.8024 66.4912 63.2809 66.4912 61.4607C66.4912 59.0433 66.9462 57.1023 67.8563 55.6234C68.7663 54.1446 69.9324 53.0781 71.3473 52.424C72.7621 51.7698 74.2054 51.4428 75.663 51.4428L75.6701 51.4357ZM78.1301 62.5769C78.1301 60.3729 77.8813 58.8371 77.3907 57.9697C76.9001 57.1023 76.31 56.6686 75.6203 56.6686C74.8738 56.6686 74.2766 57.081 73.8286 57.8986C73.3807 58.7163 73.1603 59.8467 73.1603 61.2758C73.1603 62.7049 73.3949 63.7288 73.8784 64.518C74.3548 65.3072 75.0231 65.7053 75.8905 65.7053C76.573 65.7053 77.2912 65.4991 78.0377 65.0796C78.0946 64.2762 78.1301 63.4372 78.1301 62.5769Z" fill="#010101"/>
<path d="M96.6944 51.4357C97.7964 51.4357 98.8914 51.6419 99.9792 52.0613C101.067 52.4808 102.062 53.142 102.951 54.0521C103.847 54.9622 104.565 56.1638 105.098 57.6497C105.632 59.1428 105.902 60.963 105.902 63.1102C105.902 65.9755 105.568 68.464 104.892 70.5827C104.224 72.7015 103.349 74.5003 102.276 75.9721C101.202 77.4509 100.057 78.6738 98.8558 79.6408C97.6471 80.6077 96.5024 81.3543 95.4146 81.8804C94.3268 82.3995 93.4096 82.7692 92.6631 82.9753C91.9165 83.1815 91.497 83.2882 91.4117 83.2882C90.9069 83.2882 90.4874 83.0109 90.1603 82.4634C89.8333 81.9089 89.5845 81.3116 89.4209 80.6504C89.2574 79.9963 89.1721 79.5199 89.1721 79.2213C89.1721 78.8943 89.2076 78.6667 89.2858 78.553C89.3569 78.4321 89.5133 78.3468 89.7551 78.2828C92.08 77.6002 93.9073 76.548 95.2369 75.126C96.5664 73.7111 97.5263 72.0616 98.1235 70.1846C97.5547 70.4832 97.0143 70.6823 96.4882 70.7889C95.9692 70.8956 95.4644 70.9453 94.988 70.9453C94.2699 70.9453 93.4878 70.7889 92.6417 70.4761C91.7956 70.1633 90.978 69.6513 90.203 68.9332C89.428 68.2151 88.7882 67.2482 88.2762 66.0253C87.7714 64.8024 87.5155 63.2809 87.5155 61.4607C87.5155 59.0433 87.9705 57.1023 88.8806 55.6234C89.7906 54.1446 90.9567 53.0781 92.3715 52.424C93.7864 51.7698 95.2297 51.4428 96.6873 51.4428L96.6944 51.4357ZM99.1544 62.5769C99.1544 60.3729 98.9056 58.8371 98.415 57.9697C97.9244 57.1023 97.3343 56.6686 96.6446 56.6686C95.8981 56.6686 95.3009 57.081 94.8529 57.8986C94.405 58.7163 94.1846 59.8467 94.1846 61.2758C94.1846 62.7049 94.4192 63.7288 94.9027 64.518C95.379 65.3072 96.0474 65.7053 96.9148 65.7053C97.5973 65.7053 98.3155 65.4991 99.062 65.0796C99.1189 64.2762 99.1544 63.4372 99.1544 62.5769Z" fill="#010101"/>
<path d="M117.768 83.2884C114.639 83.2884 112.336 81.8806 110.857 79.058C109.378 76.2424 108.639 72.3106 108.639 67.2697C108.639 62.2287 109.378 58.2969 110.857 55.4814C112.336 52.6659 114.639 51.251 117.768 51.251C120.896 51.251 123.214 52.6588 124.7 55.4814C126.193 58.2969 126.94 62.2287 126.94 67.2697C126.94 72.3106 126.193 76.2424 124.7 79.058C123.207 81.8735 120.896 83.2884 117.768 83.2884ZM117.768 78.0555C118.301 78.0555 118.742 77.7782 119.09 77.2307C119.432 76.6761 119.688 75.631 119.851 74.0739C120.015 72.5239 120.1 70.2559 120.1 67.2768C120.1 64.2977 120.015 61.9941 119.851 60.4512C119.688 58.9155 119.432 57.8704 119.09 57.3229C118.749 56.7683 118.308 56.4981 117.768 56.4981C117.227 56.4981 116.794 56.7754 116.445 57.3229C116.104 57.8775 115.848 58.9226 115.685 60.4512C115.521 61.987 115.436 64.2622 115.436 67.2768C115.436 70.2914 115.521 72.5239 115.685 74.0739C115.848 75.6239 116.104 76.6761 116.445 77.2307C116.787 77.7853 117.227 78.0555 117.768 78.0555Z" fill="#010101"/>
<path d="M5.21802 83.3517C4.69899 83.3517 4.44302 83.181 4.44302 82.8327V81.4604C3.90977 81.4462 3.36231 81.3538 2.80062 81.2045C2.23894 81.048 1.74127 80.8703 1.31467 80.6641C0.952062 80.4934 0.639183 80.2944 0.383225 80.0811C0.127268 79.8678 -0.0078125 79.626 -0.0078125 79.3701C-0.0078125 79.1994 0.0277545 78.9364 0.0988539 78.5809C0.169953 78.2254 0.283705 77.8984 0.447234 77.5855C0.610763 77.2727 0.81694 77.1162 1.05868 77.1162C1.2151 77.1162 1.47107 77.2015 1.82656 77.3722C2.18206 77.5428 2.59444 77.7206 3.0708 77.8912C3.54717 78.0619 4.05198 78.1472 4.58522 78.1472C5.05448 78.1472 5.48816 78.0334 5.89343 77.7988C6.29869 77.5642 6.50492 77.0807 6.50492 76.3342C6.50492 75.8507 6.39116 75.4525 6.15654 75.1397C5.92191 74.8269 5.61618 74.5495 5.22513 74.3078C4.83409 74.0661 4.4217 73.8244 3.96666 73.5826C3.17035 73.1347 2.502 72.6654 1.94742 72.1819C1.39285 71.6985 0.973382 71.1297 0.681874 70.4827C0.390367 69.8356 0.241061 69.0465 0.241061 68.1151C0.241061 66.7144 0.632089 65.5768 1.42129 64.681C2.20339 63.7922 3.22013 63.2377 4.46437 63.0101V61.8725C4.46437 61.5241 4.7203 61.3535 5.23933 61.3535H5.3673C5.88632 61.3535 6.1423 61.5241 6.1423 61.8725V62.9319C6.66133 62.9532 7.18036 63.0243 7.7065 63.1665C8.23263 63.3016 8.68765 63.4936 9.06448 63.7353C9.22089 63.842 9.38442 63.97 9.55506 64.1264C9.7257 64.2828 9.81101 64.4748 9.81101 64.6952C9.81101 64.9369 9.77549 65.2356 9.70439 65.5911C9.63329 65.9466 9.53375 66.2594 9.39155 66.5366C9.25646 66.8139 9.07868 66.949 8.87249 66.949C8.7374 66.949 8.50992 66.8922 8.19708 66.7713C7.88425 66.6504 7.52871 66.5295 7.13767 66.4087C6.73951 66.2878 6.3485 66.2309 5.97167 66.2309C5.41709 66.2309 4.99759 66.3234 4.7132 66.5153C4.4288 66.7073 4.23684 66.9277 4.14441 67.1766C4.05198 67.4254 4.0022 67.6671 4.0022 67.8876C4.0022 68.4066 4.14438 68.819 4.42878 69.1318C4.71318 69.4446 5.08293 69.7077 5.53086 69.9352C5.97878 70.1627 6.44802 70.4116 6.93149 70.6889C7.69226 71.1226 8.31794 71.5776 8.80853 72.0611C9.29911 72.5446 9.66884 73.0991 9.92479 73.7319C10.1736 74.3647 10.3016 75.1326 10.3016 76.0497C10.3016 76.8603 10.1523 77.6281 9.86079 78.3534C9.56928 79.0786 9.10714 79.7114 8.48857 80.2446C7.87001 80.7779 7.08081 81.1405 6.13518 81.3324V82.8327C6.13518 83.181 5.87921 83.3517 5.36018 83.3517H5.21802Z" fill="#010101"/>
<path d="M17.07 31.9889C16.7714 31.9889 16.5368 31.7543 16.3519 31.2708C16.1742 30.7944 16.0462 30.2399 15.9751 29.6142C15.8969 28.9885 15.8613 28.4695 15.8613 28.05C15.8613 27.7229 15.9324 27.4527 16.0889 27.2466L25.7513 13.1974C26.377 12.3015 26.8248 11.4981 27.095 10.78C27.3652 10.0619 27.5003 9.37929 27.5003 8.72517C27.5003 7.65157 27.1804 6.8624 26.5405 6.3576C25.9006 5.85279 25.1185 5.59683 24.1942 5.59683C23.2699 5.59683 22.374 5.73901 21.5991 6.02341C20.8241 6.3078 20.1486 6.59221 19.5869 6.87661C19.0181 7.16101 18.556 7.30319 18.2005 7.30319C17.9019 7.30319 17.5962 7.11121 17.2833 6.72017C16.9705 6.33623 16.7145 5.85988 16.5225 5.31241C16.3306 4.75784 16.2311 4.21749 16.2311 3.67714C16.2311 3.10834 16.6861 2.57509 17.5962 2.07028C18.5062 1.56548 19.6296 1.14598 20.9734 0.818927C22.3172 0.49187 23.6538 0.32834 24.9976 0.32834C28.0407 0.32834 30.3372 1.09621 31.8872 2.63195C33.4371 4.1677 34.2121 6.13006 34.2121 8.51189C34.2121 9.76323 33.9988 10.9506 33.5651 12.0669C33.1314 13.1831 32.5554 14.278 31.8445 15.3516L24.1089 26.756H33.1029C33.9988 26.756 34.4467 27.5025 34.4467 28.9956V29.7564C34.4467 31.2495 33.9988 31.996 33.1029 31.996H17.0843L17.07 31.9889Z" fill="#DD0B18"/>
<path d="M46.7258 32.3518C43.5974 32.3518 41.2938 30.9441 39.8149 28.1214C38.3361 25.3059 37.5966 21.3741 37.5966 16.3331C37.5966 11.2922 38.3361 7.36037 39.8149 4.54483C41.2938 1.7293 43.5974 0.314453 46.7258 0.314453C49.8542 0.314453 52.172 1.72219 53.658 4.54483C55.1511 7.36037 55.8976 11.2922 55.8976 16.3331C55.8976 21.3741 55.1511 25.3059 53.658 28.1214C52.1649 30.9369 49.8542 32.3518 46.7258 32.3518ZM46.7258 27.1189C47.2591 27.1189 47.6999 26.8416 48.0482 26.2942C48.3895 25.7396 48.6455 24.6944 48.809 23.1373C48.9725 21.5874 49.0578 19.3193 49.0578 16.3402C49.0578 13.3612 48.9725 11.0575 48.809 9.51467C48.6455 7.97892 48.3895 6.93379 48.0482 6.38632C47.707 5.83175 47.2662 5.56155 46.7258 5.56155C46.1855 5.56155 45.7517 5.83886 45.4033 6.38632C45.0621 6.9409 44.8061 7.98603 44.6426 9.51467C44.479 11.0504 44.3937 13.3256 44.3937 16.3402C44.3937 19.3549 44.479 21.5874 44.6426 23.1373C44.8061 24.6873 45.0621 25.7396 45.4033 26.2942C45.7446 26.8487 46.1855 27.1189 46.7258 27.1189Z" fill="#DD0B18"/>
<path d="M60.5047 32.0813C58.713 32.0813 57.8242 31.6049 57.8242 30.6522V26.5355C57.8242 25.5828 58.7201 25.1064 60.5047 25.1064H61.9337C63.7254 25.1064 64.6213 25.5828 64.6213 26.5355V30.6522C64.6213 31.6049 63.7254 32.0813 61.9337 32.0813H60.5047Z" fill="#DD0B18"/>
<path d="M75.6701 0.499145C76.7721 0.499145 77.867 0.705337 78.9549 1.12482C80.0427 1.54431 81.0381 2.20552 81.9268 3.1156C82.8227 4.02567 83.5408 5.22729 84.074 6.71327C84.6073 8.20635 84.8775 10.0265 84.8775 12.1737C84.8775 15.039 84.5433 17.5274 83.8679 19.6462C83.1995 21.765 82.325 23.5638 81.2514 25.0355C80.1778 26.5144 79.0331 27.7373 77.8315 28.7043C76.6228 29.6712 75.4781 30.4178 74.3903 30.9439C73.3025 31.4629 72.3853 31.8327 71.6388 32.0389C70.8922 32.2451 70.4727 32.3517 70.3874 32.3517C69.8826 32.3517 69.4631 32.0744 69.136 31.5269C68.809 30.9723 68.5602 30.3751 68.3966 29.7139C68.2331 29.0598 68.1478 28.5834 68.1478 28.2848C68.1478 27.9577 68.1833 27.7302 68.2615 27.6165C68.3326 27.4956 68.489 27.4103 68.7308 27.3463C71.0557 26.6637 72.883 25.6115 74.2126 24.1895C75.5421 22.7746 76.5019 21.1251 77.0992 19.248C76.5304 19.5467 75.99 19.7458 75.4639 19.8524C74.9449 19.9591 74.4401 20.0088 73.9637 20.0088C73.2456 20.0088 72.4635 19.8524 71.6174 19.5396C70.7713 19.2267 69.9537 18.7148 69.1787 17.9967C68.4037 17.2786 67.7639 16.3117 67.2519 15.0888C66.7471 13.8658 66.4912 12.3443 66.4912 10.5242C66.4912 8.1068 66.9462 6.16578 67.8563 4.68691C68.7663 3.20804 69.9324 2.14155 71.3473 1.48744C72.7621 0.833322 74.2054 0.506262 75.663 0.506262L75.6701 0.499145ZM78.1301 11.6404C78.1301 9.43637 77.8813 7.90059 77.3907 7.03318C76.9001 6.16577 76.31 5.73209 75.6203 5.73209C74.8738 5.73209 74.2766 6.14445 73.8286 6.9621C73.3807 7.77974 73.1603 8.91022 73.1603 10.3393C73.1603 11.7684 73.3949 12.7922 73.8784 13.5814C74.3548 14.3707 75.0231 14.7688 75.8905 14.7688C76.573 14.7688 77.2912 14.5626 78.0377 14.1431C78.0946 13.3397 78.1301 12.5008 78.1301 11.6404Z" fill="#DD0B18"/>
<path d="M96.6944 0.499145C97.7964 0.499145 98.8914 0.705337 99.9792 1.12482C101.067 1.54431 102.062 2.20552 102.951 3.1156C103.847 4.02567 104.565 5.22729 105.098 6.71327C105.632 8.20635 105.902 10.0265 105.902 12.1737C105.902 15.039 105.568 17.5274 104.892 19.6462C104.224 21.765 103.349 23.5638 102.276 25.0355C101.202 26.5144 100.057 27.7373 98.8558 28.7043C97.6471 29.6712 96.5024 30.4178 95.4146 30.9439C94.3268 31.4629 93.4096 31.8327 92.6631 32.0389C91.9165 32.2451 91.497 32.3517 91.4117 32.3517C90.9069 32.3517 90.4874 32.0744 90.1603 31.5269C89.8333 30.9723 89.5845 30.3751 89.4209 29.7139C89.2574 29.0598 89.1721 28.5834 89.1721 28.2848C89.1721 27.9577 89.2076 27.7302 89.2858 27.6165C89.3569 27.4956 89.5133 27.4103 89.7551 27.3463C92.08 26.6637 93.9073 25.6115 95.2369 24.1895C96.5664 22.7746 97.5263 21.1251 98.1235 19.248C97.5547 19.5467 97.0143 19.7458 96.4882 19.8524C95.9692 19.9591 95.4644 20.0088 94.988 20.0088C94.2699 20.0088 93.4878 19.8524 92.6417 19.5396C91.7956 19.2267 90.978 18.7148 90.203 17.9967C89.428 17.2786 88.7882 16.3117 88.2762 15.0888C87.7714 13.8658 87.5155 12.3443 87.5155 10.5242C87.5155 8.1068 87.9705 6.16578 88.8806 4.68691C89.7906 3.20804 90.9567 2.14155 92.3715 1.48744C93.7864 0.833322 95.2297 0.506262 96.6873 0.506262L96.6944 0.499145ZM99.1544 11.6404C99.1544 9.43637 98.9056 7.90059 98.415 7.03318C97.9244 6.16577 97.3343 5.73209 96.6446 5.73209C95.8981 5.73209 95.3009 6.14445 94.8529 6.9621C94.405 7.77974 94.1846 8.91022 94.1846 10.3393C94.1846 11.7684 94.4192 12.7922 94.9027 13.5814C95.379 14.3707 96.0474 14.7688 96.9148 14.7688C97.5973 14.7688 98.3155 14.5626 99.062 14.1431C99.1189 13.3397 99.1544 12.5008 99.1544 11.6404Z" fill="#DD0B18"/>
<path d="M117.768 32.3518C114.639 32.3518 112.336 30.9441 110.857 28.1214C109.378 25.3059 108.639 21.3741 108.639 16.3331C108.639 11.2922 109.378 7.36037 110.857 4.54483C112.336 1.7293 114.639 0.314453 117.768 0.314453C120.896 0.314453 123.214 1.72219 124.7 4.54483C126.193 7.36037 126.94 11.2922 126.94 16.3331C126.94 21.3741 126.193 25.3059 124.7 28.1214C123.207 30.9369 120.896 32.3518 117.768 32.3518ZM117.768 27.1189C118.301 27.1189 118.742 26.8416 119.09 26.2942C119.432 25.7396 119.688 24.6944 119.851 23.1373C120.015 21.5874 120.1 19.3193 120.1 16.3402C120.1 13.3612 120.015 11.0575 119.851 9.51467C119.688 7.97892 119.432 6.93379 119.09 6.38632C118.749 5.83175 118.308 5.56155 117.768 5.56155C117.227 5.56155 116.794 5.83886 116.445 6.38632C116.104 6.9409 115.848 7.98603 115.685 9.51467C115.521 11.0504 115.436 13.3256 115.436 16.3402C115.436 19.3549 115.521 21.5874 115.685 23.1373C115.848 24.6873 116.104 25.7396 116.445 26.2942C116.787 26.8487 117.227 27.1189 117.768 27.1189Z" fill="#DD0B18"/>
<path d="M5.21802 32.4161C4.69899 32.4161 4.44302 32.2455 4.44302 31.8971V30.5249C3.90977 30.5107 3.36231 30.4182 2.80062 30.2689C2.23894 30.1125 1.74127 29.9348 1.31467 29.7286C0.952062 29.5579 0.639183 29.3589 0.383225 29.1456C0.127268 28.9323 -0.0078125 28.6905 -0.0078125 28.4346C-0.0078125 28.2639 0.0277545 28.0008 0.0988539 27.6453C0.169953 27.2898 0.283705 26.9628 0.447234 26.65C0.610763 26.3371 0.81694 26.1807 1.05868 26.1807C1.2151 26.1807 1.47107 26.266 1.82656 26.4367C2.18206 26.6073 2.59444 26.7851 3.0708 26.9557C3.54717 27.1263 4.05198 27.2116 4.58522 27.2116C5.05448 27.2116 5.48816 27.0979 5.89343 26.8633C6.29869 26.6286 6.50492 26.1452 6.50492 25.3986C6.50492 24.9151 6.39116 24.517 6.15654 24.2041C5.92191 23.8913 5.61618 23.614 5.22513 23.3723C4.83409 23.1306 4.4217 22.8888 3.96666 22.6471C3.17035 22.1991 2.502 21.7299 1.94742 21.2464C1.39285 20.7629 0.973382 20.1942 0.681874 19.5471C0.390367 18.9001 0.241061 18.1109 0.241061 17.1795C0.241061 15.7789 0.632089 14.6413 1.42129 13.7454C2.20339 12.8567 3.22013 12.3021 4.46437 12.0746V10.937C4.46437 10.5886 4.7203 10.418 5.23933 10.418H5.3673C5.88632 10.418 6.1423 10.5886 6.1423 10.937V11.9964C6.66133 12.0177 7.18036 12.0888 7.7065 12.231C8.23263 12.3661 8.68765 12.5581 9.06448 12.7998C9.22089 12.9065 9.38442 13.0344 9.55506 13.1909C9.7257 13.3473 9.81101 13.5392 9.81101 13.7596C9.81101 14.0014 9.77549 14.3 9.70439 14.6555C9.63329 15.011 9.53375 15.3239 9.39155 15.6011C9.25646 15.8784 9.07868 16.0135 8.87249 16.0135C8.7374 16.0135 8.50992 15.9566 8.19708 15.8357C7.88425 15.7149 7.52871 15.594 7.13767 15.4731C6.73951 15.3523 6.3485 15.2954 5.97167 15.2954C5.41709 15.2954 4.99759 15.3878 4.7132 15.5798C4.4288 15.7718 4.23684 15.9922 4.14441 16.241C4.05198 16.4899 4.0022 16.7316 4.0022 16.952C4.0022 17.471 4.14438 17.8834 4.42878 18.1962C4.71318 18.5091 5.08293 18.7722 5.53086 18.9997C5.97878 19.2272 6.44802 19.476 6.93149 19.7533C7.69226 20.187 8.31794 20.6421 8.80853 21.1255C9.29911 21.609 9.66884 22.1636 9.92479 22.7964C10.1736 23.4292 10.3016 24.197 10.3016 25.1142C10.3016 25.9247 10.1523 26.6926 9.86079 27.4179C9.56928 28.1431 9.10714 28.7758 8.48857 29.3091C7.87001 29.8423 7.08081 30.205 6.13518 30.3969V31.8971C6.13518 32.2455 5.87921 32.4161 5.36018 32.4161H5.21802Z" fill="#DD0B18"/>
<path d="M143.017 8.18464C142.832 8.18464 142.697 8.16333 142.619 8.11356C142.54 8.06379 142.505 7.9927 142.505 7.90738V0.72632C142.505 0.477472 142.626 0.356632 142.875 0.356632H144.595C146.053 0.356632 146.785 1.12449 146.785 2.65313C146.785 4.18177 146.053 4.96386 144.595 4.96386H143.728V7.90738C143.728 7.9927 143.685 8.06379 143.607 8.11356C143.522 8.16333 143.394 8.18464 143.209 8.18464H143.017ZM143.721 3.93291H144.588C144.936 3.93291 145.185 3.83338 145.342 3.6343C145.491 3.43523 145.569 3.10816 145.569 2.65313C145.569 2.19809 145.491 1.88526 145.342 1.67907C145.192 1.47999 144.936 1.38047 144.588 1.38047H143.721V3.93291Z" fill="#010101"/>
<path d="M148.371 8.18477C148.029 8.18477 147.859 8.09237 147.859 7.90751V4.08236C147.859 3.61311 147.837 3.27183 147.802 3.05853C147.766 2.84523 147.745 2.69592 147.745 2.6106C147.745 2.54661 147.795 2.48975 147.894 2.44709C147.994 2.40443 148.108 2.37595 148.243 2.36173C148.371 2.34751 148.477 2.34042 148.548 2.34042C148.662 2.34042 148.74 2.39729 148.783 2.50393C148.826 2.61058 148.883 2.81677 148.939 3.1225C149.096 2.85943 149.295 2.65327 149.537 2.48974C149.778 2.32622 150.013 2.24799 150.233 2.24799C150.376 2.24799 150.468 2.28355 150.518 2.34754C150.568 2.41153 150.589 2.51816 150.589 2.64614C150.589 2.75279 150.575 2.86654 150.553 2.9874C150.532 3.10827 150.497 3.21493 150.461 3.30736C150.418 3.39268 150.369 3.44245 150.312 3.44245C150.255 3.44245 150.191 3.42824 150.12 3.40691C150.049 3.37847 149.949 3.37137 149.814 3.37137C149.636 3.37137 149.473 3.42112 149.331 3.52777C149.188 3.63442 149.082 3.76239 149.025 3.92592V7.90751C149.025 8.09237 148.847 8.18477 148.499 8.18477H148.371Z" fill="#010101"/>
<path d="M153.22 8.23454C151.662 8.23454 150.888 7.24628 150.888 5.27683C150.888 4.24589 151.079 3.47799 151.471 2.9874C151.862 2.49682 152.409 2.24799 153.113 2.24799C153.817 2.24799 154.3 2.50396 154.62 3.01587C154.947 3.52779 155.104 4.25301 155.104 5.19863C155.104 5.53991 154.961 5.71052 154.67 5.71052H152.068C152.082 6.25799 152.189 6.66326 152.388 6.9121C152.587 7.16806 152.878 7.28895 153.276 7.28895C153.532 7.28895 153.753 7.25339 153.945 7.1894C154.137 7.12541 154.3 7.05429 154.421 6.9903C154.549 6.92631 154.634 6.8908 154.677 6.8908C154.734 6.8908 154.784 6.92633 154.826 7.00454C154.869 7.07564 154.898 7.16806 154.919 7.26048C154.94 7.35291 154.954 7.43825 154.954 7.50224C154.954 7.60178 154.869 7.70844 154.698 7.8222C154.528 7.93596 154.307 8.03548 154.037 8.1208C153.767 8.19901 153.49 8.24166 153.198 8.24166L153.22 8.23454ZM152.082 4.84313H154.002C154.002 3.72687 153.703 3.17227 153.099 3.17227C152.786 3.17227 152.537 3.30736 152.359 3.57042C152.182 3.83349 152.089 4.26008 152.082 4.8502V4.84313Z" fill="#010101"/>
<path d="M158.175 8.23391C157.428 8.23391 156.866 7.97794 156.482 7.47314C156.099 6.96833 155.899 6.2289 155.899 5.25484C155.899 4.28078 156.091 3.54138 156.468 3.02235C156.845 2.50333 157.414 2.24023 158.175 2.24023C158.381 2.24023 158.587 2.26158 158.793 2.30424C158.999 2.3469 159.17 2.40378 159.298 2.47487C159.433 2.54597 159.497 2.61707 159.497 2.69528C159.497 2.75927 159.483 2.84458 159.462 2.95123C159.44 3.05788 159.405 3.15032 159.369 3.22853C159.326 3.31385 159.284 3.34938 159.227 3.34938C159.156 3.34938 159.035 3.32095 158.864 3.26407C158.694 3.20719 158.487 3.17875 158.231 3.17875C157.819 3.17875 157.528 3.34227 157.35 3.66222C157.172 3.98217 157.08 4.50831 157.08 5.22642C157.08 5.94452 157.165 6.45644 157.35 6.78349C157.535 7.11055 157.819 7.26697 158.231 7.26697C158.509 7.26697 158.736 7.2314 158.914 7.1603C159.099 7.0892 159.227 7.05368 159.298 7.05368C159.348 7.05368 159.397 7.08921 159.44 7.16742C159.483 7.24563 159.511 7.33806 159.533 7.4376C159.554 7.54425 159.561 7.62957 159.561 7.70778C159.561 7.78599 159.49 7.85709 159.348 7.9353C159.206 8.01351 159.028 8.07751 158.814 8.12728C158.601 8.17705 158.388 8.20548 158.16 8.20548L158.175 8.23391Z" fill="#010101"/>
<path d="M160.877 1.58642C160.663 1.58642 160.507 1.56506 160.422 1.5153C160.329 1.46553 160.286 1.40155 160.286 1.30912V0.583895C160.286 0.491466 160.329 0.427492 160.422 0.377723C160.507 0.327953 160.663 0.306641 160.877 0.306641C161.09 0.306641 161.232 0.327953 161.324 0.377723C161.417 0.427492 161.46 0.491466 161.46 0.583895V1.30912C161.46 1.40155 161.417 1.46553 161.324 1.5153C161.239 1.56506 161.09 1.58642 160.877 1.58642ZM160.784 8.17735C160.599 8.17735 160.471 8.15599 160.393 8.10622C160.322 8.05645 160.279 7.98537 160.279 7.90005V2.58179C160.279 2.49647 160.315 2.42538 160.393 2.37561C160.464 2.32584 160.599 2.30453 160.784 2.30453H160.941C161.125 2.30453 161.253 2.32584 161.332 2.37561C161.403 2.42538 161.445 2.49647 161.445 2.58179V7.90005C161.445 7.98537 161.41 8.05645 161.332 8.10622C161.261 8.15599 161.125 8.17735 160.941 8.17735H160.784Z" fill="#010101"/>
<path d="M164.78 8.2346C164.069 8.2346 163.522 7.97864 163.152 7.47383C162.783 6.96192 162.598 6.2296 162.598 5.26265C162.598 4.2957 162.783 3.54915 163.159 3.03012C163.536 2.5111 164.077 2.24805 164.78 2.24805C165.484 2.24805 166.039 2.5111 166.401 3.03012C166.764 3.54915 166.956 4.2957 166.956 5.26265C166.956 6.2296 166.771 6.96903 166.401 7.47383C166.032 7.98575 165.491 8.2346 164.78 8.2346ZM164.766 7.28901C165.107 7.28901 165.356 7.12548 165.52 6.79842C165.676 6.47137 165.762 5.9523 165.762 5.24842C165.762 4.54454 165.683 4.01133 165.52 3.68427C165.356 3.35721 165.107 3.19368 164.766 3.19368C164.425 3.19368 164.169 3.35721 164.013 3.68427C163.863 4.01133 163.785 4.53032 163.785 5.24842C163.785 5.96652 163.863 6.47137 164.013 6.79842C164.162 7.12548 164.418 7.28901 164.766 7.28901Z" fill="#010101"/>
<path d="M170.098 8.15561C169.849 8.15561 169.729 8.03473 169.729 7.78588V0.711528C169.729 0.46268 169.849 0.341797 170.098 0.341797H173.291C173.461 0.341797 173.547 0.476891 173.547 0.747069V0.967475C173.547 1.23765 173.461 1.36563 173.291 1.36563H170.951V3.64082H173.049C173.212 3.64082 173.298 3.77591 173.298 4.03897V4.25938C173.298 4.52956 173.212 4.66465 173.049 4.66465H170.951V7.11755H173.291C173.461 7.11755 173.547 7.25263 173.547 7.5157V7.73611C173.547 8.00628 173.461 8.13431 173.291 8.13431H170.098V8.15561Z" fill="#010101"/>
<path d="M174.123 8.15615C173.931 8.15615 173.831 8.09215 173.831 7.96417C173.831 7.93573 173.838 7.90021 173.86 7.85755C173.881 7.81489 173.895 7.77223 173.923 7.72957L175.239 5.15578L174.023 2.72415C173.98 2.63883 173.959 2.56062 173.959 2.50374C173.959 2.43264 173.995 2.37579 174.073 2.34735C174.151 2.31891 174.279 2.30469 174.457 2.30469H174.656C174.777 2.30469 174.876 2.31178 174.969 2.33311C175.054 2.35444 175.118 2.4042 175.146 2.49663L175.95 4.35943L176.718 2.51086C176.753 2.41132 176.817 2.35445 176.91 2.34023C176.995 2.3189 177.102 2.3118 177.223 2.3118H177.4C177.578 2.3118 177.706 2.32599 177.777 2.36154C177.848 2.39709 177.891 2.44687 177.891 2.51086C177.891 2.56063 177.862 2.63884 177.813 2.73127L176.597 5.19844L177.912 7.74376C177.969 7.85041 177.998 7.92864 177.998 7.98552C177.998 8.10639 177.898 8.16327 177.706 8.16327H177.279C177.159 8.16327 177.059 8.14906 176.967 8.12773C176.881 8.1064 176.81 8.03526 176.767 7.9144L175.886 5.93786L175.018 7.9144C174.976 8.03526 174.905 8.1064 174.819 8.12773C174.727 8.14906 174.627 8.16327 174.507 8.16327H174.115L174.123 8.15615Z" fill="#010101"/>
<path d="M179.37 10.4666C179.043 10.4666 178.879 10.3741 178.879 10.1893V4.07473C178.879 3.60547 178.858 3.26419 178.822 3.05089C178.787 2.83759 178.766 2.68828 178.766 2.60296C178.766 2.53897 178.815 2.48211 178.922 2.43945C179.029 2.39679 179.142 2.36835 179.277 2.35413C179.413 2.33991 179.512 2.33278 179.59 2.33278C179.697 2.33278 179.768 2.38256 179.811 2.47499C179.853 2.57453 179.903 2.75229 179.953 3.02247C180.28 2.50344 180.714 2.24035 181.247 2.24035C181.78 2.24035 182.221 2.51054 182.534 3.05089C182.847 3.59125 183.01 4.30934 183.01 5.2123C183.01 6.17925 182.84 6.92581 182.505 7.45195C182.171 7.97808 181.738 8.24114 181.204 8.24114C180.934 8.24114 180.707 8.18427 180.522 8.07762C180.33 7.97097 180.173 7.83588 180.038 7.67235V10.1964C180.038 10.3812 179.875 10.4737 179.548 10.4737H179.37V10.4666ZM180.877 7.25285C181.517 7.25285 181.837 6.57033 181.837 5.19811C181.837 3.82589 181.531 3.20022 180.92 3.20022C180.593 3.20022 180.301 3.39928 180.038 3.80454V6.78361C180.273 7.09645 180.557 7.25285 180.877 7.25285Z" fill="#010101"/>
<path d="M186.238 8.23454C184.681 8.23454 183.906 7.24628 183.906 5.27683C183.906 4.24589 184.098 3.47799 184.489 2.9874C184.88 2.49682 185.428 2.24799 186.132 2.24799C186.836 2.24799 187.319 2.50396 187.639 3.01587C187.966 3.52779 188.123 4.25301 188.123 5.19863C188.123 5.53991 187.98 5.71052 187.689 5.71052H185.087C185.101 6.25799 185.207 6.66326 185.407 6.9121C185.606 7.16806 185.897 7.28895 186.295 7.28895C186.551 7.28895 186.772 7.25339 186.964 7.1894C187.156 7.12541 187.319 7.05429 187.44 6.9903C187.568 6.92631 187.653 6.8908 187.696 6.8908C187.753 6.8908 187.803 6.92633 187.845 7.00454C187.888 7.07564 187.916 7.16806 187.938 7.26048C187.959 7.35291 187.973 7.43825 187.973 7.50224C187.973 7.60178 187.888 7.70844 187.717 7.8222C187.547 7.93596 187.326 8.03548 187.056 8.1208C186.786 8.19901 186.509 8.24166 186.217 8.24166L186.238 8.23454ZM185.101 4.84313H187.02C187.02 3.72687 186.722 3.17227 186.118 3.17227C185.805 3.17227 185.556 3.30736 185.378 3.57042C185.2 3.83349 185.108 4.26008 185.101 4.8502V4.84313Z" fill="#010101"/>
<path d="M189.743 8.18477C189.402 8.18477 189.231 8.09237 189.231 7.90751V4.08236C189.231 3.61311 189.21 3.27183 189.174 3.05853C189.139 2.84523 189.117 2.69592 189.117 2.6106C189.117 2.54661 189.167 2.48975 189.267 2.44709C189.366 2.40443 189.48 2.37595 189.615 2.36173C189.743 2.34751 189.85 2.34042 189.921 2.34042C190.035 2.34042 190.113 2.39729 190.155 2.50393C190.198 2.61058 190.255 2.81677 190.312 3.1225C190.468 2.85943 190.667 2.65327 190.909 2.48974C191.151 2.32622 191.385 2.24799 191.606 2.24799C191.748 2.24799 191.84 2.28355 191.89 2.34754C191.94 2.41153 191.961 2.51816 191.961 2.64614C191.961 2.75279 191.947 2.86654 191.926 2.9874C191.904 3.10827 191.869 3.21493 191.833 3.30736C191.791 3.39268 191.741 3.44245 191.684 3.44245C191.627 3.44245 191.563 3.42824 191.492 3.40691C191.421 3.37847 191.321 3.37137 191.186 3.37137C191.009 3.37137 190.845 3.42112 190.703 3.52777C190.561 3.63442 190.454 3.76239 190.397 3.92592V7.90751C190.397 8.09237 190.219 8.18477 189.871 8.18477H189.743Z" fill="#010101"/>
<path d="M193.811 8.23408C193.605 8.23408 193.398 8.19143 193.207 8.10611C193.007 8.02079 192.844 7.87148 192.716 7.66529C192.588 7.45911 192.524 7.16762 192.524 6.7979V3.27136H192.133C191.962 3.27136 191.877 3.13627 191.877 2.8732V2.73099C191.877 2.46082 191.962 2.33284 192.133 2.33284H192.524L192.666 1.19527C192.695 1.01041 192.837 0.917969 193.079 0.917969H193.249C193.406 0.917969 193.519 0.939281 193.583 0.989051C193.647 1.03882 193.683 1.10995 193.683 1.19527V2.33284H194.351C194.522 2.33284 194.607 2.46793 194.607 2.73099V2.8732C194.607 3.14338 194.522 3.27136 194.351 3.27136H193.683V6.66281C193.683 6.89744 193.711 7.06808 193.761 7.1534C193.811 7.24583 193.91 7.28849 194.06 7.28849C194.181 7.28849 194.266 7.28135 194.33 7.26002C194.394 7.23869 194.437 7.2316 194.472 7.2316C194.529 7.2316 194.579 7.27424 194.607 7.35245C194.636 7.43777 194.657 7.5231 194.671 7.62264C194.685 7.72217 194.693 7.79327 194.693 7.84304C194.693 7.92836 194.643 7.99234 194.55 8.05633C194.451 8.11321 194.337 8.16298 194.202 8.19142C194.067 8.21986 193.939 8.23408 193.818 8.23408H193.811Z" fill="#010101"/>
<path d="M197.437 8.23454C196.726 8.23454 196.178 7.97858 195.808 7.47377C195.439 6.96186 195.254 6.22955 195.254 5.26259C195.254 4.29564 195.439 3.54909 195.816 3.03006C196.192 2.51104 196.733 2.24799 197.437 2.24799C198.14 2.24799 198.695 2.51104 199.058 3.03006C199.42 3.54909 199.612 4.29564 199.612 5.26259C199.612 6.22955 199.427 6.96897 199.058 7.47377C198.688 7.98569 198.148 8.23454 197.437 8.23454ZM197.422 7.28895C197.764 7.28895 198.012 7.12542 198.176 6.79836C198.332 6.47131 198.418 5.95224 198.418 5.24836C198.418 4.54448 198.34 4.01127 198.176 3.68421C198.012 3.35715 197.764 3.19362 197.422 3.19362C197.081 3.19362 196.825 3.35715 196.669 3.68421C196.519 4.01127 196.441 4.53026 196.441 5.24836C196.441 5.96646 196.519 6.47131 196.669 6.79836C196.818 7.12542 197.074 7.28895 197.422 7.28895Z" fill="#010101"/>
<path d="M195.978 20.6421L199.291 14.8973C200.223 13.2904 199.057 11.2783 197.201 11.2783H191.037H196.675C196.447 11.2783 196.227 11.3068 196.021 11.3636H160.919C160.713 11.3068 160.492 11.2783 160.265 11.2783H144.218C142.362 11.2783 141.203 13.2904 142.127 14.8973L145.441 20.6421L142.127 26.3869C141.196 27.9938 142.362 30.0059 144.218 30.0059H196.675H191.037H197.201C199.057 30.0059 200.216 27.9938 199.291 26.3869L195.978 20.6421Z" fill="#7C7C7D"/>
<path d="M153.596 26.8776C152.934 26.8776 152.607 26.6927 152.607 26.3301V15.9425C152.607 15.5017 152.814 15.2812 153.219 15.2812H156.077C157.286 15.2812 158.189 15.587 158.779 16.1913C159.369 16.7956 159.66 17.7057 159.66 18.9144C159.66 20.1231 159.369 21.019 158.779 21.6304C158.189 22.2419 157.286 22.5476 156.077 22.5476H155.167V26.3301C155.167 26.6927 154.84 26.8776 154.179 26.8776H153.596ZM155.167 20.3862H156.077C156.497 20.3862 156.788 20.2724 156.944 20.0378C157.101 19.8032 157.186 19.4334 157.186 18.9144C157.186 18.3954 157.108 18.0257 156.944 17.791C156.788 17.5564 156.497 17.4427 156.077 17.4427H155.167V20.3862Z" fill="white"/>
<path d="M161.31 26.8424C160.905 26.8424 160.698 26.622 160.698 26.1811V15.7935C160.698 15.4309 161.026 15.2461 161.687 15.2461H162.263C162.924 15.2461 163.251 15.4238 163.251 15.7935V24.681H165.661C165.988 24.681 166.159 24.9583 166.159 25.5057V26.0176C166.159 26.5722 165.995 26.8424 165.661 26.8424H161.303H161.31Z" fill="white"/>
<path d="M166.913 26.8779C166.657 26.8779 166.479 26.8424 166.366 26.7642C166.252 26.6859 166.202 26.5936 166.202 26.4869C166.202 26.4442 166.202 26.3945 166.209 26.3447C166.209 26.2949 166.231 26.1954 166.266 26.0532L168.648 15.8788C168.705 15.6371 168.819 15.4736 168.996 15.3811C169.174 15.2958 169.402 15.2461 169.693 15.2461H170.93C171.236 15.2461 171.478 15.2887 171.648 15.3811C171.819 15.4736 171.933 15.6371 171.99 15.8788L174.371 26.0532C174.407 26.1954 174.421 26.2949 174.428 26.3447C174.428 26.3945 174.435 26.4442 174.435 26.4869C174.435 26.5936 174.379 26.6931 174.272 26.7642C174.158 26.8424 173.98 26.8779 173.724 26.8779H172.85C172.615 26.8779 172.423 26.8495 172.253 26.7926C172.089 26.7357 171.99 26.622 171.954 26.4442L171.591 24.5103H169.046L168.684 26.4442C168.648 26.622 168.548 26.7357 168.385 26.7926C168.221 26.8495 168.029 26.8779 167.809 26.8779H166.913ZM170.049 19.0001L169.402 22.5053H171.186L170.525 19.0001C170.482 18.7939 170.44 18.5806 170.411 18.3744C170.376 18.1683 170.347 17.955 170.326 17.7488H170.241C170.219 17.955 170.191 18.1683 170.155 18.3744C170.12 18.5806 170.084 18.7939 170.042 19.0001H170.049Z" fill="white"/>
<path d="M177.698 26.8776C177.037 26.8776 176.71 26.6927 176.71 26.3301V17.4427H174.861C174.534 17.4427 174.363 17.1654 174.363 16.6179V16.106C174.363 15.5585 174.527 15.2812 174.861 15.2812H181.125C181.452 15.2812 181.623 15.5585 181.623 16.106V16.6179C181.623 17.1725 181.459 17.4427 181.125 17.4427H179.276V26.3301C179.276 26.6927 178.949 26.8776 178.288 26.8776H177.698Z" fill="white"/>
<path d="M182.256 26.8779C182 26.8779 181.822 26.8424 181.709 26.7642C181.595 26.6859 181.545 26.5936 181.545 26.4869C181.545 26.4442 181.545 26.3945 181.552 26.3447C181.552 26.2949 181.573 26.1954 181.609 26.0532L183.991 15.8788C184.048 15.6371 184.161 15.4736 184.339 15.3811C184.517 15.2958 184.744 15.2461 185.036 15.2461H186.273C186.579 15.2461 186.821 15.2887 186.991 15.3811C187.162 15.4736 187.276 15.6371 187.332 15.8788L189.714 26.0532C189.75 26.1954 189.764 26.2949 189.771 26.3447C189.771 26.3945 189.778 26.4442 189.778 26.4869C189.778 26.5936 189.721 26.6931 189.615 26.7642C189.501 26.8424 189.323 26.8779 189.067 26.8779H188.193C187.958 26.8779 187.766 26.8495 187.596 26.7926C187.432 26.7357 187.332 26.622 187.297 26.4442L186.934 24.5103H184.389L184.026 26.4442C183.991 26.622 183.891 26.7357 183.728 26.7926C183.564 26.8495 183.372 26.8779 183.152 26.8779H182.256ZM185.391 19.0001L184.744 22.5053H186.529L185.868 19.0001C185.825 18.7939 185.783 18.5806 185.754 18.3744C185.719 18.1683 185.69 17.955 185.669 17.7488H185.583C185.562 17.955 185.534 18.1683 185.498 18.3744C185.463 18.5806 185.427 18.7939 185.384 19.0001H185.391Z" fill="white"/>
</svg>
