<svg xmlns="http://www.w3.org/2000/svg" viewBox="0 0 1280 1280"><defs><style>.cls-1{opacity:0.6;}.cls-2{fill:#2e2e36;}.cls-3{fill:#db0812;}.cls-4{fill:#ffed00;}.cls-5{fill:#fff;}.cls-6{fill:none;stroke:#2e2e36;stroke-miterlimit:10;}</style></defs><g id="posicionamiento"><g class="cls-1"><path class="cls-2" d="M1231.32,564v4.08l-28.24,0v-2.93l17.47-27.11h4.06l-4.34,7.85L1208.71,564Zm-5.49-25.93.06,39.09h-5l-.05-39.09Z"/><path class="cls-2" d="M1253.31,548.08l6.38,10.57,6.43-10.59H1272l-9.49,14.35,9.82,14.7h-5.74l-6.73-10.89-6.7,10.91h-5.77l9.75-14.73-9.5-14.33Z"/></g><g class="cls-1"><path class="cls-2" d="M575.45,1231.14H576a17.25,17.25,0,0,0,7-1.21,10,10,0,0,0,4.13-3.26,12.3,12.3,0,0,0,2-4.61,26.17,26.17,0,0,0,.53-5.27v-6a16.53,16.53,0,0,0-.61-4.72,10.48,10.48,0,0,0-1.67-3.47,7.45,7.45,0,0,0-2.41-2.11,5.69,5.69,0,0,0-2.84-.72,6.84,6.84,0,0,0-3.08.68,6.39,6.39,0,0,0-2.27,1.93,8.81,8.81,0,0,0-1.41,2.9,13,13,0,0,0-.48,3.62,13.63,13.63,0,0,0,.43,3.39,9.75,9.75,0,0,0,1.32,3,6.78,6.78,0,0,0,2.22,2.08,6.28,6.28,0,0,0,3.13.76,7.55,7.55,0,0,0,3.13-.67,8.78,8.78,0,0,0,2.6-1.8,9,9,0,0,0,1.82-2.59,8.29,8.29,0,0,0,.79-3h2.36a11.44,11.44,0,0,1-.86,4.39,13.63,13.63,0,0,1-2.43,3.94,12,12,0,0,1-3.65,2.84,9.87,9.87,0,0,1-4.56,1.06,10.45,10.45,0,0,1-5-1.12,9.93,9.93,0,0,1-3.48-3,13.18,13.18,0,0,1-2-4.2,17.57,17.57,0,0,1-.67-4.71,17.16,17.16,0,0,1,.78-5.24,12.67,12.67,0,0,1,2.3-4.31,10.47,10.47,0,0,1,3.8-2.92,12.35,12.35,0,0,1,5.24-1,11.34,11.34,0,0,1,5.72,1.33,11.17,11.17,0,0,1,3.86,3.59,16.24,16.24,0,0,1,2.2,5.08,24.22,24.22,0,0,1,.7,5.79v1.8a48,48,0,0,1-.38,6.17,24.84,24.84,0,0,1-1.47,6,15.81,15.81,0,0,1-3.14,5.1,14.49,14.49,0,0,1-5.38,3.55,22.65,22.65,0,0,1-8.18,1.31h-.51Z"/><path class="cls-2" d="M606.46,1229.36v4a13.37,13.37,0,0,1-4.68,9.72l-2.82-1.95a15.49,15.49,0,0,0,1.44-2.41,12.62,12.62,0,0,0,.9-2.52,12.26,12.26,0,0,0,.3-2.75v-4.09Z"/><path class="cls-2" d="M618.5,1216.64l-4-1,1.93-19.47,20.06,0v4.59l-15.84,0-1.17,10.64a14.58,14.58,0,0,1,2.72-1.16,12.23,12.23,0,0,1,3.8-.54,12.11,12.11,0,0,1,4.86.92,10,10,0,0,1,3.67,2.64,11.82,11.82,0,0,1,2.33,4.13,18.22,18.22,0,0,1,.05,10.58,11.53,11.53,0,0,1-2.29,4.12,10.08,10.08,0,0,1-3.85,2.73,14.2,14.2,0,0,1-5.46,1,14.92,14.92,0,0,1-4.47-.66,10.89,10.89,0,0,1-3.76-2,10.57,10.57,0,0,1-2.69-3.38,13.26,13.26,0,0,1-1.31-4.77h4.73a9.11,9.11,0,0,0,1.29,3.7,6.24,6.24,0,0,0,2.54,2.27,8.44,8.44,0,0,0,3.67.76,7.62,7.62,0,0,0,3.14-.63,6.16,6.16,0,0,0,2.3-1.77,8,8,0,0,0,1.44-2.8,13,13,0,0,0,.49-3.67,11.13,11.13,0,0,0-.52-3.44,7.88,7.88,0,0,0-1.52-2.76,6.93,6.93,0,0,0-2.46-1.84,7.77,7.77,0,0,0-3.33-.65,8.31,8.31,0,0,0-3.77.67A14.18,14.18,0,0,0,618.5,1216.64Z"/><path class="cls-2" d="M660.64,1206.14l6.37,10.57,6.43-10.59h5.83l-9.49,14.35,9.82,14.7h-5.74l-6.73-10.89-6.7,10.91h-5.77l9.76-14.73-9.5-14.32Z"/></g><rect class="cls-3" x="116.22" y="111.97" width="1055.93" height="1055.93" transform="translate(-0.85 0.86) rotate(-0.08)"/><path class="cls-4" d="M868.42,592.49q-1.21,1.54-3.16,3.61c-1.29,1.38-2.63,2.79-4,4.25s-2.87,3-4.5,4.51a80.61,80.61,0,0,1-10.68,9,52.32,52.32,0,0,1-5.84,3.87,28,28,0,0,1-2.91,1.8l-2.92,1.55a16.12,16.12,0,0,1-2.92,1.29A3.54,3.54,0,0,1,830,623a3.62,3.62,0,0,0-1.46.65c-.48.17-1.38.42-2.67.77a5.71,5.71,0,0,1-2.68.77,8.36,8.36,0,0,1-2.3.65c-.73.08-1.5.21-2.31.38a7.26,7.26,0,0,1-1.94.27h-3a3.94,3.94,0,0,0,1.35-.27,4.66,4.66,0,0,1,1.57-.25,5.43,5.43,0,0,0,2.07-.52A21.7,21.7,0,0,0,823,624.2c.49-.16.94-.29,1.34-.38a12.53,12.53,0,0,0,1.34-.39,2.11,2.11,0,0,1,1.21-.64,2.15,2.15,0,0,0,1.22-.65,32.81,32.81,0,0,0,5.58-2.58c1-.52,2-1.07,2.92-1.67s1.95-1.25,2.92-1.94a36.62,36.62,0,0,0,5.59-3.87c1-.68,1.9-1.37,2.8-2.06s1.73-1.37,2.55-2.06a27,27,0,0,1,2.79-2.19,15.14,15.14,0,0,0,2.55-2.19c1.62-1.38,3.17-2.76,4.62-4.13s2.83-2.75,4.13-4.13a38.81,38.81,0,0,0,3.28-3.35c.89-1,1.74-2,2.56-2.84l2.18-2.32a2.7,2.7,0,0,0-.48.78,6.47,6.47,0,0,1-.61,1,9.43,9.43,0,0,1-.85,1c-.65.86-1.38,1.8-2.19,2.84m-74.73-13a30.9,30.9,0,0,0-1.34,4.25,66.69,66.69,0,0,0-1.82,8.77c-.41,2.92-.68,5.59-.85,8a37.36,37.36,0,0,0,.24,5.41v1.55a.76.76,0,0,0,.24.52.76.76,0,0,1-.24-.52,2.32,2.32,0,0,0-.12-.64,3.09,3.09,0,0,1-.12-.91,28.57,28.57,0,0,1-.49-5.41v-3.87a22.86,22.86,0,0,1,.49-4.12c.17-.86.28-1.64.36-2.32s.21-1.38.36-2.07c.17-.86.33-1.63.49-2.32a21.35,21.35,0,0,1,.73-2.32c.81-2.92,1.7-5.75,2.68-8.51.64-1.37,1.21-2.66,1.7-3.86s1-2.33,1.45-3.36l1.34-2.83a21.26,21.26,0,0,1,1.09-2.06,6.46,6.46,0,0,0,.37-.91,1.5,1.5,0,0,1,.37-.64.82.82,0,0,0,.24-.52,11.38,11.38,0,0,1-.73,2.07c-.33.68-.69,1.46-1.09,2.32a22,22,0,0,0-1.1,2.83c-.33,1-.73,2.15-1.21,3.36s-1,2.49-1.46,3.86-1,2.79-1.58,4.26m4.49-29.79a21.5,21.5,0,0,0,1.7-2.57,24,24,0,0,1,1.71-2.58c1-1.72,1.9-3.23,2.79-4.52s1.74-2.45,2.56-3.48a8.63,8.63,0,0,0,.84-1,5.8,5.8,0,0,0,.61-1,2.77,2.77,0,0,1,.49-.77,2.77,2.77,0,0,0-.49.77c-.16.35-.33.73-.49,1.16a3.42,3.42,0,0,1-.72,1.16c-.66,1.21-1.38,2.41-2.19,3.61a22.51,22.51,0,0,1-1.21,2.19c-.5.78-1,1.6-1.47,2.45a15.49,15.49,0,0,0-1.57,2.45c-.73,1.29-1.46,2.54-2.19,3.74s-1.34,2.24-1.82,3.1-.66,1-.49.51Zm72-3.61.72-3.09c.16-.52.33-1,.49-1.55a4.46,4.46,0,0,0,.24-1.29,4.74,4.74,0,0,0,.24-1.41,2.79,2.79,0,0,1,.25-1.17,4.71,4.71,0,0,1,.24-1.8v1.8a12.16,12.16,0,0,1-.24,2.58,8.65,8.65,0,0,1-.12,1.42c-.09.43-.21.9-.37,1.42a10.37,10.37,0,0,0-.36,1.68,11.11,11.11,0,0,1-.37,1.67c-.32,1-1.05.26-.72-.26m2.42,1.16a41.18,41.18,0,0,0,2.19-12.5,37.32,37.32,0,0,0-2.19-12.25A43.2,43.2,0,0,0,866.6,511a35.28,35.28,0,0,0-8.75-8.51,18.34,18.34,0,0,0-10.33-3.36q-6.07,0-13.61,4.9a87.86,87.86,0,0,0-15.31,13,163.21,163.21,0,0,0-15.19,18.56,172,172,0,0,0-13.12,21.66,145.93,145.93,0,0,0-9.24,22.43,69.68,69.68,0,0,0-3.53,20.76q0,5.41,3.4,12.76a66.6,66.6,0,0,0,8.76,13.93,56.79,56.79,0,0,0,12.15,11.21A24,24,0,0,0,815.44,643a52.16,52.16,0,0,0,21.14-4.71,123.19,123.19,0,0,0,20.91-11.86,161.27,161.27,0,0,0,19.07-15.66c5.92-5.68,3.42-2.79,7.79-8.12,8.63-9.54-10.67-22.23-12.64-18.43-4.21,5.07-1.34,2.09-6.69,7.85A159.58,159.58,0,0,1,848,608a104.81,104.81,0,0,1-18.48,12,40.93,40.93,0,0,1-18.47,4.77q-7.77,0-10.08-4.5a23.74,23.74,0,0,1-2.31-10.94,66.38,66.38,0,0,1,2.92-18.51,134.55,134.55,0,0,1,7.65-20.06,158,158,0,0,1,10.82-19.3A140.54,140.54,0,0,1,832.57,535a70.82,70.82,0,0,1,12.89-11.57Q851.9,519,857,519c2.26,0,3.48.65,3.64,1.93a26.7,26.7,0,0,1,.25,3,25.29,25.29,0,0,1-2.56,10.31c-1.7,3.79,5,13.29,14.22,13"/><path class="cls-4" d="M908.91,612.34v0a17.07,17.07,0,0,1,.25-3.09,18.76,18.76,0,0,1,.12-2.19c.08-.78.2-1.59.36-2.45a14,14,0,0,0,.73-2.71c.16-.94.41-2,.73-3.23.33-1,.61-2.1.85-3.22s.53-2.36.86-3.74c.32-1.2.68-2.4,1.09-3.61s.76-2.48,1.09-3.86q1.21-4.12,2.67-8.13t2.92-8.38c1-2.74,2-5.45,3-8.12s2.06-5.28,3-7.86,1.94-5,2.91-7.35,1.86-4.52,2.68-6.58q2.91-6.71,4.37-9.8a4,4,0,0,0,.6-1.41,5.53,5.53,0,0,1,.37-1.17l.49-1a23.72,23.72,0,0,1-1.46,3.86c-.48,1.21-1.06,2.63-1.7,4.26s-1.38,3.48-2.18,5.54-1.67,4.26-2.56,6.58-1.82,4.77-2.79,7.35q-2.92,7.72-5.83,16.24-1.47,4.13-2.92,8.25c-1,2.75-1.87,5.42-2.68,8-.48,1.38-.93,2.67-1.33,3.87s-.78,2.41-1.1,3.61c-.33,1.38-.65,2.63-1,3.74s-.65,2.19-1,3.22a44.83,44.83,0,0,0-1.46,5.93,9.89,9.89,0,0,0-.61,2.32,18.68,18.68,0,0,1-.36,2.07,17.07,17.07,0,0,0-.25,3.09m-2.2-46.54q1.34-4.51,3.28-10.19c.65-1.88,1.3-3.82,2-5.8s1.38-4.08,2.18-6.31,1.59-4.43,2.31-6.58,1.5-4.42,2.31-6.83c1.79-4.47,3.56-9.11,5.35-13.93s3.65-9.71,5.59-14.69,3.93-9.84,6-14.57,4-9.32,6-13.8,3.84-8.72,5.71-12.76,3.6-7.87,5.22-11.48l4.5-9.54c1.38-2.91,2.55-5.41,3.53-7.47,1.13-2.41,2.1-4.55,2.91-6.45q-1.22,3.09-2.67,6.71-1.21,3.09-3,7.47c-1.22,2.93-2.63,6.19-4.25,9.81q-2.19,5.4-4.86,11.59l-5.59,12.9q-2.92,6.71-5.83,13.79t-5.84,14.57q-2.91,7.22-5.71,14.44t-5.47,14.18q-1.22,3.61-2.43,6.83c-.81,2.16-1.62,4.26-2.43,6.32s-1.54,4.09-2.19,6.06-1.37,3.91-2.18,5.8q-2,5.67-3.53,10.06c-1.06,2.93-2,5.5-2.79,7.73q-1.21,3.87-2.43,7a4.4,4.4,0,0,1,.48-1.8,15.18,15.18,0,0,1,.73-2.19,22.08,22.08,0,0,0,1-3q1-3.35,2.31-7.86m49.23-114q-1.1,2.71-2.3,5.54c-.82,2.06-1.67,4.13-2.56,6.19s-1.82,4.13-2.79,6.19q-2.68,6.71-5.1,12.38c-.82,1.89-1.58,3.78-2.31,5.67a51.46,51.46,0,0,1-2.31,5.16q-1,2.58-1.83,4.51c-.57,1.29-1,2.36-1.33,3.22-.49,1-.9,2-1.22,2.84a2,2,0,0,1,.25-.78l1-2.06c.32-1,.69-2.19,1.09-3.48s.93-2.79,1.58-4.51c.64-1.55,1.34-3.26,2.07-5.16s1.49-3.78,2.31-5.67a132,132,0,0,1,5.1-12.38q1.22-3.35,2.67-6.44c1-2.07,1.86-4,2.67-5.94s1.62-3.73,2.44-5.54,1.61-3.56,2.43-5.28q1-2.32,1.94-4.26c.64-1.29,1.13-2.36,1.46-3.22.49-1,.89-2,1.21-2.84a23.33,23.33,0,0,1-1.21,3.1c-.33.86-.73,1.93-1.22,3.22s-1.06,2.71-1.7,4.25c-.81,1.72-1.58,3.49-2.31,5.29m8,116.81q-3.53,7.33-7.65,15.08t-8.75,15.08A102.71,102.71,0,0,1,937.84,612a50.07,50.07,0,0,1-10.58,9.28,20.39,20.39,0,0,1-11,3.48q-5.6,0-5.6-5.17,0-7.74,3-19.61t7.91-26.21q4.85-14.33,11.18-30.07t12.75-31.11q6.43-15.37,12.76-29.56t11.18-25.43q4.86-11.22,7.9-18.46t3-9a12.4,12.4,0,0,0-2.31-6.85,38.47,38.47,0,0,0-10.45-10.58,9.19,9.19,0,0,0-3.28-1.67c-1.62,0-2.43,1-2.43,3.08a70.94,70.94,0,0,1-3,7.61q-3,7.09-8,18.57t-11.3,26.3q-6.33,14.82-13,31.07t-13,32.74q-6.3,16.51-11.22,31.46T894.42,589q-3,12.24-3,19.72A26.7,26.7,0,0,0,895,622.4a46.62,46.62,0,0,0,8.63,10.83,39.83,39.83,0,0,0,10.87,7.22,25.77,25.77,0,0,0,10.2,2.57,31.64,31.64,0,0,0,20.9-7.75,85.45,85.45,0,0,0,16.52-18.95,169.1,169.1,0,0,0,12.76-23.44q5.46-12.25,9.6-21c.65-1.37.36-3.14-.85-5.29a32.4,32.4,0,0,0-4.62-6.18,24.64,24.64,0,0,0-5.47-4.52c-1.78-1-2.91-1.11-3.4-.26q-2.68,5.68-6.2,13"/><path class="cls-4" d="M727.94,632.29a3.1,3.1,0,0,0,.86,2.37,41.36,41.36,0,0,1,5,4.48,11,11,0,0,0,5.71,3.16,14,14,0,0,0,8.07.25,19.07,19.07,0,0,0,7.57-3.94,39.56,39.56,0,0,0,10.67-22.38c0-1.41-.71-3.25-2.11-5.54s-2.78-3.6-4.1-3.94a22,22,0,0,0-8.06-1.06,70,70,0,0,0-8.07,1.06,3.53,3.53,0,0,1-1.11.79,2.53,2.53,0,0,0-1.13,1.05,119.33,119.33,0,0,1-9.92,11.32,13.52,13.52,0,0,0-3.47,9.22c0,.88,0,1.93.12,3.16"/><path class="cls-5" d="M294.47,579.47Q295,602.36,306.21,613t33.05,10.62a98.44,98.44,0,0,0,36.43-6.81,41.42,41.42,0,0,1,3.5,10,65.06,65.06,0,0,1,1.62,11.57A89.3,89.3,0,0,1,361.25,644,134.7,134.7,0,0,1,337.64,646q-18.88,0-32.38-5.31a58.34,58.34,0,0,1-22.25-15,59.41,59.41,0,0,1-12.82-22.88,98.67,98.67,0,0,1-4.05-29,103.63,103.63,0,0,1,3.92-29,65.37,65.37,0,0,1,12-23.43,58.23,58.23,0,0,1,20.37-15.81q12.27-5.85,29-5.85,14.3,0,25.09,4.9A51,51,0,0,1,374.6,518a58.84,58.84,0,0,1,11.07,20.43,84.61,84.61,0,0,1,3.77,25.75q0,3.81-.26,8t-.55,7.22ZM363,559.32a52.19,52.19,0,0,0-2-14.58,37.3,37.3,0,0,0-5.93-12.13,29.4,29.4,0,0,0-10-8.31,31.23,31.23,0,0,0-14.44-3.13q-16.46,0-25.22,10.08t-10.66,28.07Z"/><path class="cls-5" d="M478.48,550.59q0-16.07-8.1-22.34T446.92,522a98.5,98.5,0,0,0-17.68,1.5,132.42,132.42,0,0,0-16.05,4q-5.13-9-5.13-21.53a123.86,123.86,0,0,1,20.24-4.63,145.64,145.64,0,0,1,21.31-1.63q27,0,41,12.4t14,39.63v87.46q-9.45,2.19-22.93,4.5A162.85,162.85,0,0,1,454.2,646a106.4,106.4,0,0,1-23.88-2.45,48.68,48.68,0,0,1-18.08-7.9,36.56,36.56,0,0,1-11.47-13.9q-4-8.43-4-20.43A41.76,41.76,0,0,1,414.27,566a57,57,0,0,1,18.61-8.72A83.9,83.9,0,0,1,455,554.41q8.63,0,14.16.41c3.68.27,6.79.59,9.31.95Zm0,26.43q-4.05-.54-10.25-1.09t-10.53-.54q-16.72,0-25.49,6.26t-8.77,19.07c0,5.46,1,9.72,3,12.81a20.47,20.47,0,0,0,7.42,7.08,25.26,25.26,0,0,0,9.84,3,100.36,100.36,0,0,0,10.26.54,126.05,126.05,0,0,0,12.81-.67,77,77,0,0,0,11.74-2.05Z"/><path class="cls-5" d="M523.27,617.34a91.42,91.42,0,0,0,33.45,6.54,50.45,50.45,0,0,0,11.87-1.36,31.26,31.26,0,0,0,9.85-4.09,22.72,22.72,0,0,0,6.75-6.67,16,16,0,0,0,2.56-8.85,18,18,0,0,0-2-9,18.88,18.88,0,0,0-5.4-6,35.57,35.57,0,0,0-7.82-4.22q-4.46-1.77-9.58-3.41l-9.44-3.54q-17.28-6.54-25.1-14.71T520.57,540q0-18.53,13.09-29.43t38.44-10.89a104.09,104.09,0,0,1,20.64,2,125.33,125.33,0,0,1,17.68,4.77,67.14,67.14,0,0,1-2,10.9,64.17,64.17,0,0,1-3.64,10.08,138.69,138.69,0,0,0-14.17-4.22,72.81,72.81,0,0,0-17.67-2.05,41.94,41.94,0,0,0-17.67,3.54q-7.68,3.56-7.69,12.54a15.55,15.55,0,0,0,1.89,7.9,17.68,17.68,0,0,0,5.13,5.58,33.57,33.57,0,0,0,7.41,3.95q4.18,1.64,9,3.27L582.89,562a88.13,88.13,0,0,1,12.28,5.17,36.33,36.33,0,0,1,10,7.5,34.84,34.84,0,0,1,6.74,10.9,45.46,45.46,0,0,1-1.48,33.78A40.56,40.56,0,0,1,599,633.56,55.11,55.11,0,0,1,581,642.68,78,78,0,0,1,557.8,646a127.73,127.73,0,0,1-22.66-1.77,114.1,114.1,0,0,1-18.08-4.77,54.73,54.73,0,0,1,2.29-11q1.75-5.58,3.92-11"/><path class="cls-5" d="M681.91,643c-1.44,0-2.93,0-4.45.14s-3,.14-4.45.14c-1.81,0-3.69-.05-5.67-.14s-3.6-.23-4.86-.41L616.62,502.92a62.24,62.24,0,0,1,7.28-.68q3.78-.14,7-.14,3.5,0,7.82.14a50.51,50.51,0,0,1,7.29.68l38.31,130L724,502.92a92.85,92.85,0,0,1,13.22-.82c2,0,4.22,0,6.74.14a71.47,71.47,0,0,1,7.56.68L697.83,671a129.85,129.85,0,0,1-7.82,18.8,44.58,44.58,0,0,1-9.18,12.25,29.68,29.68,0,0,1-11.47,6.54,51.24,51.24,0,0,1-14.7,1.91,79.74,79.74,0,0,1-12.28-.95,83.22,83.22,0,0,1-10.65-2.32,48.7,48.7,0,0,1,4.31-21,68.2,68.2,0,0,0,6.61,1.77,40.37,40.37,0,0,0,9,1,31,31,0,0,0,6.61-.68,14.77,14.77,0,0,0,5.8-2.73,20.29,20.29,0,0,0,5-5.86,51.72,51.72,0,0,0,4.45-10.35Z"/><g class="cls-1"><path class="cls-2" d="M142.51,134.84l6.36,10.58,6.44-10.58h5.83l-9.51,14.34,9.81,14.71h-5.75L149,153l-6.72,10.9h-5.77l9.78-14.71-9.48-14.34Z"/></g><rect class="cls-5" x="1096.89" y="410.77" width="75.15" height="301.99" transform="translate(-0.75 1.51) rotate(-0.08)"/><rect class="cls-5" x="266.58" y="1090.78" width="717.86" height="77.14" transform="translate(-1.5 0.83) rotate(-0.08)"/><rect class="cls-6" x="116.22" y="111.97" width="1055.93" height="1055.93" transform="translate(-0.85 0.86) rotate(-0.08)"/><line class="cls-6" x1="115.62" y1="185.84" x2="1171.54" y2="184.44"/><line class="cls-6" x1="115.72" y1="261.31" x2="1171.64" y2="259.91"/><line class="cls-6" x1="115.82" y1="336.78" x2="1171.75" y2="335.37"/><line class="cls-6" x1="115.92" y1="412.24" x2="1171.85" y2="410.84"/><line class="cls-6" x1="116.02" y1="487.71" x2="1171.94" y2="486.31"/><line class="cls-6" x1="116.12" y1="563.18" x2="1172.05" y2="561.78"/><line class="cls-6" x1="116.22" y1="638.65" x2="1172.15" y2="637.25"/><line class="cls-6" x1="116.32" y1="714.12" x2="1172.25" y2="712.72"/><line class="cls-6" x1="116.42" y1="789.59" x2="1172.35" y2="788.19"/><line class="cls-6" x1="116.52" y1="865.06" x2="1172.45" y2="863.65"/><line class="cls-6" x1="116.62" y1="940.52" x2="1172.55" y2="939.12"/><line class="cls-6" x1="116.72" y1="1015.99" x2="1172.65" y2="1014.59"/><line class="cls-6" x1="116.82" y1="1091.46" x2="1172.75" y2="1090.06"/><line class="cls-6" x1="1096.29" y1="111.36" x2="1097.7" y2="1167.29"/><line class="cls-6" x1="1020.83" y1="111.47" x2="1022.23" y2="1167.39"/><line class="cls-6" x1="945.36" y1="111.57" x2="946.76" y2="1167.49"/><line class="cls-6" x1="869.89" y1="111.67" x2="871.29" y2="1167.6"/><line class="cls-6" x1="794.42" y1="111.77" x2="795.82" y2="1167.69"/><line class="cls-6" x1="718.95" y1="111.87" x2="720.36" y2="1167.79"/><line class="cls-6" x1="643.48" y1="111.97" x2="644.89" y2="1167.9"/><line class="cls-6" x1="568.01" y1="112.07" x2="569.42" y2="1168"/><line class="cls-6" x1="492.55" y1="112.17" x2="493.95" y2="1168.09"/><line class="cls-6" x1="417.08" y1="112.27" x2="418.48" y2="1168.2"/><line class="cls-6" x1="341.61" y1="112.37" x2="343.01" y2="1168.3"/><line class="cls-6" x1="266.14" y1="112.47" x2="267.55" y2="1168.39"/><line class="cls-6" x1="303.88" y1="112.42" x2="303.88" y2="116.06"/><line class="cls-6" x1="305.27" y1="1164.7" x2="305.28" y2="1168.34"/><line class="cls-6" x1="983.45" y1="111.52" x2="983.45" y2="115.15"/><line class="cls-6" x1="983.46" y1="122.39" x2="984.84" y2="1160.18"/><line class="cls-6" x1="984.84" y1="1163.8" x2="984.85" y2="1167.44"/><line class="cls-6" x1="190.67" y1="112.57" x2="192.08" y2="1168.5"/><line class="cls-6" x1="116.92" y1="1168.59" x2="1172.85" y2="1167.19"/></g></svg>