<svg xmlns="http://www.w3.org/2000/svg" xmlns:xlink="http://www.w3.org/1999/xlink" viewBox="0 0 1280 1280"><defs><style>.cls-1{fill:none;}.cls-2,.cls-5{fill:#db0812;}.cls-3,.cls-4{fill:#fff;}.cls-4,.cls-5{fill-rule:evenodd;}.cls-6{fill:#ffed00;}.cls-7{clip-path:url(#clip-path);}</style><clipPath id="clip-path"><rect class="cls-1" width="1280" height="1280"/></clipPath></defs><g id="posicionamiento"><rect class="cls-2" width="1280" height="1280"/><path class="cls-3" d="M518.77,589.83h-15l-.08-8.76h12.43a15,15,0,0,0,5.37-.81,5.92,5.92,0,0,0,3-2.35,7.15,7.15,0,0,0,1-3.84,8.16,8.16,0,0,0-1-4.22,5.54,5.54,0,0,0-3-2.35,16,16,0,0,0-5.33-.75h-7.64v48.38H495.37V556.58h20.75a41.85,41.85,0,0,1,9.41,1,20.59,20.59,0,0,1,7.05,3,13.39,13.39,0,0,1,4.45,5,15.53,15.53,0,0,1,1.53,7.11,14.4,14.4,0,0,1-1.59,6.68,12.1,12.1,0,0,1-5.09,5,20.75,20.75,0,0,1-9.37,2.09Zm-.52,25.3H500.39L505.14,605h13.11a10.82,10.82,0,0,0,4.9-1,6.25,6.25,0,0,0,2.78-2.61,7.72,7.72,0,0,0,.88-3.7,9.85,9.85,0,0,0-.82-4.19,5.91,5.91,0,0,0-2.57-2.73,9.68,9.68,0,0,0-4.65-1H507l.08-8.76h14.35l3.06,3.46c3.73-.08,6.71.51,9,1.79a11.41,11.41,0,0,1,4.84,5,14.86,14.86,0,0,1,1.49,6.56,17.46,17.46,0,0,1-2.45,9.55,14.94,14.94,0,0,1-7.26,5.77A32,32,0,0,1,518.25,615.13Z"/><path class="cls-3" d="M568.79,556.58v58.55H555.72V556.58Z"/><path class="cls-3" d="M599,556.58v58.55H585.91V556.58Zm26.74,0v10.17h-31.2V556.58Zm-4.06,23.56V590H594.56v-9.82Zm4,24.85v10.14H594.56V605Z"/><path class="cls-3" d="M687,556.58v58.55H673.93l-22.12-37.84v37.84H638.7V556.58h13.11L674,594.42V556.58Z"/><path class="cls-3" d="M713.05,556.58l13,45.56,2.05,13h-9.65l-20-58.55Zm11.86,45.56,13-45.56h14.6l-20.07,58.55h-9.53Z"/><path class="cls-3" d="M777.1,556.58v58.55H764V556.58Zm26.74,0v10.17h-31.2V556.58Zm-4.06,23.56V590H772.64v-9.82Zm4,24.85v10.14H772.64V605Z"/><path class="cls-3" d="M865.08,556.58v58.55H852l-22.12-37.84v37.84h-13.1V556.58h13.1l22.16,37.84V556.58Z"/><path class="cls-3" d="M895.31,556.58v58.55H882.24V556.58Z"/><path class="cls-3" d="M925.55,556.58v58.55H912.44V556.58ZM931,615.13H918.11l.08-10.14H931a12.88,12.88,0,0,0,7.4-2,12.51,12.51,0,0,0,4.59-6,26.85,26.85,0,0,0,1.57-9.75v-2.69a29.8,29.8,0,0,0-.89-7.66,15.63,15.63,0,0,0-2.61-5.57,10.84,10.84,0,0,0-4.28-3.38,14.45,14.45,0,0,0-5.86-1.13h-13V556.58h13a28.52,28.52,0,0,1,10.88,2,24.67,24.67,0,0,1,8.53,5.75,26.22,26.22,0,0,1,5.57,8.85,31.45,31.45,0,0,1,2,11.38v2.61a31.5,31.5,0,0,1-2,11.36,26,26,0,0,1-5.57,8.85,24.78,24.78,0,0,1-8.51,5.73A28.25,28.25,0,0,1,931,615.13Z"/><path class="cls-3" d="M1021.24,584.57v2.61a36.85,36.85,0,0,1-1.82,12,26.18,26.18,0,0,1-5.19,9.05,22.84,22.84,0,0,1-8,5.73,27.16,27.16,0,0,1-20.41,0,23,23,0,0,1-8-5.73,25.83,25.83,0,0,1-5.25-9.05,36,36,0,0,1-1.85-12v-2.61a36.35,36.35,0,0,1,1.85-12,26.31,26.31,0,0,1,5.2-9.06,22.43,22.43,0,0,1,8-5.73,27.21,27.21,0,0,1,20.43,0,22.48,22.48,0,0,1,8,5.73,26.16,26.16,0,0,1,5.2,9.06A36.35,36.35,0,0,1,1021.24,584.57ZM1008,587.18v-2.69a34.63,34.63,0,0,0-.8-7.9,18,18,0,0,0-2.33-5.78,10.2,10.2,0,0,0-3.78-3.51,11.74,11.74,0,0,0-10.3,0,10.2,10.2,0,0,0-3.72,3.51,18.22,18.22,0,0,0-2.29,5.78,35.87,35.87,0,0,0-.78,7.9v2.69a35.69,35.69,0,0,0,.78,7.86,18.23,18.23,0,0,0,2.31,5.81,10.26,10.26,0,0,0,3.76,3.58,10.75,10.75,0,0,0,5.21,1.21,10.49,10.49,0,0,0,5.09-1.21,10.18,10.18,0,0,0,3.76-3.58,18,18,0,0,0,2.31-5.81A35.69,35.69,0,0,0,1008,587.18Z"/><path class="cls-3" d="M519.7,666.54,504.58,714h-14l21.68-58.55h8.84Zm11.9,25.62v10.13H501.08V692.16Zm.64,21.79-15.16-47.41-1.57-11.14h9L546.24,714Z"/><path class="cls-3" d="M608.15,688.66h-15l-.08-8.77h12.43a15,15,0,0,0,5.36-.8,6,6,0,0,0,3-2.35,7.18,7.18,0,0,0,1-3.84,8.2,8.2,0,0,0-1-4.23,5.61,5.61,0,0,0-3-2.35,16.14,16.14,0,0,0-5.32-.74h-7.64V714H584.75V655.4H605.5a41.88,41.88,0,0,1,9.41,1,20.38,20.38,0,0,1,7.05,3,13.47,13.47,0,0,1,4.45,5,15.67,15.67,0,0,1,1.52,7.12,14.47,14.47,0,0,1-1.58,6.67,12,12,0,0,1-5.09,5,20.62,20.62,0,0,1-9.37,2.09ZM607.63,714H589.77l4.75-10.13h13.11a10.68,10.68,0,0,0,4.9-1,6.25,6.25,0,0,0,2.78-2.61,7.69,7.69,0,0,0,.88-3.7,9.8,9.8,0,0,0-.82-4.18,6,6,0,0,0-2.58-2.74,9.62,9.62,0,0,0-4.64-1H596.41l.08-8.77h14.35l3.06,3.46a17.33,17.33,0,0,1,9,1.79,11.43,11.43,0,0,1,4.84,5,15,15,0,0,1,1.49,6.55,17.44,17.44,0,0,1-2.45,9.55,14.89,14.89,0,0,1-7.26,5.77A31.8,31.8,0,0,1,607.63,714Z"/><path class="cls-3" d="M644.21,655.4h22.48a30.48,30.48,0,0,1,11.64,2,16.2,16.2,0,0,1,7.58,6,17,17,0,0,1,2.66,9.73,19.47,19.47,0,0,1-1.57,8.2,15,15,0,0,1-4.4,5.59,23.7,23.7,0,0,1-6.62,3.58l-4.26,2.33H652.58l-.08-10.17h14.23a10.12,10.12,0,0,0,4.87-1,6.85,6.85,0,0,0,2.91-3,9.65,9.65,0,0,0,1-4.49,9.79,9.79,0,0,0-1-4.58,6.86,6.86,0,0,0-3-3,10.39,10.39,0,0,0-4.85-1h-9.37V714H644.21ZM676.62,714l-13.15-26,13.84,0,13.35,25.45v.6Z"/><path class="cls-3" d="M728.37,666.54,713.25,714h-14l21.67-58.55h8.85Zm11.9,25.62v10.13H709.75V692.16Zm.65,21.79-15.16-47.41-1.57-11.14h9L754.91,714Z"/><path class="cls-3" d="M814.62,655.4V714H801.55l-22.12-37.84V714h-13.1V655.4h13.1l22.16,37.84V655.4Z"/><path class="cls-3" d="M844,655.4V714H830.9V655.4ZM849.44,714H836.57l.08-10.13h12.79a13,13,0,0,0,7.4-2,12.48,12.48,0,0,0,4.58-6A26.71,26.71,0,0,0,863,686v-2.7a29.85,29.85,0,0,0-.89-7.66,15.72,15.72,0,0,0-2.61-5.57,10.93,10.93,0,0,0-4.28-3.38,14.43,14.43,0,0,0-5.85-1.12h-13V655.4h13a28.32,28.32,0,0,1,10.87,2,24.44,24.44,0,0,1,8.53,5.75,26.27,26.27,0,0,1,5.57,8.84,31.49,31.49,0,0,1,2,11.38V686a31.54,31.54,0,0,1-2,11.36,26.08,26.08,0,0,1-5.57,8.84,24.68,24.68,0,0,1-8.51,5.73A28.24,28.24,0,0,1,849.44,714Z"/><path class="cls-3" d="M914.29,688.66h-15l-.08-8.77H911.6a15,15,0,0,0,5.37-.8,6,6,0,0,0,3-2.35,7.09,7.09,0,0,0,1-3.84,8.1,8.1,0,0,0-1-4.23,5.58,5.58,0,0,0-3-2.35,16.2,16.2,0,0,0-5.33-.74H904V714H890.89V655.4h20.75a41.82,41.82,0,0,1,9.41,1,20.52,20.52,0,0,1,7.06,3,13.53,13.53,0,0,1,4.44,5,15.54,15.54,0,0,1,1.53,7.12,14.36,14.36,0,0,1-1.59,6.67,12,12,0,0,1-5.09,5,20.59,20.59,0,0,1-9.37,2.09ZM913.77,714H895.92l4.74-10.13h13.11a10.72,10.72,0,0,0,4.91-1,6.22,6.22,0,0,0,2.77-2.61,7.7,7.7,0,0,0,.89-3.7,9.8,9.8,0,0,0-.83-4.18,6,6,0,0,0-2.57-2.74,9.69,9.69,0,0,0-4.65-1H902.55l.08-8.77H917l3,3.46a17.33,17.33,0,0,1,9,1.79,11.51,11.51,0,0,1,4.85,5,15,15,0,0,1,1.48,6.55,17.36,17.36,0,0,1-2.45,9.55,14.8,14.8,0,0,1-7.26,5.77A31.8,31.8,0,0,1,913.77,714Z"/><path class="cls-3" d="M999.17,683.39V686a36.62,36.62,0,0,1-1.83,12,26.1,26.1,0,0,1-5.18,9,22.84,22.84,0,0,1-8,5.73,27.16,27.16,0,0,1-20.41,0,23,23,0,0,1-8-5.73,25.92,25.92,0,0,1-5.25-9,36.09,36.09,0,0,1-1.85-12v-2.62a36.25,36.25,0,0,1,1.85-12,26.36,26.36,0,0,1,5.2-9.07,22.68,22.68,0,0,1,8-5.73,27.19,27.19,0,0,1,20.42,0,22.68,22.68,0,0,1,8,5.73,26.2,26.2,0,0,1,5.2,9.07A36.25,36.25,0,0,1,999.17,683.39ZM985.94,686v-2.7a34.69,34.69,0,0,0-.8-7.9,17.94,17.94,0,0,0-2.33-5.77,10.15,10.15,0,0,0-3.78-3.52,11.74,11.74,0,0,0-10.3,0,10.14,10.14,0,0,0-3.72,3.52,18.16,18.16,0,0,0-2.29,5.77,35.94,35.94,0,0,0-.78,7.9V686a35.69,35.69,0,0,0,.78,7.86,18.23,18.23,0,0,0,2.31,5.81,10.43,10.43,0,0,0,3.76,3.58,10.86,10.86,0,0,0,5.21,1.2,10.6,10.6,0,0,0,5.09-1.2,10.35,10.35,0,0,0,3.76-3.58,18,18,0,0,0,2.31-5.81A35.69,35.69,0,0,0,985.94,686Z"/><path class="cls-3" d="M1062.58,683.39V686a36.62,36.62,0,0,1-1.83,12,26.26,26.26,0,0,1-5.18,9,22.78,22.78,0,0,1-8,5.73,27.14,27.14,0,0,1-20.4,0,23.1,23.1,0,0,1-8-5.73,26.05,26.05,0,0,1-5.24-9,36.09,36.09,0,0,1-1.85-12v-2.62a36.25,36.25,0,0,1,1.85-12,26.2,26.2,0,0,1,5.2-9.07,22.68,22.68,0,0,1,8-5.73,27.19,27.19,0,0,1,20.42,0,22.68,22.68,0,0,1,8,5.73,26.36,26.36,0,0,1,5.2,9.07A36.25,36.25,0,0,1,1062.58,683.39ZM1049.35,686v-2.7a35.26,35.26,0,0,0-.8-7.9,18.17,18.17,0,0,0-2.33-5.77,10.15,10.15,0,0,0-3.78-3.52,11.74,11.74,0,0,0-10.3,0,10.14,10.14,0,0,0-3.72,3.52,17.93,17.93,0,0,0-2.29,5.77,35.94,35.94,0,0,0-.78,7.9V686a35.69,35.69,0,0,0,.78,7.86,18,18,0,0,0,2.31,5.81,10.35,10.35,0,0,0,3.76,3.58,10.86,10.86,0,0,0,5.21,1.2,10.6,10.6,0,0,0,5.09-1.2,10.43,10.43,0,0,0,3.76-3.58,18.23,18.23,0,0,0,2.31-5.81A35.69,35.69,0,0,0,1049.35,686Z"/><path class="cls-3" d="M1090.28,655.4V714h-13.11V655.4Zm35,0-22.92,29.28L1089,699.16,1086.62,687l8.81-12.63,13.75-18.94ZM1110.07,714l-16.17-26.74,10-7.76,21.72,34.5Z"/><path class="cls-3" d="M508.48,754.23v58.55H495.37V754.23Zm26.74,0V764.4H504V754.23Zm-4.06,23.56v9.82H504v-9.82Zm4,24.86v10.13H504V802.65Z"/><path class="cls-3" d="M572.49,765.37l-15.12,47.41h-14l21.68-58.55h8.85ZM584.39,791v10.14H553.87V791Zm.64,21.8-15.16-47.41-1.56-11.14h9L599,812.78Z"/><path class="cls-3" d="M640.8,797.34a7.81,7.81,0,0,0-.44-2.68,5.45,5.45,0,0,0-1.61-2.19,15.2,15.2,0,0,0-3.3-2,42.55,42.55,0,0,0-5.59-2.11,73.94,73.94,0,0,1-7.5-2.91,32.09,32.09,0,0,1-6.33-3.8,16.51,16.51,0,0,1-4.36-5.07,14.89,14.89,0,0,1,.06-13.51,15.56,15.56,0,0,1,4.62-5.17,22.54,22.54,0,0,1,7-3.3,32.37,32.37,0,0,1,8.85-1.14,26.51,26.51,0,0,1,11.32,2.27,18.17,18.17,0,0,1,7.62,6.35,16.64,16.64,0,0,1,2.73,9.47h-13a8.8,8.8,0,0,0-1-4.2,7,7,0,0,0-3-2.88,10.68,10.68,0,0,0-5-1,12.07,12.07,0,0,0-4.85.86,6.63,6.63,0,0,0-2.94,2.36,5.8,5.8,0,0,0-1,3.25,4.67,4.67,0,0,0,.74,2.56,8,8,0,0,0,2.17,2.13,20.75,20.75,0,0,0,3.52,1.87,47.61,47.61,0,0,0,4.79,1.69,58.72,58.72,0,0,1,8.34,3.29,26.21,26.21,0,0,1,6.13,4.11,15.13,15.13,0,0,1,3.76,5.18,16.13,16.13,0,0,1,1.27,6.56,15.17,15.17,0,0,1-1.51,6.91A14.3,14.3,0,0,1,648,809.3a20.28,20.28,0,0,1-6.78,3.2,33.24,33.24,0,0,1-8.8,1.08,34,34,0,0,1-8.73-1.14,25.37,25.37,0,0,1-7.78-3.52,17.78,17.78,0,0,1-5.55-6,17.59,17.59,0,0,1-2.07-8.75h13.11a11.62,11.62,0,0,0,.76,4.48,7.18,7.18,0,0,0,2.2,3,8.76,8.76,0,0,0,3.47,1.61,20.22,20.22,0,0,0,4.59.48,11.69,11.69,0,0,0,4.76-.82,5.9,5.9,0,0,0,2.72-2.28A6,6,0,0,0,640.8,797.34Z"/><path class="cls-3" d="M677.51,754.23,689,780.29l11.54-26.06h14.16l-19,37.4v21.15H682.33V791.63l-19.06-37.4Z"/><path class="cls-4" d="M385.2,570.13a22.68,22.68,0,0,1,12.13-3.44,23.12,23.12,0,0,1,23.12,23.12,22.83,22.83,0,0,1-3.27,11.88l.11.08a151.19,151.19,0,1,1-32.09-31.64"/><path class="cls-5" d="M405.23,611.41a24.27,24.27,0,0,1-8.08,1.47,23,23,0,0,1-21.48-31.07,133.73,133.73,0,1,0,29.56,29.6"/><path class="cls-2" d="M384.7,589.61a12.64,12.64,0,1,1,12.62,12.62,12.62,12.62,0,0,1-12.62-12.62"/><path class="cls-4" d="M224.47,764.78a8.12,8.12,0,0,1,2.77-1.85,8.61,8.61,0,0,1,3.2-.64,8.3,8.3,0,0,1,3.16.64,8.12,8.12,0,0,1,2.82,1.85l1.17,1.17-2.34,2.36-1.2-1.17a5.16,5.16,0,0,0-1.7-1.13,5.11,5.11,0,0,0-3.82,0,5.16,5.16,0,0,0-1.7,1.13,4.67,4.67,0,0,0-1.13,1.66,5.14,5.14,0,0,0,0,3.83,5.15,5.15,0,0,0,4.74,3.19,5.16,5.16,0,0,0,1.95-.37,4.81,4.81,0,0,0,1.66-1.13l1.2-1.17,2.34,2.38-1.17,1.16a8.31,8.31,0,0,1-6,2.48,9,9,0,0,1-3.2-.6,8.67,8.67,0,0,1-2.77-1.88,8.08,8.08,0,0,1-1.84-2.78,8.47,8.47,0,0,1-.61-3.17,8.57,8.57,0,0,1,.61-3.19,8,8,0,0,1,1.84-2.77"/><path class="cls-4" d="M253.37,773.23l2.37,2.37-1.17,1.17a8.69,8.69,0,0,1-2.74,1.84,8.42,8.42,0,0,1-9.21-1.84,8.12,8.12,0,0,1-1.84-2.79,8.71,8.71,0,0,1-.6-3.19,8.44,8.44,0,0,1,.6-3.16,8.08,8.08,0,0,1,1.84-2.78A7.9,7.9,0,0,1,245.4,763a8.36,8.36,0,0,1,3.19-.63,8.69,8.69,0,0,1,6,2.47l1.17,1.16-9.36,9.37a5,5,0,0,0,3,.48,5.11,5.11,0,0,0,2.82-1.46ZM245,767.18a5,5,0,0,0-1,5.82l1.35-1.34,1.95-2,2-2,1.5-1.47a5,5,0,0,0-3-.49,4.8,4.8,0,0,0-2.78,1.43"/><path class="cls-4" d="M258.75,770.75a8.2,8.2,0,0,1,2.45-5.94,8.29,8.29,0,0,1,2.71-1.8,8,8,0,0,1,3.26-.68,7.88,7.88,0,0,1,3.27.68,8.14,8.14,0,0,1,2.7,1.8,7.87,7.87,0,0,1,1.82,2.67,8.07,8.07,0,0,1,.67,3.27v8.45h-3.35v-8.45a4.55,4.55,0,0,0-.41-2,4.42,4.42,0,0,0-1.09-1.62,4.54,4.54,0,0,0-1.62-1.09,5,5,0,0,0-4,0,5.09,5.09,0,0,0-2.71,2.71,5,5,0,0,0-.37,2v8.45h-3.35Z"/><path class="cls-4" d="M281.13,764.78a8.25,8.25,0,0,1,2.78-1.85,8.54,8.54,0,0,1,3.2-.64,8.37,8.37,0,0,1,3.16.64,8.18,8.18,0,0,1,2.81,1.85l1.16,1.17-2.32,2.36-1.2-1.17A5.26,5.26,0,0,0,289,766a5.07,5.07,0,0,0-5.52,1.13,4.67,4.67,0,0,0-1.13,1.66,5,5,0,0,0,0,3.83,5,5,0,0,0,1.13,1.69,4.92,4.92,0,0,0,3.61,1.5,5.24,5.24,0,0,0,1.95-.37,4.81,4.81,0,0,0,1.66-1.13l1.2-1.17,2.32,2.38-1.16,1.16a8.26,8.26,0,0,1-6,2.48,8.13,8.13,0,0,1-6-2.48,8.08,8.08,0,0,1-1.84-2.78,8.66,8.66,0,0,1-.6-3.17,8.76,8.76,0,0,1,.6-3.19,8,8,0,0,1,1.84-2.77"/><path class="cls-4" d="M296.8,770.79a8.36,8.36,0,0,1,.64-3.27,8.78,8.78,0,0,1,1.8-2.67,8.58,8.58,0,0,1,6-2.48,8.07,8.07,0,0,1,3.27.67,8.32,8.32,0,0,1,2.71,1.81,7.68,7.68,0,0,1,1.8,2.67,7.87,7.87,0,0,1,.67,3.27,8.08,8.08,0,0,1-.67,3.27,8.24,8.24,0,0,1-1.8,2.71,9.09,9.09,0,0,1-2.71,1.84,8.4,8.4,0,0,1-3.27.63,8.58,8.58,0,0,1-3.27-.63,9.09,9.09,0,0,1-2.71-1.84,9.49,9.49,0,0,1-1.8-2.71,8.58,8.58,0,0,1-.64-3.27m3.31,0a5.11,5.11,0,0,0,.38,2,5.64,5.64,0,0,0,1.09,1.65,5.51,5.51,0,0,0,1.65,1.09,5.11,5.11,0,0,0,5.6-1.09,5.3,5.3,0,0,0,1.5-3.64,4.75,4.75,0,0,0-.41-2,5.11,5.11,0,0,0-2.71-2.7,4.92,4.92,0,0,0-4,0,4.85,4.85,0,0,0-1.65,1.09,5.2,5.2,0,0,0-1.09,1.61,4.89,4.89,0,0,0-.38,2"/><path class="cls-4" d="M331.23,762.29v3.35H321a1.67,1.67,0,0,0-1.69,1.69,1.75,1.75,0,0,0,.49,1.24,1.66,1.66,0,0,0,1.2.48h6.77a5.38,5.38,0,0,1,3.57,1.48,4.36,4.36,0,0,1,1.08,1.61,4.44,4.44,0,0,1,.42,2,4.69,4.69,0,0,1-.42,2,4.81,4.81,0,0,1-1.08,1.61,5.25,5.25,0,0,1-1.62,1.09,4.85,4.85,0,0,1-1.95.38H317.66v-3.35h10.15a1.69,1.69,0,0,0,1.24-.48,1.74,1.74,0,0,0,.49-1.25,1.67,1.67,0,0,0-.49-1.2,1.7,1.7,0,0,0-1.24-.49H321a5.33,5.33,0,0,1-2-.37,5.85,5.85,0,0,1-1.58-1.09,5.74,5.74,0,0,1-1.08-1.62,5.11,5.11,0,0,1-.38-2,4.85,4.85,0,0,1,.38-2,5.11,5.11,0,0,1,1.08-1.62,5,5,0,0,1,1.58-1,4.83,4.83,0,0,1,2-.42Z"/><path class="cls-4" d="M352.74,762.29v8.42a8.08,8.08,0,0,1-.68,3.27,8.26,8.26,0,0,1-1.81,2.71,8.57,8.57,0,0,1-2.7,1.84,8.19,8.19,0,0,1-3.27.64,8.4,8.4,0,0,1-3.27-.64,8.68,8.68,0,0,1-2.7-1.84A9.52,9.52,0,0,1,336.5,774a8.58,8.58,0,0,1-.64-3.27v-8.42h3.35v8.42a5.08,5.08,0,0,0,.38,2,5.87,5.87,0,0,0,1.08,1.66,6,6,0,0,0,1.62,1.08,5.11,5.11,0,0,0,2,.38,5,5,0,0,0,3.61-1.46A4.84,4.84,0,0,0,349,772.7a4.76,4.76,0,0,0,.41-2v-8.42Z"/><path class="cls-4" d="M371.87,755.53v15.18a8,8,0,0,1-.68,3.27,8.58,8.58,0,0,1-4.47,4.55,8.67,8.67,0,0,1-6.54,0,9.18,9.18,0,0,1-2.71-1.83,9,9,0,0,1-1.83-2.72,8.19,8.19,0,0,1-.65-3.27,8.06,8.06,0,0,1,.65-3.27,8.31,8.31,0,0,1,1.83-2.66,8.42,8.42,0,0,1,2.71-1.81,8.08,8.08,0,0,1,3.27-.67h5.08v-6.77Zm-8.42,20.29a5,5,0,0,0,1.95-.37,5.3,5.3,0,0,0,1.62-1.09,4.89,4.89,0,0,0,1.09-1.65,5,5,0,0,0,.42-2v-5.07h-5.08a5.35,5.35,0,0,0-3.65,1.5,5.62,5.62,0,0,0-1.09,1.62,5.21,5.21,0,0,0-.37,2,5.55,5.55,0,0,0,.37,2,6.23,6.23,0,0,0,1.09,1.65,5.9,5.9,0,0,0,1.66,1.09,5.33,5.33,0,0,0,2,.37"/><polygon class="cls-6" points="418.74 657.4 389.44 734.26 372.58 734.21 383.64 709.15 363.73 657.45 380.54 657.45 391.4 690.8 392 690.79 402.04 657.41 418.74 657.4"/><path class="cls-6" d="M361.14,696.31c0,12.29-13.47,16.88-26.14,16.89s-25.82-4.86-25.82-17h16.65c0,3.79,5.24,5.22,9.2,5.21s8.91-1,8.91-4.69c0-4.6-6.26-5.27-16.1-7.83-10.21-2.68-17.48-7.15-17.49-16.76,0-12.22,11.9-16.41,24.64-16.43,12.59,0,24.09,4.17,24.1,16.39l-16.44,0c0-3.4-4.18-4.72-7.66-4.71s-7.63.85-7.63,4.21c0,4.62,7,5.2,14.95,7.14,10.13,2.46,18.82,6.58,18.83,17.5"/><path class="cls-6" d="M299.83,711.13l-15.61.11,0-6.17h-.61c-2.6,5.24-7.8,8.12-15.88,8.14-13.69,0-25.56-11.21-25.57-28.91,0-17.93,10.81-28.62,24.57-28.63,7.63,0,13.94,3.14,16.75,7.84l.61,0,0-6h15.67ZM284,684.27c0-7.19-4-13.92-13.28-13.91s-12.3,7.51-12.3,14c0,6.8,3.64,14.17,13,14.18,9.62,0,12.54-7.76,12.54-14.24"/><path class="cls-6" d="M233.47,683.92c0,2.13-.29,5.49-.29,5.49H194.43c.37,6.28,5.08,10.76,11.68,10.73,4.8,0,7.9-1.78,9.41-5.1l16.82,0c-1.53,8-8.44,18.08-25.93,18.09-16.81,0-28.5-13.22-28.52-29.23,0-16.19,10.61-28.23,27.34-28.25s28.23,12.14,28.24,28.23m-16.7-5.37c-.22-3.13-2.24-9.85-11.29-9.85-8.1,0-10.74,6.71-11.08,9.85Z"/><path class="cls-6" d="M343.07,734.8c-42.75-5.76-85.7-6.1-152.27-1.35l.72-3.06c66.53-5.87,119-9,147.73-8.07,16.95.52,22.11,1.75,22.11,7.76,0,6.42-7.54,6.17-18.29,4.72"/><g class="cls-7"><path class="cls-3" d="M471.83-113.88A169.34,169.34,0,0,1,302.49,55.46,169.33,169.33,0,0,1,133.16-113.88,169.33,169.33,0,0,1,302.49-283.21a168.84,168.84,0,0,1,100.22,32.93,25.82,25.82,0,0,1,13.81-3.92,26.34,26.34,0,0,1,26.35,26.34,26.05,26.05,0,0,1-3.73,13.53l.12.08A168.58,168.58,0,0,1,471.83-113.88ZM402.14-228.09a14.37,14.37,0,0,0,14.38,14.37,14.38,14.38,0,0,0,14.4-14.37,14.39,14.39,0,0,0-14.4-14.38A14.38,14.38,0,0,0,402.14-228.09Zm52.42,114.2a151.78,151.78,0,0,0-29-89.37,27.84,27.84,0,0,1-9.21,1.67,26.14,26.14,0,0,1-26.14-26.15,26.21,26.21,0,0,1,1.67-9.24A151.56,151.56,0,0,0,302.41-266,152.15,152.15,0,0,0,150.27-113.89,152.15,152.15,0,0,0,302.41,38.25,152.15,152.15,0,0,0,454.56-113.89Z"/><path class="cls-3" d="M1071.37-51.56a177.19,177.19,0,0,1-177.2,177.2A177.19,177.19,0,0,1,717-51.56a177.2,177.2,0,0,1,177.2-177.2A176.75,176.75,0,0,1,999.05-194.3a27,27,0,0,1,14.45-4.1,27.57,27.57,0,0,1,27.57,27.56,27.24,27.24,0,0,1-3.91,14.16l.13.09A176.37,176.37,0,0,1,1071.37-51.56ZM998.45-171.08a15,15,0,0,0,15,15.05,15.06,15.06,0,0,0,15.08-15.05,15.06,15.06,0,0,0-15.08-15A15,15,0,0,0,998.45-171.08ZM1053.3-51.57a158.84,158.84,0,0,0-30.38-93.53,29,29,0,0,1-9.63,1.76,27.36,27.36,0,0,1-27.36-27.37,27.46,27.46,0,0,1,1.75-9.67,158.61,158.61,0,0,0-93.59-30.41A159.21,159.21,0,0,0,734.88-51.57,159.21,159.21,0,0,0,894.09,107.64,159.21,159.21,0,0,0,1053.3-51.57Z"/><path class="cls-3" d="M1488.39,490.44a116,116,0,1,1-47.3-93.35,17.66,17.66,0,0,1,9.45-2.68,18,18,0,0,1,18,18,17.76,17.76,0,0,1-2.56,9.26l.09.06A115.38,115.38,0,0,1,1488.39,490.44Zm-47.7-78.16a9.85,9.85,0,1,0,9.84-9.84A9.84,9.84,0,0,0,1440.69,412.28Zm35.88,78.15a103.84,103.84,0,0,0-19.87-61.16,19,19,0,0,1-6.3,1.14,17.91,17.91,0,0,1-16.74-24.22,104.13,104.13,0,1,0,42.91,84.24Z"/><path class="cls-3" d="M1297.27,1164.12a118.83,118.83,0,1,1-48.44-95.61,18,18,0,0,1,9.68-2.75,18.48,18.48,0,0,1,15.85,28l.08.06A118.1,118.1,0,0,1,1297.27,1164.12Zm-48.85-80.06A10.09,10.09,0,1,0,1258.5,1074,10.08,10.08,0,0,0,1248.42,1084.06Zm36.75,80.06a106.36,106.36,0,0,0-20.35-62.65,19.67,19.67,0,0,1-6.45,1.17,18.33,18.33,0,0,1-18.33-18.33,18.13,18.13,0,0,1,1.18-6.48,106.66,106.66,0,1,0,44,86.29Z"/><path class="cls-3" d="M707.79,1375.94a169.36,169.36,0,1,1-69-136.27,25.76,25.76,0,0,1,13.8-3.92,26.32,26.32,0,0,1,26.31,26.32,26,26,0,0,1-3.72,13.51l.12.09A168.38,168.38,0,0,1,707.79,1375.94Zm-69.63-114.1a14.38,14.38,0,1,0,14.37-14.37A14.36,14.36,0,0,0,638.16,1261.84Zm52.37,114.09a151.6,151.6,0,0,0-29-89.29,27.73,27.73,0,0,1-9.19,1.68A26.14,26.14,0,0,1,627.89,1253a152,152,0,1,0,62.64,123Z"/><path class="cls-3" d="M118.15,1008.55a142,142,0,0,1-142,142,142,142,0,0,1-142-142,142,142,0,0,1,142-142,141.71,141.71,0,0,1,84.07,27.62,21.64,21.64,0,0,1,11.58-3.28,22.1,22.1,0,0,1,22.1,22.09,21.87,21.87,0,0,1-3.13,11.35l.1.07A141.38,141.38,0,0,1,118.15,1008.55Zm-58.46-95.8a12.08,12.08,0,1,0,12.06-12.06A12.06,12.06,0,0,0,59.69,912.75Zm44,95.8a127.35,127.35,0,0,0-24.36-75A23.23,23.23,0,0,1,71.59,935a21.95,21.95,0,0,1-20.52-29.69,127.21,127.21,0,0,0-75-24.37,127.62,127.62,0,0,0-127.62,127.63A127.62,127.62,0,0,0-24,1136.16,127.63,127.63,0,0,0,103.67,1008.55Z"/><path class="cls-3" d="M5.41,532.68A104.87,104.87,0,0,1-99.46,637.55,104.87,104.87,0,0,1-204.32,532.68,104.86,104.86,0,0,1-99.46,427.82a104.61,104.61,0,0,1,62.07,20.39,16,16,0,0,1,8.55-2.43A16.32,16.32,0,0,1-12.53,462.1a16.08,16.08,0,0,1-2.31,8.37l.08.06A104.36,104.36,0,0,1,5.41,532.68ZM-37.75,462a8.9,8.9,0,0,0,8.9,8.9,8.9,8.9,0,0,0,8.92-8.9,8.91,8.91,0,0,0-8.92-8.9A8.91,8.91,0,0,0-37.75,462Zm32.46,70.73a94,94,0,0,0-18-55.35,17.41,17.41,0,0,1-5.71,1,16.19,16.19,0,0,1-16.19-16.2,16.22,16.22,0,0,1,1-5.72,93.86,93.86,0,0,0-55.39-18,94.22,94.22,0,0,0-94.22,94.23,94.22,94.22,0,0,0,94.22,94.21A94.21,94.21,0,0,0-5.29,532.68Z"/><path class="cls-3" d="M214.12,272.06c0,112.72-91.37,204.08-204.09,204.08S-194,384.78-194,272.06-102.68,68,10,68a203.49,203.49,0,0,1,120.79,39.69,31.08,31.08,0,0,1,16.65-4.73,31.75,31.75,0,0,1,31.74,31.75,31.35,31.35,0,0,1-4.49,16.3l.14.1C199.77,184.94,214.12,226.81,214.12,272.06Zm-84-137.65a17.35,17.35,0,1,0,17.33-17.33A17.32,17.32,0,0,0,130.13,134.41Zm63.18,137.64a182.93,182.93,0,0,0-35-107.72,33.45,33.45,0,0,1-11.1,2,31.54,31.54,0,0,1-29.49-42.65,182.64,182.64,0,0,0-107.79-35A183.36,183.36,0,0,0-173.42,272.05c0,101.26,82.09,183.36,183.36,183.36S193.31,373.31,193.31,272.05Z"/><path class="cls-3" d="M1161.08,199a155.82,155.82,0,1,1-63.53-125.37,23.71,23.71,0,0,1,12.7-3.61,24.21,24.21,0,0,1,24.21,24.21,23.88,23.88,0,0,1-3.43,12.44l.11.08A154.89,154.89,0,0,1,1161.08,199ZM1097,94a13.23,13.23,0,1,0,13.21-13.21A13.2,13.2,0,0,0,1097,94Zm48.18,105a139.52,139.52,0,0,0-26.69-82.15,25.48,25.48,0,0,1-8.46,1.54,24.06,24.06,0,0,1-22.49-32.53A139.84,139.84,0,1,0,1145.21,199Z"/><path class="cls-3" d="M559.1,154.18a117.26,117.26,0,1,1-47.81-94.36,17.86,17.86,0,0,1,9.55-2.71,18.22,18.22,0,0,1,18.22,18.22,18,18,0,0,1-2.57,9.36l.08.06A116.59,116.59,0,0,1,559.1,154.18Zm-48.21-79a10,10,0,1,0,10-9.94A9.94,9.94,0,0,0,510.89,75.17Zm36.26,79a105,105,0,0,0-20.08-61.83,19.19,19.19,0,0,1-6.37,1.16,18.09,18.09,0,0,1-18.09-18.09,17.91,17.91,0,0,1,1.17-6.4,105.26,105.26,0,1,0,43.37,85.16Z"/></g></g></svg>