<svg xmlns="http://www.w3.org/2000/svg" xmlns:xlink="http://www.w3.org/1999/xlink" viewBox="0 0 1280 1280"><defs><style>.cls-1,.cls-12,.cls-13,.cls-14,.cls-6,.cls-7,.cls-9{fill:none;}.cls-2{fill:#db0812;}.cls-3{clip-path:url(#clip-path);}.cls-4{fill:#f4f4f4;}.cls-5{fill:#ffed00;}.cls-12,.cls-13,.cls-6,.cls-7,.cls-8,.cls-9{stroke:#2e2e36;}.cls-12,.cls-6,.cls-7,.cls-9{stroke-linecap:round;}.cls-12,.cls-13,.cls-14,.cls-6,.cls-7,.cls-8,.cls-9{stroke-miterlimit:10;}.cls-6,.cls-7,.cls-9{stroke-width:6px;}.cls-7{stroke-dasharray:11.63 11.63;}.cls-11,.cls-8{fill:#fff;}.cls-12,.cls-13,.cls-14,.cls-8{stroke-width:4px;}.cls-9{stroke-dasharray:12 12;}.cls-10{fill:#2e2e36;}.cls-14{stroke:#fff;}</style><clipPath id="clip-path"><rect class="cls-1" x="-1480" y="-1480" width="1280" height="1280"/></clipPath></defs><g id="posicionamiento"><rect class="cls-2" width="1280" height="1280"/><g class="cls-3"><path class="cls-4" d="M405.81-183.93C-13.58-206.56-433.67-114.29-798.61,95.46c-4.91,2.84-10.22,1.15-11.89-3.8l-442.08-1311.43c-1.66-4.94.66-12.13,5.21-16,320.11-271.91,710.31-452.78,1127.77-506.78,5.62-.71,11.77,3.45,13.73,9.26Q-43.44-1548.07,19-1362.85l394.08,1169C415.05-188,411.79-183.59,405.81-183.93Z"/></g><polygon class="cls-5" points="1076.33 501.37 970.15 779.82 909.09 779.65 949.14 688.85 877.01 501.54 937.91 501.54 977.25 622.35 979.41 622.32 1015.82 501.38 1076.33 501.37"/><path class="cls-5" d="M867.63,642.34c0,44.52-48.8,61.16-94.71,61.19s-93.55-17.62-93.58-61.48h60.34c0,13.72,19,18.9,33.32,18.88,14.06,0,32.31-3.75,32.31-17,0-16.68-22.69-19.11-58.33-28.36-37-9.71-63.35-25.9-63.39-60.74,0-44.29,43.13-59.45,89.26-59.52,45.63,0,87.31,15.11,87.35,59.36l-59.6.19c0-12.3-15.13-17.08-27.75-17s-27.63,3.07-27.63,15.25c.06,16.72,25.46,18.82,54.17,25.85,36.71,8.92,68.19,23.85,68.24,63.42"/><path class="cls-5" d="M645.48,696l-56.56.38.13-22.35-2.18,0c-9.43,19-28.29,29.41-57.56,29.48-49.61.09-92.6-40.62-92.64-104.76-.06-65,39.16-103.67,89-103.7,27.65-.07,50.51,11.36,60.69,28.39l2.19-.06-.11-21.94h56.81Zm-57.35-97.31c0-26.09-14.47-50.45-48.13-50.41s-44.57,27.2-44.57,50.61c.05,24.65,13.21,51.34,47.24,51.36,34.89-.11,45.46-28.11,45.46-51.56"/><path class="cls-5" d="M802.13,781.78c-154.88-20.87-310.5-22.09-551.71-4.87l2.64-11.09c241-21.28,431.05-32.45,535.22-29.25,61.45,1.89,80.14,6.36,80.14,28.14,0,23.24-27.31,22.34-66.29,17.07"/><line class="cls-6" x1="1112" y1="501" x2="1109.89" y2="506.62"/><line class="cls-7" x1="1105.8" y1="517.51" x2="1009.66" y2="773.44"/><line class="cls-6" x1="1007.61" y1="778.88" x2="1005.5" y2="784.5"/><circle class="cls-8" cx="1112.5" cy="500.5" r="13.5"/><circle class="cls-8" cx="1007.5" cy="779.5" r="13.5"/><path class="cls-9" d="M240,764c0-473.18,576.11-468.08,582.94-106.51"/><polygon class="cls-10" points="797.52 638.52 801.76 634.27 822.67 655.2 842.02 632.81 846.56 636.74 822.99 664 797.52 638.52"/><path class="cls-5" d="M405,597.43c0,7.72-1,19.89-1,19.89l-140.39.06c1.36,22.73,18.4,39,42.34,38.88,17.38.06,28.61-6.45,34.09-18.48l60.93.09c-5.55,28.93-30.59,65.51-94,65.56-60.88.13-103.26-47.89-103.31-105.9,0-58.69,38.42-102.28,99.05-102.37,61,0,102.28,44,102.3,102.27M344.54,578c-.79-11.33-8.12-35.67-40.9-35.67-29.38,0-38.95,24.3-40.15,35.67Z"/><line class="cls-6" x1="665" y1="699" x2="56" y2="699"/><path class="cls-11" d="M824,714.93a31.58,31.58,0,0,0-22,53.79,33,33,0,0,1,5.51,18.14v1.61h0v13.61c0,6.57,5.07,11.92,11.29,11.92h10.25c6.22,0,11.28-5.35,11.28-11.92V788.47h.05v-1.61A33,33,0,0,1,846,768.72a31.58,31.58,0,0,0-22-53.79Zm13.22,87.15v0H810.78v-4.89h26.45Zm-8.1,8.7H818.88a8.13,8.13,0,0,1-7.51-5.46h25.27A8.13,8.13,0,0,1,829.13,810.78Zm8.1-16.78H810.78v-5.53h26.45Zm6.39-27.45-.12.1-.09.14a36.32,36.32,0,0,0-6.1,18.46h-6a3,3,0,0,0,1.08-2.3c0-3-3.9-3.94-8-5-1.74-.43-4.9-1.22-5.57-1.92.67-.69,3.84-1.48,5.58-1.91,4.13-1,8-2,8-5s-3.9-3.93-8-5c-1.68-.42-4.67-1.17-5.49-1.84.82-.68,3.81-1.42,5.48-1.84,4.14-1,8-2,8-5s-3.9-3.93-8-5c-1.67-.42-4.66-1.16-5.48-1.84.82-.67,3.81-1.41,5.48-1.83,4.14-1,8-2,8-5a1.59,1.59,0,0,0-3.17-.12c-.58.71-3.84,1.52-5.62,2-4.13,1-8,2-8,5s3.9,3.93,8,5c1.68.42,4.67,1.17,5.49,1.84-.82.68-3.81,1.42-5.49,1.84-4.13,1-8,2-8,5s3.9,3.94,8,5c1.68.42,4.67,1.16,5.49,1.83-.82.68-3.81,1.42-5.49,1.84-4.13,1-8,2-8,5v.15c0,3,3.89,3.93,8,5,1.68.42,4.67,1.17,5.49,1.84-.82.68-3.82,1.42-5.49,1.83l-.51.14a1.48,1.48,0,0,0-.62.33h-11.8a36.23,36.23,0,0,0-6.1-18.46l-.09-.14-.11-.1a27.92,27.92,0,1,1,39.23,0Z"/><path class="cls-11" d="M784.56,745.67a1.6,1.6,0,0,0-1.59-1.61H771.78a1.61,1.61,0,0,0,0,3.22H783A1.6,1.6,0,0,0,784.56,745.67Z"/><path class="cls-11" d="M823.48,706.55a1.6,1.6,0,0,0,1.59-1.61V693.61a1.59,1.59,0,1,0-3.18,0v11.33A1.6,1.6,0,0,0,823.48,706.55Z"/><path class="cls-11" d="M788.6,772.05l-7.92,8a1.65,1.65,0,0,0,0,2.28,1.59,1.59,0,0,0,2.26,0l7.91-8a1.62,1.62,0,0,0,0-2.27A1.58,1.58,0,0,0,788.6,772.05Z"/><path class="cls-11" d="M788.25,719.41a1.58,1.58,0,0,0,2.25,0,1.63,1.63,0,0,0,0-2.28l-7.92-8a1.56,1.56,0,0,0-2.24,0,1.6,1.6,0,0,0,0,2.27Z"/><path class="cls-11" d="M874.89,744.06H863.7a1.61,1.61,0,0,0,0,3.22h11.19a1.61,1.61,0,0,0,0-3.22Z"/><path class="cls-11" d="M858.07,772.05a1.58,1.58,0,0,0-2.25,0,1.62,1.62,0,0,0,0,2.27l7.91,8a1.6,1.6,0,0,0,1.13.47,1.62,1.62,0,0,0,1.13-.47,1.65,1.65,0,0,0,0-2.28Z"/><path class="cls-11" d="M857.3,719.88a1.59,1.59,0,0,0,1.12-.47l7.91-8a1.62,1.62,0,0,0,0-2.27,1.56,1.56,0,0,0-2.24,0l-7.92,8a1.63,1.63,0,0,0,0,2.28A1.6,1.6,0,0,0,857.3,719.88Z"/><path class="cls-10" d="M933.69,345.5a2.44,2.44,0,0,0-2.44,2.44c0,3.93,0,8,.14,12.18H904.44a2.44,2.44,0,0,0-2.44,2.44,46.27,46.27,0,0,0,36.54,45.18C944.05,422.36,954,433.82,970.6,437v16.95a9.75,9.75,0,0,0-5.22,8.58v.25A17,17,0,0,0,951,477.13h-.25a9.78,9.78,0,0,0-9.75,9.75v12.18a2.44,2.44,0,0,0,2.44,2.44h73.12a2.44,2.44,0,0,0,2.44-2.44V486.88a9.78,9.78,0,0,0-9.75-9.75H1009a17,17,0,0,0-14.38-14.38v-.25a9.75,9.75,0,0,0-5.22-8.58V437c16.6-3.15,26.55-14.61,32.06-29.23A46.27,46.27,0,0,0,1058,362.56a2.43,2.43,0,0,0-2.44-2.43h-27c.09-4.15.14-8.26.14-12.19a2.44,2.44,0,0,0-2.44-2.44Zm2.52,4.87h87.58c-.06,17.21-.72,36.43-5.54,51.94-5,16.23-14,28.07-31.62,30.48a2.45,2.45,0,0,0-2.11,2.41v17.55h-9V435.2a2.45,2.45,0,0,0-2.11-2.41c-17.59-2.41-26.58-14.25-31.62-30.48-4.82-15.51-5.48-34.73-5.54-51.93ZM907.31,365h24.27c.06,1.62.17,3.24.26,4.87H915.62a2.46,2.46,0,0,0-2.34,3.15,36.57,36.57,0,0,0,21.92,23.59c.44,1.92,1,3.8,1.5,5.66A41.26,41.26,0,0,1,907.31,365Zm121.11,0h24.27a41.26,41.26,0,0,1-29.39,37.27c.54-1.86,1.06-3.74,1.5-5.66A36.57,36.57,0,0,0,1046.72,373a2.46,2.46,0,0,0-2.34-3.15h-16.22c.09-1.63.2-3.25.26-4.87Zm-108.63,9.75H932.1c.41,5.39,1,10.75,1.92,16A32.36,32.36,0,0,1,919.79,374.75Zm108.11,0h12.31a32.36,32.36,0,0,1-14.23,16C1026.9,385.5,1027.49,380.14,1027.9,374.75Zm-53.41,83h11a4.75,4.75,0,0,1,4.24,4.75h-19.5A4.75,4.75,0,0,1,974.49,457.75Zm-6.68,9.63h24.38c5.83,0,9.95,4.32,11.19,9.75H956.62C957.86,471.7,962,467.38,967.81,467.38ZM950.75,482h58.5a4.82,4.82,0,0,1,4.88,4.88v9.75H945.88v-9.75A4.81,4.81,0,0,1,950.75,482Zm2.23,4.88a2.44,2.44,0,1,0,.25,4.87h53.62a2.44,2.44,0,1,0,.07-4.87H953Z"/><line class="cls-12" x1="877" y1="502" x2="1076" y2="502"/><path class="cls-11" d="M1015.5,359.22v15.11a1.5,1.5,0,0,0,3,0V359.22a1.5,1.5,0,0,0-3,0Z"/><path class="cls-11" d="M1014.29,387.67a39.64,39.64,0,0,1-12.57,26.94c-1.41,1.32.71,3.44,2.12,2.12a42.74,42.74,0,0,0,13.45-29.06c.09-1.93-2.91-1.92-3,0Z"/><path class="cls-11" d="M953.39,352.64l-12.16,24.81c-.84,1.73,1.74,3.25,2.59,1.52L956,354.16c.84-1.73-1.74-3.25-2.59-1.52Z"/><path class="cls-11" d="M954.87,362.49l-16.42,31.57c-.89,1.71,1.7,3.23,2.59,1.52L957.46,364c.89-1.71-1.7-3.23-2.59-1.52Z"/><path class="cls-10" d="M855.86,814.51c-3-10.5-1.63-21.27,3.1-31,4.66-9.59,11.22-18.56,12.53-29.41a24.65,24.65,0,0,0-3.16-16c-1.35-2.18-4.82-.18-3.45,2,5.47,8.79,2.06,19.48-2.25,28-2.43,4.77-5.24,9.35-7.52,14.2a49.88,49.88,0,0,0-4.57,15.33A45.49,45.49,0,0,0,852,815.57c.71,2.47,4.57,1.42,3.86-1.06Z"/><path class="cls-10" d="M139,650.57V680c0,2.58,4,2.58,4,0V650.57c0-2.57-4-2.57-4,0Z"/><path class="cls-10" d="M129.48,650.35l-.19,24.49c0,2.57,4,2.57,4,0l.19-24.49c0-2.58-4-2.58-4,0Z"/><path class="cls-10" d="M119,650.12v16.63c0,2.57,4,2.58,4,0V650.12c0-2.57-4-2.57-4,0Z"/><path class="cls-10" d="M108.62,651v12.36a2,2,0,0,0,4,0V651a2,2,0,0,0-4,0Z"/><path class="cls-11" d="M158.57,629.15H120.08V592.08a19.08,19.08,0,0,0,17-19c0-9.26-7.7-37.13-19.07-37.13S99,563.87,99,573.13a19.07,19.07,0,0,0,17.53,19v26.42l-9.21-3.94a12.65,12.65,0,0,0-6.93-15.69c-3.16-1.4-9.16-2.58-14.26-2.78-4.93-.2-11.2.39-13,4.31-3.08,6.91,11.38,18.71,17.08,21.25a13.2,13.2,0,0,0,5.29,1.13A12.63,12.63,0,0,0,100,622a12.19,12.19,0,0,0,5.7-4.27l10.87,4.66v6.74h-38v22.48h8l5.12,47.08h53.86l5.12-47.08h8ZM98.72,618.67a9.29,9.29,0,0,1-7-.25c-6.09-2.7-16.86-13-15.27-16.54.48-1.08,2.87-2.23,8-2.23l1.53,0a41.5,41.5,0,0,1,13,2.48,9.11,9.11,0,0,1,5.11,11l-5.75-2.47L96.89,614l5.32,2.28A8.62,8.62,0,0,1,98.72,618.67Zm3.83-45.54c0-10.29,8-33.58,15.51-33.58s15.5,23.29,15.5,33.58a15.52,15.52,0,0,1-13.48,15.35V574h-3.56v14.56A15.53,15.53,0,0,1,102.55,573.13Zm39.73,122H94.81l-4.66-42.86h56.79ZM155,648.07H82.08V632.71H155Z"/><path class="cls-11" d="M1087.08,696.41l31.33-31.33c1.83-1.82-1-4.65-2.82-2.83l-31.34,31.34c-1.82,1.82,1,4.65,2.83,2.82Z"/><path class="cls-11" d="M1084.25,665.08l31.34,31.33c1.82,1.83,4.65-1,2.82-2.82l-31.33-31.34c-1.82-1.82-4.65,1-2.83,2.83Z"/><path class="cls-11" d="M490.08,865.41l43.33-43.33c1.83-1.82-1-4.65-2.82-2.83l-43.34,43.34c-1.82,1.82,1,4.65,2.83,2.82Z"/><path class="cls-11" d="M487.25,822.08l43.34,43.33c1.82,1.83,4.65-1,2.82-2.82l-43.33-43.34c-1.82-1.82-4.65,1-2.83,2.83Z"/><path class="cls-10" d="M184.5,185.83l43.33-43.33a4,4,0,0,0-5.66-5.66l-43.33,43.33a4,4,0,0,0,5.66,5.66Z"/><path class="cls-10" d="M178.84,142.5l43.33,43.33a4,4,0,0,0,5.66-5.66L184.5,136.84a4,4,0,0,0-5.66,5.66Z"/><path class="cls-10" d="M138.5,1175.83l23.33-23.33a4,4,0,0,0-5.66-5.66l-23.33,23.33a4,4,0,0,0,5.66,5.66Z"/><path class="cls-10" d="M132.84,1152.5l23.33,23.33a4,4,0,0,0,5.66-5.66l-23.33-23.33a4,4,0,0,0-5.66,5.66Z"/><path class="cls-11" d="M335.08,472.41l21.33-21.33c1.83-1.82-1-4.65-2.82-2.83l-21.34,21.34c-1.82,1.82,1,4.65,2.83,2.82Z"/><path class="cls-11" d="M332.25,451.08l21.34,21.33c1.82,1.83,4.65-1,2.82-2.82l-21.33-21.34c-1.82-1.82-4.65,1-2.83,2.83Z"/><path class="cls-11" d="M1020.64,215.86l42.22-42.22c1.82-1.83-1-4.66-2.83-2.83L1017.81,213c-1.82,1.82,1,4.65,2.83,2.83Z"/><path class="cls-11" d="M1017.81,173.64,1060,215.86c1.82,1.82,4.65-1,2.83-2.83l-42.22-42.22c-1.83-1.82-4.66,1-2.83,2.83Z"/><path class="cls-10" d="M247.91,777a8,8,0,0,1,7.91,7.91v5.48a46.45,46.45,0,0,1,4.57,1.85l3.87-3.87a7.92,7.92,0,0,1,11.17,0l11.16,11.16a8,8,0,0,1,0,11.21l-3.87,3.87a46.72,46.72,0,0,1,1.89,4.57h5.48a8,8,0,0,1,7.91,7.91v15.82a8,8,0,0,1-7.91,7.91h-5.52a48.3,48.3,0,0,1-1.85,4.53l3.87,3.87a8,8,0,0,1,0,11.21l-11.16,11.16a7.92,7.92,0,0,1-11.17,0l-3.87-3.87a46.45,46.45,0,0,1-4.57,1.85v5.52a8,8,0,0,1-7.91,7.91H232.09a8,8,0,0,1-7.91-7.91v-5.52a45.75,45.75,0,0,1-4.53-1.85l-3.87,3.87a7.91,7.91,0,0,1-11.16,0l-11.21-11.16a8,8,0,0,1,0-11.21l3.91-3.91c-.69-1.45-1.34-3-1.89-4.49h-5.52a8,8,0,0,1-7.91-7.91V827.09a8,8,0,0,1,7.91-7.91h5.52q.84-2.32,1.89-4.53l-3.91-3.91a8,8,0,0,1,0-11.21l11.21-11.16a7.91,7.91,0,0,1,11.16,0l3.87,3.87a45.75,45.75,0,0,1,4.53-1.85v-5.48a8,8,0,0,1,7.91-7.91Zm0,5.27H232.09a2.58,2.58,0,0,0-2.64,2.64v7.25a2.71,2.71,0,0,1-1.85,2.51,41.79,41.79,0,0,0-7.33,3,2.72,2.72,0,0,1-3.09-.45l-5.11-5.11a2.59,2.59,0,0,0-3.75,0l-11.2,11.16a2.55,2.55,0,0,0,0,3.71l5.15,5.15a2.72,2.72,0,0,1,.49,3.13,41.76,41.76,0,0,0-3.09,7.29,2.69,2.69,0,0,1-2.51,1.89h-7.25a2.58,2.58,0,0,0-2.64,2.64v15.82a2.58,2.58,0,0,0,2.64,2.64h7.25a2.71,2.71,0,0,1,2.51,1.85,42.15,42.15,0,0,0,3.09,7.33,2.72,2.72,0,0,1-.49,3.09L197.12,863a2.55,2.55,0,0,0,0,3.71l11.2,11.16a2.59,2.59,0,0,0,3.75,0l5.11-5.11a2.72,2.72,0,0,1,3.09-.45,41.79,41.79,0,0,0,7.33,3,2.69,2.69,0,0,1,1.85,2.55v7.25a2.58,2.58,0,0,0,2.64,2.64h15.82a2.58,2.58,0,0,0,2.64-2.64v-7.25a2.69,2.69,0,0,1,1.85-2.55,42.33,42.33,0,0,0,7.37-3,2.72,2.72,0,0,1,3.09.45l5.11,5.11a2.59,2.59,0,0,0,3.75,0l11.16-11.16a2.55,2.55,0,0,0,0-3.71l-5.11-5.11a2.72,2.72,0,0,1-.45-3.09,42.33,42.33,0,0,0,3-7.37,2.71,2.71,0,0,1,2.51-1.85h7.25a2.58,2.58,0,0,0,2.64-2.64V827.09a2.58,2.58,0,0,0-2.64-2.64h-7.25a2.7,2.7,0,0,1-2.51-1.89,41.17,41.17,0,0,0-3-7.33,2.71,2.71,0,0,1,.45-3.13l5.11-5.11a2.55,2.55,0,0,0,0-3.71l-11.16-11.16a2.59,2.59,0,0,0-3.75,0l-5.11,5.11a2.72,2.72,0,0,1-3.09.45,41.56,41.56,0,0,0-7.37-3,2.71,2.71,0,0,1-1.85-2.51v-7.25a2.58,2.58,0,0,0-2.64-2.64ZM240,808.64A26.36,26.36,0,1,1,213.64,835,26.4,26.4,0,0,1,240,808.64Zm0,5.27A21.09,21.09,0,1,0,261.09,835,21,21,0,0,0,240,813.91Z"/><path class="cls-6" d="M1136.46,655.73A248.65,248.65,0,0,1,1205,827.5c0,137.8-111.7,249.5-249.5,249.5A249.47,249.47,0,0,1,736.11,946.43"/><polygon class="cls-10" points="1131.59 687.11 1137.6 687.17 1137.86 657.59 1167.35 660.01 1167.83 654.02 1131.92 651.08 1131.59 687.11"/><circle class="cls-8" cx="198.5" cy="436.5" r="24.5"/><circle class="cls-13" cx="1099.5" cy="1149.5" r="24.5"/><circle class="cls-14" cx="474.5" cy="1037.5" r="39.5"/><path class="cls-10" d="M736.74,681.5A64.42,64.42,0,0,0,719,640v-6.83a9.66,9.66,0,0,0-8-9.51c13.72-46,12.52-80.48-3.66-102.43C695.12,504.46,674.65,496,646.76,496a3.2,3.2,0,0,0-2.48,1.19,3.24,3.24,0,0,0-.67,2.68l3,15.2c-18.76,10.57-34,24.83-40,37.51a20.19,20.19,0,0,0-2,8.64v4.77a20,20,0,0,0,5.93,14.16,17,17,0,0,0,23.44.61,52.13,52.13,0,0,1,19.34-10.9c-11.34,20-17.68,37.6-19.34,53.7a9.66,9.66,0,0,0-9.25,9.65V640A64.49,64.49,0,0,0,607,681.43h0a10.45,10.45,0,0,0,1.16,20.86H735.59a10.43,10.43,0,0,0,1.15-20.79Zm-123.31-.07a58.09,58.09,0,0,1,16-37h84.89a57.84,57.84,0,0,1,16,37ZM702.15,525c9.27,12.67,13,30.67,11.32,53.17-1.37-13.89-5.26-25.53-11.67-35.14-10.06-14.9-26-24.39-48.72-29l-2.35-11.57C674.39,503.2,691.68,510.78,702.15,525Zm-30.1,21.34a3.23,3.23,0,0,0-4.39,1.23c-3.45,5.13-6.9,10.26-9.9,15.19a53.86,53.86,0,0,0-28,13.47,10.57,10.57,0,0,1-14.51-.41,13.54,13.54,0,0,1-4-9.68v-4.77a14.33,14.33,0,0,1,1.32-5.87c5.61-12,20.25-25.4,38.37-35.46,21.54,4.22,36.46,12.9,45.65,26.5,11.7,17.37,14,42.56,7.59,77H640.52c1.88-16.39,9.2-35.3,21.88-56,3.16-5.26,6.71-10.74,10.54-16.28a3.91,3.91,0,0,0,.34-.49A3.23,3.23,0,0,0,672.05,546.3Zm-37.67,83.64h2a3.08,3.08,0,0,0,.61.06h68.76a2.13,2.13,0,0,0,.94,0,3.29,3.29,0,0,0,.54,0h2a3.22,3.22,0,0,1,3.22,3.22V638H631.22l-.06-4.81A3.22,3.22,0,0,1,634.38,629.94Zm104,64.74a4,4,0,0,1-2.8,1.16H608.11a4,4,0,0,1-4-4v0a4,4,0,0,1,4-4h1.68a1.65,1.65,0,0,0,.32,0H733.59a1.75,1.75,0,0,0,.32,0h1.71a4,4,0,0,1,3.93,4A3.89,3.89,0,0,1,738.39,694.68Z"/><path class="cls-10" d="M643.41,534.38A3.24,3.24,0,0,0,648,539h0a1.71,1.71,0,0,1,2.42,0,3.22,3.22,0,0,0,2.25.93,3.18,3.18,0,0,0,2.29-1,3.22,3.22,0,0,0,0-4.54A8.19,8.19,0,0,0,643.41,534.38Z"/></g></svg>