<svg xmlns="http://www.w3.org/2000/svg" viewBox="0 0 1280 1280"><defs><style>.cls-1{fill:#333;}.cls-2{fill:#666;}</style></defs><g id="posicionamiento"><path class="cls-1" d="M53.47,57.14h3.38l.55,18.21V87H53.47Zm1.25,0h3.83l9.78,24.34L78.1,57.14H82L69.81,87h-3Zm25.08,0h3.38V87H79.24V75.35Z"/><path class="cls-1" d="M89.58,58.92a2.27,2.27,0,0,1,.56-1.55,2.51,2.51,0,0,1,3.35,0,2.19,2.19,0,0,1,.58,1.55,2.11,2.11,0,0,1-.58,1.51,2.24,2.24,0,0,1-3.91-1.51Zm4.1,5.89V87H89.87V64.81Z"/><path class="cls-1" d="M128.79,77.5h3.94a12.72,12.72,0,0,1-1.62,5.07,9.45,9.45,0,0,1-3.71,3.54,12.43,12.43,0,0,1-6,1.3,11.4,11.4,0,0,1-4.77-1,10.52,10.52,0,0,1-3.68-2.8,12.68,12.68,0,0,1-2.37-4.37,18.44,18.44,0,0,1-.83-5.69v-3a18.48,18.48,0,0,1,.83-5.69,12.54,12.54,0,0,1,2.4-4.38,10.82,10.82,0,0,1,3.78-2.81,12.27,12.27,0,0,1,5-1A11.82,11.82,0,0,1,127.48,58a9.2,9.2,0,0,1,3.64,3.52,13,13,0,0,1,1.61,5.2h-3.94a11,11,0,0,0-1.07-3.6,5.47,5.47,0,0,0-2.21-2.33,7.5,7.5,0,0,0-3.75-.82,7.64,7.64,0,0,0-3.5.76,7,7,0,0,0-2.52,2.15,9.84,9.84,0,0,0-1.53,3.35,17,17,0,0,0-.51,4.32v3a17.57,17.57,0,0,0,.46,4.12,10.84,10.84,0,0,0,1.4,3.38,6.6,6.6,0,0,0,5.85,3.12,8.62,8.62,0,0,0,4-.8,5.23,5.23,0,0,0,2.26-2.3A11.58,11.58,0,0,0,128.79,77.5Z"/><path class="cls-1" d="M151.82,77.2l1.58,0a17,17,0,0,1-.46,4.09,8.91,8.91,0,0,1-1.49,3.25,6.93,6.93,0,0,1-2.68,2.14,9.64,9.64,0,0,1-4,.77,9.07,9.07,0,0,1-3-.47,6,6,0,0,1-2.3-1.46A6.42,6.42,0,0,1,138,82.92a12.12,12.12,0,0,1-.52-3.8V64.81h3.79V79.17a7.55,7.55,0,0,0,.34,2.47,3.81,3.81,0,0,0,.92,1.54,3.34,3.34,0,0,0,1.31.78,4.81,4.81,0,0,0,1.51.23,7,7,0,0,0,3.84-.93,5.34,5.34,0,0,0,2-2.53A9.65,9.65,0,0,0,151.82,77.2Zm-.72,4.67V64.81h3.82V87h-3.63Z"/><path class="cls-1" d="M169.89,87.41a10.69,10.69,0,0,1-4.2-.79,9.33,9.33,0,0,1-3.21-2.22A9.91,9.91,0,0,1,160.41,81a12.69,12.69,0,0,1-.71-4.31v-.86a13.52,13.52,0,0,1,.8-4.83,10.79,10.79,0,0,1,2.17-3.6,9.39,9.39,0,0,1,3.12-2.23,8.86,8.86,0,0,1,3.61-.76,9.51,9.51,0,0,1,4.11.82,7.6,7.6,0,0,1,2.84,2.29A9.89,9.89,0,0,1,178,71a16.82,16.82,0,0,1,.53,4.32V77H162V73.88h12.78v-.29a9.75,9.75,0,0,0-.61-2.87,5.26,5.26,0,0,0-1.65-2.3,4.78,4.78,0,0,0-3.07-.9,5.27,5.27,0,0,0-2.38.54,5.12,5.12,0,0,0-1.87,1.61,8.08,8.08,0,0,0-1.21,2.61,13,13,0,0,0-.43,3.54v.86a9.88,9.88,0,0,0,.44,3,7.64,7.64,0,0,0,1.29,2.43,6.12,6.12,0,0,0,2.07,1.64,6.24,6.24,0,0,0,2.78.59,6.6,6.6,0,0,0,3.41-.82,8.43,8.43,0,0,0,2.44-2.19l2.3,1.82a10.63,10.63,0,0,1-1.83,2.08,8.79,8.79,0,0,1-2.72,1.59A10.4,10.4,0,0,1,169.89,87.41Z"/><path class="cls-1" d="M186.75,69.55V87H183V64.81h3.59Zm-.91,5.51L184.26,75a13.56,13.56,0,0,1,.68-4.21,10.36,10.36,0,0,1,1.85-3.37,8.19,8.19,0,0,1,6.5-3,9.33,9.33,0,0,1,3,.44,5.45,5.45,0,0,1,2.25,1.41,6.29,6.29,0,0,1,1.42,2.49,12.2,12.2,0,0,1,.49,3.72V87h-3.81V72.42a6.49,6.49,0,0,0-.51-2.8,3.21,3.21,0,0,0-1.5-1.54,5.49,5.49,0,0,0-2.42-.48,5.62,5.62,0,0,0-2.57.59,6.06,6.06,0,0,0-2,1.64,7.77,7.77,0,0,0-1.29,2.39A8.68,8.68,0,0,0,185.84,75.06Z"/><path class="cls-1" d="M215.44,64.81v2.91h-12V64.81Zm-7.94-5.39h3.79V81.5a3.39,3.39,0,0,0,.35,1.71,1.7,1.7,0,0,0,.9.75,3.58,3.58,0,0,0,1.19.19,5.89,5.89,0,0,0,1-.09c.35-.06.61-.12.79-.16l0,3.1a9,9,0,0,1-1.18.28,9.85,9.85,0,0,1-1.75.13,5.93,5.93,0,0,1-2.57-.55A4.06,4.06,0,0,1,208.19,85a7.56,7.56,0,0,1-.69-3.52Z"/><path class="cls-1" d="M233.63,73.55l0,2.66h-3.84a14.77,14.77,0,0,0-2.89.26,6.72,6.72,0,0,0-2.13.77,3.58,3.58,0,0,0-1.31,1.28,3.48,3.48,0,0,0-.46,1.79,3.84,3.84,0,0,0,.48,1.91,3.36,3.36,0,0,0,1.42,1.37,5.07,5.07,0,0,0,2.35.5,6.29,6.29,0,0,0,3.08-.74,6.51,6.51,0,0,0,2.12-1.81,3.87,3.87,0,0,0,.85-2.07L235,81.3a5.74,5.74,0,0,1-.78,1.91,9.32,9.32,0,0,1-1.69,2,9.42,9.42,0,0,1-2.5,1.58,8.26,8.26,0,0,1-3.25.62,8.4,8.4,0,0,1-4-.88,6.73,6.73,0,0,1-2.63-2.37,6.14,6.14,0,0,1-.93-3.33,6.77,6.77,0,0,1,.7-3.15,6.09,6.09,0,0,1,2-2.28A9.52,9.52,0,0,1,225.1,74a16.37,16.37,0,0,1,4.12-.47ZM233,83.21V71.78a4.74,4.74,0,0,0-.52-2.28A3.53,3.53,0,0,0,230.88,68a5.61,5.61,0,0,0-2.59-.53,6,6,0,0,0-2.51.49,4.29,4.29,0,0,0-1.68,1.29,2.81,2.81,0,0,0-.6,1.72h-3.8a5,5,0,0,1,.62-2.36,7.13,7.13,0,0,1,1.77-2.12A9.09,9.09,0,0,1,224.88,65a11.26,11.26,0,0,1,3.64-.56,10.47,10.47,0,0,1,4.28.82,6.57,6.57,0,0,1,2.91,2.47,7.56,7.56,0,0,1,1,4.13V82.16a15.45,15.45,0,0,0,.2,2.36,8.91,8.91,0,0,0,.58,2.15V87h-3.95a6.74,6.74,0,0,1-.46-1.75A15.31,15.31,0,0,1,233,83.21Z"/><path class="cls-2" d="M61.74,97.94H64v11.54a5.63,5.63,0,0,1-.85,3.2,5.37,5.37,0,0,1-2.27,1.92,7.43,7.43,0,0,1-3.07.63,7.54,7.54,0,0,1-3.13-.63,5.09,5.09,0,0,1-2.21-1.92,5.79,5.79,0,0,1-.82-3.2V97.94h2.24v11.54a4.37,4.37,0,0,0,.49,2.2A3.07,3.07,0,0,0,55.75,113a4.72,4.72,0,0,0,2,.42,4.78,4.78,0,0,0,2.07-.42,3.07,3.07,0,0,0,1.38-1.29,4.37,4.37,0,0,0,.49-2.2Z"/><path class="cls-2" d="M69.38,105v10H67.21V102.32h2.06Zm-.51,3.15-.91,0a7.69,7.69,0,0,1,.39-2.4,5.91,5.91,0,0,1,1.06-1.93A4.65,4.65,0,0,1,71,102.54a4.81,4.81,0,0,1,2.09-.45,5.22,5.22,0,0,1,1.69.25,3.1,3.1,0,0,1,1.28.8,3.59,3.59,0,0,1,.82,1.42,7.33,7.33,0,0,1,.28,2.13V115H75v-8.33a3.59,3.59,0,0,0-.3-1.6,1.82,1.82,0,0,0-.85-.88,3.2,3.2,0,0,0-1.38-.28,3.25,3.25,0,0,0-1.47.34,3.44,3.44,0,0,0-1.14.94,4.52,4.52,0,0,0-.74,1.37A5.09,5.09,0,0,0,68.87,108.18Z"/><path class="cls-2" d="M97.05,109.57H99.3a7.22,7.22,0,0,1-.92,2.9,5.39,5.39,0,0,1-2.13,2,7,7,0,0,1-3.42.74,6.33,6.33,0,0,1-2.72-.56,6,6,0,0,1-2.11-1.6,7.45,7.45,0,0,1-1.35-2.49,10.44,10.44,0,0,1-.47-3.26v-1.7a10.42,10.42,0,0,1,.47-3.25A7.28,7.28,0,0,1,88,99.87a6.1,6.1,0,0,1,2.16-1.6A6.91,6.91,0,0,1,93,97.7a6.81,6.81,0,0,1,3.27.73,5.23,5.23,0,0,1,2.08,2,7.35,7.35,0,0,1,.92,3H97.05a6.32,6.32,0,0,0-.61-2.06A3.3,3.3,0,0,0,95.18,100,5,5,0,0,0,91,100a4,4,0,0,0-1.44,1.23,5.69,5.69,0,0,0-.87,1.91,9.51,9.51,0,0,0-.29,2.47v1.72a9.87,9.87,0,0,0,.26,2.36,6.22,6.22,0,0,0,.8,1.93,4,4,0,0,0,1.37,1.31,3.88,3.88,0,0,0,2,.47,5,5,0,0,0,2.3-.45,3,3,0,0,0,1.29-1.32A6.42,6.42,0,0,0,97.05,109.57Z"/><path class="cls-2" d="M109.89,107.31l0,1.53h-2.19a8.36,8.36,0,0,0-1.66.14,4,4,0,0,0-1.21.44,2.1,2.1,0,0,0-.75.73,2,2,0,0,0-.26,1,2.23,2.23,0,0,0,.27,1.09,1.91,1.91,0,0,0,.81.78,2.86,2.86,0,0,0,1.34.29,3.48,3.48,0,0,0,1.76-.43,3.62,3.62,0,0,0,1.21-1,2.2,2.2,0,0,0,.49-1.18l.93,1a3.32,3.32,0,0,1-.45,1.09,4.83,4.83,0,0,1-1,1.14,4.93,4.93,0,0,1-1.43.91,4.59,4.59,0,0,1-1.85.35,4.8,4.8,0,0,1-2.26-.5,3.93,3.93,0,0,1-1.5-1.35,3.56,3.56,0,0,1-.53-1.91,3.85,3.85,0,0,1,.4-1.8,3.46,3.46,0,0,1,1.14-1.3,5.77,5.77,0,0,1,1.81-.79,9.51,9.51,0,0,1,2.36-.27Zm-.37,5.52V106.3a2.68,2.68,0,0,0-.3-1.3,2,2,0,0,0-.9-.86,3.11,3.11,0,0,0-1.47-.31,3.56,3.56,0,0,0-1.44.28,2.52,2.52,0,0,0-1,.74,1.61,1.61,0,0,0-.34,1h-2.17a2.77,2.77,0,0,1,.35-1.35,3.82,3.82,0,0,1,1-1.21,4.92,4.92,0,0,1,1.6-.87,6.18,6.18,0,0,1,2.08-.32,6,6,0,0,1,2.44.46,3.72,3.72,0,0,1,1.66,1.42,4.23,4.23,0,0,1,.61,2.36v5.9a8,8,0,0,0,.11,1.35,4.76,4.76,0,0,0,.33,1.23V115h-2.26a4.33,4.33,0,0,1-.26-1A8.31,8.31,0,0,1,109.52,112.83Z"/><path class="cls-2" d="M117.27,104.31V115H115.1V102.32h2.11Zm4-2.06,0,2a3.05,3.05,0,0,0-.5-.08l-.55,0a3.38,3.38,0,0,0-1.32.24,2.67,2.67,0,0,0-1,.65,3.18,3.18,0,0,0-.62,1,4.36,4.36,0,0,0-.3,1.28l-.61.35a9.29,9.29,0,0,1,.23-2.16,5.83,5.83,0,0,1,.71-1.79,3.45,3.45,0,0,1,1.22-1.21,3.38,3.38,0,0,1,1.78-.44,2.68,2.68,0,0,1,.53,0A1.51,1.51,0,0,1,121.23,102.25Z"/><path class="cls-2" d="M125.4,104.31V115h-2.17V102.32h2.11Zm4-2.06v2a3.35,3.35,0,0,0-.51-.08l-.55,0a3.38,3.38,0,0,0-1.32.24,2.63,2.63,0,0,0-1,.65,3,3,0,0,0-.63,1,5.1,5.1,0,0,0-.3,1.28l-.61.35a9.87,9.87,0,0,1,.23-2.16,5.83,5.83,0,0,1,.71-1.79,3.53,3.53,0,0,1,1.22-1.21,3.38,3.38,0,0,1,1.78-.44,2.84,2.84,0,0,1,.54,0A1.52,1.52,0,0,1,129.36,102.25Z"/><path class="cls-2" d="M131.38,99a1.27,1.27,0,0,1,.32-.89,1.17,1.17,0,0,1,1-.37,1.22,1.22,0,0,1,1,.37,1.27,1.27,0,0,1,.33.89,1.23,1.23,0,0,1-.33.86,1.25,1.25,0,0,1-1,.36,1.2,1.2,0,0,1-1-.36A1.23,1.23,0,0,1,131.38,99Zm2.34,3.36V115h-2.18V102.32Z"/><path class="cls-2" d="M142.51,102.32V104h-6.86v-1.66ZM138,99.24h2.17v12.62a1.92,1.92,0,0,0,.2,1,.93.93,0,0,0,.52.44,2.11,2.11,0,0,0,.68.1,3.87,3.87,0,0,0,.56-.05l.45-.09,0,1.77c-.18,0-.4.11-.68.16a5.72,5.72,0,0,1-1,.07,3.35,3.35,0,0,1-1.46-.31,2.31,2.31,0,0,1-1.06-1.06,4.25,4.25,0,0,1-.4-2Z"/><path class="cls-2" d="M144.24,108.8v-.27a8.11,8.11,0,0,1,.4-2.55,6.22,6.22,0,0,1,1.15-2,5.25,5.25,0,0,1,1.82-1.36,6.22,6.22,0,0,1,4.79,0,5.28,5.28,0,0,1,1.83,1.36,6.07,6.07,0,0,1,1.16,2,8.11,8.11,0,0,1,.4,2.55v.27a8,8,0,0,1-.4,2.54,6.07,6.07,0,0,1-1.16,2,5.4,5.4,0,0,1-1.81,1.36,6.24,6.24,0,0,1-4.8,0,5.48,5.48,0,0,1-1.83-1.36,6.22,6.22,0,0,1-1.15-2A8,8,0,0,1,144.24,108.8Zm2.17-.27v.27a6.91,6.91,0,0,0,.22,1.79,4.67,4.67,0,0,0,.68,1.48,3.13,3.13,0,0,0,1.13,1,3.21,3.21,0,0,0,1.58.37,3.16,3.16,0,0,0,1.56-.37,3.1,3.1,0,0,0,1.12-1,4.9,4.9,0,0,0,.68-1.48,6.91,6.91,0,0,0,.23-1.79v-.27a6.76,6.76,0,0,0-.23-1.77,5,5,0,0,0-.68-1.49,3.27,3.27,0,0,0-1.13-1,3.52,3.52,0,0,0-3.14,0,3.24,3.24,0,0,0-1.12,1,4.73,4.73,0,0,0-.68,1.49A6.76,6.76,0,0,0,146.41,108.53Z"/><path class="cls-2" d="M169.53,113.45a3.25,3.25,0,0,0,1.43-.31,2.92,2.92,0,0,0,1.08-.88,2.38,2.38,0,0,0,.48-1.27h2.06a3.88,3.88,0,0,1-.75,2.09,5.29,5.29,0,0,1-4.3,2.15,5.71,5.71,0,0,1-2.49-.5,5,5,0,0,1-1.76-1.38,6.15,6.15,0,0,1-1-2,8.38,8.38,0,0,1-.35-2.42v-.5a8.38,8.38,0,0,1,.35-2.42,6.15,6.15,0,0,1,1-2,5,5,0,0,1,1.76-1.38,5.71,5.71,0,0,1,2.49-.5,5.4,5.4,0,0,1,2.6.6,4.47,4.47,0,0,1,1.75,1.64,4.76,4.76,0,0,1,.7,2.35h-2.06a3.24,3.24,0,0,0-.44-1.42,2.85,2.85,0,0,0-1-1,2.88,2.88,0,0,0-1.52-.38,3.3,3.3,0,0,0-1.67.39,3,3,0,0,0-1.07,1,5.09,5.09,0,0,0-.56,1.47,8.05,8.05,0,0,0-.17,1.63v.5a8.23,8.23,0,0,0,.17,1.64,4.65,4.65,0,0,0,.55,1.46,2.91,2.91,0,0,0,1.07,1A3.31,3.31,0,0,0,169.53,113.45Z"/><path class="cls-2" d="M176.45,108.8v-.27a8.11,8.11,0,0,1,.39-2.55,6.22,6.22,0,0,1,1.15-2,5.34,5.34,0,0,1,1.82-1.36,5.76,5.76,0,0,1,2.39-.48,5.86,5.86,0,0,1,2.41.48,5.48,5.48,0,0,1,1.83,1.36,6.22,6.22,0,0,1,1.15,2,7.83,7.83,0,0,1,.4,2.55v.27a7.73,7.73,0,0,1-.4,2.54,6.22,6.22,0,0,1-1.15,2,5.44,5.44,0,0,1-1.82,1.36,6.24,6.24,0,0,1-4.8,0,5.34,5.34,0,0,1-1.82-1.36,6.07,6.07,0,0,1-1.16-2A8,8,0,0,1,176.45,108.8Zm2.16-.27v.27a6.91,6.91,0,0,0,.23,1.79,4.45,4.45,0,0,0,.67,1.48,3.18,3.18,0,0,0,2.71,1.38,3.14,3.14,0,0,0,2.69-1.38,4.89,4.89,0,0,0,.67-1.48,6.91,6.91,0,0,0,.23-1.79v-.27a6.76,6.76,0,0,0-.23-1.77,4.73,4.73,0,0,0-.68-1.49,3.33,3.33,0,0,0-1.12-1,3.54,3.54,0,0,0-3.15,0,3.33,3.33,0,0,0-1.12,1,4.5,4.5,0,0,0-.67,1.49A6.76,6.76,0,0,0,178.61,108.53Z"/><path class="cls-2" d="M192.88,105v10h-2.17V102.32h2Zm-.52,3.15-.9,0a7.41,7.41,0,0,1,.38-2.4,6.1,6.1,0,0,1,1.06-1.93,4.65,4.65,0,0,1,1.62-1.27,4.81,4.81,0,0,1,2.09-.45,5.22,5.22,0,0,1,1.69.25,3.1,3.1,0,0,1,1.28.8,3.59,3.59,0,0,1,.82,1.42,7,7,0,0,1,.28,2.13V115H198.5v-8.33a3.75,3.75,0,0,0-.29-1.6,1.84,1.84,0,0,0-.86-.88,3.14,3.14,0,0,0-1.38-.28,3.25,3.25,0,0,0-1.47.34,3.55,3.55,0,0,0-1.14.94,4.52,4.52,0,0,0-.74,1.37A5.09,5.09,0,0,0,192.36,108.18Z"/><path class="cls-2" d="M212.27,97v18h-2.18V97Z"/><path class="cls-2" d="M215.18,108.8v-.27a8.11,8.11,0,0,1,.39-2.55,6.22,6.22,0,0,1,1.15-2,5.34,5.34,0,0,1,1.82-1.36,5.76,5.76,0,0,1,2.39-.48,5.86,5.86,0,0,1,2.41.48,5.48,5.48,0,0,1,1.83,1.36,6.22,6.22,0,0,1,1.15,2,7.83,7.83,0,0,1,.4,2.55v.27a7.73,7.73,0,0,1-.4,2.54,6.22,6.22,0,0,1-1.15,2,5.44,5.44,0,0,1-1.82,1.36,6.24,6.24,0,0,1-4.8,0,5.34,5.34,0,0,1-1.82-1.36,6.07,6.07,0,0,1-1.16-2A8,8,0,0,1,215.18,108.8Zm2.16-.27v.27a6.91,6.91,0,0,0,.23,1.79,4.45,4.45,0,0,0,.67,1.48,3.18,3.18,0,0,0,2.71,1.38,3.14,3.14,0,0,0,2.69-1.38,4.89,4.89,0,0,0,.67-1.48,6.91,6.91,0,0,0,.23-1.79v-.27a6.76,6.76,0,0,0-.23-1.77,4.73,4.73,0,0,0-.68-1.49,3.24,3.24,0,0,0-1.12-1,3.21,3.21,0,0,0-1.58-.37,3.13,3.13,0,0,0-1.56.37,3.27,3.27,0,0,0-1.13,1,4.5,4.5,0,0,0-.67,1.49A6.76,6.76,0,0,0,217.34,108.53Z"/><path class="cls-2" d="M236.82,111.64a2,2,0,0,0-.2-.88,1.88,1.88,0,0,0-.84-.73,6.55,6.55,0,0,0-1.88-.58,15.1,15.1,0,0,1-1.9-.53,5.71,5.71,0,0,1-1.44-.74,3,3,0,0,1-.91-1,2.86,2.86,0,0,1-.32-1.37,3.06,3.06,0,0,1,.34-1.42,3.67,3.67,0,0,1,1-1.18,4.31,4.31,0,0,1,1.48-.81,6.61,6.61,0,0,1,4.53.24,4.12,4.12,0,0,1,1.66,1.44,3.64,3.64,0,0,1,.57,2h-2.17a1.9,1.9,0,0,0-.31-1,2.39,2.39,0,0,0-.9-.82,3,3,0,0,0-1.45-.33,3.37,3.37,0,0,0-1.46.27,2,2,0,0,0-.81.7,1.79,1.79,0,0,0-.25.89,1.61,1.61,0,0,0,.12.63,1.36,1.36,0,0,0,.44.5,3.69,3.69,0,0,0,.89.43c.39.13.88.26,1.47.4a11.73,11.73,0,0,1,2.57.84,3.8,3.8,0,0,1,1.5,1.21,3,3,0,0,1,.49,1.73,3.38,3.38,0,0,1-.35,1.53,3.51,3.51,0,0,1-1,1.19,4.89,4.89,0,0,1-1.55.77,7,7,0,0,1-2,.27,6.15,6.15,0,0,1-2.84-.59,4.37,4.37,0,0,1-1.75-1.55,3.68,3.68,0,0,1-.6-2h2.18a2.23,2.23,0,0,0,.51,1.41,2.66,2.66,0,0,0,1.15.74,4.57,4.57,0,0,0,1.35.21,4.06,4.06,0,0,0,1.49-.23,2,2,0,0,0,.92-.65A1.48,1.48,0,0,0,236.82,111.64Z"/><path class="cls-2" d="M250,104.31V115h-2.17V102.32h2.11Zm4-2.06,0,2a3.35,3.35,0,0,0-.51-.08l-.54,0a3.38,3.38,0,0,0-1.32.24,2.67,2.67,0,0,0-1,.65,3.18,3.18,0,0,0-.62,1,4.36,4.36,0,0,0-.3,1.28l-.61.35a9.29,9.29,0,0,1,.23-2.16,5.59,5.59,0,0,1,.71-1.79,3.45,3.45,0,0,1,1.22-1.21,3.38,3.38,0,0,1,1.78-.44,2.68,2.68,0,0,1,.53,0A1.51,1.51,0,0,1,253.91,102.25Z"/><path class="cls-2" d="M261,115.23a6.18,6.18,0,0,1-2.4-.45,5.28,5.28,0,0,1-1.84-1.27,5.6,5.6,0,0,1-1.17-1.94,7,7,0,0,1-.42-2.46v-.5a7.91,7.91,0,0,1,.46-2.76,6.24,6.24,0,0,1,1.24-2,5.28,5.28,0,0,1,1.79-1.28,5.07,5.07,0,0,1,2.06-.43,5.51,5.51,0,0,1,2.35.46,4.35,4.35,0,0,1,1.62,1.31,5.71,5.71,0,0,1,.94,2,9.61,9.61,0,0,1,.3,2.47v1h-9.47V107.5h7.3v-.16a5.39,5.39,0,0,0-.34-1.64,3,3,0,0,0-.94-1.32,2.77,2.77,0,0,0-1.76-.51,3,3,0,0,0-1.36.31,2.84,2.84,0,0,0-1.07.92,4.57,4.57,0,0,0-.69,1.49,7.64,7.64,0,0,0-.25,2v.5a5.49,5.49,0,0,0,.26,1.69,4.1,4.1,0,0,0,.73,1.39,3.38,3.38,0,0,0,1.19.93,3.51,3.51,0,0,0,1.59.34A3.79,3.79,0,0,0,263,113a4.91,4.91,0,0,0,1.4-1.26l1.31,1.05a6.25,6.25,0,0,1-1,1.18,5.05,5.05,0,0,1-1.56.91A5.91,5.91,0,0,1,261,115.23Z"/><path class="cls-2" d="M273.49,113.45a3.28,3.28,0,0,0,1.43-.31,3,3,0,0,0,1.08-.88,2.38,2.38,0,0,0,.48-1.27h2.06a3.81,3.81,0,0,1-.76,2.09,5,5,0,0,1-1.82,1.56,5.15,5.15,0,0,1-2.47.59,5.71,5.71,0,0,1-2.49-.5,5,5,0,0,1-1.76-1.38,6.15,6.15,0,0,1-1-2,8.38,8.38,0,0,1-.35-2.42v-.5a8.38,8.38,0,0,1,.35-2.42,6.15,6.15,0,0,1,1-2,5,5,0,0,1,1.76-1.38,5.71,5.71,0,0,1,2.49-.5,5.4,5.4,0,0,1,2.6.6,4.53,4.53,0,0,1,1.75,1.64,4.76,4.76,0,0,1,.7,2.35h-2.06a3.24,3.24,0,0,0-.44-1.42,2.87,2.87,0,0,0-2.55-1.39,3.28,3.28,0,0,0-1.67.39,2.91,2.91,0,0,0-1.07,1,4.82,4.82,0,0,0-.56,1.47,8.05,8.05,0,0,0-.17,1.63v.5a8.21,8.21,0,0,0,.16,1.64,4.67,4.67,0,0,0,.56,1.46,2.91,2.91,0,0,0,1.07,1A3.31,3.31,0,0,0,273.49,113.45Z"/><path class="cls-2" d="M289.14,109.4l.91,0a9.49,9.49,0,0,1-.27,2.33,5,5,0,0,1-.85,1.86,3.94,3.94,0,0,1-1.53,1.22,5.35,5.35,0,0,1-2.31.44,5,5,0,0,1-1.69-.27,3.19,3.19,0,0,1-1.32-.83,3.66,3.66,0,0,1-.85-1.46,6.93,6.93,0,0,1-.3-2.17v-8.18h2.17v8.2a4.43,4.43,0,0,0,.19,1.42,2.18,2.18,0,0,0,.53.87,1.84,1.84,0,0,0,.75.46,3.08,3.08,0,0,0,.86.12,3.9,3.9,0,0,0,2.19-.53,3,3,0,0,0,1.17-1.44A5.46,5.46,0,0,0,289.14,109.4Zm-.41,2.67v-9.75h2.18V115h-2.07Z"/><path class="cls-2" d="M296.38,104.31V115h-2.17V102.32h2.11Zm4-2.06,0,2a3.35,3.35,0,0,0-.51-.08l-.54,0a3.38,3.38,0,0,0-1.32.24,2.67,2.67,0,0,0-1,.65,3.18,3.18,0,0,0-.62,1,4.36,4.36,0,0,0-.3,1.28l-.61.35a9.29,9.29,0,0,1,.23-2.16,5.59,5.59,0,0,1,.71-1.79,3.45,3.45,0,0,1,1.22-1.21,3.38,3.38,0,0,1,1.78-.44,2.68,2.68,0,0,1,.53,0A1.51,1.51,0,0,1,300.34,102.25Z"/><path class="cls-2" d="M309.72,111.64a2,2,0,0,0-.2-.88,1.9,1.9,0,0,0-.83-.73,6.75,6.75,0,0,0-1.89-.58,15.6,15.6,0,0,1-1.9-.53,5.71,5.71,0,0,1-1.44-.74,3,3,0,0,1-.91-1,2.86,2.86,0,0,1-.32-1.37,3.19,3.19,0,0,1,.34-1.42,3.67,3.67,0,0,1,.95-1.18,4.31,4.31,0,0,1,1.48-.81,6.64,6.64,0,0,1,4.54.24,4.16,4.16,0,0,1,1.65,1.44,3.64,3.64,0,0,1,.57,2h-2.17a1.9,1.9,0,0,0-.31-1,2.25,2.25,0,0,0-.9-.82,2.93,2.93,0,0,0-1.45-.33,3.4,3.4,0,0,0-1.46.27,1.86,1.86,0,0,0-.8.7,1.7,1.7,0,0,0-.26.89,1.61,1.61,0,0,0,.13.63,1.28,1.28,0,0,0,.44.5,3.35,3.35,0,0,0,.89.43c.38.13.87.26,1.46.4a11.55,11.55,0,0,1,2.57.84,3.8,3.8,0,0,1,1.5,1.21,2.94,2.94,0,0,1,.49,1.73,3.25,3.25,0,0,1-.35,1.53,3.51,3.51,0,0,1-1,1.19A4.79,4.79,0,0,1,309,115a7,7,0,0,1-2,.27,6.1,6.1,0,0,1-2.83-.59,4.4,4.4,0,0,1-1.76-1.55,3.68,3.68,0,0,1-.6-2H304a2.18,2.18,0,0,0,.52,1.41,2.57,2.57,0,0,0,1.14.74,4.62,4.62,0,0,0,1.35.21,4.11,4.11,0,0,0,1.5-.23,2.07,2.07,0,0,0,.92-.65A1.47,1.47,0,0,0,309.72,111.64Z"/><path class="cls-2" d="M314.15,108.8v-.27a8.11,8.11,0,0,1,.4-2.55,6.22,6.22,0,0,1,1.15-2,5.25,5.25,0,0,1,1.82-1.36,6.22,6.22,0,0,1,4.79,0,5.28,5.28,0,0,1,1.83,1.36,6.07,6.07,0,0,1,1.16,2,8.11,8.11,0,0,1,.4,2.55v.27a8,8,0,0,1-.4,2.54,6.07,6.07,0,0,1-1.16,2,5.4,5.4,0,0,1-1.81,1.36,6.24,6.24,0,0,1-4.8,0,5.34,5.34,0,0,1-1.82-1.36,6.07,6.07,0,0,1-1.16-2A8,8,0,0,1,314.15,108.8Zm2.17-.27v.27a6.91,6.91,0,0,0,.22,1.79,4.67,4.67,0,0,0,.68,1.48,3.13,3.13,0,0,0,1.13,1,3.21,3.21,0,0,0,1.58.37,3.16,3.16,0,0,0,1.56-.37,3.1,3.1,0,0,0,1.12-1,4.9,4.9,0,0,0,.68-1.48,6.91,6.91,0,0,0,.23-1.79v-.27a6.76,6.76,0,0,0-.23-1.77,5,5,0,0,0-.68-1.49,3.27,3.27,0,0,0-1.13-1,3.52,3.52,0,0,0-3.14,0,3.24,3.24,0,0,0-1.12,1,4.73,4.73,0,0,0-.68,1.49A6.76,6.76,0,0,0,316.32,108.53Z"/><path class="cls-2" d="M335.8,111.64a1.87,1.87,0,0,0-.21-.88,1.79,1.79,0,0,0-.83-.73,6.77,6.77,0,0,0-1.88-.58,15.78,15.78,0,0,1-1.91-.53,6.07,6.07,0,0,1-1.44-.74,3.25,3.25,0,0,1-.91-1,2.86,2.86,0,0,1-.31-1.37,3.18,3.18,0,0,1,.33-1.42,3.81,3.81,0,0,1,.95-1.18,4.41,4.41,0,0,1,1.48-.81,6.64,6.64,0,0,1,4.54.24,4,4,0,0,1,1.65,1.44,3.64,3.64,0,0,1,.58,2h-2.17a2,2,0,0,0-.31-1,2.39,2.39,0,0,0-.9-.82,3,3,0,0,0-1.45-.33,3.37,3.37,0,0,0-1.46.27,2,2,0,0,0-.81.7,1.69,1.69,0,0,0-.25.89,1.61,1.61,0,0,0,.12.63,1.28,1.28,0,0,0,.44.5,3.52,3.52,0,0,0,.89.43c.38.13.87.26,1.47.4a11.45,11.45,0,0,1,2.56.84,3.8,3.8,0,0,1,1.5,1.21,2.94,2.94,0,0,1,.49,1.73,3.37,3.37,0,0,1-.34,1.53,3.43,3.43,0,0,1-1,1.19,4.84,4.84,0,0,1-1.54.77,7,7,0,0,1-2,.27,6.12,6.12,0,0,1-2.84-.59,4.47,4.47,0,0,1-1.76-1.55,3.67,3.67,0,0,1-.59-2h2.17a2.29,2.29,0,0,0,.52,1.41,2.6,2.6,0,0,0,1.15.74,4.52,4.52,0,0,0,1.35.21,4.06,4.06,0,0,0,1.49-.23,2.07,2.07,0,0,0,.92-.65A1.48,1.48,0,0,0,335.8,111.64Z"/><path class="cls-2" d="M346.21,108.8v-.25a9.16,9.16,0,0,1,.36-2.64,6.3,6.3,0,0,1,1-2,4.64,4.64,0,0,1,1.58-1.32,4.52,4.52,0,0,1,2.06-.46,4.87,4.87,0,0,1,2.09.41,4.18,4.18,0,0,1,1.53,1.21,6.44,6.44,0,0,1,1,1.9,12.09,12.09,0,0,1,.5,2.52v1.08a11.27,11.27,0,0,1-.5,2.51,6.21,6.21,0,0,1-1,1.9,4.26,4.26,0,0,1-1.53,1.2,5,5,0,0,1-2.11.41,4.35,4.35,0,0,1-2-.48,4.81,4.81,0,0,1-1.58-1.34,6.46,6.46,0,0,1-1-2A8.7,8.7,0,0,1,346.21,108.8Zm2.18-.25v.25a7.76,7.76,0,0,0,.2,1.78,4.73,4.73,0,0,0,.6,1.47,3,3,0,0,0,1,1,3,3,0,0,0,1.52.35,3.21,3.21,0,0,0,1.77-.45,3.43,3.43,0,0,0,1.12-1.21,7.13,7.13,0,0,0,.66-1.63v-2.82a6.77,6.77,0,0,0-.41-1.25,4,4,0,0,0-.68-1.08,2.77,2.77,0,0,0-1-.75,3.27,3.27,0,0,0-1.42-.29,2.9,2.9,0,0,0-2.58,1.38,4.79,4.79,0,0,0-.6,1.48A7.83,7.83,0,0,0,348.39,108.55Zm6.36,4V97h2.18v18h-2Z"/><path class="cls-2" d="M365.55,115.23a6.18,6.18,0,0,1-2.4-.45,5.37,5.37,0,0,1-1.84-1.27,5.6,5.6,0,0,1-1.17-1.94,7,7,0,0,1-.41-2.46v-.5a7.91,7.91,0,0,1,.45-2.76,6.1,6.1,0,0,1,1.25-2,5.15,5.15,0,0,1,1.78-1.28,5.07,5.07,0,0,1,2.06-.43,5.47,5.47,0,0,1,2.35.46,4.35,4.35,0,0,1,1.62,1.31,5.71,5.71,0,0,1,.94,2,9.61,9.61,0,0,1,.3,2.47v1H361V107.5h7.3v-.16a5.4,5.4,0,0,0-.35-1.64,3,3,0,0,0-.94-1.32,2.77,2.77,0,0,0-1.76-.51,3,3,0,0,0-1.36.31,2.92,2.92,0,0,0-1.07.92,4.78,4.78,0,0,0-.69,1.49,7.67,7.67,0,0,0-.24,2v.5a5.48,5.48,0,0,0,.25,1.69,4.12,4.12,0,0,0,.74,1.39,3.34,3.34,0,0,0,1.18.93,3.51,3.51,0,0,0,1.59.34,3.79,3.79,0,0,0,1.94-.46,4.91,4.91,0,0,0,1.4-1.26l1.31,1.05a6.25,6.25,0,0,1-1,1.18,4.94,4.94,0,0,1-1.56.91A5.91,5.91,0,0,1,365.55,115.23Z"/><path class="cls-2" d="M381.56,97.94V115H379.3V97.94Zm8.46,0v1.85H381.1V97.94Zm-1.08,7.33v1.84H381.1v-1.84Zm1.2,7.89V115h-9v-1.84Z"/><path class="cls-2" d="M400.46,107.31l0,1.53h-2.19a8.26,8.26,0,0,0-1.65.14,4.14,4.14,0,0,0-1.22.44,2.1,2.1,0,0,0-.75.73,2,2,0,0,0-.26,1,2.23,2.23,0,0,0,.27,1.09,1.88,1.88,0,0,0,.82.78,2.86,2.86,0,0,0,1.34.29,3.5,3.5,0,0,0,1.76-.43,3.62,3.62,0,0,0,1.21-1,2.29,2.29,0,0,0,.49-1.18l.92,1a3.08,3.08,0,0,1-.44,1.09,5.36,5.36,0,0,1-2.4,2,4.6,4.6,0,0,1-1.86.35,4.73,4.73,0,0,1-2.25-.5,3.79,3.79,0,0,1-1.5-1.35,3.49,3.49,0,0,1-.54-1.91,4,4,0,0,1,.4-1.8,3.58,3.58,0,0,1,1.15-1.3,5.67,5.67,0,0,1,1.81-.79,9.43,9.43,0,0,1,2.35-.27Zm-.37,5.52V106.3a2.68,2.68,0,0,0-.3-1.3,2,2,0,0,0-.9-.86,3.15,3.15,0,0,0-1.48-.31,3.54,3.54,0,0,0-1.43.28,2.52,2.52,0,0,0-1,.74,1.62,1.62,0,0,0-.35,1H392.5a2.79,2.79,0,0,1,.36-1.35,3.82,3.82,0,0,1,1-1.21,4.87,4.87,0,0,1,1.59-.87,6.22,6.22,0,0,1,2.08-.32,6.08,6.08,0,0,1,2.45.46,3.77,3.77,0,0,1,1.66,1.42,4.31,4.31,0,0,1,.6,2.36v5.9a8.05,8.05,0,0,0,.12,1.35,4.76,4.76,0,0,0,.33,1.23V115h-2.26a3.87,3.87,0,0,1-.26-1A8.31,8.31,0,0,1,400.09,112.83Z"/><path class="cls-2" d="M413.05,111.64a1.87,1.87,0,0,0-.21-.88A1.79,1.79,0,0,0,412,110a6.77,6.77,0,0,0-1.88-.58,15.78,15.78,0,0,1-1.91-.53,6.07,6.07,0,0,1-1.44-.74,3.1,3.1,0,0,1-.9-1,2.75,2.75,0,0,1-.32-1.37,3.18,3.18,0,0,1,.33-1.42,3.81,3.81,0,0,1,.95-1.18,4.41,4.41,0,0,1,1.48-.81,6.64,6.64,0,0,1,4.54.24,4,4,0,0,1,1.65,1.44,3.64,3.64,0,0,1,.58,2h-2.17a2,2,0,0,0-.31-1,2.39,2.39,0,0,0-.9-.82,3,3,0,0,0-1.45-.33,3.37,3.37,0,0,0-1.46.27,2,2,0,0,0-.81.7,1.69,1.69,0,0,0-.25.89,1.61,1.61,0,0,0,.12.63,1.28,1.28,0,0,0,.44.5,3.52,3.52,0,0,0,.89.43c.38.13.87.26,1.47.4a11.45,11.45,0,0,1,2.56.84,3.8,3.8,0,0,1,1.5,1.21,2.94,2.94,0,0,1,.49,1.73,3.37,3.37,0,0,1-.34,1.53,3.43,3.43,0,0,1-1,1.19,4.84,4.84,0,0,1-1.54.77,7,7,0,0,1-2,.27,6.12,6.12,0,0,1-2.84-.59,4.47,4.47,0,0,1-1.76-1.55,3.68,3.68,0,0,1-.6-2h2.18a2.29,2.29,0,0,0,.52,1.41,2.6,2.6,0,0,0,1.15.74,4.52,4.52,0,0,0,1.35.21,4.06,4.06,0,0,0,1.49-.23,2.07,2.07,0,0,0,.92-.65A1.48,1.48,0,0,0,413.05,111.64Z"/><path class="cls-2" d="M419,102.32l3.3,9.84.56,2.29-1.56.8-4.66-12.93Zm2.59,11.37,3.53-11.37h2.32L422.38,117a9.75,9.75,0,0,1-.47,1,5,5,0,0,1-.73,1,3.57,3.57,0,0,1-1.07.8,3.32,3.32,0,0,1-1.5.31,3.52,3.52,0,0,1-.65-.07l-.57-.12v-1.75l.3,0H418a3.54,3.54,0,0,0,1.25-.19,1.94,1.94,0,0,0,.88-.65,4.14,4.14,0,0,0,.61-1.23Z"/><path class="cls-2" d="M434.79,108.8v-.27a8.11,8.11,0,0,1,.39-2.55,6.22,6.22,0,0,1,1.15-2,5.34,5.34,0,0,1,1.82-1.36,5.76,5.76,0,0,1,2.39-.48,5.86,5.86,0,0,1,2.41.48,5.48,5.48,0,0,1,1.83,1.36,6.22,6.22,0,0,1,1.15,2,7.83,7.83,0,0,1,.4,2.55v.27a7.73,7.73,0,0,1-.4,2.54,6.22,6.22,0,0,1-1.15,2,5.44,5.44,0,0,1-1.82,1.36,6.24,6.24,0,0,1-4.8,0,5.34,5.34,0,0,1-1.82-1.36,6.07,6.07,0,0,1-1.16-2A8,8,0,0,1,434.79,108.8Zm2.16-.27v.27a6.91,6.91,0,0,0,.23,1.79,4.45,4.45,0,0,0,.67,1.48,3.18,3.18,0,0,0,2.71,1.38,3.14,3.14,0,0,0,2.69-1.38,4.89,4.89,0,0,0,.67-1.48,6.91,6.91,0,0,0,.23-1.79v-.27a6.76,6.76,0,0,0-.23-1.77,4.73,4.73,0,0,0-.68-1.49,3.33,3.33,0,0,0-1.12-1,3.54,3.54,0,0,0-3.15,0,3.33,3.33,0,0,0-1.12,1,4.5,4.5,0,0,0-.67,1.49A6.76,6.76,0,0,0,437,108.53Z"/><path class="cls-2" d="M457.36,97v18h-2.18V97Z"/><path class="cls-2" d="M468.69,107.31l0,1.53h-2.19a8.19,8.19,0,0,0-1.65.14,4,4,0,0,0-1.22.44,2.1,2.1,0,0,0-.75.73,2,2,0,0,0-.26,1,2.23,2.23,0,0,0,.27,1.09,1.91,1.91,0,0,0,.81.78,2.93,2.93,0,0,0,1.35.29,3.44,3.44,0,0,0,1.75-.43,3.66,3.66,0,0,0,1.22-1,2.18,2.18,0,0,0,.48-1.18l.93,1a3.12,3.12,0,0,1-.45,1.09,5,5,0,0,1-1,1.14,5.21,5.21,0,0,1-1.43.91,4.6,4.6,0,0,1-1.86.35,4.8,4.8,0,0,1-2.26-.5,3.93,3.93,0,0,1-1.5-1.35,3.56,3.56,0,0,1-.53-1.91,3.85,3.85,0,0,1,.4-1.8,3.49,3.49,0,0,1,1.15-1.3,5.71,5.71,0,0,1,1.8-.79,9.57,9.57,0,0,1,2.36-.27Zm-.38,5.52V106.3a2.68,2.68,0,0,0-.3-1.3,2,2,0,0,0-.89-.86,3.15,3.15,0,0,0-1.48-.31,3.51,3.51,0,0,0-1.43.28,2.48,2.48,0,0,0-1,.74,1.61,1.61,0,0,0-.34,1h-2.17a2.89,2.89,0,0,1,.35-1.35,3.86,3.86,0,0,1,1-1.21,4.87,4.87,0,0,1,1.59-.87,6.18,6.18,0,0,1,2.08-.32,6,6,0,0,1,2.44.46,3.8,3.8,0,0,1,1.67,1.42,4.31,4.31,0,0,1,.6,2.36v5.9a9.2,9.2,0,0,0,.11,1.35,5.18,5.18,0,0,0,.34,1.23V115h-2.27a3.92,3.92,0,0,1-.25-1A7.11,7.11,0,0,1,468.31,112.83Z"/><path class="cls-2" d="M487.23,111.64a1.87,1.87,0,0,0-.21-.88,1.85,1.85,0,0,0-.83-.73,6.77,6.77,0,0,0-1.88-.58,15.78,15.78,0,0,1-1.91-.53,6.07,6.07,0,0,1-1.44-.74,3.25,3.25,0,0,1-.91-1,2.86,2.86,0,0,1-.31-1.37,3.18,3.18,0,0,1,.33-1.42,3.67,3.67,0,0,1,.95-1.18,4.41,4.41,0,0,1,1.48-.81,6.64,6.64,0,0,1,4.54.24,4,4,0,0,1,1.65,1.44,3.64,3.64,0,0,1,.58,2H487.1a2,2,0,0,0-.31-1,2.35,2.35,0,0,0-.91-.82,2.89,2.89,0,0,0-1.44-.33,3.37,3.37,0,0,0-1.46.27,2,2,0,0,0-.81.7,1.69,1.69,0,0,0-.25.89,1.61,1.61,0,0,0,.12.63,1.28,1.28,0,0,0,.44.5,3.52,3.52,0,0,0,.89.43c.38.13.87.26,1.47.4a11.45,11.45,0,0,1,2.56.84,3.8,3.8,0,0,1,1.5,1.21,2.94,2.94,0,0,1,.49,1.73,3.37,3.37,0,0,1-.34,1.53,3.43,3.43,0,0,1-1,1.19,4.84,4.84,0,0,1-1.54.77,7,7,0,0,1-2,.27,6.12,6.12,0,0,1-2.84-.59,4.47,4.47,0,0,1-1.76-1.55,3.68,3.68,0,0,1-.6-2h2.18a2.29,2.29,0,0,0,.52,1.41,2.6,2.6,0,0,0,1.15.74,4.52,4.52,0,0,0,1.35.21,4.06,4.06,0,0,0,1.49-.23,2.07,2.07,0,0,0,.92-.65A1.48,1.48,0,0,0,487.23,111.64Z"/><path class="cls-2" d="M492.24,99a1.31,1.31,0,0,1,.32-.89,1.42,1.42,0,0,1,1.91,0,1.24,1.24,0,0,1,.34.89,1.2,1.2,0,0,1-.34.86,1.45,1.45,0,0,1-1.91,0A1.27,1.27,0,0,1,492.24,99Zm2.35,3.36V115h-2.18V102.32Z"/><path class="cls-2" d="M500.42,97v18h-2.18V97Z"/><path class="cls-2" d="M512.07,109.4l.9,0a10,10,0,0,1-.26,2.33,5.13,5.13,0,0,1-.85,1.86,3.9,3.9,0,0,1-1.54,1.22,5.33,5.33,0,0,1-2.3.44,5.09,5.09,0,0,1-1.7-.27,3.26,3.26,0,0,1-1.32-.83,3.78,3.78,0,0,1-.85-1.46,7.26,7.26,0,0,1-.29-2.17v-8.18H506v8.2a4.41,4.41,0,0,0,.2,1.42,2.17,2.17,0,0,0,.52.87,2,2,0,0,0,.75.46,3.15,3.15,0,0,0,.87.12,3.9,3.9,0,0,0,2.19-.53,3,3,0,0,0,1.16-1.44A5.46,5.46,0,0,0,512.07,109.4Zm-.41,2.67v-9.75h2.18V115h-2.07Z"/><path class="cls-2" d="M522.39,115.23a6.1,6.1,0,0,1-2.39-.45,5.19,5.19,0,0,1-1.84-1.27,5.62,5.62,0,0,1-1.18-1.94,7.21,7.21,0,0,1-.41-2.46v-.5a7.68,7.68,0,0,1,.46-2.76,6.08,6.08,0,0,1,1.24-2,5.24,5.24,0,0,1,1.78-1.28,5.07,5.07,0,0,1,2.06-.43,5.47,5.47,0,0,1,2.35.46,4.46,4.46,0,0,1,1.63,1.31,5.7,5.7,0,0,1,.93,2,9.18,9.18,0,0,1,.31,2.47v1h-9.47V107.5h7.3v-.16a5.4,5.4,0,0,0-.35-1.64,2.92,2.92,0,0,0-.94-1.32,2.75,2.75,0,0,0-1.76-.51,3,3,0,0,0-1.36.31,2.81,2.81,0,0,0-1.06.92,4.37,4.37,0,0,0-.69,1.49,7.25,7.25,0,0,0-.25,2v.5a5.48,5.48,0,0,0,.25,1.69,4.31,4.31,0,0,0,.74,1.39,3.34,3.34,0,0,0,1.18.93,3.57,3.57,0,0,0,1.59.34,3.8,3.8,0,0,0,2-.46,4.87,4.87,0,0,0,1.39-1.26l1.31,1.05a6.25,6.25,0,0,1-1,1.18,5,5,0,0,1-1.55.91A6,6,0,0,1,522.39,115.23Z"/><path class="cls-2" d="M535.17,102.32V104h-6.86v-1.66Zm-4.54-3.08h2.17v12.62a1.92,1.92,0,0,0,.2,1,.93.93,0,0,0,.52.44,2.11,2.11,0,0,0,.68.1,3.75,3.75,0,0,0,.56-.05l.45-.09,0,1.77c-.18,0-.4.11-.68.16a5.72,5.72,0,0,1-1,.07,3.35,3.35,0,0,1-1.46-.31,2.31,2.31,0,0,1-1.06-1.06,4.25,4.25,0,0,1-.4-2Z"/><path class="cls-2" d="M545.56,107.31l0,1.53h-2.2a8.33,8.33,0,0,0-1.65.14,4.14,4.14,0,0,0-1.22.44,2.28,2.28,0,0,0-.75.73,2,2,0,0,0-.25,1,2.23,2.23,0,0,0,.27,1.09,1.85,1.85,0,0,0,.81.78,2.86,2.86,0,0,0,1.34.29,3.48,3.48,0,0,0,1.76-.43,3.62,3.62,0,0,0,1.21-1,2.2,2.2,0,0,0,.49-1.18l.92,1a3.08,3.08,0,0,1-.44,1.09,5.36,5.36,0,0,1-2.4,2,4.6,4.6,0,0,1-1.86.35,4.75,4.75,0,0,1-2.25-.5,3.79,3.79,0,0,1-1.5-1.35,3.48,3.48,0,0,1-.53-1.91,4,4,0,0,1,.39-1.8,3.58,3.58,0,0,1,1.15-1.3,5.67,5.67,0,0,1,1.81-.79,9.48,9.48,0,0,1,2.35-.27Zm-.37,5.52V106.3a2.68,2.68,0,0,0-.3-1.3,2,2,0,0,0-.9-.86,3.13,3.13,0,0,0-1.47-.31,3.56,3.56,0,0,0-1.44.28,2.52,2.52,0,0,0-1,.74,1.62,1.62,0,0,0-.35,1h-2.16a2.77,2.77,0,0,1,.35-1.35,3.82,3.82,0,0,1,1-1.21,4.87,4.87,0,0,1,1.59-.87,6.26,6.26,0,0,1,2.08-.32,6.05,6.05,0,0,1,2.45.46,3.77,3.77,0,0,1,1.66,1.42,4.31,4.31,0,0,1,.61,2.36v5.9a8,8,0,0,0,.11,1.35,4.76,4.76,0,0,0,.33,1.23V115h-2.26a3.87,3.87,0,0,1-.26-1A8.31,8.31,0,0,1,545.19,112.83Z"/><path class="cls-2" d="M556.18,108.8v-.25a9.16,9.16,0,0,1,.36-2.64,6.3,6.3,0,0,1,1-2,4.64,4.64,0,0,1,1.58-1.32,4.49,4.49,0,0,1,2.06-.46,4.9,4.9,0,0,1,2.09.41,4.23,4.23,0,0,1,1.52,1.21,6,6,0,0,1,1,1.9,12.09,12.09,0,0,1,.5,2.52v1.08a11.28,11.28,0,0,1-.49,2.51,6.23,6.23,0,0,1-1,1.9,4.26,4.26,0,0,1-1.53,1.2,4.94,4.94,0,0,1-2.11.41,4.31,4.31,0,0,1-2-.48,4.81,4.81,0,0,1-1.58-1.34,6.46,6.46,0,0,1-1-2A8.7,8.7,0,0,1,556.18,108.8Zm2.18-.25v.25a7.77,7.77,0,0,0,.19,1.78,4.51,4.51,0,0,0,.61,1.47,2.83,2.83,0,0,0,2.55,1.34,3.24,3.24,0,0,0,1.78-.45,3.62,3.62,0,0,0,1.12-1.21,6.69,6.69,0,0,0,.65-1.63v-2.82a6.74,6.74,0,0,0-.4-1.25,4.29,4.29,0,0,0-.68-1.08,2.94,2.94,0,0,0-1-.75,3.32,3.32,0,0,0-1.43-.29,3,3,0,0,0-1.52.37,3.07,3.07,0,0,0-1.05,1,4.57,4.57,0,0,0-.61,1.48A7.84,7.84,0,0,0,558.36,108.55Zm6.35,4V97h2.18v18h-2Z"/><path class="cls-2" d="M575.52,115.23a6.11,6.11,0,0,1-2.4-.45,5.19,5.19,0,0,1-1.84-1.27,5.78,5.78,0,0,1-1.18-1.94,7.21,7.21,0,0,1-.41-2.46v-.5a7.68,7.68,0,0,1,.46-2.76,6.08,6.08,0,0,1,1.24-2,5.24,5.24,0,0,1,1.78-1.28,5.11,5.11,0,0,1,2.06-.43,5.47,5.47,0,0,1,2.35.46,4.38,4.38,0,0,1,1.63,1.31,5.7,5.7,0,0,1,.93,2,9.18,9.18,0,0,1,.31,2.47v1H571V107.5h7.3v-.16a5.71,5.71,0,0,0-.34-1.64,3,3,0,0,0-1-1.32,2.75,2.75,0,0,0-1.76-.51,2.91,2.91,0,0,0-1.35.31,2.84,2.84,0,0,0-1.07.92,4.37,4.37,0,0,0-.69,1.49,7.25,7.25,0,0,0-.25,2v.5a5.8,5.8,0,0,0,.25,1.69,4.31,4.31,0,0,0,.74,1.39,3.43,3.43,0,0,0,1.18.93,3.57,3.57,0,0,0,1.59.34,3.8,3.8,0,0,0,2-.46,4.87,4.87,0,0,0,1.39-1.26l1.32,1.05a6.69,6.69,0,0,1-1,1.18,5,5,0,0,1-1.55.91A6,6,0,0,1,575.52,115.23Z"/><path class="cls-2" d="M597.1,109.4l.9,0a9.5,9.5,0,0,1-.26,2.33,5.13,5.13,0,0,1-.85,1.86,3.94,3.94,0,0,1-1.53,1.22,5.41,5.41,0,0,1-2.31.44,5.14,5.14,0,0,1-1.7-.27,3.16,3.16,0,0,1-1.31-.83,3.55,3.55,0,0,1-.85-1.46,6.93,6.93,0,0,1-.3-2.17v-8.18h2.16v8.2a4.41,4.41,0,0,0,.2,1.42,2.08,2.08,0,0,0,.53.87,1.84,1.84,0,0,0,.75.46,3,3,0,0,0,.86.12,3.9,3.9,0,0,0,2.19-.53,2.89,2.89,0,0,0,1.16-1.44A5.46,5.46,0,0,0,597.1,109.4Zm-.41,2.67v-9.75h2.18V115H596.8Z"/><path class="cls-2" d="M604.33,105v10h-2.17V102.32h2.05Zm-.51,3.15-.91,0a7.69,7.69,0,0,1,.39-2.4,5.91,5.91,0,0,1,1.06-1.93,4.65,4.65,0,0,1,1.62-1.27,4.78,4.78,0,0,1,2.09-.45,5.22,5.22,0,0,1,1.69.25,3.1,3.1,0,0,1,1.28.8,3.59,3.59,0,0,1,.82,1.42,7.33,7.33,0,0,1,.28,2.13V115H610v-8.33a3.59,3.59,0,0,0-.3-1.6,1.82,1.82,0,0,0-.85-.88,3.2,3.2,0,0,0-1.38-.28,3.25,3.25,0,0,0-1.47.34,3.35,3.35,0,0,0-1.14.94,4.52,4.52,0,0,0-.74,1.37A4.83,4.83,0,0,0,603.82,108.18Z"/><path class="cls-2" d="M629.54,109.4l.9,0a10,10,0,0,1-.26,2.33,5.13,5.13,0,0,1-.85,1.86,3.9,3.9,0,0,1-1.54,1.22,5.35,5.35,0,0,1-2.31.44,5.08,5.08,0,0,1-1.69-.27,3.26,3.26,0,0,1-1.32-.83,3.78,3.78,0,0,1-.85-1.46,6.93,6.93,0,0,1-.3-2.17v-8.18h2.17v8.2a4.41,4.41,0,0,0,.2,1.42,2.06,2.06,0,0,0,.52.87,2,2,0,0,0,.75.46,3.13,3.13,0,0,0,.86.12,3.92,3.92,0,0,0,2.2-.53,3,3,0,0,0,1.16-1.44A5.46,5.46,0,0,0,629.54,109.4Zm-.41,2.67v-9.75h2.18V115h-2.08Z"/><path class="cls-2" d="M642,111.64a1.87,1.87,0,0,0-.2-.88A1.85,1.85,0,0,0,641,110a6.77,6.77,0,0,0-1.88-.58,15.28,15.28,0,0,1-1.91-.53,6.07,6.07,0,0,1-1.44-.74,3.14,3.14,0,0,1-.91-1,2.86,2.86,0,0,1-.31-1.37,3.18,3.18,0,0,1,.33-1.42,3.67,3.67,0,0,1,.95-1.18,4.31,4.31,0,0,1,1.48-.81,6.64,6.64,0,0,1,4.54.24,4,4,0,0,1,1.65,1.44,3.64,3.64,0,0,1,.57,2h-2.16a1.92,1.92,0,0,0-.32-1,2.25,2.25,0,0,0-.9-.82,2.89,2.89,0,0,0-1.44-.33,3.34,3.34,0,0,0-1.46.27,2,2,0,0,0-.81.7,1.69,1.69,0,0,0-.25.89,1.61,1.61,0,0,0,.12.63,1.28,1.28,0,0,0,.44.5,3.52,3.52,0,0,0,.89.43c.38.13.87.26,1.46.4a11.55,11.55,0,0,1,2.57.84,3.8,3.8,0,0,1,1.5,1.21,2.94,2.94,0,0,1,.49,1.73,3.37,3.37,0,0,1-.34,1.53,3.54,3.54,0,0,1-1,1.19,4.79,4.79,0,0,1-1.55.77,6.89,6.89,0,0,1-2,.27,6.1,6.1,0,0,1-2.83-.59,4.4,4.4,0,0,1-1.76-1.55,3.68,3.68,0,0,1-.6-2h2.18a2.23,2.23,0,0,0,.52,1.41,2.55,2.55,0,0,0,1.15.74,4.51,4.51,0,0,0,1.34.21,4.08,4.08,0,0,0,1.5-.23,2.07,2.07,0,0,0,.92-.65A1.47,1.47,0,0,0,642,111.64Z"/><path class="cls-2" d="M655.16,109.4l.9,0a9.49,9.49,0,0,1-.27,2.33,5,5,0,0,1-.84,1.86,4,4,0,0,1-1.54,1.22,5.35,5.35,0,0,1-2.31.44,5,5,0,0,1-1.69-.27,3.26,3.26,0,0,1-1.32-.83,3.66,3.66,0,0,1-.85-1.46,6.93,6.93,0,0,1-.3-2.17v-8.18h2.17v8.2a4.43,4.43,0,0,0,.19,1.42,2.18,2.18,0,0,0,.53.87,1.84,1.84,0,0,0,.75.46,3.08,3.08,0,0,0,.86.12,3.9,3.9,0,0,0,2.19-.53,3,3,0,0,0,1.17-1.44A5.46,5.46,0,0,0,655.16,109.4Zm-.41,2.67v-9.75h2.18V115h-2.08Z"/><path class="cls-2" d="M668.07,107.31l0,1.53H665.9a8.26,8.26,0,0,0-1.65.14,4.14,4.14,0,0,0-1.22.44,2.1,2.1,0,0,0-.75.73,2,2,0,0,0-.26,1,2.23,2.23,0,0,0,.27,1.09,1.88,1.88,0,0,0,.82.78,2.86,2.86,0,0,0,1.34.29,3.5,3.5,0,0,0,1.76-.43,3.72,3.72,0,0,0,1.21-1,2.29,2.29,0,0,0,.49-1.18l.92,1a3.08,3.08,0,0,1-.44,1.09,5.35,5.35,0,0,1-1,1.14,5.07,5.07,0,0,1-1.43.91,4.6,4.6,0,0,1-1.86.35,4.73,4.73,0,0,1-2.25-.5,3.79,3.79,0,0,1-1.5-1.35,3.49,3.49,0,0,1-.54-1.91,4,4,0,0,1,.4-1.8,3.58,3.58,0,0,1,1.15-1.3,5.67,5.67,0,0,1,1.81-.79,9.43,9.43,0,0,1,2.35-.27Zm-.37,5.52V106.3a2.68,2.68,0,0,0-.3-1.3,2,2,0,0,0-.9-.86,3.15,3.15,0,0,0-1.48-.31,3.54,3.54,0,0,0-1.43.28,2.52,2.52,0,0,0-1,.74,1.62,1.62,0,0,0-.35,1h-2.17a2.89,2.89,0,0,1,.35-1.35,4,4,0,0,1,1-1.21,4.87,4.87,0,0,1,1.59-.87,6.22,6.22,0,0,1,2.08-.32,6.08,6.08,0,0,1,2.45.46,3.77,3.77,0,0,1,1.66,1.42,4.31,4.31,0,0,1,.6,2.36v5.9a9.2,9.2,0,0,0,.11,1.35,5.18,5.18,0,0,0,.34,1.23V115h-2.26a3.87,3.87,0,0,1-.26-1A8.31,8.31,0,0,1,667.7,112.83Z"/><path class="cls-2" d="M675.44,104.31V115h-2.17V102.32h2.11Zm4-2.06v2a3.35,3.35,0,0,0-.51-.08l-.54,0a3.43,3.43,0,0,0-1.33.24,2.63,2.63,0,0,0-1,.65,3,3,0,0,0-.63,1,5.1,5.1,0,0,0-.3,1.28l-.61.35a9.87,9.87,0,0,1,.23-2.16,5.83,5.83,0,0,1,.71-1.79,3.47,3.47,0,0,1,1.23-1.21,3.32,3.32,0,0,1,1.77-.44,2.71,2.71,0,0,1,.54,0A1.52,1.52,0,0,1,679.4,102.25Z"/><path class="cls-2" d="M681.42,99a1.31,1.31,0,0,1,.32-.89,1.42,1.42,0,0,1,1.91,0A1.27,1.27,0,0,1,684,99a1.33,1.33,0,0,1-2.24.86A1.27,1.27,0,0,1,681.42,99Zm2.34,3.36V115h-2.18V102.32Z"/><path class="cls-2" d="M686.67,108.8v-.27a7.83,7.83,0,0,1,.4-2.55,6,6,0,0,1,1.14-2,5.34,5.34,0,0,1,1.82-1.36,5.76,5.76,0,0,1,2.39-.48,5.83,5.83,0,0,1,2.41.48,5.48,5.48,0,0,1,1.83,1.36,6.05,6.05,0,0,1,1.15,2,7.83,7.83,0,0,1,.4,2.55v.27a7.73,7.73,0,0,1-.4,2.54,6.05,6.05,0,0,1-1.15,2,5.44,5.44,0,0,1-1.82,1.36,5.73,5.73,0,0,1-2.39.48,5.79,5.79,0,0,1-2.41-.48,5.34,5.34,0,0,1-1.82-1.36,6.05,6.05,0,0,1-1.15-2A7.73,7.73,0,0,1,686.67,108.8Zm2.17-.27v.27a6.91,6.91,0,0,0,.22,1.79,4.66,4.66,0,0,0,.67,1.48,3.21,3.21,0,0,0,1.13,1,3.25,3.25,0,0,0,1.59.37,3.14,3.14,0,0,0,2.68-1.38,4.66,4.66,0,0,0,.67-1.48,6.51,6.51,0,0,0,.23-1.79v-.27a6.36,6.36,0,0,0-.23-1.77,4.73,4.73,0,0,0-.68-1.49,3.24,3.24,0,0,0-1.12-1,3.21,3.21,0,0,0-1.58-.37,3.16,3.16,0,0,0-1.56.37,3.27,3.27,0,0,0-1.13,1,4.71,4.71,0,0,0-.67,1.49A6.76,6.76,0,0,0,688.84,108.53Z"/></g></svg>