<svg xmlns="http://www.w3.org/2000/svg" xmlns:xlink="http://www.w3.org/1999/xlink" viewBox="0 0 1280 1280"><defs><style>.cls-1{fill:none;}.cls-2{fill:#ffed00;}.cls-3{clip-path:url(#clip-path);}.cls-4{fill:#f4f4f4;}.cls-5{fill:#2e2e36;}.cls-6,.cls-9{fill:#fff;}.cls-6,.cls-7{fill-rule:evenodd;}.cls-7,.cls-8{fill:#db0812;}</style><clipPath id="clip-path"><rect class="cls-1" x="-1480" width="1280" height="1280"/></clipPath></defs><g id="posicionamiento"><rect class="cls-2" width="1280" height="1280"/><g class="cls-3"><path class="cls-4" d="M405.81,1296.07c-419.39-22.63-839.48,69.64-1204.42,279.39-4.91,2.84-10.22,1.15-11.89-3.8L-1252.58,260.23c-1.66-4.94.66-12.13,5.21-16C-927.26-27.7-537.06-208.57-119.6-262.57c5.62-.71,11.77,3.45,13.73,9.26Q-43.44-68.07,19,117.15l394.08,1169C415.05,1292,411.79,1296.41,405.81,1296.07Z"/></g><path class="cls-5" d="M537.13,1287.28a362.91,362.91,0,0,0-57.51-154.75c-3.64-5.47-7.78-11.12-13.89-13.52-4.4-1.71-9.29-1.51-14-1.17-49.48,3.57-98.2,19.87-147.64,15.8-13-1.08-26.61-3.87-36.56-12.36-12-10.26-16.47-26.86-17.89-42.6s-.46-31.82-4.49-47.1A74.8,74.8,0,0,0,220,992.79c-2.81-2.26-5.85-4.39-7.85-7.39-7.49-11.26,1.34-22.9,4.34-24.9-9.29-4.48-15.59-6.49-21.38-15s-8.21-19.78-4.57-29.43c3.54-9.38,12.37-16.78,13.07-26.77.89-12.47-11.45-22-23.48-25.42s-25.13-3.32-36.29-9c-16.65-8.4-25.28-29.95-19-47.51,2.57-7.23,7.2-13.5,11.65-19.74a619.26,619.26,0,0,0,72.23-133.22l-.18.07c-32.92-114.07-8.6-231.28,59.78-328.33,65.13-92.42,169.8-154.29,281.13-174s228.3,1.46,329.27,52.33c87,43.81,165,112.38,201.65,202.59,18.1,44.54,25.6,92.89,26.31,141a525,525,0,0,1-70.4,269.62c-44.08,76-110.06,106.2-116.74,193.8-9,118,60.83,231.65,120,276"/><path class="cls-6" d="M596.21,300.64a32,32,0,0,1,17.15-4.87,32.7,32.7,0,0,1,32.69,32.7,32.26,32.26,0,0,1-4.63,16.79l.15.11C667.23,380.22,682,423.35,682,470,682,586,587.9,680.14,471.81,680.14S261.63,586,261.63,470s94.1-210.18,210.18-210.18a209.59,209.59,0,0,1,124.4,40.87"/><path class="cls-7" d="M624.53,359a34.56,34.56,0,0,1-11.42,2.08,32.49,32.49,0,0,1-30.38-43.93,188.11,188.11,0,0,0-111-36.07c-104.29,0-188.84,84.55-188.84,188.86s84.55,188.84,188.84,188.84,188.86-84.55,188.86-188.84a188.35,188.35,0,0,0-36-110.94"/><path class="cls-8" d="M595.5,328.18A17.87,17.87,0,1,1,613.35,346a17.85,17.85,0,0,1-17.85-17.84"/><path class="cls-6" d="M369,575.83a11.6,11.6,0,0,1,3.93-2.61,12.26,12.26,0,0,1,4.52-.9,11.81,11.81,0,0,1,4.47.9,11.51,11.51,0,0,1,4,2.61l1.65,1.65-3.3,3.34-1.7-1.64a6.84,6.84,0,0,0-2.39-1.6,7.19,7.19,0,0,0-5.42,0,6.84,6.84,0,0,0-2.39,1.6,6.75,6.75,0,0,0-1.6,2.33,7.32,7.32,0,0,0,0,5.42,7.28,7.28,0,0,0,1.6,2.39,7,7,0,0,0,5.1,2.12,7.4,7.4,0,0,0,2.76-.52,6.56,6.56,0,0,0,2.34-1.6l1.7-1.65,3.3,3.36-1.65,1.65a12.07,12.07,0,0,1-4,2.65,12.36,12.36,0,0,1-4.47.85,12.83,12.83,0,0,1-4.52-.85,12.18,12.18,0,0,1-3.93-2.65,11.55,11.55,0,0,1-2.6-3.94,12.11,12.11,0,0,1-.85-4.47,12.29,12.29,0,0,1,.85-4.52,11.48,11.48,0,0,1,2.6-3.92"/><path class="cls-6" d="M409.82,587.78l3.35,3.35-1.64,1.65a12.14,12.14,0,0,1-3.88,2.6,12.08,12.08,0,0,1-9.15,0,12,12,0,0,1-3.87-2.6,11.37,11.37,0,0,1-2.6-3.93,12.57,12.57,0,0,1-.85-4.52,12.1,12.1,0,0,1,.85-4.46,11.86,11.86,0,0,1,6.53-6.54,12,12,0,0,1,4.52-.89,11.53,11.53,0,0,1,4.46.89,11.27,11.27,0,0,1,4,2.61l1.64,1.64-13.23,13.23a7.11,7.11,0,0,0,4.25.69,7.19,7.19,0,0,0,4-2.07ZM398,579.23a6.94,6.94,0,0,0-2.13,5.1,6.84,6.84,0,0,0,.75,3.13l1.9-1.9,2.76-2.77,2.82-2.82c.93-.88,1.63-1.57,2.13-2.07a7.14,7.14,0,0,0-4.3-.7,6.82,6.82,0,0,0-3.93,2"/><path class="cls-6" d="M417.44,584.27a11.7,11.7,0,0,1,.9-4.61,12.22,12.22,0,0,1,2.55-3.78,12,12,0,0,1,3.83-2.55,11.35,11.35,0,0,1,4.62-1,11,11,0,0,1,4.62,1,11.59,11.59,0,0,1,3.82,2.55,11,11,0,0,1,2.57,3.78,11.22,11.22,0,0,1,.95,4.61v12h-4.73v-12a6.69,6.69,0,0,0-.58-2.76,6.42,6.42,0,0,0-1.55-2.28,6.26,6.26,0,0,0-2.29-1.54,7,7,0,0,0-2.81-.58,7.24,7.24,0,0,0-5.1,2.12,7.45,7.45,0,0,0-1.54,2.28,7,7,0,0,0-.53,2.76v12h-4.73Z"/><path class="cls-6" d="M449.08,575.83a11.6,11.6,0,0,1,3.93-2.61,12.13,12.13,0,0,1,4.51-.9,11.85,11.85,0,0,1,4.47.9,11.64,11.64,0,0,1,4,2.61l1.64,1.65-3.29,3.34-1.7-1.64a6.93,6.93,0,0,0-2.39-1.6,7.23,7.23,0,0,0-2.72-.53,7.15,7.15,0,0,0-2.71.53,6.8,6.8,0,0,0-2.38,1.6,6.48,6.48,0,0,0-1.6,2.33,7.19,7.19,0,0,0,0,5.42,7.29,7.29,0,0,0,6.69,4.51,7.49,7.49,0,0,0,2.77-.52,6.74,6.74,0,0,0,2.34-1.6l1.7-1.65,3.29,3.36L466,592.68a12.21,12.21,0,0,1-4,2.65,12.4,12.4,0,0,1-4.47.85,12.69,12.69,0,0,1-4.51-.85,12.18,12.18,0,0,1-3.93-2.65,11.58,11.58,0,0,1-2.61-3.94,12.1,12.1,0,0,1-.84-4.47,12.28,12.28,0,0,1,.84-4.52,11.51,11.51,0,0,1,2.61-3.92"/><path class="cls-6" d="M471.23,584.33a11.86,11.86,0,0,1,.9-4.62,12.26,12.26,0,0,1,2.56-3.77,11.76,11.76,0,0,1,3.83-2.56,11.71,11.71,0,0,1,9.24,0,11.82,11.82,0,0,1,3.82,2.56,10.71,10.71,0,0,1,2.55,3.77,10.89,10.89,0,0,1,.95,4.62,11.18,11.18,0,0,1-.95,4.62,11.53,11.53,0,0,1-2.55,3.83,12.62,12.62,0,0,1-3.82,2.6,12.31,12.31,0,0,1-9.24,0,12.54,12.54,0,0,1-3.83-2.6,13.31,13.31,0,0,1-2.56-3.83,12.19,12.19,0,0,1-.9-4.62m4.68,0a7.44,7.44,0,0,0,.53,2.82,8.29,8.29,0,0,0,1.54,2.33,8,8,0,0,0,2.34,1.54,7.2,7.2,0,0,0,7.91-1.54,6.89,6.89,0,0,0,1.55-2.33,7.12,7.12,0,0,0,.58-2.82,6.69,6.69,0,0,0-.58-2.76,7.27,7.27,0,0,0-3.83-3.83,7.38,7.38,0,0,0-8,1.54,7.56,7.56,0,0,0-1.54,2.29,7,7,0,0,0-.53,2.76"/><path class="cls-6" d="M519.9,572.32v4.73H505.5a2.37,2.37,0,0,0-2.39,2.39,2.45,2.45,0,0,0,.7,1.75,2.31,2.31,0,0,0,1.69.69h9.57a7.57,7.57,0,0,1,5,2.08,6.18,6.18,0,0,1,1.54,2.28,6.42,6.42,0,0,1,.59,2.76,6.73,6.73,0,0,1-.59,2.82,6.62,6.62,0,0,1-1.54,2.28,6.88,6.88,0,0,1-5,2.08H500.73v-4.73h14.34a2.35,2.35,0,0,0,1.75-.69,2.4,2.4,0,0,0,.69-1.76,2.32,2.32,0,0,0-.69-1.7,2.35,2.35,0,0,0-1.75-.69H505.5a7.35,7.35,0,0,1-2.81-.53,7.65,7.65,0,0,1-2.23-1.54,8.25,8.25,0,0,1-1.54-2.28,7.64,7.64,0,0,1-.53-2.82,7.18,7.18,0,0,1,.53-2.76,7.38,7.38,0,0,1,1.54-2.29,7,7,0,0,1,2.23-1.49,6.86,6.86,0,0,1,2.81-.58Z"/><path class="cls-6" d="M550.31,572.32v11.9a11.39,11.39,0,0,1-.95,4.63,11.76,11.76,0,0,1-2.56,3.83,12.35,12.35,0,0,1-3.82,2.59,11.54,11.54,0,0,1-4.62.91,11.87,11.87,0,0,1-4.63-.91,12.54,12.54,0,0,1-3.81-2.59,13.38,13.38,0,0,1-2.56-3.83,12,12,0,0,1-.9-4.63v-11.9h4.73v11.9a7.4,7.4,0,0,0,.53,2.82,8.13,8.13,0,0,0,1.54,2.34,8.37,8.37,0,0,0,2.28,1.53,7.63,7.63,0,0,0,5.64,0,7.31,7.31,0,0,0,2.28-1.53A6.76,6.76,0,0,0,545,587a6.92,6.92,0,0,0,.59-2.82v-11.9Z"/><path class="cls-6" d="M577.37,562.76v21.45a11.58,11.58,0,0,1-1,4.64,11.68,11.68,0,0,1-10.95,7.33,11.79,11.79,0,0,1-4.62-.91,12.63,12.63,0,0,1-3.83-2.59,12.91,12.91,0,0,1-2.6-3.83,11.89,11.89,0,0,1-.91-4.64,11.53,11.53,0,0,1,.91-4.61,11.81,11.81,0,0,1,2.6-3.77,11.68,11.68,0,0,1,3.83-2.55,11.31,11.31,0,0,1,4.62-1h7.18v-9.56Zm-11.91,28.69a6.88,6.88,0,0,0,5-2.08,6.66,6.66,0,0,0,1.55-2.33,7.06,7.06,0,0,0,.59-2.83v-7.16h-7.18a7.53,7.53,0,0,0-5.16,2.13,7.62,7.62,0,0,0-1.54,2.29,7.23,7.23,0,0,0-.53,2.74,7.78,7.78,0,0,0,.53,2.83,8.36,8.36,0,0,0,1.54,2.33,8.07,8.07,0,0,0,2.35,1.55,7.55,7.55,0,0,0,2.81.53"/><polygon class="cls-2" points="643.63 424.03 602.2 532.68 578.38 532.61 594 497.18 565.86 424.09 589.62 424.09 604.97 471.24 605.82 471.22 620.02 424.03 643.63 424.03"/><path class="cls-2" d="M562.2,479c0,17.37-19,23.87-37,23.88s-36.5-6.88-36.51-24h23.54c0,5.36,7.41,7.37,13,7.37s12.61-1.46,12.61-6.64c0-6.51-8.85-7.45-22.76-11.06-14.44-3.79-24.72-10.11-24.74-23.71,0-17.27,16.84-23.19,34.84-23.22,17.8,0,34.06,5.9,34.08,23.17l-23.25.07c0-4.8-5.91-6.66-10.83-6.65s-10.79,1.2-10.79,5.95c0,6.52,9.94,7.35,21.14,10.09,14.32,3.48,26.61,9.3,26.63,24.74"/><path class="cls-2" d="M475.51,500l-22.07.15.06-8.72h-.86c-3.67,7.41-11,11.48-22.45,11.51-19.36,0-36.14-15.85-36.15-40.88,0-25.35,15.28-40.45,34.73-40.47,10.79,0,19.71,4.44,23.69,11.08l.85,0,0-8.56h22.16Zm-22.37-38c0-10.18-5.65-19.69-18.78-19.67S417,453,417,462.1c0,9.61,5.15,20,18.43,20,13.61-.05,17.74-11,17.74-20.12"/><path class="cls-2" d="M381.69,461.51c0,3-.41,7.76-.41,7.76l-54.79,0c.54,8.87,7.19,15.2,16.53,15.16,6.78,0,11.16-2.51,13.3-7.21l23.77,0c-2.16,11.29-11.93,25.56-36.66,25.58-23.75.05-40.29-18.69-40.31-41.32,0-22.9,15-39.91,38.65-39.95s39.91,17.17,39.92,39.91m-23.6-7.59c-.31-4.42-3.17-13.92-16-13.92-11.46,0-15.2,9.49-15.67,13.92Z"/><path class="cls-2" d="M536.64,533.44c-60.43-8.14-121.16-8.62-215.28-1.9l1-4.33c94.06-8.3,168.2-12.66,208.85-11.41,24,.74,31.27,2.48,31.27,11,0,9.07-10.66,8.72-25.87,6.66"/><path class="cls-9" d="M1041.63,437.54a12,12,0,0,0-2.09.19,1.59,1.59,0,0,0-.18-.27l-30.26-30.4a2,2,0,0,0-.24-.16l3.28-3.32a19.19,19.19,0,0,0,0-26.86,18.59,18.59,0,0,0-26.52,0l-9.08,9.21c-.27.26-.51.53-.75.8a31.11,31.11,0,0,0-15.23-4,30.34,30.34,0,0,0-21.67,9.14l-1.34,1.37,17.81,18a16.38,16.38,0,0,0,.38,22.57,15.88,15.88,0,0,0,22.28.39l17.82,18,1.36-1.37a31.38,31.38,0,0,0,7.7-30.92l25.23,25.55a12.5,12.5,0,0,0-.15,8.6L982.78,502a1.8,1.8,0,0,0-.49,1H969.4v-8.51a1.92,1.92,0,1,0-3.83,0v8.51h-4.68A17,17,0,0,0,944,520.06V522h89v-1.94A17,17,0,0,0,1016,502.93H999.2l40.11-40.62a11.85,11.85,0,0,0,2.32.23,12.5,12.5,0,0,0,0-25Zm-66.41-46.65,1.51.95,1-1.45a15.59,15.59,0,0,1,1.47-1.72l9.08-9.2a14.78,14.78,0,0,1,21.1,0,15.25,15.25,0,0,1,0,21.36l-9.08,9.21a15.91,15.91,0,0,1-1.71,1.48l-1.43,1.07.94,1.53a27.84,27.84,0,0,1,2.32,24.81l-49.77-50.4a26.32,26.32,0,0,1,9.86-1.93A27.48,27.48,0,0,1,975.22,390.89Zm-8.12,43.84a12.06,12.06,0,0,1-8.65-3.63,12.48,12.48,0,0,1-.38-17.09l17.25,17.48A12.08,12.08,0,0,1,967.1,434.73Zm28.7,12L943,393.28a27,27,0,0,1,4-2.94l51.65,52.31A27.21,27.21,0,0,1,995.8,446.74Zm7.33-34,3.11-3.14a1.84,1.84,0,0,0,.17.25l29.19,29.34a12.19,12.19,0,0,0-3.47,2.92ZM1029,518.13H948a13.17,13.17,0,0,1,12.94-11.32H1016A13.17,13.17,0,0,1,1029,518.13Zm-35.13-15.24s0,0,0,0h-6.59l44.68-45.24a12.57,12.57,0,0,0,3.5,3.12Zm47.8-44.23a8.47,8.47,0,0,1-7.37-4.33,1.92,1.92,0,0,0-.54-1.24l-.06,0a8.83,8.83,0,0,1-.54-3,8.51,8.51,0,1,1,8.51,8.62Z"/><path class="cls-9" d="M945.83,635.82H910.32v-34.2A17.6,17.6,0,0,0,926,584.13c0-8.54-7.1-34.25-17.59-34.25s-17.59,25.71-17.59,34.25A17.6,17.6,0,0,0,907,601.65V626l-8.49-3.64a11.69,11.69,0,0,0-6.39-14.48A41.93,41.93,0,0,0,879,605.35c-4.55-.19-10.34.36-12,4-2.84,6.38,10.5,17.27,15.76,19.61a12.06,12.06,0,0,0,4.88,1,11.88,11.88,0,0,0,4.07-.72,11.32,11.32,0,0,0,5.25-3.94l10,4.29v6.22H872v20.74h7.37L884.06,700h49.69l4.72-43.44h7.36Zm-55.21-9.66a8.64,8.64,0,0,1-6.49-.24c-5.62-2.49-15.55-12-14.09-15.26.45-1,2.65-2.06,7.42-2.06l1.4,0a38.41,38.41,0,0,1,11.95,2.29,8.39,8.39,0,0,1,4.71,10.17l-5.3-2.27-1.3,3,4.91,2.1A8.22,8.22,0,0,1,890.62,626.16Zm3.52-42c0-9.49,7.34-31,14.31-31s14.31,21.48,14.31,31a14.33,14.33,0,0,1-12.44,14.17V584.93H907v13.43A14.32,14.32,0,0,1,894.14,584.13ZM930.8,696.71H887l-4.29-39.54h3.45v12.26a1.65,1.65,0,0,0,3.29,0V657.17H893v12.26a1.64,1.64,0,0,0,3.28,0V657.17h4v12.26a1.65,1.65,0,0,0,3.29,0V657.17h3.61v12.26a1.65,1.65,0,0,0,3.29,0V657.17h4v12.26a1.65,1.65,0,0,0,3.29,0V657.17h3.76v12.07a1.65,1.65,0,0,0,3.29,0V657.17h3.61s0,.08,0,.13v12.3a1.65,1.65,0,1,0,3.29,0V657.3a.5.5,0,0,0,0-.13h3.54Zm11.74-43.43H875.26V639.11h67.28Z"/><path class="cls-9" d="M792.9,267.27c-2.63-16.12-24.16-55.64-45.29-60.85l-.85-2.06a15,15,0,0,0-19.5-8.21L676.77,217a5,5,0,0,0-2.68,6.52l-9.18,3.79a5,5,0,0,0-2.68,6.52l3.82,9.27L661.46,245a2.5,2.5,0,0,0-1.35-1.36,2.46,2.46,0,0,0-3.24,1.34l-1,2.31-3.64,1.5a2.48,2.48,0,0,0-4.59,0l-.94,2.3-5.94,2.45a2.5,2.5,0,0,0,1.91,4.63l2.29-.94a2.53,2.53,0,0,0,1.35,1.36,2.44,2.44,0,0,0,1.91,0,2.46,2.46,0,0,0,1.34-1.35l.94-2.31,3.64-1.5a2.56,2.56,0,0,0,1.35,1.36,2.44,2.44,0,0,0,3.24-1.34l1-2.3,8.23-3.4,3.82,9.27a5,5,0,0,0,6.51,2.75l9.18-3.79a9.77,9.77,0,0,0,13,5.48L728,250.06l1.92,4.64a5,5,0,0,0,6.5,2.73l1.91,4.64a5,5,0,0,0,6.51,2.75l4.59-1.89c3.3,8,6.91,12.79,9.78,15.63-2.27,3.36-2.93,6.08-1.1,8.64.6.84,2.9,3.46,7.35,1.65l13.79-5.69c3.18,7.7,2,20.89-10.71,26.11-13,5.35-23.89.87-35.45-3.89s-23.6-9.72-37.6-3.95C669.82,312,675.57,344,675.64,344.32a2.48,2.48,0,1,0,4.87-.92c0-.27-5.09-28.28,16.89-37.34,12.11-5,22.67-.64,33.84,3.95,12,4.92,24.36,10,39.21,3.9,14.37-5.92,18.09-21.26,13.39-32.65l4.6-1.89C791.19,278.24,794.2,275.22,792.9,267.27ZM676.38,255.08l-9.56-23.17,9.18-3.79,1.91,4.63-2.3.95a2.51,2.51,0,0,0,1.92,4.64l2.3-1,1.91,4.63-2.3.95a2.51,2.51,0,0,0,1.91,4.64l2.3-1,1.91,4.63Zm66.54,5.1-3.82-9.27-4.59,1.89-1.91-4.64,9.18-3.78,5.74,13.91Zm43.6,14.55-22.95,9.47c-4.55,1.85,2.68-6.53,2.68-6.53s-2.65-1.12-6-5.53l7.94-3.35c.72-.3,1-1.38.52-2.4s-1.37-1.61-2.09-1.3l-8.68,3.67c-.7-1.15-1.41-2.43-2.13-3.87l9.39-4c.72-.31,1-1.38.52-2.41s-1.37-1.6-2.08-1.3l-9.49,4a1.67,1.67,0,0,0-.08-.2L752.34,257l9.31-3.92a1.79,1.79,0,0,0,.52-2.41c-.43-1-1.36-1.6-2.08-1.3l-9.28,3.92L749,248.78l9.23-3.9c.73-.3.95-1.38.52-2.4s-1.36-1.61-2.08-1.3l-9.2,3.89-1.07-2.59a5,5,0,0,0-6.5-2.73l-41.31,17c-4.59,1.89-6.5-2.75-6.5-2.75L678.68,221.6l50.49-20.82a10,10,0,0,1,13,5.48l1.91,4.64C766.27,212.6,795.7,271,786.52,274.73Z"/><path class="cls-9" d="M732.61,215.63l-41.31,17a2.5,2.5,0,0,0,1.91,4.63l41.31-17a2.5,2.5,0,0,0-1.91-4.63Z"/><path class="cls-9" d="M821.64,493.44h-4.52v-6.26a2.43,2.43,0,0,0-2.43-2.43h-4.1v-3.66a2.43,2.43,0,0,0-2.43-2.42H721.23a2.43,2.43,0,0,0-2.43,2.42v3.66h-3.65a2.43,2.43,0,0,0-2.43,2.43v6.27h-2.36a2.43,2.43,0,1,0,0,4.85h2.36v6.26a2.42,2.42,0,0,0,2.43,2.43h3.65v3.66a2.43,2.43,0,0,0,2.43,2.42h86.93a2.42,2.42,0,0,0,2.43-2.42V507h4.1a2.43,2.43,0,0,0,2.43-2.43v-6.27h2.09v32.17H764.7a2.43,2.43,0,0,0-2.43,2.43V540h-6a2.44,2.44,0,0,0-2.43,2.43v41.12a2.43,2.43,0,0,0,2.43,2.43H773.1a2.43,2.43,0,0,0,2.43-2.43V542.45A2.44,2.44,0,0,0,773.1,540h-6v-4.71h54.52a2.43,2.43,0,0,0,2.43-2.42v-37A2.45,2.45,0,0,0,821.64,493.44Zm-102.84,8.7h-1.23V489.6h1.23Zm4.86,6.09V483.51h82.08v24.72Zm88.59-6.09h-1.66V489.6h1.66Zm-53.53,79v-2.32h11.95v2.32ZM770.67,574H758.72V544.88h11.95Z"/><path class="cls-9" d="M798.6,493.45H730.8a2.43,2.43,0,0,0,0,4.85h67.8a2.43,2.43,0,0,0,0-4.85Z"/><path class="cls-9" d="M901.91,336.42l-.45-.17a60.33,60.33,0,0,0-6.88-1.85c-.9-1.34-3.14-4.71-8.67-12.8-9.13-13.31-25.13-13.48-25.73-13.48h-29c-.75,0-16.61.17-25.73,13.48-5.53,8.09-7.77,11.46-8.67,12.8a59.78,59.78,0,0,0-6.88,1.85l-.45.17c-3.74,1.35-7.33,3.88-5.83,16.68l.15,2.86c1.5,13.81,3.88,34.71,8.82,42.12,4.64,6.9,8.23,8.59,13.76,8.92h.87l-1.35,33.55h4L813.21,407l1.81,0H820l1.87,0h2.73l1.68,0h1.33l-1.33,22.53h3.9L833.48,407h30.89l.94,0h.88l3,22.55h3.54L871.55,407h4.19l2.45,0h2.29l3.06,33.56h3.59l-1.24-33.84c4.9-.55,8.26-2.4,12.58-8.79,4.94-7.41,7.33-28.3,8.82-42.11l.3-2.86C909.24,340.13,905.64,337.77,901.91,336.42Zm-93.17-12c7.93-11.45,22.29-11.62,22.44-11.62H860c.15,0,14.51.17,22.44,11.62,4.78,7.07,7.18,10.45,8.22,12.13a9.49,9.49,0,0,0-4.63,6.74,96.83,96.83,0,0,0-.9,10.61c-.15,2-.3,5.06-.6,8.6l-1.2-1.35C879.18,357,870.5,357,870.21,357a31.18,31.18,0,0,1-3.3-.17c-3.73-.17-9.86-.51-14.95-.51H838.8c-5.09,0-11.22.34-14.95.51-1.65,0-2.85.17-3.29.17s-9.13,0-13.16,4.21a4.32,4.32,0,0,1-.9.84c-.3-3.37-.45-6.23-.45-8.26a96.83,96.83,0,0,0-.9-10.61,9.36,9.36,0,0,0-4.63-6.74C801.57,334.91,804,331.53,808.74,324.46Zm4.49,46.67H878a27.68,27.68,0,0,0,6-.51c-.75,5.9-1.79,10.95-3.29,11.29-6.13.85-31.85.51-35.14.51-.3,0-28.56.5-35-.51-1.49-.18-2.53-5.22-3.28-11.29A27.62,27.62,0,0,0,813.23,371.13Zm-4.49-4.89a10.82,10.82,0,0,0,1.34-1.52c2.25-2.18,7.93-3,10.48-3,.44,0,1.79,0,3.59-.17,3.73-.16,9.87-.5,14.8-.5,3,.17,5.53.17,6.28.17H852c4.94,0,11.07.33,14.8.5,1.8,0,3,.17,3.45.17,2.39,0,8.22.68,10.46,3a6,6,0,0,1,1.35,1.51,25.56,25.56,0,0,1-4,.17H813.23A25,25,0,0,1,808.74,366.24Zm94.82-13.81-.3,2.85c-1.35,12.47-3.75,33.53-8.08,39.76-4.33,6.57-6.88,7.08-13.31,7.08H881a3.71,3.71,0,0,0,0-.47v-8.6c0-1.43-.88-2.59-2-2.59s-1.95,1.16-1.95,2.59v8.6a3.71,3.71,0,0,0,0,.47h-4.75a3.71,3.71,0,0,0,0-.47v-8.6c0-1.43-.88-2.59-1.95-2.59s-2,1.16-2,2.59v8.6a3.73,3.73,0,0,0,0,.47h-4.37a3.73,3.73,0,0,0,0-.47v-8.6c0-1.43-.88-2.59-2-2.59s-2,1.16-2,2.59v8.6a3.73,3.73,0,0,0,0,.47h-4.76a2.49,2.49,0,0,0,0-.47v-8.6c0-1.43-.88-2.59-2-2.59s-1.95,1.16-1.95,2.59v8.6a3.71,3.71,0,0,0,0,.47h-4.13a3.71,3.71,0,0,0,0-.47v-8.6c0-1.43-.87-2.59-1.95-2.59s-2,1.16-2,2.59v8.6a3.71,3.71,0,0,0,0,.47H839a3.73,3.73,0,0,0,0-.47v-8.6c0-1.43-.88-2.59-2-2.59s-1.94,1.16-1.94,2.59v8.6a3.71,3.71,0,0,0,0,.47h-4.36a3.71,3.71,0,0,0,0-.47v-8.6c0-1.43-.88-2.59-2-2.59s-1.95,1.16-1.95,2.59v8.6a3.71,3.71,0,0,0,0,.47h-4.75a3.71,3.71,0,0,0,0-.47v-8.6c0-1.43-.87-2.59-1.95-2.59s-2,1.16-2,2.59v8.6a3.71,3.71,0,0,0,0,.47h-4.28a3.71,3.71,0,0,0,0-.47v-8.6c0-1.43-.87-2.59-1.95-2.59s-2,1.16-2,2.59v8.6a3.73,3.73,0,0,0,0,.47h-1c-6.43,0-9-.51-13.31-7.08-4.33-6.23-6.73-27.29-8.08-39.76l-.3-2.85c-1.19-9.94.9-10.78,3-11.46l.6-.16a14.06,14.06,0,0,1,2.84-.85c.89,0,6.13-.17,6.88,4.38a90.16,90.16,0,0,1,.75,9.94c1,18.54,2.24,31.67,8.36,32.51,3.3.51,11.52.68,19.3.68,7.18,0,14-.17,15.85-.17.6,0,7.93.17,15.85.17,8.08,0,16.75-.17,20-.68,6.13-.84,7.33-14,8.38-32.51.29-4.38.44-8.26.74-9.94.9-4.55,6.14-4.38,6.88-4.38,1,.34,1.94.51,2.84.85l.6.16C902.66,341.65,904.75,342.49,903.56,352.43Z"/></g></svg>