<svg xmlns="http://www.w3.org/2000/svg" viewBox="0 0 1280 1280"><defs><style>.cls-1{fill:#b8e4ff;}.cls-2{fill:#e6e6e6;}.cls-3{fill:#db0812;}.cls-4{fill:#ffed00;}.cls-5{fill:#fff;}.cls-6{fill:#29abe2;}.cls-7{fill:#f2f2f2;}.cls-8{fill:#39b54a;}.cls-9{fill:#2e2e36;}</style></defs><g id="posicionamiento"><rect class="cls-1" width="1280" height="728"/><rect class="cls-2" y="592.05" width="1280" height="687.95"/><polygon class="cls-3" points="953.5 1280 326.5 1280 326.5 267.24 953.5 195.73 953.5 1280"/><polygon class="cls-4" points="869.18 393.96 814.37 537.71 782.84 537.62 803.52 490.75 766.28 394.05 797.72 394.05 818.03 456.42 819.15 456.4 837.95 393.96 869.18 393.96"/><path class="cls-4" d="M761.44,466.74c0,23-25.19,31.57-48.89,31.58s-48.3-9.09-48.32-31.73h31.16c0,7.08,9.8,9.75,17.2,9.74s16.68-1.93,16.68-8.77c0-8.62-11.72-9.87-30.12-14.65-19.1-5-32.7-13.37-32.72-31.35,0-22.87,22.27-30.7,46.08-30.73,23.56,0,45.07,7.8,45.1,30.64l-30.77.1c0-6.35-7.82-8.81-14.33-8.79s-14.27,1.58-14.27,7.87c0,8.63,13.15,9.72,28,13.34,18.95,4.61,35.21,12.32,35.23,32.75"/><path class="cls-4" d="M646.75,494.46l-29.2.19.07-11.53-1.13,0c-4.86,9.8-14.6,15.18-29.71,15.22-25.62.05-47.81-21-47.83-54.08,0-33.54,20.22-53.53,46-53.54,14.27,0,26.07,5.87,31.33,14.66l1.13,0,0-11.32h29.32Zm-29.61-50.24c0-13.47-7.47-26.05-24.84-26s-23,14-23,26.13c0,12.72,6.81,26.5,24.39,26.51,18-.06,23.46-14.51,23.46-26.62"/><path class="cls-4" d="M522.61,443.55c0,4-.54,10.27-.54,10.27l-72.48,0c.7,11.74,9.5,20.11,21.86,20.07,9,0,14.77-3.33,17.6-9.54l31.45.05c-2.86,14.93-15.79,33.82-48.51,33.84-31.42.07-53.3-24.72-53.33-54.67,0-30.3,19.84-52.8,51.14-52.85,31.49,0,52.8,22.71,52.81,52.8m-31.22-10c-.41-5.85-4.2-18.42-21.12-18.42-15.17,0-20.11,12.55-20.73,18.42Z"/><path class="cls-4" d="M727.63,538.72c-80-10.77-160.3-11.4-284.83-2.51l1.36-5.73c124.44-11,222.53-16.75,276.32-15.1,31.72,1,41.37,3.28,41.37,14.53,0,12-14.1,11.53-34.22,8.81"/><path class="cls-5" d="M432.15,559.29h6.23v32.54h-6.23V578.49H420.06v13.34h-6.22V559.29h6.22v13h12.09Z"/><path class="cls-5" d="M443.44,578.21c0-6.65,3.81-11,10.69-11s10.69,4.37,10.69,11v3.06c0,6.65-3.81,11-10.69,11s-10.69-4.37-10.69-11Zm15.24-.79c0-2.84-1.62-4.7-4.55-4.7s-4.56,1.86-4.56,4.7v4.65c0,2.83,1.63,4.69,4.56,4.69s4.55-1.86,4.55-4.69Z"/><path class="cls-5" d="M475.13,592a4.1,4.1,0,0,0,4.42,3.34c2.93,0,4.55-1.86,4.55-4.69v-2.79a7.09,7.09,0,0,1-5.62,2.74c-4.88,0-9.62-3.35-9.62-10.41V577.6c0-7.06,4.74-10.41,9.62-10.41a7.12,7.12,0,0,1,5.62,2.74v-2.09h6.14v22c0,6.64-3.81,11-10.69,11-6.09,0-9.81-3.44-10.55-8.87Zm-.14-12a4.56,4.56,0,1,0,9.11,0v-2.09a4.56,4.56,0,1,0-9.11,0Z"/><path class="cls-5" d="M510.27,576.21a4.64,4.64,0,0,0-8.69-.84h-6.19c1-5,4.56-8.18,10.41-8.18,6.88,0,10.7,4.37,10.7,11v13.62h-6.14v-2.75c-1.11,1.82-3,3.21-6.69,3.21-5.49,0-8.74-2.7-8.74-7.11,0-3.49,1.21-5.58,4.55-7.16,2.37-1.11,7.16-1.49,10.79-1.76Zm-9.21,8.27c0,1.16.89,2.42,3.63,2.42,3.16,0,5.67-1.77,5.67-4.79v-.79c-3.49.23-6.83.51-8,1.12A1.93,1.93,0,0,0,501.06,584.48Z"/><path class="cls-5" d="M527.88,591.83h-6.14v-24h6.14v2.61c.7-1.58,2.74-3,5.58-3h1.86v6h-2.89a4.31,4.31,0,0,0-4.55,4.65Z"/><path class="cls-5" d="M556.23,597.91c-.65,1.86-2.28,2.42-5.3,2.47h-1.35V597h1.77c1.48,0,1.81-.56,2.09-1.39l1.25-3.44-8.78-24.36h3.72l6.88,19.48,6.87-19.48h3.72Z"/><path class="cls-5" d="M603.72,581c-.28,6.83-4.69,11.34-12.27,11.34-7.81,0-12.27-4.83-12.27-12v-9.39c0-7.2,4.46-12,12.27-12,7.58,0,12,4.51,12.27,11.34h-6.27c-.33-3.3-2.84-5.16-6-5.16-3.39,0-6,2.09-6,5.85v9.39c0,3.77,2.65,5.86,6,5.86,3.16,0,5.67-1.81,6-5.16Z"/><path class="cls-5" d="M607.34,578.21c0-6.65,3.82-11,10.69-11s10.69,4.37,10.69,11v3.06c0,6.65-3.81,11-10.69,11s-10.69-4.37-10.69-11Zm15.25-.79c0-2.84-1.63-4.7-4.56-4.7s-4.55,1.86-4.55,4.7v4.65c0,2.83,1.63,4.69,4.55,4.69s4.56-1.86,4.56-4.69Z"/><path class="cls-5" d="M654.93,591.83H648.8v-14a4.56,4.56,0,1,0-9.11,0v14h-6.14v-24h6.14v2.09a7.12,7.12,0,0,1,5.62-2.74c4.88,0,9.62,3.35,9.62,10.41Z"/><path class="cls-5" d="M658.51,584.06h6.13c.28,1.86,2.47,2.7,4.47,2.7,1.2,0,3-.28,3-1.86,0-1-.7-1.53-2.14-1.86l-5-1.11a7.24,7.24,0,0,1-5.9-7.35c0-4.69,4.23-7.39,9.15-7.39s8.88,2.33,9.3,7.76h-6.28a3,3,0,0,0-3.2-2.23c-1.77,0-2.79.7-2.84,1.82s.84,1.53,1.86,1.76l5.39,1.21a7,7,0,0,1,5.81,7.39c0,5.35-4.32,7.39-9.34,7.39S658.74,589.73,658.51,584.06Zm37,2.23v5.54H689.6c-4.27,0-6.13-2.28-6.13-6.14V573.37h-3.4v-5.53h3.4v-5.43h6.13v5.43h5.91v5.53H689.6v11c0,1.11.28,1.9,1.77,1.9Z"/><path class="cls-5" d="M705.59,591.83h-6.14v-24h6.14v2.61c.69-1.58,2.74-3,5.57-3H713v6h-2.88a4.31,4.31,0,0,0-4.55,4.65Z"/><path class="cls-5" d="M731,581.65V567.84h6.13v24H731v-2.61a6.56,6.56,0,0,1-5.81,3.07c-4.46,0-9.16-3.21-9.16-10.41v-14h6.14v13.81a4.42,4.42,0,1,0,8.83,0Z"/><path class="cls-5" d="M763.26,583.09c-.65,5.62-4.37,9.2-10.6,9.2-6.88,0-10.69-4.37-10.69-11v-3.06c0-6.65,3.81-11,10.69-11,6.23,0,10,3.58,10.6,9.2h-6.14a4.15,4.15,0,0,0-4.46-3.67c-2.93,0-4.55,1.86-4.55,4.7v4.65c0,2.83,1.62,4.69,4.55,4.69a4.09,4.09,0,0,0,4.46-3.67Z"/><path class="cls-5" d="M788.26,583.09c-.65,5.62-4.37,9.2-10.6,9.2-6.87,0-10.69-4.37-10.69-11v-3.06c0-6.65,3.82-11,10.69-11,6.23,0,10,3.58,10.6,9.2h-6.13a4.17,4.17,0,0,0-4.47-3.67c-2.92,0-4.55,1.86-4.55,4.7v4.65c0,2.83,1.63,4.69,4.55,4.69a4.11,4.11,0,0,0,4.47-3.67Z"/><path class="cls-5" d="M798.85,564.73h-6.13v-5.44h6.13Zm0,27.1h-6.13v-24h6.13Z"/><path class="cls-5" d="M803.69,578.21c0-6.65,3.81-11,10.69-11s10.69,4.37,10.69,11v3.06c0,6.65-3.81,11-10.69,11s-10.69-4.37-10.69-11Zm15.24-.79c0-2.84-1.62-4.7-4.55-4.7s-4.56,1.86-4.56,4.7v4.65c0,2.83,1.63,4.69,4.56,4.69s4.55-1.86,4.55-4.69Zm2.65-18.13-5.48,6h-5.3l2.79-6Z"/><path class="cls-5" d="M851.28,591.83h-6.14v-14a4.56,4.56,0,1,0-9.11,0v14H829.9v-24H836v2.09a7.14,7.14,0,0,1,5.63-2.74c4.88,0,9.62,3.35,9.62,10.41Z"/><rect class="cls-5" x="402.2" y="753.45" width="475.59" height="463.83"/><rect class="cls-4" x="402.2" y="753.26" width="158.53" height="158.53"/><rect class="cls-3" x="560.73" y="911.79" width="158.53" height="226.22"/><rect class="cls-6" x="719.27" y="911.79" width="158.53" height="226.22"/><rect class="cls-5" x="560.73" y="753.26" width="158.53" height="158.53"/><rect class="cls-7" x="402.2" y="911.79" width="158.53" height="226.22"/><rect class="cls-8" x="719.27" y="753.26" width="158.53" height="158.53"/><rect class="cls-9" x="402.2" y="1138" width="475.59" height="142"/></g></svg>