<svg xmlns="http://www.w3.org/2000/svg" viewBox="0 0 89.37 45.37"><defs><style>.cls-1{fill:#db0812;}.cls-2{fill:none;}</style></defs><g id="Capa_2" data-name="Capa 2"><g id="Capa_1-2" data-name="Capa 1"><path class="cls-1" d="M62.84,44.5V33.4a.76.76,0,0,0-.08-.33L58.7,23.28V16.4a3.33,3.33,0,0,0-3.32-3.31H34a3.32,3.32,0,0,0-3.31,3.31v6.88l-4.06,9.79a.64.64,0,0,0-.09.33V44.5a.83.83,0,0,0,1.66,0v-4h33v4.07a.83.83,0,1,0,1.66,0M34,14.75H55.38A1.66,1.66,0,0,1,57,16.4v6.22h-2v-2.4a.83.83,0,0,0-.83-.83H47.13a.83.83,0,0,0-.83.83v2.4H43.07v-2.4a.83.83,0,0,0-.83-.83H35.15a.83.83,0,0,0-.83.83v2.4h-2V16.4A1.66,1.66,0,0,1,34,14.75m19.4,10.94H48V21h5.43Zm-12,0H36V21h5.43ZM32,24.28h2.28v2.24a.84.84,0,0,0,.83.83h7.09a.83.83,0,0,0,.83-.83V24.28H46.3v2.24a.84.84,0,0,0,.83.83h7.09a.83.83,0,0,0,.83-.83V24.28h2.24l3.44,8.29H28.6Zm-3.85,9.95h33v4.6h-33Z"/><rect class="cls-2" width="89.37" height="45.37"/></g></g></svg>