<svg xmlns="http://www.w3.org/2000/svg" viewBox="0 0 30.49 30.49"><defs><style>.cls-1{fill:#fff;}.cls-2{fill:#d3368c;}.cls-3{fill:#00a685;}.cls-4{fill:#ec6728;}.cls-5{fill:#13a9cd;}.cls-6{fill:#fdc419;}</style></defs><g id="Capa_2" data-name="Capa 2"><g id="Capa_1-2" data-name="Capa 1"><rect class="cls-1" width="30.49" height="30.49"/><rect class="cls-2" x="6.07" y="4.84" width="0.22" height="0.44"/><polygon class="cls-2" points="6.63 4.92 6.82 4.81 7.04 5.19 6.85 5.3 6.63 4.92"/><polygon class="cls-2" points="5.31 5.19 5.53 4.81 5.72 4.92 5.5 5.3 5.31 5.19"/><path class="cls-2" d="M10.92,7.16H4.3V6.94h6.62ZM10.7,9.92h-.21L9.6,7.38h.21ZM8.05,7.6A.4.4,0,0,0,8,7.38H9.37l.08.22Zm-.88,0H5.78l.07-.22H7.23a.4.4,0,0,0-.06.22M4.73,9.92H4.52l.89-2.54h.21ZM4.52,6.6h1.1v.11H4.52Zm1.88,0h.77V6.38H6.4V6.27h.77a.33.33,0,0,1,.33.33v.11H6.4Zm1.65-.33h.78v.11H8.05V6.6h.78v.11H7.72V6.6a.33.33,0,0,1,.33-.33M9.6,5.5h.22V6.71H9.6ZM10,5.06h.22V6.71H10V5.06Zm.66,1.65h-.22V5.39h.22ZM6.18,4a.56.56,0,0,1,.54.44H5.63A.57.57,0,0,1,6.18,4M11,6.71h-.12V5.28a.1.1,0,0,0-.11-.11h-.33V5a.11.11,0,0,0-.11-.11H9.93A.11.11,0,0,0,9.82,5v.33H9.49a.11.11,0,0,0-.11.11V6.71H9.05V6.16a.11.11,0,0,0-.11-.11H8.05a.54.54,0,0,0-.44.23.54.54,0,0,0-.44-.23H6.29a.1.1,0,0,0-.11.11v.55H5.84V6.6a.22.22,0,0,0-.22-.22H5.18V6.05a.08.08,0,0,0,0,0L4.79,5H5V4.73H4.84l.29-.45h.3a.85.85,0,0,0,0,.23.11.11,0,0,0,.11.11H6.84A.11.11,0,0,0,7,4.51a.78.78,0,0,0-.66-.77V3.51H6.06v.23a.78.78,0,0,0-.52.32H5.07A.11.11,0,0,0,5,4.11l-.41.62H4.41V5h.14L5,6.07v.31H4.74V6.27H4.52v.11a.22.22,0,0,0-.22.22v.11H4.19a.11.11,0,0,0-.11.11v.45a.11.11,0,0,0,.11.11h1L4.26,10a.12.12,0,0,0,0,.1.11.11,0,0,0,.09.05h.44a.1.1,0,0,0,.1-.08L5.7,7.82H7.3a.11.11,0,0,0,.09-.05.09.09,0,0,0,0-.1.17.17,0,0,1,0-.07.22.22,0,0,1,.44,0,.17.17,0,0,1,0,.07.11.11,0,0,0,0,.1.12.12,0,0,0,.09.05h1.6l.79,2.24a.11.11,0,0,0,.1.08h.45a.14.14,0,0,0,.09-.05.11.11,0,0,0,0-.1l-.91-2.61h1a.11.11,0,0,0,.11-.11V6.82A.11.11,0,0,0,11,6.71"/><path class="cls-2" d="M14.14,7.09h.06c.17,0,.25,0,.25.08s0,.15-.11.17l-.27.08h-.24l.13.34v.09s0,.08,0,.08h.31c.07,0,.1,0,.1.08V8c0,.1-.12.17-.37.22h0v0a2.21,2.21,0,0,1,0,.37v.2A.81.81,0,0,1,14,9v.27a.82.82,0,0,1,.05.17,4.54,4.54,0,0,0,0,.46c0,.14,0,.21.1.21.28,0,.42.05.42.07a.16.16,0,0,1,0,.08c0,.09-.15.18-.46.27l-.21,0a.91.91,0,0,1-.51-.17.57.57,0,0,1-.05-.29,3.63,3.63,0,0,1,0-.5s0,0,0-.07a1,1,0,0,1,0-.16c0-.11,0-.31,0-.59V8.62c0-.08,0-.16,0-.26s0-.38,0-.47,0-.17,0-.19a.66.66,0,0,0,0-.13v0s0,0,0,0a1,1,0,0,1-.06-.25s.06-.07.17-.09l.6-.07s0,0,.08,0h.08"/><path class="cls-2" d="M15.94,7.62A2.1,2.1,0,0,1,16,8c0,.06-.08.09-.25.09a.41.41,0,0,1-.23-.1,1.16,1.16,0,0,1-.08-.26q-.16-.21-.24-.21v.06a1.31,1.31,0,0,0,.09.38,4.54,4.54,0,0,1,.4.8,2.42,2.42,0,0,0,.1.38,2.42,2.42,0,0,1,0,.24v.06c0,.07,0,.17,0,.29a1.09,1.09,0,0,0,0,.26,1.15,1.15,0,0,1-.24.39.24.24,0,0,1-.23.1h-.06a.41.41,0,0,1-.42-.25.71.71,0,0,1-.14-.29.33.33,0,0,1-.06-.19V9.73c0-.11.06-.16.17-.16l.06,0q.19,0,.3.33a.66.66,0,0,0,.11.25h0a1.29,1.29,0,0,0,0-.25,1.7,1.7,0,0,0-.08-.49v-.1s-.06-.1-.09-.25A1,1,0,0,1,15,8.73a1.73,1.73,0,0,1-.27-.63,1.73,1.73,0,0,1-.05-.28V7.69a1.09,1.09,0,0,1,0-.13.45.45,0,0,1,.18-.28.72.72,0,0,1,.46-.16c.24,0,.45.17.61.5"/><path class="cls-2" d="M16.84,7.71h0c0,.1,0,.17.05.21V8a.92.92,0,0,1,0,.15v0c0,.06,0,.18.06.39l-.05.22a2.78,2.78,0,0,0,0,.36h0c0,.05,0,.13,0,.23a1.81,1.81,0,0,0,.18-.49s0-.07,0-.2A1.89,1.89,0,0,0,17,8.13a4.4,4.4,0,0,0-.18-.42Zm.39-.18.16.2c0,.07.06.22.13.43l0,.1c0,.16,0,.25,0,.27v.08a1.16,1.16,0,0,1,0,.17h0a1.41,1.41,0,0,1-.19.62.65.65,0,0,1-.19.23c0,.08-.1.12-.25.12a4.14,4.14,0,0,0-.06.52s0,0,0,.05v.06c0,.07-.12.12-.36.16h0c-.12,0-.18,0-.18-.08a1.21,1.21,0,0,1-.07-.41,2,2,0,0,1,0-.3s0-.08,0-.14,0-.2,0-.27a2.63,2.63,0,0,1,0-.49,0,0,0,0,1,0,0,.28.28,0,0,1,0-.08V8.62s0,0,0,0V8.24c0-.08,0-.3,0-.68h0V7.44c0-.06.1-.11.3-.17h.19a.8.8,0,0,1,.53.26"/><path class="cls-2" d="M18.31,7.29l.1,0,.42,0c.08,0,.12.1.12.17a.46.46,0,0,1-.45.23h-.19a.5.5,0,0,0,0,.12h0a1.09,1.09,0,0,0,0,.17l0,.11q0,.12,0,.12h.12c.22,0,.32.08.32.1a.11.11,0,0,1,.05.1.2.2,0,0,1-.2.13,1.1,1.1,0,0,0-.25.08h0s0,0,0,0,0,.11,0,.14v.12s0,.12,0,.25a.35.35,0,0,0,0,.11v.18a1.39,1.39,0,0,0,0,.42.62.62,0,0,0,0,.13h0a0,0,0,0,0,.05.05l.31,0c.13,0,.2,0,.2.1s-.25.23-.56.23a.9.9,0,0,1-.54-.08,4,4,0,0,1-.09-.83c0-.09,0-.19,0-.32a1.25,1.25,0,0,1,0-.26l0-.18a2.07,2.07,0,0,1,0-.28l0-.52a.23.23,0,0,1,0-.07v0a.22.22,0,0,1,0-.08s0-.06,0-.07a.57.57,0,0,0,0-.12V7.38s.06-.09.18-.13H18a1.23,1.23,0,0,1,.32,0"/><path class="cls-2" d="M19.82,7.1h0a.27.27,0,0,1,.18.07.13.13,0,0,1,.13.11c.05,0,.08.06.1.14a.68.68,0,0,1,.08.26v0a.23.23,0,0,1,0,.09l0,0a.84.84,0,0,1,0,.12,2.29,2.29,0,0,0,0,.3h0s0,0,0,0h0c0,.14-.08.22-.24.22H20c-.14,0-.21-.08-.21-.13a.42.42,0,0,1,0-.16v0h0v0h0a1.75,1.75,0,0,0,0-.25,2.27,2.27,0,0,0,0-.24c0-.08,0-.11-.05-.11l-.08.3,0,.13a1.68,1.68,0,0,0-.07.43s0,.13-.05.29h0a1.27,1.27,0,0,0,0,.28h0c0,.07,0,.11,0,.12s0,0,0,0v.12a.39.39,0,0,0,0,.18h0a.66.66,0,0,1,0,.14v.1a.38.38,0,0,0,.06.16c0,.09,0,.13,0,.13a.39.39,0,0,0,.12-.24,1.27,1.27,0,0,0,0-.22.88.88,0,0,0,0-.27h0q0-.12.36-.18h.07c.09,0,.14.08.14.15a.82.82,0,0,0,.05.22v.09a.23.23,0,0,1,0,.09h0v.05l0,0v.16a.69.69,0,0,1-.14.36l-.17.09s0,0-.11.08-.11.07-.3.09l-.1,0h0a.31.31,0,0,1-.24-.14c-.07,0-.15-.26-.25-.77A5.3,5.3,0,0,1,19,9V8.74h0a0,0,0,0,0,0,0,2.89,2.89,0,0,1,.07-.56,0,0,0,0,1,0,0h0a2,2,0,0,1,.19-.69.66.66,0,0,1,.28-.28.88.88,0,0,1,.28,0Z"/><path class="cls-2" d="M20.92,7.87a.27.27,0,0,1,.3.22,1.28,1.28,0,0,1,.05.28.42.42,0,0,1,0,.09.18.18,0,0,1,0,.11v0a.39.39,0,0,1,0,.18v.1s0,.14,0,.29a1.11,1.11,0,0,0,0,.23,1,1,0,0,1,0,.25l.07.68v.05s-.06.08-.17.1a.55.55,0,0,1-.24,0h0c-.1,0-.16,0-.17-.09s-.06-.11-.06-.23l-.06-.68s0-.13,0-.28l0-.32c0-.16,0-.35.06-.59a2,2,0,0,0,0-.25V8s0-.09.16-.13h.16Zm.42-.64a.41.41,0,0,1-.18.29.85.85,0,0,1-.29,0c-.19,0-.29-.06-.32-.17l0-.15a.51.51,0,0,1,.08-.17A1.32,1.32,0,0,1,21,7c.22,0,.34.07.34.22"/><path class="cls-2" d="M22.09,8.18a6.24,6.24,0,0,1-.11.69h0S22,9,22,9a2,2,0,0,0,0,.22h.2a.89.89,0,0,0,0-.19,1,1,0,0,0,0-.22v0a3.1,3.1,0,0,0-.08-.63Zm.09-1c.1,0,.2.12.32.37a.37.37,0,0,0,.09.21,1.12,1.12,0,0,0,.06.25.58.58,0,0,1,0,.19.06.06,0,0,1,0,0s0,.08.06.26a1.16,1.16,0,0,1,.07.4.8.8,0,0,1,0,.18l0,.15,0,.12a.44.44,0,0,1,0,.09.52.52,0,0,1,0,.11.58.58,0,0,1,0,.1s0,.05.06.15v0h0c0,.23,0,.36,0,.38v0c0,.08,0,.13-.07.13a.49.49,0,0,1-.19,0q-.21,0-.24-.09a2.1,2.1,0,0,1-.21-.79s-.07,0-.19,0H22s0,0,0,0v.07s0,.07,0,.14a1.13,1.13,0,0,0,0,.12.64.64,0,0,1-.07.19c0,.11,0,.17-.06.19a.25.25,0,0,1-.11.05.27.27,0,0,1-.29-.2V10a3.77,3.77,0,0,1,.06-.59s0-.1,0-.21.12-.65.2-1.22a3,3,0,0,0,.11-.57.32.32,0,0,1,.16-.14c0-.06.1-.1.24-.1Z"/><path class="cls-2" d="M23.34,7.17h.09c.21,0,.31.07.32.16l.05.55V8a3.73,3.73,0,0,1,0,.42c0,.09,0,.15,0,.19V9c0,.05,0,.1,0,.16s0,.07,0,.13a1.55,1.55,0,0,1,0,.25l0,.34a1.05,1.05,0,0,0,0,.13h0a1.08,1.08,0,0,0,.33.1.25.25,0,0,1,.07.15s0,.09-.12.11a.36.36,0,0,1-.2.06h-.17c-.3,0-.49-.06-.57-.17a1,1,0,0,1-.05-.23c0-.08,0-.22,0-.41a.83.83,0,0,0,0-.12,1,1,0,0,0,0-.2h0a.62.62,0,0,1,0-.18V9a.49.49,0,0,1,0-.15,0,0,0,0,1,0,0s0-.08,0-.17a1.11,1.11,0,0,1,0-.19v0a3.28,3.28,0,0,1,.06-.63,3.35,3.35,0,0,1,0-.37.32.32,0,0,1,0-.08s.05-.1.17-.13Z"/><path class="cls-2" d="M9.35,12h.09c.26,0,.4,0,.4.12a.23.23,0,0,1-.18.26,2.07,2.07,0,0,1-.42.14l0,0s0,0,0,0l-.09,0H8.87v0a5.26,5.26,0,0,0,.2.53l0,.09v0c0,.08,0,.12.07.12H9.6c.1,0,.16,0,.16.12v0c0,.15-.2.27-.59.34h0v0a4.28,4.28,0,0,1,.06.59v.3a2.32,2.32,0,0,1,0,.24c0,.12,0,.21,0,.27a1,1,0,0,1,0,.14,1.24,1.24,0,0,1,.08.27c0,.39-.06.62-.06.72s.07.33.15.33c.44,0,.66.07.66.11a.24.24,0,0,1,0,.12c0,.14-.24.28-.71.42a1,1,0,0,1-.32,0,1.49,1.49,0,0,1-.8-.26.81.81,0,0,1-.08-.46,4.23,4.23,0,0,1-.07-.78s0,0,0-.11a2.36,2.36,0,0,1,0-.25c0-.18,0-.48,0-.92a1.15,1.15,0,0,0,0-.2A3.62,3.62,0,0,1,8,14c0-.35,0-.6,0-.73A.69.69,0,0,0,8,13c0-.09,0-.16,0-.21v-.07s0,0,0,0a1.6,1.6,0,0,1-.09-.39c0-.05.09-.1.26-.15l.93-.1s.05,0,.14,0h.12"/><path class="cls-2" d="M11.86,12.33v0c0,.07-.06.13-.16.19a.93.93,0,0,0-.35.75,2,2,0,0,0,.61,1,2.59,2.59,0,0,1,.33,1l0,.27v0l-.06.35a.74.74,0,0,1-.07.31.57.57,0,0,1-.14.42.74.74,0,0,0-.15.27.5.5,0,0,0-.25.14.22.22,0,0,1-.12.06h-.1a.54.54,0,0,1-.42.17H11a.88.88,0,0,1-.53-.29,1.33,1.33,0,0,1-.32-.83v-.05a.37.37,0,0,1,.36-.29h.09c.12,0,.2.12.23.36s.15.42.21.42a1,1,0,0,0,.21-.41v-.52a2.17,2.17,0,0,0-.13-.77,1,1,0,0,1-.09-.31,2.47,2.47,0,0,1-.41-.74,2.72,2.72,0,0,1-.14-.77.8.8,0,0,1,.27-.6,1.14,1.14,0,0,1,.13-.22,1.3,1.3,0,0,1,.55-.16q.48,0,.48.18"/><path class="cls-2" d="M14,12h.15c.43.06.65.15.65.25s0,0,0,.12-.22.19-.66.28h-.25a.62.62,0,0,1,0,.16s0,0,0,.05l0,0A7.66,7.66,0,0,1,14,14a1.24,1.24,0,0,0,0,.42.82.82,0,0,0-.1.27v.06a0,0,0,0,0,0,0h0l0,.09a.54.54,0,0,1-.11.26l-.07.64c0,.06,0,.19,0,.41a5.4,5.4,0,0,0-.06.62,1.22,1.22,0,0,1,0,.22c0,.23-.06.34-.18.34l-.07,0h-.11q-.42,0-.42-.12a.6.6,0,0,1,0-.18v-.18c0-.39-.05-.6-.05-.64,0-.39.05-.67.06-.84s0-.15,0-.15,0,0,0,0V15h0l0-.47c0-.33,0-.61,0-.85v-.12l.08-1c-.37,0-.55-.15-.55-.28v0c0-.08.16-.15.49-.2l.69,0A4.41,4.41,0,0,0,14,12"/><path class="cls-2" d="M15.24,12.4c.34,0,.51.11.51.17a.72.72,0,0,1,.14.4v.32a3.21,3.21,0,0,1-.05.51,5.42,5.42,0,0,0,.11.61s0,.06,0,.17a5.16,5.16,0,0,1,.08.93c.06.27.12.4.19.4s0,0,.12,0l0,0v0a.14.14,0,0,0,0-.07l0-.28v0a2.29,2.29,0,0,0-.1-.5c0-.18,0-.29,0-.35a1.56,1.56,0,0,1-.05-.4v-.14a3.23,3.23,0,0,1,.12-.77,1.3,1.3,0,0,1,.13-.7.7.7,0,0,1,.47-.17.61.61,0,0,1,.24.21v.5a.82.82,0,0,0,0,.14,1.65,1.65,0,0,0,0,.32v.08a1.13,1.13,0,0,0,.1.33v0a1.22,1.22,0,0,0,0,.22,1.08,1.08,0,0,0,.05.2,1.42,1.42,0,0,0,0,.19.56.56,0,0,1,0,.21V15a1.31,1.31,0,0,1,.06.41v.1a2.21,2.21,0,0,1-.12.57.6.6,0,0,1-.38.57s-.11.06-.34.08a1.25,1.25,0,0,1-.61.13,1.1,1.1,0,0,1-.92-.54,2.27,2.27,0,0,1-.25-1,.78.78,0,0,1,0-.29,1.93,1.93,0,0,1,0-.25c0-.18,0-.33,0-.47v-.45s0-.18.07-.44a1.89,1.89,0,0,1-.08-.42v0c0-.06,0-.1,0-.1V12.8a2.93,2.93,0,0,0,.12-.28l.36-.12Z"/><path class="cls-2" d="M18.59,13.17v.16s.05.39.14,1.05v.15a9.91,9.91,0,0,0,.09,1.08h0a2.81,2.81,0,0,1,.09-.31s0-.24,0-.59a2.26,2.26,0,0,0-.13-.85,4.25,4.25,0,0,0-.21-.69Zm-.44-1a2.83,2.83,0,0,0,.66.14,1.76,1.76,0,0,1,.48.36,1.64,1.64,0,0,1,.44.89v.16s.07.17.08.51a2.09,2.09,0,0,1,.05.5,3.74,3.74,0,0,1-.12.91.68.68,0,0,1-.16.4.88.88,0,0,0-.15.36,1.42,1.42,0,0,0-.37.48c-.24.33-.48.5-.7.5a3.25,3.25,0,0,1-.44-.24.62.62,0,0,1-.19-.5v0c0-.07,0-.29,0-.66a3,3,0,0,1-.05-.52v-.49q-.06-.48-.06-.57v-.67a3.29,3.29,0,0,0,0-.57v0c0-.24,0-.37,0-.4v-.1a.43.43,0,0,1-.11-.23c0-.17.11-.25.22-.25s0,0,.08,0a.88.88,0,0,1,.32.08"/><path class="cls-2" d="M20.74,13.25c.28,0,.44.12.48.35a1.64,1.64,0,0,1,.07.42.47.47,0,0,1,0,.15.29.29,0,0,1,0,.17v.07a1,1,0,0,1-.05.28v.14a4.65,4.65,0,0,1,0,.47,2,2,0,0,0,0,.36,1.36,1.36,0,0,1-.07.38l.11,1.07v.07c0,.08-.09.13-.27.16a.92.92,0,0,1-.37.06h-.07c-.15,0-.23,0-.26-.14s-.1-.17-.1-.36l-.07-1c0-.06,0-.21,0-.44l0-.51c0-.24,0-.55.09-.92,0-.12,0-.25,0-.4v-.12c0-.07.08-.13.24-.2h.25Zm.66-1a.73.73,0,0,1-.28.47l-.45.06c-.3,0-.46-.1-.5-.27l0-.23a.64.64,0,0,1,.12-.27,2.11,2.11,0,0,1,.62-.09c.34,0,.52.11.52.33"/><path class="cls-2" d="M22.7,14.2a4.38,4.38,0,0,0,0,.5,6.62,6.62,0,0,0,.1.83v0h0a2.15,2.15,0,0,1,.25.61c0,.09.07.15.11.17a2.18,2.18,0,0,0,.17-1.07v0h0a6.32,6.32,0,0,0-.17-1.07,4.43,4.43,0,0,1-.19-.72.35.35,0,0,0-.1-.09,2.19,2.19,0,0,0-.12.84m.23-1.52c.48,0,.76.16.85.48a1.34,1.34,0,0,0,.18.39A2.39,2.39,0,0,1,24,14a4.48,4.48,0,0,1,.16,1.19,3.66,3.66,0,0,1-.23,1.34.58.58,0,0,1-.25.35c0,.08-.14.15-.34.21a3.52,3.52,0,0,1-.43.05h-.06c-.59,0-1-.62-1.24-1.88,0-.22,0-.35,0-.42a7.24,7.24,0,0,1,.14-.91,3.06,3.06,0,0,1,.33-.87.44.44,0,0,1,.47-.29h.13l.18-.07Z"/><path class="cls-2" d="M26.35,23.11c0,.2-.05.31-.15.35a.54.54,0,0,1-.19,0l-.06,0a.09.09,0,0,1-.07,0h0l-.13,0h-.06l-.2,0-.16,0-.17,0-.46.07h0s-.06-.06-.07-.19a.91.91,0,0,1,0-.27v0c0-.11,0-.17.06-.19s.07-.07.16-.07l.46-.06.19,0,.22,0,.4.07h.23s.06.06.09.17v.18Z"/><path class="cls-2" d="M8.42,18.61h.14c.44.06.66.15.66.25s0,0,0,.12-.21.19-.65.28H8.34a.62.62,0,0,1,0,.16.11.11,0,0,1,0,.09,10.94,10.94,0,0,1,0,1.1,1.84,1.84,0,0,0,0,.43.86.86,0,0,0-.09.26v.07h0s0,0,0,0v.09a.48.48,0,0,1-.1.25l-.07.64c0,.06,0,.2,0,.41s0,.3-.05.63a1.26,1.26,0,0,1,0,.21c0,.23-.06.35-.19.35H7.7c-.28,0-.43-.06-.43-.12a1.08,1.08,0,0,1,0-.17l0-.19c0-.38-.06-.6-.06-.64,0-.39,0-.67.07-.83s0-.15,0-.15,0,0,0,0l0-.1v-.17s0,0,0,0,0,0,0,0l0-.46c0-.33,0-.62,0-.85l0-.12.08-1c-.36-.05-.54-.14-.54-.28v0c0-.09.16-.15.49-.2a4.5,4.5,0,0,1,.69,0l.47.05"/><path class="cls-2" d="M10.33,22.47h0v0h0Zm-.13-3.1a5.6,5.6,0,0,0,.06.71v.06a.57.57,0,0,1,0,.12,1.6,1.6,0,0,1,.05.48l0,.06a1.44,1.44,0,0,0,.3-1.07,1.22,1.22,0,0,0-.28-.93h0c-.08,0-.12.17-.13.51Zm.9-.74a1.77,1.77,0,0,1,.35,1c0,.15,0,.24,0,.27-.07.7-.13,1-.19,1a.92.92,0,0,1-.2.32,1.6,1.6,0,0,0-.29.27v0a1.82,1.82,0,0,1,.42.71,1.59,1.59,0,0,0,.2.45s.09.3.26.79a1.5,1.5,0,0,1,0,.22v0c0,.13,0,.2-.13.23a1.49,1.49,0,0,1-.29.06.43.43,0,0,1-.42-.35,3.65,3.65,0,0,0-.26-.55,1.94,1.94,0,0,0-.17-.49.34.34,0,0,1,0-.13h0s0,.12,0,.27,0,.16,0,.16a1,1,0,0,0,0,.22v.25a.74.74,0,0,1,0,.12.7.7,0,0,1,.06.27c0,.1-.11.16-.34.18s-.31,0-.34-.12a5.89,5.89,0,0,1-.19-1.7l-.07-.77,0-.24a2.07,2.07,0,0,1,0-.35v-.12c0-.11,0-.23,0-.37a.43.43,0,0,1,0-.11l0-.16a2.54,2.54,0,0,1,0-.41,2.26,2.26,0,0,1,.19-.77s.06-.07.11-.2a.87.87,0,0,1,.6-.27h.17a.63.63,0,0,1,.61.27"/><path class="cls-2" d="M12.83,20.3c-.05.4-.1.75-.16,1.07v0a1.93,1.93,0,0,0,0,.24,1.63,1.63,0,0,0,0,.35H13s0-.14,0-.29a1.7,1.7,0,0,0,0-.35v-.07a4.12,4.12,0,0,0-.13-1ZM13,18.79q.22,0,.51.57a.61.61,0,0,0,.13.33q.06.28.09.39a.89.89,0,0,1,.07.29.16.16,0,0,1,0,.08s.07.14.1.41a2,2,0,0,1,.1.63.9.9,0,0,1,.06.28L14,22a1,1,0,0,1,0,.18.53.53,0,0,1,0,.13.42.42,0,0,1,0,.18,1.36,1.36,0,0,0,0,.16s.05.08.08.24v0c0,.36,0,.55,0,.58v.07c0,.13,0,.2-.11.2a.68.68,0,0,1-.31.06c-.21,0-.33,0-.37-.13A3.21,3.21,0,0,1,13,22.48s-.11,0-.29-.05h-.08s0,0,0,.05v.11a.68.68,0,0,1,0,.21c0,.14,0,.2,0,.2a1.54,1.54,0,0,1-.12.3c0,.16,0,.26-.09.29a.38.38,0,0,1-.16.08.4.4,0,0,1-.45-.31V23.2a6.22,6.22,0,0,1,.09-.92s0-.16,0-.33c.07-.38.17-1,.3-1.9a5.44,5.44,0,0,0,.17-.89.44.44,0,0,1,.26-.21c0-.11.15-.16.37-.16Z"/><path class="cls-2" d="M15.3,21.69c.06.36.08.55.08.59s.06.17.08.51c0,.13.06.19.07.19,0-.19.07-.28.09-.28v-.36a1.42,1.42,0,0,0-.21-.6l-.1-.06Zm-.17-2.77v.38l.11.81c0,.16,0,.26,0,.32l0,.12h0a2,2,0,0,0,.21-.81V19.6a.75.75,0,0,0-.34-.7Zm-.31-.62a2,2,0,0,1,1.12.42,1.61,1.61,0,0,1,.23.6c0,.15,0,.31,0,.48a.75.75,0,0,1-.11.33c0,.25-.05.38-.13.38a2.07,2.07,0,0,1-.36.64.36.36,0,0,0-.08.15.83.83,0,0,1,.44.26,1.28,1.28,0,0,1,.27.76c0,.11,0,.23,0,.34a.81.81,0,0,1-.12.48c0,.19-.16.4-.49.63a.42.42,0,0,1-.4.18H15.2s-.1,0-.16-.12h-.15c-.19,0-.28,0-.28-.12s-.09-.15-.12-.34,0-.12,0-.14v-.16a10.71,10.71,0,0,1-.15-1.38l-.05-1a.4.4,0,0,1,0-.13l0-.12s0-.15,0-.4a2.6,2.6,0,0,0,0-.36.54.54,0,0,1,0-.17l0-.06a4.13,4.13,0,0,1,.08-.78v0a.28.28,0,0,1,0-.12v0c0-.11.2-.16.45-.16Z"/><path class="cls-2" d="M17.44,20.3a9.38,9.38,0,0,1-.16,1.07v0a1.94,1.94,0,0,0,0,.24,1.63,1.63,0,0,0,0,.35h.32s0-.14,0-.29a1.7,1.7,0,0,0,0-.35v-.07a4.12,4.12,0,0,0-.13-1Zm.15-1.51q.22,0,.51.57a.61.61,0,0,0,.13.33q.06.28.09.39a.89.89,0,0,1,.07.29.16.16,0,0,1,0,.08s.07.14.1.41a2.3,2.3,0,0,1,.1.63,1.43,1.43,0,0,1,.05.28l0,.24a.69.69,0,0,1,.06.18.53.53,0,0,1,0,.13.42.42,0,0,1,0,.18,1.36,1.36,0,0,0,0,.16s.05.08.08.24l0,0v0c0,.36,0,.55,0,.58v.07c0,.13,0,.2-.1.2a.68.68,0,0,1-.31.06c-.21,0-.33,0-.37-.13a3.21,3.21,0,0,1-.33-1.24s-.11,0-.3-.05h-.08s0,0,0,.05l0,0v.08a1.23,1.23,0,0,1,0,.21c0,.14,0,.2,0,.2a1.54,1.54,0,0,1-.12.3c0,.16,0,.26-.09.29a.38.38,0,0,1-.16.08.42.42,0,0,1-.46-.31V23.2a5.27,5.27,0,0,1,.1-.92s0-.16,0-.33c.07-.38.18-1,.31-1.9a5.44,5.44,0,0,0,.17-.89A.45.45,0,0,1,17.2,19c0-.11.16-.16.38-.16Z"/><path class="cls-2" d="M21,19.3a6.36,6.36,0,0,1,.31,1.47c0,.15,0,.25,0,.29a.29.29,0,0,1,.06.16v.09l0,.08a1.61,1.61,0,0,1,0,.39,1.08,1.08,0,0,1,0,.34,1,1,0,0,1,0,.15h0a3.08,3.08,0,0,1-.15,1q0,.24-.33.24a1.8,1.8,0,0,1-.83.4H20a1.11,1.11,0,0,1-.93-.68,3.08,3.08,0,0,1-.22-1.09c0-.42.07-.68.08-.78a.39.39,0,0,1,.38-.21h0c.37,0,.58.15.63.44a4.49,4.49,0,0,0,.13.92v.12a1.12,1.12,0,0,1,.21.38h0a3.43,3.43,0,0,0,0-.41v-.34a3.14,3.14,0,0,1,0-.38s0-.11,0-.2,0-.22,0-.3,0-.18,0-.4a.76.76,0,0,1,0-.15c0-.12,0-.24,0-.36v-.21c0-.24-.05-.53-.07-.89V19.3c0-.25-.07-.4-.07-.45s.1-.12.3-.16.44.2.53.61"/><path class="cls-2" d="M22.7,20.77a4.21,4.21,0,0,0,0,.5,6.83,6.83,0,0,0,.1.83v0s0,0,0,0a2,2,0,0,1,.25.61c0,.09.07.15.11.16a2.13,2.13,0,0,0,.17-1.06v0s0,0,0,0a6.32,6.32,0,0,0-.17-1.07,4.73,4.73,0,0,1-.19-.72.45.45,0,0,0-.1-.1,2.29,2.29,0,0,0-.12.85m.23-1.52c.48,0,.76.16.85.48a1.34,1.34,0,0,0,.18.39,2.26,2.26,0,0,1,.05.43,4.48,4.48,0,0,1,.16,1.19,3.7,3.7,0,0,1-.23,1.34.56.56,0,0,1-.25.34c0,.08-.14.15-.34.21a2.48,2.48,0,0,1-.43.06h-.06c-.59,0-1-.63-1.24-1.88q0-.33,0-.42a7,7,0,0,1,.14-.91,2.86,2.86,0,0,1,.33-.87.43.43,0,0,1,.47-.3h.13l.18-.06Z"/><rect class="cls-3" x="7.53" y="26.61" width="7.07" height="1.06"/><rect class="cls-4" x="14.01" y="26.61" width="8.89" height="1.06"/><rect class="cls-5" x="22.58" y="26.61" width="6.35" height="1.06"/><rect class="cls-6" x="1.57" y="26.61" width="6.35" height="1.06"/></g></g></svg>