<svg xmlns="http://www.w3.org/2000/svg" viewBox="0 0 89.37 45.37"><defs><style>.cls-1{fill:#db0812;}.cls-2{fill:none;}</style></defs><g id="Capa_2" data-name="Capa 2"><g id="Capa_1-2" data-name="Capa 1"><path class="cls-1" d="M73.2,44.42H66.55V18.29h3.8a.49.49,0,0,0,.48-.48.51.51,0,0,0,0-.17L69.38,12a.47.47,0,0,0-.46-.36h-5.7a.47.47,0,0,0-.46.36L61.33,17.7a.49.49,0,0,0,.47.59h3.8V44.42H60.84v-1.9h1a.47.47,0,0,0,.47-.47V33.49A.47.47,0,0,0,61.8,33H59.42V30.64a1.91,1.91,0,0,0-1.9-1.9H49a1.89,1.89,0,0,0-1.42.65,1.89,1.89,0,0,0-1.43-.65H37.56a1.91,1.91,0,0,0-1.9,1.9V33H33.28a.47.47,0,0,0-.47.47v8.56a.47.47,0,0,0,.47.47h.95v1.9h-5l-4-4V36.82H29a.48.48,0,0,0,0-1H27.35L28,32.16a.49.49,0,0,0-.11-.39.47.47,0,0,0-.36-.18H26L26.55,27A2,2,0,0,0,27,27a1.82,1.82,0,0,0,1.56-.9,5.45,5.45,0,0,0,.55-3.89.47.47,0,0,0-.58-.33,5.49,5.49,0,0,0-3.09,2.42,1.81,1.81,0,0,0,.24,2.12l-.57,5.15h-.72l-.57-6.52a2.32,2.32,0,0,0,.63-3,7.46,7.46,0,0,0-4.17-3.27.46.46,0,0,0-.36,0,.44.44,0,0,0-.22.28,7.49,7.49,0,0,0,.75,5.25,2.32,2.32,0,0,0,2,1.15,2.28,2.28,0,0,0,.45,0l.54,6.12H21.87a.52.52,0,0,0-.37.17.47.47,0,0,0-.1.39l.69,3.72H20.45a.48.48,0,0,0,0,1h3.8v3.61l-4,4H16.17a.47.47,0,0,0,0,.94h57a.48.48,0,0,0,.48-.47A.49.49,0,0,0,73.2,44.42Zm-47-19.62a4.61,4.61,0,0,1,2-1.79,4.49,4.49,0,0,1-.54,2.64.84.84,0,0,1-.73.42.92.92,0,0,1-.43-.11A.86.86,0,0,1,26.23,24.8Zm-2,19.62H21.6l2.65-2.65Zm-1.15-20a1.37,1.37,0,0,1-.68.19,1.43,1.43,0,0,1-1.18-.68,6.45,6.45,0,0,1-.74-4,6.48,6.48,0,0,1,3.1,2.65,1.36,1.36,0,0,1-.5,1.85Zm-.05,11.49-.61-3.33H27l-.62,3.33Zm2.15,8.55V41.77l2.66,2.65ZM48,30.64a1,1,0,0,1,1-.95h8.56a1,1,0,0,1,.95.95v5.23H48Zm0,6.18H58.47v1.9H48Zm-11.4-6.18a1,1,0,0,1,1-.95h8.55a1,1,0,0,1,1,.95v5.23H36.61Zm0,6.18H47.06v1.9H36.61Zm-2.85,4.75V34h1.9V39.2a.47.47,0,0,0,.47.47H58.94a.47.47,0,0,0,.48-.47V34h1.9v7.6Zm26.13,2.85H35.18v-1.9H59.89ZM62.4,17.34l1.19-4.76h5l1.19,4.76Z"/><path class="cls-1" d="M27.58,16.86h8.55a.47.47,0,0,0,.48-.47v-10a.48.48,0,0,0-.48-.48H27.58a.49.49,0,0,0-.48.48v10A.48.48,0,0,0,27.58,16.86Zm.48-10H32a3.8,3.8,0,0,1-3,6.18,3.75,3.75,0,0,1-1-.12Zm0,7a4.94,4.94,0,0,0,1,.1,4.75,4.75,0,0,0,4.75-4.75,4.82,4.82,0,0,0-.64-2.38h2.54v9h-7.6Z"/><path class="cls-1" d="M39,22.56h17.1a.47.47,0,0,0,.48-.47V9.26a.48.48,0,0,0-.48-.48H39a.48.48,0,0,0-.48.48V22.09A.47.47,0,0,0,39,22.56Zm.47-12.83H55.62V21.61H49.16l-7-7a.46.46,0,0,0-.67,0l-2,2Zm0,8.28,2.38-2.38,6,6H39.46Z"/><path class="cls-1" d="M50.39,18.29A3.33,3.33,0,1,0,47.06,15,3.34,3.34,0,0,0,50.39,18.29Zm0-5.7A2.38,2.38,0,1,1,48,15,2.38,2.38,0,0,1,50.39,12.59Z"/><rect class="cls-2" width="89.37" height="45.37"/></g></g></svg>