<svg xmlns="http://www.w3.org/2000/svg" viewBox="0 0 43.25 31.59"><defs><style>.cls-1{fill:#cf8b9c;}.cls-2{fill:#d8345d;}.cls-3{fill:#e2432f;}.cls-4{fill:#ab3f81;}.cls-5{fill:#3e8596;}.cls-6{fill:#fff;}</style></defs><g id="Capa_2" data-name="Capa 2"><g id="Capa_1-2" data-name="Capa 1"><rect class="cls-1" width="43.25" height="31.59"/><rect class="cls-2" x="6.24" y="27.66" width="7.93" height="3.85"/><rect class="cls-3" x="14.16" y="27.66" width="7.93" height="3.85"/><rect class="cls-4" x="22.03" y="27.66" width="7.93" height="3.85"/><rect class="cls-5" x="29.94" y="27.66" width="7.93" height="3.85"/><path class="cls-6" d="M12.75,15.91v-2a.11.11,0,0,0,0-.06L12,12.1V10.87a.59.59,0,0,0-.6-.59H7.58a.59.59,0,0,0-.6.59V12.1l-.72,1.76a.11.11,0,0,0,0,.06v2a.15.15,0,0,0,.3,0v-.72h5.91v.73a.15.15,0,0,0,.15.14.15.15,0,0,0,.15-.15M7.58,10.57h3.83a.31.31,0,0,1,.3.3V12h-.36v-.44a.15.15,0,0,0-.15-.14H9.93a.15.15,0,0,0-.15.14V12H9.2v-.44a.14.14,0,0,0-.14-.14H7.79a.14.14,0,0,0-.15.14V12H7.28V10.87a.3.3,0,0,1,.3-.3m3.47,2h-1V11.7h1Zm-2.14,0h-1V11.7h1Zm-1.68-.26h.41v.4a.14.14,0,0,0,.15.15H9.06a.14.14,0,0,0,.14-.15v-.4h.58v.4a.15.15,0,0,0,.15.15H11.2a.15.15,0,0,0,.15-.15v-.4h.4l.62,1.49H6.61Zm-.69,1.79h5.91v.82H6.54Z"/><rect class="cls-6" x="14.27" y="13.31" width="0.45" height="0.25"/><rect class="cls-6" x="14.27" y="12.51" width="0.45" height="0.25"/><path class="cls-6" d="M13.58,15.44h.25v-.22h1.33v.22h.25v-.22h.16V12.11h-.93v-.7h.72l-.24-1.18H13.87l-.23,1.17h.74v.7h-1v3.11h.15Zm.49-4.95h.84l.13.66h-1.1Zm1.23,3.23H13.68v-.55H15.3ZM13.68,14H15.3v1H13.68Zm1.62-1.05H13.68v-.56H15.3Z"/><rect class="cls-6" x="14.27" y="14.15" width="0.45" height="0.25"/><polygon class="cls-6" points="6.72 18.53 8.09 18.53 8.09 19.01 6.72 19.01 6.72 19.88 8.09 19.88 8.09 20.36 6.24 20.36 6.24 17.2 8.09 17.2 8.09 17.68 6.72 17.68 6.72 18.53"/><path class="cls-6" d="M8.33,19.62h.48c0,.23.26.33.51.33s.38-.05.38-.24-.14-.21-.29-.24L9,19.35a.66.66,0,0,1-.59-.69c0-.46.37-.69.84-.69a.78.78,0,0,1,.88.75H9.61c0-.21-.21-.29-.42-.29s-.34.05-.34.24.14.18.26.21l.43.11c.42.11.63.29.63.73s-.36.69-.86.69-1-.26-1-.79"/><path class="cls-6" d="M12.4,19.44a.9.9,0,0,1-.92,1,.63.63,0,0,1-.54-.27v1.05h-.47V18h.47v.2a.63.63,0,0,1,.54-.27.9.9,0,0,1,.92,1ZM11.93,19a.46.46,0,0,0-.49-.52.46.46,0,0,0-.5.52v.48a.46.46,0,0,0,.5.52.46.46,0,0,0,.49-.52Z"/><path class="cls-6" d="M14.15,19.62h.48a.89.89,0,0,1-1,.79.9.9,0,0,1-1-1v-.5a.9.9,0,0,1,1-1,.9.9,0,0,1,1,1v.42H13.19v.07a.46.46,0,0,0,.49.52.45.45,0,0,0,.47-.33m-1-.69h1a.49.49,0,1,0-1,0"/><path class="cls-6" d="M15.91,20.41a.9.9,0,0,1-1-1v-.5a.9.9,0,0,1,1-1,.88.88,0,0,1,.95.84h-.47a.44.44,0,0,0-.48-.38.46.46,0,0,0-.5.52v.48a.46.46,0,0,0,.5.52.44.44,0,0,0,.48-.38h.47a.88.88,0,0,1-.95.84"/><path class="cls-6" d="M17.67,17.69H17.2v-.48h.47Zm0,2.67H17.2V18h.47Z"/><path class="cls-6" d="M18.53,18.76h-.48A.89.89,0,0,1,19,18a.9.9,0,0,1,1,1v1.42h-.47v-.22a.85.85,0,0,1-.69.27c-.42,0-.79-.21-.79-.69a.69.69,0,0,1,.5-.7,4.35,4.35,0,0,1,1-.14h0a.46.46,0,0,0-.49-.45.45.45,0,0,0-.47.33m1,.67V19.3a2.49,2.49,0,0,0-.9.16.26.26,0,0,0-.11.22c0,.19.15.27.4.27s.61-.08.61-.52"/><path class="cls-6" d="M20.84,19.69c0,.17,0,.22.21.22h.07v.45h-.2a.48.48,0,0,1-.55-.55V17.2h.47Z"/><path class="cls-6" d="M6.24,26.59V21.33H8.12A1.75,1.75,0,0,1,10,23.19v1.55a1.75,1.75,0,0,1-1.87,1.85Zm1.88-.79a1,1,0,0,0,1.07-1.08V23.2a1,1,0,0,0-1.07-1.07H7V25.8Z"/><path class="cls-6" d="M10.54,24.22a1.49,1.49,0,0,1,1.6-1.61,1.49,1.49,0,0,1,1.61,1.61v.84a1.49,1.49,0,0,1-1.61,1.61,1.49,1.49,0,0,1-1.6-1.61Zm2.43,0a.77.77,0,0,0-.83-.86.76.76,0,0,0-.82.86V25A.83.83,0,1,0,13,25Z"/><path class="cls-6" d="M16,23.41a.76.76,0,0,0-.82.86v2.32h-.78V22.71h.78v.38a1,1,0,0,1,.9-.44h.3v.76Z"/><path class="cls-6" d="M19.87,26.59h-.78V24.23a.79.79,0,1,0-1.57,0v2.36h-.79V22.71h.79v.34a1,1,0,0,1,.86-.44,1.37,1.37,0,0,1,1.1.55,1.46,1.46,0,0,1,1.18-.55,1.49,1.49,0,0,1,1.57,1.61v2.37h-.79V24.23a.79.79,0,1,0-1.57,0Z"/><path class="cls-6" d="M23.73,22.13h-.79v-.8h.79Zm0,4.46h-.79V22.71h.79Z"/><path class="cls-6" d="M25.46,25.46c0,.29.05.37.36.37h.59v.76H25.6a.8.8,0,0,1-.92-.92V23.46h-.55v-.75h.55v-.88h.78v.88h.95v.75h-.95Z"/><path class="cls-6" d="M26.81,24.22a1.61,1.61,0,0,1,3.22,0v.84a1.61,1.61,0,1,1-3.22,0Zm2.43,0a.82.82,0,1,0-1.64,0V25a.82.82,0,1,0,1.64,0Z"/><path class="cls-6" d="M32.3,23.41a.76.76,0,0,0-.82.86v2.32h-.79V22.71h.79v.38a1,1,0,0,1,.89-.44h.3v.76Z"/><path class="cls-6" d="M33.79,22.13H33v-.8h.78Zm0,4.46H33V22.71h.78Z"/><path class="cls-6" d="M34.46,24.22a1.61,1.61,0,1,1,3.21,0v.84a1.61,1.61,0,1,1-3.21,0Zm2.43,0a.83.83,0,1,0-1.65,0V25a.83.83,0,1,0,1.65,0Z"/></g></g></svg>