<svg xmlns="http://www.w3.org/2000/svg" viewBox="0 0 89.37 45.37"><defs><style>.cls-1{fill:#db0812;}.cls-2{fill:none;}</style></defs><g id="Capa_2" data-name="Capa 2"><g id="Capa_1-2" data-name="Capa 1"><path class="cls-1" d="M33.82,29.35h2.83a.86.86,0,1,0,0-1.71H33.82a.86.86,0,1,0,0,1.71Z"/><path class="cls-1" d="M52.65,27.63H49.82a.86.86,0,1,0,0,1.72h2.83a.86.86,0,0,0,0-1.72Z"/><path class="cls-1" d="M33.82,39.61h2.83a.86.86,0,1,0,0-1.71H33.82a.86.86,0,1,0,0,1.71Z"/><path class="cls-1" d="M62.45,23.32H49.27V15.87a4.24,4.24,0,1,1,8.48,0,.84.84,0,1,0,1.68,0,5.93,5.93,0,0,0-11.85-.24.1.1,0,0,0,0,.06v7.63H41.79a.81.81,0,0,0,.24-.54.87.87,0,0,0-.87-.88H38.35a.87.87,0,0,0-.87.88,1,1,0,0,0,.24.54h-5a.81.81,0,0,0,.24-.54.87.87,0,0,0-.87-.88H29.3a.87.87,0,0,0-.87.88,1,1,0,0,0,.24.54H26.92a2.35,2.35,0,0,0-2.35,2.35V43a2.35,2.35,0,0,0,2.35,2.35H62.45A2.36,2.36,0,0,0,64.81,43V25.69A2.37,2.37,0,0,0,62.45,23.32ZM44.78,43.68H26.92a.67.67,0,0,1-.66-.67V35.2H44.78Zm0-10.2H26.26V25.67a.67.67,0,0,1,.66-.66H44.78ZM63.1,43h0a.66.66,0,0,1-.65.65H52.84v0H46.5V25h16a.66.66,0,0,1,.65.65Z"/><rect class="cls-2" width="89.37" height="45.37"/></g></g></svg>