<svg xmlns="http://www.w3.org/2000/svg" viewBox="0 0 67.53 24.37"><defs><style>.cls-1{fill:#00a486;}.cls-2{fill:#327c7c;}.cls-3{fill:#db5170;}.cls-4{fill:#525487;}.cls-5{fill:#dc6f34;}.cls-6{fill:#fff;}</style></defs><g id="Capa_2" data-name="Capa 2"><g id="Capa_1-2" data-name="Capa 1"><rect class="cls-1" width="67.53" height="24.37"/><rect class="cls-2" x="30.57" y="21.48" width="8.22" height="2.89"/><rect class="cls-3" x="55" y="21.48" width="8.22" height="2.89"/><rect class="cls-4" x="38.62" y="21.48" width="8.22" height="2.89"/><rect class="cls-5" x="46.82" y="21.48" width="8.22" height="2.89"/><polygon class="cls-6" points="9.89 16.01 11.72 16.01 11.72 16.65 9.89 16.65 9.89 17.82 11.72 17.82 11.72 18.45 9.25 18.45 9.25 14.24 11.72 14.24 11.72 14.88 9.89 14.88 9.89 16.01"/><path class="cls-6" d="M12,17.46h.65c0,.31.34.45.67.45s.51-.08.51-.33-.19-.27-.39-.32l-.59-.15a.9.9,0,0,1-.78-.93c0-.61.49-.91,1.12-.91a1,1,0,0,1,1.18,1h-.65a.52.52,0,0,0-.57-.39c-.19,0-.45.08-.45.32s.18.25.35.29l.57.15c.56.14.84.38.84,1s-.48.91-1.15.91-1.27-.34-1.31-1.05"/><path class="cls-6" d="M16.84,16.57a.66.66,0,1,0-1.32,0v.65a.66.66,0,1,0,1.32,0Zm.62.66a1.19,1.19,0,0,1-1.22,1.28.85.85,0,0,1-.72-.35v1.4h-.63V15.35h.63v.27a.85.85,0,0,1,.72-.35,1.19,1.19,0,0,1,1.22,1.28Z"/><path class="cls-6" d="M18.52,16.55h1.31a.66.66,0,1,0-1.31,0m1.28.92h.64a1.18,1.18,0,0,1-1.27,1,1.19,1.19,0,0,1-1.28-1.28v-.68a1.19,1.19,0,0,1,1.28-1.28,1.19,1.19,0,0,1,1.29,1.28v.56H18.52v.1a.62.62,0,0,0,.65.7.6.6,0,0,0,.63-.44"/><path class="cls-6" d="M22.14,18.51a1.19,1.19,0,0,1-1.29-1.28v-.68a1.29,1.29,0,0,1,2.57-.16h-.64a.6.6,0,0,0-.64-.52.62.62,0,0,0-.66.7v.65a.62.62,0,0,0,.66.69.6.6,0,0,0,.64-.51h.64a1.18,1.18,0,0,1-1.28,1.11"/><path class="cls-6" d="M24.49,18.45h-.62v-3.1h.62Zm0-3.56h-.62v-.65h.62Z"/><path class="cls-6" d="M26.92,17.21V17a3,3,0,0,0-1.19.21.31.31,0,0,0-.15.29c0,.25.19.37.52.37s.82-.12.82-.7m-1.28-.9H25a1.17,1.17,0,0,1,1.26-1,1.19,1.19,0,0,1,1.29,1.28v1.9h-.63v-.29a1.13,1.13,0,0,1-.92.35c-.56,0-1.05-.28-1.05-.92a.92.92,0,0,1,.67-.93,6.36,6.36,0,0,1,1.3-.18h0a.61.61,0,0,0-.66-.61.59.59,0,0,0-.62.44"/><path class="cls-6" d="M28.72,17.55c0,.23,0,.3.28.3h.1v.6h-.28c-.51,0-.73-.25-.73-.74V14.24h.63Z"/><path class="cls-6" d="M33.81,19.56a2.8,2.8,0,0,1-3-3V13.9a2.8,2.8,0,0,1,3-3,2.77,2.77,0,0,1,3,2.72H35.51a1.72,1.72,0,0,0-3.42.24v2.7a1.72,1.72,0,0,0,3.42.24h1.27a2.78,2.78,0,0,1-3,2.72"/><path class="cls-6" d="M41.4,15.68a1.31,1.31,0,1,0-2.62,0V17a1.31,1.31,0,1,0,2.62,0Zm-3.87,0a2.56,2.56,0,1,1,5.12,0V17a2.56,2.56,0,1,1-5.12,0Z"/><path class="cls-6" d="M46.1,19.56A2.38,2.38,0,0,1,43.54,17V15.66A2.37,2.37,0,0,1,46.1,13.1a2.34,2.34,0,0,1,2.54,2.22H47.37a1.18,1.18,0,0,0-1.27-1,1.22,1.22,0,0,0-1.31,1.38V17a1.22,1.22,0,0,0,1.31,1.38,1.18,1.18,0,0,0,1.28-1h1.26a2.35,2.35,0,0,1-2.54,2.23"/><path class="cls-6" d="M50.83,19.44H49.58V13.26h1.25Zm0-7.1H49.58V11.06h1.25Z"/><path class="cls-6" d="M53.31,19.44H52.06V13.26h1.25v.54a1.67,1.67,0,0,1,1.43-.7,2.36,2.36,0,0,1,2.43,2.56v3.78H55.93V15.68a1.31,1.31,0,1,0-2.62,0Z"/><path class="cls-6" d="M62,17v-.35a5.94,5.94,0,0,0-2.38.42.62.62,0,0,0-.3.57c0,.5.38.73,1.05.73S62,18.12,62,17m-2.56-1.8H58.14a2.34,2.34,0,0,1,2.52-2.08,2.37,2.37,0,0,1,2.56,2.56v3.78H62v-.59a2.24,2.24,0,0,1-1.83.71C59,19.56,58,19,58,17.73a1.84,1.84,0,0,1,1.34-1.86A12.41,12.41,0,0,1,62,15.51h0a1.32,1.32,0,0,0-2.55-.32"/><path class="cls-6" d="M22.74,9.79h.53a.16.16,0,0,0,.16-.16.16.16,0,0,0-.16-.16h-.53a.16.16,0,0,0-.16.16.16.16,0,0,0,.16.16"/><path class="cls-6" d="M26.26,9.47h-.53a.17.17,0,0,0-.16.17.16.16,0,0,0,.16.15h.53a.16.16,0,0,0,.16-.15.17.17,0,0,0-.16-.17"/><path class="cls-6" d="M22.74,11.71h.53a.16.16,0,0,0,0-.32h-.53a.16.16,0,0,0,0,.32"/><path class="cls-6" d="M28.21,12.34a.13.13,0,0,1-.12.13h-3V9h3a.13.13,0,0,1,.12.13v3.23Zm-3.42-1.77H21.33V9.11A.13.13,0,0,1,21.45,9h3.34Zm0,1.9H21.45a.13.13,0,0,1-.12-.13V10.89h3.46Zm3.3-3.8H25.63V7.28a.79.79,0,1,1,1.58,0,.16.16,0,0,0,.16.15.15.15,0,0,0,.15-.15,1.11,1.11,0,0,0-2.21,0h0V8.67H24.23s.05-.06.05-.1a.18.18,0,0,0-.17-.17h-.52a.18.18,0,0,0-.17.17s0,.06,0,.1h-.93s.05-.06.05-.1a.18.18,0,0,0-.17-.17H21.9a.17.17,0,0,0-.16.17s0,.06,0,.1h-.33a.44.44,0,0,0-.44.44v3.24a.44.44,0,0,0,.44.43h6.64a.45.45,0,0,0,.44-.45V9.11a.44.44,0,0,0-.44-.44"/></g></g></svg>