<svg xmlns="http://www.w3.org/2000/svg" viewBox="0 0 89.37 45.37"><defs><style>.cls-1{fill:#db0812;}.cls-2{fill:none;}</style></defs><g id="Capa_2" data-name="Capa 2"><g id="Capa_1-2" data-name="Capa 1"><path class="cls-1" d="M55.68,17.08a.44.44,0,0,0-.43.44v.87a.44.44,0,0,0,.87,0v-.87A.44.44,0,0,0,55.68,17.08Z"/><path class="cls-1" d="M56.12,20.17a.44.44,0,1,0-.87,0V21a.44.44,0,1,0,.87,0Z"/><path class="cls-1" d="M56.12,22.87a.44.44,0,1,0-.87,0v.87a.44.44,0,0,0,.87,0Z"/><path class="cls-1" d="M55.68,25.12a.44.44,0,0,0-.43.44v.87a.44.44,0,1,0,.87,0v-.87A.44.44,0,0,0,55.68,25.12Z"/><path class="cls-1" d="M57.43,20.17a.44.44,0,0,0,.43-.44v-.87a.44.44,0,0,0-.87,0v.87A.44.44,0,0,0,57.43,20.17Z"/><path class="cls-1" d="M57,22.39a.44.44,0,1,0,.87,0v-.87a.44.44,0,1,0-.87,0Z"/><path class="cls-1" d="M57,25.09a.44.44,0,0,0,.87,0v-.88a.44.44,0,0,0-.87,0Z"/><path class="cls-1" d="M53.94,18.43a.44.44,0,0,0-.44.43v.87a.44.44,0,1,0,.88,0v-.87A.44.44,0,0,0,53.94,18.43Z"/><path class="cls-1" d="M54.38,21.52a.44.44,0,1,0-.88,0v.87a.44.44,0,1,0,.88,0Z"/><path class="cls-1" d="M53.94,23.78a.44.44,0,0,0-.44.43v.88a.44.44,0,0,0,.88,0v-.88A.44.44,0,0,0,53.94,23.78Z"/><path class="cls-1" d="M63,27.94h-.19V12.05A3.94,3.94,0,0,0,55,11.33a4,4,0,0,0-3.21,3.89.8.8,0,0,0,.79.79h6.3a.8.8,0,0,0,.8-.79,4,4,0,0,0-3.06-3.84,2.35,2.35,0,0,1,4.6.67V27.94H26.44a2.42,2.42,0,1,0,0,4.83h1.5l5,8.56-1.67,2.86a.78.78,0,1,0,1.35.79l1.67-2.85H55.09L56.75,45a.81.81,0,0,0,.68.39.82.82,0,0,0,.39-.11.75.75,0,0,0,.28-1.07l-1.62-2.86,5-8.6h1.5a2.4,2.4,0,0,0,2.42-2.41A2.34,2.34,0,0,0,63,27.94ZM57.9,14.39H53.46a2.36,2.36,0,0,1,4.44,0ZM55.13,40.54H34.28l-4.51-7.77H59.65ZM63,31.19H26.4a.84.84,0,0,1,0-1.67H62.93a.82.82,0,0,1,.84.84A.81.81,0,0,1,63,31.19Z"/><rect class="cls-2" width="89.37" height="45.37"/></g></g></svg>