<svg xmlns="http://www.w3.org/2000/svg" xmlns:xlink="http://www.w3.org/1999/xlink" viewBox="0 0 99.02 17.62"><defs><style>.cls-1{fill:none;}.cls-2{opacity:0.75;}.cls-3{clip-path:url(#clip-path);}.cls-4{fill:#00adae;}.cls-5{fill:#fff;}</style><clipPath id="clip-path"><rect class="cls-1" width="99.02" height="17.62"/></clipPath></defs><g id="Capa_2" data-name="Capa 2"><g id="Capa_1-2" data-name="Capa 1"><g class="cls-2"><g class="cls-3"><g class="cls-3"><rect class="cls-4" x="0.19" y="0.19" width="98.64" height="17.24"/></g></g></g><polygon class="cls-5" points="14.6 8.71 17.74 8.71 17.74 9.93 14.6 9.93 14.6 12.17 17.74 12.17 17.74 13.39 13.49 13.39 13.49 5.32 17.74 5.32 17.74 6.54 14.6 6.54 14.6 8.71"/><path class="cls-5" d="M18.42,11.49h1.11a1.05,1.05,0,0,0,1.17.85c.47,0,.87-.14.87-.62s-.32-.53-.67-.62l-1-.29A1.68,1.68,0,0,1,18.55,9a1.71,1.71,0,0,1,1.92-1.75,1.85,1.85,0,0,1,2,1.9H21.38a.89.89,0,0,0-1-.74c-.33,0-.76.14-.76.61s.31.48.59.56l1,.28a1.67,1.67,0,0,1,1.45,1.86,1.73,1.73,0,0,1-2,1.76,2.06,2.06,0,0,1-2.27-2"/><path class="cls-5" d="M26.84,9.77c0-.9-.46-1.32-1.13-1.32s-1.13.42-1.13,1.32V11c0,.9.46,1.31,1.13,1.31s1.13-.41,1.13-1.31ZM27.92,11a2.17,2.17,0,0,1-2.11,2.47,1.42,1.42,0,0,1-1.23-.68v2.69H23.5V7.44h1.08V8a1.4,1.4,0,0,1,1.23-.68,2.17,2.17,0,0,1,2.11,2.47Z"/><path class="cls-5" d="M29.88,9.73v0h2.26v0c0-.86-.47-1.29-1.13-1.29s-1.13.43-1.13,1.29m2.21,1.77h1.1a2.09,2.09,0,0,1-2.18,2A2.16,2.16,0,0,1,28.8,11V9.75a2.22,2.22,0,1,1,4.42,0v1.07H29.88V11c0,.9.46,1.32,1.13,1.32a1,1,0,0,0,1.08-.84"/><path class="cls-5" d="M36.26,13.51A2.17,2.17,0,0,1,34,11V9.75a2.17,2.17,0,0,1,2.22-2.47,2.11,2.11,0,0,1,2.2,2.14h-1.1a1.06,1.06,0,0,0-1.1-1c-.67,0-1.14.43-1.14,1.33V11c0,.9.47,1.32,1.14,1.32a1.06,1.06,0,0,0,1.11-1h1.09a2.11,2.11,0,0,1-2.2,2.15"/><path class="cls-5" d="M40.45,13.39H39.37V7.44h1.08Zm0-6.84H39.37V5.32h1.08Z"/><path class="cls-5" d="M44.78,11v-.34a4.72,4.72,0,0,0-2.06.41.6.6,0,0,0-.26.55c0,.48.33.7.91.7A1.24,1.24,0,0,0,44.78,11M42.56,9.29h-1.1a2.09,2.09,0,0,1,2.18-2,2.17,2.17,0,0,1,2.22,2.47v3.64H44.78v-.56a1.87,1.87,0,0,1-1.59.68,1.66,1.66,0,0,1-1.81-1.77A1.78,1.78,0,0,1,42.53,10a9.62,9.62,0,0,1,2.24-.34h0a1.09,1.09,0,0,0-1.13-1.16,1,1,0,0,0-1.08.85"/><path class="cls-5" d="M48,11.66c0,.44.07.57.49.57h.17v1.16h-.48c-.88,0-1.26-.48-1.26-1.42V5.32H48Z"/><path class="cls-5" d="M52.64,9.93v2.24h1.85a1,1,0,0,0,1.09-1.12,1,1,0,0,0-1.09-1.12Zm0-3.39V8.71h1.68a1,1,0,0,0,1.09-1.09,1,1,0,0,0-1.09-1.08Zm-1.1-1.22h2.78a2.07,2.07,0,0,1,2.21,2.3,2.05,2.05,0,0,1-.71,1.64,2.08,2.08,0,0,1,.88,1.8,2.07,2.07,0,0,1-2.21,2.33h-3Z"/><path class="cls-5" d="M60.74,11v-.34a4.72,4.72,0,0,0-2.06.41.6.6,0,0,0-.26.55c0,.48.33.7.91.7A1.24,1.24,0,0,0,60.74,11M58.52,9.29h-1.1a2.09,2.09,0,0,1,2.18-2,2.17,2.17,0,0,1,2.22,2.47v3.64H60.74v-.56a1.87,1.87,0,0,1-1.59.68,1.66,1.66,0,0,1-1.81-1.77A1.78,1.78,0,0,1,58.49,10a9.62,9.62,0,0,1,2.24-.34h0A1.09,1.09,0,0,0,59.6,8.44a1,1,0,0,0-1.08.85"/><path class="cls-5" d="M63.36,6.71c.17-1.15.8-1.34,1.14-1.34a1.07,1.07,0,0,1,.54.11l.39.18a.55.55,0,0,0,.28.08c.12,0,.22-.08.3-.34h.87c-.18,1.15-.8,1.33-1.14,1.33a1.17,1.17,0,0,1-.54-.1l-.39-.18a.55.55,0,0,0-.28-.08c-.12,0-.22.08-.31.34ZM64,13.39H62.91V7.44H64V8a1.4,1.4,0,0,1,1.23-.68,2.17,2.17,0,0,1,2.11,2.47v3.64H66.25V9.77c0-.9-.46-1.32-1.13-1.32S64,8.87,64,9.77Z"/><path class="cls-5" d="M71.62,9.77c0-.9-.46-1.33-1.13-1.33s-1.13.43-1.13,1.33V11c0,.9.46,1.32,1.13,1.32s1.13-.42,1.13-1.32Zm-3.34,0a2.22,2.22,0,1,1,4.42,0V11a2.22,2.22,0,1,1-4.42,0Z"/><path class="cls-5" d="M85.29,5.26a.14.14,0,0,0,.14-.14V4.84a.14.14,0,0,0-.14-.14.15.15,0,0,0-.15.14v.28a.15.15,0,0,0,.15.14"/><path class="cls-5" d="M85.14,6a.15.15,0,0,0,.15.14A.15.15,0,0,0,85.43,6V5.7a.14.14,0,0,0-.14-.14.15.15,0,0,0-.15.14Z"/><path class="cls-5" d="M85.14,6.85a.15.15,0,0,0,.15.14.14.14,0,0,0,.14-.14V6.57a.14.14,0,0,0-.14-.14.15.15,0,0,0-.15.14Z"/><path class="cls-5" d="M85.14,7.72a.15.15,0,0,0,.15.14.14.14,0,0,0,.14-.14V7.44a.14.14,0,0,0-.14-.14.15.15,0,0,0-.15.14Z"/><path class="cls-5" d="M85.85,5.7A.14.14,0,0,0,86,5.56V5.27a.14.14,0,1,0-.28,0v.29a.14.14,0,0,0,.14.14"/><path class="cls-5" d="M85.71,6.41a.14.14,0,1,0,.28,0V6.13a.14.14,0,1,0-.28,0Z"/><path class="cls-5" d="M85.71,7.28a.14.14,0,1,0,.28,0V7a.14.14,0,1,0-.28,0Z"/><path class="cls-5" d="M84.72,5.7a.14.14,0,0,0,.14-.14V5.27a.14.14,0,0,0-.14-.14.15.15,0,0,0-.14.14v.29a.15.15,0,0,0,.14.14"/><path class="cls-5" d="M84.58,6.41a.14.14,0,0,0,.14.14.14.14,0,0,0,.14-.14V6.13A.14.14,0,0,0,84.72,6a.15.15,0,0,0-.14.14Z"/><path class="cls-5" d="M84.58,7.28a.14.14,0,0,0,.14.14.14.14,0,0,0,.14-.14V7a.14.14,0,0,0-.14-.14.15.15,0,0,0-.14.14Z"/><path class="cls-5" d="M87.64,9.25H75.83a.27.27,0,1,1,0-.53h11.8A.26.26,0,0,1,87.9,9a.26.26,0,0,1-.26.26m-2.53,3H78.37l-1.45-2.5h9.65ZM86,3.83H84.57a.76.76,0,0,1,1.43,0M87.64,8.2h-.06V3.07a1.27,1.27,0,0,0-2.52-.23A1.29,1.29,0,0,0,84,4.1a.25.25,0,0,0,.25.25h2a.26.26,0,0,0,.26-.25,1.31,1.31,0,0,0-1-1.25.76.76,0,0,1,.73-.53.75.75,0,0,1,.75.75V8.2H75.84a.79.79,0,0,0,0,1.57h.49l1.6,2.76-.54.92a.25.25,0,0,0,.09.35.25.25,0,0,0,.34-.09l.54-.92h6.73l.54.92a.29.29,0,0,0,.22.13.33.33,0,0,0,.13,0,.26.26,0,0,0,.09-.35l-.53-.92,1.6-2.78h.49A.77.77,0,0,0,88.41,9a.76.76,0,0,0-.77-.77"/></g></g></svg>