<svg width="118" height="87" viewBox="0 0 118 87" fill="none" xmlns="http://www.w3.org/2000/svg">
<path d="M102.238 43.5678C102.238 67.5151 82.824 86.926 58.8803 86.926C34.9365 86.926 15.5186 67.5151 15.5186 43.5678C15.5186 19.6205 34.933 0.206055 58.8803 0.206055C82.8276 0.206055 102.238 19.6169 102.238 43.5678Z" fill="#D90E17"/>
<path d="M58.8803 82.9314C80.6224 82.9314 98.2478 65.306 98.2478 43.5638C98.2478 21.8217 80.6224 4.19629 58.8803 4.19629C37.1382 4.19629 19.5127 21.8217 19.5127 43.5638C19.5127 65.306 37.1382 82.9314 58.8803 82.9314Z" fill="#D90E17"/>
<g style="mix-blend-mode:screen" opacity="0.6">
<path d="M58.8803 4.57196C80.3786 4.57196 97.8722 22.0655 97.8722 43.5638C97.8722 65.0622 80.3786 82.5557 58.8803 82.5557C37.3819 82.5557 19.8884 65.0622 19.8884 43.5638C19.8884 22.0655 37.3784 4.57196 58.8803 4.57196ZM58.8803 4.19629C37.1374 4.19629 19.5127 21.821 19.5127 43.5638C19.5127 65.3067 37.1374 82.9314 58.8803 82.9314C80.6232 82.9314 98.2478 65.3067 98.2478 43.5638C98.2478 21.821 80.6232 4.19629 58.8803 4.19629Z" fill="#D90E17"/>
</g>
<g style="mix-blend-mode:screen">
<path d="M34.0116 74.0783C38.789 62.6239 45.7673 52.0873 54.6558 43.2024C64.8911 32.9706 77.3095 25.2658 90.8018 20.5416C83.6499 10.6465 72.0218 4.19629 58.8768 4.19629C37.1339 4.19629 19.5093 21.821 19.5093 43.5638C19.5093 55.8724 25.162 66.859 34.008 74.0783H34.0116Z" fill="#D90E17"/>
</g>
<path d="M98.3434 16.8721C98.3434 20.8167 95.1466 24.0099 91.2056 24.0099C87.2646 24.0099 84.0679 20.8131 84.0679 16.8721C84.0679 12.9311 87.2646 9.73438 91.2056 9.73438C95.1466 9.73438 98.3434 12.9311 98.3434 16.8721Z" fill="#D90E17"/>
<path d="M94.9443 16.8718C94.9443 18.938 93.2715 20.6108 91.2053 20.6108C89.1391 20.6108 87.4663 18.938 87.4663 16.8718C87.4663 14.8056 89.1391 13.1328 91.2053 13.1328C93.2715 13.1328 94.9443 14.8056 94.9443 16.8718Z" fill="#D90E17"/>
<path d="M91.2053 13.1683C93.2467 13.1683 94.9089 14.8304 94.9089 16.8718C94.9089 18.9132 93.2467 20.5754 91.2053 20.5754C89.1639 20.5754 87.5017 18.9132 87.5017 16.8718C87.5017 14.8304 89.1639 13.1683 91.2053 13.1683ZM91.2053 13.1328C89.1391 13.1328 87.4663 14.8056 87.4663 16.8718C87.4663 18.938 89.1391 20.6108 91.2053 20.6108C93.2715 20.6108 94.9443 18.938 94.9443 16.8718C94.9443 14.8056 93.2715 13.1328 91.2053 13.1328Z" fill="#D90E17"/>
<g style="mix-blend-mode:screen" opacity="0.5">
<path d="M88.8449 19.7712C89.2986 18.6832 89.9613 17.6838 90.8048 16.8403C91.7759 15.8692 92.9561 15.1356 94.239 14.689C93.5586 13.7498 92.4563 13.1367 91.2053 13.1367C89.1391 13.1367 87.4663 14.8095 87.4663 16.8757C87.4663 18.0453 88.0014 19.0872 88.8449 19.7748V19.7712Z" fill="#D90E17"/>
</g>
<path d="M91.2053 20.6118C93.2703 20.6118 94.9443 18.9378 94.9443 16.8728C94.9443 14.8078 93.2703 13.1338 91.2053 13.1338C89.1403 13.1338 87.4663 14.8078 87.4663 16.8728C87.4663 18.9378 89.1403 20.6118 91.2053 20.6118Z" fill="#D90E17"/>
<g style="mix-blend-mode:screen" opacity="0.6">
<path d="M91.2053 13.1692C93.2467 13.1692 94.9089 14.8314 94.9089 16.8728C94.9089 18.9142 93.2467 20.5763 91.2053 20.5763C89.1639 20.5763 87.5017 18.9142 87.5017 16.8728C87.5017 14.8314 89.1639 13.1692 91.2053 13.1692ZM91.2053 13.1338C89.1391 13.1338 87.4663 14.8066 87.4663 16.8728C87.4663 18.939 89.1391 20.6118 91.2053 20.6118C93.2715 20.6118 94.9443 18.939 94.9443 16.8728C94.9443 14.8066 93.2715 13.1338 91.2053 13.1338Z" fill="#D90E17"/>
</g>
<g style="mix-blend-mode:screen">
<path d="M88.8449 19.7718C89.2986 18.6838 89.9613 17.6844 90.8048 16.8373C91.7759 15.8663 92.9561 15.1326 94.239 14.6861C93.5586 13.7469 92.4563 13.1338 91.2053 13.1338C89.1391 13.1338 87.4663 14.8066 87.4663 16.8728C87.4663 18.0423 88.0014 19.0843 88.8449 19.7718Z" fill="#D90E17"/>
</g>
<path d="M113.352 62.5812H4.40722C2.21699 62.5812 0.441406 60.8057 0.441406 58.6154L8.8692 43.5637L0.441406 28.5156C0.441406 26.3254 2.21699 24.5498 4.40722 24.5498H113.352C115.542 24.5498 117.318 26.3254 117.318 28.5156L108.89 43.5673L117.318 58.619C117.318 60.8092 115.542 62.5848 113.352 62.5848V62.5812Z" fill="#D90E17"/>
</svg>
